<svg width="1792" height="1792" xmlns="http://www.w3.org/2000/svg"><path d="M1664 1088v192q0 169-128 286v194q0 14-9 23t-23 9h-64q-14 0-23-9t-9-23v-118q-63 22-128 22H512q-65 0-128-22v110q0 17-9.5 28.5T352 1792h-64q-13 0-22.5-11.5T256 1752v-186q-128-117-128-286v-192h1536zM704 672q0 14-9 23t-23 9-23-9-9-23 9-23 23-9 23 9 9 23zm64-64q0 14-9 23t-23 9-23-9-9-23 9-23 23-9 23 9 9 23zm-64-64q0 14-9 23t-23 9-23-9-9-23 9-23 23-9 23 9 9 23zm128 0q0 14-9 23t-23 9-23-9-9-23 9-23 23-9 23 9 9 23zm-64-64q0 14-9 23t-23 9-23-9-9-23 9-23 23-9 23 9 9 23zm-64-64q0 14-9 23t-23 9-23-9-9-23 9-23 23-9 23 9 9 23zm1088 512v64q0 14-9 23t-23 9H32q-14 0-23-9t-9-23v-64q0-14 9-23t23-9h96V256q0-106 75-181T384 0q108 0 184 78 46-19 98-12t93 39l22-22q11-11 22 0l42 42q11 11 0 22L531 461q-11 11-22 0l-42-42q-11-11 0-22l22-22q-36-46-40.5-104T472 163q-37-35-88-35-53 0-90.5 37.5T256 256v640h1504q14 0 23 9t9 23zM896 480q0 14-9 23t-23 9-23-9-9-23 9-23 23-9 23 9 9 23zm-64-64q0 14-9 23t-23 9-23-9-9-23 9-23 23-9 23 9 9 23zm-64-64q0 14-9 23t-23 9-23-9-9-23 9-23 23-9 23 9 9 23zm192 64q0 14-9 23t-23 9-23-9-9-23 9-23 23-9 23 9 9 23zm-64-64q0 14-9 23t-23 9-23-9-9-23 9-23 23-9 23 9 9 23zm-64-64q0 14-9 23t-23 9-23-9-9-23 9-23 23-9 23 9 9 23zm192 64q0 14-9 23t-23 9-23-9-9-23 9-23 23-9 23 9 9 23zm-64-64q0 14-9 23t-23 9-23-9-9-23 9-23 23-9 23 9 9 23zm128 0q0 14-9 23t-23 9-23-9-9-23 9-23 23-9 23 9 9 23z"/></svg>