<svg width="2048" height="1792" xmlns="http://www.w3.org/2000/svg"><path d="M1558 852q61 356 298 556 0 52-38 90t-90 38h-448q0 106-75 181t-181 75-180.5-74.5T768 1537zm-534 860q16 0 16-16t-16-16q-59 0-101.5-42.5T880 1536q0-16-16-16t-16 16q0 73 51.5 124.5T1024 1712zM2026 112q8 10 7.5 23.5T2023 158L151 1780q-10 8-23.5 7t-21.5-11l-84-96q-8-10-7.5-23.5T25 1635l186-161q-19-32-19-66 50-42 91-88t85-119.5 74.5-158.5 50-206T512 576q0-152 117-282.5T936 135q-8-19-8-39 0-40 28-68t68-28 68 28 28 68q0 20-8 39 124 18 219 82.5T1479 375l418-363q10-8 23.5-7t21.5 11z"/></svg>