<svg width="2048" height="1792" xmlns="http://www.w3.org/2000/svg"><path d="M896 1212q0-54-7.5-100.5t-24.5-90-51-68.5-81-25q-64 64-156 64t-156-64q-47 0-81 25t-51 68.5-24.5 90T256 1212q0 55 31.5 93.5T363 1344h426q44 0 75.5-38.5T896 1212zM768 768q0-80-56-136t-136-56-136 56-56 136 56 136 136 56 136-56 56-136zm1024 480v-64q0-14-9-23t-23-9h-704q-14 0-23 9t-9 23v64q0 14 9 23t23 9h704q14 0 23-9t9-23zm-384-256v-64q0-14-9-23t-23-9h-320q-14 0-23 9t-9 23v64q0 14 9 23t23 9h320q14 0 23-9t9-23zm384 0v-64q0-14-9-23t-23-9h-192q-14 0-23 9t-9 23v64q0 14 9 23t23 9h192q14 0 23-9t9-23zm0-256v-64q0-14-9-23t-23-9h-704q-14 0-23 9t-9 23v64q0 14 9 23t23 9h704q14 0 23-9t9-23zM128 384h1792v-96q0-14-9-23t-23-9H160q-14 0-23 9t-9 23v96zm1920-96v1216q0 66-47 113t-113 47H160q-66 0-113-47T0 1504V288q0-66 47-113t113-47h1728q66 0 113 47t47 113z"/></svg>