<svg width="1792" height="1792" xmlns="http://www.w3.org/2000/svg"><path d="M1341 784q29-44-6.5-129.5T1213 512q-58-39-125.5-53.5t-118-4.5-68.5 37q-12 23-4.5 28t42.5 10q23 3 38.5 5t44.5 9.5 56 17.5q36 13 67.5 31.5t53 37 40 38.5 30.5 38 22 34.5 16.5 28.5 12 18.5 10.5 6 11-9.5zm363 574q-52 127-148.5 220T1341 1719.5t-253 60.5-266-13.5-251-91T361 1514t-141.5-235.5T173 975q1-41 8.5-84.5t12.5-64 24-80.5 23-73q-51 208 1 397t173 318 291 206 346 83 349-74.5 289-244.5q20-27 18-14 0 4-4 14zm-239-449q0 104-40.5 199T1316 1272t-162 109.5-198 40.5-198-40.5T596 1272t-108.5-164T447 909t40.5-199T596 546t162-109.5T956 396t198 40.5T1316 546t108.5 164 40.5 199zm287-288q-65-147-180.5-251t-253-153.5-292-53.5-301 36.5-275.5 129T230 540 99 837t-10 373q-49-161-51.5-311.5T73 626t109-227 165.5-180.5 207-126 232-71 242.5-9 236 54T1481 191t178 197q33 50 62 121t31 112zm-62 342q12-244-136.5-416T1157 307q-8 0-10-5t24-8q125 4 230 50t173 120 116 168.5 58.5 199-1 208T1686 1237t-122.5 167-185 117.5T1130 1568q108-30 201.5-80t174-123 129.5-176.5 55-225.5z"/></svg>