<svg width="2048" height="1792" xmlns="http://www.w3.org/2000/svg"><path d="M896 1088V960q0-14-9-23t-23-9H672V736q0-14-9-23t-23-9H512q-14 0-23 9t-9 23v192H288q-14 0-23 9t-9 23v128q0 14 9 23t23 9h192v192q0 14 9 23t23 9h128q14 0 23-9t9-23v-192h192q14 0 23-9t9-23zm576 64q0-53-37.5-90.5T1344 1024t-90.5 37.5-37.5 90.5 37.5 90.5 90.5 37.5 90.5-37.5 37.5-90.5zm256-256q0-53-37.5-90.5T1600 768t-90.5 37.5T1472 896t37.5 90.5 90.5 37.5 90.5-37.5T1728 896zm256 128q0 212-150 362t-362 150q-192 0-338-128H914q-146 128-338 128-212 0-362-150T64 1024t150-362 362-150h896q212 0 362 150t150 362z"/></svg>