<svg width="1792" height="1792" xmlns="http://www.w3.org/2000/svg"><path d="M1728 886q0 166-60 314l-20 49-185 33q-22 83-90.5 136.5T1216 1472v32q0 14-9 23t-23 9h-64q-14 0-23-9t-9-23V928q0-14 9-23t23-9h64q14 0 23 9t9 23v32q71 0 130 35.5t93 95.5l68-12q29-95 29-193 0-148-88-279t-236.5-209T896 320t-315.5 78T344 607t-88 279q0 98 29 193l68 12q34-60 93-95.5T576 960v-32q0-14 9-23t23-9h64q14 0 23 9t9 23v576q0 14-9 23t-23 9h-64q-14 0-23-9t-9-23v-32q-88 0-156.5-53.5T329 1282l-185-33-20-49q-60-148-60-314 0-151 67-291t179-242.5T576 189t320-61 320 61 266 163.5T1661 595t67 291z"/></svg>