<svg width="2048" height="1792" xmlns="http://www.w3.org/2000/svg"><path d="M448 1168v96q0 16-16 16h-96q-16 0-16-16v-96q0-16 16-16h96q16 0 16 16zm128-256v96q0 16-16 16H336q-16 0-16-16v-96q0-16 16-16h224q16 0 16 16zM448 656v96q0 16-16 16h-96q-16 0-16-16v-96q0-16 16-16h96q16 0 16 16zm1024 512v96q0 16-16 16H592q-16 0-16-16v-96q0-16 16-16h864q16 0 16 16zM832 912v96q0 16-16 16h-96q-16 0-16-16v-96q0-16 16-16h96q16 0 16 16zM704 656v96q0 16-16 16h-96q-16 0-16-16v-96q0-16 16-16h96q16 0 16 16zm384 256v96q0 16-16 16h-96q-16 0-16-16v-96q0-16 16-16h96q16 0 16 16zM960 656v96q0 16-16 16h-96q-16 0-16-16v-96q0-16 16-16h96q16 0 16 16zm384 256v96q0 16-16 16h-96q-16 0-16-16v-96q0-16 16-16h96q16 0 16 16zm384 256v96q0 16-16 16h-96q-16 0-16-16v-96q0-16 16-16h96q16 0 16 16zm-512-512v96q0 16-16 16h-96q-16 0-16-16v-96q0-16 16-16h96q16 0 16 16zm256 0v96q0 16-16 16h-96q-16 0-16-16v-96q0-16 16-16h96q16 0 16 16zm256 0v352q0 16-16 16h-224q-16 0-16-16v-96q0-16 16-16h112V656q0-16 16-16h96q16 0 16 16zm128 752V512H192v896h1664zm128-896v896q0 53-37.5 90.5T1856 1536H192q-53 0-90.5-37.5T64 1408V512q0-53 37.5-90.5T192 384h1664q53 0 90.5 37.5T1984 512z"/></svg>