<svg width="1792" height="1792" xmlns="http://www.w3.org/2000/svg"><path d="M1122 1192q0 86-17 197-31 215-55 313-22 90-152 90t-152-90q-24-98-55-313-17-110-17-197 0-168 224-168t224 168zm542-424q0 240-134 434t-350 280q-8 3-15-3t-6-15q7-48 10-66 4-32 6-47 1-9 9-12 159-81 255.5-234t96.5-337q0-180-91-330.5T1198 203t-337-74q-124 7-237 61T430.5 330.5t-128 202T256 773q1 184 99 336.5T612 1341q7 3 9 12 3 21 6 45 1 9 5 32.5t6 35.5q1 9-6.5 15t-15.5 2q-148-58-261-169.5t-173.5-264T129 730q7-143 66-273.5t154.5-227T574.5 72 847 2q164-10 315.5 46.5t261 160.5 175 250.5T1664 768zm-542-32q0 93-65.5 158.5T898 960t-158.5-65.5T674 736t65.5-158.5T898 512t158.5 65.5T1122 736zm288 32q0 122-53.5 228.5T1210 1174q-8 6-16 2t-10-14q-6-52-29-92-7-10 3-20 58-54 91-127t33-155q0-111-58.5-204T1066 422.5 854 386q-133 15-229 113T516 730q-10 92 23.5 176t98.5 144q10 10 3 20-24 41-29 93-2 9-10 13t-16-2q-95-74-148.5-183T386 757q3-131 69-244t177-181.5T873 257q144-7 268 60t196.5 187.5T1410 768z"/></svg>