<svg width="2304" height="1792" xmlns="http://www.w3.org/2000/svg"><path d="M1207 1733q-6-1-11-4-13-8-36-23t-86-65-116.5-104.5-112-140T756 1224q-17-3-175-37 66 213 235 362t391 184zm-641-606l168 28q-25-76-41-167.5T674 842l-4-53q-84 82-121 224 5 65 17 114zm110-609q-43 64-77 148 44-46 74-68zm1437 434q0-161-62-307t-167.5-252T1633 224.5 1329 162q-147 0-281 52.5T808 363q-30 58-45 160 60-51 143-83.5t158.5-43 143-13.5 108.5 1l40 3q33 1 53 15.5t24.5 33 6.5 37-1 28.5q-126-11-227.5-.5t-183 43.5T886 615.5 755 714q4 36 11.5 92.5t35.5 178 62 179.5q123 6 247.5-14.5T1326 1096t162.5-67 109.5-59l37-24q22-16 39.5-20.5t30.5 5 17 34.5q14 97-39 121-208 97-467 134-135 20-317 16 41 96 110 176.5t137 127 130.5 79T1378 1662l39 12q143 23 263-15 195-99 314-289t119-418zm74-37q-14 135-40 212-70 208-181.5 346.5T1647 1727q-48 33-82 44-72 26-163 16-36 3-73 3-283 0-504.5-173T529 1175q-1 0-4-.5t-5-.5q-6 50 2.5 112.5t26 115 36 98T616 1571l14 26q8 12 54 82-71-38-124.5-106.5t-78.5-140-39.5-137T424 1188l-2-42q-5-2-33.5-12.5t-48.5-18-53-20.5-57.5-25-50-25.5-42.5-27-25-25.5q19 10 50.5 25.5t113 45.5 145.5 38l2-32q11-149 94-290 41-202 176-365 28-115 81-214 15-28 32-45t49-32q158-74 303.5-104t302-11 306.5 97q220 115 333 336t87 474z"/></svg>