<svg width="1792" height="1792" xmlns="http://www.w3.org/2000/svg"><path d="M836 1169l-15 368-2 22-420-29q-36-3-67-31.5t-47-65.5q-11-27-14.5-55t4-65 12-55 21.5-64 19-53q78 12 509 28zM449 583l180 379-147-92q-63 72-111.5 144.5t-72.5 125-39.5 94.5-18.5 63l-4 21L46 961q-17-26-18-56t6-47l8-18q35-63 114-188L16 566zm1231 517l-188 359q-12 29-36.5 46.5T1412 1526l-18 4q-71 7-219 12l8 164-230-367 211-362 7 173q170 16 283 5t170-33zM895 176q-47 63-265 435L313 424l-19-12L519 56q20-31 60-45t80-10q24 2 48.5 12t42 21T791 67t36 34.5 36 39.5 32 35zm655 307l212 363q18 37 12.5 76t-27.5 74q-13 20-33 37t-38 28-48.5 22-47 16-51.5 14-46 12q-34-72-265-436l313-195zm-143-226l142-83-220 373-419-20 151-86q-34-89-75-166t-75.5-123.5-64.5-80T799 25l-17-13 405 1q31-3 58 10.5t39 28.5l11 15q39 61 112 190z"/></svg>