<svg width="2048" height="1792" xmlns="http://www.w3.org/2000/svg"><path d="M1811 1555q19-19 45-19t45 19l128 128-90 90-83-83-83 83q-18 19-45 19t-45-19l-83-83-83 83q-19 19-45 19t-45-19l-83-83-83 83q-19 19-45 19t-45-19l-83-83-83 83q-19 19-45 19t-45-19l-83-83-83 83q-19 19-45 19t-45-19l-83-83-83 83q-19 19-45 19t-45-19l-83-83-83 83q-19 19-45 19t-45-19L19 1645l90-90 83 83 83-83q19-19 45-19t45 19l83 83 83-83q19-19 45-19t45 19l83 83 83-83q19-19 45-19t45 19l83 83 83-83q19-19 45-19t45 19l83 83 83-83q19-19 45-19t45 19l83 83 83-83q19-19 45-19t45 19l83 83zm-1574-38q-19 19-45 19t-45-19L19 1389l90-90 83 82 83-82q19-19 45-19t45 19l83 82 64-64v-293L302 710q-17-26-7-56.5t40-40.5l177-58V256h128V128h256V0h256v128h256v128h128v299l177 58q30 10 40 40.5t-7 56.5l-210 314v293l19-18q19-19 45-19t45 19l83 82 83-82q19-19 45-19t45 19l128 128-90 90-83-83-83 83q-18 19-45 19t-45-19l-83-83-83 83q-19 19-45 19t-45-19l-83-83-83 83q-19 19-45 19t-45-19l-83-83-83 83q-19 19-45 19t-45-19l-83-83-83 83q-19 19-45 19t-45-19l-83-83-83 83q-19 19-45 19t-45-19l-83-83zM640 384v128l384-128 384 128V384h-128V256H768v128H640z"/></svg>