<svg width="2304" height="1792" xmlns="http://www.w3.org/2000/svg"><path d="M651 997q0 39-27.5 66.5T558 1091q-39 0-66.5-27.5T464 997q0-38 27.5-65.5T558 904q38 0 65.5 27.5T651 997zm1154-1q0 39-27.5 66.5T1711 1090t-66.5-27.5T1617 996t27.5-66 66.5-27 66.5 27 27.5 66zm-1040 1q0-79-56.5-136T572 804t-136.5 56.5T379 997t56.5 136.5T572 1190t136.5-56.5T765 997zm1153-1q0-80-56.5-136.5T1725 803q-79 0-136 56.5T1532 996t56.5 136.5T1725 1189t136.5-56.5T1918 996zm-1068 1q0 116-81.5 197.5T572 1276q-116 0-197.5-82T293 997t82-196.5T572 719t196.5 81.5T850 997zm1154-1q0 115-81.5 196.5T1725 1274q-115 0-196.5-81.5T1447 996t81.5-196.5T1725 718q116 0 197.5 81.5T2004 996zm-964 3q0-191-135.5-326.5T578 537q-125 0-231 62T179 767.5 117 999t62 231.5T347 1399t231 62q191 0 326.5-135.5T1040 999zm668-573q-254-111-556-111-319 0-573 110 117 0 223 45.5T984.5 593t122 183 45.5 223q0-115 43.5-219.5t118-180.5T1491 476t217-50zm479 573q0-191-135-326.5T1726 537t-326.5 135.5T1264 999t135.5 326.5T1726 1461t326-135.5T2187 999zm-266-566h383q-44 51-75 114.5T2189 662q110 151 110 337 0 156-77 288t-209 208.5-287 76.5q-133 0-249-56t-196-155q-47 56-129 179-11-22-53.5-82.5T1024 1360q-80 99-196.5 155.5T578 1572q-155 0-287-76.5T82 1287 5 999q0-186 110-337-9-51-40-114.5T0 433h365q149-100 355-156.5t432-56.5q224 0 421 56t348 157z"/></svg>