<svg width="1792" height="1792" xmlns="http://www.w3.org/2000/svg"><path d="M1329 784q47 14 89.5 38t89 73 79.5 115.5 55 172 22 236.5q0 154-100 263.5T1323 1792H469q-141 0-241-109.5T128 1419q0-131 22-236.5t55-172T284.5 895t89-73 89.5-38q-79-125-79-272 0-104 40.5-198.5T534 150 697.5 40.5 896 0t198.5 40.5T1258 150t109.5 163.5T1408 512q0 147-79 272zM896 128q-159 0-271.5 112.5T512 512t112.5 271.5T896 896t271.5-112.5T1280 512t-112.5-271.5T896 128zm427 1536q88 0 150.5-71.5T1536 1419q0-239-78.5-377T1232 897q-145 127-336 127T560 897q-147 7-225.5 145T256 1419q0 102 62.5 173.5T469 1664h854z"/></svg>