<svg width="2048" height="1792" xmlns="http://www.w3.org/2000/svg"><path d="M1664 32q0-14 9-23t23-9h288q26 0 45 19t19 45v288q0 14-9 23t-23 9h-64q-14 0-23-9t-9-23V218l-254 255q76 95 107.5 214t9.5 247q-32 180-164.5 310T1305 1401q-223 34-409-90-117 78-256 93v132h96q14 0 23 9t9 23v64q0 14-9 23t-23 9h-96v96q0 14-9 23t-23 9h-64q-14 0-23-9t-9-23v-96h-96q-14 0-23-9t-9-23v-64q0-14 9-23t23-9h96v-132q-155-17-279.5-109.5T45.5 1057 6 750q25-187 159.5-322.5T486 263q224-34 410 90 146-97 320-97 201 0 359 126l255-254h-134q-14 0-23-9t-9-23V32zM896 1145q128-131 128-313T896 519Q768 650 768 832t128 313zM128 832q0 185 131.5 316.5T576 1280q117 0 218-57-154-167-154-391t154-391q-101-57-218-57-185 0-316.5 131.5T128 832zm1088 448q185 0 316.5-131.5T1664 832t-131.5-316.5T1216 384q-117 0-218 57 154 167 154 391t-154 391q101 57 218 57z"/></svg>