<svg width="1792" height="1792" xmlns="http://www.w3.org/2000/svg"><path d="M675 1284q21-34 11-69t-45-50q-34-14-73-1t-60 46q-22 34-13 68.5t43 50.5 74.5 2.5T675 1284zm94-121q8-13 3.5-26.5T755 1118q-14-5-28.5.5T705 1137q-17 31 13 45 14 5 29-.5t22-18.5zm174 107q-45 102-158 150t-224 12q-107-34-147.5-126.5T420 1118q47-93 151.5-139T782 960q111 29 158.5 119.5T943 1270zm312-160q-9-96-89-170T957.5 831 683 810q-223 23-369.5 141.5T181 1216q9 96 89 170t208.5 109 274.5 21q223-23 369.5-141.5T1255 1110zm308 4q0 68-37 139.5t-109 137-168.5 117.5-226 83-270.5 31-275-33.5-240.5-93-171.5-151T0 1145q0-115 69.5-245T267 642q169-169 341.5-236t246.5 7q65 64 20 209-4 14-1 20t10 7 14.5-.5T912 645l6-2q139-59 246-59t153 61q45 63 0 178-2 13-4.5 20t4.5 12.5 12 7.5 17 6q57 18 103 47t80 81.5 34 116.5zm-74-624q42 47 54.5 108.5T1537 716q-8 23-29.5 34t-44.5 4q-23-8-34-29.5t-4-44.5q20-63-24-111t-107-35q-24 5-45-8t-25-37q-5-24 8-44.5t37-25.5q60-13 119 5.5t101 65.5zm181-163q87 96 112.5 222.5T1769 791q-9 27-34 40t-52 4-40-34-5-52q28-82 10-172t-80-158q-62-69-148-95.5t-173-8.5q-28 6-52-9.5t-30-43.5 9.5-51.5T1218 181q123-26 244 11.5T1670 327z"/></svg>