<svg width="2048" height="1792" xmlns="http://www.w3.org/2000/svg"><path d="M1024 1523q-20 0-93-73.5t-73-93.5q0-32 62.5-54t103.5-22 103.5 22 62.5 54q0 20-73 93.5t-93 73.5zm270-271q-2 0-40-25t-101.5-50-128.5-25-128.5 25-101 50-40.5 25q-18 0-93.5-75t-75.5-93q0-13 10-23 78-77 196-121t233-44 233 44 196 121q10 10 10 23 0 18-75.5 93t-93.5 75zm273-272q-11 0-23-8-136-105-252-154.5T1024 768q-85 0-170.5 22t-149 53T591 905t-79 53-31 22q-17 0-92-75t-75-93q0-12 10-22 132-132 320-205t380-73 380 73 320 205q10 10 10 22 0 18-75 93t-92 75zm271-271q-11 0-22-9-179-157-371.5-236.5T1024 384t-420.5 79.5T232 700q-11 9-22 9-17 0-92.5-75T42 541q0-13 10-23 187-186 445-288t527-102 527 102 445 288q10 10 10 23 0 18-75.5 93t-92.5 75z"/></svg>