<svg width="2304" height="1792" xmlns="http://www.w3.org/2000/svg"><path d="M313 777q0 51-36 84-29 26-89 26h-17V667h17q61 0 89 27 36 31 36 83zm1776-65q0 52-64 52h-19V663h20q63 0 63 49zM380 777q0-74-50-120.5T201 610h-95v333h95q74 0 119-38 60-51 60-128zm30 166h65V610h-65v333zm320-101q0-40-20.5-62T634 738q-29-10-39.5-19T584 696q0-16 13.5-26.5T632 659q29 0 53 27l34-44q-41-37-98-37-44 0-74 27.5T517 700q0 35 18 55.5t64 36.5q37 13 45 19 19 12 19 34 0 20-14 33.5T613 892q-48 0-71-44l-42 40q44 64 115 64 51 0 83-30.5t32-79.5zm278 90v-77q-37 37-78 37-49 0-80.5-32.5T818 777q0-48 31.5-81.5T927 662q43 0 81 38v-77q-40-20-80-20-74 0-125.5 50.5T751 777t51 123.5T927 951q42 0 81-19zm1232 604v-527q-65 40-144.5 84T1858 1210t-329.5 137.5T1111 1482t-504 118h1569q26 0 45-19t19-45zm-851-757q0-75-53-128t-128-53-128 53-53 128 53 128 128 53 128-53 53-128zm152 173l144-342h-71l-90 224-89-224h-71l142 342h35zm173-9h184v-56h-119v-90h115v-56h-115v-74h119v-57h-184v333zm391 0h80l-105-140q76-16 76-94 0-47-31-73t-87-26h-97v333h65V810h9zm199-681v1268q0 56-38.5 95t-93.5 39H132q-55 0-93.5-39T0 1530V262q0-56 38.5-95t93.5-39h2040q55 0 93.5 39t38.5 95z" fill="#fff"/></svg>