<?xml version="1.0" encoding="UTF-8"?>
<svg width="50px" height="50px" viewBox="0 0 50 50" version="1.1" xmlns="http://www.w3.org/2000/svg" xmlns:xlink="http://www.w3.org/1999/xlink">
    <!-- Generator: Sketch 50.2 (55047) - http://www.bohemiancoding.com/sketch -->
    <title>question</title>
    <desc>Created with Sketch.</desc>
    <defs></defs>
    <g id="question" stroke="none" stroke-width="1" fill="none" fill-rule="evenodd">
        <path d="M33.0449472,30.7276583 C32.5175193,30.7276583 32.0898943,31.151559 32.0898943,31.6743934 L32.0898943,38.206747 C32.0898943,40.8172505 29.9474721,42.9404223 27.3146302,42.9404223 L17.0030442,42.9404223 C16.4756163,42.9404223 16.0484689,43.3639679 16.0479914,43.8868023 L16.0465588,45.7691483 L13.7670865,43.5095284 C13.6197696,43.1734374 13.2816809,42.9404223 12.8913031,42.9404223 L6.68536978,42.9404223 C4.05240852,42.9404223 1.91010565,40.8172505 1.91010565,38.206747 L1.91010565,23.6271454 C1.91010565,21.0172335 4.05240852,18.8934701 6.68536978,18.8934701 L16.3315227,18.8934701 C16.8589506,18.8934701 17.2865755,18.4695695 17.2865755,17.9467351 C17.2865755,17.4239006 16.8589506,17 16.3315227,17 L6.68536978,17 C2.99898526,17 0,19.9728664 0,23.6271454 L0,38.206747 C0,41.861026 2.99898526,44.8338924 6.68536978,44.8338924 L12.4021966,44.8338924 L16.3244792,48.7226066 C16.5072524,48.903788 16.7516266,49 17.0001791,49 C17.1229034,49 17.2469408,48.9763316 17.3648899,48.9278115 C17.7220796,48.7813042 17.9547544,48.436456 17.9547544,48.05362 L17.957142,44.8338924 L27.3146302,44.8338924 C31.0010147,44.8338924 34,41.861026 34,38.206747 L34,31.6743934 C34,31.151559 33.5723751,30.7276583 33.0449472,30.7276583 Z" id="Fill-1" fill="#000000"></path>
        <path d="M35.2012413,0 L32.79864,0 C25.1898489,0 19,6.1951541 19,13.8104665 C19,21.4254226 25.1898489,27.6210518 32.7981654,27.6210518 L35.2012413,27.6210518 C36.3888948,27.6210518 37.5639693,27.4697361 38.7034426,27.1714993 L42.2528748,30.7220732 C42.4340845,30.9034383 42.6770029,31 42.9240747,31 C43.0465425,31 43.1698411,30.9763643 43.2870875,30.9276678 C43.6421494,30.7805091 43.8729633,30.433932 43.8729633,30.049823 L43.8729633,24.5524551 C45.3758055,23.3345658 46.6242183,21.7956353 47.5003619,20.0771214 C48.495176,18.124864 49,16.0161837 49,13.8104665 C49,6.1951541 42.8096764,0 35.2012413,0 Z M42.3525579,23.3304087 C42.1147424,23.5093983 41.9742367,23.7906507 41.9742367,24.0893626 L41.9742367,27.7569271 L39.6513819,25.4330317 C39.4706469,25.252023 39.2282032,25.1546298 38.980182,25.1546298 C38.8870258,25.1546298 38.7929201,25.1685262 38.7015439,25.1969127 C37.5714455,25.5443212 36.393523,25.7206978 35.2012413,25.7206978 L32.79864,25.7206978 C26.236522,25.7206978 20.8987267,20.3777337 20.8987267,13.8104665 C20.8987267,7.24319934 26.2369967,1.90035402 32.79864,1.90035402 L35.2012413,1.90035402 C41.7628846,1.90035402 47.1012733,7.24319934 47.1012733,13.8104665 C47.1012733,17.5856385 45.3703466,21.0555662 42.3525579,23.3304087 Z" id="Fill-4" fill="#000000"></path>
        <path d="M37.9901545,10.7093758 C37.8535151,8.73647867 36.2591925,7.14600266 34.2815239,7.00981079 C33.1600655,6.93287888 32.0898617,7.31035185 31.2709704,8.07330908 C30.4631802,8.8253097 30,9.88880799 30,10.9905955 C30,11.5110935 30.4230269,11.9330998 30.9447838,11.9330998 C31.4665406,11.9330998 31.8895675,11.5110935 31.8895675,10.9905955 C31.8895675,10.4005878 32.1276531,9.85381752 32.560364,9.45113256 C32.9926026,9.04891885 33.557229,8.849697 34.151498,8.89069594 C35.1935945,8.96197282 36.033153,9.79997696 36.1051928,10.8392058 C36.1775868,11.8889199 35.4874223,12.8166976 34.463749,13.0449015 C33.634347,13.2299857 33.0553126,13.9492343 33.0553126,14.7932469 L33.0553126,17.0574957 C33.0553126,17.5779937 33.4783396,18 34.0000964,18 C34.5218532,18 34.9448802,17.5779937 34.9445259,17.0574957 L34.9445259,14.8687651 C36.8483833,14.4098833 38.125731,12.672141 37.9901545,10.7093758 Z" id="Fill-5" fill="#000000"></path>
        <path d="M34.707125,19.293 C34.521,19.1075 34.26275,19 34,19 C33.736875,19 33.479,19.1075 33.293,19.293 C33.107,19.479125 33,19.737375 33,20 C33,20.26425 33.107,20.522 33.293,20.708125 C33.479,20.894125 33.736875,21 34,21 C34.26275,21 34.521,20.894125 34.707125,20.708125 C34.893125,20.521 35,20.26425 35,20 C35,19.737375 34.892625,19.479125 34.707125,19.293 Z" id="Fill-6" fill="#000000"></path>
        <path d="M26.0476242,30 L5.9523758,30 C5.42642626,30 5,30.44775 5,31 C5,31.55225 5.42642626,32 5.9523758,32 L26.0476242,32 C26.5735737,32 27,31.55225 27,31 C27,30.44775 26.5735737,30 26.0476242,30 Z" id="Fill-7" fill="#000000"></path>
        <path d="M26.707,35.293 C26.521,35.106875 26.263125,35 26,35 C25.736875,35 25.479,35.106875 25.293,35.293 C25.106875,35.479 25,35.73675 25,36 C25,36.262625 25.106875,36.521 25.293,36.707 C25.479,36.893 25.736875,37 26,37 C26.263125,37 26.521,36.893 26.707,36.707 C26.893125,36.521 27,36.263625 27,36 C27,35.73675 26.893125,35.479 26.707,35.293 Z" id="Fill-8" fill="#000000"></path>
        <path d="M23.0087129,35 L5.99128711,35 C5.4438488,35 5,35.44775 5,36 C5,36.55225 5.4438488,37 5.99128711,37 L23.0087129,37 C23.5561512,37 24,36.55225 24,36 C24,35.44775 23.5561512,35 23.0087129,35 Z" id="Fill-9" fill="#000000"></path>
        <path d="M20.0361518,25 L5.96384816,25 C5.43156302,25 5,25.44775 5,26 C5,26.55225 5.43156302,27 5.96384816,27 L20.0361518,27 C20.568437,27 21,26.55225 21,26 C21,25.44775 20.568437,25 20.0361518,25 Z" id="Fill-10" fill="#000000"></path>
    </g>
</svg>