<svg viewBox="0 0 36 30" fill="none">
    <path d="M29.8666 13.8666C29.8 13.5999 29.5 13.4332 29.2333 13.5332C28.9666 13.5999 28.8 13.8999 28.9 14.1666C28.9333 14.3332 29.9666 18.0666 26.7 21.8666C26.5333 22.0666 26.5333 22.3999 26.7333 22.5666C26.8333 22.6332 26.9333 22.6999 27.0666 22.6999C27.2 22.6999 27.3333 22.6332 27.4333 22.5332C31.1 18.2666 29.9 14.0332 29.8666 13.8666Z" fill="currentColor"/>
    <path d="M32.5334 13.3C32.4667 13.0334 32.1667 12.9 31.9 12.9667C31.6334 13.0334 31.4667 13.3334 31.5667 13.6C31.5667 13.6667 33.1 19 28.5 24.2667C28.3334 24.4667 28.3334 24.8 28.5334 24.9667C28.6334 25.0334 28.7334 25.1 28.8667 25.1C29 25.1 29.1334 25.0334 29.2334 24.9334C34.2 19.2334 32.6 13.5334 32.5334 13.3Z" fill="currentColor"/>
    <path d="M10.5668 6.26672C10.8002 6.10005 10.8335 5.80005 10.6668 5.56672C10.5002 5.33338 10.2002 5.30005 9.96683 5.46672C9.80016 5.56672 6.10017 8.30005 6.2335 14.1C6.2335 14.3667 6.46683 14.6 6.7335 14.6C7.00017 14.6 7.2335 14.3667 7.2335 14.1C7.1335 8.83338 10.4335 6.36672 10.5668 6.26672Z" fill="currentColor"/>
    <path d="M8.83335 4.09997C9.06668 3.9333 9.10002 3.6333 8.93335 3.39997C8.76668 3.16663 8.46668 3.1333 8.23335 3.29997C8.03335 3.4333 3.06668 7.09997 3.23335 14.9333C3.23335 15.2 3.46668 15.4333 3.73335 15.4333C4.00002 15.4333 4.23335 15.2 4.23335 14.9333C4.06668 7.6333 8.76668 4.1333 8.83335 4.09997Z" fill="currentColor"/>
    <path d="M27.4333 11.1666C27.5667 10.6 27.4667 10.0333 27.1333 9.5333C26.8333 9.0333 26.3333 8.69997 25.7667 8.56663C25.3 8.46663 24.8 8.49997 24.3667 8.7333L24.6667 7.36663C24.9333 6.19997 24.2 5.0333 23.0333 4.76663C22.5333 4.66663 22.0667 4.7333 21.6333 4.9333L21.6667 4.79996C21.8 4.2333 21.7 3.66663 21.3667 3.16663C21.0667 2.66663 20.5667 2.3333 20 2.19997C19.4333 2.06663 18.8667 2.16663 18.3667 2.49997C17.8667 2.79997 17.5333 3.29997 17.4 3.86663L17.2667 4.5333C16.9667 4.16663 16.5667 3.89996 16.0667 3.79996C14.9 3.5333 13.7333 4.26663 13.4667 5.46663L12.7333 8.76663C11.6 8.5333 10.4667 9.29996 10.2 10.4333L8.8 16.7333C7.8 21.3 10.6667 25.8333 15.2333 26.8666H15.2667C17.4667 27.3666 19.7667 26.9666 21.6667 25.7333C23.5667 24.5 24.9 22.6333 25.4 20.4L27.4333 11.1666ZM24.5667 20.2C23.6667 24.3333 19.5667 26.9333 15.4333 26.0333H15.4C11.3 25.1 8.7 21.0333 9.6 16.9L11 10.6C11.1667 9.86663 11.8667 9.4333 12.6 9.59997C12.7 9.6333 12.7667 9.6333 12.8333 9.66663C13.0667 9.76663 13.2667 9.9333 13.4 10.1666C13.6 10.4666 13.6667 10.8333 13.5667 11.1666L12.7 15.3333C12.7 15.3333 12.7 15.3333 12.7 15.3666C12.7 15.3666 12.7 15.3666 12.7 15.4V15.4333C12.7 15.4666 12.7 15.5 12.7 15.5V15.5333V15.5666V15.6C12.7 15.6 12.7 15.6333 12.7333 15.6333C12.7333 15.6333 12.7333 15.6666 12.7667 15.6666L12.8 15.7L12.8333 15.7333C12.8333 15.7333 12.8333 15.7333 12.8667 15.7666C14.4667 16.9 15.2333 18.9 14.8333 20.7666C14.8 21 14.9333 21.2333 15.1667 21.2666C15.4 21.3 15.6333 21.1666 15.6667 20.9333C16.1333 18.8333 15.3 16.5666 13.6 15.2333L14.4667 11.3C14.6 10.7333 14.5 10.1666 14.1667 9.66663C14 9.39997 13.7667 9.16663 13.5333 8.99997L14.3 5.56663C14.4667 4.8333 15.1667 4.39997 15.9 4.56663C16.6 4.7333 17.0667 5.4333 16.9 6.16663L15.5 12.4666C15.4333 12.7 15.6 12.9333 15.8333 12.9666C16.0667 13 16.3 12.8666 16.3333 12.6333L18.2667 3.99997C18.3333 3.66663 18.5667 3.36663 18.8667 3.16663C19.1667 2.96663 19.5333 2.89997 19.8667 2.99997C20.2 3.06663 20.5 3.29997 20.7 3.59997C20.9 3.89997 20.9667 4.26663 20.8667 4.59996L18.7667 13.9C18.7 14.1333 18.8667 14.3666 19.1 14.4C19.3333 14.4333 19.5667 14.3 19.6 14.0666L21.3 6.56663C21.4667 5.8333 22.1667 5.39997 22.9 5.56663C23.6333 5.7333 24.0667 6.4333 23.9 7.16663L23.2333 10.2L21.8333 16.5C21.7667 16.7333 21.9333 16.9333 22.1667 17C22.4 17.0333 22.6333 16.9 22.6667 16.6666L24 10.4333C24.0667 10.1 24.3 9.79996 24.6 9.59997C24.9 9.39996 25.2667 9.3333 25.6 9.4333C25.9333 9.49997 26.2333 9.7333 26.4333 10.0333C26.6333 10.3333 26.7 10.7 26.6 11.0333L24.5667 20.2Z" fill="currentColor"/>
</svg>
