<svg viewBox="0 0 38 33" fill="none">
    <path d="M25.6078 24.3104C26.0616 24.2521 26.5162 24.1646 26.9593 24.0503C27.4025 23.936 27.8429 23.7926 28.268 23.6241C28.8399 23.3973 29.1556 22.7773 29.0019 22.1815L28.6722 20.9038C28.6443 20.7954 28.6843 20.6952 28.7791 20.6351C29.1746 20.3859 29.5523 20.1021 29.9021 19.7907C29.9849 19.7163 30.0939 19.7064 30.1895 19.7628L31.3258 20.433C31.608 20.5998 31.9371 20.6465 32.2528 20.565C32.5139 20.4976 32.7495 20.3419 32.9154 20.127C33.4768 19.3994 33.9463 18.6035 34.3109 17.7611C34.5553 17.1964 34.3399 16.5347 33.8098 16.2221L32.6732 15.5517C32.5767 15.4948 32.534 15.3955 32.5586 15.2864C32.6621 14.8295 32.7279 14.3613 32.7544 13.8955C32.7612 13.7837 32.8295 13.7002 32.9379 13.6722L34.2157 13.3426C34.8112 13.1889 35.2015 12.6126 35.1228 12.0022C35.0058 11.0915 34.7749 10.1965 34.4366 9.34234C34.2098 8.77021 33.5899 8.45474 32.9941 8.60845L31.7163 8.93809C31.6079 8.96606 31.5077 8.92601 31.4474 8.83124C31.1974 8.4345 30.9137 8.05704 30.6033 7.70842C30.5288 7.6249 30.5185 7.51748 30.5754 7.421L31.2456 6.28445C31.5584 5.75411 31.4268 5.07081 30.9395 4.69488C30.2125 4.13362 29.4163 3.66395 28.5737 3.2994C28.3244 3.19152 28.0432 3.16914 27.7819 3.23656C27.4666 3.3179 27.2012 3.51816 27.0347 3.80046L26.3642 4.93707C26.3078 5.03242 26.207 5.0761 26.0989 5.05171C25.6429 4.94846 25.1749 4.88236 24.708 4.85563C24.5963 4.84911 24.5127 4.78055 24.4847 4.67213L24.1551 3.39461C24.0014 2.79881 23.4252 2.40873 22.8148 2.48718C21.9082 2.60391 21.0056 2.83652 20.1546 3.17345C19.5827 3.40002 19.2673 4.02015 19.421 4.61595L19.7506 5.89371C19.7786 6.00212 19.7387 6.1028 19.6433 6.16275C19.2474 6.41231 18.8698 6.6963 18.5208 7.00724C18.4384 7.08102 18.3287 7.09139 18.2334 7.03519L17.0968 6.36476C16.8145 6.19825 16.4856 6.15132 16.17 6.23273C15.9087 6.30014 15.6734 6.45577 15.5075 6.67076C14.9465 7.39768 14.477 8.19363 14.1118 9.03689C13.8675 9.60158 14.0831 10.2632 14.6131 10.5758L15.7497 11.2463C15.8462 11.3029 15.8889 11.4022 15.8643 11.5113C15.7611 11.9674 15.695 12.4354 15.6682 12.9023C15.6618 13.0142 15.5932 13.0976 15.4848 13.1256L16.6443 12.9582C16.668 12.5451 16.7265 12.1309 16.818 11.7271C16.9355 11.207 16.7059 10.6752 16.2464 10.4039L15.1098 9.7335C15.0017 9.66974 14.9596 9.53973 15.0092 9.42493C15.3421 8.65615 15.7701 7.93046 16.2816 7.26784C16.3249 7.21172 16.3778 7.18873 16.4145 7.17927C16.477 7.16314 16.5431 7.17285 16.6003 7.20657L17.737 7.87724C18.1894 8.14374 18.7792 8.08678 19.1716 7.7371C19.4806 7.46198 19.8149 7.21063 20.1652 6.98975C20.6171 6.70502 20.8309 6.16665 20.6975 5.64944L20.3678 4.37168C20.3365 4.25025 20.3983 4.12877 20.5147 4.08284C21.2903 3.7757 22.1129 3.56373 22.9398 3.45721C23.0642 3.44127 23.177 3.51768 23.2084 3.63912L23.538 4.91664C23.6713 5.43337 24.1189 5.80136 24.6524 5.83187C25.0658 5.85575 25.4797 5.91407 25.8835 6.00555C26.3951 6.12149 26.9394 5.88664 27.2066 5.43396L27.8771 4.29735C27.9108 4.24017 27.9637 4.19976 28.0265 4.18357C28.0632 4.17411 28.1206 4.16887 28.1857 4.19702C28.9539 4.52952 29.6793 4.95763 30.3426 5.46944C30.4415 5.5459 30.4675 5.67982 30.4038 5.78791L29.7336 6.92446C29.4623 7.38399 29.5187 7.96072 29.8736 8.35893C30.1478 8.66715 30.3992 9.00168 30.6208 9.35275C30.9055 9.80443 31.4441 10.0182 31.9608 9.88486L33.2386 9.55523C33.3598 9.52396 33.4816 9.58596 33.5275 9.70236C33.8359 10.4809 34.0464 11.2969 34.153 12.127C34.1692 12.2515 34.0926 12.3645 33.9712 12.3958L32.6934 12.7254C32.1769 12.8587 31.8089 13.3061 31.7779 13.8399C31.7546 14.2524 31.696 14.6664 31.6045 15.071C31.487 15.5913 31.7167 16.1234 32.1761 16.3941L33.3127 17.0646C33.4206 17.1284 33.4629 17.2581 33.413 17.3732C33.0809 18.1408 32.6528 18.8665 32.141 19.5297C32.0977 19.5861 32.0446 19.6091 32.0079 19.6186C31.9454 19.6347 31.8796 19.6249 31.8224 19.5912L30.6861 18.9212C30.234 18.6543 29.6435 18.712 29.2514 19.0611C28.9419 19.3363 28.6076 19.5877 28.2576 19.8083C27.8057 20.0932 27.5921 20.6315 27.7254 21.1483L28.0551 22.426C28.0864 22.5472 28.0246 22.6689 27.908 22.7149C27.1328 23.022 26.31 23.2342 25.4834 23.3404C25.359 23.3566 25.2459 23.28 25.2145 23.1586L24.8849 21.8808C24.7516 21.3643 24.304 20.9964 23.7707 20.9656C23.3584 20.9421 22.9442 20.8836 22.5396 20.7921C22.3477 20.7487 22.1476 20.7513 21.9604 20.7996C21.6477 20.8803 21.3835 21.0805 21.2164 21.3635L22.0589 21.8606C22.1153 21.765 22.2165 21.7217 22.3242 21.7459C22.7811 21.8495 23.2492 21.9153 23.7148 21.9419C23.8266 21.9486 23.9101 22.0169 23.9381 22.1253L24.2677 23.4031C24.4214 23.9987 24.9974 24.3888 25.6078 24.3104Z" fill="currentColor"/>
    <path d="M17.8369 21.8783C17.6939 21.8119 17.5726 21.7553 17.4647 21.6944L17.2034 21.5469L16.9503 21.7082L7.63022 27.647C7.03086 28.0289 6.31497 28.141 5.61642 27.9623L5.61643 27.9623L5.61072 27.9609C4.92036 27.7929 4.31012 27.3485 3.90681 26.7156L3.89899 26.7033L3.80845 26.5612C3.10821 25.2227 3.53637 23.6363 4.71838 22.9116L4.71842 22.9117L4.72575 22.907L13.9517 17.0282L14.1955 16.8729L14.1825 16.5841C14.1759 16.4368 14.1795 16.2793 14.1838 16.1008L14.1839 16.0973C14.216 14.2357 15.1339 12.5302 16.6088 11.5245L16.7671 11.4236C18.3126 10.4388 20.2777 10.2842 22.0374 11.0305C22.1882 11.1086 22.3305 11.1747 22.4628 11.2361C22.5389 11.2763 22.5943 11.3598 22.601 11.4528C22.6076 11.5437 22.5645 11.6131 22.5164 11.6437L19.0567 13.8483C18.5251 14.187 18.4043 14.8975 18.7297 15.4082L20.4332 18.0816C20.7586 18.5922 21.4537 18.7829 21.9852 18.4442L25.4449 16.2396C25.4931 16.209 25.5741 16.1992 25.6538 16.2436C25.7199 16.2805 25.7768 16.359 25.7853 16.476L25.7855 16.4786C25.7917 16.5594 25.7905 16.6279 25.7889 16.7206C25.7881 16.7664 25.7872 16.818 25.7871 16.8799C25.7423 18.7998 24.7858 20.5432 23.2039 21.5512L23.2039 21.5512L23.1925 21.5584L23.1532 21.5677L23.0847 21.61C21.5608 22.5496 19.5904 22.6585 17.8369 21.8783Z" fill="white" stroke="currentColor"/>
    <path d="M29 16.5C31 15 31.5 12.3 29.5 9.5" stroke="currentColor" stroke-linecap="round"/>
</svg>
