<svg width="52" height="43" viewBox="0 0 52 43" fill="none" xmlns="http://www.w3.org/2000/svg">
  <path fill-rule="evenodd" clip-rule="evenodd"
    d="M44.1603 10.848L47.6278 2.72836C47.719 2.5148 47.7293 2.27556 47.6568 2.055C47.5843 1.83445 47.434 1.64755 47.2337 1.52897L45.5322 0.521924C44.1982 -0.267761 42.4944 -0.141389 41.2925 0.835938L41.0299 1.04947C40.3768 1.58075 39.4289 1.58075 38.7751 1.04908L38.7646 1.04055C37.4033 -0.0664088 35.4286 -0.0647787 34.0692 1.04477C33.4157 1.57816 32.4666 1.57874 31.8124 1.04669L31.5456 0.829609C30.3495 -0.143306 28.6514 -0.273035 27.3202 0.50687L25.5732 1.53032C25.3713 1.6486 25.2196 1.83615 25.1465 2.05782C25.0735 2.27949 25.0841 2.52007 25.1764 2.7345L28.6656 10.8411C26.1417 11.7488 23.5308 14.2434 22.1178 16.5237C21.8384 16.9743 21.9789 17.5651 22.4315 17.8431C22.884 18.1211 23.4772 17.9812 23.7566 17.5306C24.9705 15.5731 27.2855 13.3364 29.4705 12.5892H43.3327C47.3715 13.9666 50.0743 17.7246 50.0743 21.9874V24.5314C50.0743 25.0608 50.5054 25.4902 51.0372 25.4902C51.569 25.4902 52.0001 25.0608 52.0001 24.5314V21.9874C52.0001 16.9739 48.8655 12.5471 44.1603 10.848ZM42.1428 10.6715H30.6875L27.2801 2.75502L28.2966 2.15969C28.9362 1.78479 29.7524 1.84721 30.3273 2.31482L30.5941 2.5318C31.9554 3.63915 33.9303 3.63752 35.29 2.52787C35.9433 1.99458 36.8923 1.99391 37.5471 2.52634L37.5576 2.53487C38.9165 3.63991 40.8891 3.63991 42.2479 2.53468L42.5105 2.32115C43.0881 1.85152 43.9068 1.79083 44.548 2.17023L45.5261 2.74917L42.1428 10.6715Z"
    fill="#E1000F" />
  <path
    d="M50.9805 29.5686C51.5436 29.5686 52.0001 29.1121 52.0001 28.549C52.0001 27.9859 51.5436 27.5294 50.9805 27.5294C50.4174 27.5294 49.9609 27.9859 49.9609 28.549C49.9609 29.1121 50.4174 29.5686 50.9805 29.5686Z"
    fill="#E1000F" />
  <path
    d="M44.3483 19.967C43.7867 19.967 43.3267 20.1343 42.9682 20.4688C42.6138 20.8034 42.3768 21.3092 42.2573 21.9863H44.8628C44.8628 21.9863 45.4404 21.9544 45.4404 22.4304C45.4404 22.9063 44.8628 22.9063 44.8628 22.9063H42.1677L42.1557 23.1752V23.5038L42.1677 23.7368H44.5158C44.5158 23.7368 45.093 23.7368 45.093 24.1938C45.093 24.6508 44.5158 24.6508 44.5158 24.6508H42.2692C42.5242 25.8935 43.249 26.5148 44.4439 26.5148C44.7485 26.5148 44.9588 26.5229 45.1427 26.5151C45.5474 26.498 45.9639 26.7609 45.9639 27.1659C45.9639 27.387 45.8386 27.598 45.6259 27.6584C45.3029 27.7502 45.0252 27.7216 44.3722 27.7216C43.4123 27.7216 42.6317 27.4587 42.0303 26.933C41.4329 26.4072 41.0425 25.6465 40.8593 24.6508H39.9512C39.9512 24.6508 39.5399 24.6508 39.5399 24.1938C39.5399 23.7368 39.9512 23.7368 39.9512 23.7368H40.7637L40.7518 23.5157V23.2947L40.7637 22.9063H39.9512C39.9512 22.9063 39.4382 22.9063 39.4382 22.4304C39.4382 21.9544 39.9512 21.9863 39.9512 21.9863H40.8474C40.9987 20.9866 41.3791 20.202 41.9885 19.6324C42.5978 19.0629 43.3844 18.7781 44.3483 18.7781C44.9254 18.7781 45.4047 18.8544 45.8643 19.0298C46.1682 19.1457 46.282 19.5018 46.1487 19.7984C46.0032 20.1223 45.6206 20.2525 45.2856 20.135C44.9509 20.0176 44.6569 19.967 44.3483 19.967Z"
    fill="#E1000F" />
  <path fill-rule="evenodd" clip-rule="evenodd"
    d="M0 18.6602C0 17.7347 0.924417 17.0941 1.79097 17.4191L7.78161 19.666C8.91936 20.0927 9.65405 21.1172 9.76909 22.2452L15.009 21.9417C15.3158 21.924 15.7257 21.941 16.1378 22.124C16.3131 22.2018 16.487 22.2949 16.661 22.4002L15.6046 24.1445C15.4902 24.0752 15.3929 24.0245 15.31 23.9876C15.3129 23.9889 15.303 23.9839 15.2721 23.9799C15.2402 23.9758 15.1933 23.9737 15.1269 23.9775L9.31456 24.3142L6.4883 31.2705L15.7268 38.5735C16.3675 39.08 17.0925 39.4695 17.8686 39.7242L18.3847 39.8936L15.8896 37.4371C15.4883 37.042 15.4833 36.3964 15.8783 35.9952C16.2734 35.5939 16.9189 35.5888 17.3202 35.9839L20.7489 39.3596C21.1884 39.4749 21.6491 39.3869 22.0111 39.1361L18.6869 35.8633C18.2856 35.4682 18.2806 34.8227 18.6757 34.4214C19.0707 34.0201 19.7163 34.0151 20.1176 34.4102L23.8162 38.0515H23.8815C24.3724 38.0515 24.8415 37.8748 25.2074 37.5616L21.0847 33.5026C20.6834 33.1076 20.6783 32.462 21.0734 32.0607C21.4685 31.6595 22.114 31.6544 22.5153 32.0495L26.927 36.3929L27.3295 36.3136C27.5718 36.2659 27.7617 36.0772 27.8109 35.8352C27.8534 35.626 27.783 35.4084 27.6253 35.2634C26.2563 34.0043 25.0119 32.8653 23.8899 31.8384C21.6747 29.811 19.9369 28.2204 18.6603 27.0044L20.0669 25.5279C21.3286 26.7298 23.0417 28.2977 25.2438 30.3131C26.3686 31.3426 27.6209 32.4887 29.0058 33.7625C29.6886 34.3906 29.9941 35.3312 29.8093 36.2411C29.5962 37.2899 28.7735 38.1077 27.7235 38.3144L27.1721 38.423L27.1258 38.4838C26.3664 39.4806 25.1918 40.0721 23.941 40.0903C23.1197 41.1317 21.7884 41.627 20.4971 41.3912L20.4058 41.4811C20.0304 41.8507 19.5246 42.0579 18.9977 42.0579C18.6282 42.0579 18.2611 41.9992 17.91 41.884L17.2327 41.6617C16.2289 41.3323 15.291 40.8284 14.4622 40.1732L5.55595 33.1329C4.98516 33.7917 4.14709 34.1891 3.24362 34.1891H1.32549C0.593443 34.1891 0 33.5957 0 32.8636V18.6602ZM7.66782 22.9497C7.88965 22.4037 7.61731 21.7823 7.06549 21.5753L2.03922 19.6901V32.1499H3.24362C3.65853 32.1499 4.03206 31.8985 4.18824 31.5141L7.66782 22.9497Z"
    fill="#3558A2" />
  <path fill-rule="evenodd" clip-rule="evenodd"
    d="M35.167 21.2742L30.3451 23.1204C30.0356 23.2389 29.803 23.5004 29.7215 23.8217L29.658 24.0715L32.7275 32.7598C33.0527 33.3526 33.6759 33.7232 34.3551 33.7232H35.167V21.2742ZM30.5632 32.7552L27.8333 25.0284L26.8706 24.8704C26.2411 24.7671 25.6243 24.5972 25.0307 24.3634L24.4041 24.1166C23.9681 23.9449 23.5463 23.7389 23.1428 23.5005L22.6747 23.224C21.0783 22.281 19.1259 22.1626 17.4273 22.9059C17.2463 22.9851 17.0783 23.0909 16.9286 23.2198L15.6084 24.3571C14.7222 25.1205 14.0305 26.0838 13.5902 27.1674L13.5886 27.1726L13.5095 27.5621C13.4561 27.825 13.6269 28.0812 13.8901 28.133L13.9611 28.147C14.0802 28.1704 14.2033 28.1629 14.3187 28.125L14.7405 27.9866C14.8199 27.9605 14.8922 27.9165 14.9517 27.8578L15.6768 27.144C16.2084 26.6206 16.8713 26.2502 17.5958 26.0719C17.9693 25.98 18.3208 25.8151 18.6303 25.5866L19.596 24.8735L20.8073 26.5139L19.8416 27.227C19.3156 27.6154 18.718 27.8958 18.0832 28.052C17.7148 28.1427 17.3777 28.331 17.1074 28.5972L16.3824 29.311C16.0988 29.5902 15.7545 29.8 15.3763 29.9241L14.9545 30.0626C14.507 30.2094 14.0292 30.2388 13.5671 30.1478L13.4961 30.1338C12.1232 29.8635 11.2325 28.5274 11.5111 27.1562L11.5902 26.7666C11.6157 26.6412 11.6528 26.5184 11.701 26.3998C12.263 25.0165 13.1462 23.7867 14.2774 22.8121L15.5977 21.6748C15.9014 21.4131 16.2425 21.1984 16.6098 21.0377C18.9088 20.0317 21.5512 20.1919 23.7118 21.4683L24.1799 21.7448C24.4907 21.9283 24.8155 22.087 25.1514 22.2193L25.7779 22.466C26.237 22.6468 26.714 22.7782 27.2008 22.8581L27.8581 22.966C28.1684 22.166 28.804 21.5269 29.616 21.216L35.6836 18.8929C36.418 18.6117 37.2062 19.1539 37.2062 19.9403V34.6409C37.2062 35.2603 36.7041 35.7624 36.0846 35.7624H34.3551C33.2739 35.7624 32.2604 35.3148 31.5361 34.5558L29.9525 35.5952L28.8335 33.8904L30.5632 32.7552Z"
    fill="#3558A2" />
</svg>
  