<svg width="49" height="45" viewBox="0 0 49 45" fill="none" xmlns="http://www.w3.org/2000/svg">
  <path fill-rule="evenodd" clip-rule="evenodd"
    d="M40.0423 9.83645L43.1865 2.47394C43.2692 2.2803 43.2785 2.06336 43.2128 1.86337C43.1471 1.66338 43.0108 1.49391 42.8291 1.38639L41.2863 0.473254C40.0767 -0.242792 38.5318 -0.128204 37.442 0.757986L37.2038 0.951603C36.6117 1.43334 35.7521 1.43334 35.1593 0.951255L35.1498 0.943518C33.9154 -0.0602161 32.1249 -0.058738 30.8923 0.947343C30.2997 1.431 29.4391 1.43152 28.8459 0.949082L28.604 0.752247C27.5194 -0.129943 25.9797 -0.247574 24.7726 0.459604L23.1885 1.38761C23.0054 1.49487 22.8679 1.66493 22.8016 1.86592C22.7354 2.06692 22.745 2.28507 22.8287 2.4795L25.9925 9.83019C23.704 10.6532 21.3365 12.9152 20.0553 14.9829C19.802 15.3914 19.9294 15.9271 20.3397 16.1792C20.7501 16.4313 21.288 16.3044 21.5413 15.8958C22.642 14.1209 24.7411 12.0927 26.7224 11.4152H39.2919C42.9541 12.6642 45.4049 16.0718 45.4049 19.9371V22.2438C45.4049 22.7239 45.7958 23.1132 46.278 23.1132C46.7602 23.1132 47.1511 22.7239 47.1511 22.2438V19.9371C47.1511 15.391 44.3088 11.377 40.0423 9.83645ZM38.213 9.67639H27.8259L24.7362 2.49811L25.658 1.95829C26.2379 1.61835 26.978 1.67495 27.4993 2.09896L27.7412 2.29571C28.9756 3.29979 30.7663 3.29831 31.9992 2.29215C32.5916 1.80858 33.4521 1.80797 34.0459 2.29076L34.0554 2.29849C35.2876 3.30049 37.0762 3.30049 38.3083 2.29832L38.5464 2.1047C39.0701 1.67886 39.8125 1.62383 40.3939 1.96786L41.2808 2.49281L38.213 9.67639Z"
    fill="#E1000F" />
  <path
    d="M46.2265 26.8113C46.7371 26.8113 47.1511 26.3974 47.1511 25.8868C47.1511 25.3762 46.7371 24.9623 46.2265 24.9623C45.7159 24.9623 45.302 25.3762 45.302 25.8868C45.302 26.3974 45.7159 26.8113 46.2265 26.8113Z"
    fill="#E1000F" />
  <path
    d="M40.2128 18.105C39.7036 18.105 39.2865 18.2567 38.9614 18.5601C38.64 18.8634 38.4251 19.3221 38.3168 19.936H40.6794C40.6794 19.936 41.203 19.9072 41.203 20.3387C41.203 20.7703 40.6794 20.7703 40.6794 20.7703H38.2355L38.2247 21.0141V21.312L38.2355 21.5233H40.3647C40.3647 21.5233 40.8881 21.5233 40.8881 21.9377C40.8881 22.3521 40.3647 22.3521 40.3647 22.3521H38.3276C38.5588 23.4789 39.216 24.0422 40.2995 24.0422C40.5757 24.0422 40.7664 24.0496 40.9331 24.0426C41.3 24.0271 41.6778 24.2654 41.6778 24.6327C41.6778 24.8332 41.5641 25.0245 41.3713 25.0792C41.0783 25.1624 40.8266 25.1365 40.2345 25.1365C39.3641 25.1365 38.6563 24.8982 38.1109 24.4215C37.5692 23.9447 37.2153 23.255 37.0492 22.3521H36.2258C36.2258 22.3521 35.8528 22.3521 35.8528 21.9377C35.8528 21.5233 36.2258 21.5233 36.2258 21.5233H36.9625L36.9517 21.3228V21.1224L36.9625 20.7703H36.2258C36.2258 20.7703 35.7606 20.7703 35.7606 20.3387C35.7606 19.9072 36.2258 19.936 36.2258 19.936H37.0383C37.1756 19.0296 37.5205 18.3181 38.073 17.8017C38.6256 17.2852 39.3388 17.027 40.2128 17.027C40.7361 17.027 41.1707 17.0962 41.5874 17.2552C41.863 17.3603 41.9662 17.6832 41.8453 17.9522C41.7134 18.2458 41.3665 18.3639 41.0627 18.2574C40.7592 18.151 40.4926 18.105 40.2128 18.105Z"
    fill="#E1000F" />
  <path fill-rule="evenodd" clip-rule="evenodd"
    d="M0 16.9198C0 16.0806 0.838214 15.4997 1.62396 15.7944L7.05597 17.8318C8.08762 18.2187 8.7538 19.1476 8.85812 20.1705L13.6094 19.8953C13.8876 19.8792 14.2593 19.8946 14.6329 20.0606C14.7918 20.1312 14.9496 20.2155 15.1073 20.311L14.1495 21.8926C14.0457 21.8298 13.9575 21.7838 13.8823 21.7504C13.8849 21.7516 13.876 21.747 13.848 21.7434C13.819 21.7397 13.7765 21.7378 13.7163 21.7413L8.44597 22.0465L5.88326 28.3542L14.2602 34.9761C14.8412 35.4354 15.4986 35.7886 16.2023 36.0195L16.6703 36.1731L14.4078 33.9457C14.044 33.5874 14.0394 33.0021 14.3976 32.6382C14.7559 32.2744 15.3412 32.2698 15.7051 32.628L18.8141 35.6889C19.2126 35.7935 19.6303 35.7137 19.9586 35.4863L16.9443 32.5187C16.5805 32.1604 16.5759 31.5751 16.9342 31.2112C17.2924 30.8474 17.8777 30.8428 18.2416 31.201L21.5953 34.5028H21.6545C22.0996 34.5028 22.525 34.3426 22.8568 34.0586L19.1185 30.3782C18.7546 30.0199 18.7501 29.4346 19.1083 29.0707C19.4665 28.7069 20.0519 28.7023 20.4157 29.0605L24.416 32.9989L24.781 32.927C25.0007 32.8838 25.1729 32.7126 25.2175 32.4932C25.256 32.3035 25.1922 32.1062 25.0492 31.9747C23.8079 30.833 22.6795 29.8002 21.6621 28.8691C19.6535 27.0307 18.0777 25.5885 16.9202 24.4858L18.1956 23.147C19.3397 24.2369 20.893 25.6586 22.8898 27.4861C23.9097 28.4195 25.0452 29.4588 26.301 30.6138C26.9201 31.1833 27.1971 32.0362 27.0295 32.8613C26.8363 33.8122 26.0903 34.5538 25.1383 34.7412L24.6382 34.8397L24.5963 34.8948C23.9077 35.7986 22.8426 36.335 21.7085 36.3515C20.9638 37.2958 19.7566 37.7449 18.5857 37.5311L18.503 37.6126C18.1625 37.9478 17.7039 38.1357 17.2262 38.1357C16.8911 38.1357 16.5582 38.0824 16.2399 37.978L15.6257 37.7764C14.7155 37.4777 13.8651 37.0208 13.1136 36.4267L5.03785 30.0429C4.52029 30.6403 3.76037 31.0006 2.94115 31.0006H1.20189C0.538104 31.0006 0 30.4625 0 29.7987V16.9198ZM6.95278 20.8093C7.15393 20.3142 6.90699 19.7507 6.40663 19.563L1.84906 17.8537V29.1516H2.94115C3.31737 29.1516 3.65607 28.9236 3.79768 28.575L6.95278 20.8093Z"
    fill="#3558A2" />
  <path fill-rule="evenodd" clip-rule="evenodd"
    d="M31.8876 19.2901L27.5154 20.9641C27.2348 21.0715 27.0239 21.3087 26.9499 21.5999L26.8924 21.8265L29.6757 29.7046C29.9705 30.2421 30.5356 30.5782 31.1514 30.5782H31.8876V19.2901ZM27.7131 29.7004L25.2379 22.6941L24.3649 22.5509C23.7941 22.4572 23.2348 22.3031 22.6965 22.0911L22.1284 21.8674C21.733 21.7117 21.3506 21.5249 20.9847 21.3088L20.5602 21.058C19.1127 20.2029 17.3424 20.0956 15.8022 20.7696C15.6381 20.8414 15.4857 20.9373 15.35 21.0542L14.1529 22.0855C13.3494 22.7777 12.7221 23.6511 12.3229 24.6337L12.3215 24.6384L12.2497 24.9916C12.2013 25.23 12.3561 25.4622 12.5948 25.5092L12.6592 25.5219C12.7672 25.5432 12.8788 25.5363 12.9834 25.502L13.3659 25.3765C13.4379 25.3528 13.5035 25.3129 13.5575 25.2597L14.2149 24.6125C14.697 24.1379 15.2981 23.802 15.955 23.6404C16.2936 23.557 16.6124 23.4074 16.893 23.2003L17.7687 22.5537L18.867 24.0411L17.9913 24.6878C17.5144 25.0399 16.9725 25.2941 16.3969 25.4358C16.0629 25.518 15.7572 25.6888 15.5121 25.9301L14.8547 26.5774C14.5976 26.8305 14.2854 27.0208 13.9425 27.1333L13.56 27.2589C13.1542 27.392 12.721 27.4186 12.3019 27.3361L12.2376 27.3235C10.9927 27.0783 10.1851 25.8669 10.4377 24.6235L10.5094 24.2703C10.5325 24.1566 10.5661 24.0452 10.6098 23.9377C11.1195 22.6833 11.9203 21.5682 12.9461 20.6845L14.1432 19.6533C14.4186 19.416 14.7279 19.2213 15.0609 19.0756C17.1455 18.1634 19.5415 18.3087 21.5007 19.466L21.9251 19.7167C22.2069 19.8832 22.5014 20.027 22.806 20.147L23.3741 20.3707C23.7903 20.5346 24.2228 20.6538 24.6643 20.7262L25.2603 20.824C25.5417 20.0986 26.118 19.5192 26.8543 19.2373L32.3561 17.1308C33.022 16.8758 33.7367 17.3675 33.7367 18.0805V31.4102C33.7367 31.9719 33.2814 32.4272 32.7197 32.4272H31.1514C30.1711 32.4272 29.252 32.0214 28.5954 31.3331L27.1594 32.2756L26.1448 30.7298L27.7131 29.7004Z"
    fill="#3558A2" />
  <path fill-rule="evenodd" clip-rule="evenodd"
    d="M47.9705 33.7945C48.6028 34.4326 49 35.3485 49 36.3648C49 37.3811 48.6028 38.2969 47.9705 38.9351C48.6028 39.5733 49 40.4891 49 41.5054C49 43.4288 47.578 44.9937 45.8302 44.9937C45.8302 44.9937 38.2045 44.9933 36.909 44.9937C35.6135 44.9941 34.5865 43.1578 34.5865 43.1578C34.3372 42.6503 34.2069 42.0823 34.2075 41.5054C34.2075 40.4891 34.6047 39.5733 35.237 38.9351C34.6047 38.2969 34.2075 37.3811 34.2075 36.3648C34.2075 35.3485 34.6047 34.4326 35.237 33.7945C34.6047 33.1563 34.2075 32.2404 34.2075 31.2241C34.2075 29.3007 35.6295 27.7358 37.3773 27.7358H45.8302C47.578 27.7358 49 29.3007 49 31.2241C49 32.2404 48.6027 33.1563 47.9705 33.7945ZM37.3773 43.1578H45.8302C46.6581 43.1578 47.3316 42.4165 47.3316 41.5054C47.3316 40.5943 46.6581 39.8531 45.8302 39.8531H37.3773C36.5494 39.8531 35.8758 40.5943 35.8758 41.5054C35.8758 42.4165 36.5494 43.1578 37.3773 43.1578ZM37.3773 38.0171H45.8302C46.6581 38.0171 47.3316 37.2759 47.3316 36.3648C47.3316 35.4537 46.6581 34.7124 45.8302 34.7124H37.3773C36.5494 34.7124 35.8758 35.4537 35.8758 36.3648C35.8758 37.2759 36.5494 38.0171 37.3773 38.0171ZM37.3773 32.8765H45.8302C46.6581 32.8765 47.3316 32.1352 47.3316 31.2241C47.3316 30.3131 46.6581 29.5718 45.8302 29.5718H37.3773C36.5494 29.5718 35.8758 30.3131 35.8758 31.2241C35.8758 32.1352 36.5494 32.8765 37.3773 32.8765Z"
    fill="#E1000F" />
  <path fill-rule="evenodd" clip-rule="evenodd"
    d="M47.9705 33.7945C48.6028 34.4326 49 35.3485 49 36.3648C49 37.3811 48.6028 38.2969 47.9705 38.9351C48.6028 39.5733 49 40.4891 49 41.5054C49 43.4288 47.578 44.9937 45.8302 44.9937C45.8302 44.9937 38.2045 44.9933 36.909 44.9937C35.6135 44.9941 34.5865 43.1578 34.5865 43.1578C34.3372 42.6503 34.2069 42.0823 34.2075 41.5054C34.2075 40.4891 34.6047 39.5733 35.237 38.9351C34.6047 38.2969 34.2075 37.3811 34.2075 36.3648C34.2075 35.3485 34.6047 34.4326 35.237 33.7945C34.6047 33.1563 34.2075 32.2404 34.2075 31.2241C34.2075 29.3007 35.6295 27.7358 37.3773 27.7358H45.8302C47.578 27.7358 49 29.3007 49 31.2241C49 32.2404 48.6027 33.1563 47.9705 33.7945ZM37.3773 43.1578H45.8302C46.6581 43.1578 47.3316 42.4165 47.3316 41.5054C47.3316 40.5943 46.6581 39.8531 45.8302 39.8531H37.3773C36.5494 39.8531 35.8758 40.5943 35.8758 41.5054C35.8758 42.4165 36.5494 43.1578 37.3773 43.1578ZM37.3773 38.0171H45.8302C46.6581 38.0171 47.3316 37.2759 47.3316 36.3648C47.3316 35.4537 46.6581 34.7124 45.8302 34.7124H37.3773C36.5494 34.7124 35.8758 35.4537 35.8758 36.3648C35.8758 37.2759 36.5494 38.0171 37.3773 38.0171ZM37.3773 32.8765H45.8302C46.6581 32.8765 47.3316 32.1352 47.3316 31.2241C47.3316 30.3131 46.6581 29.5718 45.8302 29.5718H37.3773C36.5494 29.5718 35.8758 30.3131 35.8758 31.2241C35.8758 32.1352 36.5494 32.8765 37.3773 32.8765Z"
    fill="#E1000F" />
</svg>
  