<svg width="52" height="52" viewBox="0 0 52 52" fill="none" xmlns="http://www.w3.org/2000/svg">
  <path
    d="M11 2H41C42.6569 2 44 3.34315 44 5V47C44 48.6569 42.6569 50 41 50H11C9.34315 50 8 48.6569 8 47V24C8 24 8 23 9 23C10 23 10 24 10 24V47C10 47.5523 10.4477 48 11 48H41C41.5523 48 42 47.5523 42 47V5C42 4.44772 41.5523 4 41 4H11C10.4477 4 10 4.44771 10 5V15C10 15 10 16 9 16C8 16 8 15 8 15V5C8 3.34314 9.34315 2 11 2Z"
    fill="#3558A2" />
  <path
    d="M9 20C9.55228 20 10 19.5523 10 19C10 18.4477 9.55228 18 9 18C8.44772 18 8 18.4477 8 19C8 19.5523 8.44772 20 9 20Z"
    fill="#3558A2" />
  <path fill-rule="evenodd" clip-rule="evenodd"
    d="M14 12C14 11.4477 14.4477 11 15 11H37C37.5523 11 38 11.4477 38 12V18C38 18.5523 37.5523 19 37 19H15C14.4477 19 14 18.5523 14 18V12ZM16 17V13H36V17H16Z"
    fill="#E1000F" />
  <path
    d="M15 26C14.4477 26 14 26.4477 14 27C14 27.5523 14.4477 28 15 28H18C18.5523 28 19 27.5523 19 27C19 26.4477 18.5523 26 18 26H15Z"
    fill="#E1000F" />
  <path
    d="M25 26C24.4477 26 24 26.4477 24 27C24 27.5523 24.4477 28 25 28H28C28.5523 28 29 27.5523 29 27C29 26.4477 28.5523 26 28 26H25Z"
    fill="#E1000F" />
  <path
    d="M33 27C33 26.4477 33.4477 26 34 26H37C37.5523 26 38 26.4477 38 27C38 27.5523 37.5523 28 37 28H34C33.4477 28 33 27.5523 33 27Z"
    fill="#E1000F" />
  <path
    d="M15 33C14.4477 33 14 33.4477 14 34C14 34.5523 14.4477 35 15 35H18C18.5523 35 19 34.5523 19 34C19 33.4477 18.5523 33 18 33H15Z"
    fill="#E1000F" />
  <path
    d="M24 34C24 33.4477 24.4477 33 25 33H28C28.5523 33 29 33.4477 29 34C29 34.5523 28.5523 35 28 35H25C24.4477 35 24 34.5523 24 34Z"
    fill="#E1000F" />
  <path
    d="M34 33C33.4477 33 33 33.4477 33 34C33 34.5523 33.4477 35 34 35H37C37.5523 35 38 34.5523 38 34C38 33.4477 37.5523 33 37 33H34Z"
    fill="#E1000F" />
  <path
    d="M14 41C14 40.4477 14.4477 40 15 40H18C18.5523 40 19 40.4477 19 41C19 41.5523 18.5523 42 18 42H15C14.4477 42 14 41.5523 14 41Z"
    fill="#E1000F" />
  <path
    d="M25 40C24.4477 40 24 40.4477 24 41C24 41.5523 24.4477 42 25 42H28C28.5523 42 29 41.5523 29 41C29 40.4477 28.5523 40 28 40H25Z"
    fill="#E1000F" />
  <path
    d="M33 41C33 40.4477 33.4477 40 34 40H37C37.5523 40 38 40.4477 38 41C38 41.5523 37.5523 42 37 42H34C33.4477 42 33 41.5523 33 41Z"
    fill="#E1000F" />
</svg>
  