<svg width="81" height="80" viewBox="0 0 81 80" fill="none" xmlns="http://www.w3.org/2000/svg">
<path fill-rule="evenodd" clip-rule="evenodd" d="M79.9668 61.5498C80.2777 61.2716 80.2777 60.7849 79.9668 60.5067L70.5524 52.0801C70.1015 51.6765 69.3856 51.9965 69.3856 52.6016V57.1821H49.4258V64.8744H69.3856V69.4548C69.3856 70.06 70.1015 70.38 70.5524 69.9764L79.9668 61.5498Z" fill="#E1000F"/>
<path fill-rule="evenodd" clip-rule="evenodd" d="M8.41441 9.42864C8.41441 7.32508 10.0621 5.61475 12.0885 5.61475C14.115 5.61475 15.7627 7.32508 15.7627 9.42864V11.0738H29.4504V9.42864C29.4504 7.32508 31.0981 5.61475 33.1246 5.61475C35.151 5.61475 36.7987 7.32508 36.7987 9.42864V11.0738H50.4864V9.42864C50.4864 7.32508 52.1341 5.61475 54.1606 5.61475C56.187 5.61475 57.8347 7.32508 57.8347 9.42864V11.0738H60.4714C63.6575 11.0738 66.2491 13.764 66.2491 17.0713V55.384H63.1081V26.3443H3.14106V68.3865C3.14106 69.8952 4.32423 71.1234 5.77773 71.1234H60.4714C61.9249 71.1234 63.1081 69.8952 63.1081 68.3865V66.1532H66.2491V68.3865C66.2491 71.6938 63.6575 74.384 60.4714 74.384H5.77773C2.5916 74.384 0 71.6938 0 68.3865V17.0713C0 13.764 2.5916 11.0738 5.77773 11.0738H8.41441V9.42864ZM57.8347 55.384V53.1011C57.8347 52.2009 57.1322 51.4708 56.2642 51.4708H45.7462C44.8782 51.4708 44.1756 52.2009 44.1756 53.1011V64.0192C44.1756 64.9194 44.8782 65.6495 45.7462 65.6495H47.9454V62.3889H47.3167V54.7314H54.6936V55.384H57.8347ZM12.0885 8.87529C11.7949 8.87529 11.5555 9.12397 11.5555 9.42864V15.9795C11.5555 16.2842 11.7949 16.5329 12.0885 16.5329C12.3822 16.5329 12.6216 16.2842 12.6216 15.9795V9.42864C12.6216 9.12397 12.3822 8.87529 12.0885 8.87529ZM33.1246 8.87529C32.8309 8.87529 32.5915 9.12397 32.5915 9.42864V15.9795C32.5915 16.2842 32.8309 16.5329 33.1246 16.5329C33.4182 16.5329 33.6576 16.2842 33.6576 15.9795V9.42864C33.6576 9.12397 33.4182 8.87529 33.1246 8.87529ZM54.1606 8.87529C53.8669 8.87529 53.6275 9.12397 53.6275 9.42864V15.9795C53.6275 16.2842 53.8669 16.5329 54.1606 16.5329C54.4543 16.5329 54.6936 16.2842 54.6936 15.9795V9.42864C54.6936 9.12397 54.4543 8.87529 54.1606 8.87529ZM5.77773 14.3343C4.32423 14.3343 3.14106 15.5625 3.14106 17.0713V23.0837H63.1081V17.0713C63.1081 15.5625 61.9249 14.3343 60.4714 14.3343H57.8347V15.9795C57.8347 18.0831 56.187 19.7934 54.1606 19.7934C52.1341 19.7934 50.4864 18.0831 50.4864 15.9795V14.3343H36.7987V15.9795C36.7987 18.0831 35.151 19.7934 33.1246 19.7934C31.0981 19.7934 29.4504 18.0831 29.4504 15.9795V14.3343H15.7627V15.9795C15.7627 18.0831 14.115 19.7934 12.0885 19.7934C10.0621 19.7934 8.41441 18.0831 8.41441 15.9795V14.3343H5.77773ZM9.98494 31.8182C9.11692 31.8182 8.41441 32.5483 8.41441 33.4485V44.3666C8.41441 45.2668 9.11692 45.9969 9.98494 45.9969H20.5029C21.371 45.9969 22.0735 45.2668 22.0735 44.3666V33.4485C22.0735 32.5483 21.371 31.8182 20.5029 31.8182H9.98494ZM11.5555 42.7363V35.0788H18.9324V42.7363H11.5555ZM27.8656 31.8182C26.9975 31.8182 26.295 32.5483 26.295 33.4485V44.3666C26.295 45.2668 26.9975 45.9969 27.8656 45.9969H38.3836C39.2516 45.9969 39.9541 45.2668 39.9541 44.3666V33.4485C39.9541 32.5483 39.2516 31.8182 38.3836 31.8182H27.8656ZM29.4361 42.7363V35.0788H36.813V42.7363H29.4361ZM44.1756 33.4485C44.1756 32.5483 44.8782 31.8182 45.7462 31.8182H56.2642C57.1322 31.8182 57.8347 32.5483 57.8347 33.4485V44.3666C57.8347 45.2668 57.1322 45.9969 56.2642 45.9969H45.7462C44.8782 45.9969 44.1756 45.2668 44.1756 44.3666V33.4485ZM47.3167 35.0788V42.7363H54.6936V35.0788H47.3167ZM9.98494 51.4708C9.11692 51.4708 8.41441 52.2009 8.41441 53.1011V64.0192C8.41441 64.9194 9.11692 65.6495 9.98494 65.6495H20.5029C21.371 65.6495 22.0735 64.9194 22.0735 64.0192V53.1011C22.0735 52.2009 21.371 51.4708 20.5029 51.4708H9.98494ZM11.5555 62.3889V54.7314H18.9324V62.3889H11.5555ZM26.295 53.1011C26.295 52.2009 26.9975 51.4708 27.8656 51.4708H38.3836C39.2516 51.4708 39.9541 52.2009 39.9541 53.1011V64.0192C39.9541 64.9194 39.2516 65.6495 38.3836 65.6495H27.8656C26.9975 65.6495 26.295 64.9194 26.295 64.0192V53.1011ZM29.4361 54.7314V62.3889H36.813V54.7314H29.4361Z" fill="#3558A2"/>
</svg>
