<svg width="80" height="80" viewBox="0 0 80 80" fill="none" xmlns="http://www.w3.org/2000/svg">
<path d="M65.3125 3.07642H14.6875C12.1028 3.07642 10 5.17923 10 7.76392V23.0764C10 23.9394 10.6997 24.6149 11.5625 24.6149C12.4253 24.6149 13.125 23.9394 13.125 23.0764V7.76392C13.125 6.90235 13.8259 6.20142 14.6875 6.20142H65.3125C66.1741 6.20142 66.875 6.90235 66.875 7.76392V72.2351C66.875 73.0966 66.1741 73.7976 65.3125 73.7976H14.6875C13.8259 73.7976 13.125 73.0966 13.125 72.2351V36.8784C13.125 36.0155 12.4253 35.3159 11.5625 35.3159C10.6997 35.3159 10 36.0155 10 36.8784V72.2351C10 74.8198 12.1028 76.9226 14.6875 76.9226H65.3125C67.8972 76.9226 70 74.8198 70 72.2351V7.76392C70 5.17923 67.8972 3.07642 65.3125 3.07642Z" fill="#3558A2"/>
<path d="M11.6331 27.6918C12.0441 27.6918 12.4472 27.8574 12.7376 28.1481C13.0283 28.4402 13.1956 28.8418 13.1956 29.2527C13.1946 29.6674 13.03 30.0649 12.7376 30.359C12.447 30.6496 12.0439 30.8168 11.6331 30.8168C11.2222 30.8168 10.8191 30.6496 10.5284 30.359C10.2364 30.0647 10.072 29.6673 10.0706 29.2527C10.0725 28.8387 10.2369 28.442 10.5284 28.1481C10.8191 27.8574 11.2222 27.6918 11.6331 27.6918Z" fill="#3558A2"/>
<path d="M31.7314 55.8417C31.1211 55.2317 30.132 55.2315 29.5215 55.8417L25.3679 59.9953L23.4367 58.0639C22.8265 57.4537 21.8375 57.4539 21.2268 58.0639C20.6167 58.674 20.6167 59.6634 21.2268 60.2735L24.2631 63.3098C24.5562 63.6028 24.9536 63.7673 25.368 63.7673C25.7824 63.7673 26.1798 63.6028 26.4729 63.3098L31.7314 58.0514C32.3415 57.4412 32.3415 56.4518 31.7314 55.8417Z" fill="#3558A2"/>
<path d="M31.823 43.534C31.2127 42.924 30.2237 42.9238 29.6132 43.534L25.4596 47.6876L23.5283 45.7562C22.9182 45.146 21.9291 45.1462 21.3185 45.7562C20.7083 46.3663 20.7083 47.3557 21.3185 47.9659L24.3547 51.0021C24.6478 51.2951 25.0453 51.4596 25.4597 51.4596C25.8741 51.4596 26.2715 51.2951 26.5646 51.0021L31.823 45.7437C32.4332 45.1335 32.4332 44.1441 31.823 43.534Z" fill="#3558A2"/>
<path d="M59.193 44.6149H40.8064C39.9362 44.6149 39.2305 45.3036 39.2305 46.1533C39.2305 47.003 39.9362 47.6918 40.8064 47.6918H59.193C60.0632 47.6918 60.7689 47.003 60.7689 46.1533C60.7689 45.3036 60.0632 44.6149 59.193 44.6149Z" fill="#E1000F"/>
<path d="M59.193 58.461H40.8064C39.9362 58.461 39.2305 59.1498 39.2305 59.9995C39.2305 60.8492 39.9362 61.5379 40.8064 61.5379H59.193C60.0632 61.5379 60.7689 60.8492 60.7689 59.9995C60.7689 59.1498 60.0632 58.461 59.193 58.461Z" fill="#E1000F"/>
<rect x="20.7695" y="29.2303" width="40" height="3.07692" rx="1.53846" fill="#E1000F"/>
<rect x="20.7695" y="19.9995" width="40" height="3.07692" rx="1.53846" fill="#E1000F"/>
<rect x="20.7695" y="10.7688" width="40" height="3.07692" rx="1.53846" fill="#E1000F"/>
</svg>
