<svg width="52" height="52" viewBox="0 0 52 52" fill="none" xmlns="http://www.w3.org/2000/svg">
  <g clip-path="url(#clip0_852_18513)">
    <path
      d="M40.9997 2H10.9997C9.34288 2 7.99974 3.34314 7.99974 5V15C7.99974 15 7.99974 16 8.99974 16C9.99974 16 9.99974 15 9.99974 15V5C9.99974 4.44771 10.4475 4 10.9997 4H40.9997C41.552 4 41.9997 4.44772 41.9997 5V32H43.9997V5C43.9997 3.34315 42.6566 2 40.9997 2Z"
      fill="#3558A2"/>
    <path
      d="M29.9995 48V50H10.7329C9.07606 50 7.73291 48.6569 7.73291 47V24C7.73291 24 7.73291 23 8.73291 23C9.73291 23 9.73291 24 9.73291 24V47C9.73291 47.5523 10.1806 48 10.7329 48H29.9995Z"
      fill="#3558A2"/>
    <path
      d="M8.99974 20C9.55202 20 9.99974 19.5523 9.99974 19C9.99974 18.4477 9.55202 18 8.99974 18C8.44745 18 7.99974 18.4477 7.99974 19C7.99974 19.5523 8.44745 20 8.99974 20Z"
      fill="#3558A2"/>
    <path fill-rule="evenodd" clip-rule="evenodd"
          d="M47.935 40.3938C48.6671 41.0672 49.127 42.0338 49.127 43.1063C49.127 44.1788 48.6671 45.1453 47.935 45.8188C48.6671 46.4922 49.127 47.4587 49.127 48.5313C49.127 50.5611 47.4805 52.2125 45.4568 52.2125C45.4568 52.2125 36.6274 52.2121 35.1274 52.2125C33.6274 52.2129 32.4383 50.275 32.4383 50.275C32.1496 49.7394 31.9988 49.1401 31.9995 48.5313C31.9995 47.4587 32.4594 46.4922 33.1914 45.8188C32.4593 45.1453 31.9995 44.1788 31.9995 43.1063C31.9995 42.0338 32.4594 41.0672 33.1914 40.3938C32.4593 39.7203 31.9995 38.7538 31.9995 37.6813C31.9995 35.6514 33.646 34 35.6697 34H45.4568C47.4805 34 49.127 35.6514 49.127 37.6813C49.127 38.7538 48.667 39.7203 47.935 40.3938ZM35.6697 50.275H45.4568C46.4154 50.275 47.1953 49.4927 47.1953 48.5313C47.1953 47.5698 46.4154 46.7875 45.4568 46.7875H35.6697C34.7111 46.7875 33.9312 47.5698 33.9312 48.5313C33.9312 49.4927 34.7111 50.275 35.6697 50.275ZM35.6697 44.85H45.4568C46.4154 44.85 47.1953 44.0677 47.1953 43.1063C47.1953 42.1448 46.4154 41.3625 45.4568 41.3625H35.6697C34.7111 41.3625 33.9312 42.1448 33.9312 43.1063C33.9312 44.0677 34.7111 44.85 35.6697 44.85ZM35.6697 39.425H45.4568C46.4154 39.425 47.1953 38.6427 47.1953 37.6813C47.1953 36.7198 46.4154 35.9375 45.4568 35.9375H35.6697C34.7111 35.9375 33.9312 36.7198 33.9312 37.6813C33.9312 38.6427 34.7111 39.425 35.6697 39.425Z"
          fill="#3558A2"/>
    <path fill-rule="evenodd" clip-rule="evenodd"
          d="M14 12C14 11.4477 14.4477 11 15 11H37C37.5523 11 38 11.4477 38 12V18C38 18.5523 37.5523 19 37 19H15C14.4477 19 14 18.5523 14 18V12ZM16 17V13H36V17H16Z"
          fill="#E1000F"/>
    <path
      d="M15 26C14.4477 26 14 26.4477 14 27C14 27.5523 14.4477 28 15 28H18C18.5523 28 19 27.5523 19 27C19 26.4477 18.5523 26 18 26H15Z"
      fill="#E1000F"/>
    <path
      d="M25 26C24.4477 26 24 26.4477 24 27C24 27.5523 24.4477 28 25 28H28C28.5523 28 29 27.5523 29 27C29 26.4477 28.5523 26 28 26H25Z"
      fill="#E1000F"/>
    <path
      d="M33 27C33 26.4477 33.4477 26 34 26H37C37.5523 26 38 26.4477 38 27C38 27.5523 37.5523 28 37 28H34C33.4477 28 33 27.5523 33 27Z"
      fill="#E1000F"/>
    <path
      d="M15 33C14.4477 33 14 33.4477 14 34C14 34.5523 14.4477 35 15 35H18C18.5523 35 19 34.5523 19 34C19 33.4477 18.5523 33 18 33H15Z"
      fill="#E1000F"/>
    <path
      d="M24 34C24 33.4477 24.4477 33 25 33H28C28.5523 33 29 33.4477 29 34C29 34.5523 28.5523 35 28 35H25C24.4477 35 24 34.5523 24 34Z"
      fill="#E1000F"/>
    <path
      d="M14 41C14 40.4477 14.4477 40 15 40H18C18.5523 40 19 40.4477 19 41C19 41.5523 18.5523 42 18 42H15C14.4477 42 14 41.5523 14 41Z"
      fill="#E1000F"/>
    <path
      d="M25 40C24.4477 40 24 40.4477 24 41C24 41.5523 24.4477 42 25 42H28C28.5523 42 29 41.5523 29 41C29 40.4477 28.5523 40 28 40H25Z"
      fill="#E1000F"/>
  </g>
  <defs>
    <clipPath id="clip0_852_18513">
      <rect width="52" height="52" fill="white"/>
    </clipPath>
  </defs>
</svg>
