<svg width="80" height="80" viewBox="0 0 80 80" fill="none" xmlns="http://www.w3.org/2000/svg">
<g clip-path="url(#clip0_3370_16143)">
<path d="M53.4005 9.01529C63.6553 13.4562 71.0347 22.6415 73.1409 33.5861C73.3039 34.4334 72.7491 35.2526 71.9017 35.4156C71.8022 35.4348 71.7028 35.444 71.605 35.444C70.8708 35.444 70.2161 34.9242 70.0722 34.1765C68.1614 24.247 61.4648 15.9129 52.1588 11.8828C51.3669 11.54 51.003 10.62 51.3458 9.82811C51.6887 9.03639 52.6087 8.67232 53.4005 9.01529Z" fill="#E1000F"/>
<path d="M47.2138 7.02264L47.2547 7.03154C48.0969 7.21951 48.6273 8.05451 48.4394 8.89686C48.2772 9.62436 47.6316 10.1194 46.9159 10.1194C46.8009 10.1193 46.6863 10.1067 46.5741 10.0815L46.5558 10.0775C45.7122 9.89576 45.1756 9.06467 45.3573 8.22107C45.5389 7.37732 46.3706 6.84076 47.2138 7.02264Z" fill="#E1000F"/>
<path d="M9.9275 45.8226C11.8677 55.9047 18.6962 64.295 28.1942 68.2667C28.9903 68.5995 29.3658 69.5148 29.0328 70.3109C28.7823 70.9101 28.2019 71.2711 27.5908 71.2711C27.384 71.271 27.1793 71.2297 26.9886 71.1497C21.9136 69.0273 17.3806 65.647 13.8798 61.3739C10.3381 57.0509 7.91047 51.8775 6.85875 46.4131C6.69578 45.5658 7.25047 44.7465 8.09797 44.5836C8.94641 44.4197 9.76453 44.9753 9.9275 45.8226Z" fill="#E1000F"/>
<path d="M33.3511 69.9012L33.4477 69.9225C34.2908 70.1061 34.8255 70.9384 34.6419 71.7817C34.4827 72.5126 33.8356 73.0119 33.1167 73.0119C33.0044 73.0118 32.8924 72.9997 32.7827 72.9758L32.6733 72.9517C31.8308 72.7645 31.2997 71.9298 31.4869 71.0875C31.6741 70.2451 32.5094 69.7142 33.3511 69.9012Z" fill="#E1000F"/>
<path d="M33.5863 6.85857C34.4337 6.69467 35.2528 7.25029 35.4159 8.09764C35.5789 8.94498 35.0242 9.7642 34.1767 9.92717C28.2968 11.0543 22.8777 13.8846 18.593 18.0663C14.3084 22.2479 11.3471 27.5965 10.0772 33.4473C9.91797 34.1784 9.27094 34.6775 8.55203 34.6775C8.44188 34.6775 8.32984 34.6658 8.21781 34.6414C7.37469 34.4576 6.84016 33.6253 7.02375 32.7822C8.42703 26.3417 11.6748 20.4892 16.4158 15.8572C21.1641 11.2181 27.1016 8.10639 33.5863 6.85857Z" fill="#E1000F"/>
<path fill-rule="evenodd" clip-rule="evenodd" d="M41.5631 34.9216V21.6146C41.5631 20.7516 40.8634 20.0521 40.0006 20.0521C39.1378 20.0521 38.4381 20.7516 38.4381 21.6146V34.9213C36.7626 35.4376 35.4381 36.7621 34.9217 38.4376H29.1151C28.2523 38.4376 27.5526 39.1371 27.5526 40.0001C27.5526 40.8631 28.2523 41.5626 29.1151 41.5626H34.9221C35.5911 43.7315 37.6144 45.312 40 45.312C42.9294 45.312 45.3125 42.9289 45.3125 39.9995C45.3125 37.6139 43.732 35.5906 41.5631 34.9216ZM39.9678 37.8122C39.9787 37.8125 39.9896 37.8126 40.0006 37.8126C40.0114 37.8126 40.0221 37.8125 40.0328 37.8123C41.224 37.8299 42.1875 38.8042 42.1875 39.9995C42.1875 41.2058 41.2063 42.187 40 42.187C38.8047 42.187 37.8304 41.2235 37.8127 40.0324C37.813 40.0216 37.8131 40.0109 37.8131 40.0001C37.8131 39.9891 37.813 39.9782 37.8127 39.9673C37.8298 38.7866 38.7871 37.8293 39.9678 37.8122Z" fill="#E1000F"/>
<path d="M38.4612 7.81201C38.4612 6.94904 39.1609 6.24951 40.0238 6.24951C40.8866 6.24951 41.5863 6.94904 41.5863 7.81201V11.3133C41.5863 12.1762 40.8867 12.8758 40.0238 12.8758C39.1609 12.8758 38.4612 12.1762 38.4612 11.3133V7.81201Z" fill="#E1000F"/>
<path d="M38.4138 67.572C38.4138 66.709 39.1134 66.0095 39.9763 66.0095C40.8391 66.0095 41.5387 66.709 41.5387 67.572V72.187C41.5387 73.05 40.8391 73.7495 39.9763 73.7495C39.1134 73.7495 38.4138 73.05 38.4138 72.187V67.572Z" fill="#E1000F"/>
<path d="M67.9688 38.4608H72.1875C73.0503 38.4608 73.75 39.1603 73.75 40.0233C73.75 40.8862 73.0503 41.5858 72.1875 41.5858H67.9688C67.1059 41.5858 66.4063 40.8862 66.4063 40.0233C66.4063 39.1603 67.1059 38.4608 67.9688 38.4608Z" fill="#E1000F"/>
<path d="M7.8125 38.4133H12.3438C13.2066 38.4133 13.9063 39.1128 13.9063 39.9758C13.9063 40.8387 13.2066 41.5383 12.3438 41.5383H7.8125C6.94969 41.5383 6.25 40.8387 6.25 39.9758C6.25 39.1128 6.94969 38.4133 7.8125 38.4133Z" fill="#E1000F"/>
<path d="M68.2844 11.7153C60.7292 4.16014 50.6844 -0.000488281 40 -0.000488281C29.3156 -0.000488281 19.2708 4.16014 11.7156 11.7153C4.16078 19.2703 0 29.3151 0 39.9995C0 50.6839 4.16078 60.7287 11.7156 68.2837C19.2708 75.8389 29.3156 79.9995 40 79.9995C40.5743 79.9995 41.1051 80.0036 41.6037 80.0074C44.7247 80.0313 46.5804 80.0455 49.9129 78.992L48.4615 76.1534C45.767 76.9681 44.3418 76.9415 41.9917 76.8977C41.3985 76.8867 40.7463 76.8745 40 76.8745C19.667 76.8745 3.125 60.3325 3.125 39.9995C3.125 19.6665 19.667 3.12451 40 3.12451C60.333 3.12451 76.875 19.6665 76.875 39.9995C76.875 40.4405 76.8766 40.8597 76.8782 41.2608C76.8926 45.0195 76.9009 47.1869 75.5191 50.8423L77.6923 53.8457C79.8677 48.8637 80 45.5992 80 39.9995C80 29.3151 75.8392 19.2703 68.2844 11.7153Z" fill="#3558A2"/>
<path fill-rule="evenodd" clip-rule="evenodd" d="M75.0886 61.8162C76.2149 62.8523 76.9224 64.3393 76.9224 65.9893C76.9224 67.6393 76.2149 69.1263 75.0886 70.1624C76.2149 71.1985 76.9224 72.6854 76.9224 74.3355C76.9224 77.4583 74.3893 79.9989 71.2759 79.9989C71.2759 79.9989 57.6923 79.9983 55.3846 79.9989C53.0769 79.9995 51.2475 77.0182 51.2475 77.0182C50.8034 76.1942 50.5714 75.2721 50.5724 74.3355C50.5724 72.6854 51.28 71.1985 52.4062 70.1624C51.2799 69.1263 50.5724 67.6393 50.5724 65.9893C50.5724 64.3393 51.28 62.8523 52.4062 61.8162C51.2799 60.7801 50.5724 59.2932 50.5724 57.6432C50.5724 54.5204 53.1054 51.9797 56.2188 51.9797H71.2759C74.3893 51.9797 76.9224 54.5204 76.9224 57.6432C76.9224 59.2932 76.2148 60.7801 75.0886 61.8162ZM56.2188 77.0182H71.2759C72.7507 77.0182 73.9506 75.8147 73.9506 74.3355C73.9506 72.8563 72.7507 71.6528 71.2759 71.6528H56.2188C54.7441 71.6528 53.5442 72.8563 53.5442 74.3355C53.5442 75.8147 54.7441 77.0182 56.2188 77.0182ZM56.2188 68.672H71.2759C72.7507 68.672 73.9506 67.4685 73.9506 65.9893C73.9506 64.5101 72.7507 63.3066 71.2759 63.3066H56.2188C54.7441 63.3066 53.5442 64.5101 53.5442 65.9893C53.5442 67.4685 54.7441 68.672 56.2188 68.672ZM56.2188 60.3258H71.2759C72.7507 60.3258 73.9506 59.1224 73.9506 57.6432C73.9506 56.1639 72.7507 54.9605 71.2759 54.9605H56.2188C54.7441 54.9605 53.5442 56.1639 53.5442 57.6432C53.5442 59.1224 54.7441 60.3258 56.2188 60.3258Z" fill="#3558A2"/>
</g>
<defs>
<clipPath id="clip0_3370_16143">
<rect width="80" height="80" fill="white" transform="translate(0 -0.000488281)"/>
</clipPath>
</defs>
</svg>
