<svg width="52" height="52" viewBox="0 0 52 52" fill="none" xmlns="http://www.w3.org/2000/svg">
  <path
    d="M42.9531 2H10.0469C8.36683 2 7 3.36683 7 5.04688V15C7 15.5609 7.4548 16 8.01562 16C8.57645 16 9.03125 15.5609 9.03125 15V5.04688C9.03125 4.48686 9.48686 4.03125 10.0469 4.03125H42.9531C43.5131 4.03125 43.9688 4.48686 43.9688 5.04688V27H46V5.04688C46 3.36683 44.6332 2 42.9531 2Z"
    fill="#3558A2"/>
  <path
    d="M46 43H43.9688V46.9531C43.9688 47.5131 43.5131 47.9688 42.9531 47.9688H10.0469C9.48686 47.9688 9.03125 47.5131 9.03125 46.9531V23.9713C9.03125 23.4104 8.57645 22.9557 8.01562 22.9557C7.4548 22.9557 7 23.4104 7 23.9713V46.9531C7 48.6332 8.36683 50 10.0469 50H42.9531C44.6332 50 46 48.6332 46 46.9531V43Z"
    fill="#3558A2"/>
  <path
    d="M8.06152 18C8.32863 18 8.59066 18.1077 8.77947 18.2966C8.96837 18.4865 9.07715 18.7475 9.07715 19.0146C9.07647 19.2841 8.9695 19.5425 8.77947 19.7337C8.59056 19.9226 8.32853 20.0312 8.06152 20.0312C7.79441 20.0312 7.53238 19.9226 7.34348 19.7337C7.15369 19.5424 7.04679 19.2841 7.0459 19.0146C7.04713 18.7455 7.154 18.4877 7.34348 18.2966C7.53238 18.1077 7.79441 18 8.06152 18Z"
    fill="#3558A2"/>
  <path
    d="M19.689 36.2974C20.0858 35.9008 20.7287 35.9009 21.1254 36.2974C21.522 36.694 21.522 37.3371 21.1254 37.7337L17.7074 41.1517C17.5169 41.3421 17.2586 41.4491 16.9892 41.4491C16.7199 41.4491 16.4615 41.3421 16.271 41.1517L14.2975 39.1781C13.9008 38.7815 13.9008 38.1384 14.2975 37.7418C14.6944 37.3453 15.3372 37.3452 15.7338 37.7418L16.9892 38.9972L19.689 36.2974Z"
    fill="#3558A2"/>
  <path
    d="M21.185 28.2974C20.7883 27.9009 20.1454 27.9008 19.7486 28.2974L17.0487 30.9972L15.7934 29.7418C15.3968 29.3452 14.7539 29.3453 14.357 29.7418C13.9604 30.1384 13.9604 30.7815 14.357 31.1781L16.3306 33.1517C16.5211 33.3421 16.7794 33.4491 17.0488 33.4491C17.3181 33.4491 17.5765 33.3421 17.767 33.1517L21.185 29.7337C21.5816 29.3371 21.5816 28.694 21.185 28.2974Z"
    fill="#3558A2"/>
  <path fill-rule="evenodd" clip-rule="evenodd"
        d="M23.0156 10H13.0156C12.4548 10 12 10.4547 12 11.0156V20.9844C12 21.5453 12.4548 22 13.0156 22H23.0156C23.5765 22 24.0312 21.5453 24.0312 20.9844V11.0156C24.0312 10.4547 23.5765 10 23.0156 10ZM14.0312 19.9688H22V12.0312H14.0312V19.9688Z"
        fill="#3558A2"/>
  <path
    d="M30.0156 11H39.125C39.6858 11 40.1406 11.4547 40.1406 12.0156C40.1406 12.5766 39.6858 13.0312 39.125 13.0312H30.0156C29.4548 13.0312 29 12.5766 29 12.0156C29 11.4547 29.4548 11 30.0156 11Z"
    fill="#E1000F"/>
  <path
    d="M30.0156 19H39.125C39.6858 19 40.1406 19.4547 40.1406 20.0156C40.1406 20.5766 39.6858 21.0312 39.125 21.0312H30.0156C29.4548 21.0312 29 20.5766 29 20.0156C29 19.4547 29.4548 19 30.0156 19Z"
    fill="#E1000F"/>
  <path
    d="M30.0156 15H39.125C39.6858 15 40.1406 15.4547 40.1406 16.0156C40.1406 16.5766 39.6858 17.0312 39.125 17.0312H30.0156C29.4548 17.0312 29 16.5766 29 16.0156C29 15.4547 29.4548 15 30.0156 15Z"
    fill="#E1000F"/>
  <path
    d="M42.0951 28.0005C42.27 28.0081 42.4366 28.0758 42.5655 28.1919L48.8235 34.3247C48.937 34.4453 49 34.6032 49 34.7672C49 34.9312 48.937 35.0892 48.8235 35.2097L42.5466 41.3528C42.4884 41.4118 42.4185 41.4584 42.3413 41.4899C42.264 41.5214 42.1809 41.5371 42.0972 41.536C41.9301 41.536 41.7699 41.4709 41.6518 41.3551C41.5336 41.2393 41.4672 41.0823 41.4672 40.9186V37.2368H28V32.2976H41.4651V28.6179C41.4616 28.5359 41.4754 28.4541 41.5058 28.3776C41.5362 28.3011 41.5825 28.2316 41.6417 28.1736C41.7009 28.1156 41.7718 28.0702 41.8499 28.0404C41.9279 28.0106 42.0114 27.997 42.0951 28.0005Z"
    fill="#E1000F"/>
</svg>
