<svg width="80" height="80" viewBox="0 0 80 80" fill="none" xmlns="http://www.w3.org/2000/svg">
<path fill-rule="evenodd" clip-rule="evenodd" d="M67.9372 24.3368L73.2718 11.8449C73.4121 11.5164 73.428 11.1483 73.3165 10.809C73.205 10.4697 72.9737 10.1822 72.6655 9.99973L70.0478 8.45042C67.9956 7.23552 65.3743 7.42994 63.5253 8.93352L63.1212 9.26203C62.1166 10.0794 60.6582 10.0794 59.6523 9.26144L59.6362 9.24831C57.5419 7.54529 54.5039 7.5478 52.4126 9.2548C51.4072 10.0754 49.947 10.0763 48.9406 9.25775L48.5301 8.92378C46.6898 7.42699 44.0775 7.22741 42.0295 8.42726L39.3417 10.0018C39.0311 10.1838 38.7977 10.4723 38.6853 10.8133C38.5729 11.1544 38.5893 11.5245 38.7313 11.8544L44.0992 24.3261C40.2163 25.7225 36.1995 29.5604 34.0257 33.0685C33.5959 33.7617 33.8121 34.6707 34.5083 35.0984C35.2045 35.5261 36.1172 35.3109 36.5469 34.6176C38.4146 31.6062 41.976 28.1649 45.3376 27.0154H66.664C72.8775 29.1345 77.0358 34.9161 77.0358 41.4743V45.388C77.0358 46.2026 77.699 46.8631 78.5171 46.8631C79.3353 46.8631 79.9985 46.2026 79.9985 45.388V41.4743C79.9985 33.7611 75.1761 26.9507 67.9372 24.3368ZM64.8335 24.0652H47.2099L41.9677 11.886L43.5316 10.9701C44.5156 10.3933 45.7712 10.4893 46.6557 11.2087L47.0662 11.5425C49.1606 13.2461 52.1988 13.2436 54.2906 11.5365C55.2957 10.716 56.7557 10.715 57.7632 11.5341L57.7793 11.5473C59.8699 13.2473 62.9046 13.2473 64.9951 11.547L65.3991 11.2185C66.2877 10.496 67.5473 10.4026 68.5337 10.9863L70.0385 11.877L64.8335 24.0652Z" fill="#E1000F"/>
<path d="M78.4299 53.1377C79.2962 53.1377 79.9985 52.4354 79.9985 51.569C79.9985 50.7027 79.2962 50.0004 78.4299 50.0004C77.5635 50.0004 76.8612 50.7027 76.8612 51.569C76.8612 52.4354 77.5635 53.1377 78.4299 53.1377Z" fill="#E1000F"/>
<path d="M68.2265 38.3659C67.3625 38.3659 66.6548 38.6233 66.1033 39.138C65.558 39.6527 65.1934 40.4309 65.0096 41.4725H69.0181C69.0181 41.4725 69.9066 41.4235 69.9066 42.1557C69.9066 42.888 69.0181 42.888 69.0181 42.888H64.8717L64.8533 43.3016V43.8071L64.8717 44.1655H68.4841C68.4841 44.1655 69.3723 44.1655 69.3723 44.8687C69.3723 45.5718 68.4841 45.5718 68.4841 45.5718H65.028C65.4201 47.4836 66.5353 48.4394 68.3735 48.4394C68.8422 48.4394 69.1657 48.4519 69.4486 48.44C70.0712 48.4137 70.7121 48.8181 70.7121 49.4412C70.7121 49.7814 70.5192 50.1059 70.192 50.1989C69.695 50.34 69.2679 50.2961 68.2632 50.2961C66.7865 50.2961 65.5856 49.8916 64.6603 49.0828C63.7412 48.274 63.1407 47.1037 62.8588 45.5718H61.4618C61.4618 45.5718 60.8289 45.5718 60.8289 44.8687C60.8289 44.1655 61.4618 44.1655 61.4618 44.1655H62.7118L62.6934 43.8255V43.4854L62.7118 42.888H61.4618C61.4618 42.888 60.6725 42.888 60.6725 42.1557C60.6725 41.4235 61.4618 41.4725 61.4618 41.4725H62.8405C63.0733 39.9345 63.6585 38.7274 64.596 37.8512C65.5335 36.975 66.7436 36.5369 68.2265 36.5369C69.1144 36.5369 69.8517 36.6543 70.5588 36.924C71.0263 37.1024 71.2014 37.6502 70.9963 38.1066C70.7726 38.6048 70.1839 38.8052 69.6685 38.6244C69.1536 38.4438 68.7013 38.3659 68.2265 38.3659Z" fill="#E1000F"/>
<path fill-rule="evenodd" clip-rule="evenodd" d="M0 36.3555C0 34.9317 1.42218 33.9462 2.75533 34.4462L11.9717 37.9029C13.7221 38.5594 14.8524 40.1355 15.0294 41.8709L23.0908 41.4041C23.5628 41.3767 24.1934 41.4029 24.8273 41.6844C25.097 41.8042 25.3647 41.9473 25.6323 42.1094L24.0071 44.7929C23.831 44.6863 23.6814 44.6082 23.5538 44.5516C23.5583 44.5536 23.5431 44.5459 23.4956 44.5397C23.4464 44.5333 23.3743 44.5301 23.2722 44.5361L14.3301 45.0539L9.98201 55.756L24.195 66.9914C25.1808 67.7706 26.2962 68.3699 27.4901 68.7617L28.2841 69.0223L24.4455 65.243C23.8281 64.6352 23.8204 63.642 24.4282 63.0247C25.036 62.4074 26.0291 62.3996 26.6465 63.0074L31.9214 68.2008C32.5976 68.3781 33.3064 68.2428 33.8633 67.8569L28.7491 62.8218C28.1318 62.214 28.124 61.2209 28.7318 60.6035C29.3396 59.9862 30.3328 59.9784 30.9501 60.5862L36.6402 66.1883H36.7407C37.4959 66.1883 38.2177 65.9164 38.7806 65.4347L32.4379 59.1901C31.8206 58.5823 31.8128 57.5891 32.4206 56.9718C33.0284 56.3544 34.0216 56.3467 34.6389 56.9545L41.4261 63.6366L42.0454 63.5147C42.4182 63.4413 42.7103 63.1509 42.786 62.7786C42.8513 62.4567 42.743 62.1221 42.5005 61.899C40.3944 59.9618 38.4798 58.2095 36.7537 56.6297C33.3457 53.5106 30.6721 51.0635 28.7082 49.1927L30.8721 46.9212C32.8132 48.7703 35.4488 51.1825 38.8366 54.2831C40.567 55.8669 42.4937 57.6302 44.6243 59.5899C45.6748 60.5561 46.1448 62.0033 45.8604 63.4031C45.5327 65.0166 44.2669 66.2747 42.6515 66.5928L41.8032 66.7599L41.732 66.8533C40.5637 68.3869 38.7566 69.2969 36.8323 69.3249C35.5688 70.9271 33.5206 71.6891 31.534 71.3264L31.3936 71.4646C30.816 72.0333 30.0379 72.3521 29.2273 72.3521C28.6588 72.3521 28.094 72.2617 27.5539 72.0845L26.5118 71.7425C24.9675 71.2357 23.5246 70.4605 22.2495 69.4525L8.54762 58.6212C7.66948 59.6348 6.38014 60.2462 4.99018 60.2462H2.03922C0.912989 60.2462 0 59.3332 0 58.207V36.3555ZM11.7966 42.9548C12.1379 42.1148 11.7189 41.1587 10.87 40.8403L3.13726 37.9401V57.1089H4.99018C5.62851 57.1089 6.20318 56.7221 6.44345 56.1307L11.7966 42.9548Z" fill="#3558A2"/>
<path fill-rule="evenodd" clip-rule="evenodd" d="M54.1031 40.3772L46.6848 43.2174C46.2087 43.3997 45.8508 43.8021 45.7253 44.2962L45.6277 44.6806L50.3501 58.0473C50.8503 58.9592 51.8091 59.5294 52.854 59.5294H54.1031V40.3772ZM47.0202 58.0401L42.8205 46.1528L41.3394 45.9097C40.3709 45.7508 39.422 45.4893 38.5087 45.1297L37.5448 44.7501C36.874 44.4859 36.2251 44.1689 35.6043 43.8022L34.8841 43.3768C32.4281 41.926 29.4245 41.7439 26.8112 42.8874C26.5328 43.0092 26.2742 43.172 26.044 43.3703L24.0129 45.12C22.6496 46.2945 21.5853 47.7765 20.908 49.4436L20.9056 49.4515L20.7839 50.0508C20.7017 50.4553 20.9644 50.8493 21.3693 50.9291L21.4786 50.9506C21.6618 50.9867 21.8513 50.975 22.0287 50.9168L22.6777 50.7038C22.7998 50.6637 22.9111 50.5959 23.0027 50.5057L24.1181 49.4076C24.936 48.6023 25.9559 48.0325 27.0704 47.7582C27.645 47.6168 28.1859 47.363 28.6619 47.0115L30.1477 45.9144L32.0113 48.4382L30.5255 49.5353C29.7163 50.1328 28.7969 50.5641 27.8202 50.8045C27.2536 50.944 26.735 51.2337 26.3191 51.6432L25.2037 52.7413C24.7674 53.1709 24.2377 53.4937 23.6559 53.6847L23.007 53.8976C22.3185 54.1236 21.5834 54.1687 20.8724 54.0287L20.7632 54.0072C18.6511 53.5913 17.2808 51.5359 17.7094 49.4262L17.8311 48.827C17.8703 48.634 17.9274 48.4451 18.0015 48.2627C18.8662 46.1344 20.2249 44.2424 21.9653 42.7431L23.9964 40.9934C24.4637 40.5908 24.9885 40.2605 25.5536 40.0132C29.0905 38.4656 33.1557 38.712 36.4797 40.6756L37.1999 41.101C37.678 41.3835 38.1777 41.6275 38.6944 41.831L39.6583 42.2106C40.3645 42.4887 41.0984 42.691 41.8474 42.8139L42.8585 42.9798C43.336 41.749 44.3138 40.7658 45.5631 40.2875L54.8978 36.7135C56.0277 36.2809 57.2403 37.1151 57.2403 38.3249V60.9412C57.2403 61.8941 56.4678 62.6667 55.5148 62.6667H52.854C51.1907 62.6667 49.6313 61.9781 48.5171 60.8103L46.0807 62.4094L44.3593 59.7867L47.0202 58.0401Z" fill="#3558A2"/>
</svg>
