<svg width="52" height="52" viewBox="0 0 52 52" fill="none" xmlns="http://www.w3.org/2000/svg">
  <path
    d="M12 2H42C43.6569 2 45 3.34315 45 5V45C45 46.6569 43.6569 48 42 48H34V46H42C42.5523 46 43 45.5523 43 45V5C43 4.44772 42.5523 4 42 4H12C11.4477 4 11 4.44771 11 5V16H9V5C9 3.34314 10.3431 2 12 2Z"
    fill="#3558A2"/>
  <path fill-rule="evenodd" clip-rule="evenodd"
        d="M13 18V8C13 7.44772 13.4477 7 14 7H40C40.5523 7 41 7.44772 41 8V22C41 22.5523 40.5523 23 40 23H32V47C32 48.6569 30.6569 50 29 50H10C8.34315 50 7 48.6569 7 47V34C7 34 7 33 8 33C9 33 9 34 9 34V47C9 47.5523 9.44772 48 10 48H29C29.5523 48 30 47.5523 30 47V21C30 20.4477 29.5523 20 29 20H10C9.44772 20 9 20.4477 9 21V25C9 25 9 26 8 26C7 26 7 25 7 25V21C7 19.3431 8.34315 18 10 18H13ZM28 18H29C30.6569 18 32 19.3431 32 21V22H34V12H28V18ZM27 18V12H21V18H27ZM20 18V12H14V18H20ZM35 22H40V12H35V22ZM35 11H40V8H35V11ZM34 8H28V11H34V8ZM27 11V8H21V11H27ZM20 11V8H14L14 11H20Z"
        fill="#3558A2"/>
  <path
    d="M8 30C8.55228 30 9 29.5523 9 29C9 28.4477 8.55228 28 8 28C7.44772 28 7 28.4477 7 29C7 29.5523 7.44772 30 8 30Z"
    fill="#3558A2"/>
  <path fill-rule="evenodd" clip-rule="evenodd"
        d="M10.5 24C10.5 23.4477 10.9477 23 11.5 23L27.5 23C28.0523 23 28.5 23.4477 28.5 24V30C28.5 30.5523 28.0523 31 27.5 31H11.5C10.9477 31 10.5 30.5523 10.5 30V24ZM12.5 29V25H26.5V29H12.5Z"
        fill="#E1000F"/>
  <path
    d="M11.5 35C10.9477 35 10.5 35.4477 10.5 36C10.5 36.5523 10.9477 37 11.5 37H14.5C15.0523 37 15.5 36.5523 15.5 36C15.5 35.4477 15.0523 35 14.5 35H11.5Z"
    fill="#E1000F"/>
  <path
    d="M18 35C17.4477 35 17 35.4477 17 36C17 36.5523 17.4477 37 18 37H21C21.5523 37 22 36.5523 22 36C22 35.4477 21.5523 35 21 35H18Z"
    fill="#E1000F"/>
  <path
    d="M23.5 36C23.5 35.4477 23.9477 35 24.5 35H27.5C28.0523 35 28.5 35.4477 28.5 36C28.5 36.5523 28.0523 37 27.5 37H24.5C23.9477 37 23.5 36.5523 23.5 36Z"
    fill="#E1000F"/>
  <path
    d="M11.5 39C10.9477 39 10.5 39.4477 10.5 40C10.5 40.5523 10.9477 41 11.5 41H14.5C15.0523 41 15.5 40.5523 15.5 40C15.5 39.4477 15.0523 39 14.5 39H11.5Z"
    fill="#E1000F"/>
  <path
    d="M17 40C17 39.4477 17.4477 39 18 39H21C21.5523 39 22 39.4477 22 40C22 40.5523 21.5523 41 21 41H18C17.4477 41 17 40.5523 17 40Z"
    fill="#E1000F"/>
  <path
    d="M24.5 39C23.9477 39 23.5 39.4477 23.5 40C23.5 40.5523 23.9477 41 24.5 41H27.5C28.0523 41 28.5 40.5523 28.5 40C28.5 39.4477 28.0523 39 27.5 39H24.5Z"
    fill="#E1000F"/>
  <path
    d="M10.5 44C10.5 43.4477 10.9477 43 11.5 43H14.5C15.0523 43 15.5 43.4477 15.5 44C15.5 44.5523 15.0523 45 14.5 45H11.5C10.9477 45 10.5 44.5523 10.5 44Z"
    fill="#E1000F"/>
  <path
    d="M18 43C17.4477 43 17 43.4477 17 44C17 44.5523 17.4477 45 18 45H21C21.5523 45 22 44.5523 22 44C22 43.4477 21.5523 43 21 43H18Z"
    fill="#E1000F"/>
  <path
    d="M23.5 44C23.5 43.4477 23.9477 43 24.5 43H27.5C28.0523 43 28.5 43.4477 28.5 44C28.5 44.5523 28.0523 45 27.5 45H24.5C23.9477 45 23.5 44.5523 23.5 44Z"
    fill="#E1000F"/>
</svg>
