<svg width="52" height="52" viewBox="0 0 52 52" fill="none" xmlns="http://www.w3.org/2000/svg">
  <path fill-rule="evenodd" clip-rule="evenodd"
    d="M15 0L4 11.0001L4.00006 13C4 14 4.3976 14 5.07646 14H14.7692C16.5535 14 18 12.6569 18 11.0001V2.00039L37 2C37.5523 2 38 2.44772 38 3V30H40V3C40 1.34315 38.6569 0 37 0H15ZM14.7692 12.0001H6L16 2.00039V11.0001C16 11.5524 15.364 12.0001 14.7692 12.0001Z"
    fill="#3558A2" />
  <path
    d="M25 48V46H7C6.44772 46 6 45.5523 6 45V22C6 22 6 21 5 21C4 21 4 22 4 22V45C4 46.6569 5.34315 48 7 48H25Z"
    fill="#3558A2" />
  <path
    d="M5 18C5.55228 18 6 17.5523 6 17C6 16.4477 5.55228 16 5 16C4.44772 16 4 16.4477 4 17C4 17.5523 4.44772 18 5 18Z"
    fill="#3558A2" />
  <path
    d="M12 19C12 18.4477 12.4713 18 13.0526 18H30.9474C31.5287 18 32 18.4477 32 19C32 19.5523 31.5287 20 30.9474 20H13.0526C12.4713 20 12 19.5523 12 19Z"
    fill="#E1000F" />
  <path
    d="M13.0526 24C12.4713 24 12 24.4477 12 25C12 25.5523 12.4713 26 13.0526 26H30.9474C31.5287 26 32 25.5523 32 25C32 24.4477 31.5287 24 30.9474 24H13.0526Z"
    fill="#E1000F" />
  <path
    d="M12 31C12 30.4477 12.3063 30 12.6842 30H24.3158C24.6937 30 25 30.4477 25 31C25 31.5523 24.6937 32 24.3158 32H12.6842C12.3063 32 12 31.5523 12 31Z"
    fill="#E1000F" />
  <path
    d="M46.3641 50.2191C46.711 50.5542 46.7094 51.1107 46.3605 51.4438C46.0338 51.7556 45.5203 51.7571 45.1918 51.4472L39.4453 46.0261C37.9213 47.2082 35.9779 47.9167 33.8611 47.9167C28.9673 47.9167 25 44.1297 25 39.4583C25 34.7869 28.9673 31 33.8611 31C38.755 31 42.7222 34.7869 42.7222 39.4583C42.7222 41.4789 41.98 43.3339 40.7416 44.7887L46.3641 50.2191ZM33.8611 46.1667C37.7424 46.1667 40.8889 43.1632 40.8889 39.4583C40.8889 35.7534 37.7424 32.75 33.8611 32.75C29.9798 32.75 26.8333 35.7534 26.8333 39.4583C26.8333 43.1632 29.9798 46.1667 33.8611 46.1667Z"
    fill="#E1000F" />
</svg>
  