<svg width="80" height="80" viewBox="0 0 80 80" fill="none" xmlns="http://www.w3.org/2000/svg">
<g clip-path="url(#clip0_3370_18011)">
<path d="M38.4612 7.81201C38.4612 6.94904 39.1609 6.24951 40.0238 6.24951C40.8866 6.24951 41.5863 6.94904 41.5863 7.81201V11.3133C41.5863 12.1762 40.8867 12.8758 40.0238 12.8758C39.1609 12.8758 38.4612 12.1762 38.4612 11.3133V7.81201Z" fill="#E1000F"/>
<path d="M33.5863 6.85857C34.4337 6.69467 35.2528 7.25029 35.4159 8.09764C35.5789 8.94498 35.0242 9.7642 34.1767 9.92717C28.2968 11.0543 22.8777 13.8846 18.593 18.0663C14.3084 22.2479 11.3471 27.5965 10.0772 33.4473C9.91797 34.1784 9.27094 34.6775 8.55203 34.6775C8.44188 34.6775 8.32984 34.6658 8.21781 34.6414C7.37469 34.4576 6.84016 33.6253 7.02375 32.7822C8.42703 26.3417 11.6748 20.4892 16.4158 15.8572C21.1641 11.2181 27.1016 8.10639 33.5863 6.85857Z" fill="#E1000F"/>
<path d="M47.2547 7.03154L47.2138 7.02264C46.3706 6.84076 45.5389 7.37732 45.3573 8.22107C45.1756 9.06467 45.7122 9.89576 46.5558 10.0775L46.5741 10.0815C46.6863 10.1067 46.8009 10.1193 46.9159 10.1194C47.6316 10.1194 48.2772 9.62436 48.4394 8.89686C48.6273 8.05451 48.0969 7.21951 47.2547 7.03154Z" fill="#E1000F"/>
<path d="M73.1409 33.5861C71.0347 22.6415 63.6553 13.4562 53.4005 9.01529C52.6087 8.67232 51.6887 9.03639 51.3458 9.82811C51.003 10.62 51.3669 11.54 52.1588 11.8828C61.4648 15.9129 68.1614 24.247 70.0722 34.1765C70.2161 34.9242 70.8708 35.444 71.605 35.444C71.7028 35.444 71.8022 35.4348 71.9017 35.4156C72.7491 35.2526 73.3039 34.4334 73.1409 33.5861Z" fill="#E1000F"/>
<path d="M9.9275 45.8226C11.8677 55.9047 18.6962 64.295 28.1942 68.2667C28.9903 68.5995 29.3658 69.5148 29.0328 70.3109C28.7823 70.9101 28.2019 71.2711 27.5908 71.2711C27.384 71.271 27.1793 71.2297 26.9886 71.1497C21.9136 69.0273 17.3806 65.647 13.8798 61.3739C10.3381 57.0509 7.91047 51.8775 6.85875 46.4131C6.69578 45.5658 7.25047 44.7465 8.09797 44.5836C8.94641 44.4197 9.76453 44.9753 9.9275 45.8226Z" fill="#E1000F"/>
<path d="M33.4477 69.9225L33.3511 69.9012C32.5094 69.7142 31.6741 70.2451 31.4869 71.0875C31.2997 71.9298 31.8308 72.7645 32.6733 72.9517L32.7827 72.9758C32.8924 72.9997 33.0044 73.0118 33.1167 73.0119C33.8356 73.0119 34.4827 72.5126 34.6419 71.7817C34.8255 70.9384 34.2908 70.1061 33.4477 69.9225Z" fill="#E1000F"/>
<path fill-rule="evenodd" clip-rule="evenodd" d="M41.5631 21.6146V34.9216C43.732 35.5906 45.3125 37.6139 45.3125 39.9995C45.3125 42.9289 42.9294 45.312 40 45.312C37.6144 45.312 35.5911 43.7315 34.9221 41.5626H29.1151C28.2523 41.5626 27.5526 40.8631 27.5526 40.0001C27.5526 39.1371 28.2523 38.4376 29.1151 38.4376H34.9217C35.4381 36.7621 36.7626 35.4376 38.4381 34.9213V21.6146C38.4381 20.7516 39.1378 20.0521 40.0006 20.0521C40.8634 20.0521 41.5631 20.7516 41.5631 21.6146ZM40.0006 37.8126L39.9678 37.8122C38.7871 37.8293 37.8298 38.7866 37.8127 39.9673L37.8131 40.0001L37.8127 40.0324C37.8304 41.2235 38.8047 42.187 40 42.187C41.2063 42.187 42.1875 41.2058 42.1875 39.9995C42.1875 38.8042 41.224 37.8299 40.0328 37.8123L40.0006 37.8126Z" fill="#E1000F"/>
<path d="M39.9763 66.0095C39.1134 66.0095 38.4138 66.709 38.4138 67.572V72.187C38.4138 73.05 39.1134 73.7495 39.9763 73.7495C40.8391 73.7495 41.5387 73.05 41.5387 72.187V67.572C41.5387 66.709 40.8391 66.0095 39.9763 66.0095Z" fill="#E1000F"/>
<path d="M67.9688 38.4608H72.1875C73.0503 38.4608 73.75 39.1603 73.75 40.0233C73.75 40.8862 73.0503 41.5858 72.1875 41.5858H67.9688C67.1059 41.5858 66.4063 40.8862 66.4063 40.0233C66.4063 39.1603 67.1059 38.4608 67.9688 38.4608Z" fill="#E1000F"/>
<path d="M12.3438 38.4133H7.8125C6.94969 38.4133 6.25 39.1128 6.25 39.9758C6.25 40.8387 6.94969 41.5383 7.8125 41.5383H12.3438C13.2066 41.5383 13.9063 40.8387 13.9063 39.9758C13.9063 39.1128 13.2066 38.4133 12.3438 38.4133Z" fill="#E1000F"/>
<path d="M69.3771 52.308C69.6462 52.3196 69.9025 52.4239 70.1008 52.6025L79.7284 62.0376C79.903 62.223 80 62.466 80 62.7183C80 62.9706 79.903 63.2136 79.7284 63.399L70.0717 72.85C69.9822 72.9407 69.8747 73.0125 69.7558 73.061C69.6369 73.1094 69.5091 73.1335 69.3803 73.1317C69.1233 73.1317 68.8768 73.0317 68.695 72.8535C68.5132 72.6754 68.4111 72.4338 68.4111 72.1819V66.5177H47.6923V58.9189H68.4079V53.2579C68.4024 53.1317 68.4237 53.0058 68.4705 52.8881C68.5173 52.7704 68.5885 52.6636 68.6796 52.5743C68.7707 52.485 68.8797 52.4152 68.9998 52.3694C69.1199 52.3235 69.2484 52.3027 69.3771 52.308Z" fill="#E1000F"/>
<path d="M40 -0.000488281C50.6844 -0.000488281 60.7292 4.16014 68.2844 11.7153C75.8392 19.2703 80 29.3151 80 39.9995C80 45.5992 79.8677 48.8637 77.6923 53.8457L75.5191 50.8423C77.0484 46.7968 76.875 44.5739 76.875 39.9995C76.875 19.6665 60.333 3.12451 40 3.12451C19.667 3.12451 3.125 19.6665 3.125 39.9995C3.125 60.3325 19.667 76.8745 40 76.8745C43.7032 76.8745 45.0869 77.1737 48.4615 76.1534L49.9129 78.992C46.048 80.2138 44.1696 79.9995 40 79.9995C29.3156 79.9995 19.2708 75.8389 11.7156 68.2837C4.16078 60.7287 0 50.6839 0 39.9995C0 29.3151 4.16078 19.2703 11.7156 11.7153C19.2708 4.16014 29.3156 -0.000488281 40 -0.000488281Z" fill="#3558A2"/>
</g>
<defs>
<clipPath id="clip0_3370_18011">
<rect width="80" height="80" fill="white" transform="translate(0 -0.000488281)"/>
</clipPath>
</defs>
</svg>
