<svg xmlns="http://www.w3.org/2000/svg" viewBox="0 0 511.999 511.999" fill="#4c5467"><path d="M470.238 31.479H41.762C18.735 31.479 0 50.214 0 73.242v250.53c0 23.029 18.735 41.764 41.763 41.764h24.415v103.079a11.908 11.908 0 0 0 20.325 8.419L198 365.535h272.236c23.028 0 41.762-18.735 41.762-41.764V73.242c.002-23.028-18.733-41.763-41.76-41.763zm0 310.243H193.062c-3.08 0-5.878 1.18-7.991 3.099l-.06.055c-.145.133-.293.263-.431.404l-94.59 94.589v-86.241c0-.414-.021-.781-.063-1.105-.558-6.057-5.647-10.801-11.85-10.801H41.762c-9.898 0-17.95-8.053-17.95-17.951V73.242c0-9.898 8.052-17.95 17.95-17.95h428.475c9.899 0 17.95 8.052 17.95 17.95v250.53c0 9.897-8.052 17.95-17.949 17.95z"/><path d="M173.987 118.437h-69.399c-6.576 0-11.906 5.332-11.906 11.906 0 6.575 5.33 11.906 11.906 11.906h69.399c6.576 0 11.906-5.332 11.906-11.906 0-6.575-5.331-11.906-11.906-11.906zM297.738 186.6H104.587c-6.576 0-11.906 5.332-11.906 11.906 0 6.575 5.33 11.906 11.906 11.906h193.151c6.575 0 11.906-5.33 11.906-11.906 0-6.574-5.331-11.906-11.906-11.906zM407.414 118.437H243.507c-6.576 0-11.906 5.332-11.906 11.906 0 6.575 5.33 11.906 11.906 11.906h163.907c6.575 0 11.906-5.332 11.906-11.906 0-6.576-5.331-11.906-11.906-11.906zM407.414 186.6h-43.102c-6.575 0-11.906 5.332-11.906 11.906 0 6.576 5.332 11.906 11.906 11.906h43.102c6.575 0 11.906-5.33 11.906-11.906 0-6.576-5.331-11.906-11.906-11.906zM212.407 254.765h-107.82c-6.576 0-11.906 5.33-11.906 11.906 0 6.575 5.33 11.906 11.906 11.906h107.82c6.576 0 11.906-5.332 11.906-11.906 0-6.576-5.33-11.906-11.906-11.906zM407.414 254.765H275.675c-6.575 0-11.906 5.33-11.906 11.906 0 6.575 5.332 11.906 11.906 11.906h131.739c6.575 0 11.906-5.332 11.906-11.906 0-6.576-5.331-11.906-11.906-11.906z"/></svg>