<svg xmlns="http://www.w3.org/2000/svg" viewBox="0 0 512.001 512.001" fill="#4c5467"><circle cx="110.202" cy="394.611" r="17.302"/><path d="M501.619 301.273c0-8.503-2.634-16.4-7.121-22.929 10.566-7.335 17.503-19.547 17.503-33.354 0-22.378-18.206-40.585-40.583-40.585H364.723l6.758-15.152c9.88-22.156 14.916-45.692 14.968-69.951l.061-29.773c0-22.999-18.711-41.711-41.711-41.711-17.096 0-32.282 10.241-38.688 26.092-.282.699-9.989 29.296-9.989 29.296a147.792 147.792 0 0 1-44.908 65.245l-49.492 41.403H173.11v-13.061c0-13.721-11.163-24.885-24.885-24.885H24.885C11.163 171.908 0 183.071 0 196.793v242.506c0 13.721 11.163 24.885 24.885 24.885h123.338c13.721 0 24.885-11.163 24.885-24.885v-19.48h15.621l15.509 7.497c36.688 17.734 77.618 27.108 118.367 27.108h117.666c22.378 0 40.585-18.206 40.585-40.583 0-8.503-2.634-16.4-7.121-22.929 10.566-7.335 17.503-19.547 17.503-33.354 0-8.503-2.634-16.4-7.121-22.929 10.566-7.335 17.502-19.548 17.502-33.356zM148.223 439.299H24.885V196.792h123.338l.016 242.506-.016.001zm323.195-178.608h-17.706c-6.872 0-12.442 5.57-12.442 12.442s5.57 12.442 12.442 12.442h7.324c8.657 0 15.7 7.042 15.7 15.7s-7.042 15.7-15.7 15.7h-17.704c-6.872 0-12.442 5.57-12.442 12.442s5.57 12.442 12.442 12.442h7.324c8.656 0 15.7 7.042 15.7 15.7 0 8.656-7.042 15.699-15.7 15.699h-17.704c-6.872 0-12.442 5.57-12.442 12.442s5.57 12.442 12.442 12.442h7.324c8.657 0 15.7 7.044 15.7 15.7-.002 8.654-7.045 15.696-15.702 15.696H322.608c-37.021 0-74.206-8.516-107.537-24.627l-18.075-8.737a12.446 12.446 0 0 0-5.415-1.241H173.11V234.737h33.13c2.919 0 5.745-1.026 7.983-2.899l52.957-44.302a172.657 172.657 0 0 0 52.471-76.232s9.9-28.823 9.958-29.019a16.762 16.762 0 0 1 15.191-9.582c9.278 0 16.826 7.548 16.826 16.826l-.061 29.721c-.044 20.764-4.354 40.906-12.811 59.869l-14.493 32.502a12.38 12.38 0 0 0-.53 8.685c.071.245 2.758 8.986 11.946 8.986H471.42c8.656 0 15.699 7.042 15.699 15.7-.003 8.656-7.045 15.699-15.701 15.699z"/></svg>