<svg xmlns="http://www.w3.org/2000/svg" viewBox="0 0 512 512" fill="#4c5467"><path d="M446.812 493.966l-67.499-142.781a12.633 12.633 0 0 0-6.48-6.223l-33.58-14.949 58.185-97.518c.139-.234.27-.471.395-.713 11.568-22.579 17.434-46.978 17.434-72.515 0-42.959-16.846-83.233-47.435-113.402C337.248 15.703 296.73-.588 253.745.016c-41.748.579-81.056 17.348-110.685 47.22-29.626 29.87-46.078 69.313-46.326 111.066-.152 25.515 5.877 50.923 17.431 73.479.124.241.255.479.394.713l58.184 97.517-33.774 15.031a12.626 12.626 0 0 0-6.285 6.142L65.187 493.966a12.635 12.635 0 0 0 16.56 16.941l84.558-37.646 84.558 37.646a12.644 12.644 0 0 0 10.277 0l84.558-37.646 84.558 37.646a12.63 12.63 0 0 0 16.556-16.941zm-310.339-274.06c-9.73-19.132-14.599-39.805-14.47-61.453.428-72.429 59.686-132.17 132.094-133.173 36.166-.486 70.263 13.199 95.993 38.576 25.738 25.383 39.911 59.267 39.911 95.412 0 21.359-4.869 41.757-14.473 60.638L266.85 402.054c-3.318 5.56-8.692 6.16-10.849 6.16-2.158 0-7.532-.6-10.849-6.16L136.473 219.906zm214.361 227.985a12.644 12.644 0 0 0-10.277 0l-84.558 37.646-84.558-37.646a12.644 12.644 0 0 0-10.277 0l-58.578 26.08 50.938-107.749 32.258-14.356 37.668 63.133c6.904 11.572 19.072 18.481 32.547 18.481 13.475 0 25.643-6.909 32.547-18.48l37.668-63.133 32.261 14.361 50.935 107.744-58.574-26.081z"/><path d="M256.004 101.607c-31.794 0-57.659 25.865-57.659 57.658s25.865 57.658 57.659 57.658c31.793.001 57.658-25.865 57.658-57.658s-25.865-57.658-57.658-57.658zm0 90.05c-17.861.001-32.393-14.529-32.393-32.392 0-17.861 14.531-32.392 32.393-32.392 17.861 0 32.392 14.531 32.392 32.392s-14.531 32.392-32.392 32.392z"/></svg>