<svg xmlns="http://www.w3.org/2000/svg" viewBox="0 0 512 512" fill="#4c5467"><path d="M256 0C114.841 0 0 114.841 0 256s114.841 256 256 256 256-114.841 256-256S397.159 0 256 0zm0 485.345C129.539 485.345 26.655 382.461 26.655 256S129.539 26.655 256 26.655 485.345 129.539 485.345 256 382.461 485.345 256 485.345z"/><path d="M338.722 115.086c-6.343-3.732-14.513-1.611-18.244 4.733s-1.613 14.513 4.733 18.244c41.646 24.492 67.517 69.683 67.517 117.937 0 75.394-61.335 136.729-136.729 136.729-75.393 0-136.729-61.337-136.729-136.729 0-48.254 25.87-93.445 67.517-117.937 6.345-3.73 8.464-11.899 4.733-18.244-3.73-6.345-11.898-8.462-18.244-4.733-49.753 29.261-80.66 83.256-80.66 140.914 0 90.091 73.293 163.384 163.384 163.384S419.384 346.091 419.382 256c0-57.657-30.907-111.653-80.66-140.914z"/><path d="M256 74.832c-7.361 0-13.328 5.968-13.328 13.328V256c0 7.361 5.967 13.328 13.328 13.328s13.328-5.967 13.328-13.328V88.16c0-7.359-5.967-13.328-13.328-13.328z"/></svg>