<svg xmlns="http://www.w3.org/2000/svg" viewBox="0 0 512 512" fill="#4c5467"><path d="M489.061 35.88H267.469V22.971c0-6.334-5.135-11.469-11.469-11.469s-11.469 5.135-11.469 11.469V35.88H22.939C10.29 35.88 0 46.17 0 58.819v21.284c0 12.648 10.29 22.939 22.939 22.939h3.117v257.795c0 12.648 10.29 22.939 22.939 22.939h195.536v33.662l-84.993 62.343c-5.107 3.747-6.212 10.925-2.465 16.032 3.748 5.108 10.925 6.211 16.032 2.465l71.426-52.392v43.144c0 6.334 5.135 11.469 11.469 11.469 6.335 0 11.469-5.135 11.469-11.469v-43.144l71.426 52.392a11.421 11.421 0 0 0 6.775 2.222c3.529 0 7.01-1.623 9.257-4.686 3.747-5.107 2.643-12.285-2.465-16.032l-84.993-62.343v-33.662h195.536c12.648 0 22.939-10.29 22.939-22.939V103.041h3.117c12.648 0 22.939-10.29 22.939-22.939V58.819c0-12.649-10.29-22.939-22.939-22.939zm-26.056 324.955H48.995V103.041h414.011v257.794zm26.056-280.733H22.939V58.819h466.123v21.283z"/><path d="M255.782 136.254c-5.701 0-10.322 4.621-10.322 10.322v79.157h-79.157c-5.701 0-10.322 4.621-10.322 10.322 0 55.031 44.771 99.801 99.802 99.801s99.803-44.771 99.803-99.801-44.773-99.801-99.804-99.801zm0 178.958c-40.15 0-73.413-30.046-78.487-68.834h78.487c5.701 0 10.322-4.621 10.322-10.322v-78.487c38.788 5.074 68.835 38.337 68.835 78.487.001 43.647-35.509 79.156-79.157 79.156z"/><path d="M220.845 125.575c-41.652 0-75.539 33.891-75.539 75.548 0 5.701 4.621 10.322 10.322 10.322h65.217c5.701 0 10.322-4.621 10.322-10.322v-65.226c.001-5.701-4.62-10.322-10.322-10.322zm-10.322 65.226h-43.599c4.203-22.013 21.59-39.403 43.599-43.607v43.607z"/></svg>