<svg xmlns="http://www.w3.org/2000/svg" viewBox="0 0 512 512" fill="#4c5467"><path d="M498.723 89.435H183.171V76.958c0-18.3-14.888-33.188-33.188-33.188h-51.5c-18.3 0-33.188 14.888-33.188 33.188v12.477h-52.02C5.943 89.435 0 95.38 0 102.711c0 7.331 5.943 13.275 13.275 13.275h52.018v12.473c0 18.3 14.888 33.188 33.188 33.188h51.501c18.3 0 33.188-14.888 33.188-33.188v-12.473h315.553c7.332 0 13.275-5.945 13.275-13.275.001-7.331-5.943-13.276-13.275-13.276zm-342.102 39.024a6.646 6.646 0 0 1-6.638 6.638H98.482a6.646 6.646 0 0 1-6.638-6.638V76.958a6.646 6.646 0 0 1 6.638-6.638h51.501a6.646 6.646 0 0 1 6.638 6.638v51.501zM498.725 237.295h-52.019v-12.481c0-18.3-14.888-33.188-33.188-33.188h-51.501c-18.3 0-33.188 14.888-33.188 33.188v12.481H13.275C5.943 237.295 0 243.239 0 250.57s5.943 13.275 13.275 13.275h315.553v12.469c0 18.3 14.888 33.188 33.188 33.188h51.501c18.3 0 33.188-14.888 33.188-33.188v-12.469h52.019c7.332 0 13.275-5.945 13.275-13.275.001-7.331-5.942-13.275-13.274-13.275zm-78.57 39.02a6.646 6.646 0 0 1-6.638 6.638h-51.501a6.646 6.646 0 0 1-6.638-6.638v-51.501a6.646 6.646 0 0 1 6.638-6.638h51.501a6.646 6.646 0 0 1 6.638 6.638v51.501zM498.725 396.014H276.432v-12.473c0-18.3-14.888-33.188-33.188-33.188h-51.501c-18.3 0-33.188 14.888-33.188 33.188v12.473H13.275C5.943 396.014 0 401.959 0 409.289c0 7.331 5.943 13.275 13.275 13.275h145.279v12.477c0 18.3 14.888 33.188 33.188 33.188h51.501c18.3 0 33.188-14.888 33.188-33.188v-12.477h222.293c7.332 0 13.275-5.945 13.275-13.275.001-7.332-5.942-13.275-13.274-13.275zm-248.844 39.028a6.646 6.646 0 0 1-6.638 6.638h-51.501a6.646 6.646 0 0 1-6.638-6.638v-51.501a6.646 6.646 0 0 1 6.638-6.638h51.501a6.646 6.646 0 0 1 6.638 6.638v51.501z"/></svg>