<svg xmlns="http://www.w3.org/2000/svg" viewBox="0 0 512 512" fill="#4c5467"><path d="M512 89.745C512 40.259 471.74 0 422.255 0c-26.09 0-49.607 11.198-66.02 29.031-32.605-14.724-67.42-22.205-103.648-22.205C113.31 6.826 0 120.137 0 259.413S113.31 512 252.587 512s252.587-113.31 252.587-252.587c0-36.229-7.48-71.043-22.206-103.649C500.802 139.351 512 115.835 512 89.745zm-89.745-64.486c35.558 0 64.487 28.929 64.487 64.487 0 35.558-28.929 64.487-64.487 64.487s-64.487-28.929-64.487-64.487c.001-35.559 28.929-64.487 64.487-64.487zM252.587 486.741c-125.349 0-227.328-101.979-227.328-227.328S127.238 32.085 252.587 32.085c31.077 0 60.993 6.096 89.123 18.131a89.187 89.187 0 0 0-9.199 39.53c0 49.486 40.259 89.745 89.745 89.745a89.2 89.2 0 0 0 39.53-9.199c12.033 28.128 18.129 58.043 18.129 89.122 0 125.348-101.979 227.327-227.328 227.327z"/><path d="M455.773 77.116h-20.889V56.227c0-6.975-5.654-12.629-12.629-12.629s-12.629 5.654-12.629 12.629v20.889h-20.889c-6.975 0-12.629 5.654-12.629 12.629 0 6.974 5.654 12.629 12.629 12.629h20.889v20.889c0 6.975 5.654 12.629 12.629 12.629s12.629-5.654 12.629-12.629v-20.889h20.889c6.975 0 12.629-5.654 12.629-12.629s-5.654-12.629-12.629-12.629zM330.183 304.615c-.283-.021-31.141 1.063-39.987-31.293 5.768-4.406 11.113-9.845 15.875-16.293 10.223-13.84 16.891-31.092 19.419-49.747a11.396 11.396 0 0 0 1.79-2.929c4.38-10.429 6.601-21.563 6.601-33.091 0-44.388-33.609-80.501-74.92-80.501-10.606 0-20.899 2.387-30.631 7.099a55.63 55.63 0 0 0-10.49 1.955c-34.616 10.001-54.211 51.735-43.68 93.032 1.057 4.144 3.616 12.086 5.695 14.962 3.937 28.114 17.099 51.604 35.148 65.399-8.995 32.893-39.723 31.388-40.003 31.408-29.837.959-53.819 25.513-53.819 55.579v36.326c0 13.642 11.099 24.741 24.741 24.741h213.324c13.642 0 24.741-11.099 24.741-24.741v-36.326c-.003-30.063-23.975-54.613-53.804-55.58zm-106.034-182.96a33.485 33.485 0 0 1 7.757-1.257 11.391 11.391 0 0 0 4.773-1.292c7.088-3.723 14.584-5.611 22.281-5.611 27.253 0 49.68 23.248 51.979 52.768a36.588 36.588 0 0 0-19.548-5.639h-51.436c-2.23 0-4.346-.698-6.116-2.021a10.251 10.251 0 0 1-3.387-4.392 13.007 13.007 0 0 0-12.931-8.162 13.078 13.078 0 0 0-11.848 9.775c-2.16 8.3-5.974 16.095-11.105 22.93-3.405-26.487 8.834-51.105 29.581-57.099zm-21.87 82.37c8.012-7.483 14.61-16.383 19.381-26.201 5.422 3.626 11.71 5.533 18.295 5.533h51.436c5.442 0 10.163 3.106 12.509 7.633-.191 29.817-12.848 55.435-30.856 66.673-.572.274-8.786 6.087-20.415 6.087-24.356-.001-45.768-25.836-50.35-59.725zm83.907 106.063a57.065 57.065 0 0 1-33.556 10.923 57.08 57.08 0 0 1-33.603-10.956c7.509-7.105 13.279-16.046 16.571-26.121a58.37 58.37 0 0 0 17.031 2.547c5.797 0 11.47-.871 16.954-2.511 3.302 10.077 9.084 19.016 16.603 26.118zm75.065 86.43a2.01 2.01 0 0 1-2.008 2.008H145.919a2.01 2.01 0 0 1-2.008-2.008v-36.326c0-18.137 14.755-32.892 32.892-32.892.306 0 11.036-.179 22.071-4.389a79.825 79.825 0 0 0 53.757 20.833 79.84 79.84 0 0 0 53.733-20.812c11.255 4.583 21.69 4.369 21.997 4.369 18.136 0 32.891 14.755 32.891 32.892v36.325z"/></svg>