<svg xmlns="http://www.w3.org/2000/svg" width="486" height="331.02" fill="none"><g opacity=".8"><path fill="#5e7ebe" d="M250.29 58.33c-30.57 5.05-61.2 2.33-90.67-1.44-29.47-3.76-58.88-8.57-89.52-7.63-19.7.61-41.6 4.45-55.23 16.21C1.76 76.79-.12 92.27 0 106.27c.09 10.52 1.09 21.42 8.29 29.89 5 5.87 12.63 10.14 18.4 15.57 20.13 18.9 14.42 48.2 1.68 73-6 11.63-13.32 23.06-17.34 34.99-4.02 11.92-4.42 24.78 3.15 34.65 7.51 9.8 21.88 15.44 36.82 18.46 30.36 6.14 64.05 2.97 96.63-1.44 72.12-9.8 143.44-25.65 214.55-41.48 26.32-5.85 52.76-11.73 78.08-20.35 14.06-4.78 28.37-10.79 37.37-20.3 11.43-12.06 11.53-28.71.24-38.81-18.94-16.97-61.32-13.78-76.04-33.08-8.11-10.6-4.81-24.86 1.39-37.4 13.27-26.88 39.28-53.29 35.53-80.3-2.56-18.56-20.71-34.1-44.82-38.4-25.26-4.5-57.55 3.02-71.84 21.47-14.7 19.05-44.82 31.14-71.81 35.59" opacity=".1"/><path fill="#f2f5fa" d="M348.05 95.32H80.91c-2 0-3.62 1.66-3.62 3.71v149.74a3.66 3.66 0 0 0 3.62 3.7h267.14c2 0 3.62-1.65 3.62-3.7V99.03a3.66 3.66 0 0 0-3.62-3.7"/><path fill="#7598d6" d="M350.02 93.32H78.46a1.4 1.4 0 0 0-1.39 1.4v5.92H351.4v-5.9a1.4 1.4 0 0 0-.85-1.3 1.4 1.4 0 0 0-.53-.12"/><path fill="#fff" d="M82.56 98.87a1.9 1.9 0 0 0 1.74-1.17q.15-.35.14-.72a1.88 1.88 0 0 0-2.6-1.75 1.9 1.9 0 0 0-1.16 1.75 1.9 1.9 0 0 0 1.16 1.74q.34.15.72.15m5.07 0a1.9 1.9 0 0 0 1.88-1.9 1.9 1.9 0 0 0-1.88-1.88 1.9 1.9 0 0 0-1.88 1.89 1.9 1.9 0 0 0 1.88 1.89"/><path fill="#ee5d49" d="M92.7 98.87a1.9 1.9 0 0 0 1.88-1.9 1.9 1.9 0 0 0-1.89-1.88 1.9 1.9 0 0 0-1.88 1.89 1.9 1.9 0 0 0 1.88 1.89"/><path fill="#fff" d="M321.24 128.9H98.4a2.96 2.96 0 0 0-2.96 2.96V240.2a2.96 2.96 0 0 0 2.96 2.96h222.84a2.96 2.96 0 0 0 2.95-2.96V131.86a2.96 2.96 0 0 0-2.95-2.96"/><path fill="#7598d6" d="M150.42 108.4H86.86c-.61 0-1.11.5-1.11 1.12v4.7c0 .61.5 1.12 1.11 1.12h63.56a1.1 1.1 0 0 0 1.12-1.13v-4.69c0-.62-.5-1.12-1.12-1.12m124.08 33.76h-63.56c-.62 0-1.12.5-1.12 1.12v4.7a1.1 1.1 0 0 0 1.12 1.12h63.56a1.1 1.1 0 0 0 1.12-1.12v-4.7c0-.62-.5-1.12-1.12-1.12m36.94 19.43h-100.5c-.62 0-1.12.5-1.12 1.12v4.7a1.1 1.1 0 0 0 1.12 1.11h100.5a1.1 1.1 0 0 0 1.12-1.12v-4.7a1.1 1.1 0 0 0-1.12-1.11m0 11.34h-100.5a1.1 1.1 0 0 0-1.12 1.12v4.7c0 .62.5 1.12 1.12 1.12h100.5a1.1 1.1 0 0 0 1.12-1.13v-4.69a1.1 1.1 0 0 0-1.12-1.12m0 11.34h-100.5a1 1 0 0 0-.8.33 1 1 0 0 0-.32.8v4.69c0 .62.5 1.12 1.12 1.12h100.5a1.1 1.1 0 0 0 1.12-1.12v-4.7a1 1 0 0 0-.33-.79 1 1 0 0 0-.79-.33m0 11.35h-100.5c-.62 0-1.12.5-1.12 1.12v4.7a1.1 1.1 0 0 0 1.12 1.12h100.5a1 1 0 0 0 .8-.33 1 1 0 0 0 .32-.8v-4.69q0-.46-.33-.8a1 1 0 0 0-.79-.32m0 12.5H108.96c-.61 0-1.11.5-1.11 1.13v4.7a1.1 1.1 0 0 0 1.11 1.11h202.48a1.1 1.1 0 0 0 1.12-1.12v-4.69c0-.62-.5-1.12-1.12-1.12m0 11.35H108.96c-.61 0-1.11.5-1.11 1.12v4.7c0 .62.5 1.12 1.11 1.12h202.48c.62 0 1.12-.5 1.12-1.12v-4.7c0-.62-.5-1.12-1.12-1.12m0 11.34H108.96a1.1 1.1 0 0 0-1.11 1.13v4.69c0 .62.5 1.12 1.11 1.12h202.48c.62 0 1.12-.5 1.12-1.12v-4.7a1.1 1.1 0 0 0-1.12-1.12m-118.61-92.5h-82.52a2.47 2.47 0 0 0-2.46 2.48v59.5a2.47 2.47 0 0 0 2.46 2.46h82.52a2.5 2.5 0 0 0 2.28-1.52q.18-.45.18-.95v-59.5a2.47 2.47 0 0 0-2.46-2.47" opacity=".2"/><path fill="#9298af" d="M302.28 312.31c16.92 0 30.63-3.4 30.63-7.6s-13.71-7.6-30.63-7.6-30.63 3.4-30.63 7.6 13.71 7.6 30.63 7.6" opacity=".1"/><path fill="#4e6896" d="M305.39 195.18s3.78-.13 4.99 2.97c1.2 3.1.3 5.46-.05 6.59-.9 2.94-.97 4-.54 5.78.39 1.58.74 2.39 1.19 3.86s-.3 1.3-.37 1.41c-.06.12-14.8 1.47-14.8 1.47s.39-3.19 1.43-3.93c1.04-.73 2.06-.89 1.27-4.04s-1.29-4.61-.85-6.9c.52-2.65.84-4.3 3.34-6.04a6.7 6.7 0 0 1 4.39-1.17"/><path fill="#7d7d95" d="M309.75 299.17s-2.08 3.08-2.92 3.82c0 0-1.86.68-2.04 1.98-.19 1.3-.16 2.17 2.04 2.23s3.65-.33 4.06-1.67a6 6 0 0 1 1.28-2.22v2.78h.5s.12-2.7.16-3.19c.03-.5.35-2.4-.7-3.24s-2.38-.5-2.38-.5m-10.41-2.46q-.42.93-1.05 1.73c-.5.65-2.04 3.31-2.73 3.5s-2.8.56-2.98 1.73c-.18 1.18-.28 2.02 1.8 2.1 2.08.1 3.45.23 4.44-1.23 1-1.45 2.58-2.5 2.58-2.5v3.8h.81s.37-3.96.6-4.24c.2-.28.77-3.31-1.17-4.9-1.93-1.57-2.3 0-2.3 0"/><path fill="#fcb6ac" d="M311.15 239.7s2.34 3.47 3.05 7.51-.13 17.54-.1 19.54 1.9 6.97 1.52 10.73-3.49 22.18-3.49 22.18l-2.38-.5s.23-19.08 0-20.66-.7-7.33-.8-7.98c-.09-.64-5.9-17.72-5.9-20.64 0-2.9 1.76-14.93 8.1-10.17"/><path fill="#fcb6ac" d="M297.95 241.04s-4.31 16.42-4.82 18.7-1.26 4.15-1.26 5.12c0 2.24.84 5.84.84 5.84l6.63 26 2.75.44s-1.6-15.98-1.68-19.05-2.45-7.44-1.98-8.74 7.5-16.3 7.5-16.3 5.33-16.78-7.98-12.01m8.88 61.95s2.13 1.2 3.5-.33q1.15-1.36 1.8-3l-2.38-.5z"/><path fill="#fcb6ac" d="M295.57 301.94s1.86.47 2.57 0c.72-.46 3.14-4.56 3.95-4.8 0 0-.78-1.58-2.75-.43 0 0-3.25 4.55-3.77 5.23"/><path fill="#7598d6" d="M291.87 264.86s9.98 4.27 24.84 4.27c0 0-1.56-22.46-3.72-27.3-2.15-4.84-15.38.49-15.38.49s-5.74 18.48-5.74 22.54"/><path fill="#5e7ebe" d="M280.64 232.32s9.1.78 11.36-.22c1.13-.5 2.66-2.57 4.06-4.84l.7-1.17c1.73-2.93 3.12-5.81 3.12-5.81s4.18-5.24-.26-7.1a5.4 5.4 0 0 0-2.79 2.12 20 20 0 0 0-2.11 4.95c-.22.81-3.78 8-4 8.2s-2.47.06-4.2.22c-2.81.27-5.78.42-5.78.42z"/><path fill="#7598d6" d="M296.4 225.03c1.12 2.59.07 3.45.58 6.04.52 2.58.7 9.95.6 11.38s12.77 2.92 15.75.3c0 0-1-5.59-2.82-9.06-.35-.66-.18-3.26.17-4.16l1.09-2.66 1.85-4.5 1.23-3.01s.45-4.16-1.29-5.5c-1.5-1.17-5.6-1.58-6.34-1.84-.73-.25-2.87-.37-4.38-.14 0 0-2.3 1.08-3.1 1.24-.8.17-3.91 4.18-4.45 5.65s0 3.67 1.12 6.26"/><path fill="#fcb6ac" d="M301.74 209.23s.46 4.21.37 5.58c0 0 1.93 2.34 4.65-2.85 0 0-.67-2.08.19-4.99s-5.21 2.26-5.21 2.26"/><path fill="#fcb6ac" d="M309.06 212.39s-1.65 4.85-6.17 4.5c-4.52-.36-2.14-4.1-2.14-4.1s1.13-.65 1.44-.71 4.5-.24 4.5-.24z"/><path fill="#434343" d="M279.93 216.35h10.78a.86.86 0 0 1 .86.86v16.09a.85.85 0 0 1-.86.85h-10.78a.86.86 0 0 1-.86-.85v-16.1a.86.86 0 0 1 .86-.85"/><path fill="#dbdff0" d="M279.92 217.56h10.8v15.38h-10.8z"/><path fill="#fcb6ac" d="M294.69 230.51a1.3 1.3 0 0 1-.68-.18c-.47-.35-.63-1.2-1.45-1.15-.82.07-1.2 2.62-1 3.1.21.5 1.35.74 3.03.4s.1-2.17.1-2.17"/><path fill="#eea886" d="M280.5 219.77s-1.78-.41-2.35.44a3.3 3.3 0 0 0-.45 2.46c.14.5.6 1.81 1.2 1.55 1.93-.86 1.6-4.45 1.6-4.45"/><path fill="#eea886" d="M278.74 219.79s.25-1.2.73-1 .05 1 .05 1z"/><path fill="#eea886" d="M280.5 219.77s-.03-.68-1.27.02 1.27-.02 1.27-.02"/><path fill="#e6e8ec" d="m263.47 206.58.05-.02.01-.02v-.05l-.01-.02-.02-.02-.08.02-.02.05.02.04z"/><path fill="#fff" d="M289.8 208.06h-50.16a2 2 0 0 0-1.83 1.23 2 2 0 0 0-.14.76v58.5a2 2 0 0 0 1.97 1.99h50.17a2 2 0 0 0 1.82-1.23 2 2 0 0 0 .15-.75v-58.51a2 2 0 0 0-1.97-1.99"/><path fill="#3e486e" d="M289.8 208.06h-50.16a2 2 0 0 0-1.83 1.23 2 2 0 0 0-.14.76v58.5a2 2 0 0 0 1.97 1.99h50.17a2 2 0 0 0 1.82-1.23 2 2 0 0 0 .15-.75v-58.51a2 2 0 0 0-1.97-1.99" opacity=".1"/><path fill="#fff" d="M287.05 211.25H242.4a2 2 0 0 0-1.4.58 2 2 0 0 0-.57 1.4v52.14a2 2 0 0 0 .57 1.4 2 2 0 0 0 1.4.58h44.65a2 2 0 0 0 1.4-.58 2 2 0 0 0 .57-1.4v-52.14a2 2 0 0 0-1.97-1.98"/><path fill="#7598d6" d="M279.03 222.5H249.3a1.8 1.8 0 0 0-1.8 1.81v7.94a1.8 1.8 0 0 0 .52 1.28 1.8 1.8 0 0 0 1.28.53h29.73a1.8 1.8 0 0 0 1.67-1.12 2 2 0 0 0 .13-.69v-7.94a1.8 1.8 0 0 0-1.8-1.8" opacity=".7"/><path fill="#ff7067" d="M279.61 238.29h-30.89v2.36h30.9z"/><path fill="#7598d6" d="M285.98 243.26h-42.51v2.36h42.5zm0 5.24h-42.51v2.36h42.5zm0 5.24h-42.51v2.36h42.5z" opacity=".7"/><path fill="#fcb6ac" d="M292.84 229.2q-1.25-.42-2.53-.7c-1.2-.25-2.6-.34-2.76-.13-.14.2 1.16.42 2.33.75 1.08.3.82.42.82.42s.07-.03-1.16-.15c-1.32-.12-2.67-.12-2.8.14-.07.13-.03.22.45.34-.29-.02-.33.06-.34.17-.06.6 1.86 1.07 2.63 1.26-.59-.15-1.03-.2-.82.2.25.46 3 1.01 3.96 1.3 1.05.31.22-3.6.22-3.6"/><path fill="#2f3b6c" d="M296.77 226.08s-1.35-3.21-1.4-3.93c0 .42.1 3.02.7 5.1z"/><path fill="#d1c0ba" d="M295.36 222.15v-.06z"/><path fill="#5e7ebe" d="m302.3 230.52 5.64-9.9s-1.97 9.87-3.46 10.2c-1.5.33-2.18-.3-2.18-.3"/><path fill="#5e7ebe" d="M313.33 213.68s2.7 1.34 1.77 4.82-1.86 4.48-2.75 5.78c-.84 1.23-2.56 4.53-2.77 4.9s-2.28 5.77-4.18 6.38-11.3-2.37-11.5-2.04c-.22.33 0-3.28 0-3.28s4.37.3 5.32.24c1.57-.1 4.08.53 4.68-.82.7-1.58 3.25-6.8 3.52-7.66s3.4-9.2 5.9-8.32"/><path fill="#fcb6ac" d="M302.44 197.16s-4.17 2.72-2.82 9.28c1.36 6.56 6.29 2.96 6.82 2.59s2.19-4.49 2.25-6.28c.06-1.69.95-8.45-6.25-5.59"/><path fill="#4e6896" d="M302.73 198.48c.43-.13 1.89 2.7 2.69 3.4s2.24 2.45 2.39 4.37 1.76-4.2 1.2-6.47-1.31-5.6-6.4-2.96c-5.08 2.65-3.76 7.36-3.76 7.36s1.68-5.05 3.88-5.7"/><path fill="#fcb6ac" d="M306.25 203c.13-.77 1.86-1.43 1.83-.26s-.98 2.52-1.51 2.43c-.54-.08-.45-1.44-.32-2.16"/><path fill="#ab7d7d" d="M306.04 209.3c-.03.06-1.03 1.96-4.06 2.44l-.16-1.65a4.9 4.9 0 0 0 4.22-.8"/><path fill="#9298af" d="M137.86 331.05c17.31 0 31.35-3.48 31.35-7.78s-14.04-7.78-31.35-7.78-31.36 3.48-31.36 7.78 14.04 7.78 31.36 7.78" opacity=".1"/><path fill="#fff" d="M223.02 207.8H93.52a2 2 0 0 0-1.46.61 2 2 0 0 0-.6 1.47v61.36a2 2 0 0 0 .6 1.47 2 2 0 0 0 1.47.61h129.49a2 2 0 0 0 1.46-.61 2 2 0 0 0 .6-1.47v-61.36a2.07 2.07 0 0 0-2.06-2.08"/><path fill="#f2f5fa" d="M223.02 207.8H93.52a2 2 0 0 0-1.46.61 2 2 0 0 0-.6 1.47v61.36a2 2 0 0 0 .6 1.47 2 2 0 0 0 1.47.61h129.49a2 2 0 0 0 1.46-.61 2 2 0 0 0 .6-1.47v-61.36a2.07 2.07 0 0 0-2.06-2.08"/><path fill="#fff" d="M215.97 210.7H100.1a2 2 0 0 0-1.46.6 2 2 0 0 0-.6 1.47v54.68a2.07 2.07 0 0 0 2.06 2.08h115.86a2 2 0 0 0 1.46-.6 2 2 0 0 0 .6-1.48v-54.68a2.07 2.07 0 0 0-2.06-2.08"/><path fill="#7598d6" d="M196.17 222.95h-78.54a1.9 1.9 0 0 0-1.9 1.9v8.32a1.9 1.9 0 0 0 1.9 1.9h78.54a1.9 1.9 0 0 0 1.89-1.9v-8.33a1.9 1.9 0 0 0-1.89-1.9" opacity=".2"/><path fill="#7598d6" d="M195.04 239.5h-76.28v2.47h76.28zm15.71 5.22H105.8v2.47h104.96Zm0 5.5H105.8v2.47h104.96Zm0 5.49H105.8v2.47h104.96Z" opacity=".7"/><path fill="url(#a)" d="M147.03 379.63c.44-1.62.74-3.04.74-3.04a6.4 6.4 0 0 1 .83-3.09v-.44l.12-3.29a11 11 0 0 0-.74-1.75c-.55-1.05.19-4.82.19-4.82s2.38-5.24 1.98-8.64 5.06-14.85 5.06-14.85q.02-1.7-.34-3.36a3 3 0 0 1-.04-.7v-.08.03c.16-2.24 2.07-6.34 2.07-6.34l.07-7.98s-.94-4.74 1.12-10.97a59 59 0 0 0 1.6-5.72l-6.6-1.3s2.54-9.1 4.1-10.64c1.54-1.55 2.9-6.55 2.9-6.55s1.01-6.45-.15-8.39c-1.17-1.94-1.22-5.22-1.22-5.22s-2.75-2.17-3.07-3.1-.83-3.02-.79-4.1.44-2.05.34-2.63c-.1-.57.93-2.71.5-3.77a3 3 0 0 1-.15-1v-.03q.05-1.36.35-2.68a8 8 0 0 1 2.86-1.4l.07-.24.18-.64.29-.15.01-.24.06-.92-.35-2.12c-.74-3.68 4.12-4.03 4.12-4.03a2.6 2.6 0 0 1 1.42-1.16c.99-.3-.05 5.49-.52 5.84-.37.27-1.48 2.05-2.02 2.93l-.09.14.22.24-.24 1.26-.03.19q.46.62.72 1.35s-.92.94-.79 2.04a7 7 0 0 1-.37 2.5c.05-.05.7-.7 1.32-.51.61.18 2.33.77 2.33.77s1.29.28 1.16.57.82 1.58.82 1.58l3.61-3.18.12-.3q.25-.7.37-1.44a8 8 0 0 1-1.11-.4 2.4 2.4 0 0 1-.95-.66c-.33-.43-.37-1-.5-1.53-.23-1.03-.8-1.96-1.18-2.95a9.5 9.5 0 0 1-.5-5.22 3.5 3.5 0 0 1 .6-1.49c.6-.76 1.64-1.04 2.42-1.64.77-.6 1.29-1.54 2.18-1.97.81-.4 1.77-.31 2.66-.13a14 14 0 0 1 4.84 1.98c.5.32 1.04.7 1.63.61q.77-.2 1.23-.83v-.05l.04-.04a6 6 0 0 1 .44 2.64q0 .2-.03.41v.27l.02.18q.1.28.3.5.16.18.27.4 0-.08-.04-.15.32.51.32 1.11a1 1 0 0 1-.3.78 4 4 0 0 1-.58.44 6.7 6.7 0 0 1-3.44 6.82l-.13.3a8.4 8.4 0 0 0-.78 3.79q0 .15.03.28c.03.1.09.1.12.15 0 0 5.75.28 7.16-.9 1.4-1.18 3.3 3.14 3.3 3.14s2.05.48 2.47.1 2.84.05 2.84.05a5.2 5.2 0 0 1 3.64-1.18 11 11 0 0 1 2.7-1.37l.07-.02a3 3 0 0 1 1.3-.12s2.92-2.24 3.8-3.47c.86-1.23 4.96-5.76 4.96-5.78l.02-.22.07-.68.35.04.1-.23a13 13 0 0 1 .9-1.9s.03-.85-.2-1.08c-.25-.22.23-3.35.23-3.35s2.78-5.9 4.89-1.34c0 0 4.2 3.07.45 6.3 0 0-1.48.64-1.7 1.2-.14.36-.68 1.34-1.03 2l-.16.3.04.03-.07.56-.03.22c.66.41 1.1.82.99 1.12a6 6 0 0 0-.47 1.53s-5.25 6.08-6 8.76c0 0-13.75 7.5-18.18 7.9l.6 4.05q.12 1.63.06 3.27c-.1.86.35 4.78.35 4.78s.55 5.76 1.17 6.59.37 4.26.37 4.26q.13 2.5.7 4.91c.56 2.2 0 4.88 0 4.88s2.04 5.24-3.2 1.54c0 0-2.62-.27-5.65-.49v.3l-.03 1.27c-.07 2.96-.21 7.03-.46 10.1-.45 5.44-2.51 16.16-2.51 16.16l-.2 5.41q.12.77.09 1.55a10 10 0 0 1-1.66 5.37l-.55 3.6s-1.06 2.34-1.14 3.76q0 .17.03.34.04.28.03.56c0 1.64-1.14 5.52-1.14 5.52s-.21 3.96-.81 4.16c-.51.18.58 2.31.91 2.92l.03-.11.07.12q.16.5.14 1a1.5 1.5 0 0 1-.7 1.37c-1.15.65-1.78 1.2-.83 1.46q.52.1 1.03.26l.05-.13a.6.6 0 0 1 .37.71 3 3 0 0 1-.4 1.33 15 15 0 0 1-1.7 2.86l-.46-.07q.09.26.25.5.25.39.64.62.36.24.8.3a2.3 2.3 0 0 1 1.64.89c.55.79.88 1.84-.32 2.7l-4.27 1.3s-7.28.67-6.84-.94c.45-1.62.74-3.05.74-3.05a6.5 6.5 0 0 1 .7-2.87q.12-.23.27-.42l-.25-.04s-.42-3.63-1.12-4.34q-.23-.25-.15-.37c-.06-.2.12-.3.37-.37q.01.07.05.14.35-.06.7-.05s.31-1.88-.43-2.6a.7.7 0 0 1-.12-.58q0-.39.1-.76l.03.04a28 28 0 0 1 1.86-4.37s.12-1.72-.33-2.43c-.44-.71.42-9.34.42-9.34s-.02-4.2.59-6.12c.6-1.93-.49-4.27-.49-4.27l.02-.12v-.03l.1-.66v.04c.16-1.12.46-3.1.66-4.02.29-1.31.24-7.63.24-7.63l-.96-2.72-2.07 4.57-2.23 6.11s-1.04 1.27-1.11 2.61v.61a3.7 3.7 0 0 1-.7 2.18s-.64 2.9-1.48 3.62c-.85.71-.91 2.15-.91 2.15s-1.17 4.2-1.67 4.93c-.42.61-.5 2.34-.52 2.87v.15s-.2 1.51-.24 2.79v.45q-.02.5.08 1v.06-.21q.26 1.31.2 2.65c-.03 1.53-.33 3.32-1.3 4.35-1.65 1.77-2.65 1.49-2.65 1.49s.68 2.32 1.6 2.82l.1.06q0-.06.03-.13a1.1 1.1 0 0 1 .25.87 6 6 0 0 1-1.3 3.35 2 2 0 0 1-.81.44l.14.1.32.16q.22.12.48.15a2.3 2.3 0 0 1 1.64.88c.55.79.88 1.84-.32 2.71l-4.27 1.3s-7.3.65-6.86-.97" style="fill:url(#a)" transform="scale(.84417)"/><path fill="#7d7d95" d="m147.4 323.66 3.5-1.1c.98-.74.71-1.63.26-2.3a1.8 1.8 0 0 0-1.34-.73 2 2 0 0 1-.65-.26 2 2 0 0 1-.52-.53 2.6 2.6 0 0 1-.35-1.35s-3.73-1.26-4.81-.18a3 3 0 0 0-.48.65 6 6 0 0 0-.58 2.43s-.24 1.2-.6 2.57c-.37 1.37 5.58.8 5.58.8m-16.78-2.36 3.49-1.1c.98-.73.71-1.63.26-2.29a1.8 1.8 0 0 0-1.34-.74 1 1 0 0 1-.4-.12l-.25-.14c-.94-.57-.87-1.89-.87-1.89s-3.74-1.26-4.82-.18a3 3 0 0 0-.38.47 5.5 5.5 0 0 0-.68 2.61s-.24 1.2-.6 2.57c-.37 1.37 5.59.8 5.59.8"/><path fill="#000" d="M143.48 317.2a3 3 0 0 0-.47.66l5.64.88a2.6 2.6 0 0 1-.35-1.35s-3.73-1.26-4.82-.18m-17.17-1.87-.04 1.06c.83 1.5 5.1 1.34 6.37.66l-.26-.14c-.94-.57-.87-1.89-.87-1.89s-3.74-1.26-4.82-.18a3 3 0 0 0-.38.49" opacity=".1"/><path fill="#7598d6" d="M125.81 310.7q.38.72.63 1.49l-.16 3.82c.9 1.63 5.94 1.3 6.65.45.7-.84 1.51-3.1.76-3.5-.76-.42-1.31-2.39-1.31-2.39s.8.23 2.17-1.26c1.36-1.48 1.1-4.95.9-5.78-.22-.83.13-3.58.13-3.58s.03-1.94.44-2.55 1.37-4.16 1.37-4.16.04-1.21.74-1.82c.7-.6 1.23-3.05 1.23-3.05a3.2 3.2 0 0 0 .56-2.06c-.1-1.22.91-2.49.91-2.49l1.84-5.16 1.7-3.86.77 2.3s.04 5.34-.2 6.45c-.23 1.1-.62 4.04-.62 4.04s.89 1.98.4 3.6c-.5 1.63-.5 5.17-.5 5.17s-.71 7.29-.35 7.88c.37.6.26 2.05.26 2.05s-2.13 4.18-1.53 4.79c.6.6.35 2.2.35 2.2s-1.35-.05-.8.55c.56.6.86 3.65.86 3.65l5.8.9a12 12 0 0 0 1.4-2.42c.83-1.76-.09-1.6-.85-1.82-.77-.23-.26-.7.67-1.24s.46-1.87.46-1.87-1.3-2.42-.82-2.6c.5-.17.67-3.5.67-3.5s1.11-3.94.91-5.02.91-3.6.91-3.6l.46-3.03a8.4 8.4 0 0 0 1.28-5.72l.18-4.7s1.7-9.02 2.08-13.63a179 179 0 0 0 .46-11.8l-20.73-2.99a17 17 0 0 1-.5 3.1 46 46 0 0 1-1.25 4.45c-1.7 5.26-.94 9.26-.94 9.26l-.06 6.74s-2.01 4.43-1.68 6q.3 1.38.27 2.83s-4.46 9.65-4.13 12.5c.33 2.87-1.63 7.31-1.63 7.31s-.6 3.19-.16 4.08"/><path fill="#000" d="m138.68 285.96-6.3-1.1s3.44 3.82 6.3 1.1" opacity=".05"/><path fill="#000" d="M133.53 278.68s-.32 2.24 1.03 3.15c0 0-2.44-.49-1.03-3.15m.66-7.15s5.13 4.59 7.07 4.3c1.94-.28-7.07-4.3-7.07-4.3m12.26 16.79s4 1.07 4.05 2.7c.06 1.62-4.05-2.7-4.05-2.7" opacity=".1"/><path fill="#000" d="M144.79 308.45s5.64 1.29 4 1.95c-1.63.67-4.31 1.14-4.31 1.14s-1.84.04.31-3.09m5.11 3.15a1.1 1.1 0 0 0 .55-.8l.05.1s.49 1.32-.45 1.89l-.32.18-.52-.12c-.76-.24-.25-.7.69-1.25m-7.31-.67c-.15-.15-.13-.52 0-1q.32.68.27 1.42a1 1 0 0 0-.27-.42m1.8-24.04a7 7 0 0 1 .3 1.8 7 7 0 0 0-.38-1.24zm-12.92-3.04a2 2 0 0 1-.03-.53q.09.55.12 1zm12.4 20.25a3 3 0 0 1-.1-1.08q.24.66.22 1.37zm-1.55 9.08a19 19 0 0 1 .55 3l5.8.9a12 12 0 0 0 1.4-2.42l.18-.42c.34.17.47.54-.03 1.59a12 12 0 0 1-1.4 2.42l-5.81-.9s-.32-3.07-.88-3.67c-.26-.3-.06-.43.2-.5m8.03-8.4s-.18 3.35-.66 3.52c-.23-.56-.37-1.1-.15-1.17.49-.18.67-3.51.67-3.51s1.11-3.93.91-5c-.2-1.08.9-3.6.9-3.6l.46-3.04a8.4 8.4 0 0 0 1.28-5.72l.18-4.7s1.7-9.04 2.07-13.63c.24-2.94.36-6.96.41-9.46q0-.69.03-1.2l.16.03s0 .94-.04 2.33c-.06 2.52-.17 6.53-.41 9.47-.37 4.59-2.07 13.64-2.07 13.64l-.18 4.69a8.4 8.4 0 0 1-1.28 5.72l-.45 3.03s-1.12 2.52-.92 3.6-.91 5-.91 5m-17.57 10.38a6 6 0 0 0 1-2.26c.58.56-.18 2.63-.85 3.43-.68.8-5.74 1.18-6.64-.45l.03-.92c1.25 1.34 5.79 1 6.46.2m-7.11-5.76q.38.71.62 1.48l-.02.68a11 11 0 0 0-.45-1 3 3 0 0 1-.16-1.2zm7 1.04a9 9 0 0 1-.43-1.16s.81.22 2.17-1.28c.99-1.09 1.12-3.21 1.04-4.61.22.83.47 4.28-.89 5.78-.9.98-1.55 1.22-1.89 1.27m2.92-10.63a26 26 0 0 0-.2 2.86l-.09-.45c-.21-.83.14-3.58.14-3.58s.03-1.94.43-2.55c.41-.62 1.37-4.17 1.37-4.17s.05-1.2.74-1.8c.7-.61 1.23-3.06 1.23-3.06a3.2 3.2 0 0 0 .56-2.06c-.1-1.22.92-2.49.92-2.49l1.84-5.16 1.69-3.86.78 2.3v.74l-.63-1.88-1.7 3.85-1.83 5.17s-1.01 1.26-.91 2.48a3.2 3.2 0 0 1-.56 2.06s-.53 2.46-1.23 3.06-.75 1.81-.75 1.81-.95 3.55-1.36 4.17c-.4.61-.44 2.56-.44 2.56" opacity=".05"/><path fill="#fcb6ac" d="m134.95 210.62.3 1.78-.05.79-.04.58 2 .29.24-.41a19 19 0 0 1 1.66-2.48c.38-.3 1.23-5.18.42-4.92a2 2 0 0 0-1.15.97s-3.97.3-3.38 3.4"/><path fill="#000" d="m135.16 213.77 2 .29.24-.41a1.8 1.8 0 0 0-2.2-.46z" opacity=".1"/><path fill="#dce6f2" d="m134.61 214.7 2.63.73.07-.4.2-1.06a1.8 1.8 0 0 0-1.2-.76 1.8 1.8 0 0 0-1.36.31l-.15.54z"/><path fill="#fcb6ac" d="m177.7 212.48 2.77 1.64.27-.53c.3-.56.73-1.4.85-1.7.18-.46 1.39-1.01 1.39-1.01 3.07-2.73-.37-5.3-.37-5.3-1.72-3.86-4 1.12-4 1.12s-.38 2.65-.19 2.83c.2.18.17.92.17.92a11 11 0 0 0-.9 2.03"/><path fill="#000" d="m177.7 212.48 2.77 1.64.27-.53c-.38-.35-1.76-1.58-2.22-1.53a3 3 0 0 1-.67 0z" opacity=".1"/><path fill="#dce6f2" d="m177.37 213.32 3.14 1.7.08-.69.07-.47s-1.78-1.66-2.33-1.62q-.42.04-.83-.03l-.06.57z"/><path fill="#fcb6ac" d="M142.2 222.66s13.81 2.1 11.25 1.16c-1.78-.66-2.45-1.84-2.55-3.12a7 7 0 0 1 .62-3.2q.55-1.31 1.34-2.47s-10.37-6.27-8.46-.86q.45 1.22.5 2.54a7 7 0 0 1-.36 2.54 7.6 7.6 0 0 1-2.33 3.4"/><path fill="#000" d="M144.42 214.17q.45 1.22.5 2.54c.97.88 2.06.87 3.47.92 1.08.04 2.26.35 3.13-.14q.54-1.3 1.34-2.46s-10.36-6.27-8.44-.86" opacity=".1"/><path fill="#fcb6ac" d="M148.78 218.01a5.75 5.75 0 0 0 5.74-5.76 5.75 5.75 0 1 0-11.47 0 5.75 5.75 0 0 0 5.73 5.76"/><path fill="#000" d="M142.21 222.66s13.8 2.1 11.25 1.16c-1.79-.66-2.46-1.84-2.56-3.12-.66-.78-2.03-1.38-2.9-1.7a4 4 0 0 0-2.51-.14q-.5.13-.94.4a7.6 7.6 0 0 1-2.34 3.4m-7.6-7.95 2.63.72.07-.4a2.3 2.3 0 0 0-2.5-.97zm42.76-1.39 3.14 1.7.08-.69a24 24 0 0 0-3.16-1.54zm-41.99 44.21c5.33 1.07 12.94 2.47 14.16 2.14 1.02-.26 4.23-.1 7.02.1l.05-2.34-20.73-2.99a17 17 0 0 1-.5 3.1" opacity=".1"/><path fill="#7598d6" d="M130.08 256.06s17.56 3.73 19.48 3.23c1.92-.51 11.64.5 11.64.5 4.26 3.12 2.6-1.3 2.6-1.3s.47-2.27 0-4.13a25 25 0 0 1-.57-4.14s.21-2.9-.29-3.6c-.5-.69-.94-5.56-.94-5.56s-.35-3.3-.28-4.03c.08-.72-.04-2.77-.04-2.77l-.5-3.4c3.64-.35 14.88-6.7 14.88-6.7.63-2.25 4.91-7.42 4.91-7.42a6 6 0 0 1 .4-1.3c.3-.75-3.96-2.47-3.96-2.47s-3.4 3.84-4.1 4.88-3.1 2.93-3.1 2.93a2 2 0 0 0-1.06.1h-.06q-1.18.42-2.2 1.16a4.2 4.2 0 0 0-2.97 1s-1.97-.37-2.31-.04c-.35.32-2.03-.08-2.03-.08s-1.56-3.64-2.7-2.65c-1.13 1-5.84.77-5.84.77-.6-.86-2.1-1.52-3.04-1.86a4 4 0 0 0-2.5-.14 3 3 0 0 0-1.02.44l-2.95 2.7s-.78-1.1-.68-1.34c.11-.24-.94-.47-.94-.47s-1.38-.5-1.9-.66-1.03.4-1.08.44a6 6 0 0 0 .32-2.11c-.11-.93.64-1.72.64-1.72-1.53-4.23-5.47-.9-5.47-.9s-.52 2.26-.16 3.15c.35.9-.5 2.7-.42 3.19s-.24 1.3-.27 2.21c-.04.92.37 2.69.62 3.47s2.5 2.61 2.5 2.61.05 2.77 1 4.41.11 7.08.11 7.08-1.12 4.22-2.38 5.53c-1.26 1.3-3.34 9-3.34 9"/><path fill="#5776ae" d="M157.07 225.22s.59-1.58 1.07-1.7a11 11 0 0 0 1.43-.58l-.3-.6s-1.82.42-2.13.94c-.3.5-.07 1.94-.07 1.94m9.81-3.16c.08.49 4.35 1.1 4.35 1.1l-2.08-2.28h-.05a9 9 0 0 0-2.22 1.18" opacity=".1"/><path fill="#4e6896" d="M179.54 216.28a.4.4 0 0 0 .39-.38.38.38 0 0 0-.67-.29l-.08.13-.02.16a.4.4 0 0 0 .38.38m-.52.76a.39.39 0 1 0 0-.78.39.39 0 0 0 0 .78m-.51.7a.4.4 0 0 0 .35-.24.4.4 0 0 0-.35-.54.39.39 0 1 0 0 .77m-.54.75a.4.4 0 0 0 .4-.39.4.4 0 0 0-.11-.28l-.13-.1a.4.4 0 0 0-.3 0l-.14.1a.4.4 0 0 0-.1.28c0 .22.17.39.38.39m-45.4-1.87a.3.3 0 0 0 .32-.31.3.3 0 0 0-.32-.32.31.31 0 1 0 0 .63m-.07.71a.3.3 0 0 0 .3-.31.3.3 0 0 0-.18-.31.31.31 0 0 0-.44.3.3.3 0 0 0 .32.32m-.08.71q.14 0 .23-.09a.3.3 0 0 0 0-.44.3.3 0 0 0-.45 0 .31.31 0 0 0 .22.53"/><path fill="#5776ae" d="M156.54 238.33c.05-.05-11.34 13.3-19.46 5.02 0 0 13.25 2.32 19.46-5.02" opacity=".1"/><path fill="#000" d="M162.5 245.73s-6.5-.07-7.25 1.78l-.08 1.96a1.3 1.3 0 0 0 1.21.04c.67-.33 4.67-2.18 6.02-1.16z" opacity=".1"/><path fill="#5776ae" d="M162.38 245.73s-6.22-.07-6.94 1.7l-.07 1.86a1.2 1.2 0 0 0 1.16.04c.63-.31 4.47-2.08 5.76-1.11z"/><path fill="#5776ae" d="M159.5 231.42a21 21 0 0 1-2.68 4.25 17 17 0 0 1-4.1 3.67s6.64-7.04 6.78-7.92m2.42-7.5s-1.26 4.66-4.12 6.15zm1.64.54c.03-.09.82 3.76-3.83 5.69 0 0 1.97-.6 3.83-5.7m-28.25-4.25c.07 0-2.31 1.4-2.97 2.07.02 0 1.6-2.22 2.97-2.07" opacity=".1"/><path fill="#9298af" d="M150.13 217.53a1.2 1.2 0 0 1-.48.76 1 1 0 0 1-.54.1c-1.75.04-3.57.05-5.16-.69a2 2 0 0 1-.77-.55c-.28-.37-.31-.85-.41-1.3-.2-.87-.65-1.65-.96-2.48a8 8 0 0 1-.4-4.4 3 3 0 0 1 .48-1.27c.5-.64 1.35-.88 1.98-1.38.63-.51 1.06-1.3 1.8-1.68.65-.33 1.44-.26 2.16-.1a11 11 0 0 1 3.98 1.67c.4.28.85.59 1.33.52q.63-.19 1.02-.73c.3.8.42 1.67.33 2.52a1 1 0 0 0 0 .38q.09.24.25.41c.41.52.65 1.33.2 1.82-.19.21-.48.31-.66.54-.34.4-.26.98-.27 1.5a1 1 0 0 1-.14.5.8.8 0 0 1-.72.14 2 2 0 0 0-.75-.1 1.3 1.3 0 0 0-.67.48c-.85.99-1.2 2.11-1.6 3.34"/><path fill="#000" d="M151.02 221.06s-7.2.68-7.8-.43z" opacity=".1"/><path fill="#5776ae" d="M137.22 217.55s-3.98-.15-4.91 1.31z" opacity=".1"/><path fill="#7dbedc" d="M232.05 308.4c10.77 0 19.5-1.35 19.5-3 0-1.67-8.73-3.01-19.5-3.01s-19.5 1.34-19.5 3 8.73 3 19.5 3" opacity=".1"/><path fill="#bbcadf" d="M236.97 274.38s1.87 2.45-.86 6.15-4.97 6.82-4.06 9.12c0 0 4.1-6.86 7.46-6.95 3.35-.08 1.15-4.2-2.54-8.32"/><path fill="#bbcadf" d="M236.97 274.38q.26.35.38.77c3.27 3.85 5.01 7.45 1.87 7.54-2.92.08-6.43 5.34-7.27 6.66l.1.32s4.1-6.87 7.46-6.95c3.35-.09 1.15-4.21-2.54-8.34" opacity=".1"/><path fill="#ffd037" d="M240.44 277.5c0 .86-.1 1.56-.21 1.56-.12 0-.22-.7-.22-1.56s.12-.46.24-.46.19-.4.19.46"/><path fill="#ffd037" d="M241.63 278.53c-.75.41-1.4.66-1.47.56-.05-.11.51-.53 1.26-.95.75-.43.46-.12.51 0 .06.11.45-.02-.3.39"/><path fill="#bbcadf" d="M227.12 274.38s-1.86 2.45.86 6.15 4.98 6.82 4.07 9.12c0 0-4.12-6.86-7.46-6.95-3.35-.08-1.15-4.2 2.53-8.32"/><path fill="#bbcadf" d="M227.12 274.38a3 3 0 0 0-.38.77c-3.27 3.85-5 7.45-1.87 7.54 2.93.08 6.44 5.34 7.28 6.66l-.1.32s-4.12-6.87-7.46-6.95c-3.35-.09-1.15-4.21 2.53-8.34" opacity=".1"/><path fill="#ffd037" d="M223.65 277.5c0 .86.1 1.56.22 1.56s.21-.7.21-1.56-.12-.45-.23-.45-.2-.41-.2.45"/><path fill="#ffd037" d="M222.46 278.53c.76.41 1.42.66 1.47.56.06-.11-.5-.53-1.26-.95-.74-.43-.45-.12-.5 0-.06.11-.46-.02.3.39"/><path fill="#7598d6" d="m242.1 286.35-.1.77-.13 1.08-.06.45-.13 1.08-.05.45-.14 1.08-1.49 12.3c-.13 1.09-1.92 1.95-4.09 1.95h-7.74c-2.16 0-3.93-.86-4.07-1.96l-1.5-12.28-.12-1.08-.06-.45-.13-1.08-.06-.45-.13-1.08-.1-.77c-.06-.63.9-1.14 2.12-1.14h15.86c1.21-.01 2.18.51 2.11 1.13"/><path fill="#bbcadf" d="m242 287.12-.14 1.08h-19.63l-.13-1.08zm-.2 1.53-.12 1.08h-19.26l-.13-1.08zm-.18 1.53-.13 1.08H222.6l-.13-1.08z"/><path fill="#e4e8ef" d="m343.46 136.36 2.9-1.62 1.36.81 27.14 130.64-1.63.31-3.4-2.94z"/><path fill="#000" d="m346.36 134.74 26.87 131.76 1.63-.31-27.15-130.64z" opacity=".1"/><path fill="#e4e8ef" d="m326.38 141.88 20.66 1.98v1.6l-20.55-1.8zm2.19 19.46h21.9v2.34H328.3zm2 20.4 22.12-.87 2.77.87v1.5l-19.65 1.04h-5.05z"/><path fill="#000" d="m336.1 182.96 19.36-1.22v1.5l-19.65 1.04zm-5.52-1.22 5.51 1.22-.28 1.32h-5.05z" opacity=".1"/><path fill="#e4e8ef" d="m332.58 203.9 24.41-2.27 2.7.7v1.56l-21.81 2.3-5.3.46z"/><path fill="#000" d="m337.78 204.87 19.48-1.96 2.42-.58v1.56l-21.8 2.3z" opacity=".1"/><path fill="#000" d="m332.25 205.15 5.53-.28.1 1.31-5.3.47z" opacity=".1"/><path fill="#e4e8ef" d="m333.74 225.92 27.53-3.66 2.36.94v1.78l-23.74 3.58h-5.59z"/><path fill="#000" d="m339.89 227.43 23.74-4.23v1.78l-23.74 3.58zm-5.82.03 5.82-.03v1.13h-5.59z" opacity=".1"/><path fill="#e4e8ef" d="m335.38 248.54 30.2-5.63 2.67 1.57v1.25l-26.5 6.42-5.46.42z"/><path fill="#000" d="m341.74 250.93 26.5-6.4v1.25l-26.5 6.43zm-5.78.29 5.78-.3v1.29l-5.46.41z" opacity=".1"/><path fill="#e4e8ef" d="m328.3 133.1-2.44.55 8.83 140.48 2.57.95h2.04z"/><path fill="#000" d="m327.11 133.37 10.15 141.71h2.04l-11-141.97Z" opacity=".1"/><path fill="#fcb6ac" d="M335.38 129.63a8 8 0 0 0-1.4-1.56 3 3 0 0 0-1.46-.44 3.4 3.4 0 0 1-1.62-1.02c-.22-.23-.01-.36.41-.31s1.03.34 1.2.32q.28-.04-.05-.62a4 4 0 0 0-1.1-1.2c-.31-.2-1.17-.58-1.29-.84-.11-.27-.06-.41.39-.31q.68.12 1.33.37c.3.12.6-.18 1.64.17a8 8 0 0 1 .92.43l.19.03c.4.12.73 1.44.96 1.79a18 18 0 0 0 1.85 1.55z"/><path fill="url(#b)" d="M422.13 170.61c-.3-1.5-.87-2.97-.88-4.5-.02-2.49 1.3-5.37-.44-7.2-.4-.43-.93-.74-1.22-1.23a3 3 0 0 1-.3-1.37c-.04-2.9 1.56-5.84.6-8.6a3 3 0 0 0-1.1-1.52 3 3 0 0 0-1.85-.42c-.61 0-1.26.07-1.9.08a4 4 0 0 1-1.05-.14c-.74-.2-1.36-.68-2.08-.92a3 3 0 0 0-1.18-.16c-1.6-.05-3.04 1-4.17 2.03q-.84.7-1.78 1.3c.09-.07-2.2 1.5-1.34 1.52a3 3 0 0 1 1.7.6 4.6 4.6 0 0 0 .24 5.35l-1.21-1.18c-1.27-1.24-3.04-2.91-3.87-3.37a27 27 0 0 1-3.32-2.33s-2.54 1.42-1.76 3.39q.56.16 1.09.42 0 .4.15.77a8 8 0 0 1 2.25 1.1l.22.34c.34.59 1.39 1.67 2.67 2.86.9.9 2.1 1.99 3.28 3.03-.36.7-.73 1.42-.8 2.12l-.27-.12c-1.75-.94-5.86-.84-5.86-.84s-3.41-1.79-4.1-5.83c0 0-.68-2.45-.49-3.1l.08-.02.82-1.49a.66.66 0 0 0-.54-.96c-4-.36-4.18 3.3-4.18 3.3h.03l-.01.03c.49 2.36.88 2.17.78 4.05l1.56 4.13s.1 1.42 2.93 3.3a61 61 0 0 1 6.06 4.8s-1.71.88-1.08 4.97c.78 5-.39 12.13-.39 12.13v4.61l.22-.06a26 26 0 0 0-.22 7.49c.59 4.89 2.93 11.58 2.93 11.58s.88 2.35 1.08 4.23q.04.56.25 1.08a9 9 0 0 1 .68 3.27 23 23 0 0 0 1.5 8.24 22 22 0 0 1 1.47 4.85c-.7.92-1.62 1.92-2.34 2.02-1.37.19-4 .37-2.25 2.63q.1.12.2.21c-1.33.22-2.8.68-1.37 2.51 1.76 2.26 12.1 1.23 12.1 1.23s.07-1.26 0-2.64c.73-.04 1.19-.09 1.19-.09s.3-5.45-.98-6.11a3 3 0 0 0-.68.16c-.14-.75-.24-1.69-.3-2.38l.5-.04v-.04h.03v-8.21s-.6-5.08-2.74-7.33a5 5 0 0 1-.7-.94l-.04-.06c.02-.64.02-1.51 0-2.5l.04-.06q.1-.2.27-.35l.03-.04s1.18-1.42 5.17-10.35c2.44-5.44 1.8-8.5.92-10.08-.18-.7-.56-2.3-1.05-5.01a20 20 0 0 1-.28-3.5 7 7 0 0 0 1.86.21 6 6 0 0 0 2.83-.6c-.64-.93-1.3-2.03-.98-3.1.36-1.21 1.8-1.77 2.63-2.76 1-1.19 1.03-2.88.74-4.39" style="fill:url(#b)" transform="scale(.84417)"/><path fill="#5776ae" d="M335.46 126.25s-2.05 1.18-1.42 2.83c0 0 2.13.63 3 2.2.86 1.58 7.55 7.25 7.55 7.25l4.88-2.44s-1.7-2.27-7.06-3.85c0 0-3.17-3.4-4.27-4.02a25 25 0 0 1-2.68-1.97"/><path fill="#000" d="M336.45 127.25s-2.04 1.18-1.41 2.83c0 0 2.12.63 2.99 2.2.86 1.58 7.56 7.25 7.56 7.25l4.88-2.44s-1.7-2.27-7.06-3.85c0 0-3.17-3.4-4.27-4.03s-2.69-1.96-2.69-1.96" opacity=".05"/><path fill="#ffb9b9" d="M348.2 193.39s.24 3.46.64 3.85-3.54.63-3.54.63l.55-4.48z"/><path fill="#000" d="M348.2 193.39s.24 3.46.64 3.85-3.54.63-3.54.63l.55-4.48z" opacity=".05"/><path fill="#9298af" d="M349.08 196.06s-.56 0-2.52 1.03c0 0-1.34-.24-1.9-2.13 0 0-1.65 2.83-2.75 3-1.1.15-3.22.3-1.8 2.2 1.4 1.88 9.75 1.02 9.75 1.02s.24-4.57-.78-5.12"/><path fill="#333" d="M349.08 196.06s-.56 0-2.52 1.03c0 0-1.34-.24-1.9-2.13 0 0-1.65 2.83-2.75 3-1.1.15-3.22.3-1.8 2.2 1.4 1.88 9.75 1.02 9.75 1.02s.24-4.57-.78-5.12" opacity=".1"/><path fill="#ffb9b9" d="m347.9 198.74-.56 1.5-3.62-1.03.2-1.48.05-.36.14-1s3.07-.79 3.07-.4q.06.5.2.96c.12.49.28 1.04.4 1.4z"/><path fill="#4e6896" d="M345.92 178.21a2.2 2.2 0 0 0 0 2.2q.23.42.56.78c1.73 1.89 2.2 6.14 2.2 6.14v6.84l-1.17.1-1.9.14-2.83-11.65s-1.65-8.5-.86-10 1.5-10.86 1.5-10.86l.65-.67 1.55-1.6h4.48a3 3 0 0 1 .88.97c.75 1.24 1.43 3.84-.64 8.62-3.22 7.48-4.17 8.66-4.17 8.66a2 2 0 0 0-.25.33"/><path fill="#333" d="M345.94 178.18a2.1 2.1 0 0 0 0 2.2q.24.42.57.77c1.73 1.9 2.2 6.14 2.2 6.14v6.85l-1.18.09-1.89.15-2.83-11.65s-1.65-8.5-.87-10c.8-1.5 1.5-10.86 1.5-10.86l.65-.68 1.55-1.6h4.49q.55.4.87.97c.76 1.25 1.43 3.84-.63 8.63-3.23 7.48-4.17 8.66-4.17 8.66a2 2 0 0 0-.26.33" opacity=".1"/><path fill="#000" d="m347.39 196.94-3.41.43.13-1s3.07-.79 3.07-.4q.07.5.2.97" opacity=".1"/><path fill="#4e6896" d="M345.69 168.12s.2 6.2.22 10.1v2.19q0 .42-.06.86c-.24.7.23 2.28.23 2.28a23 23 0 0 1 1.42 9.76v3.46l-3.78.48s.63-.48-1.1-5.04a20 20 0 0 1-1.21-6.9 7 7 0 0 0-.56-2.74 3 3 0 0 1-.2-.9c-.15-1.58-.86-3.55-.86-3.55s-1.9-5.58-2.36-9.68a23 23 0 0 1 .1-5.86q.11-.74.29-1.46s7.7-4.84 10.6-1.5q.42.5.66 1.1.23.6.37 1.23c.9 4.44-3.76 6.17-3.76 6.17"/><path fill="#ffb9b9" d="M345.45 133.65a4.01 4.01 0 1 0 0-8.03 4.01 4.01 0 0 0 0 8.03"/><path fill="#ffb9b9" d="M343.25 132.15s1.65 4.64 0 7.09c-1.65 2.44 5.27 1.65 5.27 1.65l2.68-3.23s-3.15 0-3.3-5.5c-.17-5.52-4.65 0-4.65 0"/><path fill="#000" d="M351.2 161.5q-.86.3-1.76.45c-.98.15-2.13.16-2.8-.44-.4-.35-1.4-.4-2.58-.28-2.5.24-5.88 1.17-6.53 1.35a14 14 0 0 1 .29-1.46s7.69-4.85 10.6-1.5h1.67q.55.4.88.98.22.91.23.9m-3.3 37.24-.56 1.5-3.62-1.03.2-1.48c.62 1.37 1.69 1.56 1.69 1.56q1.04-.57 2.16-.95z" opacity=".1"/><path fill="#9298af" d="M348.13 198.35s-.55 0-2.52 1.02c0 0-1.34-.24-1.89-2.13 0 0-1.65 2.84-2.75 3-1.1.15-3.23.3-1.81 2.2 1.41 1.89 9.76 1.02 9.76 1.02s.23-4.56-.8-5.11"/><path fill="#e4e8ef" d="M332.31 98.4h-38.76c-.94 0-1.71.46-1.71 1.02v26.55c0 .56.77 1.02 1.71 1.02h38.76c.95 0 1.72-.46 1.72-1.02V99.42c0-.56-.77-1.01-1.72-1.01"/><path fill="#fff" d="M330.44 100.45h-35.01c-.86 0-1.55.38-1.55.86v22.77c0 .48.7.86 1.55.86h35c.86 0 1.56-.38 1.56-.86V101.3c0-.48-.7-.86-1.55-.86"/><path fill="#7598d6" d="M324.05 104.53h-22.03a1.3 1.3 0 0 0-.95.4 1.3 1.3 0 0 0-.39.94v5.88c0 .74.6 1.34 1.34 1.34h22.03a1.34 1.34 0 0 0 1.33-1.34v-5.88a1.3 1.3 0 0 0-.39-.95 1.3 1.3 0 0 0-.94-.39" opacity=".2"/><path fill="#ff7067" d="M321.1 116.1h-16.33v2.04h16.33z"/><path fill="#7598d6" d="M328.77 119.91h-31.49v1.75h31.5z" opacity=".7"/><path fill="#fcb6ac" d="M332.53 131.05a8 8 0 0 1-.62-2.01 3 3 0 0 1 .37-1.48 3.4 3.4 0 0 0-.04-1.91c-.08-.31-.3-.2-.47.19-.18.39-.24 1.05-.35 1.2q-.17.21-.5-.37a4 4 0 0 1-.46-1.55c-.01-.38.1-1.31-.06-1.55-.17-.23-.32-.26-.46.17a7 7 0 0 0-.37 1.34c-.05.32-.46.42-.7 1.5a8 8 0 0 0-.1 1l-.08.17c-.1.4.86 1.37 1.04 1.76q.26 1.18.38 2.38z"/><path fill="#7598d6" d="M348.05 138.6s-3.86-.62-4.88-1.41c0 0-.79 1.5-2.2.7-1.42-.78-4.73-.7-4.73-.7a7.2 7.2 0 0 1-3.3-4.88s-.55-2.05-.4-2.6c0 0-2.05-2.12-3.07.71.4 1.97.7 1.82.63 3.4l1.26 3.46s.08 1.18 2.36 2.75a51 51 0 0 1 4.88 4.02s-1.38.74-.87 4.17c.63 4.19-.31 10.15-.31 10.15v3.86s7.87-2.28 9.2-1.1c1.34 1.17 4.57 0 4.57 0s-.4-1.34-.94-4.57c-.55-3.23.07-6.38.07-6.38s2.05-5.43 3-7.64c.94-2.2-.71-5.18-2.37-6.3-1.65-1.1-2.26-.43-2.26-.43s2.9 2.09-.64 2.8"/><path fill="#000" d="M337.94 149.97s.62-.15 3.77-.62 8.66.63 8.66.63" opacity=".05"/><path fill="#000" d="M340.66 127.03c1.8.04 3.12 2.26 2.32 3.85-.34.7-1.02 1.32-.95 2.1.03.36.22.68.3 1.03.38 1.6-1.53 3.09-1.1 4.66q.24.64.69 1.14l3.31 4.18q.3.35.5.77.19.6.14 1.22c-.01 2 .12 4.14 1.3 5.75a5.3 5.3 0 0 0 6.43 1.56c-.51-.78-1.05-1.7-.8-2.6.3-1.01 1.46-1.48 2.13-2.3.8-1 .83-2.42.6-3.67-.23-1.26-.7-2.5-.7-3.77-.03-2.08 1.04-4.5-.36-6.04-.32-.35-.75-.6-.99-1.02a2.3 2.3 0 0 1-.25-1.15c-.02-2.43 1.27-4.9.5-7.2a2.4 2.4 0 0 0-.89-1.27c-1.09-.74-2.6-.02-3.87-.4-.6-.17-1.1-.58-1.68-.77-1.57-.54-3.03.53-4.12 1.56q-.67.6-1.44 1.08c.08-.04-1.77 1.28-1.07 1.3" opacity=".1"/><path fill="#4e6896" d="M340.86 127.03c1.8.04 3.12 2.26 2.32 3.85-.34.7-1.02 1.32-.95 2.1.03.36.22.68.3 1.03.38 1.6-1.53 3.09-1.1 4.66q.24.64.69 1.14l3.31 4.18q.3.35.5.77.18.6.14 1.22c-.01 2 .12 4.14 1.3 5.75a5.3 5.3 0 0 0 6.43 1.56c-.51-.78-1.05-1.7-.8-2.6.3-1.01 1.46-1.48 2.13-2.3.8-1 .83-2.42.6-3.67-.23-1.26-.7-2.5-.7-3.77-.03-2.08 1.04-4.5-.36-6.04-.32-.35-.75-.6-.99-1.02a2.3 2.3 0 0 1-.25-1.15c-.02-2.43 1.27-4.9.5-7.2a2.4 2.4 0 0 0-.89-1.27c-1.1-.74-2.6-.02-3.87-.4-.6-.17-1.1-.58-1.68-.77-1.57-.54-3.03.53-4.12 1.56q-.67.6-1.44 1.08c.08-.04-1.77 1.28-1.07 1.3"/><path fill="#4d73b8" d="M272.76 71.09s-2.03.66-4.9 5.05-7.67 17.8-7.67 17.8h18.55s8.05-13.63 8.6-14.4a6.5 6.5 0 0 0 1.05-2.6l-2.17-2.55z"/><path fill="#f9d8cd" d="m272.88 84.02-.4-.85c-.5-1.06.27-3.81-.81-4-.98-.18-7.59 11.22-7.23 11.56.14.14 2.74-2.75 2.93-2.68 1.03.4 2.3-1.82 3.39-1.96a2.1 2.1 0 0 0 1.77-.94" opacity=".61"/><path fill="#ab7d7d" d="M301.27 96.22q1 .57 1.82 1.38.5.68.6 1.53a3.6 3.6 0 0 0 1.21 1.65c.27.22.4 0 .3-.46-.09-.46-.45-1.08-.45-1.28q.01-.3.67 0a5 5 0 0 1 1.38 1.08c.24.32.72 1.2 1.01 1.31.3.1.45 0 .3-.44a7 7 0 0 0-.5-1.4c-.16-.3.13-.65-.33-1.74a8 8 0 0 0-.54-.95l-.05-.2c-.16-.42-1.6-.66-2-.88a20 20 0 0 1-1.8-1.85z"/><path fill="#4e6896" d="m267.13 77.38 9.02.45 11.43 1.33c3.29-5.7-3.98-8.87-5.37-9.01l-4-.6a18 18 0 0 0-6.1 1.85c-1.72.88-3.64 3.11-4.98 5.98"/><path fill="#ab7d7d" d="m283.07 68.88-.44 2.15a1.35 1.35 0 0 1-1.32 1.1c-3.52 0-3.4-2.22-3.4-2.22.66-1.14.92-4.45.92-4.45m10.42 33.16q.61.97 1.45 1.74a3 3 0 0 0 1.55.54 3.6 3.6 0 0 1 1.7 1.16c.23.25 0 .39-.45.31-.46-.07-1.1-.4-1.29-.39q-.29.03.04.67a5 5 0 0 0 1.13 1.33c.33.23 1.24.67 1.35.96.12.3.05.44-.42.32a7 7 0 0 1-1.42-.46c-.32-.14-.65.17-1.76-.25a9 9 0 0 1-.97-.5l-.2-.04c-.42-.14-.73-1.58-.97-1.96a19 19 0 0 0-1.92-1.75z"/><path fill="#4e6896" d="M269.73 79.45c-1.3-1.99 2.81-4.34 2.81-4.34l1.6.66c.95-.48 2.59-1.2 2.59-1.2l.86 2.34a2 2 0 0 1-.1 1.1c.05 1.34 2.48 8.72 2.59 8.83a101 101 0 0 1 9.5 12.02 4 4 0 0 1-.88 1.2 5 5 0 0 1-1.17.83s-7.53-6.11-10.94-9.68c-3.18-3.39-5.57-9.78-6.86-11.76"/><path fill="#ab7d7d" d="M287.39 67.2a5 5 0 0 1-2.23 2.33 4.2 4.2 0 0 1-3.38-.09 5.4 5.4 0 0 1-3.12-4.84 5.4 5.4 0 0 1 3.24-4.79c1.75-.72 4.5-.4 5.82 1.1 1.33 1.48.47 4.73-.33 6.3"/><path fill="#ab7d7d" d="M278.65 64.57a5.4 5.4 0 0 0 3.12 4.85 4.4 4.4 0 0 0 3.03.21 7 7 0 0 1-1.96-.37 5.5 5.5 0 0 1-3.21-4.84c0-2.04 1.81-4.02 3.7-4.8q.3-.14.6-.2a5.2 5.2 0 0 0-4.9 3.14 5 5 0 0 0-.41 2z"/><path fill="#3e486e" d="M288.14 63a4.2 4.2 0 0 1-3.17-2.25 2.1 2.1 0 0 1-1.34 1.32 2.1 2.1 0 0 1-1.87-.29 2.55 2.55 0 0 1-2.25 2.65 1.1 1.1 0 0 1-.22 1.37q-.2.15-.44.23a1.44 1.44 0 0 1-1.56-1.02 2.2 2.2 0 0 1 .42-1.9 3.6 3.6 0 0 1-1.21-4.45 3.64 3.64 0 0 1 4.2-1.87 3.44 3.44 0 0 1 6.46-.12c-.04-.11 1-.07 1.07-.06q.64.03 1.21.3c.7.35.01 6.23-1.3 6.1"/><path fill="#ab7d7d" d="M278.72 64.75c-.1-.68.28-1.64.88-1.78a.96.96 0 0 1 1.27.8c.1.67-.27 1.8-.86 1.96a1.1 1.1 0 0 1-1.29-.98"/><path fill="#4e6896" d="m287.76 73.96 6.43 10.8-3.31 3.44s-1.88-1.7-3.12-3.13a57 57 0 0 1-1.5-1.78 5 5 0 0 1-1.05-4.1q.19-1.3.65-2.5c1.24-2.47 1.9-2.73 1.9-2.73"/><path fill="#4e6896" d="M294.2 84.77s6.65 6.57 9.46 9.91l-1.63 2.15s-9.17-5.34-12.68-10.55c-2.52-3.74 4.84-1.51 4.84-1.51m-21.98-7.14s-2.07 4.55-4.24 3.97c-1.79-.47-.84-4.2-.84-4.2l2.42-2.2z"/><path fill="#5e7ebe" d="M287.1 74.05a19.6 19.6 0 0 1-1.6 9.69l-.68-4.9a19 19 0 0 0 0-7.64q.45.13.82.38a2.8 2.8 0 0 1 1.45 2.47m-7.65 4.4s-.34-7.77-4.72-8.14a2.5 2.5 0 0 0-1.63.6s3.78 1.12 4.41 7.34z"/><path fill="#ff7067" d="M281 60.78s1.46 2.79 7.76 3.42c.47.05 2.13-.32.71-1.78z"/><path fill="#ff7067" d="M289.65 61.9c.47-1.53 1.34-5.94-3.24-7.88-6.79-2.9-9.21 1.27-10.1 4.84a.5.5 0 0 0-.45.39.4.4 0 0 0 .28.42q.9.35 1.82.56c2.69.8 7.81 2.18 11.23 2.2a.3.3 0 0 0 .3 0c.48-.2.16-.54.16-.54"/><path fill="#ff9892" d="M282.5 53.03s5.55 1.4 3.62 9.13q1.17.24 2.36.28s1.79-5.83-2.07-8.42c0 0-1.72-1.82-3.92-1"/></g><defs><linearGradient id="a" x1="-63460.8" x2="-61271.2" y1="122773" y2="68281.3" gradientUnits="userSpaceOnUse"><stop stop-color="gray" stop-opacity=".25"/><stop offset=".54" stop-color="gray" stop-opacity=".12"/><stop offset="1" stop-color="gray" stop-opacity=".1"/></linearGradient><linearGradient id="b" x1="34088.2" x2="34088.2" y1="78773.2" y2="39430.5" gradientUnits="userSpaceOnUse"><stop stop-color="gray" stop-opacity=".25"/><stop offset=".54" stop-color="gray" stop-opacity=".12"/><stop offset="1" stop-color="gray" stop-opacity=".1"/></linearGradient></defs></svg>