<svg width="350" height="250" viewBox="0 0 350 250" fill="none" xmlns="http://www.w3.org/2000/svg">
<g clip-path="url(#clip0_5457_44961)">
<path d="M338.857 73.2598H147.781C145.091 73.2622 142.512 74.3317 140.611 76.2336C138.709 78.1355 137.639 80.7142 137.637 83.4038V114.37C137.639 117.06 138.709 119.638 140.611 121.54C142.512 123.442 145.091 124.512 147.781 124.514H338.857C341.546 124.512 344.125 123.442 346.027 121.54C347.929 119.638 348.998 117.06 349.001 114.37V83.4038C348.998 80.7142 347.929 78.1355 346.027 76.2336C344.125 74.3317 341.546 73.2622 338.857 73.2598Z" fill="#DAE6FD"/>
<path d="M76.6266 249.999H0.608147C0.446857 249.999 0.292162 249.935 0.178113 249.821C0.0640627 249.707 0 249.553 0 249.391C0 249.23 0.0640627 249.075 0.178113 248.961C0.292162 248.847 0.446857 248.783 0.608147 248.783H76.6266C76.7879 248.783 76.9425 248.847 77.0566 248.961C77.1706 249.075 77.2347 249.23 77.2347 249.391C77.2347 249.553 77.1706 249.707 77.0566 249.821C76.9425 249.935 76.7879 249.999 76.6266 249.999Z" fill="#3F3D56"/>
<path d="M65.465 59.5847C64.76 60.0297 64.1611 60.6239 63.7106 61.3253C63.2601 62.0268 62.9689 62.8185 62.8574 63.6447C62.746 64.4709 62.817 65.3115 63.0656 66.1072C63.3142 66.903 63.7342 67.6346 64.296 68.2505L58.7695 80.0519L65.1221 85.1595L72.6926 68.384C73.6647 67.3715 74.2316 66.0376 74.2859 64.635C74.3402 63.2324 73.8781 61.8587 72.9872 60.774C72.0963 59.6894 70.8385 58.9693 69.4521 58.75C68.0657 58.5308 66.647 58.8278 65.465 59.5847Z" fill="#FFB8B8"/>
<path d="M33.7064 64.374C35.4555 63.3234 37.5418 62.9863 39.5327 63.4326C41.5236 63.8789 43.2663 65.0744 44.3995 66.7711L55.7078 83.7033L59.6337 75.0485C59.8789 74.508 60.3131 74.0758 60.8547 73.8333C61.3963 73.5907 62.0079 73.5545 62.5743 73.7314L68.4997 75.5824C68.8093 75.6791 69.0964 75.8367 69.3441 76.046C69.5919 76.2552 69.7953 76.5119 69.9424 76.801C70.0895 77.09 70.1773 77.4056 70.2007 77.729C70.224 78.0525 70.1825 78.3774 70.0785 78.6846L66.0224 90.6616C65.5093 92.1767 64.652 93.5522 63.5179 94.6802C62.3837 95.8082 61.0036 96.658 59.4858 97.1628C57.9679 97.6676 56.3538 97.8138 54.7699 97.5899C53.1861 97.3659 51.6757 96.7779 50.3574 95.872C49.7414 95.4487 49.173 94.9599 48.6623 94.4141L31.9975 76.6079C31.1882 75.7432 30.5826 74.7085 30.225 73.5795C29.8674 72.4505 29.7668 71.2558 29.9307 70.0829C30.0945 68.91 30.5186 67.7886 31.1719 66.8008C31.8252 65.813 32.6912 64.9838 33.7064 64.374Z" fill="#B6CFFB"/>
<path d="M70.2884 46.8793C70.5919 46.8868 70.88 47.0146 71.0893 47.2346C71.2986 47.4545 71.412 47.7486 71.4044 48.0521L71.3068 51.9824L71.5039 52.0003L71.4331 54.6697L71.2406 54.6457L70.8909 68.7258C70.879 69.2077 70.6921 69.6688 70.3651 70.023C70.0381 70.3773 69.5935 70.6004 69.1141 70.6509L60.161 71.5935C59.9431 71.6164 59.7227 71.5914 59.5154 71.5202C59.3081 71.449 59.1189 71.3333 58.9611 71.1812C58.8032 71.0291 58.6805 70.8444 58.6016 70.6399C58.5227 70.4354 58.4895 70.2161 58.5044 69.9974L59.8622 49.9484C59.8908 49.5273 60.0617 49.1284 60.3469 48.8173C60.6322 48.5062 61.0148 48.3015 61.4319 48.2367L70.0749 46.894C70.1454 46.8824 70.2169 46.8775 70.2884 46.8793Z" fill="#3F3D56"/>
<path d="M63.3595 48.9657L67.9031 48.2598C67.9849 48.2471 68.0602 48.2078 68.1174 48.1479C68.1746 48.0881 68.2105 48.0111 68.2195 47.9288C68.2297 47.8356 68.2703 47.7484 68.335 47.6806C68.3998 47.6128 68.4851 47.5683 68.5777 47.5539L69.5348 47.4052C69.6654 47.3849 69.7989 47.3936 69.9258 47.4305C70.0527 47.4674 70.17 47.5317 70.2693 47.6189C70.3686 47.7061 70.4476 47.814 70.5007 47.9351C70.5538 48.0561 70.5796 48.1873 70.5764 48.3194L70.0845 68.7332C70.0784 68.9865 69.9792 69.2287 69.8059 69.4136C69.6326 69.5985 69.3973 69.713 69.1449 69.7355L60.1985 70.5309C60.0843 70.541 59.9694 70.5264 59.8614 70.4881C59.7534 70.4497 59.655 70.3885 59.5729 70.3086C59.4907 70.2287 59.4268 70.1321 59.3854 70.0252C59.3441 69.9184 59.3262 69.8039 59.3332 69.6895L60.5403 49.8257C60.5581 49.5331 60.6755 49.2553 60.8729 49.0385C61.0703 48.8217 61.3359 48.6789 61.6257 48.6339L62.6346 48.4772C62.6717 48.6349 62.7669 48.7729 62.9013 48.8634C63.0357 48.954 63.1993 48.9905 63.3595 48.9657Z" fill="white"/>
<path d="M42.2797 242.618L49.232 242.618L52.5385 215.801L42.2772 215.802L42.2797 242.618Z" fill="#FFB8B8"/>
<path d="M62.6408 249.072L40.7902 249.074L40.7895 240.632L54.1978 240.631C55.3064 240.631 56.4043 240.849 57.4286 241.273C58.4529 241.697 59.3836 242.319 60.1676 243.103C60.9516 243.887 61.5735 244.817 61.9979 245.842C62.4222 246.866 62.6407 247.964 62.6408 249.072Z" fill="#2F2E41"/>
<path d="M20.9117 242.618L27.8641 242.618L31.1706 215.801L20.9093 215.802L20.9117 242.618Z" fill="#FFB8B8"/>
<path d="M41.2731 249.072L19.4225 249.074L19.4218 240.632L32.8301 240.631C35.0691 240.631 37.2165 241.52 38.7999 243.103C40.3833 244.686 41.2729 246.833 41.2731 249.072Z" fill="#2F2E41"/>
<path d="M41.2731 55.2602C49.5224 55.2602 56.2098 48.5728 56.2098 40.3234C56.2098 32.0741 49.5224 25.3867 41.2731 25.3867C33.0238 25.3867 26.3364 32.0741 26.3364 40.3234C26.3364 48.5728 33.0238 55.2602 41.2731 55.2602Z" fill="#FFB8B8"/>
<path d="M48.9605 80.2856C48.8385 76.4454 47.7573 72.6968 45.8156 69.3813C43.8739 66.0659 41.1334 63.2891 37.8438 61.304C33.9849 59.0301 29.761 58.1433 26.4006 61.5037C24.3828 63.5721 22.7669 65.9974 21.6351 68.6562C18.5266 75.9015 18.3233 84.0648 21.0671 91.4559L29.0652 113.552L47.5767 115.558C47.9244 115.595 48.2762 115.558 48.608 115.447C48.9398 115.336 49.2438 115.156 49.4994 114.917C49.7549 114.678 49.956 114.387 50.0889 114.063C50.2218 113.74 50.2833 113.392 50.2694 113.042L48.9605 80.2856Z" fill="#2F2E41"/>
<path d="M30.2389 110.832C30.2389 110.832 16.4088 115.995 20.0247 137.857C23.2694 157.475 20.6909 222.59 20.1273 235.753C20.1005 236.38 20.3175 236.993 20.7329 237.464C21.1483 237.935 21.7299 238.227 22.3557 238.279L30.4289 238.951C31.0612 239.004 31.6891 238.808 32.1786 238.404C32.6681 238 32.9805 237.421 33.0492 236.791L37.2186 198.493C37.235 198.343 37.3067 198.204 37.4199 198.104C37.533 198.004 37.6794 197.949 37.8306 197.951C37.9817 197.953 38.1268 198.011 38.2375 198.114C38.3481 198.217 38.4165 198.357 38.4292 198.508L41.536 235.359C41.5884 235.98 41.877 236.557 42.3423 236.971C42.8076 237.386 43.4142 237.606 44.037 237.586L50.8179 237.371C51.1375 237.361 51.4519 237.288 51.7432 237.156C52.0345 237.025 52.297 236.837 52.5157 236.604C52.7343 236.37 52.9048 236.096 53.0175 235.797C53.1302 235.498 53.1828 235.18 53.1723 234.86L49.1778 113.386L30.2389 110.832Z" fill="#2F2E41"/>
<path d="M44.2709 39.3398C49.2664 41.3886 55.6459 38.9953 58.0611 34.1663C60.4764 29.3373 58.5649 22.7972 53.9293 20.0289C49.2936 17.2606 42.6293 18.6796 39.5234 23.0961C36.9969 18.5444 30.3782 17.3839 25.8338 19.9237C21.2895 22.4635 18.8142 27.7834 18.5206 32.981C18.227 38.1787 19.8072 43.2991 21.7349 48.135C24.853 55.9573 34.8909 60.1691 42.6571 56.9138C39.1018 51.6184 39.8036 43.8693 44.2709 39.3398Z" fill="#2F2E41"/>
<path d="M64.4012 61.3967C64.2683 61.3969 64.1389 61.3539 64.0325 61.2741L64.0259 61.2692L62.6372 60.2068C62.5729 60.1575 62.5189 60.096 62.4783 60.0259C62.4378 59.9557 62.4114 59.8782 62.4008 59.7979C62.3902 59.7175 62.3955 59.6359 62.4165 59.5576C62.4374 59.4793 62.4736 59.4059 62.5229 59.3416C62.5722 59.2772 62.6337 59.2233 62.7039 59.1827C62.774 59.1422 62.8515 59.1158 62.9319 59.1052C63.0122 59.0946 63.0938 59.0999 63.1721 59.1209C63.2504 59.1418 63.3238 59.178 63.3882 59.2273L64.2877 59.9171L66.4133 57.1439C66.4626 57.0796 66.5241 57.0257 66.5942 56.9851C66.6644 56.9446 66.7418 56.9183 66.8221 56.9077C66.9024 56.897 66.9841 56.9024 67.0623 56.9233C67.1406 56.9442 67.2139 56.9804 67.2782 57.0297C67.4079 57.1294 67.4933 57.2766 67.5147 57.4387C67.5361 57.6009 67.4923 57.765 67.3929 57.8949L64.8927 61.1552C64.8348 61.2304 64.7605 61.2911 64.6753 61.3329C64.5902 61.3746 64.4966 61.3962 64.4018 61.3959L64.4012 61.3967Z" fill="#417DC4"/>
<path d="M339.036 0H147.96C145.271 0.00243634 142.692 1.07197 140.79 2.97383C138.888 4.87569 137.819 7.45445 137.816 10.1441V41.1102C137.819 43.7998 138.888 46.3786 140.79 48.2805C142.692 50.1823 145.271 51.2519 147.96 51.2543H339.036C341.726 51.2519 344.305 50.1823 346.207 48.2805C348.109 46.3786 349.178 43.7998 349.18 41.1102V10.1441C349.178 7.45445 348.109 4.87568 346.207 2.97382C344.305 1.07197 341.726 0.00243633 339.036 0ZM348.113 41.1102C348.109 43.5163 347.152 45.823 345.451 47.5244C343.749 49.2257 341.443 50.1831 339.036 50.1865H147.96C145.554 50.1831 143.248 49.2258 141.546 47.5244C139.845 45.823 138.887 43.5163 138.884 41.1102V10.1441C138.887 7.73795 139.845 5.43134 141.546 3.72994C143.248 2.02855 145.554 1.0712 147.96 1.06779H339.036C341.443 1.0712 343.749 2.02855 345.451 3.72994C347.152 5.43134 348.109 7.73795 348.113 10.1441V41.1102Z" fill="#3F3D56"/>
<path d="M186.845 43.2825C183.353 43.2825 179.939 42.247 177.035 40.307C174.132 38.3669 171.869 35.6095 170.533 32.3833C169.196 29.1571 168.847 25.6071 169.528 22.1822C170.209 18.7573 171.891 15.6113 174.36 13.142C176.829 10.6728 179.975 8.99124 183.4 8.30997C186.825 7.62871 190.375 7.97835 193.601 9.31467C196.827 10.651 199.585 12.914 201.525 15.8175C203.465 18.721 204.5 22.1346 204.5 25.6266C204.495 30.3076 202.633 34.7953 199.323 38.1053C196.013 41.4152 191.526 43.2771 186.845 43.2825Z" fill="#417DC4"/>
<path d="M312.966 40.0424H221.195C220.062 40.0424 218.976 39.5924 218.175 38.7914C217.374 37.9904 216.924 36.904 216.924 35.7712C216.924 34.6384 217.374 33.552 218.175 32.751C218.976 31.95 220.062 31.5 221.195 31.5H312.966C314.099 31.5 315.185 31.95 315.986 32.751C316.787 33.552 317.237 34.6384 317.237 35.7712C317.237 36.904 316.787 37.9904 315.986 38.7914C315.185 39.5924 314.099 40.0424 312.966 40.0424Z" fill="#B6CFFB"/>
<path d="M251.567 21.89H221.195C220.062 21.89 218.976 21.44 218.175 20.639C217.374 19.838 216.924 18.7516 216.924 17.6188C216.924 16.4861 217.374 15.3997 218.175 14.5987C218.976 13.7977 220.062 13.3477 221.195 13.3477H251.567C252.7 13.3477 253.787 13.7977 254.588 14.5987C255.389 15.3997 255.839 16.4861 255.839 17.6188C255.839 18.7516 255.389 19.838 254.588 20.639C253.787 21.44 252.7 21.89 251.567 21.89Z" fill="#B6CFFB"/>
<path d="M185.943 31.8367C185.505 31.8374 185.078 31.6957 184.728 31.4329L184.706 31.4166L180.13 27.916C179.918 27.7537 179.739 27.5511 179.605 27.3198C179.471 27.0885 179.384 26.833 179.349 26.568C179.314 26.303 179.331 26.0337 179.4 25.7754C179.469 25.5171 179.588 25.275 179.751 25.0628C179.913 24.8506 180.116 24.6726 180.348 24.539C180.579 24.4053 180.835 24.3186 181.1 24.2838C181.365 24.249 181.634 24.2668 181.893 24.3362C182.151 24.4056 182.393 24.5252 182.605 24.6882L185.569 26.9612L192.573 17.8233C192.735 17.6115 192.938 17.4337 193.169 17.3001C193.4 17.1666 193.655 17.0798 193.92 17.0448C194.185 17.0099 194.454 17.0274 194.711 17.0964C194.969 17.1654 195.211 17.2845 195.423 17.4469L195.424 17.4473L195.38 17.5077L195.425 17.4473C195.852 17.7758 196.132 18.2604 196.202 18.7949C196.273 19.3293 196.128 19.8698 195.801 20.2979L187.562 31.0412C187.372 31.2888 187.127 31.4891 186.846 31.6266C186.566 31.7641 186.257 31.8352 185.945 31.8343L185.943 31.8367Z" fill="white"/>
<path d="M256.937 83.3164H65.8605C63.1709 83.3188 60.5921 84.3884 58.6902 86.2902C56.7884 88.1921 55.7189 90.7709 55.7164 93.4605V124.427C55.7189 127.116 56.7884 129.695 58.6902 131.597C60.5921 133.499 63.1709 134.568 65.8605 134.571H256.937C259.626 134.568 262.205 133.499 264.107 131.597C266.009 129.695 267.078 127.116 267.081 124.427V93.4605C267.078 90.7709 266.009 88.1921 264.107 86.2902C262.205 84.3884 259.626 83.3188 256.937 83.3164Z" fill="white"/>
<path d="M256.937 83.3164H65.8605C63.1709 83.3188 60.5921 84.3884 58.6902 86.2902C56.7884 88.1921 55.7189 90.7709 55.7164 93.4605V124.427C55.7189 127.116 56.7884 129.695 58.6902 131.597C60.5921 133.499 63.1709 134.568 65.8605 134.571H256.937C259.626 134.568 262.205 133.499 264.107 131.597C266.009 129.695 267.078 127.116 267.081 124.427V93.4605C267.078 90.7709 266.009 88.1921 264.107 86.2902C262.205 84.3884 259.626 83.3188 256.937 83.3164ZM266.013 124.427C266.009 126.833 265.052 129.139 263.351 130.841C261.649 132.542 259.343 133.499 256.937 133.503H65.8605C63.4544 133.499 61.1478 132.542 59.4464 130.841C57.745 129.139 56.7876 126.833 56.7842 124.427V93.4605C56.7876 91.0544 57.7449 88.7477 59.4463 87.0463C61.1477 85.3449 63.4544 84.3876 65.8605 84.3842H256.937C259.343 84.3876 261.649 85.3449 263.351 87.0463C265.052 88.7477 266.009 91.0544 266.013 93.4605V124.427Z" fill="#3F3D56"/>
<path d="M104.745 126.599C101.253 126.599 97.8392 125.563 94.9357 123.623C92.0322 121.683 89.7691 118.926 88.4328 115.7C87.0964 112.474 86.7467 108.924 87.428 105.499C88.1092 102.074 89.7908 98.9277 92.26 96.4584C94.7292 93.9892 97.8752 92.3076 101.3 91.6264C104.725 90.9451 108.275 91.2948 111.501 92.6311C114.727 93.9674 117.485 96.2304 119.425 99.1339C121.365 102.037 122.4 105.451 122.4 108.943C122.395 113.624 120.533 118.112 117.223 121.422C113.913 124.732 109.426 126.594 104.745 126.599Z" fill="#417DC4"/>
<path d="M230.866 123.359H139.095C137.962 123.359 136.876 122.909 136.075 122.108C135.274 121.307 134.824 120.22 134.824 119.088C134.824 117.955 135.274 116.868 136.075 116.067C136.876 115.266 137.962 114.816 139.095 114.816H230.866C231.999 114.816 233.085 115.266 233.886 116.067C234.687 116.868 235.137 117.955 235.137 119.088C235.137 120.22 234.687 121.307 233.886 122.108C233.085 122.909 231.999 123.359 230.866 123.359Z" fill="#B6CFFB"/>
<path d="M169.468 105.206H139.095C138.534 105.206 137.979 105.096 137.461 104.881C136.942 104.667 136.471 104.352 136.075 103.955C135.678 103.559 135.364 103.088 135.149 102.57C134.934 102.052 134.824 101.496 134.824 100.935C134.824 100.374 134.934 99.819 135.149 99.3007C135.364 98.7825 135.678 98.3117 136.075 97.9151C136.471 97.5185 136.942 97.2038 137.461 96.9892C137.979 96.7746 138.534 96.6641 139.095 96.6641H169.468C170.6 96.6641 171.687 97.1141 172.488 97.9151C173.289 98.7161 173.739 99.8025 173.739 100.935C173.739 102.068 173.289 103.154 172.488 103.955C171.687 104.756 170.6 105.206 169.468 105.206Z" fill="#B6CFFB"/>
<path d="M103.843 115.153C103.405 115.154 102.978 115.012 102.628 114.749L102.606 114.733L98.0301 111.232C97.8177 111.07 97.6393 110.867 97.5053 110.636C97.3713 110.405 97.2841 110.149 97.2489 109.884C97.2137 109.619 97.2311 109.35 97.3001 109.092C97.369 108.834 97.4883 108.591 97.6509 108.379C97.8136 108.167 98.0164 107.989 98.248 107.855C98.4795 107.722 98.7351 107.635 99.0001 107.6C99.2652 107.565 99.5345 107.583 99.7927 107.653C100.051 107.722 100.293 107.842 100.505 108.005L103.469 110.278L110.473 101.14C110.635 100.928 110.838 100.75 111.069 100.617C111.3 100.483 111.555 100.396 111.82 100.361C112.085 100.326 112.354 100.344 112.612 100.413C112.869 100.482 113.111 100.601 113.323 100.763L113.324 100.764L113.28 100.824L113.325 100.764C113.752 101.092 114.032 101.577 114.102 102.111C114.173 102.646 114.028 103.186 113.701 103.614L105.462 114.358C105.272 114.605 105.027 114.805 104.746 114.943C104.466 115.081 104.157 115.152 103.845 115.151L103.843 115.153Z" fill="white"/>
<path d="M59.6644 90.302C58.8966 89.9773 58.0669 89.8248 57.2338 89.8554C56.4006 89.886 55.5844 90.0989 54.8424 90.4791C54.1005 90.8593 53.4509 91.3975 52.9395 92.0559C52.4281 92.7143 52.0673 93.4768 51.8824 94.2897L39.0381 96.4901L38.4716 104.622L56.5665 101.26C57.9528 101.48 59.3716 101.183 60.5541 100.427C61.7366 99.6711 62.6006 98.5074 62.9825 97.1568C63.3643 95.8061 63.2375 94.3623 62.6259 93.0989C62.0144 91.8355 60.9606 90.8404 59.6644 90.302Z" fill="#FFB8B8"/>
<path d="M37.6011 66.9612C39.4622 67.7974 40.93 69.3178 41.7003 71.2071C42.4705 73.0965 42.4839 75.2098 41.7379 77.1088L34.2925 96.0599L43.6395 94.3419C44.2232 94.2346 44.826 94.3444 45.3343 94.6506C45.8427 94.9568 46.2216 95.4382 46.3997 96.0043L48.263 101.926C48.3603 102.235 48.3948 102.561 48.3645 102.884C48.3341 103.207 48.2395 103.52 48.0861 103.806C47.9328 104.092 47.7239 104.344 47.4716 104.548C47.2194 104.752 46.9289 104.903 46.6173 104.993L34.4684 108.501C32.9316 108.945 31.3129 109.026 29.7393 108.739C28.1657 108.452 26.6801 107.804 25.399 106.846C24.118 105.888 23.0764 104.646 22.3561 103.218C21.6357 101.79 21.2562 100.214 21.2473 98.6145C21.2431 97.8671 21.3199 97.1213 21.4764 96.3904L26.5812 72.5427C26.8291 71.3846 27.3329 70.2967 28.0556 69.3585C28.7784 68.4203 29.7018 67.6557 30.7583 67.1205C31.8148 66.5854 32.9777 66.2934 34.1616 66.2658C35.3456 66.2383 36.5208 66.4758 37.6011 66.9612Z" fill="#B6CFFB"/>
</g>
<defs>
<clipPath id="clip0_5457_44961">
<rect width="349.18" height="250" fill="white"/>
</clipPath>
</defs>
</svg>
