<svg width="52" height="46" viewBox="0 0 52 46" fill="none" xmlns="http://www.w3.org/2000/svg">
<path fill-rule="evenodd" clip-rule="evenodd" d="M4.89648 14.6874C4.89648 12.8871 6.3598 11.4238 8.16012 11.4238C9.96045 11.4238 11.4238 12.8871 11.4238 14.6874C11.4238 16.4877 9.96041 17.9511 8.16012 17.9511C6.35983 17.9511 4.89648 16.4877 4.89648 14.6874ZM9.79194 14.6874C9.79194 13.7883 9.05923 13.0556 8.16012 13.0556C7.26101 13.0556 6.5283 13.7883 6.5283 14.6874C6.5283 15.5865 7.26106 16.3193 8.16012 16.3193C9.05919 16.3193 9.79194 15.5865 9.79194 14.6874Z" fill="#E1000F"/>
<path fill-rule="evenodd" clip-rule="evenodd" d="M13.0556 11.4238C13.0556 9.62342 14.5189 8.16016 16.3192 8.16016C18.1195 8.16016 19.5829 9.62342 19.5829 11.4238C19.5829 13.2241 18.1195 14.6874 16.3192 14.6874C14.5189 14.6874 13.0556 13.2241 13.0556 11.4238ZM17.951 11.4238C17.951 10.5247 17.2183 9.79198 16.3192 9.79198C15.4201 9.79198 14.6874 10.5247 14.6874 11.4238C14.6874 12.3229 15.4202 13.0556 16.3192 13.0556C17.2183 13.0556 17.951 12.3229 17.951 11.4238Z" fill="#E1000F"/>
<path d="M13.5066 11.5099C13.9096 11.3084 14.3997 11.4718 14.6013 11.8748C14.7884 12.2491 14.6609 12.6984 14.319 12.922L14.2364 12.9695L10.9727 14.6013C10.5697 14.8028 10.0796 14.6395 9.87808 14.2364C9.69095 13.8622 9.81845 13.4128 10.1603 13.1892L10.243 13.1418L13.5066 11.5099Z" fill="#E1000F"/>
<path d="M18.19 12.4787C18.4841 12.1846 18.9469 12.1619 19.267 12.4108L19.3439 12.4787L22.6075 15.7423C22.9262 16.0609 22.9262 16.5776 22.6075 16.8962C22.3134 17.1903 21.8506 17.2129 21.5305 16.9641L21.4536 16.8962L18.19 13.6325C17.8714 13.3139 17.8714 12.7973 18.19 12.4787Z" fill="#E1000F"/>
<path fill-rule="evenodd" clip-rule="evenodd" d="M32.6374 17.9511C32.6374 13.4512 36.2967 9.79198 40.7965 9.79198C45.2963 9.79198 48.9556 13.4512 48.9556 17.9511C48.9556 22.4507 45.2962 26.1102 40.7965 26.1102C36.2969 26.1102 32.6374 22.4507 32.6374 17.9511ZM47.3238 17.9511C47.3238 14.3524 44.3951 11.4238 40.7965 11.4238C37.198 11.4238 34.2692 14.3524 34.2692 17.9511C34.2692 21.5495 37.1981 24.4783 40.7965 24.4783C44.3949 24.4783 47.3238 21.5495 47.3238 17.9511Z" fill="#E1000F"/>
<path d="M40.8264 13.6527C40.9473 13.2186 41.3972 12.9646 41.8313 13.0855C43.7401 13.617 45.2035 15.1142 45.591 16.9705C45.683 17.4117 45.4 17.8439 44.9589 17.9359C44.5178 18.028 44.0856 17.745 43.9935 17.3039C43.7336 16.0585 42.7273 15.0289 41.3935 14.6575C40.9594 14.5367 40.7055 14.0868 40.8264 13.6527Z" fill="#E1000F"/>
<path d="M45.6627 22.9558C46.025 22.7466 46.4812 22.847 46.7249 23.1748L46.7772 23.2545L51.6727 31.7337C52.3486 32.9044 51.9475 34.4014 50.7768 35.0773C49.6478 35.7291 48.2155 35.3794 47.5086 34.3039L47.4331 34.1814L42.5376 25.7022C42.3123 25.312 42.446 24.813 42.8363 24.5877C43.1986 24.3784 43.6548 24.4788 43.8985 24.8066L43.9508 24.8863L48.8463 33.3655C49.0716 33.7557 49.5706 33.8894 49.9608 33.6641C50.3232 33.4549 50.4644 33.0097 50.3023 32.6347L50.2595 32.5496L45.364 24.0704C45.1387 23.6801 45.2724 23.1811 45.6627 22.9558Z" fill="#E1000F"/>
<path d="M28.193 14.7736C28.596 14.572 29.0861 14.7354 29.2876 15.1385C29.4748 15.5127 29.3473 15.962 29.0054 16.1857L28.9227 16.2331L27.2909 17.049C26.8879 17.2505 26.3978 17.0872 26.1963 16.6841C26.0091 16.3099 26.1366 15.8606 26.4785 15.6369L26.5612 15.5895L28.193 14.7736Z" fill="#E1000F"/>
<path fill-rule="evenodd" clip-rule="evenodd" d="M21.2147 16.3193C21.2147 14.5189 22.678 13.0556 24.4783 13.0556C26.2786 13.0556 27.742 14.5189 27.742 16.3193C27.742 18.1195 26.2786 19.5829 24.4783 19.5829C22.678 19.5829 21.2147 18.1195 21.2147 16.3193ZM26.1101 16.3193C26.1101 15.4201 25.3774 14.6874 24.4783 14.6874C23.5792 14.6874 22.8465 15.4201 22.8465 16.3193C22.8465 17.2183 23.5793 17.9511 24.4783 17.9511C25.3774 17.9511 26.1101 17.2183 26.1101 16.3193Z" fill="#E1000F"/>
<path d="M39.9796 3.26364C40.398 3.26364 40.7429 3.57861 40.79 3.9844L40.7955 4.07955V5.71137C40.7955 6.16198 40.4302 6.52728 39.9796 6.52728C39.5611 6.52728 39.2163 6.2123 39.1692 5.80652L39.1637 5.71137V4.89546H1.63182V34.2682H39.1637V30.1887C39.1637 29.7702 39.4786 29.4254 39.8844 29.3782L39.9796 29.3727C40.398 29.3727 40.7429 29.6877 40.79 30.0935L40.7955 30.1887V35.0841C40.7955 35.5025 40.4805 35.8474 40.0747 35.8945L39.9796 35.9H0.81591C0.397482 35.9 0.0526203 35.585 0.00548922 35.1793L0 35.0841V4.07955C0 3.66112 0.314974 3.31626 0.720757 3.26913L0.81591 3.26364H39.9796Z" fill="#3558A2"/>
<path d="M23.6614 4.89546C24.0798 4.89546 24.4247 4.58048 24.4718 4.1747L24.4773 4.07955V2.44773C24.4773 1.14417 23.4583 0.0786041 22.1734 0.00415512L22.0296 0H18.7659C17.4624 0 16.3968 1.01901 16.3223 2.30391L16.3182 2.44773V4.07955C16.3182 4.53016 16.6835 4.89546 17.1341 4.89546C17.5525 4.89546 17.8974 4.58048 17.9445 4.1747L17.95 4.07955V2.44773C17.95 2.0293 18.265 1.68444 18.6708 1.63731L18.7659 1.63182H22.0296C22.448 1.63182 22.7928 1.94679 22.84 2.35258L22.8455 2.44773V4.07955C22.8455 4.53016 23.2108 4.89546 23.6614 4.89546Z" fill="#3558A2"/>
<path d="M33.4523 34.2682C33.8707 34.2682 34.2156 34.5832 34.2627 34.989L34.2682 35.0841V36.7159C34.2682 38.0195 33.2492 39.0851 31.9643 39.1595L31.8205 39.1637H8.97501C7.67144 39.1637 6.60588 38.1447 6.53143 36.8598L6.52728 36.7159V35.0841C6.52728 34.6335 6.89257 34.2682 7.34319 34.2682C7.76161 34.2682 8.10648 34.5832 8.15361 34.989L8.1591 35.0841V36.7159C8.1591 37.1344 8.47407 37.4792 8.87985 37.5263L8.97501 37.5318H31.8205C32.2389 37.5318 32.5838 37.2169 32.6309 36.8111L32.6364 36.7159V35.0841C32.6364 34.6335 33.0017 34.2682 33.4523 34.2682Z" fill="#3558A2"/>
<path d="M22.6823 37.8582C22.4119 37.4977 21.9005 37.4247 21.54 37.695C21.2072 37.9446 21.1194 38.3996 21.3205 38.7516L21.3768 38.8373L26.2723 45.3646C26.5427 45.7251 27.0541 45.7981 27.4146 45.5278C27.7473 45.2782 27.8352 44.8232 27.6341 44.4712L27.5777 44.3855L22.6823 37.8582Z" fill="#3558A2"/>
<path d="M10.6068 21.2136C11.0253 21.2136 11.3701 21.5286 11.4172 21.9344L11.4227 22.0296V23.6614C11.4227 24.112 11.0574 24.4773 10.6068 24.4773C10.1884 24.4773 9.84353 24.1623 9.7964 23.7565L9.79091 23.6614V22.8455H6.52728V29.3727H9.79091V26.925C9.79091 26.5066 10.1059 26.1617 10.5117 26.1146L10.6068 26.1091C11.0253 26.1091 11.3701 26.4241 11.4172 26.8299L11.4227 26.925V30.1887C11.4227 30.6071 11.1078 30.9519 10.702 30.9991L10.6068 31.0046H5.71137C5.29294 31.0046 4.94808 30.6896 4.90095 30.2838L4.89546 30.1887V22.0296C4.89546 21.6111 5.21043 21.2663 5.61621 21.2191L5.71137 21.2136H10.6068Z" fill="#3558A2"/>
<path d="M15.5023 17.95C15.9529 17.95 16.3182 18.3153 16.3182 18.7659C16.3182 19.1843 16.0032 19.5292 15.5974 19.5763L15.5023 19.5818H14.6864V29.3727H17.95V20.3977C17.95 19.9793 18.265 19.6344 18.6708 19.5873L18.7659 19.5818C19.1843 19.5818 19.5292 19.8968 19.5763 20.3026L19.5818 20.3977V30.1887C19.5818 30.6071 19.2669 30.9519 18.8611 30.9991L18.7659 31.0046H13.8705C13.452 31.0046 13.1072 30.6896 13.06 30.2838L13.0546 30.1887V18.7659C13.0546 18.3475 13.3695 18.0026 13.7753 17.9555L13.8705 17.95H15.5023Z" fill="#3558A2"/>
<path d="M23.6614 24.4773C24.112 24.4773 24.4773 24.8426 24.4773 25.2932C24.4773 25.7116 24.1623 26.0565 23.7565 26.1036L23.6614 26.1091H22.8455V29.3727H26.1091V25.2932C26.1091 24.8748 26.4241 24.5299 26.8299 24.4828L26.925 24.4773C27.3434 24.4773 27.6883 24.7923 27.7354 25.198L27.7409 25.2932V30.1887C27.7409 30.6071 27.426 30.9519 27.0202 30.9991L26.925 31.0046H22.0296C21.6111 31.0046 21.2663 30.6896 21.2191 30.2838L21.2136 30.1887V25.2932C21.2136 24.8748 21.5286 24.5299 21.9344 24.4828L22.0296 24.4773H23.6614Z" fill="#3558A2"/>
<path d="M30.1887 22.8455C30.6071 22.8455 30.9519 23.1604 30.9991 23.5662L31.0046 23.6614V29.3727H34.2682V28.5568C34.2682 28.1384 34.5832 27.7935 34.989 27.7464L35.0841 27.7409C35.5025 27.7409 35.8474 28.0559 35.8945 28.4617L35.9 28.5568V30.1887C35.9 30.6071 35.585 30.9519 35.1793 30.9991L35.0841 31.0046H30.1887C29.7702 31.0046 29.4254 30.6896 29.3782 30.2838L29.3727 30.1887V23.6614C29.3727 23.2108 29.738 22.8455 30.1887 22.8455Z" fill="#3558A2"/>
<path d="M18.1132 37.8582C18.3836 37.4977 18.895 37.4247 19.2555 37.695C19.5882 37.9446 19.6761 38.3996 19.475 38.7516L19.4186 38.8373L14.5232 45.3646C14.2528 45.7251 13.7414 45.7981 13.3809 45.5278C13.0482 45.2782 12.9603 44.8232 13.1614 44.4712L13.2177 44.3855L18.1132 37.8582Z" fill="#3558A2"/>
</svg>
