<svg width="52" height="52" viewBox="0 0 52 52" fill="none" xmlns="http://www.w3.org/2000/svg">
<path fill-rule="evenodd" clip-rule="evenodd" d="M26.5665 3.8908L32.545 8.00098H42C42.5523 8.00098 43 8.44869 43 9.00098V15.1888L49.5665 19.7033C49.8379 19.8899 50 20.198 50 20.5273V47.0013C50 47.5536 49.5523 48.0013 49 48.0013H3C2.44771 48.0013 2 47.5536 2 47.0013V20.5273C2 20.198 2.16212 19.8899 2.43347 19.7033L9 15.1888V9.00098C9 8.44869 9.44772 8.00098 10 8.00098H19.455L25.4335 3.8908C25.7747 3.65619 26.2253 3.65619 26.5665 3.8908ZM22.9853 8.00098H29.0147L26 5.92837L22.9853 8.00098ZM9 17.6159L4 21.0534V21.3761L9 24.8136V17.6159ZM11 26.1886L21.5366 33.4325L24.41 31.6366C25.3828 31.0286 26.6172 31.0286 27.59 31.6366L30.4634 33.4325L41 26.1886V10.001H11V26.1886ZM43 24.8136L48 21.3761V21.0534L43 17.6159V24.8136ZM48 23.8031L32.3128 34.5881L48 44.3926V23.8031ZM4 44.3926L19.6872 34.5881L4 23.8031V44.3926ZM25.47 33.3326L5.2 46.0013H46.8L26.53 33.3326C26.2057 33.1299 25.7943 33.1299 25.47 33.3326Z" fill="#3558A2"/>
<path d="M16 17C16 16.4477 16.4713 16 17.0526 16H34.9474C35.5287 16 36 16.4477 36 17C36 17.5523 35.5287 18 34.9474 18H17.0526C16.4713 18 16 17.5523 16 17Z" fill="#E1000F"/>
<path d="M17.0526 22C16.4713 22 16 22.4477 16 23C16 23.5523 16.4713 24 17.0526 24H34.9474C35.5287 24 36 23.5523 36 23C36 22.4477 35.5287 22 34.9474 22H17.0526Z" fill="#E1000F"/>
</svg>
