<svg width="52" height="52" viewBox="0 0 52 52" fill="none" xmlns="http://www.w3.org/2000/svg">
<g clip-path="url(#clip0_5460_67935)">
<path d="M40.9993 2H10.9992C9.3424 2 7.99925 3.34314 7.99925 5V15C7.99925 15 7.99925 16 8.99925 16C9.99925 16 9.99925 15 9.99925 15V5C9.99925 4.44771 10.447 4 10.9992 4H40.9993C41.5515 4 41.9993 4.44772 41.9993 5V32H43.9993V5C43.9993 3.34315 42.6561 2 40.9993 2Z" fill="#3558A2"/>
<path d="M29.999 48V50H10.7324C9.07557 50 7.73242 48.6569 7.73242 47V24C7.73242 24 7.73242 23 8.73242 23C9.73242 23 9.73242 24 9.73242 24V47C9.73242 47.5523 10.1801 48 10.7324 48H29.999Z" fill="#3558A2"/>
<path d="M8.99925 20C9.55153 20 9.99925 19.5523 9.99925 19C9.99925 18.4477 9.55153 18 8.99925 18C8.44696 18 7.99925 18.4477 7.99925 19C7.99925 19.5523 8.44696 20 8.99925 20Z" fill="#3558A2"/>
<path fill-rule="evenodd" clip-rule="evenodd" d="M47.9346 40.3938C48.6667 41.0672 49.1265 42.0338 49.1265 43.1063C49.1265 44.1788 48.6667 45.1453 47.9346 45.8188C48.6667 46.4922 49.1265 47.4587 49.1265 48.5313C49.1265 50.5611 47.48 52.2125 45.4563 52.2125C45.4563 52.2125 36.627 52.2121 35.127 52.2125C33.627 52.2129 32.4378 50.275 32.4378 50.275C32.1491 49.7394 31.9983 49.1401 31.999 48.5313C31.999 47.4587 32.459 46.4922 33.191 45.8188C32.4589 45.1453 31.999 44.1788 31.999 43.1063C31.999 42.0338 32.459 41.0672 33.191 40.3938C32.4589 39.7203 31.999 38.7538 31.999 37.6813C31.999 35.6514 33.6455 34 35.6692 34H45.4563C47.48 34 49.1265 35.6514 49.1265 37.6813C49.1265 38.7538 48.6666 39.7203 47.9346 40.3938ZM35.6692 50.275H45.4563C46.4149 50.275 47.1948 49.4927 47.1948 48.5313C47.1948 47.5698 46.4149 46.7875 45.4563 46.7875H35.6692C34.7106 46.7875 33.9307 47.5698 33.9307 48.5313C33.9307 49.4927 34.7106 50.275 35.6692 50.275ZM35.6692 44.85H45.4563C46.4149 44.85 47.1948 44.0677 47.1948 43.1063C47.1948 42.1448 46.4149 41.3625 45.4563 41.3625H35.6692C34.7106 41.3625 33.9307 42.1448 33.9307 43.1063C33.9307 44.0677 34.7106 44.85 35.6692 44.85ZM35.6692 39.425H45.4563C46.4149 39.425 47.1948 38.6427 47.1948 37.6813C47.1948 36.7198 46.4149 35.9375 45.4563 35.9375H35.6692C34.7106 35.9375 33.9307 36.7198 33.9307 37.6813C33.9307 38.6427 34.7106 39.425 35.6692 39.425Z" fill="#3558A2"/>
<path fill-rule="evenodd" clip-rule="evenodd" d="M14 12C14 11.4477 14.4477 11 15 11H37C37.5523 11 38 11.4477 38 12V18C38 18.5523 37.5523 19 37 19H15C14.4477 19 14 18.5523 14 18V12ZM16 17V13H36V17H16Z" fill="#E1000F"/>
<path d="M15 26C14.4477 26 14 26.4477 14 27C14 27.5523 14.4477 28 15 28H18C18.5523 28 19 27.5523 19 27C19 26.4477 18.5523 26 18 26H15Z" fill="#E1000F"/>
<path d="M25 26C24.4477 26 24 26.4477 24 27C24 27.5523 24.4477 28 25 28H28C28.5523 28 29 27.5523 29 27C29 26.4477 28.5523 26 28 26H25Z" fill="#E1000F"/>
<path d="M33 27C33 26.4477 33.4477 26 34 26H37C37.5523 26 38 26.4477 38 27C38 27.5523 37.5523 28 37 28H34C33.4477 28 33 27.5523 33 27Z" fill="#E1000F"/>
<path d="M15 33C14.4477 33 14 33.4477 14 34C14 34.5523 14.4477 35 15 35H18C18.5523 35 19 34.5523 19 34C19 33.4477 18.5523 33 18 33H15Z" fill="#E1000F"/>
<path d="M24 34C24 33.4477 24.4477 33 25 33H28C28.5523 33 29 33.4477 29 34C29 34.5523 28.5523 35 28 35H25C24.4477 35 24 34.5523 24 34Z" fill="#E1000F"/>
<path d="M14 41C14 40.4477 14.4477 40 15 40H18C18.5523 40 19 40.4477 19 41C19 41.5523 18.5523 42 18 42H15C14.4477 42 14 41.5523 14 41Z" fill="#E1000F"/>
<path d="M25 40C24.4477 40 24 40.4477 24 41C24 41.5523 24.4477 42 25 42H28C28.5523 42 29 41.5523 29 41C29 40.4477 28.5523 40 28 40H25Z" fill="#E1000F"/>
</g>
<defs>
<clipPath id="clip0_5460_67935">
<rect width="52" height="52" fill="white"/>
</clipPath>
</defs>
</svg>
