<svg width="52" height="52" viewBox="0 0 52 52" fill="none" xmlns="http://www.w3.org/2000/svg">
<path d="M42.4531 2H9.54687C7.86683 2 6.5 3.36683 6.5 5.04688V15C6.5 15.5609 6.9548 16 7.51562 16C8.07645 16 8.53125 15.5609 8.53125 15V5.04688C8.53125 4.48686 8.98686 4.03125 9.54687 4.03125H42.4531C43.0131 4.03125 43.4688 4.48686 43.4688 5.04688V46.9531C43.4688 47.5131 43.0131 47.9688 42.4531 47.9688H9.54687C8.98686 47.9688 8.53125 47.5131 8.53125 46.9531V23.9713C8.53125 23.4104 8.07645 22.9557 7.51562 22.9557C6.9548 22.9557 6.5 23.4104 6.5 23.9713V46.9531C6.5 48.6332 7.86683 50 9.54687 50H42.4531C44.1332 50 45.5 48.6332 45.5 46.9531V5.04688C45.5 3.36683 44.1332 2 42.4531 2Z" fill="#3558A2"/>
<path d="M7.56152 18C7.82863 18 8.09066 18.1077 8.27947 18.2966C8.46837 18.4865 8.57715 18.7475 8.57715 19.0146C8.57647 19.2841 8.4695 19.5425 8.27947 19.7337C8.09056 19.9226 7.82853 20.0312 7.56152 20.0312C7.29441 20.0312 7.03238 19.9226 6.84348 19.7337C6.65369 19.5424 6.54679 19.2841 6.5459 19.0146C6.54713 18.7455 6.654 18.4877 6.84348 18.2966C7.03238 18.1077 7.29441 18 7.56152 18Z" fill="#3558A2"/>
<path d="M20.6254 36.2974C20.2287 35.9009 19.5858 35.9008 19.189 36.2974L16.4892 38.9972L15.2338 37.7418C14.8372 37.3452 14.1944 37.3453 13.7975 37.7418C13.4008 38.1384 13.4008 38.7815 13.7975 39.1781L15.771 41.1517C15.9615 41.3421 16.2199 41.4491 16.4892 41.4491C16.7586 41.4491 17.0169 41.3421 17.2074 41.1517L20.6254 37.7337C21.022 37.3371 21.022 36.694 20.6254 36.2974Z" fill="#3558A2"/>
<path d="M20.685 28.2974C20.2883 27.9009 19.6454 27.9008 19.2486 28.2974L16.5487 30.9972L15.2934 29.7418C14.8968 29.3452 14.2539 29.3453 13.857 29.7418C13.4604 30.1384 13.4604 30.7815 13.857 31.1781L15.8306 33.1517C16.0211 33.3421 16.2794 33.4491 16.5488 33.4491C16.8181 33.4491 17.0765 33.3421 17.267 33.1517L20.685 29.7337C21.0816 29.3371 21.0816 28.694 20.685 28.2974Z" fill="#3558A2"/>
<path d="M38.4756 29H26.5244C25.9587 29 25.5 29.4477 25.5 30C25.5 30.5523 25.9587 31 26.5244 31H38.4756C39.0413 31 39.5 30.5523 39.5 30C39.5 29.4477 39.0413 29 38.4756 29Z" fill="#E1000F"/>
<path d="M38.4756 38H26.5244C25.9587 38 25.5 38.4477 25.5 39C25.5 39.5523 25.9587 40 26.5244 40H38.4756C39.0413 40 39.5 39.5523 39.5 39C39.5 38.4477 39.0413 38 38.4756 38Z" fill="#E1000F"/>
<rect x="13.5" y="19" width="26" height="2" rx="1" fill="#E1000F"/>
<rect x="13.5" y="13" width="26" height="2" rx="1" fill="#E1000F"/>
<rect x="13.5" y="7" width="26" height="2" rx="1" fill="#E1000F"/>
</svg>
