<svg xmlns="http://www.w3.org/2000/svg" viewBox="0 0 511.999 511.999" fill="#4c5467"><path d="M430.475 0H133.634C98.626 0 70.146 28.482 70.146 63.49v385.02c0 35.009 28.481 63.49 63.49 63.49h296.84c6.284 0 11.379-5.094 11.379-11.379 0-.241-.022-.477-.036-.715.015-.238.036-.473.036-.715V11.379C441.854 5.094 436.758 0 430.475 0zM122.256 487.614c-16.938-4.939-29.352-20.593-29.352-39.103V112.144a63.271 63.271 0 0 0 29.352 13.795v361.675zm11.378-383.393c-22.459 0-40.731-18.273-40.731-40.731s18.273-40.731 40.731-40.731h248.188c-9.251 11.033-14.836 25.24-14.836 40.731s5.585 29.698 14.836 40.731H133.634zm211.5 22.759v66.762l-13.588-10.118a11.378 11.378 0 0 0-13.599.005l-13.724 10.234V126.98h40.911zm73.962 362.261H145.013V126.98h136.452v89.563a11.378 11.378 0 0 0 18.183 9.121l25.108-18.724 24.962 18.588a11.378 11.378 0 0 0 18.176-9.127v-89.422h51.202v362.262zm0-386.648C402.158 97.655 389.743 82 389.743 63.489s12.415-34.164 29.352-39.102v78.206z"/><path d="M337.873 272.456H226.235c-6.285 0-11.379 5.094-11.379 11.379 0 6.286 5.096 11.379 11.379 11.379h111.638c6.284 0 11.379-5.094 11.379-11.379s-5.096-11.379-11.379-11.379zM369.673 343.765H194.435c-6.285 0-11.379 5.094-11.379 11.379s5.094 11.379 11.379 11.379h175.238c6.284 0 11.379-5.094 11.379-11.379s-5.094-11.379-11.379-11.379z"/></svg>