<svg xmlns="http://www.w3.org/2000/svg" viewBox="0 0 512 512" fill="#4c5467"><path d="M108.064 299.735c-7.664 0-13.873 6.219-13.873 13.884 0 7.664 6.209 13.884 13.873 13.884 7.675 0 13.884-6.219 13.884-13.884s-6.209-13.884-13.884-13.884z"/><path d="M477.28 193.324l-97.552-39.096c-16.24-6.513-33.348-9.811-50.854-9.811h-59.796c-21.422 0-42.845 5.13-61.943 14.847l-88.391 44.949-63.408 9.245a64.673 64.673 0 0 0-39.588 21.705A64.7 64.7 0 0 0 0 277.464v37.421c0 5.78 4.691 10.47 10.47 10.47h44.918c2.251 10.188 7.413 19.506 15.035 26.94 10.135 9.853 23.506 15.287 37.651 15.287 14.135 0 27.506-5.434 37.641-15.287 7.633-7.444 12.805-16.784 15.046-26.94h187.66c2.251 10.188 7.413 19.506 15.046 26.93 10.125 9.863 23.495 15.297 37.63 15.297 14.145 0 27.516-5.434 37.641-15.287 7.633-7.434 12.795-16.753 15.046-26.94h47.745c5.78 0 10.47-4.691 10.47-10.47V244.65c.001-22.721-13.631-42.865-34.719-51.326zm-105.342-19.663l75.303 30.186h-56.823l-25.014-32.573c2.189.733 4.367 1.529 6.534 2.387zm-93.039-8.303h49.975c1.906 0 3.801.042 5.685.136l29.453 38.353h-85.113v-38.489zm-62.278 12.575c12.868-6.544 26.972-10.627 41.337-12.02v37.934h-92.296l50.959-25.914zM56.739 234.462c-4.303 14.564-17.15 25.495-32.709 26.982 5.454-13.684 17.673-24.207 32.709-26.982zm51.325 112.18c-18.239 0-33.023-14.784-33.023-33.023 0-18.239 14.784-33.023 33.023-33.023s33.023 14.784 33.023 33.023c.001 18.239-14.783 33.023-33.023 33.023zm293.045 0c-18.239 0-33.034-14.784-33.034-33.023 0-18.239 14.795-33.023 33.034-33.023 18.239 0 33.023 14.784 33.023 33.023 0 18.239-14.784 33.023-33.023 33.023zm89.95-42.227h-36.793c-4.387-25.38-26.542-44.761-53.168-44.761-26.616 0-48.771 19.381-53.158 44.761H161.243c-4.387-25.38-26.553-44.761-53.168-44.761-26.626 0-48.781 19.381-53.168 44.761H20.941v-21.862c29.663-.272 54.142-22.595 57.796-51.347l44.028-6.418H451.533v13.632c0 19.161 15.59 34.751 34.741 34.751h4.785v31.244zm0-52.184h-4.785c-7.602 0-13.8-6.198-13.8-13.81v-13.632h12.282a34.314 34.314 0 0 1 6.303 19.862v7.58z"/><path d="M401.109 299.735c-7.675 0-13.884 6.219-13.884 13.884 0 7.664 6.209 13.884 13.884 13.884 7.664 0 13.873-6.219 13.873-13.884s-6.209-13.884-13.873-13.884zM290.199 254.133h-69.446c-5.783 0-10.47 4.688-10.47 10.47s4.688 10.47 10.47 10.47h69.446c5.782 0 10.47-4.688 10.47-10.47s-4.688-10.47-10.47-10.47zM108.064 299.735c-7.664 0-13.873 6.219-13.873 13.884 0 7.664 6.209 13.884 13.873 13.884 7.675 0 13.884-6.219 13.884-13.884s-6.209-13.884-13.884-13.884z"/><path d="M401.109 299.735c-7.675 0-13.884 6.219-13.884 13.884 0 7.664 6.209 13.884 13.884 13.884 7.664 0 13.873-6.219 13.873-13.884s-6.209-13.884-13.873-13.884zM108.064 299.735c-7.664 0-13.873 6.219-13.873 13.884 0 7.664 6.209 13.884 13.873 13.884 7.675 0 13.884-6.219 13.884-13.884s-6.209-13.884-13.884-13.884z"/><path d="M401.109 299.735c-7.675 0-13.884 6.219-13.884 13.884 0 7.664 6.209 13.884 13.884 13.884 7.664 0 13.873-6.219 13.873-13.884s-6.209-13.884-13.873-13.884z"/></svg>