<svg xmlns="http://www.w3.org/2000/svg" viewBox="0 0 512 512" fill="#4c5467"><path d="M361.801 177.594l66.841-89.629a11.805 11.805 0 0 0-9.465-18.863H131.395V54.049c9.736-4.484 16.515-14.328 16.515-25.731C147.909 12.704 135.206 0 119.591 0S91.272 12.704 91.272 28.318c0 11.402 6.777 21.245 16.511 25.73V488.39H92.822c-6.519 0-11.805 5.285-11.805 11.805S86.303 512 92.822 512h53.537c6.519 0 11.805-5.285 11.805-11.805s-5.286-11.805-11.805-11.805h-14.965V285.645h287.354a11.806 11.806 0 0 0 9.468-18.856l-66.415-89.195zM119.591 35.387c-3.898 0-7.068-3.171-7.068-7.069-.001-3.897 3.17-7.068 7.068-7.068s7.069 3.171 7.069 7.068c0 3.898-3.172 7.069-7.069 7.069zm11.805 226.648v-39.211h37.623c6.52 0 11.805-5.285 11.805-11.805s-5.285-11.805-11.805-11.805h-37.623v-43.676h58.871c6.52 0 11.805-5.285 11.805-11.805s-5.285-11.805-11.805-11.805h-58.871V92.714h264.251l-58.033 77.819a11.808 11.808 0 0 0-.005 14.109l57.63 77.394H131.396z"/></svg>