<svg xmlns="http://www.w3.org/2000/svg" viewBox="0 0 511.999 511.999" fill="#4c5467"><path d="M422.846 132.411H89.154c-6.085 0-11.019 4.933-11.019 11.019v166.424c0 6.086 4.934 11.019 11.019 11.019s11.019-4.933 11.019-11.019V154.448h311.654v155.405c0 6.086 4.934 11.019 11.019 11.019s11.019-4.933 11.019-11.019V143.429c-.001-6.085-4.935-11.018-11.019-11.018z"/><path d="M502.083 349.202h-20.295V117.797c0-18.366-14.942-33.308-33.308-33.308H63.52c-18.367 0-33.308 14.942-33.308 33.308v231.405H9.917c-5.477 0-9.917 4.439-9.917 9.917v19.468c0 26.977 21.947 48.924 48.924 48.924h414.151c26.977 0 48.924-21.947 48.924-48.924v-19.468c.001-5.478-4.438-9.917-9.916-9.917zM52.249 117.797c0-6.214 5.057-11.271 11.271-11.271h384.958c6.216 0 11.271 5.056 11.271 11.271v231.405h-149.2a9.915 9.915 0 0 0-10.189 9.913c0 8.371-6.81 15.18-15.179 15.18H226.82c-8.371 0-15.179-6.81-15.179-15.18 0-5.553-4.601-10.034-10.147-9.915H52.249V117.797zm439.917 260.79c0 16.041-13.051 29.09-29.09 29.09H48.924c-16.04 0-29.09-13.049-29.09-29.09v-9.551h173.403c4.287 14.491 17.72 25.094 33.582 25.094h58.361c15.862 0 29.295-10.604 33.583-25.094h173.404v9.551z"/><path d="M272.331 196.459c-4.304-4.303-11.279-4.303-15.584 0l-69.297 69.3c-4.303 4.303-4.303 11.28 0 15.583a10.983 10.983 0 0 0 7.791 3.227 10.99 10.99 0 0 0 7.791-3.227l69.299-69.299c4.303-4.303 4.303-11.28 0-15.584zM313.405 236.619c-4.304-4.303-11.279-4.303-15.583 0l-27.606 27.606c-4.303 4.303-4.303 11.28 0 15.584a10.983 10.983 0 0 0 7.791 3.227 10.98 10.98 0 0 0 7.791-3.227l27.606-27.606c4.304-4.303 4.304-11.28.001-15.584z"/></svg>