<svg xmlns="http://www.w3.org/2000/svg" viewBox="0 0 512.001 512.001" fill="#4c5467"><path d="M512 256.001c0-10.821-6.012-20.551-15.694-25.398l-38.122-19.061 38.122-19.06a.014.014 0 0 1 .004-.002c9.68-4.845 15.692-14.576 15.692-25.397 0-10.819-6.013-20.55-15.694-25.397L281.09 34.08c-15.712-7.849-34.47-7.849-50.185.001L15.691 141.691C6.013 146.534 0 156.264 0 167.084c0 10.821 6.012 20.551 15.694 25.398l38.121 19.06-38.126 19.063C6.012 235.45 0 245.18 0 256.001s6.012 20.551 15.694 25.397l38.121 19.061-38.118 19.059C6.02 324.353.004 334.08 0 344.902c-.004 10.828 6.008 20.564 15.694 25.412l215.215 107.608c7.856 3.925 16.471 5.886 25.09 5.886s17.238-1.963 25.095-5.887l215.215-107.608c9.682-4.845 15.695-14.582 15.691-25.41-.004-10.822-6.02-20.549-15.694-25.381l-38.122-19.061 38.126-19.063c9.678-4.846 15.69-14.576 15.69-25.397zm-485.775-84.57c-2.339-1.171-2.687-3.226-2.687-4.346s.35-3.175 2.683-4.343L241.429 55.138a32.617 32.617 0 0 1 14.573-3.418 32.614 32.614 0 0 1 14.567 3.417L485.776 162.74c2.337 1.17 2.687 3.225 2.687 4.345s-.348 3.175-2.687 4.346L270.572 279.032c-9.125 4.558-20.019 4.558-29.139.001L26.225 171.431zm459.558 169.144c2.33 1.164 2.679 3.215 2.679 4.336.001 1.123-.348 3.182-2.683 4.35L270.571 456.865c-9.125 4.558-20.019 4.559-29.139.001L26.225 349.262c-2.339-1.171-2.688-3.229-2.687-4.352 0-1.119.348-3.171 2.683-4.337l53.912-26.956 150.776 75.387c7.856 3.925 16.471 5.886 25.089 5.886 8.619 0 17.238-1.963 25.095-5.887l150.772-75.386 53.918 26.958zm-.005-80.23L270.571 367.949c-9.125 4.558-20.019 4.559-29.139.001L26.225 260.347c-2.339-1.17-2.687-3.225-2.687-4.345 0-1.122.348-3.175 2.683-4.344l53.912-26.956 150.776 75.387c7.855 3.925 16.472 5.886 25.089 5.886 8.617 0 17.237-1.962 25.094-5.888l150.774-75.386 53.908 26.954c2.339 1.171 2.687 3.225 2.687 4.346.001 1.12-.348 3.175-2.683 4.344z"/></svg>