<svg xmlns="http://www.w3.org/2000/svg" viewBox="0 0 512 512" fill="#4c5467"><path d="M457.602 54.355c-72.417-72.416-190.245-72.416-262.661 0-35.081 35.079-54.399 81.721-54.399 131.331 0 45.193 16.039 87.917 45.413 121.688l-22.119 22.119-22.542-22.542a13.173 13.173 0 0 0-18.628 0L17.055 412.563C6.057 423.559 0 438.18 0 453.733c0 15.552 6.057 30.174 17.053 41.17 10.998 10.998 25.619 17.054 41.17 17.054 15.551 0 30.174-6.057 41.17-17.053l105.612-105.61a13.173 13.173 0 0 0 0-18.628l-22.542-22.542 22.126-22.126c34.793 30.215 78.234 45.331 121.682 45.331 47.561 0 95.123-18.104 131.331-54.311C492.68 281.938 512 235.298 512 185.688c0-49.613-19.318-96.254-54.398-131.333zM80.765 476.275c-6.021 6.021-14.026 9.337-22.542 9.337-8.515 0-16.521-3.317-22.542-9.338-6.02-6.02-9.337-14.026-9.337-22.54s3.317-16.521 9.338-22.542l58.934-58.934L139.7 417.34l-58.935 58.935zm77.565-77.564l-45.084-45.084 18.734-18.734 45.084 45.085-18.734 18.733zm280.643-100.323c-62.144 62.146-163.259 62.146-225.403 0-30.104-30.104-46.683-70.128-46.683-112.702s16.579-82.598 46.683-112.701c31.072-31.072 71.887-46.609 112.702-46.609 40.814 0 81.63 15.535 112.702 46.609 30.104 30.103 46.683 70.128 46.683 112.701s-16.58 82.598-46.684 112.702z"/><path d="M417.234 94.721c-50.158-50.156-131.769-50.158-181.927 0-50.156 50.158-50.156 131.769.001 181.927 25.079 25.077 58.02 37.617 90.963 37.617s65.885-12.54 90.964-37.617v-.001c50.156-50.156 50.156-131.768-.001-181.926zM398.605 258.02c-39.886 39.886-104.783 39.886-144.669.001-39.886-39.886-39.886-104.784-.001-144.67 19.945-19.946 46.136-29.914 72.336-29.914 26.193 0 52.394 9.974 72.334 29.914 39.886 39.885 39.886 104.783 0 144.669z"/><path d="M375.321 136.636c-27.048-27.045-71.053-27.045-98.1 0-5.144 5.144-5.144 13.484 0 18.63 5.144 5.144 13.484 5.144 18.63 0 16.772-16.774 44.068-16.774 60.842 0a13.128 13.128 0 0 0 9.314 3.858 13.13 13.13 0 0 0 9.314-3.858c5.144-5.144 5.144-13.485 0-18.63z"/></svg>