<svg xmlns="http://www.w3.org/2000/svg" viewBox="0 0 512 512" fill="#4c5467"><path d="M449.511 137.648v-82.38c0-9.072-4.668-17.227-12.487-21.814-7.849-4.605-17.29-4.7-25.251-.247-76.024 42.516-158.725 67.345-245.805 73.802-.667.049-79.372.393-79.372.393-19.767 0-36.105 14.923-38.366 34.091H32.075C14.39 141.493 0 155.881 0 173.567v70.468c0 17.686 14.39 32.075 32.075 32.075h16.153c1.628 13.795 10.544 25.383 22.785 30.799l57.485 158.648c3.593 9.875 13.067 16.511 23.578 16.511h57.687a25.11 25.11 0 0 0 20.551-10.697 25.107 25.107 0 0 0 3.03-22.96l-49.389-136.237c80.482 8.361 157.039 32.601 227.817 72.183 3.905 2.184 8.166 3.273 12.42 3.273 4.417-.001 8.83-1.175 12.829-3.521 7.819-4.588 12.489-12.742 12.489-21.816v-82.38c35.201-4.56 62.49-34.709 62.49-71.132 0-36.424-27.289-66.574-62.489-71.133zM47.951 251.372H32.075a7.345 7.345 0 0 1-7.338-7.338v-70.467c0-4.044 3.291-7.337 7.338-7.337h15.876v85.142zm32.979 32.873c-4.85-2.174-8.242-7.039-8.242-12.688V146.044h.001c0-7.667 6.239-13.905 13.906-13.905h67.333v153.324s-67.92-.026-68.213-.044c-2.481-.287-3.003-.415-4.785-1.174zm129.161 172.608c.04.101.066.173-.041.324-.105.151-.183.151-.288.151h-57.687a.352.352 0 0 1-.327-.215L98.515 310.199h58.411l53.165 146.654zm214.683-94.559c0 .179 0 .322-.267.479-.318.184-.508.079-.66-.006-76.034-42.52-158.469-68.045-245.182-75.96v-156.04c86.72-7.927 169.155-33.454 245.179-75.97.156-.085.349-.19.663-.006.267.157.267.298.267.477v307.026zm24.737-107.421v-92.185c21.503 4.314 37.752 23.339 37.752 46.092 0 22.754-16.25 41.78-37.752 46.093z"/></svg>