<svg xmlns="http://www.w3.org/2000/svg" viewBox="0 0 512 512" fill="#4c5467"><path d="M437.019 74.981C388.668 26.629 324.38 0 256 0S123.333 26.629 74.981 74.981C26.629 123.333 0 187.62 0 256s26.629 132.667 74.981 181.019C123.333 485.371 187.62 512 256 512s132.668-26.629 181.019-74.981C485.371 388.667 512 324.38 512 256s-26.629-132.667-74.981-181.019zm-61.039 35.05l11.254-46.752c44.813 30.612 78.449 76.426 93.423 129.958l-5.895 1.134c-8.803 1.693-15.888 8.409-18.046 17.112l-2.287 9.218c-.025.104-.042.172-.209.231-.165.059-.222.017-.308-.047l-13.659-10.243c-7.08-5.31-16.72-6.089-24.558-1.984l-17.046 8.924c-8.175 4.28-12.901 12.661-12.333 21.873.568 9.211 6.287 16.948 14.93 20.193l.808.303c.093.035.162.06.204.228.042.166-.005.221-.072.297l-10.618 12.211a.332.332 0 0 1-.429.06l-28.62-18.466a23.01 23.01 0 0 0-21.882-1.702 23.014 23.014 0 0 0-13.414 17.37l-2.208 13.493a23.04 23.04 0 0 0 7.009 20.586l14.926 13.967c.118.11.139.288.05.422l-24.326 36.875a23.103 23.103 0 0 0-3.797 11.789l-2.111 52.793a.323.323 0 0 1-.099.221l-32.395 31.753a.332.332 0 0 1-.399.05l-21.006-12.305a.33.33 0 0 1-.156-.214s-10.191-46.244-10.572-47.269l-9.265-24.868c-3.096-8.308-10.802-14.172-19.632-14.939l-42.402-3.688a.326.326 0 0 1-.257-.164l-24.122-41.591a.337.337 0 0 1-.041-.215l6.067-40.337a.33.33 0 0 1 .127-.215l37.037-27.945a.334.334 0 0 1 .327-.041l35.888 14.972a23.119 23.119 0 0 0 6.391 1.643l49.706 5.403a23.038 23.038 0 0 0 15.944-4.188l32.932-23.605c8.872-6.359 12.081-18.209 7.63-28.177l-3.055-6.838a22.994 22.994 0 0 0-19.816-13.635l-92.487-5.064a.335.335 0 0 1-.144-.043c-.094-.053-.144-.096-.149-.096v.001c-.045-.104-.011-.367.042-.44a.803.803 0 0 1 .185-.071l27.766-7.484a23.16 23.16 0 0 0 9.838-5.5l33.956-32.043a.329.329 0 0 1 .191-.088l51.104-5.263c9.723-1 17.792-8.056 20.08-17.56zM202.878 91.244l19.104-35.958a26 26 0 0 0 2.503-17.384l-2.594-12.645a233.984 233.984 0 0 1 68.503.04s-2.737 2.992-3.21 3.181l-27.057 10.853a26.068 26.068 0 0 0-10.052 7.211l-42.157 49.274a3.201 3.201 0 0 1-2.289 1.113c-1.339.059-2.166-.68-2.553-1.11-1.499-1.668-.344-4.297-.198-4.575zm-99.454-11.526v34.139c0 9.535-4.779 18.318-12.777 23.506L66.15 153.259a50.537 50.537 0 0 0-14.302 13.972l-22.234 32.58c11.761-47.373 38.027-89.079 73.81-120.093zm14.871 335.867l-3.223 26.139C78.6 413.982 50.51 375.766 35.337 331.594h14.486a5.18 5.18 0 0 1 4.369 2.389l29.275 45.614a28.068 28.068 0 0 0 4.688 5.552l28.479 25.975a5.192 5.192 0 0 1 1.661 4.461zM256 489.244c-43.759 0-84.736-12.123-119.767-33.172l4.647-37.7a27.993 27.993 0 0 0-8.909-24.064s-29.104-26.624-29.355-27l-29.275-45.613c-5.166-8.055-13.961-12.857-23.518-12.857h-21.03A233.136 233.136 0 0 1 22.755 256c0-1.962.026-3.916.074-5.866l47.815-70.069a27.746 27.746 0 0 1 7.896-7.725l24.485-15.883c14.495-9.398 23.154-25.327 23.154-42.598V62.316c22.089-14.854 46.848-26.023 73.389-32.643l2.626 12.801a3.197 3.197 0 0 1-.308 2.136l-19.102 35.957c-1.194 2.245-2.741 8.149-2.741 8.149-1.551 7.852.547 15.84 5.757 21.916 4.968 5.795 12.086 9.057 19.67 9.057.369 0 11.37.537 19.738-9.078l42.156-49.271c.333-.39.762-.697 1.236-.887l27.055-10.852a26.042 26.042 0 0 0 10.011-7.162l10.213-11.875a231.786 231.786 0 0 1 51.117 20.34c-.264.604-13.142 53.804-13.142 53.804a.33.33 0 0 1-.287.25l-51.107 5.263a23.206 23.206 0 0 0-13.478 6.174l-33.956 32.043a.316.316 0 0 1-.14.077l-27.767 7.484a23.012 23.012 0 0 0-16.888 19.337 23.015 23.015 0 0 0 11.43 22.99 23.22 23.22 0 0 0 10.204 3.014l92.487 5.064a.329.329 0 0 1 .282.195l3.054 6.836a.33.33 0 0 1-.11.403l-32.932 23.605a.318.318 0 0 1-.226.06l-49.796-5.425-35.884-14.97c-7.539-3.147-16.271-2.043-22.793 2.876l-37.038 27.946a22.954 22.954 0 0 0-8.922 14.994l-6.068 40.338a23.175 23.175 0 0 0 2.859 15.013l24.123 41.594a23.111 23.111 0 0 0 17.97 11.418l42.403 3.688a.33.33 0 0 1 .28.214l9.277 24.913 9.652 44.141a23.158 23.158 0 0 0 10.883 14.987l21.007 12.306a23.002 23.002 0 0 0 11.645 3.154 23.106 23.106 0 0 0 16.183-6.588l32.395-31.753a23 23 0 0 0 6.909-15.565l2.111-52.789a.304.304 0 0 1 .055-.169l24.327-36.875a23.03 23.03 0 0 0-3.5-29.567l-14.927-13.967a.332.332 0 0 1-.1-.294l2.21-13.494c.018-.109.027-.175.191-.248.159-.073.217-.036.312.024l28.618 18.466c9.582 6.183 22.451 4.359 29.936-4.248l10.618-12.211a23.09 23.09 0 0 0 4.961-20.813 23.095 23.095 0 0 0-14.268-15.948l-.808-.303c-.104-.039-.156-.073-.158-.073-.063-.086-.077-.344-.034-.428.01-.01.058-.05.155-.101l17.046-8.925a.329.329 0 0 1 .35.028l13.659 10.243a23.029 23.029 0 0 0 21.595 3.279 23.03 23.03 0 0 0 14.661-16.189l2.287-9.217a.329.329 0 0 1 .258-.245l6.647-1.278a233.47 233.47 0 0 1 3.541 40.561C489.244 384.612 384.611 489.244 256 489.244z"/></svg>