<svg xmlns="http://www.w3.org/2000/svg" viewBox="0 0 512 512" fill="#4c5467"><path d="M328.844 368.733a1077.046 1077.046 0 0 0-16.433-9.675 143.063 143.063 0 0 0 .006-33.316c5.546-3.2 11.068-6.45 16.425-9.671 9.02-5.42 12.78-16.856 8.744-26.603l-.001-.001-11.771-28.418c-4.037-9.744-14.777-15.175-24.993-12.63a1055.585 1055.585 0 0 0-18.455 4.776 143.104 143.104 0 0 0-23.563-23.554 1062.96 1062.96 0 0 0 4.778-18.461c2.545-10.211-2.885-20.955-12.629-24.992l-28.418-11.771c-9.744-4.038-21.183-.281-26.605 8.741a1072.127 1072.127 0 0 0-9.674 16.433 143.118 143.118 0 0 0-33.316-.007 1063.418 1063.418 0 0 0-9.67-16.426c-5.424-9.02-16.86-12.778-26.605-8.741l-28.418 11.771c-9.742 4.036-15.174 14.781-12.629 24.992a1051.12 1051.12 0 0 0 4.776 18.455 143.02 143.02 0 0 0-23.553 23.563 1060.79 1060.79 0 0 0-18.463-4.779c-10.214-2.547-20.956 2.888-24.993 12.631L1.615 289.467c-4.035 9.745-.276 21.182 8.742 26.602 5.375 3.23 10.9 6.482 16.433 9.675a143.172 143.172 0 0 0-.006 33.316 1077.364 1077.364 0 0 0-16.429 9.672c-9.018 5.421-12.777 16.857-8.741 26.603l11.772 28.418c4.036 9.743 14.775 15.176 24.993 12.63a1054.04 1054.04 0 0 0 18.453-4.776 143.175 143.175 0 0 0 23.563 23.553 1068.61 1068.61 0 0 0-4.778 18.461c-2.545 10.211 2.885 20.956 12.629 24.992l28.419 11.772a21.24 21.24 0 0 0 8.137 1.615c7.362 0 14.514-3.779 18.471-10.355a1081.304 1081.304 0 0 0 9.674-16.432 143.337 143.337 0 0 0 33.316.006c3.179 5.512 6.43 11.034 9.67 16.427 5.422 9.02 16.858 12.777 26.605 8.741l28.418-11.771c9.742-4.036 15.174-14.781 12.629-24.992a1077.439 1077.439 0 0 0-4.776-18.455 143.175 143.175 0 0 0 23.554-23.562 1073.611 1073.611 0 0 0 18.46 4.777c10.211 2.547 20.956-2.884 24.993-12.63l11.771-28.419c4.034-9.745.275-21.182-8.743-26.602zm-23.728 45.101a1033.805 1033.805 0 0 1-17.703-4.602c-8.376-2.253-17.215.692-22.519 7.507a120.15 120.15 0 0 1-20.968 20.973c-6.807 5.302-9.748 14.138-7.493 22.509 1.603 5.954 3.148 11.9 4.601 17.696l-26.122 10.819a1035.978 1035.978 0 0 1-9.259-15.765c-4.327-7.514-12.655-11.678-21.216-10.618a120.295 120.295 0 0 1-29.654-.005c-8.585-1.066-16.906 3.098-21.232 10.614a1066.57 1066.57 0 0 1-9.263 15.773l-26.122-10.82a1052.009 1052.009 0 0 1 4.603-17.701c2.255-8.375-.692-17.215-7.507-22.52a120.168 120.168 0 0 1-20.973-20.965c-5.3-6.809-14.136-9.749-22.51-7.495a1051.253 1051.253 0 0 1-17.695 4.601l-10.82-26.121c5.16-3.094 10.459-6.205 15.765-9.26 7.515-4.327 11.683-12.653 10.619-21.215a120.303 120.303 0 0 1 .003-29.655c1.068-8.57-3.097-16.905-10.616-21.233a1035.725 1035.725 0 0 1-15.772-9.265l10.82-26.121c5.82 1.459 11.768 3.005 17.702 4.602 8.372 2.256 17.212-.692 22.52-7.507a120.128 120.128 0 0 1 20.965-20.972c6.808-5.301 9.749-14.138 7.494-22.512-1.59-5.904-3.136-11.85-4.601-17.694l26.122-10.819a1043.911 1043.911 0 0 1 9.259 15.765c4.328 7.515 12.663 11.689 21.216 10.618a120.076 120.076 0 0 1 29.657.005c8.575 1.068 16.905-3.102 21.231-10.617a1047.408 1047.408 0 0 1 9.262-15.771l26.122 10.819a1046.467 1046.467 0 0 1-4.603 17.703c-2.255 8.374.692 17.214 7.507 22.519a120.203 120.203 0 0 1 20.973 20.965c5.3 6.807 14.133 9.748 22.511 7.494 5.919-1.594 11.865-3.14 17.694-4.601l10.819 26.121c-5.153 3.089-10.451 6.2-15.765 9.26-7.515 4.327-11.684 12.654-10.619 21.216a120.173 120.173 0 0 1-.005 29.657c-1.066 8.571 3.101 16.904 10.617 21.231a1047.418 1047.418 0 0 1 15.772 9.263l-10.817 26.124z"/><path d="M241.762 312.511l-.001-.001c-16.48-39.789-62.256-58.752-102.051-42.271-39.788 16.482-58.752 62.262-42.27 102.051 7.983 19.276 22.997 34.287 42.271 42.272 9.637 3.991 19.763 5.987 29.889 5.987s20.252-1.996 29.891-5.987c39.788-16.482 58.751-62.261 42.271-102.051zm-51.042 80.877c-13.618 5.641-28.617 5.64-42.239 0-13.618-5.641-24.225-16.249-29.867-29.868-11.647-28.114 1.753-60.462 29.868-72.107a54.881 54.881 0 0 1 21.047-4.202c21.667 0 42.265 12.84 51.06 34.07 11.645 28.114-1.755 60.461-29.869 72.107zM496.553 100.936a772.031 772.031 0 0 0-12.111-1.713 106.658 106.658 0 0 0-8.214-19.819 782 782 0 0 0 7.357-9.779c5.295-7.161 4.529-17.317-1.78-23.623l-15.808-15.806c-6.309-6.31-16.465-7.075-23.624-1.778a793.655 793.655 0 0 0-9.779 7.355 106.645 106.645 0 0 0-19.819-8.215 782.292 782.292 0 0 0-1.712-12.11C409.746 6.642 402.024 0 393.102 0h-22.356c-8.922 0-16.644 6.642-17.961 15.447a789.351 789.351 0 0 0-1.712 12.11 106.617 106.617 0 0 0-19.819 8.215 757.483 757.483 0 0 0-9.778-7.355c-7.161-5.297-17.317-4.532-23.624 1.777l-15.806 15.805c-6.31 6.308-7.077 16.465-1.78 23.627a771.802 771.802 0 0 0 7.354 9.778 106.777 106.777 0 0 0-8.214 19.819 783.904 783.904 0 0 0-12.11 1.713c-8.807 1.318-15.449 9.039-15.449 17.962v22.355c0 8.922 6.64 16.644 15.447 17.962 3.956.592 8.019 1.167 12.111 1.713a106.766 106.766 0 0 0 8.214 19.819 789.254 789.254 0 0 0-7.357 9.779c-5.294 7.159-4.529 17.317 1.78 23.622l15.808 15.808c6.308 6.31 16.464 7.074 23.624 1.778a776.173 776.173 0 0 0 9.778-7.354 106.695 106.695 0 0 0 19.82 8.214c.545 4.091 1.12 8.155 1.712 12.111 1.318 8.806 9.04 15.448 17.962 15.448h22.356c8.922 0 16.644-6.64 17.961-15.449a796.562 796.562 0 0 0 1.712-12.111 106.565 106.565 0 0 0 19.819-8.215 766.926 766.926 0 0 0 9.778 7.356c7.159 5.297 17.317 4.532 23.624-1.777l15.808-15.806c6.309-6.308 7.075-16.465 1.778-23.626a764.502 764.502 0 0 0-7.354-9.777 106.749 106.749 0 0 0 8.214-19.819 783.904 783.904 0 0 0 12.11-1.713c8.807-1.318 15.449-9.039 15.449-17.962v-22.355c-.001-8.923-6.642-16.645-15.448-17.963zm-6.325 37.206a763.2 763.2 0 0 1-10.934 1.506c-7.273.949-13.227 6.111-15.165 13.149a84.755 84.755 0 0 1-8.009 19.328c-3.611 6.353-3.054 14.215 1.419 20.032a773.98 773.98 0 0 1 6.669 8.799l-11.404 11.405a769.911 769.911 0 0 1-8.802-6.669c-5.814-4.475-13.678-5.028-20.032-1.421a84.784 84.784 0 0 1-19.325 8.01c-7.042 1.94-12.204 7.894-13.15 15.165a749.397 749.397 0 0 1-1.506 10.935h-16.13a783.36 783.36 0 0 1-1.506-10.931c-.949-7.274-6.11-13.228-13.15-15.168a84.75 84.75 0 0 1-19.327-8.009c-6.354-3.61-14.218-3.055-20.031 1.419a750.088 750.088 0 0 1-8.803 6.669l-11.404-11.405a740.795 740.795 0 0 1 6.671-8.803c4.47-5.815 5.027-13.677 1.417-20.03a84.785 84.785 0 0 1-8.009-19.327c-1.939-7.04-7.892-12.201-15.165-13.15-3.677-.48-7.343-.984-10.935-1.507v-16.128a763.2 763.2 0 0 1 10.934-1.506c7.273-.949 13.227-6.111 15.165-13.149a84.747 84.747 0 0 1 8.009-19.328c3.611-6.353 3.054-14.216-1.417-20.031a757.489 757.489 0 0 1-6.67-8.8l11.404-11.405a772.453 772.453 0 0 1 8.8 6.668c5.812 4.475 13.675 5.033 20.034 1.422a84.818 84.818 0 0 1 19.325-8.01c7.042-1.94 12.204-7.894 13.15-15.165.48-3.677.986-7.342 1.507-10.934h16.13a764.79 764.79 0 0 1 1.505 10.931c.949 7.274 6.111 13.228 13.15 15.167a84.777 84.777 0 0 1 19.328 8.01c6.355 3.611 14.218 3.05 20.03-1.42a761.284 761.284 0 0 1 8.803-6.669l11.404 11.405a757.659 757.659 0 0 1-6.67 8.803c-4.471 5.814-5.027 13.676-1.419 20.029a84.848 84.848 0 0 1 8.009 19.328c1.939 7.04 7.892 12.201 15.165 13.15 3.677.48 7.343.985 10.935 1.507v16.128z"/><path d="M381.924 83.675c-25.585 0-46.401 20.815-46.401 46.401 0 25.587 20.815 46.402 46.401 46.402s46.401-20.815 46.401-46.402c0-25.586-20.815-46.401-46.401-46.401zm0 72.176c-14.211 0-25.775-11.563-25.775-25.776s11.563-25.775 25.775-25.775c14.212 0 25.774 11.563 25.775 25.775 0 14.213-11.563 25.776-25.775 25.776z"/></svg>