<svg xmlns="http://www.w3.org/2000/svg" viewBox="0 0 512 512" fill="#4c5467"><path d="M317.915 59.446a33.835 33.835 0 0 0-34.788 1.683l-145.642 97.097H82.27c-14.16 0-25.795 10.932-26.958 24.795h-7.795C21.315 183.021 0 204.337 0 230.538v50.924c0 26.201 21.315 47.517 47.517 47.517h7.795c1.163 13.864 12.798 24.795 26.958 24.795h55.214l145.642 97.097a33.85 33.85 0 0 0 18.794 5.701 33.883 33.883 0 0 0 15.994-4.017 33.833 33.833 0 0 0 17.899-29.879V89.325a33.834 33.834 0 0 0-17.898-29.879zM55.197 302.091h-7.68c-11.374 0-20.628-9.254-20.628-20.628v-50.924c0-11.374 9.254-20.628 20.628-20.628h7.68v92.18zm72.914 24.794H82.27a.184.184 0 0 1-.184-.184V185.298c0-.101.083-.184.184-.184h45.841v141.771zm180.813 95.791c0 3.783-2.585 5.576-3.696 6.171-1.112.593-4.039 1.751-7.186-.348L155 333.135v-154.27l143.042-95.364c3.146-2.099 6.073-.943 7.186-.348 1.111.594 3.696 2.386 3.696 6.171v333.352zM471.555 256l36.901-36.901c4.726-4.726 4.726-12.388 0-17.114-4.727-4.724-12.387-4.724-17.114 0l-36.901 36.901-36.901-36.901c-4.726-4.723-12.385-4.726-17.112 0-4.726 4.726-4.726 12.388 0 17.114l36.9 36.901-36.901 36.901c-4.726 4.726-4.726 12.388 0 17.114 2.364 2.362 5.46 3.544 8.556 3.544s6.193-1.182 8.556-3.544l36.901-36.902 36.901 36.902c2.364 2.362 5.46 3.544 8.556 3.544s6.193-1.182 8.556-3.544c4.726-4.726 4.726-12.388 0-17.114L471.555 256z"/></svg>