<svg xmlns="http://www.w3.org/2000/svg" viewBox="0 0 512 512" fill="#4c5467"><path d="M457.677 54.323c-72.434-72.431-190.289-72.428-262.721 0-69.298 69.301-72.285 180.173-8.982 253.07l-22.129 22.129-22.547-22.547c-5.146-5.144-13.486-5.144-18.634 0L17.029 412.609c-22.705 22.706-22.705 59.652 0 82.361C28.383 506.324 43.298 512 58.209 512c14.913 0 29.827-5.677 41.181-17.029l105.635-105.635c5.145-5.145 5.145-13.488 0-18.634l-22.548-22.547 22.129-22.129c34.801 30.221 78.253 45.341 121.711 45.341 47.571 0 95.144-18.108 131.36-54.323 72.431-72.434 72.431-190.289 0-262.721zM80.756 476.337c-12.433 12.432-32.661 12.435-45.095 0-12.434-12.432-12.434-32.663 0-45.095l58.947-58.947 45.095 45.095-58.947 58.947zm77.581-77.58l-45.095-45.095 18.738-18.738 45.094 45.094-18.737 18.739zM439.044 298.41c-62.158 62.156-163.297 62.158-225.455 0s-62.158-163.297 0-225.455c31.083-31.083 71.897-46.618 112.729-46.618 40.818 0 81.652 15.543 112.726 46.618 62.157 62.158 62.157 163.298 0 225.455z"/><path d="M417.3 94.699c-24.302-24.302-56.615-37.687-90.984-37.687-34.368 0-66.68 13.385-90.983 37.687-24.303 24.302-37.687 56.615-37.687 90.984 0 34.368 13.385 66.68 37.687 90.983 24.302 24.303 56.615 37.688 90.983 37.688 34.369 0 66.681-13.385 90.984-37.688 24.302-24.302 37.688-56.615 37.688-90.983-.002-34.368-13.386-66.68-37.688-90.984zm-18.634 163.334c-19.326 19.327-45.02 29.97-72.351 29.97-27.329 0-53.024-10.643-72.349-29.97-19.327-19.326-29.97-45.02-29.97-72.349 0-27.331 10.643-53.025 29.97-72.351 19.325-19.327 45.02-29.97 72.349-29.97 27.331 0 53.025 10.643 72.351 29.97 19.327 19.326 29.97 45.02 29.97 72.351 0 27.329-10.643 53.024-29.97 72.349z"/><path d="M366.04 172.507h-26.548v-26.548c0-7.275-5.9-13.175-13.175-13.175s-13.175 5.9-13.175 13.175v26.548h-26.549c-7.277 0-13.175 5.9-13.175 13.175 0 7.277 5.899 13.175 13.175 13.175h26.549v26.549c0 7.277 5.9 13.175 13.175 13.175s13.175-5.899 13.175-13.175v-26.549h26.548c7.275 0 13.175-5.899 13.175-13.175 0-7.276-5.898-13.175-13.175-13.175z"/></svg>