<svg xmlns="http://www.w3.org/2000/svg" viewBox="0 0 512.003 512.003" fill="#4c5467"><path d="M457.678 54.323C422.648 19.293 376.074.001 326.535.001s-96.113 19.292-131.143 54.322-54.322 81.604-54.322 131.144c0 45.443 16.243 88.38 45.965 122.211l-23.577 23.576-23.338-23.338a12.229 12.229 0 0 0-17.29 0L16.801 413.946c-22.401 22.402-22.401 58.853.001 81.255 11.201 11.2 25.913 16.8 40.627 16.8s29.426-5.601 40.627-16.8l106.029-106.029c4.774-4.774 4.774-12.515 0-17.291l-23.338-23.338 23.577-23.576c33.831 29.722 76.77 45.965 122.211 45.965 49.541 0 96.113-19.292 131.144-54.322 35.029-35.03 54.322-81.604 54.322-131.144s-19.293-96.113-54.323-131.143zM80.765 477.909c-12.867 12.869-33.806 12.869-46.674 0-12.867-12.867-12.867-33.806 0-46.675l59.874-59.874 46.674 46.675-59.874 59.874zm77.163-77.163l-46.675-46.675 20.22-20.22 46.675 46.675-20.22 20.22zM440.389 299.32c-30.411 30.411-70.845 47.16-113.854 47.16s-83.442-16.749-113.854-47.16c-30.412-30.411-47.16-70.845-47.16-113.854s16.749-83.442 47.16-113.854c30.411-30.411 70.845-47.16 113.854-47.16s83.442 16.749 113.854 47.16c62.778 62.78 62.778 164.929 0 227.708z"/><path d="M417.151 94.85c-49.966-49.966-131.267-49.967-181.233 0-24.204 24.204-37.535 56.386-37.535 90.616 0 34.231 13.331 66.411 37.535 90.616 24.983 24.983 57.799 37.474 90.616 37.474s65.633-12.492 90.616-37.474c24.204-24.206 37.534-56.386 37.534-90.616.001-34.23-13.329-66.412-37.533-90.616zM399.86 258.793c-40.433 40.433-106.22 40.433-146.653 0-19.587-19.587-30.373-45.627-30.373-73.327s10.787-53.74 30.373-73.327c20.216-20.216 46.772-30.324 73.327-30.324s53.109 10.108 73.327 30.324c19.587 19.587 30.373 45.626 30.373 73.327 0 27.698-10.787 53.74-30.374 73.327z"/><path d="M366.408 173.24h-79.745c-6.752 0-12.226 5.475-12.226 12.226s5.473 12.226 12.226 12.226h79.745c6.752 0 12.226-5.475 12.226-12.226s-5.474-12.226-12.226-12.226z"/></svg>