<svg width="52" height="52" viewBox="0 0 52 52" fill="none" xmlns="http://www.w3.org/2000/svg">
  <g clip-path="url(#clip0_1313_15063)">
    <path fill-rule="evenodd" clip-rule="evenodd"
          d="M15 -0.000488281L4 10.9996L4.00006 12.9995C4 13.9995 4.3976 13.9995 5.07646 13.9995H14.7692C16.5535 13.9995 18 12.6564 18 10.9996V1.99991L37 1.99951C37.5523 1.99951 38 2.44723 38 2.99951V29.9995H40V2.99951C40 1.34266 38.6569 -0.000488281 37 -0.000488281H15ZM14.7692 11.9996H6L16 1.99991V10.9996C16 11.5519 15.364 11.9996 14.7692 11.9996Z"
          fill="#3558A2"/>
    <path
      d="M25 47.9995V45.9995H7C6.44772 45.9995 6 45.5518 6 44.9995V21.9995C6 21.9995 6 20.9995 5 20.9995C4 20.9995 4 21.9995 4 21.9995V44.9995C4 46.6564 5.34315 47.9995 7 47.9995H25Z"
      fill="#3558A2"/>
    <path
      d="M5 17.9995C5.55228 17.9995 6 17.5518 6 16.9995C6 16.4472 5.55228 15.9995 5 15.9995C4.44772 15.9995 4 16.4472 4 16.9995C4 17.5518 4.44772 17.9995 5 17.9995Z"
      fill="#3558A2"/>
    <path
      d="M12 18.9995C12 18.4472 12.4713 17.9995 13.0526 17.9995H30.9474C31.5287 17.9995 32 18.4472 32 18.9995C32 19.5518 31.5287 19.9995 30.9474 19.9995H13.0526C12.4713 19.9995 12 19.5518 12 18.9995Z"
      fill="#E1000F"/>
    <path
      d="M13.0526 23.9995C12.4713 23.9995 12 24.4472 12 24.9995C12 25.5518 12.4713 25.9995 13.0526 25.9995H30.9474C31.5287 25.9995 32 25.5518 32 24.9995C32 24.4472 31.5287 23.9995 30.9474 23.9995H13.0526Z"
      fill="#E1000F"/>
    <path
      d="M12 30.9995C12 30.4472 12.3063 29.9995 12.6842 29.9995H24.3158C24.6937 29.9995 25 30.4472 25 30.9995C25 31.5518 24.6937 31.9995 24.3158 31.9995H12.6842C12.3063 31.9995 12 31.5518 12 30.9995Z"
      fill="#E1000F"/>
    <path
      d="M46.3641 50.2186C46.711 50.5537 46.7094 51.1102 46.3605 51.4433C46.0338 51.7551 45.5203 51.7566 45.1918 51.4467L39.4453 46.0256C37.9213 47.2077 35.9779 47.9162 33.8611 47.9162C28.9673 47.9162 25 44.1293 25 39.4578C25 34.7864 28.9673 30.9995 33.8611 30.9995C38.755 30.9995 42.7222 34.7864 42.7222 39.4578C42.7222 41.4784 41.98 43.3335 40.7416 44.7882L46.3641 50.2186ZM33.8611 46.1662C37.7424 46.1662 40.8889 43.1628 40.8889 39.4578C40.8889 35.7529 37.7424 32.7495 33.8611 32.7495C29.9798 32.7495 26.8333 35.7529 26.8333 39.4578C26.8333 43.1628 29.9798 46.1662 33.8611 46.1662Z"
      fill="#E1000F"/>
  </g>
  <defs>
    <clipPath id="clip0_1313_15063">
      <rect width="52" height="52" fill="white" transform="translate(0 -0.000488281)"/>
    </clipPath>
  </defs>
</svg>
