<svg width="18" height="18" viewBox="0 0 18 18" fill="none" xmlns="http://www.w3.org/2000/svg">
<path d="M10.276 14.286C10.39 14.5366 10.6177 14.6733 10.8684 14.6733C10.9594 14.6733 11.0507 14.6506 11.1417 14.6049C11.4834 14.4454 11.6203 14.0581 11.4607 13.7163C11.4607 13.7163 10.2075 10.8455 9.97978 9.79735C9.88871 9.43275 9.8431 8.45308 9.82021 7.99743C9.82021 7.83786 9.91128 7.70118 10.0481 7.65572L12.8506 6.81272C13.1923 6.72165 13.3975 6.33416 13.3063 5.99247C13.2152 5.65076 12.8277 5.44559 12.486 5.53682C12.486 5.53682 9.88855 6.37981 8.95433 6.37981C8.04302 6.37981 5.46826 5.55956 5.46826 5.55956C5.12655 5.46849 4.73906 5.6279 4.62526 5.9696C4.5113 6.3342 4.71633 6.7215 5.08091 6.8126L7.88341 7.6556C8.02009 7.70121 8.13405 7.8379 8.11132 7.99731C8.08859 8.45296 8.04298 9.43279 7.95175 9.79722C7.72383 10.8454 6.47082 13.7162 6.47082 13.7162C6.31125 14.0579 6.47082 14.4454 6.7898 14.6048C6.88087 14.6504 6.97209 14.6732 7.06316 14.6732C7.31381 14.6732 7.56443 14.5365 7.65553 14.2858L9.00012 11.5517L10.276 14.286Z" fill="#3E486E"/>
<path d="M10.2764 4.44314C10.2764 5.14785 9.70522 5.71905 9.00052 5.71905C8.29582 5.71905 7.72461 5.14785 7.72461 4.44314C7.72461 3.73844 8.29582 3.16724 9.00052 3.16724C9.70522 3.16724 10.2764 3.73844 10.2764 4.44314Z" fill="#3E486E"/>
<path d="M18 9C18 4.03291 13.967 0 9 0C4.03295 0 0 4.03295 0 9C0 13.967 4.03295 18 9 18C13.967 18 18 13.967 18 9ZM1.5038 9C1.5038 4.85316 4.87591 1.5038 9 1.5038C13.1241 1.5038 16.4962 4.853 16.4962 9C16.4962 13.147 13.147 16.4962 9 16.4962C4.853 16.4962 1.5038 13.147 1.5038 9V9Z" fill="#3E486E"/>
</svg>
