<svg width="298" height="221" viewBox="0 0 298 221" fill="none" xmlns="http://www.w3.org/2000/svg">
  <path opacity="0.1"
    d="M221.65 196.009C250.09 196.009 273.145 190.288 273.145 183.23C273.145 176.172 250.09 170.451 221.65 170.451C193.209 170.451 170.154 176.172 170.154 183.23C170.154 190.288 193.209 196.009 221.65 196.009ZM75.6882 219.278C104.129 219.278 127.183 213.557 127.183 206.499C127.183 199.441 104.129 193.72 75.6882 193.72C47.2469 193.72 24.1924 199.441 24.1924 206.499C24.1924 213.557 47.248 219.278 75.6882 219.278Z"
    fill="#9298AF" />
  <path opacity="0.3" d="M158.604 31.1667H114.012V59.186H158.604V31.1667Z" fill="#7598D6" />
  <path opacity="0.2"
    d="M96.8618 31.1667H52.2705V59.186H96.8628V31.1656L96.8618 31.1667ZM220.344 31.1667H175.753V59.186H220.344V31.1667ZM96.8618 71.2247H52.2705V99.244H96.8628V71.2236L96.8618 71.2247ZM158.603 71.2247H114.011V99.244H158.603V71.2247ZM220.344 71.2247H175.753V99.244H220.344V71.2247ZM96.8618 111.281H52.2705V139.3H96.8628L96.8618 111.281ZM158.603 111.281H114.011V139.3H158.603V111.281ZM220.344 111.281H175.753V139.3H220.344V111.281Z"
    fill="#AFBED3" />
  <path
    d="M252.406 62.3676C251.99 61.5637 249.796 56.5714 249.796 56.5714L246.12 47.0448C246.12 47.0448 243.51 43.0276 243.51 42.2809C243.51 41.5352 238.766 38.5515 238.766 38.5515C238.766 38.5515 234.911 37.4028 234.615 37.2886C234.318 37.1733 229.752 35.6629 229.752 35.6629C229.752 35.6629 227.954 33.299 227.698 33.9156V33.9177L227.669 33.8723C227.302 33.1857 227.07 32.4354 226.984 31.6617L226.957 31.4491C228.142 30.6462 229.112 29.5668 229.785 28.3044C230.458 27.042 230.813 25.6345 230.82 24.2039C230.819 23.8272 230.794 23.4509 230.744 23.0775C230.777 23.0571 230.81 23.0391 230.846 23.0235C230.92 22.9918 230.901 22.9653 230.847 22.9389C230.866 22.9283 230.884 22.9177 230.903 22.9103C231.001 22.868 230.935 22.8352 230.84 22.7972L230.846 22.794C230.98 22.7358 230.811 22.6977 230.674 22.6353L230.653 22.5169C230.683 22.441 230.701 22.3612 230.707 22.28L230.743 22.2979C230.775 22.1501 230.775 21.997 230.741 21.8495C230.732 21.8793 230.721 21.9086 230.709 21.9373C230.717 21.8036 230.689 21.6703 230.629 21.5509C230.568 21.4316 230.477 21.3305 230.364 21.2582L230.343 21.2392L230.595 18.6648C234.303 18.4902 234.954 12.1811 234.107 11.83C233.262 11.4809 234.107 10.7204 234.107 9.20159C234.107 7.68274 231.31 5.98832 231.31 5.98832C231.31 5.98832 230.139 6.57322 228.318 3.65187C226.496 0.731586 219.795 0.264086 219.34 1.02351C218.884 1.78293 215.892 2.7761 211.988 3.88562C208.085 4.9962 208.8 9.61091 209.451 10.6041C209.987 11.4249 210.301 12.3704 210.361 13.3488C210.361 13.9337 211.598 16.3865 211.598 16.3865C211.208 17.2369 212.201 21.895 212.493 23.2181C212.489 23.2594 212.484 23.2996 212.481 23.3408L212.472 23.3514C212.459 23.3729 212.446 23.3952 212.434 23.418C212.371 23.5552 212.35 23.7079 212.374 23.857C212.353 24.02 212.375 24.1858 212.44 24.3372C212.462 25.5843 212.751 26.8123 213.286 27.9389C213.822 29.0654 214.592 30.0646 215.545 30.8695L215.558 31.1106C215.613 32.1916 215.643 33.4703 215.586 34.6941C215.584 34.7575 215.579 34.8178 215.576 34.8802C215.361 34.924 215.159 35.0176 214.986 35.1535C214.814 35.2895 214.676 35.4639 214.583 35.6629C214.215 36.3705 212.081 37.461 212.081 37.461C212.081 37.461 208.345 37.6324 207.989 38.3209C207.633 39.0105 202.237 41.3057 202.237 41.3057C202.237 41.3057 199.391 42.9695 199.805 44.8638C200.022 45.8538 199.414 47.3917 198.783 48.6345C197.463 48.1339 196.089 47.7909 194.689 47.6127L197.712 50.5055L197.612 50.66L195.892 56.7438C195.892 56.7438 195.299 58.8666 194.705 59.3838C194.113 59.9 195.239 64.6056 195.239 64.6056C195.239 64.6056 194.587 67.9352 194.054 68.7952C193.52 69.6561 194.884 71.78 194.884 71.78L197.612 77.978L204.846 79.8142L206.107 80.0828L206.032 80.5271C205.683 82.5007 205.226 84.3157 204.669 84.8076C203.304 86.0133 203.363 91.4076 203.363 91.4076L203.423 99.0399C203.423 99.0399 203.898 108.452 203.66 108.796C203.511 109.014 203.811 109.368 204.603 109.687C204.581 109.828 204.559 109.972 204.538 110.119C204.314 111.679 204.215 113.462 204.728 114.248C204.95 114.675 205.072 115.145 205.083 115.626C205.083 116.372 206.21 117.922 206.21 117.922C206.21 117.922 205.32 124.292 206.803 126.472C208.286 128.653 209.531 132.613 208.819 133.531C208.819 133.531 207.574 136.229 208.166 137.434C208.76 138.64 208.166 139.328 207.396 139.615C206.625 139.902 206.692 142.255 206.692 142.255L208.107 153.447C208.107 153.447 208.878 155.742 208.226 156.546C207.574 157.348 207.574 161.365 208.582 162.744C209.59 164.121 207.158 166.645 207.158 166.645C207.158 166.645 205.677 168.769 208.048 169.458C208.048 169.458 208.523 169.573 207.633 170.491C206.744 171.409 206.566 172.557 207.158 172.959C207.282 173.033 207.41 173.096 207.544 173.15C207.521 173.286 207.498 173.426 207.469 173.577C207.242 174.775 206.813 176.336 206.032 177.091C204.519 178.641 203.214 180.38 202.149 182.265C201.336 183.808 200.979 185.251 201.881 185.929C204.016 187.536 206.744 188.052 208.345 187.421C209.946 186.79 212.199 184.839 212.199 184.839L212.733 182.601C212.733 182.601 212.377 181.223 214.156 180.706C215.935 180.19 217.596 178.353 217.596 178.353V175.379C218.026 175.132 218.442 174.861 218.841 174.565C218.841 174.565 219.671 171.639 218.841 170.664C218.01 169.687 217.714 169.344 218.781 168.712C219.849 168.081 219.994 166.704 219.211 165.498C218.426 164.293 217.18 162.514 218.248 159.988C219.316 157.464 219.707 149.716 219.707 149.716C219.707 149.716 219.209 144.436 219.707 143.23C220.205 142.026 219.138 139.615 219.138 139.615C219.138 139.615 219.493 136.63 220.146 135.253C220.797 133.876 221.332 126.587 221.332 126.587C221.332 126.587 222.517 123.488 222.517 121.48C222.517 119.471 220.679 114.65 223.407 113.387C223.407 113.387 224.593 114.421 224.119 118.553C224.119 118.553 225.483 123.373 225.483 124.866C225.483 126.358 226.491 131.752 226.491 131.752C226.491 131.752 226.609 133.474 227.024 134.106C227.44 134.737 227.024 136.459 227.024 136.459C227.024 136.459 228.566 137.893 228.152 138.811C227.736 139.73 228.222 141.8 228.222 141.8L227.854 154.651C227.854 154.651 226.787 160.161 229.278 163.489C229.278 163.489 228.388 168.367 227.854 168.712C227.321 169.056 229.811 172.041 229.811 172.041C229.811 172.041 229.121 173.974 230.523 174.068V177.263C231.009 178.123 231.677 178.867 232.48 179.444C233.785 180.362 233.251 183.519 233.251 183.519C233.251 183.519 234.911 187.536 239.3 186.675C243.688 185.814 244.281 185.412 244.043 183.978C243.959 183.454 243.768 182.52 243.496 181.46C243.024 179.616 242.3 177.392 241.434 176.295C240.071 174.565 238.944 170.95 238.944 170.95C238.944 170.95 238.41 169.744 238.944 169.344C239.477 168.942 239.24 168.195 239.24 168.195C239.24 168.195 239.76 166.704 239.292 165.786C238.825 164.866 240.189 162.973 240.189 162.973L239.775 154.135L240.189 141.28C240.189 141.28 238.351 139.156 239.122 137.893C239.893 136.631 238.232 134.851 238.232 134.851C238.232 134.851 238.055 134.794 238.529 133.36C238.813 132.514 238.771 131.592 238.41 130.777C238.41 130.777 237.402 127.219 239.181 124.522C239.181 124.522 239.952 120.964 240.189 119.127C240.353 117.851 241.378 113.083 241.987 110.294L242.087 109.841C242.965 109.889 243.629 109.945 243.629 109.945C243.629 109.945 242.264 100.475 243.629 98.5237C244.992 96.5723 242.562 81.6514 242.562 81.6514C242.562 81.6514 241.98 79.0431 241.622 76.383C241.601 76.2307 241.583 76.0795 241.564 75.9282C242.665 75.84 243.77 75.8152 244.874 75.8542C247.72 76.0266 250.507 74.9361 250.567 73.8456C250.626 72.7562 252.168 68.4514 252.406 67.4752C252.642 66.5 252.82 63.1703 252.406 62.3676Z"
    fill="url(#paint0_linear_118_6398)" />
  <path
    d="M217.803 173.081V178.394C217.803 178.394 216.202 180.223 214.489 180.737C212.774 181.251 213.117 182.623 213.117 182.623L212.603 184.852C212.603 184.852 210.432 186.795 208.889 187.423C207.346 188.051 204.718 187.537 202.661 185.937C201.792 185.263 202.135 183.826 202.919 182.289C203.941 180.419 205.198 178.688 206.661 177.138C207.412 176.386 207.827 174.831 208.046 173.638C208.207 172.744 208.26 172.052 208.26 172.052L217.803 173.081Z"
    fill="#7D7D95" />
  <path opacity="0.1"
    d="M217.803 177.046V178.394C217.803 178.394 216.202 180.223 214.489 180.737C212.774 181.251 213.117 182.623 213.117 182.623L212.603 184.851C212.603 184.851 210.432 186.794 208.889 187.423C207.346 188.051 204.718 187.537 202.661 185.937C201.792 185.263 202.135 183.825 202.919 182.29C202.882 183.903 203.36 185.716 205.689 185.651C208.203 185.572 210.625 184.691 212.603 183.137C212.603 183.137 212.546 179.366 215.174 178.508C216.135 178.192 217.027 177.695 217.803 177.046Z"
    fill="black" />
  <path
    d="M238.717 186.679C234.488 187.536 232.888 183.537 232.888 183.537C232.888 183.537 233.402 180.395 232.146 179.48C231.368 178.9 230.725 178.159 230.26 177.308V172.051L235.402 168.395L238.186 170.858L238.373 171.023C238.373 171.023 239.46 174.623 240.773 176.344C241.608 177.436 242.305 179.651 242.76 181.486C243.023 182.543 243.206 183.472 243.287 183.994C243.517 185.423 242.945 185.823 238.717 186.679Z"
    fill="#9298AF" />
  <path opacity="0.1"
    d="M238.717 186.68C234.488 187.537 232.888 183.538 232.888 183.538C232.888 183.538 233.402 180.395 232.145 179.481C231.368 178.901 230.725 178.16 230.26 177.309V175.273C231.076 176.134 232.614 177.803 232.945 178.509C233.402 179.481 233.459 183.023 235.573 183.652C237.688 184.281 241.802 184.852 242.145 183.251C242.288 182.644 242.494 182.052 242.759 181.487C243.023 182.544 243.206 183.473 243.287 183.995C243.517 185.423 242.944 185.823 238.717 186.68ZM208.261 172.053L217.803 173.081V175.89C216.726 176.528 215.184 177.203 214.318 176.509C213.038 175.485 209.233 174.185 208.046 173.638C208.208 172.744 208.261 172.053 208.261 172.053ZM238.373 171.48C237.059 171.023 234.717 173.023 231.631 174.28C231.202 174.482 230.733 174.587 230.26 174.587V172.051L235.402 168.395L238.186 170.858C238.229 171.071 238.292 171.279 238.373 171.48Z"
    fill="black" />
  <path
    d="M241.745 108.568C241.745 108.568 241.565 109.41 241.306 110.629C240.718 113.407 239.732 118.154 239.574 119.425C239.345 121.253 238.602 124.796 238.602 124.796C236.888 127.481 237.859 131.024 237.859 131.024C238.207 131.839 238.248 132.753 237.974 133.595C237.517 135.024 237.688 135.081 237.688 135.081C237.688 135.081 239.288 136.852 238.545 138.109C237.802 139.367 239.574 141.481 239.574 141.481L239.174 154.28L239.574 163.079C239.574 163.079 238.259 164.965 238.71 165.88C239.16 166.794 238.659 168.28 238.659 168.28C238.659 168.28 238.889 169.022 238.373 169.422C237.859 169.822 238.373 171.022 238.373 171.022C237.06 170.565 234.717 172.564 231.632 173.822C228.545 175.079 229.575 172.107 229.575 172.107C229.575 172.107 227.175 169.136 227.689 168.794C228.203 168.451 229.06 163.594 229.06 163.594C226.661 160.279 227.689 154.794 227.689 154.794L228.043 141.999C228.043 141.999 227.574 139.938 227.974 139.024C228.374 138.109 226.889 136.681 226.889 136.681C226.889 136.681 227.289 134.967 226.889 134.338C226.488 133.71 226.374 131.996 226.374 131.996C226.374 131.996 225.403 126.625 225.403 125.139C225.403 123.652 224.088 118.854 224.088 118.854C224.546 114.739 223.403 113.71 223.403 113.71C220.775 114.968 222.546 119.768 222.546 121.768C222.546 123.768 221.403 126.853 221.403 126.853C221.403 126.853 220.889 134.11 220.26 135.481C219.632 136.852 219.29 139.824 219.29 139.824C219.29 139.824 220.318 142.223 219.837 143.424C219.357 144.623 219.837 149.88 219.837 149.88C219.837 149.88 219.461 157.594 218.432 160.108C217.404 162.622 218.603 164.394 219.36 165.594C220.115 166.794 219.975 168.165 218.946 168.794C217.918 169.422 218.203 169.765 219.003 170.737C219.804 171.708 219.003 174.622 219.003 174.622C219.003 174.622 215.746 177.193 214.318 176.051C212.889 174.907 208.318 173.422 207.747 173.022C207.176 172.621 207.347 171.479 208.204 170.565C209.061 169.65 208.604 169.536 208.604 169.536C206.318 168.851 207.747 166.737 207.747 166.737C207.747 166.737 210.09 164.222 209.118 162.851C208.147 161.48 208.147 157.48 208.775 156.68C209.404 155.88 208.661 153.595 208.661 153.595L207.296 142.452C207.296 142.452 207.233 140.109 207.975 139.824C208.718 139.538 209.289 138.853 208.718 137.652C208.147 136.453 209.346 133.767 209.346 133.767C210.033 132.852 208.832 128.91 207.404 126.739C205.975 124.567 206.832 118.224 206.832 118.224C206.832 118.224 205.747 116.682 205.747 115.939C205.736 115.462 205.619 114.994 205.404 114.568C204.91 113.784 205.006 112.01 205.221 110.456C205.43 108.952 205.747 107.654 205.747 107.654L241.745 108.568Z"
    fill="#4E6896" />
  <path
    d="M230.545 43.8294L219.289 46.4577C219.289 46.4577 213.746 41.7722 215.118 39.258C215.588 38.3939 215.797 36.9205 215.868 35.3604C215.912 34.1714 215.903 32.981 215.84 31.7928C215.795 30.8893 215.725 29.9871 215.632 29.0873C215.632 29.0873 227.174 22.5719 226.774 29.0873C226.693 30.1719 226.718 31.262 226.85 32.3418C226.931 33.1097 227.155 33.8557 227.51 34.5418C228.127 35.6418 228.889 35.6576 228.889 35.6576L230.545 43.8294Z"
    fill="#FCB6AC" />
  <path opacity="0.1"
    d="M226.85 32.3418C225.223 33.5086 223.249 34.0896 221.249 33.9899C219.25 33.8902 217.343 33.1157 215.84 31.7928C215.795 30.8893 215.725 29.9871 215.632 29.0873C215.632 29.0873 227.174 22.5719 226.775 29.0873C226.693 30.1719 226.718 31.262 226.85 32.3418Z"
    fill="black" />
  <path
    d="M221.689 33.7729C222.852 33.7728 224.003 33.5437 225.078 33.0986C226.152 32.6535 227.128 32.0011 227.951 31.1787C228.773 30.3562 229.425 29.3799 229.87 28.3054C230.315 27.2309 230.544 26.0793 230.544 24.9163C230.544 23.7533 230.315 22.6017 229.87 21.5273C229.425 20.4529 228.772 19.4766 227.95 18.6543C227.127 17.832 226.151 17.1797 225.077 16.7347C224.002 16.2897 222.851 16.0607 221.688 16.0608C219.339 16.0609 217.086 16.9941 215.426 18.655C213.765 20.316 212.832 22.5686 212.832 24.9174C212.832 27.2661 213.765 29.5187 215.426 31.1794C217.087 32.8401 219.34 33.773 221.689 33.7729Z"
    fill="#FCB6AC" />
  <path opacity="0.1"
    d="M230.545 43.8294L219.289 46.4577C219.289 46.4577 213.746 41.7722 215.118 39.258C215.588 38.3939 215.797 36.9205 215.867 35.3615C216.116 36.7168 216.844 37.9375 217.917 38.8011C220.488 40.5146 220.089 42.63 220.089 42.63L224.717 42.4576C224.432 40.5717 226.145 39.5436 226.717 39.3152C227.288 39.0867 227.003 38.0576 227.003 38.0576L227.509 34.5428C228.127 35.6428 228.889 35.6577 228.889 35.6577L230.545 43.8294ZM241.745 108.568C241.745 108.568 241.564 109.409 241.306 110.629C240.062 110.563 238.42 110.515 237.688 110.682C236.431 110.967 231.403 111.082 231.403 111.082L218.946 111.523V111.139C217.513 111.15 216.082 111.246 214.661 111.424C212.546 111.711 209.233 111.31 207.118 110.967C206.467 110.875 205.83 110.703 205.221 110.456C205.429 108.951 205.746 107.654 205.746 107.654L241.745 108.568Z"
    fill="black" />
  <path
    d="M240.773 72.2866C240.593 73.3528 240.726 75.1223 240.954 76.8685C241.299 79.5181 241.859 82.1147 241.859 82.1147C241.859 82.1147 244.202 96.97 242.887 98.913C241.574 100.856 242.887 110.284 242.887 110.284C242.887 110.284 238.945 109.942 237.688 110.227C236.431 110.513 231.403 110.627 231.403 110.627L218.947 111.068V110.684C217.514 110.696 216.083 110.791 214.661 110.97C212.546 111.255 209.233 110.855 207.118 110.513C205.004 110.17 204.147 109.485 204.376 109.141C204.604 108.798 204.147 99.427 204.147 99.427L204.09 91.8275C204.09 91.8275 204.032 86.4565 205.347 85.2571C205.884 84.7674 206.325 82.9598 206.662 80.9946C207.143 78.1494 207.404 74.971 207.404 74.971L198.718 51.7156L198.547 51.2586C198.547 51.2586 201.061 47.3727 200.661 45.4879C200.261 43.602 203.004 41.9446 203.004 41.9446C203.004 41.9446 208.204 39.66 208.546 38.9725C208.889 38.2882 212.489 38.1158 212.489 38.1158C212.489 38.1158 214.547 37.0306 214.901 36.3261C214.987 36.1296 215.119 35.9565 215.285 35.8211C215.452 35.6857 215.648 35.592 215.858 35.5477C216.101 36.9196 216.832 38.1571 217.917 39.0307C220.489 40.7441 220.089 42.8595 220.089 42.8595L224.717 42.6871C224.432 40.8023 226.145 39.7732 226.717 39.5458C227.289 39.3162 227.003 38.2871 227.003 38.2871L227.537 34.5873C227.785 33.9728 229.517 36.3272 229.517 36.3272C229.517 36.3272 233.917 37.8302 234.203 37.9455C234.488 38.0597 238.202 39.202 238.202 39.202C238.202 39.202 242.773 42.1741 242.773 42.9166C242.773 43.6591 245.287 47.6583 245.287 47.6583L245.203 48.111C244.622 51.2608 241.192 69.8296 240.773 72.2866Z"
    fill="#7598D6" />
  <path
    d="M222.489 63.0287C222.489 63.0287 212.603 60.4003 211.632 59.771C210.66 59.1427 204.947 62.8002 211.918 67.7714C211.918 67.7714 220.442 69.543 222.722 67.7714C225.003 65.9997 222.489 63.0287 222.489 63.0287Z"
    fill="#FCB6AC" />
  <path opacity="0.1"
    d="M243.859 47.3738L245.059 47.4309L248.602 56.9163C248.602 56.9163 250.716 61.8874 251.116 62.687C251.516 63.4867 251.344 66.8015 251.116 67.7724C250.887 68.7434 249.401 73.0292 249.344 74.1154C249.287 75.2006 246.602 76.2868 243.859 76.1144C241.116 75.9431 234.716 76.8009 234.716 76.8009C234.716 76.8009 227.882 76.0859 223.689 78.2288C223.689 78.2288 221.002 72.6865 221.289 62.3444C221.289 62.3444 226.031 62.0588 227.231 62.5157C228.431 62.9726 234.259 64.2873 235.002 63.6009C235.744 62.9155 239.116 64.8585 239.116 64.8585C239.288 64.4815 239.377 64.0722 239.377 63.658C239.377 63.2439 239.288 62.8345 239.116 62.4575C238.545 61.0868 237.573 56.802 238.831 55.4302C240.087 54.0584 243.859 47.3738 243.859 47.3738Z"
    fill="black" />
  <path opacity="0.1"
    d="M240.954 76.8686C238.117 77.06 234.945 77.4852 234.945 77.4852C234.945 77.4852 228.111 76.7702 223.916 78.9131C223.916 78.9131 221.231 73.3708 221.518 63.0287C221.518 63.0287 226.259 62.7431 227.46 63.2C228.659 63.658 234.488 64.9717 235.23 64.2863C235.973 63.6009 239.345 65.5428 239.345 65.5428C239.516 65.166 239.605 64.7568 239.605 64.3429C239.605 63.9289 239.516 63.5197 239.345 63.1429C238.774 61.7721 237.802 57.4864 239.059 56.1145C240.316 54.7438 244.088 48.0581 244.088 48.0581L245.202 48.111C244.622 51.2608 241.192 69.8286 240.773 72.2856C240.593 73.3539 240.725 75.1223 240.954 76.8686Z"
    fill="black" />
  <path
    d="M244.088 47.6001L245.287 47.6583L248.83 57.1437C248.83 57.1437 250.944 62.1148 251.344 62.9144C251.744 63.714 251.573 67.0289 251.344 67.9998C251.116 68.9708 249.63 73.2565 249.573 74.3417C249.516 75.428 246.83 76.5132 244.088 76.3418C241.345 76.1705 234.945 77.0283 234.945 77.0283C234.945 77.0283 228.11 76.3133 223.916 78.4562C223.916 78.4562 221.231 72.9139 221.518 62.5717C221.518 62.5717 226.259 62.2862 227.46 62.7431C228.659 63.2 234.488 64.5147 235.23 63.8283C235.973 63.1429 239.345 65.0859 239.345 65.0859C239.516 64.7089 239.605 64.2996 239.605 63.8854C239.605 63.4712 239.516 63.0619 239.345 62.6849C238.774 61.3141 237.802 57.0284 239.059 55.6576C240.316 54.2858 244.088 47.6012 244.088 47.6012V47.6001Z"
    fill="#7598D6" />
  <path d="M232.016 68.589L233.441 69.4711L241.387 56.6392L239.961 55.7571L232.016 68.589Z"
    fill="#E4E8EF" />
  <path
    d="M245.461 54.9034C246.866 52.6347 246.714 49.9978 245.124 49.0131C243.533 48.0295 241.105 49.0681 239.701 51.3358C238.297 53.6046 238.447 56.2414 240.038 57.2261C241.629 58.2098 244.056 57.1711 245.461 54.9034Z"
    fill="#E4E8EF" />
  <path
    d="M244.649 54.3978C245.655 52.77 245.548 50.8778 244.405 50.1713C243.264 49.4637 241.521 50.2104 240.513 51.8382C239.506 53.466 239.614 55.3582 240.756 56.0658C241.897 56.7724 243.641 56.0256 244.649 54.3978Z"
    fill="#BBCADF" />
  <path
    d="M232.457 67.8761L228.396 74.4338C228.284 74.6227 228.251 74.8479 228.304 75.061C228.356 75.2741 228.49 75.4582 228.676 75.5737C228.863 75.6893 229.087 75.7272 229.302 75.6791C229.516 75.6311 229.702 75.5011 229.822 75.317L233.882 68.7593C233.999 68.5702 234.037 68.3424 233.986 68.1259C233.935 67.9094 233.8 67.7219 233.611 67.6048C233.422 67.4877 233.194 67.4505 232.978 67.5014C232.761 67.5522 232.574 67.687 232.457 67.8761Z"
    fill="#4E6896" />
  <path
    d="M219.574 75.7136L223.059 74.7415C223.059 74.7415 240.258 75.1985 234.488 68.114C234.488 68.114 231.459 65.199 225.116 67.5429C218.775 69.8846 217.003 70.1702 217.003 70.1702L219.574 75.7136Z"
    fill="#FCB6AC" />
  <path opacity="0.1"
    d="M217.004 45.8295C217.186 45.8295 217.36 45.7573 217.488 45.6288C217.617 45.5002 217.689 45.3259 217.689 45.1441C217.689 44.9623 217.617 44.788 217.488 44.6595C217.36 44.5309 217.186 44.4587 217.004 44.4587C216.822 44.4587 216.648 44.5309 216.519 44.6595C216.391 44.788 216.318 44.9623 216.318 45.1441C216.318 45.3259 216.391 45.5002 216.519 45.6288C216.648 45.7573 216.822 45.8295 217.004 45.8295ZM228.774 45.4286C228.866 45.4323 228.958 45.4172 229.045 45.3844C229.131 45.3515 229.21 45.3016 229.276 45.2375C229.343 45.1735 229.396 45.0966 229.432 45.0116C229.468 44.9266 229.487 44.8351 229.487 44.7427C229.487 44.6503 229.468 44.5588 229.432 44.4738C229.396 44.3888 229.343 44.3119 229.276 44.2479C229.21 44.1838 229.131 44.1339 229.045 44.1011C228.958 44.0682 228.866 44.0532 228.774 44.0568C228.596 44.0638 228.429 44.1391 228.306 44.267C228.183 44.3948 228.114 44.5653 228.114 44.7427C228.114 44.9201 228.183 45.0906 228.306 45.2185C228.429 45.3464 228.596 45.4217 228.774 45.4286Z"
    fill="black" />
  <path
    d="M217.003 45.6C217.185 45.6 217.36 45.5277 217.488 45.3991C217.617 45.2704 217.689 45.096 217.689 44.9141C217.689 44.7321 217.617 44.5577 217.488 44.429C217.36 44.3004 217.185 44.2281 217.003 44.2281C216.821 44.2281 216.647 44.3004 216.518 44.429C216.39 44.5577 216.317 44.7321 216.317 44.9141C216.317 45.096 216.39 45.2704 216.518 45.3991C216.647 45.5277 216.821 45.6 217.003 45.6Z"
    fill="white" />
  <path opacity="0.1"
    d="M217.974 55.3149C218.064 55.3149 218.154 55.2972 218.237 55.2628C218.32 55.2283 218.395 55.1778 218.459 55.1142C218.523 55.0506 218.573 54.975 218.608 54.8918C218.642 54.8087 218.66 54.7196 218.66 54.6296C218.66 54.5395 218.642 54.4504 218.608 54.3673C218.573 54.2841 218.523 54.2086 218.459 54.1449C218.395 54.0813 218.32 54.0308 218.237 53.9963C218.154 53.9619 218.064 53.9442 217.974 53.9442C217.793 53.9442 217.618 54.0164 217.49 54.1449C217.361 54.2735 217.289 54.4478 217.289 54.6296C217.289 54.8113 217.361 54.9857 217.49 55.1142C217.618 55.2427 217.793 55.3149 217.974 55.3149ZM229.117 54.6296C229.299 54.6296 229.473 54.5573 229.602 54.4288C229.73 54.3003 229.803 54.1259 229.803 53.9442C229.803 53.7624 229.73 53.5881 229.602 53.4595C229.473 53.331 229.299 53.2588 229.117 53.2588C228.935 53.2588 228.761 53.331 228.633 53.4595C228.504 53.5881 228.432 53.7624 228.432 53.9442C228.432 54.1259 228.504 54.3003 228.633 54.4288C228.761 54.5573 228.935 54.6296 229.117 54.6296Z"
    fill="black" />
  <path
    d="M217.974 55.0854C218.156 55.0854 218.331 55.0132 218.459 54.8846C218.588 54.7561 218.66 54.5818 218.66 54.4C218.66 54.2182 218.588 54.0439 218.459 53.9153C218.331 53.7868 218.156 53.7146 217.974 53.7146C217.793 53.7146 217.618 53.7868 217.49 53.9153C217.361 54.0439 217.289 54.2182 217.289 54.4C217.289 54.5818 217.361 54.7561 217.49 54.8846C217.618 55.0132 217.793 55.0854 217.974 55.0854Z"
    fill="white" />
  <path opacity="0.1"
    d="M228.832 87.7173C229.013 87.7173 229.188 87.6451 229.316 87.5166C229.445 87.388 229.517 87.2137 229.517 87.0319C229.517 86.8502 229.445 86.6758 229.316 86.5473C229.188 86.4188 229.013 86.3466 228.832 86.3466C228.65 86.3466 228.476 86.4188 228.347 86.5473C228.219 86.6758 228.146 86.8502 228.146 87.0319C228.146 87.2137 228.219 87.388 228.347 87.5166C228.476 87.6451 228.65 87.7173 228.832 87.7173ZM219.807 87.7173C219.989 87.7173 220.164 87.6451 220.292 87.5166C220.421 87.388 220.493 87.2137 220.493 87.0319C220.493 86.8502 220.421 86.6758 220.292 86.5473C220.164 86.4188 219.989 86.3466 219.807 86.3466C219.626 86.3466 219.451 86.4188 219.323 86.5473C219.194 86.6758 219.122 86.8502 219.122 87.0319C219.122 87.2137 219.194 87.388 219.323 87.5166C219.451 87.6451 219.626 87.7173 219.807 87.7173Z"
    fill="black" />
  <path
    d="M228.832 87.4878C229.014 87.4878 229.188 87.4156 229.317 87.2871C229.445 87.1586 229.517 86.9842 229.517 86.8025C229.517 86.6207 229.445 86.4463 229.317 86.3178C229.188 86.1893 229.014 86.1171 228.832 86.1171C228.65 86.1171 228.476 86.1893 228.347 86.3178C228.219 86.4463 228.146 86.6207 228.146 86.8025C228.146 86.9842 228.219 87.1586 228.347 87.2871C228.476 87.4156 228.65 87.4878 228.832 87.4878Z"
    fill="white" />
  <path opacity="0.1"
    d="M220.493 99.1975C220.675 99.1975 220.849 99.1253 220.978 98.9968C221.106 98.8682 221.178 98.6939 221.178 98.5121C221.178 98.3303 221.106 98.156 220.978 98.0275C220.849 97.8989 220.675 97.8267 220.493 97.8267C220.311 97.8267 220.137 97.8989 220.008 98.0275C219.88 98.156 219.808 98.3303 219.808 98.5121C219.808 98.6939 219.88 98.8682 220.008 98.9968C220.137 99.1253 220.311 99.1975 220.493 99.1975ZM229.117 98.5121C229.299 98.5121 229.474 98.4399 229.602 98.3114C229.731 98.1828 229.803 98.0085 229.803 97.8267C229.803 97.645 229.731 97.4706 229.602 97.3421C229.474 97.2136 229.299 97.1414 229.117 97.1414C228.936 97.1414 228.761 97.2136 228.633 97.3421C228.504 97.4706 228.432 97.645 228.432 97.8267C228.432 98.0085 228.504 98.1828 228.633 98.3114C228.761 98.4399 228.936 98.5121 229.117 98.5121Z"
    fill="black" />
  <path
    d="M220.493 98.9701C220.675 98.9701 220.849 98.8978 220.978 98.7692C221.106 98.6406 221.179 98.4661 221.179 98.2842C221.179 98.1023 221.106 97.9278 220.978 97.7992C220.849 97.6705 220.675 97.5983 220.493 97.5983C220.311 97.5983 220.136 97.6705 220.008 97.7992C219.879 97.9278 219.807 98.1023 219.807 98.2842C219.807 98.4661 219.879 98.6406 220.008 98.7692C220.136 98.8978 220.311 98.9701 220.493 98.9701ZM219.807 87.4878C219.989 87.4878 220.164 87.4156 220.292 87.287C220.421 87.1585 220.493 86.9842 220.493 86.8024C220.493 86.6206 220.421 86.4463 220.292 86.3178C220.164 86.1892 219.989 86.117 219.807 86.117C219.626 86.117 219.451 86.1892 219.323 86.3178C219.194 86.4463 219.122 86.6206 219.122 86.8024C219.122 86.9842 219.194 87.1585 219.323 87.287C219.451 87.4156 219.626 87.4878 219.807 87.4878ZM229.117 98.2815C229.299 98.2815 229.473 98.2093 229.602 98.0808C229.73 97.9523 229.803 97.7779 229.803 97.5962C229.803 97.4144 229.73 97.2401 229.602 97.1115C229.473 96.983 229.299 96.9108 229.117 96.9108C228.935 96.9108 228.761 96.983 228.633 97.1115C228.504 97.2401 228.432 97.4144 228.432 97.5962C228.432 97.7779 228.504 97.9523 228.633 98.0808C228.761 98.2093 228.935 98.2815 229.117 98.2815ZM228.774 45.2013C228.956 45.2013 229.13 45.1289 229.259 45.0002C229.388 44.8715 229.46 44.6969 229.46 44.5148C229.46 44.3328 229.388 44.1582 229.259 44.0294C229.13 43.9007 228.956 43.8284 228.774 43.8284C228.591 43.8284 228.417 43.9007 228.288 44.0294C228.159 44.1582 228.087 44.3328 228.087 44.5148C228.087 44.6969 228.159 44.8715 228.288 45.0002C228.417 45.1289 228.591 45.2013 228.774 45.2013ZM229.117 54.4C229.299 54.4 229.473 54.3278 229.602 54.1993C229.73 54.0707 229.803 53.8964 229.803 53.7146C229.803 53.5328 229.73 53.3585 229.602 53.23C229.473 53.1014 229.299 53.0292 229.117 53.0292C228.935 53.0292 228.761 53.1014 228.633 53.23C228.504 53.3585 228.432 53.5328 228.432 53.7146C228.432 53.8964 228.504 54.0707 228.633 54.1993C228.761 54.3278 228.935 54.4 229.117 54.4Z"
    fill="white" />
  <path opacity="0.1"
    d="M230.145 77.7707C230.145 77.7707 230.259 93.4267 230.602 96.2274C230.602 96.2274 230.727 78.509 230.145 77.7707ZM233.059 85.0275C232.824 85.0275 237.744 103.37 237.973 104.684C238.201 105.998 234.431 85.0275 233.059 85.0275ZM236.945 82.0565C236.945 82.2278 239.687 91.9988 241.059 92.5128C242.43 93.0269 236.945 82.0565 236.945 82.0565ZM247.744 63.0297C247.744 63.0297 241.916 63.2888 241.745 64.1297C241.573 64.9716 247.744 63.0297 247.744 63.0297ZM237.459 137.539C237.459 137.539 233.287 139.31 233.917 139.425C234.545 139.539 237.459 137.539 237.459 137.539ZM228.831 134.91C228.668 134.544 231.631 136.395 231.631 136.624C231.631 136.852 229.06 135.424 228.831 134.91ZM232.716 140.911C232.716 140.911 235.974 140.747 236.202 142C236.431 143.254 232.716 140.911 232.716 140.911ZM209.289 140.903C209.289 140.903 212.832 140.211 213.117 140.903C213.403 141.596 209.289 140.903 209.289 140.903ZM210.603 162.453C210.603 162.453 210.836 165.367 209.977 166.052C209.118 166.737 210.603 162.453 210.603 162.453ZM210.17 168.623C211.288 168.738 217.174 167.709 217.117 168.623C217.06 169.538 210.17 168.623 210.17 168.623ZM237.173 165.08C237.173 165.08 235.166 164.771 235.655 166.126L237.173 165.08ZM199.861 51.0291H198.775L197.118 57.0854C197.118 57.0854 196.546 59.1998 195.975 59.7138C195.404 60.2278 196.489 64.9134 196.489 64.9134C196.489 64.9134 195.861 68.2282 195.347 69.085C194.833 69.9417 196.146 72.0571 196.146 72.0571L198.775 78.2276L205.746 80.0553C205.746 80.0553 218.031 82.7419 218.602 83.1417C219.175 83.5415 219.689 82.9703 220.088 79.2557C220.488 75.5422 221.574 68.3425 222.431 67.9998C222.431 67.9998 215.574 68.7423 215.003 68.628C214.432 68.5138 211.689 68.6851 211.689 68.6851C211.689 68.6851 208.089 68.4567 207.518 68.7994C206.947 69.1421 208.26 67.1388 208.26 67.1388C208.501 66.2222 208.501 65.2589 208.26 64.3423C207.86 62.7991 207.632 45.3144 199.861 51.0291Z"
    fill="black" />
  <path opacity="0.1"
    d="M222.203 68.6842C221.345 69.0269 220.26 76.2266 219.86 79.9401C219.46 83.6548 218.945 84.2259 218.374 83.8261C217.911 83.5014 209.721 81.6684 206.66 80.9915C207.142 78.1463 207.404 74.969 207.404 74.969L198.718 51.7135H199.633C207.404 45.9999 207.632 63.4846 208.032 65.0277C208.272 65.9445 208.272 66.9075 208.032 67.8243C208.032 67.8243 206.717 69.8265 207.289 69.4849C207.86 69.1411 211.46 69.3696 211.46 69.3696C211.46 69.3696 214.203 69.1982 214.775 69.3125C215.346 69.4267 222.203 68.6842 222.203 68.6842Z"
    fill="black" />
  <path
    d="M199.633 51.2565H198.546L196.89 57.3139C196.89 57.3139 196.318 59.4282 195.747 59.9423C195.175 60.4563 196.261 65.1419 196.261 65.1419C196.261 65.1419 195.632 68.4556 195.118 69.3134C194.604 70.1701 195.918 72.2845 195.918 72.2845L198.546 78.455L205.518 80.2848C205.518 80.2848 217.803 82.9693 218.374 83.3691C218.946 83.7699 219.46 83.1977 219.86 79.4842C220.26 75.7696 221.345 68.5698 222.203 68.2272C222.203 68.2272 215.346 68.9707 214.774 68.8565C214.203 68.7412 211.46 68.9136 211.46 68.9136C211.46 68.9136 207.86 68.6841 207.289 69.0278C206.718 69.3705 208.032 67.3673 208.032 67.3673C208.273 66.4507 208.273 65.4873 208.032 64.5707C207.632 63.0275 207.403 45.5428 199.633 51.2565Z"
    fill="#7598D6" />
  <path opacity="0.1"
    d="M203.346 71.9407C203.346 71.9407 200.204 77.8839 199.633 77.1975C199.061 76.5121 203.346 71.9407 203.346 71.9407ZM200.09 68.5593C200.09 68.5593 197.176 70.9719 198.546 71.6002C199.918 72.2284 200.09 68.5593 200.09 68.5593ZM202.832 65.5988C203.061 65.6559 207.061 66.4503 207.118 66.7961C207.175 67.142 202.832 65.5988 202.832 65.5988ZM230.57 23.7417C230.446 23.786 230.341 23.8702 230.27 23.9811C230.199 24.0919 230.168 24.2232 230.18 24.3541C229.946 24.5593 229.619 24.3171 229.43 24.0548C229.237 23.7946 229.021 23.472 228.731 23.5079C228.593 23.552 228.459 23.6079 228.33 23.6751C227.873 23.8221 227.487 23.2837 227.231 22.8141L225.894 20.3402C225 20.8584 223.944 20.3158 223.057 19.7785C222.171 19.2412 221.114 18.6954 220.218 19.2137C218.905 19.9731 218.856 22.5031 217.494 23.1272C217.055 23.3281 216.546 23.2848 216.139 23.5608C215.737 23.8358 215.519 24.3636 215.339 24.8681C215.272 25.1556 215.115 25.4142 214.891 25.6064C214.749 25.6809 214.59 25.7193 214.43 25.7185C214.026 25.7873 213.61 25.7291 213.241 25.5514C213.047 25.4303 212.9 25.2463 212.825 25.0302C212.75 24.8141 212.752 24.5788 212.829 24.3636C212.84 24.3408 212.852 24.3186 212.865 24.297C213.012 24.1204 213.144 23.931 213.259 23.7322C213.396 23.3694 213.2 22.9463 213.243 22.5529C213.314 21.8812 214.025 21.5269 214.146 20.8658C214.196 20.6078 214.143 20.3317 214.192 20.0704C214.198 20.0363 214.207 20.0027 214.219 19.97L213.8 20.2587C214.269 19.7119 214.505 18.9535 214.848 18.2904C215.228 17.5647 215.752 16.9237 216.388 16.4063C217.023 15.889 217.757 15.5058 218.545 15.2802C220.036 14.8465 221.61 14.965 223.114 15.333C224.544 15.6895 225.914 16.2532 227.18 17.0084C227.633 17.2506 228.035 17.5775 228.365 17.9709C228.641 18.3781 228.876 18.8118 229.066 19.2666C229.509 20.1847 230.721 21.0351 229.757 21.163C228.954 21.2709 229.686 21.8326 230.106 22.2123C230.201 22.2863 230.282 22.3762 230.348 22.4767C230.419 22.6211 230.451 22.7812 230.443 22.9417C230.434 23.1022 230.384 23.2578 230.298 23.3937C230.135 23.6 230.794 23.6412 230.57 23.7417Z"
    fill="black" />
  <path
    d="M230.57 23.5133C230.446 23.5576 230.341 23.642 230.27 23.7531C230.199 23.8642 230.168 23.9957 230.18 24.1268C229.946 24.332 229.62 24.0897 229.43 23.8264C229.238 23.5662 229.021 23.2436 228.731 23.2806C228.593 23.3244 228.459 23.38 228.33 23.4467C227.873 23.5937 227.487 23.0553 227.231 22.5857L225.894 20.1128C225.001 20.6311 223.944 20.0874 223.058 19.5501C222.171 19.0128 221.115 18.4671 220.219 18.9853C218.905 19.7447 218.856 22.2747 217.494 22.8988C217.055 23.0997 216.546 23.0564 216.139 23.3324C215.737 23.6074 215.519 24.1352 215.34 24.6397C215.272 24.9272 215.115 25.1858 214.891 25.378C214.749 25.4525 214.591 25.491 214.43 25.4901C214.026 25.5589 213.61 25.5007 213.241 25.323C213.047 25.2019 212.9 25.0179 212.826 24.8018C212.751 24.5857 212.752 24.3504 212.83 24.1352C212.841 24.1124 212.853 24.0902 212.866 24.0686C213.012 23.8916 213.144 23.7027 213.259 23.5038C213.397 23.141 213.2 22.7179 213.243 22.3245C213.314 21.6528 214.025 21.2985 214.147 20.6385C214.196 20.3794 214.143 20.1033 214.192 19.8431C214.199 19.8089 214.208 19.7754 214.22 19.7426L213.801 20.0303C214.269 19.4835 214.505 18.7251 214.848 18.063C215.228 17.3371 215.752 16.696 216.388 16.1784C217.024 15.6608 217.758 15.2776 218.545 15.0518C220.036 14.6181 221.611 14.7366 223.115 15.1046C224.545 15.4611 225.914 16.0248 227.18 16.78C227.633 17.0233 228.035 17.3491 228.365 17.7425C228.641 18.1497 228.876 18.5845 229.066 19.0382C229.51 19.9573 230.722 20.8067 229.757 20.9357C228.954 21.0425 229.686 21.6052 230.106 21.9839C230.201 22.0579 230.283 22.1478 230.348 22.2494C230.419 22.3936 230.451 22.5535 230.443 22.7138C230.434 22.8741 230.384 23.0296 230.299 23.1653C230.136 23.3716 230.795 23.4128 230.57 23.5133Z"
    fill="#9298AF" />
  <path opacity="0.1"
    d="M230.106 21.9839L230.015 22.9464C230.015 22.9464 220.425 10.7914 212.964 24.5171L212.865 24.0686C213.012 23.8916 213.144 23.7027 213.259 23.5038C213.396 23.141 213.199 22.7179 213.243 22.3245C213.314 21.6528 214.024 21.2985 214.146 20.6385C214.196 20.3794 214.143 20.1033 214.192 19.8431C214.198 19.8089 214.207 19.7754 214.219 19.7426L213.8 20.0303C214.269 19.4835 214.505 18.7251 214.847 18.063C215.228 17.3371 215.752 16.696 216.388 16.1784C217.023 15.6608 217.757 15.2776 218.545 15.0518C220.035 14.6181 221.61 14.7366 223.114 15.1046C224.544 15.4611 225.914 16.0248 227.18 16.78C227.633 17.0233 228.035 17.3491 228.365 17.7425C228.641 18.1497 228.876 18.5845 229.066 19.0382C229.509 19.9573 230.721 20.8067 229.757 20.9357C228.954 21.0425 229.686 21.6052 230.106 21.9839Z"
    fill="black" />
  <path
    d="M212.964 24.2885C212.964 24.2885 211.584 18.1233 212.023 17.1343C212.023 17.1343 210.832 14.6911 210.832 14.1093C210.774 13.1389 210.472 12.1989 209.955 11.3762C209.327 10.3873 208.638 5.79269 212.4 4.68845C216.161 3.58317 219.044 2.59422 219.483 1.83797C219.922 1.08172 226.378 1.54711 228.134 4.45576C229.889 7.36336 231.017 6.78269 231.017 6.78269C231.017 6.78269 233.713 8.46865 233.713 9.98115C233.713 11.4936 232.898 12.2488 233.713 12.5979C234.528 12.9469 233.901 19.2285 230.328 19.4031L230.015 22.7179C230.015 22.7179 220.424 10.5618 212.964 24.2885Z"
    fill="#7598D6" />
  <path opacity="0.1"
    d="M213.374 5.88785C213.374 5.88785 212.546 10.7448 214.061 12.3736L213.374 5.88785ZM217.26 4.7741C217.26 4.7741 215.146 9.97372 215.66 10.9743L217.26 4.7741ZM219.089 3.1167C219.089 3.1167 217.66 9.88805 218.345 10.4306L219.089 3.1167ZM221.546 4.94439C221.546 4.94439 219.774 9.28728 220.488 9.88699L221.546 4.94439ZM224.888 5.46055C224.888 5.46055 222.802 9.00381 223.231 9.63103L224.888 5.46055ZM229.174 8.91708C229.174 8.91708 226.945 9.51785 227.402 10.2318L229.174 8.91708ZM231.288 12.601C231.288 12.601 229.288 13.5741 229.659 14.0871L231.288 12.601ZM212.023 17.1332C212.023 17.1332 224.797 11.9442 230.328 19.4009C230.328 19.4009 223.615 13.6936 212.023 17.1332Z"
    fill="black" />
  <path
    d="M204.714 59.6292L206.922 57.3975L213.162 63.5649L210.955 65.7987L205.216 60.1252L204.714 59.6292ZM186.079 40.4183C185.929 40.2741 185.81 40.1017 185.727 39.911C185.645 39.7203 185.601 39.5151 185.599 39.3074C185.596 39.0997 185.635 38.8935 185.713 38.7009C185.791 38.5083 185.906 38.333 186.052 38.1852C186.198 38.0375 186.372 37.9202 186.563 37.8401C186.755 37.7601 186.961 37.7188 187.168 37.7189C187.376 37.7189 187.582 37.7602 187.774 37.8403C187.965 37.9204 188.139 38.0377 188.285 38.1855L192.293 42.1466C192.589 42.4393 192.756 42.8377 192.759 43.254C192.761 43.6704 192.598 44.0706 192.305 44.3667C192.013 44.6628 191.614 44.8305 191.198 44.8328C190.782 44.8352 190.381 44.6721 190.085 44.3794L186.079 40.4183Z"
    fill="#4E6896" />
  <path
    d="M188.684 46.3806L194.167 40.8033L209.67 56.2118L204.187 61.789L189.93 47.6191L188.684 46.3806Z"
    fill="#BBCADF" />
  <path
    d="M194.248 44.207C194.248 44.207 198.783 44.8596 204.759 53.2027C210.735 61.5447 194.248 44.207 194.248 44.207Z"
    fill="#AFBED3" />
  <path
    d="M219.098 62.815C219.098 62.815 211.61 60.0851 210.874 59.4325C210.138 58.7799 205.81 62.5771 211.091 67.7397C211.091 67.7397 217.547 69.579 219.274 67.7397C221.002 65.8993 219.098 62.815 219.098 62.815Z"
    fill="#FCB6AC" />
  <path
    d="M201.66 181.802C201.66 181.802 197.063 187.415 200.713 195.9L164 211.823L160.477 212.561L158.854 205.462L159.94 196.502V191.606L201.66 181.802Z"
    fill="#D5D6DB" />
  <path d="M85.7256 178.175L136.539 168.912L203.871 179.638L162.051 194.694L85.7256 178.175Z"
    fill="#6C63FF" />
  <path d="M85.7256 178.175L136.539 168.912L203.871 179.638L162.051 194.694L85.7256 178.175Z"
    fill="#7598D6" />
  <path
    d="M85.7255 178.174C85.7255 178.174 80.9733 187.178 86.449 195.494L161.803 211.823C161.803 211.823 157.126 204.65 162.044 194.695L85.7255 178.174Z"
    fill="#7598D6" />
  <path opacity="0.1"
    d="M85.7255 178.174C85.7255 178.174 80.9733 187.178 86.449 195.494L161.803 211.823C161.803 211.823 157.126 204.65 162.044 194.695L85.7255 178.174Z"
    fill="black" />
  <path opacity="0.1" d="M87.9709 181.296C87.9709 181.296 85.2547 187.884 87.9709 192.148V181.296Z"
    fill="black" />
  <path
    d="M161.803 211.823L203.871 193.873C203.871 193.873 206.224 194.379 204.703 196.103C203.181 197.827 162.615 213.547 162.615 213.547L86.4502 195.495L161.803 211.823Z"
    fill="#7598D6" />
  <path opacity="0.1"
    d="M161.803 211.823L203.871 193.873C203.871 193.873 206.224 194.379 204.703 196.103C203.181 197.827 162.615 213.547 162.615 213.547L86.4502 195.495L161.803 211.823Z"
    fill="black" />
  <path opacity="0.1"
    d="M158.355 196.509C158.355 196.509 154.298 201.377 158.355 208.679V196.509ZM177.994 196.426L159.799 202.497L159.862 202.69L178.059 196.618L177.994 196.426ZM181.639 195.822L159.792 204.13L159.865 204.319L181.711 196.012L181.639 195.822ZM184.987 195.794L159.915 206.056L159.991 206.244L185.063 195.982L184.987 195.794ZM188.626 194.913L160.207 207.752L160.291 207.936L188.71 195.098L188.626 194.913ZM191.684 194.92L160.432 208.58L160.514 208.766L191.765 195.106L191.684 194.92ZM198.373 193.783L160.903 209.965L160.983 210.152L198.453 193.969L198.373 193.783Z"
    fill="black" />
  <path opacity="0.3"
    d="M104.604 179.166L140.303 171.662L162.051 175.82L132.797 185.251L104.604 179.166Z"
    fill="white" />
  <path
    d="M203.871 179.638C203.871 179.638 205.717 180.382 204.634 181.533C203.551 182.682 162.045 194.694 162.045 194.694L203.871 179.638Z"
    fill="#6C63FF" />
  <path
    d="M221.8 162.293C221.8 162.293 217.203 167.904 220.854 176.39L184.142 192.312L180.619 193.055L178.995 185.956L180.097 176.999V172.096L221.8 162.293Z"
    fill="#D5D6DB" />
  <path d="M105.867 158.665L156.68 149.404L224.012 160.129L182.192 175.186L105.867 158.665Z"
    fill="#FF7067" />
  <path
    d="M105.859 158.665C105.859 158.665 101.104 167.669 106.581 175.986L181.934 192.314C181.934 192.314 177.259 185.136 182.184 175.184L105.859 158.665Z"
    fill="#FF7067" />
  <path opacity="0.1"
    d="M105.859 158.665C105.859 158.665 101.104 167.669 106.581 175.986L181.934 192.314C181.934 192.314 177.259 185.136 182.184 175.184L158.355 170.027L105.859 158.665Z"
    fill="black" />
  <path opacity="0.1" d="M108.11 161.788C108.11 161.788 105.397 168.373 108.11 172.638V161.788Z"
    fill="black" />
  <path
    d="M181.943 192.313L224.013 174.362C224.013 174.362 226.364 174.87 224.843 176.594C223.321 178.318 182.754 194.038 182.754 194.038L106.59 175.985L181.943 192.313Z"
    fill="#FF7067" />
  <path opacity="0.1"
    d="M181.943 192.313L224.013 174.362C224.013 174.362 226.364 174.87 224.843 176.594C223.321 178.318 182.754 194.038 182.754 194.038L106.59 175.985L181.943 192.313Z"
    fill="black" />
  <path opacity="0.1"
    d="M178.495 177C178.495 177 174.437 181.869 178.495 189.171V177ZM198.136 176.92L179.939 182.99L180.004 183.183L198.199 177.113L198.136 176.92ZM201.783 176.314L179.936 184.621L180.008 184.811L201.855 176.503L201.783 176.314ZM205.127 176.283L180.056 186.546L180.132 186.733L205.205 176.472L205.127 176.283ZM208.769 175.404L180.351 188.242L180.434 188.427L208.853 175.589L208.769 175.404ZM211.825 175.405L180.572 189.066L180.653 189.251L211.905 175.591L211.825 175.405ZM218.515 174.271L181.045 190.453L181.126 190.639L218.595 174.457L218.515 174.271Z"
    fill="black" />
  <path opacity="0.45"
    d="M124.745 159.658L160.444 152.153L182.193 156.312L152.939 165.743L124.745 159.658Z"
    fill="white" />
  <path
    d="M224.012 160.129C224.012 160.129 225.857 160.874 224.775 162.021C223.694 163.17 182.192 175.184 182.192 175.184L224.012 160.129Z"
    fill="#FF7067" />
  <path
    d="M223.707 139.976C223.707 139.976 219.108 150.05 222.759 158.535L186.045 169.995L182.531 170.74L180.908 163.641L181.993 154.681V149.779L223.707 139.976Z"
    fill="#D5D6DB" />
  <path d="M107.779 136.349L158.594 127.086L225.928 137.812L184.104 152.868L107.779 136.349Z"
    fill="#7598D6" />
  <path
    d="M107.78 136.348C107.78 136.348 103.02 145.352 108.496 153.668L183.85 169.996C183.85 169.996 179.172 162.818 184.096 152.869L107.78 136.348Z"
    fill="#7598D6" />
  <path opacity="0.1"
    d="M107.78 136.348C107.78 136.348 103.02 145.352 108.496 153.668L183.85 169.996C183.85 169.996 179.172 162.818 184.096 152.869L107.78 136.348Z"
    fill="black" />
  <path opacity="0.1" d="M110.026 139.469C110.026 139.469 107.309 146.058 110.026 150.321V139.469Z"
    fill="black" />
  <path
    d="M183.857 169.995L225.926 156.507C225.926 156.507 228.278 157.014 226.757 158.738C225.236 160.462 184.668 171.72 184.668 171.72L108.504 153.667L183.857 169.995Z"
    fill="#7598D6" />
  <path opacity="0.1"
    d="M183.857 169.995L225.926 156.507C225.926 156.507 228.278 157.014 226.757 158.738C225.236 160.462 184.668 171.72 184.668 171.72L108.504 153.667L183.857 169.995Z"
    fill="black" />
  <path opacity="0.1"
    d="M180.409 154.682C180.409 154.682 176.353 159.549 180.409 166.852V154.682ZM200.052 154.601L181.855 160.673L181.92 160.865L200.115 154.794L200.052 154.601ZM203.697 153.997L181.851 162.305L181.923 162.494L203.769 154.187L203.697 153.997ZM207.04 153.966L181.967 164.227L182.044 164.416L207.116 154.153L207.04 153.966ZM210.685 153.084L182.265 165.922L182.349 166.107L210.768 153.269L210.685 153.084ZM213.74 153.089L182.489 166.749L182.57 166.935L213.822 153.275L213.74 153.089ZM220.43 151.955L182.96 168.138L183.041 168.325L220.511 152.141L220.43 151.955Z"
    fill="black" />
  <path opacity="0.3"
    d="M126.657 137.339L162.356 129.835L184.105 133.993L154.852 143.424L126.657 137.339Z"
    fill="white" />
  <path
    d="M225.926 137.812C225.926 137.812 227.771 138.555 226.688 139.706C225.605 140.856 184.104 152.868 184.104 152.868L225.926 137.812Z"
    fill="#7598D6" />
  <path
    d="M33.7419 104.899C33.7419 104.899 39.5909 75.8024 37.3518 72.1819C37.3518 72.1819 37.2704 68.8174 37.4047 64.5274V64.0355C37.0102 64.2978 36.6009 64.5348 36.1757 64.7442C34.1129 65.8039 31.7447 66.1096 29.4805 65.6083L31.2521 63.6347C31.6762 63.164 32.1194 62.6542 32.2114 62.0302C32.3034 61.4061 32.0485 60.8508 31.8285 60.2945C30.1468 56.0436 30.058 50.698 33.2987 47.4541C36.0382 44.7253 36.7034 41.2053 39.6756 38.7144C41.847 36.8909 43.0401 34.216 44.1665 31.63C45.1195 29.4448 46.0799 27.2405 46.6246 24.9242C47.0498 23.1155 47.2201 21.2403 47.805 19.4728C48.3888 17.7065 49.4835 15.9878 51.1949 15.1977C51.8041 14.9174 52.48 14.7587 53.0363 14.3864C53.7661 13.8935 54.2051 13.0939 54.7329 12.3916C57.4152 8.84939 66.395 10.9362 70.6458 12.3747C71.8015 12.7369 72.8716 13.3299 73.7914 14.1178L73.7523 14.0543C73.7206 14.0003 73.6814 13.9475 73.6465 13.8935C74.1119 14.2701 74.5138 14.7185 74.8364 15.222C75.4562 16.2035 75.7143 17.3479 76.2326 18.4109C76.8556 19.6685 80.3227 23.1779 78.8313 24.5921C78.7269 24.687 78.6071 24.7636 78.477 24.8184C77.9174 25.0514 77.3012 25.1132 76.7064 24.9961L76.7699 25.1474C77.2794 26.3946 77.5406 27.7294 77.5388 29.0767C77.5388 34.8961 72.739 39.6145 66.8128 39.6145C65.699 39.6155 64.5916 39.4452 63.5286 39.1078C63.5043 39.2432 63.4832 39.3776 63.4578 39.5119C63.4578 39.5648 63.4398 39.6177 63.4334 39.6705L63.6207 39.9339C63.6299 39.9176 63.6406 39.902 63.6524 39.8874L69.2137 47.6593C70.0641 48.2579 74.9602 51.8002 75.2362 54.4571C75.5271 57.3657 75.818 60.7694 75.818 60.7694L75.856 61.4992C76.0992 61.7023 76.3835 61.8503 76.6894 61.9328C76.9952 62.0153 77.3154 62.0305 77.6277 61.9773C79.3623 61.6938 79.3623 68.353 79.3623 68.353C79.3623 68.353 80.5173 69.416 81.3116 68.4948C82.1049 67.5746 84.2023 70.6948 84.2023 70.6948L97.3441 71.2617L97.6445 71.2786L98.3531 69.086C98.3955 68.9576 98.4655 68.84 98.5582 68.7416C98.6509 68.6432 98.7641 68.5663 98.8898 68.5164C99.0155 68.4664 99.1505 68.4447 99.2855 68.4527C99.4205 68.4606 99.5521 68.4981 99.671 68.5625L99.7207 68.591L99.8128 68.6545L99.8582 68.6968C99.8836 68.7197 99.9073 68.7445 99.9291 68.7708L99.9714 68.8205L99.9926 68.8417C100.074 68.9547 100.129 69.0854 100.151 69.2231C100.173 69.3609 100.163 69.5019 100.121 69.635L99.5113 71.5166C102.048 72.0264 104.641 73.4649 102.526 77.4249L113.245 75.4449L109.776 78.3567L91.8748 82.0512C92.1117 82.4764 91.9562 83.093 91.2158 83.9603C88.0269 87.7046 82.2181 88.721 79.8806 88.9844C79.2629 90.3652 78.4916 91.6719 77.5811 92.8799L77.7832 96.6103C77.7832 96.6103 83.702 125.04 84.7861 126.482C84.2387 125.862 83.7377 125.203 83.2874 124.509C85.0061 130.351 87.4071 138.346 88.0385 139.543C89.0507 141.455 89.99 149.196 88.835 149.692C88.4807 149.844 87.4674 149.769 86.0215 149.659V150.301L86.086 174.597C86.086 174.597 85.7962 189.5 86.5937 190.921C87.3902 192.34 87.6028 195.319 87.6028 195.319C87.6028 195.319 90.7906 201.196 93.3164 203.559C93.3336 203.577 93.3523 203.594 93.3725 203.609L93.4508 203.055C93.4508 203.055 96.4863 206.889 103.203 206.673C103.203 206.673 107.244 209.301 101.251 209.443C95.2573 209.585 87.6028 209.23 87.6028 209.23C87.6028 209.23 82.2572 201.083 77.78 202.146V208.32H76.4082V202.046C75.7724 201.628 75.2282 201.085 74.8088 200.45C74.3893 199.815 74.1033 199.101 73.9681 198.352C73.8506 197.58 73.9365 196.79 74.2173 196.062C74.4981 195.333 74.9642 194.69 75.5694 194.196C75.8414 193.951 76.0595 193.651 76.2101 193.317C76.3606 192.983 76.4403 192.622 76.4441 192.255L76.4938 192.298C76.4938 192.174 76.5256 192.047 76.5393 191.916C76.9328 188.727 77.4257 182.149 75.6858 177.283C73.3017 170.609 72.5793 161.314 74.315 155.781C74.8756 154.011 75.3357 152.213 75.6932 150.393C75.7355 150.162 75.7746 149.942 75.8095 149.737C74.6233 149.898 73.4486 150.135 72.2927 150.446C68.2724 151.554 59.4766 151.759 51.967 151.7C51.949 151.905 51.9279 152.121 51.9035 152.337C51.7698 153.839 51.49 155.324 51.068 156.772C50.1245 159.607 49.693 172.1 49.693 172.1C49.693 172.1 48.4777 182.372 49.1398 186.552C49.4941 188.876 49.8484 191.21 50.0505 193.555V193.602C50.0505 193.602 52.041 199.269 53.4975 202.348C53.5324 202.425 53.5715 202.503 53.6075 202.577C53.9955 202.613 54.3775 202.698 54.7445 202.829C54.7445 202.829 56.6959 206.726 58.641 207.371C60.5851 208.015 59.9409 210.137 55.5378 209.357C51.1346 208.579 44.4849 207.941 44.4849 207.941L44.1993 203.966L42.8455 202.273L43.1998 206.237L41.7582 205.954L41.9485 201.133L39.7348 198.362C39.7348 198.362 37.0609 195.982 41.0358 191.299V191.402C41.0781 191.334 41.1172 191.263 41.1627 191.197V191.175C41.8216 190.155 42.3462 188.253 41.3859 184.877C40.3045 181.039 39.3888 177.157 38.6411 173.24C38.6411 173.24 34.7658 158.409 39.4238 151.391H39.2186C39.755 150.284 40.1147 149.1 40.2848 147.881C36.8378 147.683 33.4553 147.059 30.6958 145.714C30.7063 145.699 32.3669 110.503 33.7419 104.899ZM77.4997 80.3504V80.4224L78.2083 80.4573L77.4997 80.3504ZM79.9292 80.6879C80.0459 80.7136 80.1552 80.7657 80.2486 80.8402C80.5532 81.2706 80.7447 81.7709 80.805 82.2955L81.9103 82.048C81.9103 82.048 82.6856 81.8809 83.8014 81.6937L84.3303 81.1617C82.877 81.0422 81.3687 80.8655 79.9303 80.6879H79.9292Z"
    fill="url(#paint1_linear_118_6398)" />
  <path d="M43.3632 201.182L43.7842 206.201L42.3711 205.918L42.5837 200.474L43.3632 201.182Z"
    fill="#7D7D95" />
  <path
    d="M75.6089 177.349C77.3118 182.202 76.8305 188.751 76.4476 191.933C76.307 193.109 76.1748 193.824 76.1748 193.824C76.1748 193.824 78.7227 199.627 78.9353 199.847C79.1469 200.065 86.4301 204.511 86.4301 204.511L91.5208 207.483C91.5208 207.483 96.6855 205.22 94.2095 204.44C93.7035 204.237 93.2477 203.927 92.8736 203.53C90.3944 201.174 87.2805 195.319 87.2805 195.319C87.2805 195.319 87.0679 192.348 86.2884 190.933C85.5089 189.52 85.7924 174.667 85.7924 174.667L85.7321 150.455V147.299L76.0436 147.37C75.9826 148.442 75.843 149.507 75.6258 150.558C75.2782 152.373 74.8276 154.166 74.2762 155.929C72.5691 161.451 73.2777 170.7 75.6089 177.349Z"
    fill="#E8C9C5" />
  <path opacity="0.1"
    d="M76.1759 193.825C76.1759 193.825 78.7217 199.627 78.9343 199.847C79.1469 200.066 86.4302 204.512 86.4302 204.512L91.5209 207.484C91.5209 207.484 96.6856 205.221 94.2095 204.441C93.7035 204.238 93.2477 203.928 92.8736 203.531L92.6536 205.079L90.9571 205.008L76.4339 191.94C76.307 193.11 76.1759 193.825 76.1759 193.825Z"
    fill="black" />
  <path
    d="M76.3528 192.271L90.9575 205.427L92.654 205.498L93.0083 203.018C93.0083 203.018 95.9773 206.837 102.573 206.624C102.573 206.624 106.533 209.242 100.664 209.384C94.7937 209.525 87.2989 209.171 87.2989 209.171C87.2989 209.171 82.0633 201.024 77.6813 202.087V208.24H76.3349V202.031C75.7094 201.609 75.1755 201.065 74.7653 200.432C74.3551 199.799 74.077 199.09 73.9477 198.347C73.8314 197.581 73.914 196.798 74.1876 196.073C74.4612 195.349 74.9165 194.707 75.5099 194.209C75.7749 193.96 75.9864 193.66 76.1313 193.327C76.2763 192.994 76.3517 192.635 76.3528 192.271Z"
    fill="#7D7D95" />
  <path
    d="M42.0162 184.916C42.9586 188.28 42.4457 190.176 41.8005 191.192V191.213C40.9738 192.469 40.399 193.873 40.1082 195.348L40.051 195.666L46.6955 205.355L50.3022 206.771C50.3022 206.771 56.1005 204.791 55.0407 204.224C54.7762 204.087 54.3616 203.349 53.8878 202.333C52.4705 199.269 50.5137 193.615 50.5137 193.615V193.569C50.3085 191.235 49.9828 188.908 49.6221 186.591C48.9737 182.422 50.1636 172.188 50.1636 172.188C50.1636 172.188 50.5888 159.744 51.5101 156.914C51.9257 155.475 52.202 153.999 52.3351 152.507C52.5265 150.736 52.5688 149.277 52.5688 149.277C52.5688 149.277 48.7506 143.963 41.7507 149.701C41.191 150.159 40.6986 150.693 40.288 151.289C35.4522 158.168 39.3466 173.322 39.3466 173.322C39.3466 173.322 40.3197 178.833 42.0162 184.916Z"
    fill="#E8C9C5" />
  <path opacity="0.1"
    d="M40.041 195.668L46.6854 205.355L50.2922 206.772C50.2922 206.772 56.0904 204.792 55.0306 204.225C54.7662 204.087 54.3516 203.351 53.8777 202.333C51.4218 202.312 50.1504 204.651 50.1504 204.651L47.0408 204.155C47.0408 204.155 42.938 196.092 42.0168 195.6C41.0966 195.107 41.8751 191.919 41.8751 191.919V191.108C41.8507 191.136 41.8296 191.168 41.801 191.197V191.218C40.9745 192.473 40.3998 193.877 40.1087 195.351L40.041 195.668Z"
    fill="black" />
  <path
    d="M49.9362 204.858C49.9362 204.858 51.7078 201.606 55.1019 202.807C55.1019 202.807 57.0111 206.703 58.9202 207.335C60.8294 207.965 60.1916 210.09 55.8772 209.315C51.5629 208.539 45.0592 207.898 45.0592 207.898L44.7757 203.933L40.3905 198.348C40.3905 198.348 37.777 195.977 41.6661 191.313V192.124C41.6661 192.124 40.8866 195.312 41.8078 195.804C42.728 196.297 46.816 204.363 46.816 204.363L49.9362 204.858Z"
    fill="#7D7D95" />
  <path opacity="0.1"
    d="M76.0327 147.365C75.9717 148.437 75.8321 149.503 75.6149 150.554C79.6035 149.969 83.3054 150.26 85.7317 150.45V147.294L76.0327 147.365ZM39.8945 152.171C39.8945 152.171 45.5627 152.447 52.3214 152.504C52.5117 150.733 52.5541 149.274 52.5541 149.274C52.5541 149.274 48.7358 143.96 41.737 149.699C41.1767 150.156 40.6839 150.691 40.2732 151.286C40.1635 151.588 40.037 151.883 39.8945 152.171Z"
    fill="black" />
  <path
    d="M39.8945 151.534C39.8945 151.534 64.7186 152.736 72.2853 150.614C79.852 148.492 87.3511 150.331 88.4807 149.838C89.6114 149.346 88.6933 141.634 87.7012 139.725C86.7101 137.815 81.2683 118.507 81.2683 118.507L76.0327 91.2098L70.5179 89.6898L70.1287 89.5798L60.5174 86.9303L53.4753 84.9852C53.4753 84.9852 39.4736 139.654 40.6741 143.685C41.1101 145.229 41.1803 146.852 40.8792 148.428C40.6962 149.504 40.3652 150.549 39.8956 151.534H39.8945Z"
    fill="#7598D6" />
  <path
    d="M94.2835 72.5405C94.2835 72.5405 99.243 77.8533 95.4871 80.8149C91.7323 83.7764 89.2637 81.0983 89.2637 81.0983L94.2835 72.5405Z"
    fill="#C7DAF5" />
  <path opacity="0.1"
    d="M94.2835 72.5405C94.2835 72.5405 99.243 77.8533 95.4871 80.8149C91.7323 83.7764 89.2637 81.0983 89.2637 81.0983L94.2835 72.5405Z"
    fill="black" />
  <path
    d="M54.2168 37.607C54.2168 37.607 54.7975 38.1602 55.6722 38.9746C57.2255 40.4319 58.802 41.8642 60.4011 43.271C62.6678 45.2446 64.5388 46.6937 63.8693 45.4572C63.1998 44.2197 63.3267 42.0673 63.6599 40.0514C63.6853 39.917 63.7064 39.7816 63.7307 39.6505C64.0066 38.1704 64.3722 36.7084 64.8254 35.2727C64.8254 35.2727 61.1627 30.5406 59.1361 28.6727C58.382 27.964 57.8542 27.6742 57.8225 28.1671C57.7865 28.8292 57.2915 30.2931 56.6749 31.8437C56.2503 32.9328 55.8038 34.0132 55.3358 35.0844C54.9717 35.9292 54.5987 36.7701 54.2168 37.607Z"
    fill="#E8C9C5" />
  <path opacity="0.1"
    d="M56.6182 31.9886C56.9625 33.8398 57.7976 35.5646 59.0364 36.9827C60.2752 38.4009 61.8721 39.4603 63.6603 40.0503C63.942 38.4332 64.3314 36.8368 64.8259 35.2716C64.8259 35.2716 57.9297 26.3627 57.8229 28.166C57.7985 28.8493 57.2602 30.3661 56.6182 31.9886ZM64.3478 42.4301L63.4551 41.1725C63.4551 41.1725 62.8628 44.7792 60.6882 43.1885C58.5136 41.5977 58.4078 55.1584 58.4078 55.1584L60.7421 90.0601L77.6102 89.051L77.1321 72.1861L75.223 63.6844L70.5004 51.3253L67.6922 47.2405L64.3478 42.4301Z"
    fill="black" />
  <path
    d="M58.4082 55.3741L60.5331 86.9325L60.7552 90.2759L70.1613 89.7132L70.5156 89.692L77.6 89.2668L77.122 72.3987L75.2118 63.897L70.4902 51.5379L67.681 47.4531L64.3376 42.6258L63.4449 41.3713C63.4449 41.3713 62.8526 44.9781 60.678 43.3873L60.6325 43.3556C58.5066 42.0091 58.4082 55.3741 58.4082 55.3741Z"
    fill="#7598D6" />
  <path
    d="M74.9741 60.9429C74.9741 60.9429 75.8203 62.7134 77.521 62.4268C79.2218 62.1402 79.2176 68.8026 79.2176 68.8026C79.2176 68.8026 80.3482 69.8656 81.1278 68.9443C81.9062 68.0241 83.9613 71.1369 83.9613 71.1369L96.8334 71.7038C96.8334 71.7038 91.106 74.3216 92.2293 82.2427C92.2293 82.2427 72.7815 81.038 72.1437 79.1997C71.5059 77.3614 74.9741 60.9429 74.9741 60.9429Z"
    fill="white" />
  <path opacity="0.03"
    d="M74.9741 60.9429C74.9741 60.9429 75.8203 62.7134 77.521 62.4268C79.2218 62.1402 79.2176 68.8026 79.2176 68.8026C79.2176 68.8026 80.3482 69.8656 81.1278 68.9443C81.9062 68.0241 83.9613 71.1369 83.9613 71.1369L96.8334 71.7038C96.8334 71.7038 91.106 74.3216 92.2293 82.2427C92.2293 82.2427 72.7815 81.038 72.1437 79.1997C71.5059 77.3614 74.9741 60.9429 74.9741 60.9429Z"
    fill="black" />
  <path
    d="M112.385 75.8669L108.991 78.765L81.0569 84.6352L84.5209 81.0993L112.385 75.8669ZM64.2946 43.547C64.7579 44.2556 66.0863 47.8835 67.1959 51.0492C68.1203 53.6881 68.8924 56.0098 68.8924 56.0098C68.8924 56.0098 70.6958 67.748 71.616 69.8698C72.5372 71.9915 72.038 80.2669 72.038 80.2669L75.4702 100.702C75.4702 100.702 77.025 111.24 79.426 117.535C81.7973 123.731 84.4362 126.635 84.5177 126.727C83.4547 125.289 77.6638 96.9721 77.6638 96.9721L75.7494 61.2591C75.7494 61.2591 75.4702 57.865 75.1867 54.9637C74.9033 52.0625 69.1653 48.1025 69.1653 48.1025L63.6314 40.2354C63.0762 40.9789 63.4474 42.2756 64.2946 43.547Z"
    fill="white" />
  <path
    d="M78.7221 89.4446C78.7221 89.4446 86.8695 89.0902 90.8157 84.3497C94.762 79.6112 81.6942 82.4585 81.6942 82.4585L78.2969 83.238L78.7221 89.4446Z"
    fill="#E8C9C5" />
  <path opacity="0.1"
    d="M40.6745 143.686C41.1106 145.23 41.1808 146.854 40.8797 148.43C49.7675 149.06 59.2751 146.658 59.2751 146.658C61.0457 148.288 65.7112 150.69 65.7112 150.69L68.2549 119.164C69.8806 114.913 70.5184 92.642 70.5184 92.642C70.5184 92.642 70.3724 91.4764 70.164 89.7301C70.164 89.6878 70.164 89.6423 70.1461 89.599C69.5114 84.722 68.2549 75.5645 67.6383 74.328C66.7879 72.6283 70.2529 68.1046 70.2529 68.1046L68.6769 54.6613L68.4855 53.0398C65.1622 51.5548 62.6153 46.8153 62.6153 46.8153L60.6596 43.3905C58.5337 42.0261 58.4247 55.3911 58.4247 55.3911L60.5507 86.9495L53.5086 85.0054C53.5086 85.0054 39.473 139.655 40.6745 143.686Z"
    fill="black" />
  <path
    d="M31.5538 145.866C41.2412 150.676 58.8497 146.22 58.8497 146.22C60.6213 147.849 65.2857 150.251 65.2857 150.251L67.8326 118.725C69.4551 114.474 70.0929 92.204 70.0929 92.204C70.0929 92.204 68.0452 75.5877 67.1949 73.8901C66.9473 73.394 67.0679 72.6579 67.362 71.8636C68.8075 68.0869 69.3391 64.0219 68.9136 60.0005L68.2335 54.2234L68.0452 52.6051C64.7188 51.1169 62.1719 46.3774 62.1719 46.3774L60.4013 43.2741L57.1425 37.5573L55.5983 34.8496L55.336 35.0876L53.3348 36.9015L51.2089 38.6732C48.4356 41.0107 43.6432 45.1272 41.1703 47.6456C38.9957 49.8625 38.3082 58.488 38.1094 64.9812C37.9782 69.2574 38.0565 72.6071 38.0565 72.6071C40.2491 76.217 34.5143 105.197 34.5143 105.197C33.1784 110.797 31.5538 145.866 31.5538 145.866Z"
    fill="white" />
  <path opacity="0.03"
    d="M50.1502 46.3066C50.1502 46.3066 56.7988 58.9629 56.0267 63.7733C55.2546 68.5837 53.0577 74.0287 54.1176 75.3C54.4816 75.7817 54.9521 76.1727 55.4922 76.4424C56.0324 76.7121 56.6276 76.8533 57.2314 76.8548C58.2933 76.9257 61.1269 78.9068 61.1269 79.1183C61.1269 79.3309 63.7447 79.3309 66.0875 80.323C68.4281 81.3151 71.8857 81.8778 71.8857 81.8778C71.8857 81.8778 78.6158 81.6663 79.243 82.303C79.8692 82.9408 80.5144 86.7559 79.1722 89.7989C77.8289 92.8419 76.3376 95.1117 75.2111 95.5263C74.0847 95.9409 66.9368 93.5463 61.1385 92.9794C55.3392 92.4124 49.0449 87.8178 49.0449 87.8178C49.0449 87.8178 42.1127 85.3386 40.8975 81.1692C39.6822 76.9997 42.3814 54.0848 42.3814 54.0848C42.3814 54.0848 44.4227 43.4053 50.1502 46.3066Z"
    fill="black" />
  <path opacity="0.03"
    d="M50.9995 45.2435C50.9995 45.2435 57.6492 57.9041 56.8697 62.7102C56.0902 67.5175 53.9008 72.9656 54.9638 74.2402C55.3263 74.7224 55.7959 75.1138 56.3355 75.3836C56.8752 75.6534 57.4701 75.7942 58.0734 75.795C59.1364 75.8669 61.9699 77.8469 61.9699 78.0584C61.9699 78.2721 64.5888 78.2721 66.9305 79.26C69.2712 80.2478 72.7288 80.8148 72.7288 80.8148C72.7288 80.8148 79.4589 80.6032 80.0818 81.24C80.7059 81.8777 81.3574 85.696 80.011 88.7358C78.6656 91.7746 77.1774 94.0486 76.051 94.4632C74.9245 94.8778 67.7766 92.4832 61.9773 91.9205C56.179 91.3568 49.8847 86.7558 49.8847 86.7558C49.8847 86.7558 42.9558 84.2755 41.7542 80.1103C40.5538 75.9441 43.2392 53.0228 43.2392 53.0228C43.2392 53.0228 45.2721 42.3454 50.9995 45.2435Z"
    fill="black" />
  <path
    d="M50.3597 45.6677C50.3597 45.6677 57.0073 58.3283 56.2289 63.1355C55.4494 67.9416 53.2599 73.3898 54.3187 74.6622C54.6815 75.1455 55.1516 75.5378 55.692 75.8081C56.2324 76.0785 56.8283 76.2196 57.4325 76.2202C58.4955 76.2911 61.3291 78.2721 61.3291 78.4805C61.3291 78.6889 63.9437 78.692 66.2886 79.6852C68.6335 80.6763 72.0869 81.24 72.0869 81.24C72.0869 81.24 78.818 81.0274 79.4442 81.6652C80.0714 82.3019 80.7166 86.1213 79.3733 89.16C78.0311 92.1998 76.5397 94.4739 75.4133 94.8885C74.2869 95.3031 67.139 92.9085 61.3396 92.3415C55.5414 91.7746 49.246 87.18 49.246 87.18C49.246 87.18 42.3139 84.7008 41.0996 80.5314C39.8833 76.3619 42.5656 53.447 42.5656 53.447C42.5656 53.447 44.6355 42.7855 50.3597 45.6677Z"
    fill="white" />
  <path opacity="0.1"
    d="M48.9127 75.8299C48.9127 75.8299 56.4245 74.218 53.8098 76.9045C51.1963 79.5911 51.2111 81.9455 48.0116 81.8387C44.811 81.7308 48.9127 75.8299 48.9127 75.8299ZM71.4733 83.5923C71.4733 83.5923 73.9451 82.1666 72.6008 85.0943C71.2554 88.0241 70.7234 90.7169 69.8508 90.4155C68.9793 90.1141 71.4733 83.5923 71.4733 83.5923ZM40.7664 111.052C40.7664 111.052 43.1197 116.095 38.6171 127.721C34.1156 139.348 40.7664 111.052 40.7664 111.052ZM65.3112 101.586C65.2456 102.447 63.8431 133.227 59.8239 140.643C55.8036 148.061 65.3112 101.586 65.3112 101.586Z"
    fill="black" />
  <path
    d="M96.6147 71.6869C99.1785 71.7757 104.719 72.5584 101.846 77.9178C99.3065 82.6615 95.0377 79.4905 92.6367 77.0853C93.2223 74.8431 94.6468 72.9109 96.6147 71.6869Z"
    fill="#E8C9C5" />
  <path opacity="0.1"
    d="M51.209 38.889C53.9294 40.7484 56.2108 42.317 56.6572 42.6438C57.8756 43.546 60.2004 48.8493 61.6981 51.5559C62.8912 53.7348 66.7708 54.2943 68.2336 54.4328L68.0453 52.8135C64.7189 51.3253 62.172 46.5858 62.172 46.5858L55.5984 35.0591L53.3349 37.1174L51.209 38.889Z"
    fill="black" />
  <path
    d="M51.209 38.6753C53.9294 40.5358 56.2108 42.1043 56.6572 42.4343C57.8756 43.3334 60.2004 48.6366 61.6981 51.3433C62.8912 53.5221 66.7708 54.0806 68.2336 54.2202L68.0453 52.6009C64.7189 51.1127 62.172 46.3732 62.172 46.3732L55.5984 34.8464L53.3349 36.8984C53.3349 36.8984 52.4846 37.5986 51.209 38.6753Z"
    fill="#DCE7FF" />
  <path
    d="M56.4443 29.65C56.4441 31.0297 56.7155 32.396 57.2433 33.6708C57.771 34.9457 58.5447 36.1041 59.5201 37.0799C60.4956 38.0557 61.6537 38.8298 62.9283 39.3581C64.2029 39.8864 65.5691 40.1584 66.9488 40.1587C68.3286 40.159 69.6948 39.8875 70.9697 39.3597C72.2445 38.832 73.4029 38.0583 74.3787 37.0829C75.3545 36.1074 76.1287 34.9494 76.6569 33.6747C77.1852 32.4001 77.4572 31.034 77.4575 29.6542C77.4581 26.8677 76.3517 24.1951 74.3817 22.2243C72.4117 20.2535 69.7396 19.1461 66.953 19.1455C64.1665 19.1449 61.4939 20.2514 59.5231 22.2213C57.5524 24.1913 56.4449 26.8635 56.4443 29.65Z"
    fill="#E8C9C5" />
  <path opacity="0.1"
    d="M38.1094 64.9843C39.5479 64.0993 40.7194 62.8408 41.4993 61.3427C42.0916 60.1739 42.484 58.8243 43.4941 57.9951C44.4037 57.2515 45.62 57.0706 46.7528 56.7375C50.4791 55.6364 53.6035 52.2359 53.7209 48.3531C53.777 46.5255 53.2069 44.7009 53.466 42.8912C53.6128 41.8666 54.0199 40.8969 54.6485 40.0746C54.9605 39.6822 55.3032 39.313 55.6724 38.9735C56.1684 38.506 56.6888 38.0523 57.1425 37.5562C57.4281 37.2495 57.6777 36.911 57.8861 36.5472C58.0553 36.2489 58.1918 35.9337 58.2933 35.608C59.002 33.4397 58.3568 30.8684 59.1363 28.6758L59.1786 28.5553C59.4737 27.7757 60.0724 26.9962 60.9048 26.937C61.7372 26.8767 62.449 27.5674 63.2423 27.8752C64.9028 28.5204 66.6956 27.4214 68.0812 26.3024C69.4668 25.1833 71.0279 23.9046 72.7879 24.1521C73.9546 24.3192 74.8748 25.1125 75.9483 25.5229C76.1916 25.617 76.4412 25.6889 76.6961 25.7397C75.7879 23.4742 74.1192 21.5958 71.9765 20.4271C69.8338 19.2585 67.351 18.8725 64.9546 19.3356C62.5583 19.7986 60.398 21.0818 58.845 22.9647C57.292 24.8475 56.4432 27.2125 56.4445 29.6531C56.4434 30.3901 56.5207 31.1251 56.675 31.8457C56.2504 32.9348 55.8039 34.0153 55.336 35.0865L53.3349 36.9005L51.2089 38.6721C48.4356 41.0096 43.6432 45.1261 41.1703 47.6445C38.9957 49.8688 38.3146 58.4911 38.1094 64.9843Z"
    fill="black" />
  <path
    d="M76.0725 19.0519C75.5669 18.0206 75.3152 16.8656 74.7091 15.8883C73.8207 14.471 72.2691 13.5646 70.674 13.0156C66.512 11.5814 57.7173 9.49775 55.089 13.0156C54.5707 13.7243 54.1423 14.5102 53.4273 14.9988C52.8815 15.3711 52.2226 15.5308 51.624 15.8101C49.9486 16.597 48.8792 18.3115 48.3081 20.062C47.738 21.8114 47.5677 23.6888 47.1499 25.4911C46.6158 27.8043 45.6765 29.9969 44.7416 32.1757C43.6394 34.747 42.4707 37.4145 40.3458 39.2316C37.4445 41.7119 36.8025 45.2224 34.1107 47.9427C30.9228 51.1729 31.0254 56.5037 32.6691 60.7377C32.8859 61.2929 33.1302 61.8747 33.0445 62.4659C32.9599 63.0582 32.521 63.5955 32.1064 64.0673L30.3633 66.0335C34.4862 67.0277 39.1527 64.8743 41.0714 61.0941C41.6637 59.9264 42.0561 58.58 43.0704 57.7476C43.9768 57.004 45.1953 56.8274 46.3249 56.4931C50.0512 55.3889 53.1756 51.9842 53.293 48.1014C53.3491 46.2779 52.779 44.4524 53.037 42.6469C53.1808 41.6153 53.5897 40.6386 54.2238 39.8123C55.1979 38.5409 56.6681 37.6874 57.4614 36.2701C58.8046 33.9008 57.784 30.8229 58.7517 28.2792C59.0479 27.4997 59.6434 26.7202 60.4758 26.6609C61.3092 26.6006 62.02 27.2913 62.8175 27.5991C64.476 28.2443 66.2677 27.1496 67.6533 26.0263C69.0389 24.903 70.6 23.6285 72.3642 23.8792C73.5298 24.0431 74.4479 24.8364 75.5204 25.251C76.3137 25.5556 77.9214 25.8275 78.6163 25.159C80.0833 23.8094 76.6849 20.3127 76.0725 19.0519Z"
    fill="#4E6896" />
  <path opacity="0.1"
    d="M40.0865 59.9274C40.682 58.7587 41.0712 57.4122 42.0845 56.583C42.9909 55.8395 44.2104 55.6586 45.3432 55.3254C49.0663 54.2244 52.1907 50.8196 52.3113 46.9379C52.3674 45.1134 51.7973 43.2857 52.0522 41.4792C52.2005 40.4543 52.6091 39.4846 53.2389 38.6625C54.2173 37.3912 55.6864 36.5366 56.4765 35.1203C57.8198 32.7543 56.7991 29.6764 57.7701 27.1295C58.0641 26.3531 58.6628 25.5747 59.4909 25.5112C60.3202 25.4467 61.0394 26.1448 61.8327 26.4525C63.4901 27.0977 65.286 25.9988 66.6674 24.8797C68.0498 23.7607 69.6183 22.482 71.3794 22.7295C72.545 22.8966 73.4652 23.6898 74.5355 24.1002C75.3288 24.4048 76.9407 24.682 77.6346 24.0114C79.0942 22.5941 75.6969 19.1058 75.0877 17.8514C74.581 16.817 74.3303 15.6662 73.7211 14.6889C73.6894 14.636 73.6534 14.5831 73.6175 14.5292C74.0733 14.9068 74.4668 15.3542 74.783 15.8545C75.3891 16.8318 75.6398 17.9794 76.1475 19.017C76.7599 20.2714 80.1561 23.7713 78.6944 25.177C77.9857 25.8507 76.3918 25.5736 75.5975 25.269C74.5355 24.8554 73.6069 24.0611 72.4424 23.8982C70.6707 23.6465 69.1117 24.9263 67.7303 26.0453C66.349 27.1644 64.5425 28.2622 62.8914 27.6181C62.0981 27.3103 61.4043 26.6154 60.5539 26.6789C59.7035 26.7423 59.1366 27.5187 58.8288 28.2972C57.8621 30.8409 58.8817 33.9198 57.5384 36.2891C56.7452 37.6821 55.275 38.5525 54.3019 39.8323C53.668 40.6584 53.2591 41.6347 53.1152 42.6659C52.8571 44.4724 53.4272 46.2959 53.3701 48.1204C53.2537 52.017 50.1293 55.4079 46.402 56.5121C45.2798 56.8453 44.0539 57.022 43.1475 57.7666C42.13 58.599 41.7302 59.9454 41.1484 61.1142C39.2298 64.8933 34.5643 67.0478 30.4414 66.0515L31.2622 65.1239C34.8372 65.1768 38.4545 63.1439 40.0865 59.9274Z"
    fill="black" />
  <path opacity="0.1"
    d="M64.5072 43.7607C64.9705 44.4693 66.2989 48.0962 67.4074 51.2629C68.4461 50.8589 69.3885 48.2834 69.3885 48.2834L63.8546 40.4131C63.2887 41.1915 63.66 42.4851 64.5072 43.7607Z"
    fill="black" />
  <path
    d="M64.2938 43.5471C64.7592 44.2557 66.0866 47.8836 67.195 51.0493C68.2337 50.6495 69.1761 48.0708 69.1761 48.0708L63.6422 40.2026C63.0753 40.979 63.4476 42.2757 64.2938 43.5471Z"
    fill="#DCE7FF" />
  <path
    d="M96.465 79.7349L99.5334 70.0613C99.6063 69.8329 99.5855 69.585 99.4756 69.3719C99.3658 69.1589 99.1757 68.9982 98.9474 68.9253C98.8343 68.8892 98.7153 68.8757 98.597 68.8856C98.4787 68.8955 98.3636 68.9286 98.2581 68.983C98.045 69.0929 97.8844 69.2829 97.8114 69.5113L94.7441 79.1754L95.0488 81.1977L96.465 79.7349Z"
    fill="#FF7067" />
  <path opacity="0.1"
    d="M99.2428 69.2098C99.0141 69.1373 98.7659 69.1586 98.5528 69.2688C98.3396 69.379 98.1789 69.5693 98.1058 69.7979L95.0385 79.4609L95.268 80.9777L95.0459 81.2104L94.7402 79.1891L97.8255 69.525C97.8986 69.2971 98.0589 69.1075 98.2713 68.9973C98.4837 68.8871 98.731 68.8654 98.9594 68.9369C99.1513 68.9994 99.3169 69.1241 99.43 69.2912C99.37 69.259 99.3074 69.2317 99.2428 69.2098Z"
    fill="white" />
  <path
    d="M96.465 79.736L94.7441 79.1902L94.9959 80.8476L95.0488 81.2125L95.5522 80.6879L96.465 79.736Z"
    fill="#EFC8C4" />
  <path
    d="M95.5515 80.6868C95.5215 80.6489 95.484 80.6176 95.4415 80.5948C95.4166 80.5792 95.3878 80.5709 95.3584 80.5709C95.3291 80.5709 95.3003 80.5792 95.2754 80.5948C95.2513 80.6238 95.231 80.6558 95.2151 80.6899C95.1916 80.7291 95.1597 80.7626 95.1216 80.7878C95.0836 80.8131 95.0403 80.8295 94.9951 80.8359L95.048 81.1902L95.5515 80.6868Z"
    fill="#727A9C" />
  <path
    d="M99.5512 73.4977C99.5512 73.4977 93.3986 73.4628 94.8466 76.0806C96.2957 78.6973 98.5591 79.0125 98.5591 79.0125L99.5512 73.4977Z"
    fill="#E8C9C5" />
  <defs>
    <linearGradient id="paint0_linear_118_6398" x1="223.291" y1="187.683" x2="223.291" y2="0.700917"
      gradientUnits="userSpaceOnUse">
      <stop stop-color="#808080" stop-opacity="0.25" />
      <stop offset="0.535" stop-color="#808080" stop-opacity="0.12" />
      <stop offset="1" stop-color="#808080" stop-opacity="0.1" />
    </linearGradient>
    <linearGradient id="paint1_linear_118_6398" x1="-78681.5" y1="164400" x2="-78681.5" y2="52513.5"
      gradientUnits="userSpaceOnUse">
      <stop stop-color="#808080" stop-opacity="0.25" />
      <stop offset="0.54" stop-color="#808080" stop-opacity="0.12" />
      <stop offset="1" stop-color="#808080" stop-opacity="0.1" />
    </linearGradient>
  </defs>
</svg>
  