<svg width="577" height="393" viewBox="0 0 577 393" fill="none" xmlns="http://www.w3.org/2000/svg">
  <g opacity="0.8">
    <path opacity="0.1"
      d="M296.491 69.0968C260.275 75.0801 224.004 71.8596 189.087 67.3984C154.17 62.9373 119.334 57.2402 83.0426 58.3556C59.7106 59.0789 33.7563 63.6202 17.6109 77.5567C2.08041 90.966 -0.141386 109.298 0.00663227 125.877C0.118027 138.346 1.29988 151.263 9.82619 161.29C15.7454 168.249 24.7943 173.303 31.6368 179.738C55.4761 202.135 48.7145 236.83 33.6197 266.21C26.5187 279.996 17.8405 293.525 13.0773 307.658C8.31473 321.789 7.84321 337.012 16.8105 348.712C25.7069 360.313 42.7244 366.994 60.4316 370.576C96.3879 377.846 136.296 374.094 174.895 368.873C260.332 357.263 344.814 338.484 429.053 319.74C460.232 312.807 491.548 305.833 521.545 295.625C538.202 289.968 555.148 282.849 565.815 271.591C579.353 257.297 579.474 237.568 566.099 225.602C543.66 205.506 493.46 209.284 476.017 186.415C466.411 173.855 470.321 156.965 477.661 142.119C493.384 110.268 524.198 78.9941 519.76 46.9865C516.716 25.0021 495.22 6.59453 466.664 1.50548C436.737 -3.82544 398.488 5.07697 381.562 26.9355C364.135 49.5036 328.467 63.8216 296.492 69.0968H296.491Z"
      fill="#5E7EBE" />
    <path
      d="M412.301 112.92H95.8415C93.4755 112.92 91.5566 114.888 91.5566 117.315V294.692C91.5566 297.119 93.4755 299.087 95.8415 299.087H412.301C414.668 299.087 416.586 297.119 416.586 294.692V117.315C416.586 114.888 414.668 112.92 412.301 112.92Z"
      fill="#F2F5FA" />
    <path
      d="M414.628 110.547H92.9474C92.7306 110.547 92.516 110.59 92.3158 110.674C92.1156 110.757 91.9338 110.879 91.7808 111.032C91.4718 111.343 91.2979 111.765 91.2979 112.204V119.213H416.264V112.218C416.268 111.779 416.098 111.357 415.791 111.042C415.639 110.887 415.459 110.764 415.259 110.679C415.06 110.594 414.845 110.549 414.628 110.547Z"
      fill="#7598D6" />
    <path
      d="M97.8007 117.118C98.0942 117.117 98.3847 117.059 98.6555 116.946C98.9264 116.833 99.1724 116.668 99.3794 116.46C99.5864 116.252 99.7504 116.005 99.8621 115.733C99.9737 115.462 100.031 115.171 100.03 114.878C100.031 114.584 99.9737 114.294 99.8621 114.022C99.7504 113.751 99.5864 113.504 99.3793 113.296C99.1723 113.088 98.9263 112.923 98.6555 112.81C98.3846 112.697 98.0942 112.639 97.8007 112.638C97.5073 112.639 97.2168 112.697 96.946 112.81C96.6751 112.923 96.4291 113.088 96.2221 113.296C96.0151 113.504 95.851 113.751 95.7394 114.022C95.6277 114.294 95.5706 114.584 95.5713 114.878C95.5706 115.171 95.6277 115.462 95.7394 115.733C95.851 116.005 96.015 116.252 96.2221 116.46C96.4291 116.668 96.6751 116.833 96.9459 116.946C97.2168 117.059 97.5073 117.117 97.8007 117.118ZM103.803 117.118C104.396 117.116 104.964 116.88 105.382 116.46C105.8 116.04 106.034 115.471 106.033 114.878C106.034 114.285 105.8 113.716 105.382 113.296C104.964 112.877 104.396 112.64 103.803 112.638C103.211 112.64 102.643 112.877 102.225 113.296C101.807 113.716 101.572 114.285 101.574 114.878C101.572 115.47 101.807 116.039 102.225 116.459C102.643 116.879 103.21 117.116 103.803 117.118Z"
      fill="white" />
    <path
      d="M109.806 117.118C110.399 117.116 110.967 116.879 111.385 116.459C111.803 116.039 112.037 115.47 112.036 114.878C112.037 114.285 111.803 113.716 111.385 113.296C110.967 112.877 110.399 112.64 109.806 112.638C109.214 112.64 108.646 112.877 108.228 113.296C107.81 113.716 107.575 114.285 107.576 114.878C107.575 115.471 107.809 116.04 108.227 116.46C108.646 116.88 109.214 117.116 109.806 117.118Z"
      fill="#EE5D49" />
    <path
      d="M380.541 152.695H116.56C114.629 152.695 113.064 154.267 113.064 156.207V284.525C113.064 286.464 114.629 288.037 116.56 288.037H380.541C382.471 288.037 384.036 286.464 384.036 284.525V156.207C384.036 154.267 382.471 152.695 380.541 152.695Z"
      fill="white" />
    <path opacity="0.2"
      d="M178.193 128.409H102.898C102.166 128.409 101.574 129.004 101.574 129.739V135.297C101.574 136.031 102.166 136.627 102.898 136.627H178.193C178.545 136.626 178.882 136.486 179.131 136.236C179.379 135.987 179.518 135.649 179.517 135.297V129.739C179.517 129.004 178.924 128.409 178.193 128.409ZM325.17 168.405H249.874C249.143 168.405 248.55 169 248.55 169.735V175.292C248.549 175.644 248.688 175.982 248.937 176.231C249.185 176.481 249.522 176.622 249.874 176.623H325.17C325.522 176.622 325.859 176.481 326.108 176.231C326.356 175.982 326.495 175.644 326.494 175.292V169.735C326.494 169 325.901 168.405 325.17 168.405ZM368.933 191.415H249.874C249.143 191.415 248.55 192.01 248.55 192.745V198.304C248.55 198.655 248.689 198.993 248.937 199.242C249.185 199.492 249.522 199.632 249.874 199.633H368.933C369.285 199.633 369.622 199.492 369.871 199.243C370.119 198.993 370.258 198.655 370.258 198.304V192.745C370.258 192.393 370.119 192.055 369.871 191.806C369.622 191.557 369.285 191.416 368.933 191.415ZM368.933 204.853H249.874C249.522 204.854 249.185 204.995 248.937 205.244C248.689 205.493 248.55 205.831 248.55 206.183V211.741C248.55 212.476 249.143 213.071 249.874 213.071H368.933C369.285 213.07 369.622 212.93 369.871 212.68C370.119 212.431 370.258 212.093 370.258 211.741V206.183C370.258 205.831 370.119 205.493 369.871 205.244C369.622 204.994 369.285 204.854 368.933 204.853ZM368.933 218.291H249.874C249.522 218.292 249.185 218.433 248.937 218.683C248.688 218.932 248.549 219.27 248.55 219.622V225.18C248.55 225.914 249.143 226.509 249.874 226.509H368.933C369.285 226.509 369.622 226.368 369.871 226.119C370.119 225.869 370.258 225.531 370.258 225.18V219.622C370.258 219.448 370.224 219.275 370.158 219.114C370.092 218.952 369.994 218.806 369.871 218.682C369.748 218.559 369.602 218.461 369.441 218.394C369.28 218.326 369.108 218.292 368.933 218.291ZM368.933 231.73H249.874C249.143 231.73 248.55 232.325 248.55 233.06V238.617C248.549 238.969 248.688 239.307 248.937 239.557C249.185 239.806 249.522 239.947 249.874 239.948H368.933C369.108 239.947 369.28 239.913 369.441 239.846C369.602 239.778 369.748 239.68 369.871 239.557C369.994 239.433 370.092 239.287 370.158 239.125C370.224 238.964 370.258 238.791 370.258 238.617V233.06C370.258 232.708 370.119 232.37 369.871 232.12C369.622 231.871 369.285 231.731 368.933 231.73ZM368.933 246.547H129.079C128.348 246.547 127.755 247.142 127.755 247.877V253.434C127.754 253.786 127.893 254.124 128.142 254.374C128.39 254.623 128.727 254.764 129.079 254.765H368.933C369.285 254.764 369.622 254.623 369.871 254.374C370.119 254.124 370.258 253.786 370.257 253.434V247.877C370.257 247.142 369.664 246.547 368.933 246.547ZM368.933 259.985H129.079C128.348 259.985 127.755 260.58 127.755 261.315V266.873C127.755 267.608 128.348 268.203 129.079 268.203H368.933C369.664 268.203 370.257 267.608 370.257 266.873V261.315C370.257 260.58 369.664 259.985 368.933 259.985ZM368.933 273.423H129.079C128.727 273.424 128.39 273.565 128.142 273.814C127.893 274.064 127.754 274.401 127.755 274.753V280.311C127.755 281.046 128.348 281.641 129.079 281.641H368.933C369.664 281.641 370.257 281.046 370.257 280.311V274.753C370.258 274.401 370.119 274.064 369.871 273.814C369.622 273.565 369.285 273.424 368.933 273.423ZM228.426 163.846H130.67C129.061 163.846 127.755 165.157 127.755 166.775V237.254C127.755 238.871 129.061 240.183 130.67 240.183H228.426C228.81 240.182 229.19 240.106 229.544 239.958C229.898 239.81 230.22 239.594 230.491 239.322C230.761 239.05 230.976 238.728 231.122 238.373C231.268 238.018 231.343 237.638 231.342 237.254V166.775C231.343 166.391 231.268 166.011 231.122 165.656C230.976 165.301 230.761 164.978 230.491 164.706C230.22 164.434 229.898 164.218 229.544 164.071C229.19 163.923 228.81 163.847 228.426 163.846Z"
      fill="#7598D6" />
    <path opacity="0.1"
      d="M358.083 369.964C378.123 369.964 394.369 365.932 394.369 360.959C394.369 355.986 378.123 351.954 358.083 351.954C338.043 351.954 321.797 355.986 321.797 360.959C321.797 365.932 338.043 369.964 358.083 369.964Z"
      fill="#9298AF" />
    <path
      d="M361.762 231.21C361.762 231.21 366.243 231.06 367.672 234.727C369.1 238.395 368.023 241.199 367.614 242.531C366.55 246.016 366.462 247.28 366.977 249.385C367.436 251.248 367.859 252.209 368.381 253.952C368.904 255.696 368.031 255.491 367.954 255.628C367.877 255.764 350.409 257.365 350.409 257.365C350.409 257.365 350.876 253.59 352.106 252.715C353.337 251.84 354.551 251.662 353.616 247.926C352.681 244.192 352.086 242.459 352.611 239.75C353.219 236.611 353.601 234.651 356.56 232.593C358.081 231.543 359.92 231.054 361.762 231.21Z"
      fill="#4E6896" />
    <path
      d="M366.931 354.394C366.931 354.394 364.467 358.044 363.475 358.925C363.475 358.925 361.27 359.732 361.05 361.273C360.829 362.815 360.864 363.841 363.475 363.911C366.085 363.982 367.798 363.518 368.276 361.933C368.589 360.955 369.109 360.055 369.799 359.295V362.593H370.388C370.388 362.593 370.535 359.403 370.573 358.815C370.611 358.228 370.992 355.973 369.753 354.973C368.514 353.972 366.931 354.394 366.931 354.394ZM354.595 351.479C354.262 352.209 353.847 352.897 353.357 353.532C352.765 354.302 350.932 357.456 350.12 357.678C349.309 357.9 346.814 358.338 346.594 359.732C346.373 361.125 346.263 362.115 348.727 362.225C351.192 362.335 352.81 362.482 353.987 360.758C355.164 359.035 357.04 357.788 357.04 357.788V362.287H357.999C357.999 362.287 358.44 357.604 358.698 357.274C358.955 356.944 359.617 353.35 357.324 351.479C355.032 349.608 354.595 351.479 354.595 351.479Z"
      fill="#7D7D95" />
    <path
      d="M368.586 283.955C368.586 283.955 371.355 288.061 372.2 292.847C373.043 297.634 372.043 313.627 372.081 315.992C372.118 318.358 374.322 324.246 373.881 328.702C373.44 333.158 369.753 354.973 369.753 354.973L366.93 354.395C366.93 354.395 367.207 331.784 366.93 329.913C366.655 328.042 366.102 321.223 365.992 320.46C365.881 319.698 358.986 299.465 358.986 296.013C358.986 292.562 361.072 278.325 368.586 283.955Z"
      fill="#FCB6AC" />
    <path
      d="M352.955 285.53C352.955 285.53 347.845 304.989 347.236 307.684C346.628 310.379 345.751 312.604 345.751 313.749C345.751 316.405 346.738 320.67 346.738 320.67L354.595 351.479L357.853 351.989C357.853 351.989 355.968 333.056 355.869 329.424C355.77 325.792 352.966 320.615 353.519 319.074C354.073 317.533 362.408 299.769 362.408 299.769C362.408 299.769 368.714 279.882 352.955 285.53ZM363.474 358.925C363.474 358.925 365.997 360.332 367.621 358.525C368.521 357.465 369.241 356.265 369.753 354.972L366.931 354.394L363.474 358.925Z"
      fill="#FCB6AC" />
    <path
      d="M350.127 357.68C350.127 357.68 352.331 358.229 353.18 357.68C354.029 357.13 356.901 352.28 357.854 351.99C357.854 351.99 356.932 350.123 354.596 351.48C354.596 351.48 350.753 356.873 350.127 357.68Z"
      fill="#FCB6AC" />
    <path
      d="M345.751 313.751C345.751 313.751 357.576 318.807 375.18 318.807C375.18 318.807 373.326 292.206 370.771 286.473C368.216 280.739 352.551 287.05 352.551 287.05C352.551 287.05 345.751 308.949 345.751 313.751Z"
      fill="#7598D6" />
    <path
      d="M332.449 275.207C332.449 275.207 343.233 276.133 345.897 274.948C347.239 274.357 349.049 271.898 350.711 269.212C350.995 268.755 351.275 268.289 351.548 267.825C353.592 264.352 355.243 260.94 355.243 260.94C355.243 260.94 360.19 254.74 354.934 252.529C353.581 252.975 352.417 253.862 351.628 255.048C350.36 257.002 349.368 259.937 349.12 260.905C348.87 261.871 344.646 270.375 344.382 270.615C344.117 270.855 341.463 270.696 339.418 270.887C336.08 271.202 332.56 271.384 332.56 271.384L332.449 275.207Z"
      fill="#5E7EBE" />
    <path
      d="M351.123 266.574C352.445 269.636 351.198 270.659 351.807 273.721C352.415 276.783 352.628 285.509 352.516 287.211C352.404 288.912 367.638 290.66 371.166 287.56C371.166 287.56 369.991 280.94 367.832 276.825C367.42 276.044 367.612 272.964 368.035 271.905C368.163 271.582 368.672 270.329 369.32 268.746L371.509 263.41C372.332 261.407 372.976 259.851 372.976 259.851C372.976 259.851 373.5 254.922 371.448 253.334C369.669 251.954 364.808 251.464 363.937 251.161C363.067 250.857 360.529 250.72 358.746 250.991C358.746 250.991 356.017 252.275 355.069 252.466C354.121 252.658 350.439 257.419 349.798 259.158C349.157 260.897 349.796 263.507 351.123 266.574Z"
      fill="#7598D6" />
    <path
      d="M357.44 247.849C357.44 247.849 357.985 252.845 357.881 254.469C357.881 254.469 360.164 257.235 363.392 251.09C363.392 251.09 362.588 248.628 363.613 245.176C364.638 241.725 357.44 247.849 357.44 247.849Z"
      fill="#FCB6AC" />
    <path
      d="M366.115 251.596C366.115 251.596 364.158 257.341 358.806 256.923C353.453 256.505 356.266 252.065 356.266 252.065C356.266 252.065 357.602 251.302 357.976 251.229C358.352 251.157 363.294 250.948 363.294 250.948L366.115 251.596Z"
      fill="#FCB6AC" />
    <path
      d="M331.605 256.289H344.373C344.506 256.289 344.638 256.315 344.761 256.366C344.885 256.417 344.997 256.492 345.091 256.586C345.186 256.68 345.26 256.792 345.312 256.915C345.363 257.038 345.389 257.17 345.389 257.303V276.363C345.389 276.497 345.363 276.629 345.311 276.752C345.26 276.875 345.185 276.986 345.091 277.08C344.997 277.175 344.885 277.249 344.761 277.3C344.638 277.351 344.506 277.377 344.373 277.377H331.605C331.472 277.377 331.34 277.351 331.217 277.3C331.094 277.249 330.982 277.175 330.887 277.08C330.793 276.986 330.718 276.875 330.667 276.752C330.616 276.629 330.589 276.497 330.589 276.363V257.303C330.589 257.17 330.615 257.038 330.666 256.915C330.718 256.792 330.793 256.68 330.887 256.586C330.981 256.492 331.093 256.417 331.217 256.366C331.34 256.315 331.472 256.289 331.605 256.289Z"
      fill="#434343" />
    <path d="M331.597 257.723H344.385V275.944H331.597V257.723Z" fill="#DBDFF0" />
    <path
      d="M349.084 273.067C348.801 273.072 348.523 272.995 348.282 272.847C347.733 272.434 347.535 271.416 346.567 271.491C345.599 271.566 345.147 274.595 345.39 275.169C345.632 275.743 346.979 276.031 348.967 275.635C350.956 275.239 349.084 273.067 349.084 273.067Z"
      fill="#FCB6AC" />
    <path
      d="M332.276 260.336C332.276 260.336 330.172 259.848 329.495 260.86C328.945 261.724 328.754 262.769 328.962 263.773C329.132 264.375 329.676 265.923 330.389 265.606C332.672 264.594 332.276 260.336 332.276 260.336Z"
      fill="#EEA886" />
    <path
      d="M330.195 260.358C330.195 260.358 330.488 258.942 331.059 259.184C331.63 259.426 331.114 260.361 331.114 260.361L330.195 260.358Z"
      fill="#EEA886" />
    <path
      d="M332.276 260.337C332.276 260.337 332.243 259.528 330.773 260.361C329.302 261.195 332.276 260.337 332.276 260.337Z"
      fill="#EEA886" />
    <path
      d="M312.105 244.72C312.116 244.72 312.126 244.717 312.136 244.713C312.146 244.709 312.155 244.703 312.163 244.696C312.17 244.688 312.176 244.679 312.18 244.669C312.185 244.659 312.187 244.649 312.187 244.638C312.187 244.627 312.185 244.617 312.18 244.607C312.176 244.597 312.17 244.588 312.163 244.58C312.155 244.573 312.146 244.567 312.136 244.562C312.126 244.558 312.116 244.556 312.105 244.556C312.083 244.556 312.063 244.565 312.047 244.58C312.032 244.595 312.023 244.616 312.023 244.638C312.023 244.66 312.032 244.68 312.047 244.696C312.063 244.711 312.083 244.72 312.105 244.72Z"
      fill="#E6E8EC" />
    <path
      d="M343.303 246.473H283.878C283.57 246.474 283.265 246.535 282.981 246.653C282.697 246.772 282.439 246.945 282.222 247.163C282.005 247.381 281.833 247.64 281.715 247.925C281.598 248.209 281.538 248.514 281.539 248.822V318.131C281.538 318.438 281.598 318.743 281.715 319.028C281.833 319.313 282.005 319.571 282.222 319.789C282.439 320.008 282.697 320.181 282.981 320.299C283.265 320.418 283.57 320.479 283.878 320.48H343.303C343.611 320.479 343.916 320.418 344.2 320.299C344.484 320.181 344.742 320.008 344.959 319.789C345.176 319.571 345.348 319.313 345.465 319.028C345.582 318.743 345.642 318.438 345.642 318.131V248.822C345.642 247.525 344.595 246.473 343.303 246.473Z"
      fill="white" />
    <path opacity="0.1"
      d="M343.303 246.473H283.878C283.57 246.474 283.265 246.535 282.981 246.653C282.697 246.772 282.439 246.945 282.222 247.163C282.005 247.381 281.833 247.64 281.715 247.925C281.598 248.209 281.538 248.514 281.539 248.822V318.131C281.538 318.438 281.598 318.743 281.715 319.028C281.833 319.313 282.005 319.571 282.222 319.789C282.439 320.008 282.697 320.181 282.981 320.299C283.265 320.418 283.57 320.479 283.878 320.48H343.303C343.611 320.479 343.916 320.418 344.2 320.299C344.484 320.181 344.742 320.008 344.959 319.789C345.176 319.571 345.348 319.313 345.465 319.028C345.582 318.743 345.642 318.438 345.642 318.131V248.822C345.642 247.525 344.595 246.473 343.303 246.473Z"
      fill="#3E486E" />
    <path
      d="M340.034 250.247H287.147C286.839 250.248 286.535 250.309 286.251 250.428C285.966 250.546 285.708 250.719 285.491 250.938C285.274 251.156 285.102 251.415 284.985 251.699C284.868 251.984 284.808 252.289 284.809 252.597V314.356C284.808 314.664 284.868 314.969 284.985 315.253C285.102 315.538 285.274 315.797 285.491 316.015C285.708 316.233 285.966 316.406 286.251 316.525C286.535 316.643 286.839 316.705 287.147 316.705H340.034C340.342 316.705 340.646 316.643 340.93 316.525C341.215 316.406 341.473 316.233 341.69 316.015C341.907 315.797 342.079 315.538 342.196 315.253C342.313 314.969 342.373 314.664 342.372 314.356V252.597C342.372 251.299 341.326 250.247 340.034 250.247Z"
      fill="white" />
    <path opacity="0.7"
      d="M330.541 263.576H295.316C294.749 263.577 294.206 263.804 293.806 264.206C293.405 264.607 293.181 265.152 293.183 265.719V275.123C293.182 275.404 293.237 275.682 293.343 275.942C293.45 276.202 293.607 276.438 293.805 276.637C294.003 276.836 294.239 276.994 294.498 277.102C294.757 277.21 295.035 277.266 295.316 277.267H330.541C330.822 277.266 331.1 277.21 331.359 277.102C331.618 276.994 331.854 276.836 332.052 276.637C332.25 276.438 332.407 276.202 332.514 275.942C332.621 275.682 332.675 275.404 332.675 275.123V265.719C332.676 265.152 332.452 264.607 332.052 264.206C331.652 263.804 331.108 263.577 330.541 263.576Z"
      fill="#7598D6" />
    <path d="M331.227 282.275H294.633V285.068H331.227V282.275Z" fill="#FF7067" />
    <path opacity="0.7"
      d="M338.767 288.17H288.413V290.964H338.767V288.17ZM338.767 294.377H288.413V297.171H338.767V294.377ZM338.767 300.582H288.413V303.376H338.767V300.582Z"
      fill="#7598D6" />
    <path
      d="M346.897 271.505C345.912 271.179 344.911 270.905 343.897 270.683C342.486 270.379 340.811 270.281 340.637 270.525C340.463 270.768 342.01 271.03 343.394 271.421C344.666 271.782 344.362 271.914 344.362 271.914C344.362 271.914 344.446 271.872 342.993 271.736C341.43 271.591 339.823 271.593 339.665 271.905C339.588 272.057 339.64 272.16 340.203 272.301C339.865 272.286 339.817 272.374 339.804 272.51C339.737 273.211 342.008 273.77 342.92 273.992C342.224 273.825 341.699 273.771 341.951 274.244C342.237 274.783 345.489 275.434 346.635 275.783C347.887 276.144 346.897 271.505 346.897 271.505Z"
      fill="#FCB6AC" />
    <path
      d="M351.558 267.812C351.558 267.812 349.953 264.011 349.885 263.153C349.898 263.659 350.013 266.739 350.72 269.201C351.005 268.744 351.285 268.278 351.558 267.814V267.812Z"
      fill="#2F3B6C" />
    <path d="M349.884 263.155V263.083C349.884 263.083 349.882 263.127 349.884 263.155Z"
      fill="#D1C0BA" />
    <path
      d="M358.109 273.07L364.789 261.341C364.789 261.341 362.457 273.041 360.688 273.433C358.92 273.824 358.109 273.07 358.109 273.07Z"
      fill="#5E7EBE" />
    <path
      d="M371.166 253.122C371.166 253.122 374.369 254.711 373.264 258.838C372.16 262.965 371.06 264.14 370.006 265.679C369.01 267.135 366.975 271.05 366.726 271.488C366.477 271.925 364.028 278.318 361.779 279.046C359.531 279.774 348.394 276.24 348.143 276.628C347.891 277.015 348.158 272.737 348.158 272.737C348.158 272.737 353.328 273.106 354.458 273.027C356.31 272.902 359.284 273.658 359.998 272.057C360.838 270.178 363.849 263.998 364.167 262.98C364.484 261.962 368.194 252.075 371.166 253.122Z"
      fill="#5E7EBE" />
    <path
      d="M358.268 233.556C358.268 233.556 353.326 236.772 354.933 244.548C356.54 252.323 362.375 248.052 363.008 247.612C363.641 247.173 365.602 242.303 365.677 240.179C365.75 238.179 366.804 230.163 358.268 233.556Z"
      fill="#FCB6AC" />
    <path
      d="M358.608 235.116C359.124 234.964 360.852 238.317 361.8 239.144C362.748 239.97 364.458 242.05 364.628 244.325C364.798 246.601 366.722 239.353 366.055 236.662C365.386 233.971 364.5 230.027 358.477 233.157C352.455 236.288 354.019 241.877 354.019 241.877C354.019 241.877 356.002 235.884 358.608 235.116Z"
      fill="#4E6896" />
    <path
      d="M362.783 240.484C362.941 239.563 364.987 238.785 364.947 240.168C364.908 241.55 363.794 243.149 363.157 243.049C362.52 242.951 362.635 241.333 362.783 240.484Z"
      fill="#FCB6AC" />
    <path
      d="M362.533 247.933C362.495 248.003 361.32 250.257 357.723 250.824C357.641 249.945 357.531 248.868 357.531 248.868C358.381 249.103 359.273 249.14 360.14 248.978C361.007 248.816 361.825 248.459 362.533 247.933Z"
      fill="#AB7D7D" />
    <path opacity="0.1"
      d="M163.304 392.163C183.819 392.163 200.451 388.036 200.451 382.944C200.451 377.853 183.819 373.726 163.304 373.726C142.789 373.726 126.157 377.853 126.157 382.944C126.157 388.036 142.789 392.163 163.304 392.163Z"
      fill="#9298AF" />
    <path
      d="M264.187 246.16H110.795C110.472 246.161 110.152 246.225 109.854 246.349C109.556 246.473 109.286 246.655 109.058 246.884C108.83 247.113 108.65 247.384 108.527 247.683C108.404 247.981 108.341 248.301 108.342 248.624V321.312C108.341 321.635 108.404 321.955 108.527 322.253C108.65 322.552 108.83 322.823 109.058 323.052C109.286 323.281 109.556 323.463 109.854 323.587C110.152 323.711 110.472 323.775 110.795 323.776H264.187C264.51 323.775 264.83 323.711 265.128 323.587C265.426 323.462 265.696 323.281 265.924 323.052C266.152 322.823 266.332 322.552 266.455 322.253C266.578 321.955 266.641 321.635 266.64 321.312V248.624C266.642 247.972 266.384 247.346 265.924 246.884C265.464 246.422 264.839 246.162 264.187 246.16Z"
      fill="white" />
    <path
      d="M264.187 246.16H110.795C110.472 246.161 110.152 246.225 109.854 246.349C109.556 246.473 109.286 246.655 109.058 246.884C108.83 247.113 108.65 247.384 108.527 247.683C108.404 247.981 108.341 248.301 108.342 248.624V321.312C108.341 321.635 108.404 321.955 108.527 322.253C108.65 322.552 108.83 322.823 109.058 323.052C109.286 323.281 109.556 323.463 109.854 323.587C110.152 323.711 110.472 323.775 110.795 323.776H264.187C264.51 323.775 264.83 323.711 265.128 323.587C265.426 323.462 265.696 323.281 265.924 323.052C266.152 322.823 266.332 322.552 266.455 322.253C266.578 321.955 266.641 321.635 266.64 321.312V248.624C266.642 247.972 266.384 247.346 265.924 246.884C265.464 246.422 264.839 246.162 264.187 246.16Z"
      fill="#F2F5FA" />
    <path
      d="M255.832 249.589H118.592C118.269 249.59 117.949 249.654 117.651 249.778C117.353 249.902 117.083 250.084 116.855 250.313C116.627 250.541 116.447 250.813 116.324 251.111C116.201 251.41 116.138 251.73 116.139 252.053V316.823C116.138 317.146 116.201 317.466 116.324 317.765C116.446 318.063 116.627 318.335 116.855 318.564C117.082 318.793 117.353 318.974 117.651 319.099C117.949 319.223 118.269 319.287 118.592 319.288H255.832C256.155 319.287 256.475 319.223 256.773 319.099C257.071 318.974 257.341 318.793 257.569 318.564C257.797 318.335 257.977 318.063 258.1 317.765C258.223 317.466 258.286 317.146 258.285 316.823V252.053C258.286 251.73 258.223 251.41 258.1 251.111C257.977 250.813 257.797 250.541 257.569 250.313C257.341 250.084 257.07 249.902 256.772 249.778C256.474 249.654 256.155 249.59 255.832 249.589Z"
      fill="white" />
    <path opacity="0.2"
      d="M232.384 264.101H139.34C138.746 264.103 138.176 264.34 137.756 264.762C137.336 265.183 137.101 265.754 137.103 266.349V276.213C137.101 276.808 137.336 277.379 137.756 277.8C138.176 278.222 138.746 278.459 139.34 278.461H232.384C232.979 278.459 233.549 278.221 233.968 277.8C234.388 277.378 234.623 276.808 234.621 276.213V266.349C234.623 265.755 234.388 265.184 233.968 264.762C233.549 264.341 232.979 264.103 232.384 264.101Z"
      fill="#7598D6" />
    <path opacity="0.7"
      d="M231.044 283.709H140.68V286.639H231.044V283.709ZM249.66 289.893H125.317V292.823H249.66V289.893ZM249.66 296.401H125.317V299.331H249.66V296.401ZM249.66 302.91H125.317V305.839H249.66V302.91Z"
      fill="#7598D6" />
    <path
      d="M147.033 379.628C147.474 378.011 147.775 376.586 147.775 376.586C147.783 375.505 148.066 374.444 148.598 373.504V373.057L148.725 369.772C148.528 369.168 148.28 368.582 147.983 368.02C147.433 366.966 148.168 363.204 148.168 363.204C148.168 363.204 150.554 357.96 150.153 354.556C149.753 351.153 155.207 339.709 155.207 339.709C155.222 338.581 155.107 337.456 154.865 336.354C154.822 336.124 154.81 335.89 154.829 335.657C154.826 335.628 154.826 335.6 154.829 335.571V335.597C154.988 333.361 156.903 329.261 156.903 329.261L156.973 321.284C156.973 321.284 156.03 316.542 158.087 310.306C158.81 308.129 159.285 306.384 159.597 305.035C159.634 304.882 159.667 304.737 159.697 304.595C157.495 304.17 155.296 303.732 153.099 303.283C153.099 303.283 155.634 294.195 157.181 292.648C158.728 291.101 160.086 286.099 160.086 286.099C160.086 286.099 161.103 279.65 159.938 277.712C158.773 275.774 158.721 272.493 158.721 272.493C158.721 272.493 155.968 270.32 155.648 269.391C155.329 268.463 154.821 266.372 154.862 265.291C154.903 264.21 155.296 263.241 155.2 262.663C155.103 262.086 156.131 259.946 155.697 258.895C155.589 258.572 155.538 258.232 155.548 257.892V257.862C155.58 256.959 155.697 256.062 155.901 255.182C156.744 254.52 157.718 254.045 158.758 253.788L158.828 253.542L159.014 252.904C159.105 252.848 159.199 252.795 159.296 252.748L159.314 252.513L159.374 251.585L159.017 249.468C158.276 245.792 163.144 245.438 163.144 245.438C163.456 244.892 163.96 244.48 164.557 244.282C165.545 243.977 164.513 249.766 164.042 250.12C163.671 250.385 162.558 252.17 162.02 253.046L161.931 253.192C162.008 253.266 162.081 253.347 162.146 253.434L161.912 254.69L161.875 254.88C162.181 255.293 162.425 255.749 162.598 256.233C162.598 256.233 161.675 257.172 161.812 258.269C161.852 259.121 161.726 259.973 161.441 260.777C161.493 260.722 162.142 260.069 162.758 260.255C163.374 260.441 165.089 261.034 165.089 261.034C165.089 261.034 166.376 261.314 166.246 261.597C166.116 261.88 167.074 263.178 167.074 263.178L170.684 259.998C170.725 259.897 170.762 259.801 170.799 259.7C170.965 259.231 171.089 258.748 171.17 258.257C170.789 258.153 170.417 258.019 170.057 257.858C169.695 257.718 169.371 257.493 169.114 257.203C168.781 256.77 168.743 256.195 168.613 255.671C168.376 254.641 167.819 253.71 167.43 252.722C166.776 251.064 166.604 249.255 166.933 247.503C167.012 246.966 167.215 246.455 167.526 246.012C168.127 245.248 169.17 244.968 169.946 244.372C170.721 243.776 171.24 242.833 172.131 242.396C172.94 242.001 173.901 242.09 174.788 242.27C176.511 242.623 178.153 243.294 179.63 244.249C180.128 244.573 180.673 244.946 181.263 244.86C181.753 244.729 182.185 244.436 182.488 244.029C182.486 244.012 182.486 243.994 182.488 243.977L182.528 243.936C182.865 244.773 183.015 245.674 182.966 246.575C182.966 246.713 182.966 246.854 182.936 246.992V247.137C182.932 247.179 182.932 247.22 182.936 247.261C182.935 247.323 182.942 247.384 182.958 247.443C183.024 247.627 183.129 247.794 183.267 247.932C183.367 248.056 183.457 248.19 183.534 248.331C183.534 248.282 183.508 248.234 183.493 248.185C183.703 248.52 183.814 248.908 183.812 249.304C183.82 249.592 183.715 249.872 183.519 250.083C183.34 250.25 183.143 250.397 182.932 250.523C183.121 251.876 182.891 253.255 182.275 254.474C181.661 255.692 180.689 256.692 179.489 257.34C179.445 257.437 179.401 257.538 179.359 257.638C178.807 258.824 178.54 260.122 178.58 261.43C178.58 261.523 178.58 261.616 178.61 261.709C178.64 261.802 178.696 261.81 178.732 261.862C178.732 261.862 184.483 262.141 185.887 260.96C187.289 259.778 189.189 264.102 189.189 264.102C189.189 264.102 191.237 264.583 191.664 264.199C192.09 263.815 194.498 264.251 194.498 264.251C195.518 263.406 196.821 262.983 198.142 263.069C198.972 262.486 199.88 262.024 200.84 261.698L200.907 261.675C201.326 261.538 201.772 261.499 202.209 261.56C202.209 261.56 205.13 259.323 206.002 258.089C206.874 256.855 210.967 252.334 210.967 252.312L210.992 252.088L211.063 251.409C211.178 251.434 211.295 251.448 211.411 251.454L211.501 251.219C211.752 250.564 212.055 249.931 212.41 249.326C212.41 249.326 212.443 248.465 212.202 248.241C211.961 248.017 212.436 244.887 212.436 244.887C212.436 244.887 215.215 238.996 217.327 243.555C217.327 243.555 221.534 246.616 217.779 249.844C217.779 249.844 216.295 250.493 216.083 251.041C215.935 251.413 215.404 252.39 215.048 253.05L214.888 253.344L214.929 253.382L214.855 253.941L214.826 254.161C215.489 254.574 215.939 254.977 215.816 255.279C215.595 255.768 215.437 256.283 215.345 256.811C215.345 256.811 210.098 262.887 209.348 265.567C209.348 265.567 195.597 273.074 191.166 273.477L191.779 277.518C191.852 278.608 191.869 279.702 191.831 280.794C191.738 281.652 192.18 285.569 192.18 285.569C192.18 285.569 192.725 291.332 193.345 292.16C193.964 292.987 193.716 296.424 193.716 296.424C193.809 298.076 194.042 299.717 194.414 301.33C194.978 303.533 194.414 306.209 194.414 306.209C194.414 306.209 196.458 311.454 191.226 307.749C191.226 307.749 188.599 307.484 185.571 307.264V307.566C185.571 307.961 185.552 308.386 185.541 308.834C185.467 311.789 185.33 315.86 185.077 318.935C184.632 324.374 182.569 335.087 182.569 335.087L182.361 340.5C182.449 341.012 182.482 341.533 182.458 342.054C182.423 343.963 181.848 345.823 180.799 347.418L180.246 351.015C180.246 351.015 179.188 353.356 179.114 354.776C179.112 354.892 179.123 355.008 179.144 355.123C179.172 355.307 179.18 355.493 179.17 355.678C179.17 357.319 178.027 361.202 178.027 361.202C178.027 361.202 177.816 365.158 177.218 365.363C176.706 365.541 177.804 367.67 178.131 368.281C178.143 368.245 178.152 368.208 178.157 368.17L178.228 368.289C178.337 368.614 178.386 368.956 178.372 369.299C178.394 369.57 178.34 369.842 178.215 370.083C178.089 370.324 177.898 370.525 177.664 370.663C176.517 371.308 175.894 371.856 176.836 372.124C177.184 372.192 177.528 372.278 177.868 372.381L177.923 372.251C178.057 372.309 178.167 372.411 178.234 372.54C178.302 372.669 178.323 372.817 178.294 372.96C178.269 373.428 178.13 373.884 177.89 374.287C177.433 375.303 176.86 376.264 176.183 377.149L175.731 377.082C175.792 377.257 175.874 377.423 175.975 377.578C176.138 377.834 176.359 378.048 176.621 378.201C176.861 378.356 177.132 378.461 177.415 378.506C177.735 378.53 178.047 378.621 178.329 378.773C178.612 378.925 178.859 379.135 179.055 379.389C179.612 380.176 179.942 381.231 178.744 382.099L174.472 383.397C174.472 383.397 167.185 384.064 167.63 382.446C168.076 380.828 168.372 379.405 168.372 379.405C168.38 378.404 168.619 377.419 169.07 376.527C169.152 376.382 169.244 376.242 169.344 376.109L169.088 376.072C169.088 376.072 168.665 372.438 167.968 371.733C167.812 371.565 167.779 371.442 167.819 371.361C167.756 371.163 167.942 371.055 168.19 370.987C168.19 371.032 168.224 371.081 168.239 371.129C168.472 371.09 168.707 371.074 168.944 371.081C168.944 371.081 169.251 369.198 168.514 368.471C168.454 368.391 168.411 368.299 168.39 368.202C168.368 368.104 168.367 368.003 168.387 367.905C168.388 367.645 168.425 367.387 168.494 367.137C168.502 367.152 168.511 367.167 168.52 367.182C168.974 365.482 170.376 362.805 170.376 362.805C170.376 362.805 170.498 361.087 170.053 360.379C169.608 359.67 170.472 351.037 170.472 351.037C170.472 351.037 170.454 346.847 171.059 344.92C171.664 342.993 170.573 340.652 170.573 340.652C170.573 340.652 170.573 340.608 170.591 340.529C170.593 340.518 170.593 340.507 170.591 340.496L170.688 339.84V339.881C170.851 338.762 171.151 336.783 171.352 335.858C171.638 334.55 171.585 328.232 171.585 328.232L170.625 325.511L168.558 330.081L166.331 336.194C166.331 336.194 165.288 337.461 165.218 338.803V339.001C165.227 339.138 165.227 339.277 165.218 339.415C165.222 340.197 164.977 340.96 164.521 341.595C164.521 341.595 163.878 344.499 163.036 345.211C162.194 345.923 162.127 347.358 162.127 347.358C162.127 347.358 160.962 351.563 160.461 352.29C160.042 352.901 159.953 354.627 159.938 355.156V355.309C159.938 355.309 159.742 356.823 159.697 358.098V358.549C159.685 358.885 159.713 359.221 159.778 359.551V359.614V359.399C159.954 360.271 160.023 361.163 159.983 362.052C159.949 363.577 159.648 365.373 158.688 366.399C157.025 368.173 156.034 367.89 156.034 367.89C156.034 367.89 156.713 370.212 157.637 370.708C157.673 370.727 157.707 370.749 157.738 370.775C157.738 370.73 157.738 370.685 157.764 370.645C157.862 370.764 157.935 370.903 157.977 371.051C158.019 371.2 158.03 371.356 158.009 371.509C158.038 372.52 157.34 374.119 156.709 374.864C156.48 375.077 156.201 375.229 155.897 375.304C155.943 375.339 155.992 375.372 156.042 375.401C156.145 375.462 156.252 375.517 156.361 375.565C156.51 375.639 156.671 375.687 156.836 375.71C157.157 375.732 157.469 375.821 157.752 375.974C158.035 376.126 158.282 376.338 158.476 376.594C159.033 377.377 159.363 378.432 158.164 379.3L153.893 380.597C153.893 380.597 146.583 381.246 147.033 379.628Z"
      fill="url(#paint0_linear_118_6202)" />
    <path
      d="M174.621 383.402L178.758 382.101C179.92 381.229 179.601 380.174 179.063 379.387C178.877 379.136 178.64 378.927 178.366 378.776C178.093 378.625 177.79 378.535 177.478 378.511C177.201 378.466 176.938 378.36 176.706 378.202C176.453 378.048 176.241 377.836 176.087 377.584C175.808 377.096 175.668 376.542 175.682 375.98C175.682 375.98 171.252 374.49 169.975 375.761C169.749 375.992 169.558 376.254 169.407 376.54C168.97 377.436 168.736 378.419 168.725 379.417C168.725 379.417 168.443 380.838 168.009 382.459C167.575 384.08 174.621 383.402 174.621 383.402ZM154.728 380.611L158.866 379.31C160.027 378.438 159.708 377.383 159.17 376.6C158.985 376.347 158.747 376.137 158.473 375.985C158.199 375.833 157.895 375.743 157.582 375.72C157.422 375.699 157.266 375.651 157.122 375.578C157.016 375.529 156.913 375.473 156.814 375.411C155.7 374.736 155.786 373.174 155.786 373.174C155.786 373.174 151.355 371.683 150.079 372.955C149.908 373.126 149.756 373.316 149.626 373.521C149.107 374.469 148.832 375.531 148.824 376.611C148.824 376.611 148.539 378.035 148.109 379.653C147.678 381.271 154.728 380.611 154.728 380.611Z"
      fill="#7D7D95" />
    <path opacity="0.1"
      d="M169.972 375.761C169.747 375.992 169.557 376.255 169.407 376.54L176.086 377.58C175.807 377.092 175.668 376.538 175.682 375.977C175.682 375.977 171.263 374.49 169.972 375.761ZM149.626 373.536L149.578 374.799C150.558 376.57 155.622 376.388 157.122 375.578C157.016 375.529 156.913 375.473 156.814 375.411C155.701 374.736 155.786 373.174 155.786 373.174C155.786 373.174 151.356 371.683 150.079 372.955C149.907 373.131 149.755 373.326 149.626 373.536Z"
      fill="black" />
    <path
      d="M149.037 368.064C149.331 368.627 149.58 369.212 149.779 369.816L149.597 374.341C150.666 376.28 156.625 375.877 157.464 374.878C158.302 373.879 159.259 371.214 158.365 370.722C157.471 370.23 156.814 367.904 156.814 367.904C156.814 367.904 157.775 368.173 159.39 366.413C161.003 364.654 160.699 360.55 160.447 359.565C160.195 358.581 160.613 355.323 160.613 355.323C160.613 355.323 160.643 353.027 161.129 352.3C161.616 351.573 162.748 347.368 162.748 347.368C162.748 347.368 162.799 345.933 163.627 345.221C164.454 344.509 165.082 341.602 165.082 341.602C165.577 340.89 165.812 340.027 165.745 339.16C165.631 337.721 166.83 336.216 166.83 336.216L169.007 330.102L171.011 325.529L171.935 328.261C171.935 328.261 171.98 334.579 171.701 335.888C171.423 337.196 170.959 340.681 170.959 340.681C170.959 340.681 172.013 343.019 171.426 344.949C170.84 346.88 170.847 351.067 170.847 351.067C170.847 351.067 170.002 359.703 170.432 360.408C170.863 361.112 170.74 362.831 170.74 362.831C170.74 362.831 168.21 367.785 168.922 368.504C169.634 369.223 169.337 371.113 169.337 371.113C169.337 371.113 167.742 371.05 168.399 371.765C169.055 372.481 169.408 376.086 169.408 376.086L176.277 377.156C176.935 376.266 177.49 375.304 177.932 374.289C178.926 372.206 177.835 372.392 176.926 372.127C176.017 371.862 176.618 371.311 177.727 370.666C178.837 370.021 178.269 368.448 178.269 368.448C178.269 368.448 176.722 365.574 177.304 365.369C177.887 365.164 178.091 361.209 178.091 361.209C178.091 361.209 179.412 356.549 179.175 355.278C178.937 354.007 180.254 351.014 180.254 351.014L180.788 347.421C182.09 345.418 182.629 343.014 182.306 340.647L182.521 335.086C182.521 335.086 184.54 324.391 184.992 318.934C185.275 315.453 185.416 310.693 185.479 307.722C185.516 306.051 185.531 304.948 185.531 304.948L160.977 301.415C160.892 302.65 160.694 303.875 160.388 305.075C160.087 306.428 159.623 308.173 158.903 310.35C156.892 316.586 157.79 321.328 157.79 321.328L157.712 329.305C157.712 329.305 155.337 334.553 155.727 336.406C155.96 337.508 156.069 338.634 156.053 339.761C156.053 339.761 150.77 351.197 151.156 354.585C151.542 357.974 149.222 363.237 149.222 363.237C149.222 363.237 148.506 367.009 149.037 368.064Z"
      fill="#7598D6" />
    <path opacity="0.05"
      d="M164.275 338.743L156.81 337.439C156.81 337.439 160.895 341.972 164.275 338.743Z"
      fill="black" />
    <path opacity="0.1"
      d="M158.175 330.127C158.175 330.127 157.805 332.781 159.404 333.854C159.389 333.847 156.513 333.277 158.175 330.127ZM158.962 321.659C158.962 321.659 165.037 327.09 167.333 326.751C169.63 326.412 158.962 321.659 158.962 321.659ZM173.489 341.538C173.489 341.538 178.213 342.813 178.284 344.736C178.354 346.66 173.489 341.538 173.489 341.538Z"
      fill="black" />
    <path opacity="0.05"
      d="M171.518 365.394C171.518 365.394 178.197 366.915 176.261 367.701C174.324 368.488 171.151 369.055 171.151 369.055C171.151 369.055 168.977 369.092 171.518 365.394ZM177.571 369.123C177.744 369.023 177.893 368.885 178.006 368.72C178.119 368.555 178.194 368.367 178.224 368.169L178.287 368.292C178.287 368.292 178.859 369.861 177.746 370.529C177.619 370.599 177.501 370.674 177.374 370.745C177.178 370.7 176.963 370.662 176.758 370.603C175.853 370.323 176.458 369.772 177.571 369.123ZM168.91 368.333C168.732 368.153 168.758 367.714 168.91 367.151C169.166 367.67 169.276 368.25 169.229 368.828C169.162 368.641 169.053 368.471 168.91 368.333ZM171.041 339.855C171.262 340.543 171.386 341.259 171.411 341.982C171.302 341.479 171.146 340.987 170.944 340.514C170.944 340.514 170.985 340.257 171.041 339.855ZM155.741 336.249C155.703 336.042 155.689 335.83 155.7 335.619C155.771 336.052 155.816 336.45 155.842 336.801C155.811 336.617 155.778 336.433 155.741 336.249ZM170.421 360.24C170.309 359.824 170.269 359.391 170.302 358.962C170.494 359.478 170.584 360.028 170.57 360.579C170.534 360.461 170.484 360.347 170.421 360.24ZM168.595 370.987C168.906 372.152 169.123 373.34 169.245 374.54L176.113 375.61C176.773 374.721 177.33 373.759 177.772 372.743C177.86 372.56 177.927 372.396 177.987 372.248C178.391 372.452 178.539 372.892 177.946 374.13C177.504 375.144 176.949 376.104 176.291 376.993L169.408 375.931C169.408 375.931 169.036 372.299 168.372 371.588C168.064 371.234 168.295 371.073 168.595 370.987ZM178.105 361.053C178.105 361.053 177.897 365.008 177.318 365.213C177.055 364.546 176.884 363.92 177.144 363.827C177.723 363.618 177.935 359.666 177.935 359.666C177.935 359.666 179.256 355.01 179.018 353.735C178.78 352.46 180.094 349.475 180.094 349.475L180.632 345.878C181.934 343.875 182.472 341.471 182.15 339.104L182.362 333.543C182.362 333.543 184.372 322.83 184.81 317.392C185.089 313.91 185.23 309.15 185.296 306.179C185.296 305.642 185.319 305.165 185.326 304.762L185.523 304.792C185.523 304.792 185.523 305.91 185.471 307.562C185.407 310.544 185.267 315.296 184.985 318.778C184.547 324.213 182.539 334.93 182.539 334.93L182.324 340.488C182.647 342.854 182.109 345.257 180.811 347.261L180.269 350.858C180.269 350.858 178.951 353.84 179.188 355.122C179.426 356.404 178.105 361.053 178.105 361.053ZM157.292 373.339C157.883 372.545 158.291 371.63 158.487 370.66C159.166 371.323 158.264 373.772 157.466 374.723C156.669 375.673 150.669 376.124 149.6 374.189L149.641 373.098C151.125 374.693 156.498 374.286 157.292 373.339ZM148.865 366.515C149.161 367.077 149.409 367.663 149.608 368.266L149.574 369.068C149.419 368.669 149.243 368.279 149.048 367.898C148.884 367.441 148.818 366.954 148.855 366.47L148.865 366.515ZM157.163 367.751C156.962 367.302 156.791 366.84 156.651 366.369C156.651 366.369 157.611 366.634 159.222 364.859C160.395 363.566 160.554 361.049 160.457 359.394C160.71 360.382 161.01 364.467 159.4 366.242C158.338 367.405 157.563 367.692 157.163 367.751ZM160.617 355.151C160.473 356.278 160.391 357.412 160.372 358.548C160.35 358.367 160.318 358.188 160.276 358.01C160.027 357.023 160.439 353.769 160.439 353.769C160.439 353.769 160.473 351.472 160.955 350.745C161.437 350.019 162.572 345.814 162.572 345.814C162.572 345.814 162.628 344.383 163.456 343.667C164.283 342.951 164.91 340.048 164.91 340.048C165.405 339.334 165.639 338.472 165.575 337.606C165.459 336.167 166.658 334.661 166.658 334.661L168.836 328.548L170.84 323.974L171.764 326.71V327.582L171.021 325.346L169.018 329.916L166.84 336.033C166.84 336.033 165.641 337.524 165.756 338.978C165.823 339.844 165.588 340.707 165.092 341.419C165.092 341.419 164.465 344.323 163.637 345.035C162.81 345.747 162.758 347.182 162.758 347.182C162.758 347.182 161.622 351.387 161.14 352.117C160.658 352.848 160.617 355.151 160.617 355.151Z"
      fill="black" />
    <path
      d="M159.864 249.503L160.213 251.614L160.154 252.545L160.109 253.231L162.48 253.571L162.766 253.086C163.292 252.21 164.383 250.424 164.729 250.156C165.182 249.802 166.191 244.013 165.233 244.318C164.649 244.521 164.16 244.933 163.861 245.474C163.861 245.474 159.163 245.832 159.864 249.503Z"
      fill="#FCB6AC" />
    <path opacity="0.1"
      d="M160.109 253.232L162.481 253.572L162.766 253.087C162.462 252.712 162.037 252.453 161.563 252.355C161.09 252.257 160.597 252.326 160.169 252.55L160.109 253.232Z"
      fill="black" />
    <path
      d="M159.464 254.342L162.577 255.196L162.658 254.727L162.885 253.47C162.722 253.236 162.514 253.035 162.274 252.881C162.033 252.727 161.765 252.622 161.483 252.571C161.202 252.522 160.914 252.529 160.635 252.592C160.357 252.655 160.093 252.772 159.861 252.938L159.683 253.575L159.464 254.342Z"
      fill="#DCE6F2" />
    <path
      d="M210.499 251.703L213.779 253.642C213.779 253.642 213.916 253.377 214.109 253.016C214.454 252.356 214.966 251.364 215.111 251.007C215.33 250.459 216.755 249.806 216.755 249.806C220.395 246.574 216.324 243.522 216.324 243.522C214.283 238.962 211.589 244.856 211.589 244.856C211.589 244.856 211.126 247.998 211.36 248.211C211.593 248.423 211.56 249.295 211.56 249.295C211.124 250.059 210.768 250.866 210.499 251.703Z"
      fill="#FCB6AC" />
    <path opacity="0.1"
      d="M210.499 251.702L213.779 253.641C213.779 253.641 213.916 253.376 214.109 253.015C213.649 252.601 212.023 251.151 211.471 251.21C211.207 251.237 210.941 251.237 210.677 251.21C210.562 251.498 210.499 251.702 210.499 251.702Z"
      fill="black" />
    <path
      d="M210.117 252.698L213.828 254.708L213.931 253.895L214.006 253.336C214.006 253.336 211.898 251.375 211.253 251.419C210.923 251.453 210.591 251.439 210.265 251.379L210.199 252.057L210.117 252.698Z"
      fill="#DCE6F2" />
    <path
      d="M168.461 263.758C168.461 263.758 184.814 266.256 181.782 265.138C179.671 264.355 178.873 262.957 178.754 261.436C178.713 260.132 178.967 258.835 179.496 257.641C179.925 256.617 180.456 255.638 181.081 254.719C181.081 254.719 168.791 247.298 171.062 253.701C171.413 254.67 171.614 255.687 171.659 256.717C171.695 257.739 171.547 258.759 171.221 259.729C170.689 261.3 169.734 262.695 168.461 263.758Z"
      fill="#FCB6AC" />
    <path opacity="0.1"
      d="M171.077 253.701C171.428 254.67 171.63 255.687 171.675 256.717C172.818 257.757 174.116 257.742 175.782 257.805C177.062 257.857 178.465 258.223 179.493 257.641C179.922 256.617 180.453 255.638 181.077 254.719C181.077 254.719 168.806 247.298 171.077 253.701Z"
      fill="black" />
    <path
      d="M176.249 258.257C180.002 258.257 183.044 255.201 183.044 251.432C183.044 247.662 180.002 244.607 176.249 244.607C172.497 244.607 169.455 247.662 169.455 251.432C169.455 255.201 172.497 258.257 176.249 258.257Z"
      fill="#FCB6AC" />
    <path opacity="0.1"
      d="M168.462 263.759C168.462 263.759 184.815 266.257 181.783 265.138C179.671 264.356 178.873 262.958 178.755 261.437C177.972 260.516 176.354 259.812 175.312 259.427C174.363 259.069 173.326 259.012 172.343 259.263C171.951 259.363 171.576 259.52 171.23 259.73C170.696 261.302 169.738 262.696 168.462 263.759ZM159.464 254.342L162.577 255.195L162.658 254.726C162.343 254.251 161.889 253.885 161.357 253.679C160.826 253.473 160.244 253.436 159.69 253.574L159.464 254.342ZM210.117 252.699L213.828 254.708L213.932 253.895C212.729 253.196 211.477 252.588 210.184 252.076L210.117 252.699ZM160.373 305.075C166.681 306.332 175.698 307.994 177.148 307.61C178.354 307.293 182.158 307.48 185.464 307.722C185.501 306.052 185.516 304.948 185.516 304.948L160.962 301.415C160.877 302.65 160.68 303.876 160.373 305.075Z"
      fill="black" />
    <path
      d="M154.091 303.33C154.091 303.33 174.892 307.752 177.167 307.151C179.442 306.551 190.952 307.74 190.952 307.74C196.009 311.438 194.039 306.197 194.039 306.197C194.039 306.197 194.599 303.52 194.039 301.317C193.68 299.704 193.456 298.063 193.368 296.412C193.368 296.412 193.616 292.975 193.019 292.151C192.421 291.328 191.906 285.561 191.906 285.561C191.906 285.561 191.486 281.643 191.575 280.786C191.665 279.929 191.53 277.509 191.53 277.509L190.94 273.469C195.241 273.062 208.558 265.54 208.558 265.54C209.301 262.871 214.381 256.75 214.381 256.75C214.472 256.223 214.626 255.708 214.841 255.218C215.212 254.316 210.154 252.284 210.154 252.284C210.154 252.284 206.143 256.836 205.312 258.066C204.48 259.296 201.634 261.54 201.634 261.54C201.211 261.481 200.779 261.52 200.373 261.656H200.306C199.378 261.986 198.503 262.449 197.709 263.031C196.423 262.951 195.156 263.375 194.176 264.213C194.176 264.213 191.85 263.78 191.438 264.165C191.026 264.549 189.041 264.071 189.041 264.071C189.041 264.071 187.186 259.755 185.846 260.937C184.506 262.118 178.918 261.846 178.918 261.846C178.217 260.824 176.435 260.045 175.322 259.636C174.374 259.274 173.337 259.217 172.354 259.472C171.928 259.577 171.522 259.755 171.156 259.997L167.653 263.188C167.653 263.188 166.729 261.89 166.855 261.607C166.981 261.324 165.742 261.048 165.742 261.048C165.742 261.048 164.106 260.467 163.486 260.273C162.866 260.079 162.262 260.735 162.21 260.795C162.493 259.99 162.619 259.138 162.581 258.286C162.451 257.19 163.341 256.247 163.341 256.247C161.534 251.241 156.87 255.196 156.87 255.196C156.87 255.196 156.25 257.869 156.67 258.923C157.089 259.978 156.091 262.114 156.18 262.692C156.268 263.27 155.894 264.231 155.853 265.32C155.812 266.409 156.302 268.496 156.595 269.42C156.889 270.345 159.564 272.522 159.564 272.522C159.564 272.522 159.612 275.795 160.736 277.741C161.86 279.686 160.874 286.127 160.874 286.127C160.874 286.127 159.538 291.126 158.05 292.677C156.562 294.228 154.091 303.33 154.091 303.33Z"
      fill="#7598D6" />
    <path opacity="0.1"
      d="M186.061 266.793C186.061 266.793 186.762 264.929 187.338 264.776C187.915 264.588 188.477 264.36 189.022 264.094L188.681 263.374C188.681 263.374 186.515 263.886 186.151 264.493C185.787 265.1 186.061 266.793 186.061 266.793ZM197.69 263.055C197.783 263.632 202.841 264.344 202.841 264.344L200.373 261.656H200.31C199.373 261.992 198.49 262.463 197.69 263.055Z"
      fill="#5776AE" />
    <path
      d="M212.684 256.209C212.744 256.209 212.804 256.197 212.859 256.174C212.915 256.151 212.965 256.117 213.007 256.075C213.05 256.032 213.083 255.981 213.106 255.926C213.129 255.87 213.141 255.811 213.14 255.751C213.144 255.689 213.135 255.626 213.114 255.568C213.092 255.509 213.059 255.456 213.016 255.411C212.974 255.365 212.922 255.329 212.865 255.305C212.808 255.28 212.746 255.267 212.684 255.267C212.622 255.267 212.56 255.28 212.503 255.305C212.446 255.329 212.394 255.365 212.352 255.411C212.309 255.456 212.276 255.509 212.255 255.568C212.233 255.626 212.224 255.689 212.228 255.751C212.228 255.872 212.276 255.988 212.361 256.074C212.447 256.16 212.563 256.209 212.684 256.209ZM212.065 257.104C212.186 257.104 212.303 257.056 212.389 256.97C212.475 256.884 212.523 256.767 212.523 256.646C212.523 256.524 212.475 256.407 212.389 256.321C212.303 256.235 212.186 256.187 212.065 256.187C211.943 256.187 211.827 256.236 211.742 256.322C211.656 256.408 211.608 256.524 211.608 256.646C211.608 256.767 211.656 256.883 211.742 256.969C211.827 257.055 211.943 257.104 212.065 257.104ZM211.46 257.928C211.52 257.928 211.579 257.916 211.635 257.893C211.69 257.87 211.74 257.836 211.783 257.794C211.825 257.751 211.859 257.7 211.881 257.645C211.904 257.589 211.916 257.53 211.916 257.47C211.916 257.348 211.868 257.232 211.782 257.146C211.697 257.06 211.581 257.011 211.46 257.011C211.338 257.011 211.221 257.059 211.135 257.145C211.049 257.231 211.001 257.348 211.001 257.47C211.001 257.591 211.049 257.708 211.135 257.794C211.221 257.88 211.338 257.928 211.46 257.928ZM210.829 258.823C210.951 258.823 211.067 258.774 211.152 258.688C211.238 258.602 211.286 258.486 211.286 258.365C211.289 258.302 211.28 258.24 211.259 258.182C211.237 258.123 211.204 258.07 211.162 258.025C211.119 257.979 211.067 257.943 211.01 257.919C210.953 257.894 210.892 257.881 210.829 257.881C210.767 257.881 210.705 257.894 210.648 257.919C210.591 257.943 210.54 257.979 210.497 258.025C210.454 258.07 210.421 258.123 210.4 258.182C210.379 258.24 210.369 258.302 210.373 258.365C210.373 258.618 210.577 258.823 210.829 258.823ZM157.044 256.609C157.143 256.609 157.237 256.57 157.307 256.5C157.377 256.43 157.416 256.335 157.416 256.236C157.416 256.137 157.377 256.043 157.307 255.973C157.237 255.903 157.143 255.864 157.044 255.864C156.945 255.864 156.85 255.903 156.78 255.973C156.71 256.043 156.671 256.137 156.671 256.236C156.671 256.335 156.71 256.43 156.78 256.5C156.85 256.57 156.945 256.609 157.044 256.609ZM156.954 257.451C157.003 257.451 157.052 257.442 157.097 257.423C157.142 257.404 157.183 257.377 157.217 257.342C157.251 257.307 157.279 257.266 157.297 257.221C157.316 257.176 157.325 257.128 157.325 257.079C157.329 257.028 157.321 256.977 157.304 256.93C157.287 256.882 157.26 256.838 157.225 256.801C157.191 256.764 157.149 256.734 157.102 256.714C157.056 256.694 157.005 256.684 156.954 256.684C156.904 256.684 156.853 256.694 156.807 256.714C156.76 256.734 156.718 256.764 156.683 256.801C156.649 256.838 156.622 256.882 156.605 256.93C156.588 256.977 156.58 257.028 156.584 257.079C156.584 257.284 156.749 257.451 156.954 257.451ZM156.87 258.294C156.969 258.294 157.063 258.254 157.133 258.184C157.203 258.115 157.243 258.02 157.243 257.921C157.243 257.822 157.203 257.727 157.133 257.657C157.063 257.587 156.969 257.548 156.87 257.548C156.771 257.548 156.676 257.587 156.606 257.657C156.536 257.727 156.497 257.822 156.497 257.921C156.497 258.02 156.536 258.115 156.606 258.184C156.676 258.254 156.771 258.294 156.87 258.294Z"
      fill="#4E6896" />
    <path opacity="0.1"
      d="M185.437 282.325C185.493 282.262 172.005 298.082 162.38 288.267C162.38 288.267 178.075 291.025 185.437 282.325Z"
      fill="#5776AE" />
    <path opacity="0.1"
      d="M192.503 291.096C192.503 291.096 184.796 291.011 183.905 293.202L183.816 295.517C184.031 295.647 184.275 295.721 184.525 295.731C184.776 295.741 185.025 295.687 185.249 295.574C186.043 295.182 190.785 292.986 192.384 294.194L192.503 291.096Z"
      fill="black" />
    <path
      d="M192.359 291.089C192.359 291.089 184.993 291.007 184.139 293.098L184.054 295.305C184.259 295.43 184.492 295.5 184.732 295.509C184.971 295.518 185.21 295.466 185.423 295.357C186.166 294.984 190.718 292.893 192.247 294.041L192.359 291.089Z"
      fill="#5776AE" />
    <path opacity="0.1"
      d="M188.945 274.144C188.087 275.94 187.02 277.628 185.764 279.172C184.394 280.878 182.755 282.348 180.911 283.526C180.911 283.526 188.774 275.188 188.945 274.144ZM191.806 265.257C191.806 265.257 190.321 270.778 186.926 272.541L191.806 265.257ZM193.754 265.894C193.79 265.793 194.726 270.345 189.222 272.63C189.222 272.63 191.549 271.933 193.754 265.894ZM160.288 260.863C160.372 260.863 157.552 262.521 156.773 263.308C156.792 263.308 158.666 260.684 160.288 260.863Z"
      fill="#5776AE" />
    <path
      d="M177.849 257.686C177.78 258.048 177.577 258.37 177.281 258.588C177.078 258.677 176.857 258.717 176.636 258.704C174.562 258.756 172.402 258.764 170.52 257.888C170.168 257.747 169.856 257.522 169.611 257.232C169.285 256.799 169.241 256.229 169.125 255.7C168.895 254.671 168.357 253.743 167.983 252.754C167.351 251.091 167.188 249.286 167.511 247.536C167.585 247.002 167.782 246.491 168.086 246.045C168.665 245.281 169.678 245.001 170.428 244.401C171.177 243.801 171.682 242.862 172.551 242.422C173.33 242.027 174.261 242.112 175.118 242.296C176.801 242.65 178.401 243.324 179.83 244.282C180.309 244.607 180.836 244.975 181.407 244.89C181.898 244.753 182.326 244.45 182.617 244.032C182.984 244.981 183.119 246.003 183.01 247.015C182.984 247.163 182.984 247.314 183.01 247.462C183.074 247.644 183.175 247.81 183.307 247.95C183.794 248.565 184.079 249.519 183.552 250.101C183.322 250.354 182.977 250.473 182.755 250.746C182.354 251.208 182.454 251.901 182.439 252.516C182.452 252.73 182.392 252.942 182.269 253.116C182.154 253.214 182.015 253.281 181.867 253.31C181.719 253.34 181.566 253.331 181.422 253.284C181.136 253.186 180.834 253.146 180.532 253.165C180.21 253.258 179.928 253.458 179.734 253.731C178.728 254.902 178.313 256.233 177.849 257.686Z"
      fill="#9298AF" />
    <path opacity="0.1"
      d="M178.9 261.868C178.9 261.868 170.365 262.67 169.66 261.358L178.9 261.868Z" fill="black" />
    <path opacity="0.1"
      d="M162.547 257.705C162.547 257.705 157.831 257.53 156.729 259.263L162.547 257.705Z"
      fill="#5776AE" />
    <path opacity="0.1"
      d="M274.884 365.326C287.642 365.326 297.985 363.733 297.985 361.766C297.985 359.8 287.642 358.206 274.884 358.206C262.125 358.206 251.782 359.8 251.782 361.766C251.782 363.733 262.125 365.326 274.884 365.326Z"
      fill="#7DBEDC" />
    <path
      d="M280.718 325.027C280.718 325.027 282.928 327.928 279.698 332.312C276.467 336.695 273.807 340.393 274.884 343.125C274.884 343.125 279.754 334.988 283.722 334.89C287.691 334.793 285.082 329.92 280.718 325.027Z"
      fill="#BBCADF" />
    <path opacity="0.1"
      d="M280.719 325.027C280.911 325.307 281.063 325.614 281.17 325.937C285.041 330.503 287.101 334.767 283.383 334.872C279.918 334.973 275.76 341.198 274.765 342.766C274.796 342.893 274.836 343.018 274.884 343.14C274.884 343.14 279.754 335.003 283.722 334.906C287.69 334.808 285.082 329.92 280.719 325.027Z"
      fill="#BBCADF" />
    <path
      d="M284.825 328.726C284.825 329.747 284.714 330.575 284.572 330.575C284.431 330.575 284.318 329.747 284.318 328.726C284.318 327.704 284.46 328.187 284.601 328.187C284.743 328.187 284.825 327.704 284.825 328.726Z"
      fill="#FFD037" />
    <path
      d="M286.237 329.945C285.343 330.432 284.565 330.728 284.498 330.604C284.431 330.48 285.101 329.983 285.988 329.481C286.874 328.98 286.528 329.347 286.595 329.481C286.662 329.616 287.128 329.455 286.237 329.945Z"
      fill="#FFD037" />
    <path
      d="M269.049 325.027C269.049 325.027 266.839 327.928 270.067 332.312C273.293 336.695 275.961 340.393 274.884 343.125C274.884 343.125 270.01 334.988 266.046 334.89C262.081 334.793 264.686 329.92 269.049 325.027Z"
      fill="#BBCADF" />
    <path opacity="0.1"
      d="M269.049 325.027C268.854 325.307 268.701 325.613 268.595 325.937C264.727 330.503 262.667 334.767 266.385 334.872C269.85 334.973 274.005 341.198 274.999 342.766C274.97 342.893 274.931 343.018 274.884 343.14C274.884 343.14 270.01 335.003 266.046 334.906C262.081 334.808 264.686 329.92 269.049 325.027Z"
      fill="#BBCADF" />
    <path
      d="M264.939 328.726C264.939 329.747 265.055 330.574 265.197 330.574C265.338 330.574 265.45 329.747 265.45 328.726C265.45 327.704 265.308 328.194 265.171 328.194C265.033 328.194 264.939 327.704 264.939 328.726Z"
      fill="#FFD037" />
    <path
      d="M263.531 329.945C264.425 330.432 265.203 330.728 265.27 330.604C265.338 330.48 264.667 329.983 263.78 329.481C262.894 328.98 263.24 329.347 263.173 329.481C263.106 329.616 262.637 329.455 263.531 329.945Z"
      fill="#FFD037" />
    <path
      d="M286.781 339.213L286.67 340.12L286.517 341.4L286.449 341.935L286.297 343.215L286.23 343.75L286.073 345.027L284.307 359.587C284.147 360.887 282.034 361.901 279.464 361.901H270.29C267.737 361.901 265.629 360.887 265.472 359.587L263.698 345.038L263.546 343.761L263.478 343.227L263.322 341.946L263.259 341.411L263.102 340.13L262.991 339.225C262.905 338.476 264.049 337.87 265.49 337.87H284.277C285.719 337.859 286.864 338.476 286.781 339.213Z"
      fill="#7598D6" />
    <path
      d="M286.663 340.12L286.51 341.4H263.259L263.103 340.12H286.663ZM286.443 341.931L286.29 343.211H263.479L263.323 341.931H286.443ZM286.222 343.746L286.066 345.027H263.699L263.546 343.746H286.222Z"
      fill="#BBCADF" />
    <path
      d="M406.863 161.538L410.294 159.609L411.903 160.574L444.054 315.329L442.128 315.696L438.11 312.209L406.863 161.538Z"
      fill="#E4E8EF" />
    <path opacity="0.1"
      d="M410.294 159.609L442.128 315.696L444.054 315.329L411.902 160.574L410.294 159.609Z"
      fill="black" />
    <path
      d="M386.63 168.07L411.099 170.413V172.305L386.76 170.186L386.63 168.07ZM389.223 191.124H415.17V193.894H388.889L389.223 191.124ZM391.602 215.295L417.797 214.253L421.074 215.295V217.07L397.8 218.295H391.816L391.602 215.295Z"
      fill="#E4E8EF" />
    <path opacity="0.1" d="M398.133 216.737L421.074 215.295V217.071L397.8 218.295L398.133 216.737Z"
      fill="black" />
    <path opacity="0.1"
      d="M391.602 215.295L398.133 216.737L397.799 218.295H391.815L391.602 215.295Z" fill="black" />
    <path
      d="M393.975 241.53L422.895 238.847L426.082 239.678V241.53L400.249 244.243L393.975 244.8V241.53Z"
      fill="#E4E8EF" />
    <path opacity="0.1"
      d="M400.139 242.685L423.209 240.365L426.082 239.678V241.529L400.249 244.243L400.139 242.685Z"
      fill="black" />
    <path opacity="0.1"
      d="M393.588 243.024L400.139 242.684L400.249 244.243L393.975 244.8L393.588 243.024Z"
      fill="black" />
    <path
      d="M395.35 267.62L427.965 263.288L430.761 264.4V266.516L402.628 270.747H396.017L395.35 267.62Z"
      fill="#E4E8EF" />
    <path opacity="0.1"
      d="M402.628 269.409L430.761 264.4V266.516L402.628 270.747V269.409ZM395.74 269.446L402.628 269.41V270.747H396.017L395.74 269.446Z"
      fill="black" />
    <path
      d="M397.29 294.423L433.065 287.752L436.233 289.614V291.086L404.842 298.702L398.371 299.192L397.29 294.423Z"
      fill="#E4E8EF" />
    <path opacity="0.1" d="M404.827 297.248L436.218 289.676V291.147L404.827 298.763V297.248Z"
      fill="black" />
    <path opacity="0.1"
      d="M397.979 297.592L404.827 297.249V298.764L398.356 299.255L397.979 297.592Z" fill="black" />
    <path
      d="M388.91 157.681L386.016 158.325L396.468 324.734L399.522 325.859H401.934L388.91 157.681Z"
      fill="#E4E8EF" />
    <path opacity="0.1"
      d="M387.497 157.995L399.522 325.859H401.934L388.909 157.681L387.497 157.995Z" fill="black" />
    <path
      d="M397.295 153.562C396.822 152.874 396.263 152.251 395.631 151.706C395.111 151.383 394.515 151.204 393.904 151.185C393.161 150.976 392.494 150.557 391.984 149.978C391.72 149.708 391.967 149.551 392.47 149.612C392.972 149.673 393.686 150.013 393.899 149.991C394.111 149.97 394.095 149.711 393.83 149.254C393.489 148.708 393.05 148.23 392.536 147.843C392.16 147.603 391.143 147.155 391.004 146.841C390.866 146.526 390.932 146.357 391.457 146.476C391.999 146.566 392.531 146.713 393.041 146.917C393.393 147.056 393.746 146.703 394.982 147.116C395.357 147.265 395.721 147.435 396.075 147.628C396.148 147.631 396.22 147.641 396.29 147.66C396.762 147.802 397.155 149.367 397.437 149.776C398.126 150.439 398.858 151.055 399.629 151.62L397.295 153.562Z"
      fill="#FCB6AC" />
    <path
      d="M422.126 170.613C421.831 169.11 421.263 167.641 421.249 166.11C421.228 163.624 422.551 160.738 420.812 158.902C420.415 158.484 419.883 158.172 419.588 157.683C419.365 157.26 419.259 156.786 419.281 156.308C419.252 153.409 420.85 150.465 419.893 147.718C419.706 147.101 419.321 146.564 418.797 146.19C418.244 145.83 417.616 145.762 416.938 145.774C416.326 145.774 415.681 145.842 415.048 145.854C414.689 145.854 414.333 145.807 413.986 145.714C413.255 145.507 412.633 145.027 411.908 144.791C411.527 144.668 411.127 144.612 410.726 144.628C409.139 144.576 407.688 145.632 406.559 146.655C405.996 147.129 405.4 147.562 404.776 147.952C404.87 147.886 402.571 149.464 403.436 149.48C404.054 149.499 404.651 149.706 405.146 150.075C404.624 150.882 404.366 151.832 404.408 152.792C404.45 153.753 404.791 154.676 405.382 155.434C404.979 155.038 404.573 154.644 404.166 154.253C402.9 153.008 401.13 151.337 400.298 150.881C398.93 150.146 396.976 148.549 396.976 148.549C396.976 148.549 394.437 149.967 395.219 151.935C395.592 152.051 395.956 152.193 396.308 152.363C396.308 152.625 396.359 152.883 396.457 153.126C397.26 153.379 398.021 153.752 398.713 154.231C398.792 154.341 398.864 154.453 398.93 154.569C399.268 155.16 400.32 156.235 401.605 157.431C402.507 158.335 403.696 159.417 404.879 160.459C404.522 161.168 404.147 161.876 404.081 162.585C403.989 162.549 403.9 162.508 403.814 162.462C402.056 161.517 397.955 161.616 397.955 161.616C397.955 161.616 394.536 159.83 393.854 155.789C393.854 155.789 393.171 153.343 393.365 152.686H393.352L393.44 152.667L394.26 151.182C394.312 151.085 394.338 150.976 394.337 150.866C394.336 150.756 394.307 150.648 394.253 150.552C394.2 150.457 394.123 150.376 394.03 150.317C393.937 150.259 393.83 150.224 393.721 150.217C389.724 149.859 389.535 153.525 389.535 153.525H389.57L389.559 153.555C390.048 155.906 390.437 155.718 390.341 157.598L391.902 161.735C391.902 161.735 391.999 163.152 394.832 165.025C397.664 166.899 400.887 169.821 400.887 169.821C400.887 169.821 399.178 170.715 399.812 174.804C400.587 179.803 399.422 186.933 399.422 186.933V191.54L399.639 191.481C399.611 191.634 399.585 191.798 399.557 191.975C399.196 194.29 399.151 196.643 399.422 198.97C400.008 203.86 402.352 210.546 402.352 210.546C402.352 210.546 403.231 212.897 403.427 214.778C403.457 215.15 403.542 215.516 403.677 215.864C404.117 216.897 404.35 218.005 404.362 219.127C404.354 221.945 404.864 224.741 405.867 227.375C406.857 229.888 407.226 231.362 407.334 232.222C406.625 233.139 405.713 234.138 404.988 234.238C403.62 234.426 400.984 234.613 402.742 236.869C402.802 236.947 402.871 237.019 402.945 237.084C401.609 237.297 400.143 237.765 401.57 239.595C403.327 241.851 413.677 240.817 413.677 240.817C413.677 240.817 413.744 239.562 413.677 238.185C414.402 238.136 414.858 238.091 414.858 238.091C414.858 238.091 415.151 232.638 413.883 231.979C413.648 232.005 413.418 232.06 413.197 232.144C413.061 231.391 412.962 230.452 412.891 229.76L413.394 229.722V229.685H413.425V221.468C413.425 221.468 412.839 216.391 410.691 214.144C410.415 213.861 410.177 213.544 409.982 213.199L409.954 213.14C409.968 212.498 409.968 211.63 409.954 210.636L409.985 210.581C410.062 210.454 410.153 210.335 410.256 210.227L410.287 210.187C410.287 210.187 411.469 208.769 415.464 199.844C417.904 194.396 417.259 191.339 416.384 189.763C416.201 189.055 415.815 187.467 415.333 184.748C415.135 183.594 415.042 182.424 415.052 181.254C415.657 181.405 416.281 181.475 416.905 181.461C417.884 181.483 418.854 181.276 419.739 180.856C419.101 179.926 418.435 178.834 418.757 177.764C419.12 176.546 420.562 175.986 421.393 175.003C422.395 173.814 422.421 172.118 422.126 170.613Z"
      fill="url(#paint1_linear_118_6202)" />
    <path
      d="M397.381 149.554C397.381 149.554 394.957 150.953 395.703 152.911C395.703 152.911 398.222 153.658 399.247 155.521C400.273 157.385 408.199 164.1 408.199 164.1L413.987 161.21C413.987 161.21 411.976 158.527 405.617 156.651C405.617 156.651 401.867 152.634 400.561 151.886C399.254 151.137 397.381 149.554 397.381 149.554Z"
      fill="#5776AE" />
    <path opacity="0.05"
      d="M398.562 150.735C398.562 150.735 396.138 152.135 396.885 154.092C396.885 154.092 399.403 154.839 400.428 156.703C401.454 158.567 409.38 165.282 409.38 165.282L415.168 162.392C415.168 162.392 413.158 159.709 406.798 157.833C406.798 157.833 403.048 153.816 401.742 153.068C400.436 152.319 398.562 150.735 398.562 150.735Z"
      fill="black" />
    <path
      d="M412.486 229.085C412.486 229.085 412.765 233.186 413.233 233.653C413.7 234.121 409.037 234.4 409.037 234.4L409.689 229.085H412.486Z"
      fill="#FFB9B9" />
    <path opacity="0.05"
      d="M412.486 229.085C412.486 229.085 412.765 233.186 413.233 233.653C413.7 234.121 409.037 234.4 409.037 234.4L409.689 229.085H412.486Z"
      fill="black" />
    <path
      d="M413.514 232.256C413.514 232.256 412.861 232.256 410.53 233.467C410.53 233.467 408.945 233.189 408.293 230.949C408.293 230.949 406.334 234.306 405.03 234.493C403.726 234.68 401.208 234.866 402.885 237.103C404.562 239.341 414.447 238.315 414.447 238.315C414.447 238.315 414.723 232.907 413.514 232.256Z"
      fill="#9298AF" />
    <path opacity="0.1"
      d="M413.514 232.256C413.514 232.256 412.861 232.256 410.53 233.467C410.53 233.467 408.945 233.189 408.293 230.949C408.293 230.949 406.334 234.306 405.03 234.493C403.726 234.68 401.208 234.866 402.885 237.103C404.562 239.341 414.447 238.315 414.447 238.315C414.447 238.315 414.723 232.907 413.514 232.256Z"
      fill="#333333" />
    <path
      d="M412.113 235.425L411.462 237.197L407.174 235.985L407.41 234.227L407.469 233.802L407.632 232.62C407.632 232.62 411.268 231.687 411.268 232.148C411.316 232.532 411.395 232.912 411.504 233.284C411.653 233.859 411.839 234.51 411.977 234.938C412.057 235.238 412.113 235.425 412.113 235.425Z"
      fill="#FFB9B9" />
    <path
      d="M409.772 211.109C409.539 211.502 409.416 211.951 409.416 212.408C409.416 212.866 409.539 213.314 409.772 213.708C409.956 214.044 410.181 214.356 410.443 214.636C412.493 216.873 413.053 221.907 413.053 221.907V230.018L411.655 230.125L409.418 230.297L406.061 216.498C406.061 216.498 404.102 206.429 405.035 204.656C405.968 202.885 406.807 191.79 406.807 191.79L407.582 190.99L409.418 189.088H414.733C415.158 189.392 415.512 189.787 415.768 190.243C416.662 191.719 417.462 194.791 415.014 200.461C411.192 209.318 410.072 210.717 410.072 210.717C409.957 210.835 409.856 210.967 409.772 211.109Z"
      fill="#4E6896" />
    <path opacity="0.1"
      d="M409.803 211.069C409.569 211.462 409.446 211.911 409.446 212.368C409.446 212.825 409.569 213.274 409.803 213.667C409.986 214.004 410.212 214.316 410.473 214.596C412.524 216.833 413.084 221.868 413.084 221.868V229.978L411.686 230.084L409.448 230.257L406.091 216.457C406.091 216.457 404.132 206.388 405.065 204.617C405.999 202.844 406.838 191.751 406.838 191.751L407.612 190.949L409.448 189.047H414.764C415.189 189.353 415.543 189.747 415.798 190.203C416.692 191.68 417.493 194.751 415.045 200.42C411.223 209.278 410.103 210.676 410.103 210.676C409.988 210.795 409.888 210.927 409.803 211.069Z"
      fill="#333333" />
    <path opacity="0.1"
      d="M411.512 233.296L407.476 233.802L407.638 232.62C407.638 232.62 411.274 231.687 411.274 232.148C411.323 232.537 411.402 232.921 411.512 233.296Z"
      fill="black" />
    <path
      d="M409.498 199.157C409.498 199.157 409.734 206.497 409.767 211.109V213.708C409.772 214.05 409.747 214.392 409.691 214.73C409.413 215.569 409.971 217.433 409.971 217.433C411.369 221.118 411.942 225.065 411.648 228.995V233.097L407.174 233.657C407.174 233.657 407.92 233.097 405.867 227.689C404.907 225.069 404.42 222.299 404.428 219.509C404.417 218.399 404.195 217.3 403.774 216.273C403.646 215.926 403.566 215.564 403.537 215.195C403.351 213.332 402.512 211 402.512 211C402.512 211 400.275 204.385 399.715 199.532C399.456 197.224 399.5 194.893 399.844 192.596C399.927 192.013 400.039 191.434 400.18 190.862C400.18 190.862 409.295 185.126 412.737 189.09C413.068 189.478 413.331 189.92 413.514 190.396C413.703 190.867 413.85 191.353 413.953 191.85C415.024 197.106 409.498 199.157 409.498 199.157Z"
      fill="#4E6896" />
    <path
      d="M409.221 158.321C410.483 158.321 411.692 157.82 412.584 156.928C413.476 156.036 413.977 154.827 413.977 153.565C413.977 152.304 413.476 151.094 412.584 150.202C411.692 149.311 410.483 148.81 409.221 148.81C407.96 148.81 406.751 149.311 405.859 150.202C404.967 151.094 404.466 152.304 404.466 153.565C404.466 154.827 404.967 156.036 405.859 156.928C406.751 157.82 407.96 158.321 409.221 158.321Z"
      fill="#FFB9B9" />
    <path
      d="M406.611 156.546C406.611 156.546 408.569 162.046 406.611 164.938C404.653 167.83 412.857 166.897 412.857 166.897L416.028 163.074C416.028 163.074 412.298 163.074 412.111 156.546C411.924 150.019 406.611 156.546 406.611 156.546Z"
      fill="#FFB9B9" />
    <path opacity="0.1"
      d="M416.028 191.324C415.352 191.558 414.657 191.732 413.951 191.845C412.791 192.024 411.421 192.031 410.62 191.324C410.148 190.906 408.967 190.852 407.57 190.989C404.61 191.272 400.605 192.376 399.84 192.593C399.922 192.01 400.034 191.431 400.176 190.859C400.176 190.859 409.29 185.123 412.732 189.087H414.721C415.147 189.392 415.5 189.786 415.756 190.242C415.929 190.985 416.028 191.324 416.028 191.324ZM412.113 235.425L411.462 237.197L407.174 235.985L407.409 234.227C408.146 235.858 409.404 236.08 409.404 236.08C410.222 235.627 411.081 235.25 411.969 234.955C412.057 235.238 412.113 235.425 412.113 235.425Z"
      fill="black" />
    <path
      d="M412.392 234.96C412.392 234.96 411.74 234.96 409.408 236.172C409.408 236.172 407.822 235.893 407.17 233.653C407.17 233.653 405.212 237.01 403.908 237.197C402.604 237.384 400.085 237.57 401.763 239.808C403.44 242.045 413.325 241.02 413.325 241.02C413.325 241.02 413.604 235.612 412.392 234.96Z"
      fill="#9298AF" />
    <path
      d="M393.658 116.571H347.742C346.62 116.571 345.711 117.106 345.711 117.768V149.229C345.711 149.891 346.62 150.427 347.742 150.427H393.658C394.78 150.427 395.688 149.891 395.688 149.229V117.768C395.688 117.106 394.78 116.571 393.658 116.571Z"
      fill="#E4E8EF" />
    <path
      d="M391.437 118.99H349.964C348.951 118.99 348.13 119.449 348.13 120.016V146.982C348.13 147.549 348.951 148.009 349.964 148.009H391.437C392.45 148.009 393.271 147.549 393.271 146.982V120.016C393.271 119.449 392.45 118.99 391.437 118.99Z"
      fill="white" />
    <path opacity="0.2"
      d="M383.868 123.826H357.771C357.563 123.826 357.357 123.868 357.165 123.948C356.973 124.028 356.798 124.145 356.652 124.293C356.505 124.44 356.389 124.615 356.31 124.807C356.23 125 356.19 125.206 356.19 125.414V132.381C356.19 133.258 356.898 133.969 357.771 133.969H383.868C384.288 133.968 384.69 133.8 384.987 133.502C385.283 133.205 385.449 132.801 385.448 132.381V125.414C385.449 124.994 385.283 124.59 384.987 124.292C384.69 123.995 384.288 123.827 383.868 123.826Z"
      fill="#7598D6" />
    <path d="M380.373 137.529H361.027V139.947H380.373V137.529Z" fill="#FF7067" />
    <path opacity="0.7" d="M389.464 142.047H352.159V144.117H389.464V142.047Z" fill="#7598D6" />
    <path
      d="M393.912 155.241C393.566 154.481 393.319 153.68 393.178 152.857C393.169 152.245 393.322 151.642 393.621 151.108C393.825 150.364 393.809 149.577 393.576 148.842C393.48 148.476 393.219 148.608 393.012 149.07C392.805 149.532 392.729 150.318 392.601 150.489C392.473 150.66 392.259 150.513 392.004 150.051C391.712 149.477 391.528 148.855 391.462 148.214C391.45 147.769 391.591 146.666 391.392 146.386C391.194 146.104 391.015 146.074 390.847 146.586C390.644 147.097 390.496 147.628 390.407 148.17C390.346 148.544 389.861 148.665 389.578 149.936C389.512 150.334 389.471 150.735 389.454 151.137C389.419 151.201 389.391 151.268 389.37 151.337C389.248 151.815 390.388 152.959 390.593 153.412C390.806 154.343 390.957 155.287 391.044 156.239L393.912 155.241Z"
      fill="#FCB6AC" />
    <path
      d="M412.3 164.192C412.3 164.192 407.731 163.446 406.519 162.515C406.519 162.515 405.586 164.287 403.908 163.353C402.231 162.42 398.314 162.515 398.314 162.515C397.287 161.885 396.407 161.044 395.731 160.047C395.056 159.05 394.601 157.921 394.397 156.734C394.397 156.734 393.745 154.31 393.924 153.662C393.924 153.662 391.5 151.144 390.288 154.501C390.761 156.833 391.127 156.646 391.035 158.518L392.526 162.619C392.526 162.619 392.618 164.017 395.323 165.881C398.028 167.745 401.104 170.637 401.104 170.637C401.104 170.637 399.471 171.523 400.079 175.579C400.82 180.54 399.706 187.607 399.706 187.607V192.176C399.706 192.176 409.03 189.473 410.613 190.87C412.196 192.266 416.02 190.87 416.02 190.87C416.02 190.87 415.548 189.284 414.901 185.462C414.253 181.639 414.993 177.902 414.993 177.902C414.993 177.902 417.417 171.468 418.537 168.858C419.657 166.247 417.698 162.716 415.74 161.399C413.781 160.083 413.053 160.878 413.053 160.878C413.053 160.878 416.496 163.353 412.3 164.192Z"
      fill="#7598D6" />
    <path opacity="0.05"
      d="M400.319 177.66C400.319 177.66 401.063 177.481 404.791 176.921C408.519 176.361 415.047 177.667 415.047 177.667"
      fill="black" />
    <path opacity="0.1"
      d="M403.542 150.485C405.668 150.529 407.242 153.152 406.299 155.045C405.886 155.876 405.085 156.608 405.168 157.532C405.205 157.952 405.429 158.333 405.526 158.744C405.973 160.634 403.712 162.404 404.229 164.27C404.406 164.77 404.681 165.23 405.037 165.623L408.964 170.57C409.202 170.843 409.4 171.149 409.55 171.478C409.7 171.947 409.757 172.44 409.72 172.93C409.701 175.293 409.855 177.828 411.249 179.745C412.923 182.045 416.337 182.872 418.877 181.589C418.267 180.665 417.632 179.584 417.932 178.518C418.28 177.311 419.654 176.753 420.448 175.78C421.407 174.599 421.431 172.921 421.157 171.43C420.883 169.939 420.332 168.482 420.321 166.965C420.301 164.502 421.563 161.638 419.902 159.819C419.522 159.403 419.017 159.096 418.733 158.609C418.519 158.187 418.418 157.716 418.44 157.243C418.414 154.371 419.938 151.449 419.023 148.725C418.85 148.118 418.482 147.586 417.977 147.208C416.683 146.336 414.887 147.182 413.389 146.736C412.68 146.53 412.096 146.053 411.404 145.819C409.538 145.188 407.811 146.454 406.521 147.669C405.985 148.137 405.416 148.567 404.818 148.954C404.91 148.904 402.716 150.468 403.542 150.485Z"
      fill="black" />
    <path
      d="M403.778 150.485C405.905 150.529 407.478 153.152 406.535 155.045C406.122 155.876 405.321 156.608 405.404 157.532C405.442 157.952 405.666 158.333 405.763 158.744C406.209 160.634 403.949 162.404 404.466 164.27C404.642 164.77 404.917 165.231 405.274 165.623L409.2 170.57C409.439 170.843 409.636 171.149 409.786 171.478C409.936 171.947 409.994 172.44 409.956 172.93C409.937 175.293 410.091 177.828 411.485 179.745C413.16 182.045 416.574 182.872 419.114 181.589C418.504 180.665 417.868 179.584 418.168 178.518C418.515 177.311 419.89 176.753 420.685 175.78C421.644 174.599 421.667 172.921 421.393 171.43C421.119 169.939 420.569 168.482 420.557 166.965C420.538 164.502 421.799 161.638 420.138 159.819C419.758 159.403 419.252 159.096 418.969 158.609C418.755 158.187 418.654 157.716 418.676 157.243C418.65 154.371 420.174 151.449 419.26 148.725C419.086 148.119 418.718 147.586 418.213 147.208C416.918 146.336 415.123 147.182 413.625 146.736C412.917 146.53 412.333 146.053 411.641 145.819C409.775 145.188 408.047 146.454 406.757 147.669C406.221 148.137 405.652 148.567 405.054 148.954C405.146 148.904 402.951 150.468 403.778 150.485Z"
      fill="#4E6896" />
    <path
      d="M323.106 84.21C323.106 84.21 320.704 84.992 317.305 90.191C313.906 95.3907 308.224 111.278 308.224 111.278H330.193C330.193 111.278 339.73 95.1397 340.39 94.2287C341.021 93.3028 341.442 92.2503 341.623 91.1447L339.056 88.1256L323.106 84.21Z"
      fill="#4D73B8" />
    <path opacity="0.61"
      d="M323.249 99.5289C323.091 99.1985 322.941 98.862 322.783 98.5248C322.188 97.2697 323.099 94.0064 321.815 93.7768C320.654 93.5693 312.829 107.073 313.252 107.475C313.424 107.647 316.501 104.219 316.73 104.305C317.943 104.771 319.449 102.154 320.739 101.981C321.153 101.982 321.56 101.882 321.926 101.688C322.291 101.494 322.603 101.213 322.833 100.869"
      fill="#F9D8CD" />
    <path
      d="M356.884 113.987C357.668 114.434 358.391 114.981 359.035 115.614C359.428 116.147 359.674 116.772 359.753 117.428C360.034 118.202 360.532 118.88 361.187 119.379C361.503 119.645 361.653 119.379 361.546 118.835C361.438 118.289 361.008 117.565 361.008 117.328C361.008 117.092 361.295 117.099 361.803 117.328C362.422 117.647 362.976 118.077 363.439 118.597C363.725 118.978 364.292 120.032 364.636 120.154C364.981 120.276 365.16 120.154 364.995 119.637C364.85 119.063 364.646 118.506 364.385 117.974C364.199 117.608 364.55 117.199 363.999 115.908C363.812 115.519 363.599 115.143 363.36 114.782C363.352 114.704 363.335 114.627 363.31 114.553C363.116 114.058 361.402 113.771 360.943 113.506C360.178 112.823 359.46 112.09 358.792 111.312L356.884 113.987Z"
      fill="#AB7D7D" />
    <path
      d="M316.437 91.6688L327.129 92.1922L340.669 93.777C344.563 87.0215 335.95 83.2707 334.308 83.099L329.561 82.3818C327.041 82.6794 324.595 83.4248 322.338 84.583C320.309 85.623 318.028 88.2698 316.437 91.6688Z"
      fill="#4E6896" />
    <path
      d="M335.327 81.5922C335.327 81.5922 334.904 83.579 334.804 84.1382C334.736 84.5039 334.543 84.8345 334.258 85.0728C333.972 85.311 333.612 85.442 333.24 85.4429C329.066 85.4429 329.203 82.8183 329.203 82.8183C329.992 81.4632 330.3 77.5476 330.3 77.5476M342.649 116.826C343.129 117.585 343.705 118.279 344.363 118.891C344.909 119.259 345.542 119.477 346.199 119.522C346.99 119.777 347.69 120.255 348.215 120.899C348.487 121.201 348.215 121.359 347.677 121.272C347.139 121.186 346.386 120.792 346.156 120.806C345.926 120.821 345.934 121.1 346.199 121.602C346.544 122.203 346.996 122.735 347.533 123.173C347.928 123.445 349.003 123.969 349.139 124.313C349.276 124.657 349.197 124.836 348.637 124.686C348.058 124.568 347.493 124.388 346.952 124.148C346.579 123.983 346.185 124.349 344.872 123.854C344.476 123.679 344.09 123.481 343.718 123.259C343.64 123.252 343.563 123.238 343.488 123.216C342.986 123.043 342.627 121.344 342.34 120.893C341.628 120.151 340.866 119.458 340.06 118.82L342.649 116.826Z"
      fill="#AB7D7D" />
    <path
      d="M319.521 94.1141C317.986 91.7618 322.855 88.9793 322.855 88.9793L324.741 89.7605C325.867 89.1944 327.811 88.3269 327.811 88.3269L328.829 91.1019C328.912 91.5399 328.87 91.9922 328.707 92.4073C328.779 93.9997 331.655 102.741 331.777 102.871C335.886 107.325 339.653 112.083 343.044 117.106C342.799 117.654 342.44 118.143 341.989 118.54C341.573 118.925 341.107 119.253 340.605 119.516C340.605 119.516 331.691 112.272 327.646 108.042C323.881 104.032 321.055 96.4664 319.521 94.1141Z"
      fill="#4E6896" />
    <path
      d="M340.44 79.6129C339.895 80.8014 338.965 81.7714 337.801 82.3665C337.162 82.6243 336.477 82.7478 335.789 82.7293C335.1 82.7108 334.423 82.5507 333.799 82.259C332.702 81.7516 331.772 80.9429 331.117 79.9273C330.462 78.9116 330.109 77.7307 330.099 76.5221C330.131 75.3092 330.511 74.1309 331.192 73.1268C331.873 72.1227 332.828 71.3348 333.943 70.8562C336.015 70.0032 339.264 70.3832 340.835 72.1472C342.405 73.912 341.386 77.7559 340.44 79.6129Z"
      fill="#AB7D7D" />
    <path
      d="M330.085 76.4932C330.092 77.7024 330.444 78.8844 331.1 79.9006C331.755 80.9169 332.687 81.7252 333.785 82.2308C334.911 82.7436 336.183 82.8351 337.37 82.4887C336.582 82.4523 335.802 82.3051 335.054 82.0515C333.943 81.5517 332.995 80.7478 332.322 79.7325C331.648 78.7173 331.275 77.5321 331.246 76.3139C331.246 73.8976 333.398 71.5453 335.628 70.6198C335.859 70.5191 336.099 70.4397 336.345 70.3833C335.528 70.3615 334.716 70.5031 333.955 70.7997C333.194 71.0963 332.5 71.5419 331.913 72.1104C331.327 72.6789 330.86 73.3588 330.539 74.1103C330.219 74.8617 330.053 75.6696 330.049 76.4864L330.085 76.4932Z"
      fill="#AB7D7D" />
    <path
      d="M341.329 74.6361C340.534 74.5284 339.776 74.2286 339.123 73.7625C338.469 73.2964 337.939 72.6781 337.578 71.9611C337.452 72.3275 337.242 72.6596 336.966 72.931C336.689 73.2025 336.353 73.4059 335.984 73.5252C335.616 73.6442 335.224 73.6756 334.841 73.6169C334.458 73.5583 334.094 73.4111 333.778 73.1872C333.81 73.951 333.553 74.6988 333.056 75.2802C332.56 75.8617 331.862 76.2337 331.103 76.3215C331.204 76.4925 331.265 76.6847 331.28 76.883C331.294 77.0814 331.263 77.2804 331.187 77.4645C331.112 77.6486 330.994 77.8124 330.843 77.9427C330.693 78.073 330.514 78.1661 330.321 78.2145C329.922 78.2652 329.517 78.1727 329.18 77.9535C328.842 77.7344 328.593 77.4027 328.477 77.0174C328.377 76.6273 328.369 76.2189 328.455 75.8253C328.541 75.4317 328.718 75.0638 328.973 74.7513C328.164 74.1749 327.579 73.3367 327.318 72.3786C327.056 71.4206 327.134 70.4016 327.538 69.4944C327.984 68.6063 328.723 67.8997 329.63 67.4944C330.537 67.0892 331.556 67.0102 332.515 67.2711C332.786 66.4789 333.293 65.7893 333.97 65.296C334.646 64.8026 335.458 64.5296 336.295 64.5139C337.131 64.4982 337.953 64.7407 338.647 65.2084C339.341 65.676 339.875 66.3461 340.175 67.1276C340.117 66.9979 341.343 67.049 341.437 67.0559C341.934 67.0817 342.422 67.2062 342.871 67.4221C343.703 67.8303 342.885 74.794 341.329 74.6361Z"
      fill="#3E486E" />
    <path
      d="M330.177 76.7006C330.048 75.898 330.507 74.765 331.217 74.5994C331.377 74.5447 331.547 74.5263 331.715 74.5454C331.882 74.5645 332.044 74.6208 332.187 74.71C332.331 74.7993 332.453 74.9193 332.544 75.0614C332.635 75.2035 332.694 75.3642 332.715 75.5318C332.845 76.3352 332.4 77.6834 331.698 77.8627C331.431 77.908 331.157 77.8697 330.913 77.7529C330.669 77.636 330.467 77.4465 330.335 77.2103C330.248 77.0531 330.194 76.8796 330.177 76.7006Z"
      fill="#AB7D7D" />
    <path
      d="M340.884 87.6165L348.501 100.418L344.571 104.477C344.571 104.477 342.354 102.462 340.877 100.776C340.27 100.086 339.677 99.3827 339.098 98.6675C338.55 97.9952 338.155 97.2108 337.942 96.3696C337.729 95.5283 337.702 94.6506 337.865 93.7981C338.013 92.7872 338.268 91.7938 338.625 90.8362C340.095 87.9247 340.884 87.6165 340.884 87.6165Z"
      fill="#4E6896" />
    <path
      d="M348.5 100.418C348.5 100.418 356.39 108.206 359.717 112.158L357.788 114.704C357.788 114.704 346.923 108.379 342.764 102.204C339.78 97.7719 348.5 100.418 348.5 100.418ZM322.468 91.9626C322.468 91.9626 320.015 97.3553 317.448 96.6671C315.332 96.1079 316.451 91.6826 316.451 91.6826L319.32 89.0869L322.468 91.9626Z"
      fill="#4E6896" />
    <path
      d="M340.088 87.7234C340.446 91.6457 339.799 95.5946 338.209 99.1979L337.399 93.3962C338.027 90.4121 338.027 87.3298 337.399 84.3457C337.743 84.4472 338.072 84.5975 338.374 84.7905C338.894 85.0833 339.327 85.5092 339.628 86.0246C339.93 86.5401 340.088 87.1264 340.088 87.7234ZM331.031 92.9376C331.031 92.9376 330.629 83.7223 325.443 83.292C324.735 83.289 324.049 83.5439 323.515 84.0092C323.515 84.0092 327.997 85.3284 328.743 92.7011L331.031 92.9376Z"
      fill="#5E7EBE" />
    <path
      d="M332.867 72.0037C332.867 72.0037 334.603 75.3028 342.061 76.0482C342.627 76.1054 344.593 75.6683 342.907 73.947L332.867 72.0037Z"
      fill="#FF7067" />
    <path
      d="M343.122 73.3162C343.675 71.5164 344.707 66.2953 339.285 63.9934C331.239 60.5508 328.37 65.4995 327.323 69.731C327.197 69.7402 327.076 69.7887 326.979 69.8697C326.881 69.9507 326.811 70.0601 326.779 70.1827C326.775 70.2911 326.805 70.3979 326.866 70.488C326.926 70.5782 327.013 70.647 327.115 70.6847C327.815 70.9563 328.534 71.1766 329.267 71.3439C332.458 72.2977 338.525 73.9259 342.577 73.9472C342.632 73.9759 342.694 73.9909 342.756 73.9909C342.819 73.9909 342.88 73.9759 342.935 73.9472C343.502 73.7183 343.122 73.3162 343.122 73.3162Z"
      fill="#FF7067" />
    <path
      d="M334.638 62.8169C334.638 62.8169 341.228 64.4809 338.941 73.6321C339.859 73.8282 340.793 73.9388 341.73 73.9617C341.73 73.9617 343.854 67.0629 339.285 63.9934C339.285 63.9934 337.241 61.841 334.638 62.8169Z"
      fill="#FF9892" />
  </g>
  <defs>
    <linearGradient id="paint0_linear_118_6202" x1="-63460.8" y1="122773" x2="-61271.2" y2="68281.3"
      gradientUnits="userSpaceOnUse">
      <stop stop-color="#808080" stop-opacity="0.25" />
      <stop offset="0.54" stop-color="#808080" stop-opacity="0.12" />
      <stop offset="1" stop-color="#808080" stop-opacity="0.1" />
    </linearGradient>
    <linearGradient id="paint1_linear_118_6202" x1="34088.2" y1="78773.2" x2="34088.2" y2="39430.5"
      gradientUnits="userSpaceOnUse">
      <stop stop-color="#808080" stop-opacity="0.25" />
      <stop offset="0.54" stop-color="#808080" stop-opacity="0.12" />
      <stop offset="1" stop-color="#808080" stop-opacity="0.1" />
    </linearGradient>
  </defs>
</svg>
  