<svg width="40" height="40" viewBox="0 0 40 40" fill="none" xmlns="http://www.w3.org/2000/svg">
  <path fill-rule="evenodd" clip-rule="evenodd"
        d="M2.5 30C2.2243 30 2 29.7757 2 29.5C2 29.2243 2.2243 29 2.5 29C2.7757 29 3 29.2243 3 29.5C3 29.7757 2.7757 30 2.5 30Z"
        fill="#ECECFE"/>
  <path fill-rule="evenodd" clip-rule="evenodd"
        d="M8 3C7.7243 3 7.5 2.7757 7.5 2.5C7.5 2.22428 7.7243 2 8 2C8.2757 2 8.5 2.22428 8.5 2.5C8.5 2.7757 8.2757 3 8 3Z"
        fill="#ECECFE"/>
  <path fill-rule="evenodd" clip-rule="evenodd"
        d="M1.5 13C1.2243 13 1 12.7757 1 12.5C1 12.2243 1.2243 12 1.5 12C1.7757 12 2 12.2243 2 12.5C2 12.7757 1.7757 13 1.5 13Z"
        fill="#ECECFE"/>
  <path fill-rule="evenodd" clip-rule="evenodd"
        d="M38.5 28C38.2243 28 38 27.7757 38 27.5C38 27.2243 38.2243 27 38.5 27C38.7757 27 39 27.2243 39 27.5C39 27.7757 38.7757 28 38.5 28Z"
        fill="#ECECFE"/>
  <path fill-rule="evenodd" clip-rule="evenodd"
        d="M37.5 11C37.2243 11 37 10.7757 37 10.5C37 10.2243 37.2243 10 37.5 10C37.7757 10 38 10.2243 38 10.5C38 10.7757 37.7757 11 37.5 11Z"
        fill="#ECECFE"/>
  <path
    d="M20 9.5C20 9.22386 19.7761 9 19.5 9H11.5L11.4417 9.00336C11.193 9.03225 11 9.24358 11 9.5C11 9.77614 11.2239 10 11.5 10H19.5L19.5583 9.99664C19.807 9.96775 20 9.75642 20 9.5Z"
    fill="#E1000F"/>
  <path
    d="M25.5 33L25.4417 33.0034C25.193 33.0322 25 33.2436 25 33.5C25 33.7761 25.2239 34 25.5 34H29.5L29.5583 33.9966C29.807 33.9678 30 33.7564 30 33.5C30 33.2239 29.7761 33 29.5 33H25.5Z"
    fill="#E1000F"/>
  <path
    d="M27.5 27C27.7564 27 27.9678 27.193 27.9966 27.4417L28 27.5V30.2929L29.1464 29.1464C29.3417 28.9512 29.6583 28.9512 29.8536 29.1464C30.0338 29.3267 30.0477 29.6103 29.8951 29.8064L29.8536 29.8536L27.8536 31.8536C27.8053 31.9018 27.7497 31.9381 27.6903 31.9625C27.6392 31.9836 27.5838 31.9964 27.5257 31.9993L27.5145 31.9998C27.5097 31.9999 27.5048 32 27.5 32C27.4915 32 27.4831 31.9998 27.4747 31.9994C27.4161 31.9965 27.3601 31.9834 27.3085 31.962C27.2681 31.9453 27.2293 31.923 27.1936 31.8951C27.1772 31.8824 27.1615 31.8686 27.1464 31.8536L25.1464 29.8536C24.9512 29.6583 24.9512 29.3417 25.1464 29.1464C25.3267 28.9662 25.6103 28.9523 25.8064 29.1049L25.8536 29.1464L27 30.2929V27.5C27 27.2239 27.2239 27 27.5 27Z"
    fill="#E1000F"/>
  <path fill-rule="evenodd" clip-rule="evenodd"
        d="M27.5 24C23.9101 24 21 26.9101 21 30.5C21 34.0899 23.9101 37 27.5 37C31.0899 37 34 34.0899 34 30.5C34 26.9101 31.0899 24 27.5 24ZM27.5 25C30.5376 25 33 27.4624 33 30.5C33 33.5376 30.5376 36 27.5 36C24.4624 36 22 33.5376 22 30.5C22 27.4624 24.4624 25 27.5 25Z"
        fill="#E1000F"/>
  <path
    d="M24.5 12C24.7761 12 25 12.2239 25 12.5C25 12.7564 24.807 12.9678 24.5583 12.9966L24.5 13H11.5C11.2239 13 11 12.7761 11 12.5C11 12.2436 11.193 12.0322 11.4417 12.0034L11.5 12H24.5Z"
    fill="#E1000F"/>
  <path
    d="M22 15.5C22 15.2239 21.7761 15 21.5 15H11.5L11.4417 15.0034C11.193 15.0322 11 15.2436 11 15.5C11 15.7761 11.2239 16 11.5 16H21.5L21.5583 15.9966C21.807 15.9678 22 15.7564 22 15.5Z"
    fill="#E1000F"/>
  <path
    d="M27.5 6C27.7564 6 27.9678 6.19302 27.9966 6.44169L28 6.5V22.5C28 22.7761 27.7761 23 27.5 23C27.2436 23 27.0322 22.807 27.0034 22.5583L27 22.5V7H9V33H19.5C19.7564 33 19.9678 33.193 19.9966 33.4417L20 33.5C20 33.7564 19.807 33.9678 19.5583 33.9966L19.5 34H8.5C8.24358 34 8.03225 33.807 8.00336 33.5583L8 33.5V6.5C8 6.24358 8.19302 6.03225 8.44169 6.00336L8.5 6H27.5Z"
    fill="#000091"/>
  <path
    d="M24.5 18C24.7761 18 25 18.2239 25 18.5C25 18.7564 24.807 18.9678 24.5583 18.9966L24.5 19H11.5C11.2239 19 11 18.7761 11 18.5C11 18.2436 11.193 18.0322 11.4417 18.0034L11.5 18H24.5Z"
    fill="#000091"/>
  <path
    d="M21 24.5C21 24.2239 20.7761 24 20.5 24H11.5L11.4417 24.0034C11.193 24.0322 11 24.2436 11 24.5C11 24.7761 11.2239 25 11.5 25H20.5L20.5583 24.9966C20.807 24.9678 21 24.7564 21 24.5Z"
    fill="#000091"/>
  <path
    d="M29.5 6C29.7564 6 29.9678 6.19302 29.9966 6.44169L30 6.5V22.5C30 22.7761 29.7761 23 29.5 23C29.2436 23 29.0322 22.807 29.0034 22.5583L29 22.5V6.5C29 6.22386 29.2239 6 29.5 6Z"
    fill="#000091"/>
  <path
    d="M23 21.5C23 21.2239 22.7761 21 22.5 21H11.5L11.4417 21.0034C11.193 21.0322 11 21.2436 11 21.5C11 21.7761 11.2239 22 11.5 22H22.5L22.5583 21.9966C22.807 21.9678 23 21.7564 23 21.5Z"
    fill="#000091"/>
  <path
    d="M16.5 30C16.7761 30 17 30.2239 17 30.5C17 30.7564 16.807 30.9678 16.5583 30.9966L16.5 31H11.5C11.2239 31 11 30.7761 11 30.5C11 30.2436 11.193 30.0322 11.4417 30.0034L11.5 30H16.5Z"
    fill="#000091"/>
  <path
    d="M19 27.5C19 27.2239 18.7761 27 18.5 27H11.5L11.4417 27.0034C11.193 27.0322 11 27.2436 11 27.5C11 27.7761 11.2239 28 11.5 28H18.5L18.5583 27.9966C18.807 27.9678 19 27.7564 19 27.5Z"
    fill="#000091"/>
</svg>
