<svg fill="none" xmlns="http://www.w3.org/2000/svg" viewBox="0 0 236 63">
  <path d="M19.85 29.822v4.847H0V2.53h5.502v27.293h14.347zm26.968-5.374H27.94c.647 3.688 3.991 6.217 7.767 6.111a9.99 9.99 0 007.012-2.845l2.912 2.95c-2.697 2.74-6.472 4.216-10.356 4.11-7.659.106-12.73-4.952-12.73-12.223 0-7.377 5.287-12.435 12.622-12.435 8.738-.105 12.298 5.585 11.651 14.332zm-4.639-3.794c-.215-3.899-2.912-6.323-6.904-6.323-3.883 0-6.688 2.424-7.335 6.323h14.24zM31.715 6.744L36.678 0l5.501 2.318-5.717 4.426h-4.747zm43.367 25.502c0 7.06-5.178 11.38-12.945 11.38-3.668 0-7.336-1.159-10.356-3.161l2.265-3.794c2.266 1.686 4.962 2.635 7.875 2.635 4.747 0 7.875-2.74 7.875-6.955v-3.056a9.26 9.26 0 01-8.306 4.11c-6.797 0-11.327-4.742-11.327-11.803 0-6.85 4.53-11.591 11.11-11.591 3.345-.21 6.581 1.37 8.415 4.11v-3.9h5.394v22.025zm-5.394-10.433c0-4.426-3.02-7.482-7.227-7.482-4.316 0-7.228 3.056-7.336 7.482 0 4.426 3.02 7.482 7.336 7.482 4.314 0 7.227-3.056 7.227-7.482zM88.35 3.267c0 1.686-1.402 3.055-3.128 3.055-1.726 0-3.128-1.37-3.128-3.055 0-1.686 1.294-3.162 3.128-3.162 1.726 0 3.236 1.265 3.236 3.056-.107 0-.107 0-.107.106zm-5.825 31.402V10.222h5.394v24.447h-5.394zm19.849-26.344v2.95h6.581v3.9h-6.581v19.494H96.98V15.174h-3.236v-3.899h3.236V8.852c0-5.69 4.315-8.43 8.631-8.43 2.049 0 3.991.526 5.609 1.685l-2.05 4.005c-.97-.738-2.157-1.054-3.452-1.16-1.726-.21-3.236 1.054-3.452 2.74.108.211.108.422.108.633zm15.103 6.849c1.618-3.267 4.962-5.269 8.63-5.058v5.058c-5.07-.316-8.199 2.634-8.63 6.744v12.75h-5.394V10.222h5.394v4.953zm27.078 16.544c-1.726 2.213-4.639 3.162-8.307 3.162-5.394 0-8.846-3.267-8.846-7.587 0-4.426 3.452-7.271 9.493-7.377h7.552v-.737c0-3.056-2.05-4.953-6.041-4.953-2.697.105-5.286.948-7.444 2.423l-2.265-3.688c3.128-2.107 6.904-3.161 10.787-3.056 6.473 0 10.033 3.162 10.141 8.641v16.018h-4.962l-.108-2.846zm0-5.584v-2.319h-6.797c-3.559 0-5.178.949-5.178 3.267 0 2.213 1.834 3.688 4.855 3.688 3.883 0 6.796-2.002 7.12-4.636zm36.569-6.64v15.174h-5.394v-13.7c0-3.687-2.265-5.9-6.041-5.9-4.099 0-6.688 2.845-7.119 6.638v12.962h-5.394V10.22h5.394v4.637c1.726-3.372 4.962-4.848 9.169-4.848 5.825 0 9.385 3.689 9.385 9.485zm27.832-5.48l-3.021 3.372c-1.834-1.897-4.531-2.845-7.12-2.74-4.315 0-7.443 3.162-7.443 7.798 0 4.637 3.128 7.798 7.443 7.798 2.805.105 5.502-.948 7.444-2.95l3.02 2.95c-2.265 2.95-5.933 4.531-10.679 4.531-7.444 0-12.622-5.058-12.622-12.329 0-7.376 5.178-12.434 12.622-12.434 4.53 0 7.982 1.475 10.356 4.004zm26.969 10.433h-18.878c.647 3.582 3.991 6.217 7.767 6.111a9.99 9.99 0 007.012-2.845l2.912 2.95c-2.697 2.74-6.472 4.216-10.356 4.11-7.659 0-12.837-5.058-12.837-12.329 0-7.376 5.286-12.434 12.621-12.434 8.846 0 12.406 5.69 11.759 14.437zm-4.747-3.794c-.215-3.9-2.912-6.323-6.904-6.323-3.883 0-6.688 2.424-7.335 6.323h14.239z" fill="#5E74B5"/>
  <path d="M0 59.697v-.738l.97-.105V52.32L0 52.215v-.738h3.02v.738l-.97.105v6.534h3.02l.108-.949h.97v1.792H0zm10.248.106c-.756 0-1.51-.316-2.158-.843-.54-.633-.755-1.37-.755-2.213v-.211c0-.843.216-1.58.755-2.213.432-.527 1.187-.843 1.942-.843.755-.105 1.402.21 1.942.738.431.526.755 1.264.647 2.002v.737h-4.1c0 .527.108 1.054.432 1.476a1.55 1.55 0 001.295.632c.323 0 .647 0 .97-.105.324-.106.54-.211.756-.422l.431.738c-.216.21-.54.421-.863.527-.323-.106-.863 0-1.294 0zm-.108-5.585c-.432 0-.755.21-.971.526-.324.317-.432.738-.54 1.16h2.913v-.106c0-.421-.108-.843-.323-1.159-.324-.21-.756-.421-1.08-.421zm11.867 1.158h-.863l-.216-.738c-.108-.105-.324-.21-.54-.316-.215-.105-.43-.105-.754-.105a2.07 2.07 0 00-.863.21c-.216.211-.324.422-.324.633 0 .21.108.421.216.632.323.21.647.316 1.078.422.648.105 1.295.316 1.727.737.431.21.647.632.647 1.16 0 .526-.216 1.053-.755 1.37-.54.315-1.187.526-1.726.526-.432 0-.863 0-1.295-.105-.324-.106-.755-.211-.97-.527V57.8h.862l.216.843c.216.105.324.21.54.21.323 0 .539.106.754.106.324 0 .648-.106.971-.211.216-.105.324-.422.324-.632 0-.211-.108-.422-.324-.633-.323-.21-.755-.316-1.078-.421-.648-.105-1.187-.316-1.727-.738-.323-.21-.539-.632-.539-1.054 0-.527.216-.948.647-1.264.54-.316 1.08-.527 1.726-.527.432 0 .863 0 1.295.21.324.106.647.212.97.528v1.159zm4.423 4.427c-.756 0-1.511-.316-2.158-.843-.54-.633-.755-1.37-.755-2.213v-.211c0-.843.215-1.58.755-2.213.431-.527 1.186-.843 1.942-.843.755-.105 1.402.21 1.941.738.432.526.755 1.264.647 2.002v.737h-4.099c0 .527.108 1.054.432 1.476.323.316.755.527 1.294.527.324 0 .648 0 .971-.106.324-.105.54-.21.755-.421l.432.737c-.216.211-.54.422-.863.527-.432 0-.863.106-1.295.106zm-.216-5.585c-.432 0-.756.21-.971.526-.324.317-.432.738-.54 1.16h2.913v-.106c0-.421-.108-.843-.324-1.159-.216-.316-.647-.421-1.079-.421zm3.992-.001v-.737h1.941l.108.843a4.61 4.61 0 01.648-.738c.215-.21.539-.316.863-.21h.539l-.108 1.053h-.647c-.216 0-.54 0-.755.21a3.36 3.36 0 00-.54.633v3.583l.971.105v.738h-3.02v-.738l.97-.105v-4.426l-.97-.21zm7.444 0l-.756.105 1.294 3.477.108.422.108-.422 1.295-3.477-.755-.105v-.738h2.48v.738l-.539.105-2.157 5.374h-.863l-2.158-5.374-.539-.105v-.738h2.481v.738zm4.745 4.743l.97-.106V54.43l-.97-.106v-.737h2.157v5.268l.864.106v.737h-3.021v-.737zm2.05-7.06h-1.187v-1.16h1.187v1.16zm4.855 7.059c.323 0 .755-.106.97-.316.324-.211.432-.527.432-.843h1.079c0 .526-.216 1.053-.756 1.475-.539.421-1.078.632-1.726.632-.755 0-1.618-.316-2.157-.843-.54-.632-.755-1.37-.755-2.213v-.21c0-.844.215-1.581.755-2.214a2.373 2.373 0 012.157-.843c.432 0 .971.106 1.403.21.431.106.755.423.97.739v1.37h-.862l-.108-1.16c-.108-.105-.324-.21-.54-.316-.215-.105-.431-.105-.755-.105-.54 0-1.078.21-1.294.632a2.921 2.921 0 00-.432 1.58v.212c0 .527.108 1.053.432 1.58.323.422.755.633 1.186.633zm6.795.844c-.755 0-1.51-.316-2.157-.843-.54-.633-.755-1.37-.755-2.213v-.211c0-.843.215-1.58.755-2.213.431-.527 1.186-.843 1.941-.843.756-.105 1.403.21 1.942.738.432.526.755 1.264.648 2.002v.737h-4.1c0 .527.108 1.054.432 1.476a1.55 1.55 0 001.294.632c.324 0 .648 0 .971-.105.324-.106.54-.211.755-.422l.432.738c-.216.21-.54.421-.863.527-.432-.106-.863 0-1.295 0zm-.215-5.585c-.432 0-.756.21-.971.526-.324.317-.432.738-.54 1.16h2.913v-.106c0-.421-.108-.843-.324-1.159-.215-.21-.647-.421-1.078-.421zm7.012 7.059l.97-.105v-6.745l-.97-.105v-.738h1.941l.108.738c.216-.316.432-.527.755-.632.324-.211.648-.211 1.08-.211.754 0 1.401.316 1.833.948.431.738.755 1.581.647 2.424v.105c0 .738-.216 1.581-.647 2.213-.431.527-1.079.843-1.834.843-.324 0-.647 0-.97-.21-.324-.106-.54-.316-.756-.633v2.108l.971.105v.738H63v-.843h-.108zm5.178-4.531c0-.633-.108-1.16-.432-1.686-.216-.422-.755-.738-1.294-.738-.324 0-.648 0-.863.21a1.087 1.087 0 00-.54.633v2.95c.108.211.324.422.54.633.215.105.539.21.863.21.539 0 .97-.21 1.294-.632.324-.526.54-1.053.432-1.58zm7.012 2.002c-.216.316-.431.632-.755.737-.324.21-.755.316-1.079.21-.647 0-1.187-.21-1.618-.631-.431-.633-.647-1.265-.54-2.002v-2.74l-.755-.105v-.738h1.834v3.688c0 .527.108.948.324 1.37.216.316.54.421.863.421.324 0 .647-.105.97-.21.217-.211.432-.422.648-.738v-3.583l-.863-.105v-.738h2.05v5.269l.755.105v.738H75.19l-.108-.948zm8.63-1.896c0 .738-.215 1.58-.647 2.213-.431.527-1.079.843-1.834.843-.323 0-.755-.105-1.079-.21a2.492 2.492 0 01-.755-.739l-.108.738h-.97v-8.114l-.971-.105v-.738h2.157v3.478c.216-.317.432-.527.755-.633.324-.105.648-.21.971-.21.755 0 1.403.316 1.834.948.54.632.755 1.58.647 2.529zm-1.078-.105c0-.633-.108-1.16-.432-1.686-.216-.422-.755-.738-1.187-.738a2.08 2.08 0 00-.863.21c-.215.212-.431.422-.647.738v2.74c.108.316.324.527.647.738.324.21.54.21.863.21.432 0 .971-.21 1.187-.526.324-.422.432-.949.432-1.476v-.21zm2.264-5.269v-.738h2.158v8.009l.97.105v.738h-3.02v-.632l.971-.106v-7.27l-1.079-.106zm4.1 7.482l.97-.106V54.43l-.97-.106v-.737h2.158v5.268l.97.106v.737h-3.02v-.737h-.108zm2.158-7.06h-1.187v-1.16h1.187v1.16zm4.854 7.059c.323 0 .754-.106.97-.316.324-.211.432-.527.432-.843h1.078c0 .526-.215 1.053-.755 1.475-.539.421-1.078.632-1.726.632-.755 0-1.618-.316-2.157-.843-.54-.632-.755-1.37-.755-2.213v-.21c0-.844.215-1.581.755-2.214a2.373 2.373 0 012.157-.843c.432 0 .971.106 1.403.21.431.106.755.423.97.739v1.37h-.862l-.108-1.16c-.108-.105-.324-.21-.54-.316-.215-.105-.431-.105-.755-.105-.54 0-1.079.21-1.294.632a2.921 2.921 0 00-.432 1.58v.212c0 .527.108 1.053.432 1.58.323.422.755.633 1.186.633zm11.327.001c-.216.315-.432.526-.756.632-.323.105-.647.21-1.078.21-.756 0-1.403-.316-1.834-.843-.432-.632-.648-1.37-.648-2.213v-.105c0-.843.216-1.686.648-2.423.431-.633 1.078-.949 1.834-.949.323 0 .647.105.971.21.323.106.539.317.755.633v-2.529l-.971-.105v-.738h2.157v8.008l.971.106v.738h-1.942l-.107-.633zm-3.129-2.108c0 .527.108 1.054.432 1.475.215.422.755.632 1.186.527.648 0 1.187-.316 1.403-.843v-2.845c-.108-.21-.324-.422-.54-.632-.215-.211-.539-.211-.863-.211-.539 0-.971.21-1.186.737-.324.527-.432 1.16-.432 1.686v.106zm9.17 2.951c-.756 0-1.511-.316-2.158-.843-.539-.633-.755-1.37-.755-2.213v-.211c0-.843.216-1.58.755-2.213.431-.527 1.187-.843 1.942-.843.755-.105 1.402.21 1.942.738.431.526.755 1.264.647 2.002v.737h-4.1c0 .527.108 1.054.432 1.476a1.55 1.55 0 001.295.632c.323 0 .647 0 .97-.105.324-.106.54-.211.756-.422l.431.738c-.216.21-.539.421-.863.527-.431-.106-.863 0-1.294 0zm-.216-5.585c-.432 0-.755.21-.971.526-.324.317-.432.738-.54 1.16h2.913v-.106c0-.421-.108-.843-.323-1.159-.216-.316-.648-.421-1.079-.421zm7.012-2.74v-.738h2.157v8.009l.971.105v.738h-3.02v-.632l.971-.106v-7.27l-1.079-.106zm8.306 8.218c0-.105 0-.316-.107-.421v-.422c-.216.316-.54.527-.863.738-.324.21-.648.316-1.079.316-.54 0-1.079-.105-1.51-.527-.756-.737-.648-1.897.107-2.634l.108-.105c.648-.317 1.295-.527 2.05-.527h1.187v-.738c0-.316-.108-.632-.324-.843-.324-.21-.647-.316-.971-.316-.216 0-.539 0-.755.105a.594.594 0 00-.539.316l-.108.633h-.863v-1.16c.323-.21.647-.421 1.078-.526.432-.106.863-.211 1.295-.211.647 0 1.294.21 1.726.527.431.421.647.948.647 1.475v3.477h.432v.738l-1.511.105zm-1.941-.843c.323 0 .755-.105 1.078-.21.324-.106.54-.422.648-.633v-1.053h-1.187c-.431 0-.755.105-1.079.316-.215.21-.431.527-.431.737 0 .211.108.422.216.633.215.105.539.21.755.21zm11.974.107c-.216.315-.432.526-.755.632-.324.105-.648.21-1.079.21-.755 0-1.402-.316-1.834-.843-.431-.632-.647-1.37-.647-2.213v-.105c0-.843.216-1.686.647-2.423.432-.633 1.079-.949 1.834-.949.324 0 .647.105.971.21.323.106.539.317.755.633v-2.529l-.971-.105v-.738h2.158v8.008l.97.106v.738h-1.941l-.108-.633zm-3.129-2.108c0 .527.108 1.054.432 1.475.216.422.755.632 1.187.527.647 0 1.186-.316 1.402-.843v-2.845c-.108-.21-.324-.422-.539-.632-.216-.211-.54-.211-.863-.211-.54 0-.971.21-1.187.737-.324.527-.432 1.16-.432 1.686v.106zm6.257 2.108l.971-.106V54.43l-.971-.106v-.737h2.158v5.268l.971.106v.737h-3.021v-.737h-.108zm2.158-7.06h-1.187v-1.16h1.187v1.16zm1.942 2.423v-.843h.971v-.843c0-.527.107-1.159.539-1.475.431-.316.971-.527 1.51-.527h.432c.108 0 .323 0 .431.105l-.108.843h-.539c-.324 0-.539.106-.755.317-.216.21-.216.526-.216.843v.737h1.295v.843h-1.403v4.426l.971.105v.738h-3.128v-.632l.971-.106v-4.53h-.971zm4.423 0v-.843h.97v-.843c0-.527.108-1.159.54-1.475.431-.316.971-.527 1.51-.527h.432c.107 0 .323 0 .431.105l-.108.843h-.539c-.324 0-.54.106-.755.317-.216.21-.216.526-.216.843v.737h1.294v.843h-1.294v4.426l.863.21v.739h-3.021v-.738l.971-.105v-4.426h-1.078v-.106zm9.169 4.425c-.216.316-.432.632-.755.737-.324.21-.755.316-1.079.21-.647 0-1.187-.21-1.618-.631-.432-.633-.647-1.265-.539-2.002v-2.74l-.756-.105v-.738h1.834v3.688c0 .527.108.948.324 1.37.216.316.539.421.863.421.324 0 .647-.105.971-.21.216-.211.431-.422.647-.738v-3.583l-.863-.105v-.738h2.05v5.269l.755.105v.738h-1.726l-.108-.948zm7.767-3.372h-.863l-.216-.738c-.108-.105-.323-.21-.539-.316-.216-.105-.432-.105-.755-.105a2.07 2.07 0 00-.863.21c-.216.211-.324.422-.324.633 0 .21.108.421.216.632.324.21.647.316 1.079.422.647.105 1.294.316 1.726.737.323.316.539.738.647 1.16 0 .526-.216 1.053-.755 1.37-.54.315-1.187.526-1.726.526-.432 0-.863 0-1.295-.105-.323-.106-.755-.21-.971-.527V57.8h.863l.216.843c.216.105.324.21.54.21.215.106.431.106.755.106.323 0 .647-.106.971-.211.215-.105.323-.421.323-.632 0-.211-.108-.422-.323-.633-.324-.21-.756-.316-1.079-.421-.647-.105-1.187-.316-1.726-.738-.432-.21-.647-.632-.647-1.159s.215-.948.647-1.264c.539-.317 1.079-.527 1.726-.527.431 0 .863 0 1.294.21.324.106.648.211.971.527l.108 1.265zm1.51 3.584l.971-.106V54.43l-.971-.106v-.737h2.158v5.268l.863.106v.737h-3.021v-.737zm2.05-7.06h-1.187v-1.16h1.187v1.16zm2.158 4.637c0-.843.216-1.58.755-2.213 1.079-1.159 2.805-1.159 3.992-.21.108 0 .108.105.216.21.539.632.755 1.475.755 2.213v.105c0 .843-.216 1.58-.755 2.213-1.079 1.16-2.805 1.16-3.992.21-.108 0-.108-.105-.216-.21-.539-.632-.755-1.475-.755-2.213v-.105zm1.079.105c0 .527.108 1.16.432 1.58.539.633 1.402.844 2.157.317.108-.105.324-.21.324-.316a2.925 2.925 0 00.431-1.58v-.106c0-.527-.108-1.16-.431-1.58-.54-.633-1.403-.844-2.158-.317-.108.106-.323.211-.323.316a2.917 2.917 0 00-.432 1.58v.106zm5.609 2.317l.971-.106v-4.426l-.971-.105v-.738h1.942l.107.949c.216-.316.432-.633.756-.738.323-.21.755-.316 1.078-.316.54 0 1.187.21 1.511.632.431.527.647 1.16.539 1.792v2.95l.971.105v.738h-2.913v-.737l.971-.106v-3.056c0-.421-.108-.843-.323-1.159-.216-.21-.648-.421-.971-.316-.324 0-.648.105-.863.21l-.648.633v3.688l.971.105v.738h-3.02v-.737h-.108zm15.534.001c-.216.315-.432.526-.755.632-.324.105-.648.21-1.079.21-.755 0-1.403-.316-1.834-.843-.432-.632-.647-1.37-.647-2.213v-.105c0-.843.215-1.686.647-2.423.431-.633 1.079-.949 1.834-.949.323 0 .647.105.971.21.323.106.539.317.755.633v-2.529l-.971-.105v-.738h2.157v8.008l.971.106v.738h-1.941l-.108-.633zm-3.129-2.108c0 .527.108 1.054.432 1.475.216.422.755.632 1.186.527.648 0 1.187-.316 1.403-.843v-2.845c-.108-.21-.324-.422-.54-.632-.215-.211-.539-.211-.863-.211-.539 0-.97.21-1.186.737-.324.527-.432 1.16-.432 1.686v.106zm10.788 1.896c-.216.316-.432.632-.755.737-.324.21-.756.316-1.079.21-.647 0-1.187-.21-1.618-.631-.432-.633-.648-1.265-.54-2.002v-2.74l-.755-.105v-.738h1.834v3.688c0 .527.108.948.324 1.37.215.316.539.421.863.421.323 0 .647-.105.971-.21.215-.211.431-.422.647-.738v-3.583l-.863-.105v-.738h2.049v5.269l.756.105v.738h-1.726l-.108-.948zm10.464.212c-.216.315-.431.526-.755.632-.324.105-.647.21-1.079.21-.755 0-1.402-.316-1.834-.843-.431-.632-.647-1.37-.647-2.213v-.105c0-.843.216-1.686.647-2.423.432-.633 1.079-.949 1.834-.949.324 0 .648.105.971.21.324.106.54.317.755.633v-2.529l-.971-.105v-.738h2.158v8.008l.971.106v.738h-1.942l-.108-.633zm-3.128-2.108c0 .527.108 1.054.431 1.475.216.422.755.632 1.187.527.647 0 1.187-.316 1.402-.843v-2.845c-.108-.21-.323-.422-.539-.632-.216-.211-.539-.211-.863-.211-.539 0-.971.21-1.187.737-.323.527-.431 1.16-.431 1.686v.106zm6.256-2.635v-.737h1.942l.108.843c.216-.317.432-.527.647-.738a.853.853 0 01.863-.21h.54l-.108 1.053h-.647c-.216 0-.54 0-.756.21a3.418 3.418 0 00-.539.633v3.583l.971.105v.738h-3.128v-.738l.97-.105v-4.426l-.863-.21zm5.071 2.32c0-.843.216-1.58.755-2.213 1.079-1.159 2.805-1.159 3.992-.21.108 0 .108.105.216.21.539.632.755 1.475.755 2.213v.105c0 .843-.216 1.58-.755 2.213-1.079 1.16-2.805 1.16-3.992.21-.108 0-.108-.105-.216-.21-.539-.632-.755-1.475-.755-2.213v-.105zm1.079.105c0 .527.108 1.16.432 1.58.539.633 1.402.844 2.157.317.108-.105.324-.21.324-.316a2.925 2.925 0 00.431-1.58v-.106c0-.527-.108-1.16-.431-1.58-.54-.633-1.403-.844-2.158-.317-.108.106-.323.211-.323.316a2.917 2.917 0 00-.432 1.58v.106zm5.825 2.318l.971-.106V54.43l-.971-.106v-.737h2.158v5.268l.971.106v.737h-3.021v-.737h-.108zm2.05-7.06h-1.079v-1.16h1.187l-.108 1.16zm4.098.104v1.475h1.187v.843h-1.187v3.689c0 .316 0 .526.216.632.108.105.324.21.54.21h.647l.108.738c-.108.106-.324.106-.54.106-.215 0-.431.105-.647 0-.432 0-.755-.106-1.079-.422-.323-.316-.431-.843-.431-1.264v-3.689h-.971v-.843h.971v-1.475h1.186z" fill="#494B54"/>
</svg>
