<svg width="145" height="66" viewBox="0 0 145 66" fill="none" xmlns="http://www.w3.org/2000/svg">
  <g id=" Tuile/Logo">
    <g id="Frame 7">
      <g id="Frame 3">
        <rect width="59" height="21" transform="translate(59.5)" fill="#E1000F" />
        <path id="CODE"
          d="M69.9873 13.354C71.2293 13.354 72.2013 12.742 72.7953 11.878L75.3333 13.804C74.1633 15.352 72.2913 16.36 69.9873 16.36C65.9733 16.36 63.2373 13.3 63.2373 9.7C63.2373 6.1 65.9733 3.04 69.9873 3.04C72.2913 3.04 74.1633 4.048 75.3333 5.578L72.7953 7.522C72.2013 6.658 71.2473 6.046 69.9873 6.046C67.9713 6.046 66.5313 7.594 66.5313 9.7C66.5313 11.824 67.9713 13.354 69.9873 13.354ZM83.0654 3.04C87.0614 3.04 89.7974 6.1 89.7974 9.7C89.7974 13.3 87.0614 16.36 83.0654 16.36C79.0514 16.36 76.3154 13.3 76.3154 9.7C76.3154 6.1 79.0514 3.04 83.0654 3.04ZM83.0654 13.354C85.0634 13.354 86.5034 11.806 86.5034 9.7C86.5034 7.576 85.0634 6.046 83.0654 6.046C81.0494 6.046 79.6094 7.594 79.6094 9.7C79.6094 11.824 81.0494 13.354 83.0654 13.354ZM92.2138 16V3.4H97.2538C101.268 3.4 104.004 6.298 104.004 9.7C104.004 13.102 101.268 16 97.2538 16H92.2138ZM97.2718 6.298H95.4178V13.102H97.2718C99.2518 13.102 100.692 11.644 100.692 9.7C100.692 7.738 99.2518 6.298 97.2718 6.298ZM106.417 16V3.4H114.193V6.118H109.621V8.224H113.473V10.942H109.621V13.282H114.193V16H106.417Z"
          fill="white" />
      </g>
      <g id="Frame 6">
        <rect width="118.5" height="20" transform="translate(0 20)" fill="#E1000F" />
        <path id="DU TRAVAIL"
          d="M3.84659 36V23.4H8.88659C12.9006 23.4 15.6366 26.298 15.6366 29.7C15.6366 33.102 12.9006 36 8.88659 36H3.84659ZM8.90459 26.298H7.05059V33.102H8.90459C10.8846 33.102 12.3246 31.644 12.3246 29.7C12.3246 27.738 10.8846 26.298 8.90459 26.298ZM25.1915 31.248V23.4H28.3955V30.942C28.3955 34.29 26.4515 36.36 23.1215 36.36C19.8095 36.36 17.8655 34.29 17.8655 30.942V23.4H21.0695V31.248C21.0695 32.544 21.8075 33.354 23.1395 33.354C24.4535 33.354 25.1915 32.544 25.1915 31.248ZM35.1417 26.298V23.4H45.6897V26.298H42.0177V36H38.8137V26.298H35.1417ZM47.9501 36V23.4H52.1801C55.1321 23.4 56.9501 24.858 56.9501 27.324C56.9501 28.854 56.2481 29.988 55.0061 30.636L58.8761 36H55.0421L51.9101 31.23H51.1541V36H47.9501ZM52.3781 26.118H51.1541V28.512H52.3781C53.1881 28.512 53.6561 28.062 53.6561 27.288C53.6561 26.568 53.1881 26.118 52.3781 26.118ZM59.4605 36L64.0325 23.4H68.2085L72.7805 36H69.3785L68.3525 33.03H63.8885L62.8625 36H59.4605ZM64.8245 30.33H67.4165L66.1205 26.622L64.8245 30.33ZM72.0992 23.4H75.5012L78.7592 32.382L82.0172 23.4H85.4192L80.8472 36H76.6712L72.0992 23.4ZM84.7379 36L89.3099 23.4H93.4859L98.0579 36H94.6559L93.6299 33.03H89.1659L88.1399 36H84.7379ZM90.1019 30.33H92.6939L91.3979 26.622L90.1019 30.33ZM99.911 36V23.4H103.115V36H99.911ZM106.608 36V23.4H109.812V33.102H114.384V36H106.608Z"
          fill="white" />
      </g>
      <g id="Frame 5">
        <rect x="24" y="40.5" width="120" height="24.25" fill="white" />
        <rect x="24" y="40.5" width="120" height="24.25" stroke="#E1000F" />
        <path id="NUM&#195;&#137;RIQUE"
          d="M28.246 59V46.4H32.314L36.832 54.176V46.4H40.036V59H35.968L31.45 51.224V59H28.246ZM50.4874 54.248V46.4H53.6914V53.942C53.6914 57.29 51.7474 59.36 48.4174 59.36C45.1054 59.36 43.1614 57.29 43.1614 53.942V46.4H46.3654V54.248C46.3654 55.544 47.1034 56.354 48.4354 56.354C49.7494 56.354 50.4874 55.544 50.4874 54.248ZM56.828 59V46.4H60.824L63.272 50.72L65.738 46.4H69.734V59H66.53V51.008L64.37 54.68H62.192L60.032 51.008V59H56.828ZM78.4848 45.32H75.5688L77.6028 42.89H80.8428L78.4848 45.32ZM73.2108 59V46.4H80.9868V49.118H76.4148V51.224H80.2668V53.942H76.4148V56.282H80.9868V59H73.2108ZM83.9687 59V46.4H88.1987C91.1507 46.4 92.9687 47.858 92.9687 50.324C92.9687 51.854 92.2667 52.988 91.0247 53.636L94.8947 59H91.0607L87.9287 54.23H87.1727V59H83.9687ZM88.3967 49.118H87.1727V51.512H88.3967C89.2067 51.512 89.6747 51.062 89.6747 50.288C89.6747 49.568 89.2067 49.118 88.3967 49.118ZM96.3964 59V46.4H99.6004V59H96.3964ZM113.786 58.298C114.686 59.162 115.478 59.468 116.288 59.468C116.54 59.468 116.918 59.432 117.206 59.324V61.988C116.72 62.186 116.342 62.276 115.712 62.276C114.164 62.276 112.814 61.628 111.572 60.512L110.15 59.234C109.718 59.324 109.25 59.36 108.764 59.36C104.75 59.36 102.014 56.3 102.014 52.7C102.014 49.1 104.75 46.04 108.764 46.04C112.76 46.04 115.496 49.1 115.496 52.7C115.496 54.698 114.65 56.516 113.228 57.758L113.786 58.298ZM108.764 56.354C110.762 56.354 112.202 54.806 112.202 52.7C112.202 50.576 110.762 49.046 108.764 49.046C106.748 49.046 105.308 50.594 105.308 52.7C105.308 54.824 106.748 56.354 108.764 56.354ZM125.054 54.248V46.4H128.258V53.942C128.258 57.29 126.314 59.36 122.984 59.36C119.672 59.36 117.728 57.29 117.728 53.942V46.4H120.932V54.248C120.932 55.544 121.67 56.354 123.002 56.354C124.316 56.354 125.054 55.544 125.054 54.248ZM131.394 59V46.4H139.17V49.118H134.598V51.224H138.45V53.942H134.598V56.282H139.17V59H131.394Z"
          fill="#E1000F" />
      </g>
    </g>
  </g>
</svg>
  