<svg width="150" height="66" viewBox="0 0 150 66" fill="none" xmlns="http://www.w3.org/2000/svg">
<rect width="59" height="20" transform="translate(62)" fill="#E1000F"/>
<path d="M72.5586 13.354C73.8006 13.354 74.7726 12.742 75.3666 11.878L77.9046 13.804C76.7346 15.352 74.8626 16.36 72.5586 16.36C68.5446 16.36 65.8086 13.3 65.8086 9.7C65.8086 6.1 68.5446 3.04 72.5586 3.04C74.8626 3.04 76.7346 4.048 77.9046 5.578L75.3666 7.522C74.7726 6.658 73.8186 6.046 72.5586 6.046C70.5426 6.046 69.1026 7.594 69.1026 9.7C69.1026 11.824 70.5426 13.354 72.5586 13.354ZM85.6367 3.04C89.6327 3.04 92.3687 6.1 92.3687 9.7C92.3687 13.3 89.6327 16.36 85.6367 16.36C81.6227 16.36 78.8867 13.3 78.8867 9.7C78.8867 6.1 81.6227 3.04 85.6367 3.04ZM85.6367 13.354C87.6347 13.354 89.0747 11.806 89.0747 9.7C89.0747 7.576 87.6347 6.046 85.6367 6.046C83.6207 6.046 82.1807 7.594 82.1807 9.7C82.1807 11.824 83.6207 13.354 85.6367 13.354ZM94.7851 16V3.4H99.8251C103.839 3.4 106.575 6.298 106.575 9.7C106.575 13.102 103.839 16 99.8251 16H94.7851ZM99.8431 6.298H97.9891V13.102H99.8431C101.823 13.102 103.263 11.644 103.263 9.7C103.263 7.738 101.823 6.298 99.8431 6.298ZM108.988 16V3.4H116.764V6.118H112.192V8.224H116.044V10.942H112.192V13.282H116.764V16H108.988Z" fill="white"/>
<rect width="119" height="20" transform="translate(2 20)" fill="#E1000F"/>
<path d="M5.94717 36V23.4H10.9872C15.0012 23.4 17.7372 26.298 17.7372 29.7C17.7372 33.102 15.0012 36 10.9872 36H5.94717ZM11.0052 26.298H9.15117V33.102H11.0052C12.9852 33.102 14.4252 31.644 14.4252 29.7C14.4252 27.738 12.9852 26.298 11.0052 26.298ZM27.2921 31.248V23.4H30.4961V30.942C30.4961 34.29 28.5521 36.36 25.2221 36.36C21.9101 36.36 19.9661 34.29 19.9661 30.942V23.4H23.1701V31.248C23.1701 32.544 23.9081 33.354 25.2401 33.354C26.5541 33.354 27.2921 32.544 27.2921 31.248ZM37.2423 26.298V23.4H47.7903V26.298H44.1183V36H40.9143V26.298H37.2423ZM50.0507 36V23.4H54.2807C57.2327 23.4 59.0507 24.858 59.0507 27.324C59.0507 28.854 58.3487 29.988 57.1067 30.636L60.9767 36H57.1427L54.0107 31.23H53.2547V36H50.0507ZM54.4787 26.118H53.2547V28.512H54.4787C55.2887 28.512 55.7567 28.062 55.7567 27.288C55.7567 26.568 55.2887 26.118 54.4787 26.118ZM61.5611 36L66.1331 23.4H70.3091L74.8811 36H71.4791L70.4531 33.03H65.9891L64.9631 36H61.5611ZM66.9251 30.33H69.5171L68.2211 26.622L66.9251 30.33ZM74.1998 23.4H77.6018L80.8598 32.382L84.1178 23.4H87.5198L82.9478 36H78.7718L74.1998 23.4ZM86.8385 36L91.4105 23.4H95.5865L100.158 36H96.7565L95.7305 33.03H91.2665L90.2405 36H86.8385ZM92.2025 30.33H94.7945L93.4985 26.622L92.2025 30.33ZM102.012 36V23.4H105.216V36H102.012ZM108.709 36V23.4H111.913V33.102H116.485V36H108.709Z" fill="white"/>
<rect x="26.5" y="40.5" width="120" height="24" stroke="#E1000F"/>
<path d="M30.746 59V46.4H34.814L39.332 54.176V46.4H42.536V59H38.468L33.95 51.224V59H30.746ZM52.9874 54.248V46.4H56.1914V53.942C56.1914 57.29 54.2474 59.36 50.9174 59.36C47.6054 59.36 45.6614 57.29 45.6614 53.942V46.4H48.8654V54.248C48.8654 55.544 49.6034 56.354 50.9354 56.354C52.2494 56.354 52.9874 55.544 52.9874 54.248ZM59.328 59V46.4H63.324L65.772 50.72L68.238 46.4H72.234V59H69.03V51.008L66.87 54.68H64.692L62.532 51.008V59H59.328ZM80.9848 45.32H78.0688L80.1028 42.89H83.3428L80.9848 45.32ZM75.7108 59V46.4H83.4868V49.118H78.9148V51.224H82.7668V53.942H78.9148V56.282H83.4868V59H75.7108ZM86.4687 59V46.4H90.6987C93.6507 46.4 95.4687 47.858 95.4687 50.324C95.4687 51.854 94.7667 52.988 93.5247 53.636L97.3947 59H93.5607L90.4287 54.23H89.6727V59H86.4687ZM90.8967 49.118H89.6727V51.512H90.8967C91.7067 51.512 92.1747 51.062 92.1747 50.288C92.1747 49.568 91.7067 49.118 90.8967 49.118ZM98.8964 59V46.4H102.1V59H98.8964ZM116.286 58.298C117.186 59.162 117.978 59.468 118.788 59.468C119.04 59.468 119.418 59.432 119.706 59.324V61.988C119.22 62.186 118.842 62.276 118.212 62.276C116.664 62.276 115.314 61.628 114.072 60.512L112.65 59.234C112.218 59.324 111.75 59.36 111.264 59.36C107.25 59.36 104.514 56.3 104.514 52.7C104.514 49.1 107.25 46.04 111.264 46.04C115.26 46.04 117.996 49.1 117.996 52.7C117.996 54.698 117.15 56.516 115.728 57.758L116.286 58.298ZM111.264 56.354C113.262 56.354 114.702 54.806 114.702 52.7C114.702 50.576 113.262 49.046 111.264 49.046C109.248 49.046 107.808 50.594 107.808 52.7C107.808 54.824 109.248 56.354 111.264 56.354ZM127.554 54.248V46.4H130.758V53.942C130.758 57.29 128.814 59.36 125.484 59.36C122.172 59.36 120.228 57.29 120.228 53.942V46.4H123.432V54.248C123.432 55.544 124.17 56.354 125.502 56.354C126.816 56.354 127.554 55.544 127.554 54.248ZM133.894 59V46.4H141.67V49.118H137.098V51.224H140.95V53.942H137.098V56.282H141.67V59H133.894Z" fill="#E1000F"/>
</svg>
