<svg viewBox="0 0 131 114" fill="none" xmlns="http://www.w3.org/2000/svg">
  <path d="M22.924 17.68c.22-.22.44-.44.64-.68.4-.46.801-.88 1.261-1.28.14-.12.28-.24.42-.32.04-.04.04-.12.08-.16-.18.08-.3.22-.5.3-.04 0-.08-.04-.04-.08.14-.1.28-.2.4-.3h-.02c-.04 0-.04-.04-.04-.08-.5-.08-.86.26-1.2.56-.08.04-.16-.04-.18-.04-.56.18-.98.68-1.541.9v-.08c-.22.08-.44.22-.68.26-.34.08-.64.04-.941.04-.46.04-.92.14-1.38.24-.02 0-.02 0-.04.02-.241.06-.481.16-.701.28l-.08.08c-.08.08-.16.18-.26.22-.24.12-.42.32-.62.5-.02.02-.04.02-.06.02-.201.2-.401.4-.601.58-.02.02-.08.02-.12.02 0-.02.02-.02.02-.04.04-.06.06-.1.1-.16l.12-.18c.06-.08.1-.16.16-.22.02-.02.02-.04 0-.04-.02-.02-.04-.02-.06-.02.18-.18.42-.34.64-.48-.02 0-.06-.02-.04-.04.02-.04.04-.06.06-.1 0-.02 0-.02.02-.04 0-.02-.02-.02-.02-.04l-.18.12c-.1.08-.16.24-.3.24h-.06c-.02 0-.04 0-.04-.02v-.02c0-.02.02-.02.02-.04s.02-.02.02-.04c0 0 0-.02.02-.02 0-.02.02-.04.02-.04 0-.02.02-.02.02-.04.02-.02.04-.06.04-.08 0-.02.02-.02.02-.04.02-.02.02-.04.04-.06.02-.04 0-.06-.02-.06.06-.1.16-.16.26-.22h-.02c.14-.08.3-.16.44-.24l.06-.06c-.22.08-.4.18-.6.3 0 0-.04.02-.06.04 0 0-.04.02-.1-.04v-.02c.04-.08.16-.12.22-.18.04 0 .08 0 .08.04 1.22-.94 2.882-.72 4.283-1.2.12-.08.22-.16.34-.22.18-.08.34-.26.56-.38.3-.22.52-.5.64-.86 0-.04-.04-.08-.04-.08-.5.52-1.06.94-1.66 1.24-.8.42-1.661.34-2.502.46.04-.08.12-.08.18-.08 0-.12.08-.16.16-.22h.12c.04 0 .04-.08.08-.08.08 0 .2-.04.16-.04-.12-.16-.34.12-.52 0 .08-.08.04-.18.12-.22h.16c0-.08.08-.16.08-.16.56-.34 1.101-.6 1.621-.9-.12 0-.18.12-.3.04.08 0 0-.12.08-.12.42-.12.76-.34 1.18-.5-.16 0-.26.12-.42 0 .08-.04.12-.12.22-.12v-.12c0-.04.04-.04.08-.04-.04 0-.08-.04-.08-.04.04-.08.16-.04.22-.12-.04 0-.12 0-.12-.04.12-.16.301-.18.501-.22-.04-.08-.16 0-.16-.08 0-.04.04-.04.08-.04h-.08c-.08-.04-.04-.12-.04-.16.22-.26.22-.6.34-.9-.04 0-.08 0-.08-.04-.38.42-.98.56-1.54.72h-.26c-.181.08-.461.08-.641-.04-.16-.08-.22-.18-.38-.3-.3-.18-.6-.34-.941-.46-.94-.3-1.921-.46-2.902-.42.42-.22.88-.24 1.321-.38.64-.18 1.24-.42 1.921-.38-.12-.04-.26 0-.38 0-.52-.04-1.06.12-1.62.22-.381.08-.721.22-1.102.3-.22.08-.34.3-.6.26V11c.38-.46.84-.9 1.44-.94.681-.12 1.322 0 2.002.08.5.04.94.16 1.44.26.181 0 .221.3.381.34.22.08.46 0 .68.16 0-.08-.04-.16 0-.22.16-.16.34.04.5-.04.301-.18-.26-.52-.42-.8 0-.04.04-.08.04-.08.3.26.52.56.901.76.18.08.64.18.56-.04-.18-.42-.56-.76-.88-1.14v-.16c-.08 0-.08-.04-.12-.08v-.16c-.16-.08-.12-.22-.18-.34-.12-.18-.04-.46-.12-.68-.08-.22-.12-.42-.16-.64-.12-.64-.26-1.2-.34-1.82-.08-.72.42-1.28.76-1.92.26-.46.56-.9 1.06-1.2.12-.46.42-.84.72-1.2.301-.36.801-.6 1.162-.76.52-.24 1-.38 1-.38H.011v20h18.55c.721-.52 1.442-.76 2.442-1.26.48-.2 1.561-.7 1.921-1.06zm-5.803-2.72c-.08 0-.22.04-.18-.04.04-.18.3-.18.46-.26.08-.04.18-.12.26-.08.08.12.18.08.26.16-.24.22-.54.12-.8.22zm-5.803-.82s-.04-.04-.04-.08c.5-.64.86-1.24 1.22-1.92.5-.26.9-.64 1.281-1.06.64-.68 1.32-1.28 2.121-1.66.3-.12.68-.08.98.04-.12.16-.3.12-.46.22-.04 0-.08 0-.12-.04.04-.04.04-.08.04-.12-.38.42-.9.6-1.2 1.1-.22.38-.38.86-.86.98-.16.04.04-.12-.04-.08-1.181.72-2.002 1.6-2.922 2.62zm3.141-2.5c-.04.08-.08.08-.12.16-.04.08-.08.12-.16.16-.04 0-.08 0-.08-.04.04-.16.16-.3.3-.34.06-.02.06.02.06.06zm1.761 5.66c-.02.04-.06.08-.1.12.04 0 .08.04.04.06-.08.08-.18.16-.28.2h-.06c-.04.04-.1.08-.14.14-.04.04-.26.02-.2-.04.1-.08.18-.18.28-.26.06-.04.12-.1.16-.16.02-.04.04-.06.08-.08.06-.04.26-.06.22.02zm-.68-.3c-.16.1-.3.2-.44.3-.16.1-.34.16-.5.24-.02-.02-.04-.02-.06-.02-.14.08-.26.18-.38.3l-.06.06-.06.06-.08.08c-.02.02-.02.04-.06.06-.02.02-.08.02-.08-.02-.02.02-.041.02-.061.04-.02.02-.04.02-.06.04h-.04c-.04.04-.1.08-.14.12-.08.08-.16.14-.22.24v.02l-.02.02s0 .02-.02.02c0 .02-.02.02-.02.04 0 0-.02.02-.04.02l-.02-.02s0-.02-.02-.02c-.02-.02-.02-.04-.04-.06v-.02c.04-.04.08-.08.12-.14.02-.02.02-.04.04-.04.02-.02.04-.06.06-.08 0-.02.02-.02.02-.04.04-.06.08-.1.12-.16l.02-.02c.02-.02.04-.06.06-.08.02-.02.02-.04.04-.08v-.02c.02-.04.02-.06.04-.08v-.02c0-.02 0-.02.02-.04 0-.02 0-.04.02-.06v-.02c.04-.08.1-.14.16-.2h-.02c-.06.04-.1.08-.14.12-.04.04-.12-.02-.06-.06.04-.02.06-.06.08-.08.06-.06.12-.14.2-.2.04-.04.08-.06.12-.08l.02-.02c.02-.04.06-.06.08-.1.36-.34.98-.34 1.441-.56.18-.08.42.04.6 0 .12 0 .22 0 .34.08-.34.06-.64.28-.96.48zm.78-2.64c-.04-.04.12 0 .16-.08h-.3c-.04 0-.04-.04-.04-.08-.18.04-.42.12-.6.16-.26.08-.5.26-.8.34-.42.16-.76.5-1.201.64-.04 0-.04-.04-.04-.08.04-.12.18-.16.26-.26 0-.04 0-.08-.04-.08.3-.42.72-.64 1.1-.98v-.12c.12-.16.3-.22.38-.42.04-.12.201-.26.381-.34-.04-.04-.12-.04-.12-.12-.16 0-.3.08-.46-.04.08-.06.16-.1.24-.14-.04 0-.06-.02-.08-.06-.04-.08.08-.16.18-.18.16-.04.34-.04.46-.16-.26-.04-.56.08-.84-.08.18-.5.5-.9.94-1.14.04 0 .12 0 .12.04 0 .18-.12.34-.3.38.3.08.6.08.9.22-.04.08-.12.04-.16.04.18.12.42.04.6.18-.12.12-.22 0-.34 0 1.181.34 2.422.6 3.403 1.36-.84.42-1.701.6-2.602.8-.12 0-.18 0-.3-.04 0 .04 0 .12-.04.12-.16 0-.26 0-.38.08-.14.12-.36.16-.48.04z" fill="#000091"/>
  <path d="M55.143 0H33.65s.04 0 .2.1c.18.1.4.22.54.28.28.14.54.32.72.6.08.12.18.34.12.5-.08.18-.12.5-.3.56-.22.12-.52.12-.8.08-.16 0-.3-.04-.46-.08.56.22 1.1.5 1.48 1.02.04.08.18.12.34.12.04 0 .04.08.04.12-.08.08-.16.12-.12.22h.12c.18-.08.16-.46.421-.34.18.12.26.38.16.56-.16.16-.3.26-.46.38-.04.08-.04.18 0 .26.12.16.16.3.18.46.12.26.16.56.26.84.16.56.3 1.14.26 1.7 0 .3-.16.56-.04.86.08.3.26.52.42.8.16.22.3.38.42.6.22.38.641.76.46 1.2-.12.26-.52.22-.8.38-.22.18-.04.5.08.68.18.34-.22.56-.5.66.08.12.22.08.26.16.04.18.22.3.12.5-.16.22-.6.34-.38.68.16.26.06.56-.04.84-.12.3-.38.5-.68.56-.22.08-.5.08-.72.04a.594.594 0 00-.22-.08c-.641-.08-1.281-.26-1.922-.26-.18.04-.38.08-.52.14-.16.12-.32.26-.46.4-.02.04-.06.06-.08.1-.02.02-.04.04-.04.06l-.04.04c-.12.14-.2.28-.3.44 0 .02-.02.02-.02.02 0 .02-.02.04-.04.06-.12.22-.22.46-.28.7-.26.86-.14 1.6.04 1.78.04.04 1.24.42 2.08.8.4.18.66.3.9.46h21.113V0h-.02z" fill="#E1000F"/>
  <path d="M34.931 7.32c.16.04.38.04.38.12-.08.3-.52.38-.76.68h-.12c-.12.08-.08.26-.18.26-.12-.04-.22 0-.34.04.16.16.34.26.56.22.04 0 .12.08.12.16 0 0 .04 0 .08-.04.04 0 .08 0 .08.04v.16c-.12.16-.3.08-.46.12.3.08.6.08.88 0 .22-.08 0-.46.16-.64-.08 0 0-.12-.08-.12.08-.08.16-.18.22-.22.08 0 .18-.04.22-.12 0-.08-.16-.12-.12-.18.22-.16.42-.38.34-.6-.04-.12-.34-.12-.52-.2-.18-.08-.42 0-.64.04-.18 0-.38.12-.56.16-.26.08-.5.22-.72.38.26-.12.52-.16.82-.22.22-.04.4-.08.64-.04z" fill="gray"/>
  <path d="M.011 45V30h4.563c1.654 0 2.948.4 3.882 1.2.947.8 1.428 1.893 1.44 3.28 0 .893-.206 1.667-.62 2.32-.413.667-1 1.187-1.76 1.56L12.197 45H8.576l-3.982-6.06H3.053V45H.011zm3.042-8.64h1.7c.641 0 1.135-.167 1.482-.5.36-.333.54-.807.54-1.42 0-.573-.18-1.027-.54-1.36-.36-.333-.854-.493-1.481-.48H3.053v3.76zM14.319 45V30h8.705v2.6h-5.683v3.46h4.823v2.6H17.34v3.74h5.683V45H14.32zm2.942-16.28l2.401-2.9h3.122l-2.761 2.9H17.26zM26.726 45V30h4.943c1.641 0 2.928.4 3.862 1.2.948.8 1.421 1.893 1.421 3.28 0 1.387-.473 2.473-1.42 3.26-.948.8-2.235 1.2-3.863 1.2h-1.9V45h-3.043zm3.042-8.64h2.021c.654 0 1.16-.173 1.521-.52.36-.333.54-.8.54-1.4 0-.573-.186-1.027-.56-1.36-.36-.333-.86-.493-1.5-.48h-2.022v3.76zm9.626 2.78V30h3.041v9.38c0 1 .267 1.787.8 2.36.534.56 1.275.84 2.222.84.934 0 1.668-.28 2.201-.84.534-.56.8-1.347.8-2.36V30h3.043v9.14c0 1.973-.54 3.513-1.621 4.62-1.081 1.107-2.562 1.66-4.443 1.66-1.868 0-3.342-.553-4.422-1.66-1.081-1.12-1.621-2.66-1.621-4.62zM55.463 45V30h4.242c1.561 0 2.782.36 3.662 1.08.894.72 1.341 1.72 1.341 3 0 1.24-.527 2.227-1.58 2.96.786.36 1.393.84 1.82 1.44.427.613.64 1.313.64 2.1 0 1.373-.5 2.453-1.5 3.24-.988.787-2.342 1.18-4.063 1.18h-4.562zm3.021-2.6h1.721c.708 0 1.261-.173 1.661-.52.4-.36.6-.847.6-1.46s-.2-1.093-.6-1.44c-.4-.333-.953-.5-1.66-.5h-1.722v3.92zm0-6.52h1.281c.574 0 1.02-.147 1.34-.44.321-.28.481-.687.481-1.22 0-.507-.16-.9-.48-1.18-.307-.293-.754-.44-1.34-.44h-1.282v3.28zM68.89 45V30h3.022v12.24h5.683V45H68.89zm11.587 0V30h3.022v15h-3.022zm6.724-4.44a8.208 8.208 0 01-.58-3.06c0-1.067.193-2.08.58-3.04.387-.973.92-1.82 1.6-2.54a7.691 7.691 0 012.522-1.72c1-.427 2.075-.64 3.222-.64 1.147 0 2.221.213 3.222.64 1 .427 1.84 1 2.521 1.72a7.9 7.9 0 011.601 2.54c.387.96.58 1.973.58 3.04 0 1.253-.26 2.427-.78 3.52a7.657 7.657 0 01-2.161 2.74l.9.86c1.054.96 2.095 1.433 3.122 1.42.427 0 .787-.053 1.081-.16v2.58c-.467.187-.994.273-1.581.26-1.615 0-3.169-.653-4.663-1.96l-1.78-1.6c-.655.173-1.342.26-2.062.26a8.126 8.126 0 01-3.222-.64c-.987-.427-1.828-.993-2.521-1.7a7.962 7.962 0 01-1.601-2.52zm3.902-6.68c-.907.973-1.367 2.18-1.38 3.62 0 1.44.46 2.647 1.38 3.62.907.973 2.061 1.46 3.462 1.46.92 0 1.74-.22 2.461-.66a4.583 4.583 0 001.721-1.84c.414-.773.62-1.633.62-2.58 0-1.44-.46-2.647-1.38-3.62-.907-.973-2.055-1.46-3.442-1.46-1.4 0-2.555.487-3.462 1.46h.02zm14.208 5.26V30h3.042v9.38c0 1 .267 1.787.8 2.36.534.56 1.274.84 2.221.84.934 0 1.668-.28 2.202-.84.533-.56.8-1.347.8-2.36V30h3.042v9.14c0 1.973-.54 3.513-1.621 4.62-1.081 1.12-2.561 1.673-4.443 1.66-1.867 0-3.341-.553-4.422-1.66-1.081-1.12-1.621-2.66-1.621-4.62zM121.38 45V30h8.705v2.6h-5.683v3.46h4.823v2.6h-4.823v3.74h5.683V45h-8.705zM.011 66.7v-15h8.705v2.6H3.053v3.46h4.823v2.6H3.053v6.34H.011zm11.587 0v-15h4.562c1.641 0 2.942.4 3.903 1.2.947.8 1.42 1.893 1.42 3.28 0 .893-.206 1.673-.62 2.34-.413.667-1 1.18-1.76 1.54l4.682 6.64h-3.622l-3.983-6.06h-1.54v6.06h-3.042zm3.041-8.64h1.701c.64 0 1.141-.167 1.501-.5.36-.333.534-.807.52-1.42 0-.573-.173-1.027-.52-1.36-.347-.333-.847-.493-1.5-.48h-1.702v3.76zm10.006 8.64l5.663-15h3.963l5.663 15h-3.222l-1.44-3.9h-5.984l-1.421 3.9h-3.222zm5.583-6.5h4.123l-2.061-5.62-2.062 5.62zm12.227 6.5v-15h3.883l6.683 10.74V51.7h3.022v15h-3.882l-6.684-10.78V66.7h-3.022zm16.73-7.5c0-1.067.193-2.08.58-3.04.387-.973.92-1.82 1.601-2.54a7.444 7.444 0 012.522-1.7c1-.427 2.08-.64 3.241-.64 1.321 0 2.522.267 3.602.8a7.326 7.326 0 012.682 2.24l-2.382 1.86a4.972 4.972 0 00-1.66-1.5c-.667-.373-1.414-.56-2.242-.56-1.4 0-2.555.487-3.462 1.46s-1.367 2.18-1.38 3.62c0 1.44.46 2.653 1.38 3.64.907.973 2.061 1.453 3.462 1.44.828 0 1.575-.18 2.242-.54a4.894 4.894 0 001.66-1.52l2.382 1.84a7.192 7.192 0 01-2.201 2c-.88.52-1.855.847-2.922.98l-1.861 3.12h-2.682L65.63 67a7.795 7.795 0 01-3.382-1.46 7.553 7.553 0 01-2.282-2.78 7.893 7.893 0 01-.78-3.56zm15.108 7.5l5.664-15h3.962l5.663 15H86.36l-1.42-3.9h-5.984l-1.44 3.9h-3.223zm5.604-6.5h4.102l-2.061-5.62-2.041 5.62zm12.206 6.5v-15h3.042v15h-3.041zm6.084-2.08l2.201-2.02c.454.587.961 1.04 1.521 1.36a3.61 3.61 0 001.781.48c.6 0 1.067-.153 1.401-.46.347-.307.52-.733.52-1.28 0-.32-.093-.613-.28-.88-.2-.267-.46-.487-.78-.66a12.04 12.04 0 00-1.101-.56c-.414-.2-.834-.393-1.261-.58a8.035 8.035 0 01-1.24-.68 6.621 6.621 0 01-1.101-.88c-.32-.32-.58-.727-.78-1.22-.2-.493-.3-1.033-.3-1.62 0-1.213.453-2.24 1.36-3.08.907-.84 2.055-1.26 3.442-1.26 2.081 0 3.822.84 5.223 2.52l-2.221 2c-.961-1.253-1.955-1.88-2.982-1.88-.507 0-.927.153-1.261.46-.333.307-.493.68-.48 1.12 0 .28.08.54.24.78.16.227.367.433.621.62.266.173.573.347.92.52l1.061.5c.387.173.767.347 1.14.52.387.187.747.413 1.081.68.347.253.654.547.92.88.267.32.474.7.621 1.14.16.453.24.953.24 1.5-.027 1.36-.514 2.447-1.461 3.26-.934.813-2.101 1.22-3.502 1.22-1.227 0-2.288-.207-3.182-.62-.894-.427-1.68-1.053-2.361-1.88zm13.888 2.08v-15h8.705v2.6h-5.663v3.46h4.822v2.6h-4.822v3.74h5.663v2.6h-8.705zM49.72 107.82c.44 0 .82.34.62 1.12l-2.021.54c.32-.96.92-1.66 1.4-1.66zm1.12 3.28h-.4c-.5.6-1.06 1.08-1.601 1.08-.56 0-.84-.34-.84-1.08 0-.3.04-.62.1-.9l3.281-1.08c.64-1.52-.14-2.18-1.04-2.18-1.561 0-3.322 2.72-3.322 4.86 0 1.02.48 1.58 1.24 1.58.901 0 1.822-.86 2.582-2.28zm-.52-4.88l1.86-1.7v-.24h-1.24l-1.1 1.96h.48v-.02zm-6.984 1.64h1.08l-1.72 4.72c-.16.4.06.8.48.8 1.22 0 2.681-1.04 3.242-2.52h-.3c-.44.62-1.401 1.3-2.122 1.44l1.581-4.44h1.621l.2-.68h-1.58l.6-1.7h-.62l-1.121 1.7-1.341.18v.5zm-1.12-.24c.14-.44-.16-.68-.381-.68-.94 0-2.081.86-2.522 2.04h.3c.3-.44.821-.92 1.321-1l-1.82 4.72c-.16.44.16.68.4.68.9 0 1.96-.86 2.401-2.04h-.3c-.3.44-.82.92-1.32 1l1.92-4.72zm.18-1.88c.4 0 .74-.34.74-.74 0-.4-.34-.74-.74-.74-.2 0-.38.08-.521.22-.14.14-.22.32-.22.52 0 .42.32.74.74.74zm-8.786 2.52c.28 0 .44.44 0 1.42l-1.28 2.84c-.24.54.02.88.54.88.32 0 .46-.08.6-.42l1.26-3.32c.581-.72 1.662-1.48 2.142-1.48.34 0 .3.28.08.72l-1.94 3.7c-.181.36.06.8.48.8.94 0 2.08-.86 2.52-2.04h-.34c-.3.44-.82.92-1.32 1l1.66-3.36c.22-.42.321-.82.321-1.14 0-.54-.3-.9-.88-.9-.821 0-1.521.92-2.522 2.06v-.88c0-.62-.2-1.18-.76-1.18-.66 0-1.261 1.04-1.741 2.04h.3c.34-.48.64-.74.88-.74zm-1.3.12c.22-.78.1-1.44-.48-1.44-.741 0-.981.5-1.702 2.06v-.88c0-.62-.2-1.18-.76-1.18-.66 0-1.26 1.04-1.741 2.04h.3c.32-.46.62-.74.86-.74.28 0 .44.44 0 1.42l-1.28 2.84c-.24.54.02.88.54.88.32 0 .46-.08.6-.42l1.221-3.32c.36-.44.68-.82 1.08-1.24h1.362v-.02zm-6.984-.56c.44 0 .82.34.62 1.12l-2.021.54c.34-.96.92-1.66 1.4-1.66zm1.12 3.28h-.4c-.5.6-1.06 1.08-1.6 1.08-.561 0-.841-.34-.841-1.08 0-.3.04-.62.1-.9l3.282-1.08c.64-1.52-.12-2.18-1.041-2.18-1.56 0-3.322 2.72-3.322 4.86 0 1.02.48 1.58 1.24 1.58.901 0 1.822-.86 2.582-2.28zm-7.504-3.24h1.08l-1.72 4.72c-.16.4.06.8.48.8 1.22 0 2.701-1.04 3.242-2.52h-.3c-.44.62-1.401 1.3-2.122 1.44l1.581-4.44h1.621l.2-.68h-1.58l.6-1.7h-.62l-1.121 1.7-1.341.18v.5zm-5.743 3.68c0-1.46 1.62-3.44 2.541-3.44.2 0 .4.02.56.08l-.94 2.52c-.54.66-1.38 1.46-1.781 1.46-.24 0-.38-.18-.38-.62zm4.982-4.88l-.5-.04-.56.56h-.1c-2.382 0-4.943 2.96-4.943 5.3 0 .54.3.9.88.9.701 0 1.381-1 2.162-2.06l-.04.38c-.1 1.08.24 1.68.8 1.68.66 0 1.26-1.04 1.721-2.04h-.3c-.32.46-.62.74-.86.74s-.42-.46 0-1.42l1.74-4zm-5.102 1.72c.22-.78.1-1.44-.48-1.44-.741 0-.981.5-1.702 2.06v-.88c0-.62-.2-1.18-.78-1.18-.66 0-1.26 1.04-1.721 2.04h.3c.32-.46.62-.74.86-.74.28 0 .44.44 0 1.42l-1.3 2.86c-.24.54.02.88.54.88.32 0 .46-.08.6-.42l1.261-3.34c.36-.44.68-.82 1.08-1.24h1.342v-.02zm-8.385 4.78l.12-.36c-1.58-.3-1.781-.3-1.14-2.02l.6-1.62h1.26c.78 0 .8.34.68 1.2h.461l1.04-2.86h-.46c-.4.68-.7 1.2-1.56 1.2H4.433l.86-2.34c.3-.84.44-1 1.521-1h.28c1.1 0 1.241.3 1.241 1.46h.44l.36-1.94H3.033l-.12.36c1.26.26 1.38.38.8 2.02l-1.3 3.54c-.6 1.62-.84 1.76-2.302 2.02l-.1.36h4.683v-.02zM34.97 94.04c.44 0 .82.34.62 1.12l-2.02.54c.32-.96.92-1.66 1.4-1.66zm1.12 3.28h-.4c-.5.6-1.06 1.08-1.6 1.08-.56 0-.84-.34-.84-1.08 0-.3.04-.62.1-.9l3.281-1.08c.64-1.52-.14-2.18-1.04-2.18-1.561 0-3.322 2.72-3.322 4.86 0 1.02.48 1.58 1.24 1.58.9.02 1.821-.86 2.582-2.28zm-.52-4.88l1.861-1.7v-.24h-1.24l-1.1 1.96h.48v-.02zm-6.984 1.64h1.081l-1.72 4.72c-.161.4.06.8.48.8 1.22 0 2.68-1.04 3.241-2.52h-.3c-.44.62-1.4 1.3-2.121 1.44l1.58-4.44h1.622l.2-.68h-1.581l.6-1.7h-.62l-1.12 1.7-1.342.2v.48zm-1.12-.22c.14-.44-.16-.68-.4-.68-.941 0-2.082.86-2.522 2.04h.3c.3-.44.82-.92 1.321-1l-1.821 4.72c-.16.44.16.68.4.68.9 0 1.961-.86 2.402-2.04h-.3c-.3.44-.821.92-1.321 1l1.94-4.72zm.18-1.88c.4 0 .74-.34.74-.74 0-.4-.34-.74-.74-.74-.26 0-.5.14-.64.36a.74.74 0 000 .76c.14.22.38.38.64.36zm-5.803 6.6l3.001-7.96-.1-.14-2.08.24v.24l.4.3c.36.28.24.54-.08 1.44l-2.282 6.08c-.2.36.06.8.48.8.94 0 1.961-.86 2.402-2.04h-.3c-.32.46-.961.94-1.441 1.04zm-6.124-.82c0-1.46 1.621-3.44 2.542-3.44.2 0 .38.02.56.08l-.96 2.52c-.54.66-1.381 1.46-1.782 1.46-.22.02-.36-.18-.36-.62zm4.983-4.86l-.5-.04-.56.56h-.1c-2.382 0-4.943 2.96-4.943 5.3 0 .54.3.9.88.9.7 0 1.38-1 2.161-2.06l-.04.38c-.1 1.08.24 1.68.8 1.68.661 0 1.261-1.04 1.722-2.04h-.3c-.32.46-.62.74-.861.74-.24 0-.42-.46 0-1.4l1.741-4.02zm-11.587 7.86c0-.62.6-1.02 1.461-1.36.28.14.72.3 1.281.48.9.3 1.24.42 1.24.68 0 .58-.82 1.02-2.32 1.02-1.121.02-1.662-.22-1.662-.82zm2.462-3.82c-.4 0-.54-.34-.54-.72 0-1.18.56-2.6 1.46-2.6.4 0 .54.34.54.72 0 1.16-.58 2.6-1.46 2.6zm2.561 3.24c0-.76-.68-1.04-1.78-1.36-.941-.28-1.382-.36-1.382-.68 0-.24.2-.54.6-.76 1.562-.08 2.542-1.48 2.542-2.72 0-.22-.04-.42-.1-.6h1.06l.2-.68h-1.8c-.24-.16-.54-.24-.88-.24-1.642 0-2.702 1.44-2.702 2.72 0 .82.48 1.38 1.24 1.48-.76.36-1.2.74-1.2 1.22 0 .28.1.48.34.66-1.76.52-2.481 1.18-2.481 1.94 0 .82 1.08 1.16 2.361 1.16 2.161.02 3.982-1.16 3.982-2.14zm-8.164-4.8c.78 0 .8.34.68 1.2h.46l1.04-2.86h-.46c-.4.68-.7 1.2-1.56 1.2H4.394l.86-2.34c.3-.84.46-1 1.521-1h.76c1.101 0 1.241.3 1.241 1.46h.44l.36-1.94H3.034l-.12.36c1.26.26 1.38.38.8 2.02l-1.3 3.54c-.6 1.62-.84 1.76-2.302 2.02l-.1.36h7.284l1.301-2.06h-.5c-.84.84-1.701 1.58-3.322 1.58-1.941 0-1.761-.1-1.12-1.9l.6-1.62h1.72v-.02zm.94-4.88l1.861-1.36v-.24h-1.24l-1.101 1.6h.48zm27.816-10.22c.44 0 .82.34.62 1.12l-2.02.54c.32-.98.92-1.66 1.4-1.66zm1.12 3.28h-.4c-.5.6-1.06 1.08-1.6 1.08-.56 0-.841-.34-.841-1.08 0-.3.04-.62.1-.9l3.282-1.08c.64-1.52-.14-2.18-1.04-2.18-1.562 0-3.323 2.72-3.323 4.86 0 1.02.48 1.58 1.241 1.58.9 0 1.821-.86 2.582-2.28zm-.52-4.88l1.861-1.7v-.24h-1.24L34.85 78.7h.48v-.02zm-6.984 1.62h1.1l-1.72 4.72c-.16.4.06.8.48.8 1.22 0 2.702-1.04 3.242-2.52h-.3c-.44.62-1.4 1.3-2.121 1.44l1.58-4.44h1.622l.2-.68h-1.581l.6-1.7h-.62l-1.12 1.7-1.342.18v.5h-.02zm-.56.54c.22-.78.1-1.44-.48-1.44-.74 0-.98.5-1.701 2.06v-.88c0-.62-.2-1.18-.76-1.18-.661 0-1.261 1.04-1.742 2.04h.3c.32-.46.62-.74.861-.74.28 0 .44.44 0 1.42l-1.28 2.84c-.24.54.02.88.54.88.32 0 .46-.08.6-.42l1.26-3.32c.36-.44.681-.82 1.081-1.24h1.321v-.02zm-6.984-.56c.44 0 .82.34.62 1.12l-2.02.54c.32-.98.92-1.66 1.4-1.66zm1.12 3.28h-.4c-.5.6-1.06 1.08-1.6 1.08-.56 0-.84-.34-.84-1.08 0-.3.04-.62.1-.9l3.281-1.08c.64-1.52-.12-2.18-1.04-2.18-1.561 0-3.322 2.72-3.322 4.86 0 1.02.48 1.58 1.24 1.58.9 0 1.821-.86 2.582-2.28zm-7.644 1.32c-.32 0-.78-.3-.78-.56 0-.08.14-.46.32-.92l.52-1.4c.56-.68 1.441-1.42 1.941-1.42.3 0 .52.2.52.62-.02 1.32-1.22 3.68-2.52 3.68zm3.642-4.18c0-.96-.24-1.32-.92-1.32-.84 0-1.621.9-2.422 1.98l1.681-4.52-.1-.14-2.08.24v.24l.4.3c.36.28.24.56-.08 1.44l-1.822 4.78c-.16.4-.34.88-.34 1 0 .56.76 1.1 1.461 1.1 1.58.04 4.222-2.86 4.222-5.1zm-6.143-.62c.12-.44-.16-.68-.4-.68-.94 0-2.082.86-2.522 2.04h.3c.3-.44.82-.92 1.321-1l-1.82 4.72c-.16.44.16.68.4.68.9 0 1.96-.86 2.4-2.04h-.3c-.3.44-.82.92-1.32 1l1.94-4.72zm.2-1.88c.4 0 .74-.34.74-.74 0-.4-.34-.74-.74-.74-.26 0-.5.14-.64.36a.74.74 0 000 .76c.14.22.38.38.64.36zm-4.623-.9H3.033l-.12.36c1.26.26 1.38.38.8 2.02l-1.3 3.54c-.6 1.62-.84 1.76-2.302 2.02l-.1.36h6.564l1.42-2.54h-.5c-.82.9-1.76 2.04-3.221 2.04-1.101 0-1.261-.2-.64-1.9l1.3-3.54c.6-1.62.84-1.76 2.301-2.02l.12-.34z" fill="#000"/>
</svg>
