<svg fill="none" xmlns="http://www.w3.org/2000/svg" viewBox="0 0 102 100"><g clip-path="url(#clip0)"><path fill-rule="evenodd" clip-rule="evenodd" d="M.291 99.709h101.38V63.45H.291V99.71z" fill="#FFFFFE"/><path d="M101.671 63.451V99.71H.291V63.45" stroke="#1A1919"/><path fill-rule="evenodd" clip-rule="evenodd" d="M16.52 83.88l-1.64-3.564v2.83c0 .26.028.422.085.487.077.088.199.13.366.13h.15v.116h-1.477v-.116h.15c.179 0 .306-.054.382-.162.046-.067.069-.218.069-.456V80.38c0-.188-.021-.323-.063-.406a.347.347 0 00-.161-.151c-.079-.042-.204-.061-.377-.061v-.116h1.201l1.54 3.313 1.516-3.313h1.202v.116h-.147c-.182 0-.31.054-.385.162-.046.067-.069.218-.069.456v2.766c0 .26.03.423.088.488.077.088.199.13.366.13h.147v.116H17.66v-.116h.15c.182 0 .31-.054.382-.162.046-.067.07-.218.07-.456v-2.83l-1.639 3.564h-.103zm5.12-.117v.116h-1.818v-.116h.15c.175 0 .302-.05.382-.152.05-.067.075-.227.075-.481v-2.736c0-.214-.014-.356-.04-.424a.282.282 0 00-.13-.134.596.596 0 00-.287-.075h-.15v-.116h1.818v.116h-.153c-.173 0-.3.05-.379.153-.052.066-.078.227-.078.48v2.736c0 .214.013.356.04.425a.28.28 0 00.132.133c.09.05.185.075.285.075h.153zm.136-4.118h1.152l2.596 3.176V80.38c0-.26-.03-.423-.088-.488-.077-.087-.2-.13-.366-.13h-.147v-.116H26.4v.116h-.15c-.18 0-.307.054-.382.162-.046.067-.069.218-.069.456v3.569h-.113l-2.798-3.41v2.608c0 .26.028.422.084.487.08.088.202.13.367.13h.15v.116h-1.478v-.116h.147c.182 0 .31-.054.386-.162.046-.067.068-.218.068-.456v-2.944a1.908 1.908 0 00-.28-.285 1.037 1.037 0 00-.28-.127 1.002 1.002 0 00-.276-.028v-.116zm6.758 4.118v.116h-1.819v-.116h.15c.176 0 .303-.05.382-.152.05-.067.075-.227.075-.481v-2.736c0-.214-.013-.356-.04-.424a.282.282 0 00-.129-.134.595.595 0 00-.288-.075h-.15v-.116h1.82v.116h-.155c-.173 0-.3.05-.379.153-.051.066-.078.227-.078.48v2.736c0 .214.014.356.041.425a.28.28 0 00.132.133c.089.05.185.075.284.075h.154zm3.16-4.215v1.465h-.116c-.037-.282-.104-.505-.202-.672a1.046 1.046 0 00-.414-.396 1.153 1.153 0 00-.557-.147.759.759 0 00-.539.198.603.603 0 00-.213.452c0 .129.045.246.134.352.13.157.438.365.924.625.397.212.668.375.812.489.145.114.257.247.335.4a1.095 1.095 0 01-.256 1.313c-.25.233-.57.349-.963.349-.123 0-.24-.009-.348-.028a3.407 3.407 0 01-.402-.114c-.203-.065-.332-.098-.386-.098a.163.163 0 00-.124.047c-.03.03-.053.095-.067.193h-.116v-1.452h.116c.054.304.127.531.219.683.092.15.232.276.42.376.19.1.397.15.623.15.26 0 .466-.07.617-.207a.638.638 0 00.228-.487.66.66 0 00-.087-.315.943.943 0 00-.267-.297 7.8 7.8 0 00-.667-.398 6.438 6.438 0 01-.775-.485 1.31 1.31 0 01-.349-.4 1.042 1.042 0 01.231-1.266c.235-.22.532-.33.893-.33a1.8 1.8 0 01.717.165.73.73 0 00.247.078.185.185 0 00.133-.048c.034-.032.062-.097.083-.195h.116zm4.4.097l.047.993h-.119a1.228 1.228 0 00-.094-.375.63.63 0 00-.258-.267.909.909 0 00-.424-.085h-.598v3.234c0 .26.028.423.084.488.08.088.202.13.366.13h.148v.116h-1.8v-.116h.15c.18 0 .307-.054.382-.162.045-.067.069-.218.069-.456v-3.234h-.51c-.199 0-.34.014-.423.043a.581.581 0 00-.279.228.923.923 0 00-.138.456h-.118l.05-.993h3.465zm1.542-1.377h.698l.332 1.077h-.11l-.92-1.077zm.069 1.608v1.674h.932c.242 0 .404-.037.486-.11.108-.095.169-.264.182-.505h.115v1.474h-.115c-.03-.207-.06-.339-.088-.397a.395.395 0 00-.185-.172c-.086-.042-.217-.063-.395-.063h-.932v1.396c0 .188.008.302.025.342a.193.193 0 00.087.097.535.535 0 00.238.036h.72c.24 0 .414-.016.523-.05a.783.783 0 00.313-.197c.13-.129.262-.323.398-.583h.125l-.366 1.061h-3.271v-.116h.15c.1 0 .195-.023.284-.071a.267.267 0 00.137-.15c.024-.066.036-.204.036-.409v-2.75c0-.27-.027-.435-.082-.497-.075-.084-.2-.125-.375-.125h-.15v-.116h3.27l.048.928h-.122c-.044-.223-.093-.376-.146-.46a.5.5 0 00-.236-.19c-.084-.032-.231-.047-.442-.047h-1.164zm3.958 1.826a2.625 2.625 0 01.176.004c.404 0 .71-.087.915-.262a.838.838 0 00.309-.669.87.87 0 00-.25-.645c-.166-.165-.385-.248-.658-.248-.121 0-.285.02-.492.06v1.76zm3.015 2.177h-1.133l-1.437-1.98a7.353 7.353 0 01-.348.005l-.097-.004v1.23c0 .266.03.432.088.496.08.092.198.137.357.137h.166v.116h-1.82v-.116h.16c.18 0 .308-.058.386-.175.043-.063.066-.217.066-.458v-2.736c0-.266-.03-.432-.088-.496-.082-.092-.203-.137-.364-.137h-.16v-.116h1.547c.451 0 .783.033.997.098.214.066.396.186.545.362.15.176.224.386.224.63 0 .26-.085.486-.255.677-.17.192-.434.328-.79.406l.876 1.215c.2.28.373.464.517.555.143.092.331.15.563.175v.116zm1.348-4.003v1.674h.932c.243 0 .404-.037.486-.11.108-.095.169-.264.181-.505h.116v1.474h-.116c-.03-.207-.058-.339-.087-.397a.395.395 0 00-.185-.172c-.086-.042-.217-.063-.395-.063h-.932v1.396c0 .188.008.302.025.342a.193.193 0 00.087.097.534.534 0 00.238.036h.72c.24 0 .415-.016.523-.05a.782.782 0 00.313-.197c.13-.129.262-.323.398-.583h.125l-.367 1.061h-3.27v-.116h.15c.1 0 .194-.023.284-.071a.266.266 0 00.137-.15c.023-.066.036-.204.036-.409v-2.75c0-.27-.028-.435-.082-.497-.075-.084-.2-.125-.376-.125h-.15v-.116h3.271l.048.928h-.123c-.044-.223-.092-.376-.145-.46a.497.497 0 00-.236-.19c-.084-.032-.23-.047-.442-.047h-1.164zm5.628 3.697c.265.059.488.088.667.088.485 0 .886-.17 1.206-.51.319-.339.478-.8.478-1.38 0-.585-.16-1.046-.479-1.383-.319-.337-.73-.506-1.23-.506-.188 0-.402.03-.642.09v3.601zm-1.211.306v-.116h.16c.179 0 .306-.056.382-.171.045-.069.068-.223.068-.462v-2.736c0-.264-.03-.43-.088-.496-.08-.092-.202-.137-.363-.137h-.16v-.116h1.729c.635 0 1.117.071 1.448.216.33.143.597.382.798.717.201.336.302.723.302 1.162 0 .59-.18 1.082-.538 1.478-.403.44-1.017.661-1.841.661h-1.897zm7.643-4.118v-.116h1.502v.116h-.159a.431.431 0 00-.385.209c-.044.064-.066.214-.066.45v1.717c0 .425-.042.754-.127.988-.084.234-.25.435-.497.603-.248.168-.584.251-1.01.251-.463 0-.815-.08-1.055-.24-.24-.16-.41-.376-.51-.646-.067-.186-.1-.534-.1-1.043v-1.656c0-.26-.036-.43-.108-.512-.072-.08-.189-.121-.35-.121h-.16v-.116h1.835v.116h-.163c-.175 0-.3.055-.376.165-.05.075-.077.231-.077.468v1.846c0 .164.015.353.045.565.03.213.085.378.164.496.08.12.194.217.344.294.149.077.332.116.549.116.278 0 .526-.06.745-.181.22-.121.368-.276.449-.464.08-.189.12-.507.12-.957v-1.715c0-.264-.029-.43-.087-.496-.082-.092-.203-.137-.363-.137h-.16zm6.897-.116l.046.993h-.119a1.193 1.193 0 00-.094-.375.627.627 0 00-.257-.267.91.91 0 00-.425-.085h-.598v3.234c0 .26.029.423.084.488.08.088.202.13.367.13h.147v.116h-1.8v-.116h.15c.18 0 .307-.054.382-.162.046-.067.07-.218.07-.456v-3.234h-.512c-.197 0-.338.014-.422.043a.583.583 0 00-.279.228.936.936 0 00-.137.456h-.12l.05-.993h3.467zm1.588 2.058a2.572 2.572 0 01.176.003c.404 0 .71-.087.915-.262a.84.84 0 00.308-.669.868.868 0 00-.249-.645c-.165-.165-.385-.248-.658-.248-.121 0-.285.02-.492.06v1.76zm3.015 2.176h-1.134l-1.436-1.98a7.382 7.382 0 01-.348.005l-.097-.004v1.23c0 .266.03.432.088.496.08.092.198.137.357.137h.166v.116h-1.819v-.116h.16c.18 0 .307-.058.385-.175.043-.063.065-.217.065-.458v-2.736c0-.266-.029-.432-.088-.496-.081-.092-.202-.137-.363-.137h-.159v-.116h1.546c.451 0 .784.033.998.098.213.066.395.186.544.362.15.176.224.386.224.63 0 .26-.085.486-.255.677-.17.192-.434.328-.79.406l.876 1.215c.2.28.372.464.516.555a1.3 1.3 0 00.564.175v.116zm2.854-1.649l-.72-1.71-.74 1.71h1.46zm.088.232h-1.645l-.287.668c-.072.164-.107.287-.107.368 0 .065.03.122.093.17.06.05.194.082.399.095v.116h-1.337v-.116c.177-.03.292-.071.344-.121.107-.1.225-.303.354-.609l1.493-3.485h.11l1.478 3.523c.119.283.226.466.323.55a.663.663 0 00.406.142v.116h-1.674v-.116c.169-.008.282-.036.342-.084a.218.218 0 00.09-.174c0-.092-.043-.237-.126-.434l-.256-.61zm5.485-2.817v.116a.688.688 0 00-.34.143c-.112.102-.21.258-.295.469l-1.48 3.603h-.116l-1.59-3.65a1.982 1.982 0 00-.173-.344.552.552 0 00-.193-.152.907.907 0 00-.308-.07v-.115h1.734v.116c-.197.018-.323.051-.382.1a.227.227 0 00-.087.183c0 .104.047.267.144.487l1.08 2.483 1.002-2.451c.098-.241.147-.41.147-.502 0-.061-.03-.119-.09-.174-.062-.055-.164-.094-.308-.117a1.262 1.262 0 00-.053-.01v-.115h1.308zm2.162 2.585l-.72-1.71-.739 1.71h1.46zm.088.232h-1.644l-.288.668c-.071.164-.106.287-.106.368 0 .065.03.122.092.17.062.05.194.082.4.095v.116h-1.338v-.116c.177-.03.293-.071.345-.121.106-.1.224-.303.354-.609l1.492-3.485h.11l1.478 3.523c.119.283.227.466.324.55a.662.662 0 00.405.142v.116h-1.674v-.116c.169-.008.283-.036.342-.084a.215.215 0 00.09-.174c0-.092-.042-.237-.126-.434l-.256-.61zm3.739 1.301v.116h-1.819v-.116h.15c.176 0 .303-.05.382-.152.05-.067.076-.227.076-.481v-2.736c0-.214-.014-.356-.041-.424a.28.28 0 00-.128-.134.593.593 0 00-.288-.075h-.15v-.116h1.818v.116h-.153c-.174 0-.3.05-.38.153-.051.066-.078.227-.078.48v2.736c0 .214.014.356.04.425a.285.285 0 00.133.133c.09.05.184.075.285.075h.153zm3.896-1.054l.103.021-.363 1.15h-3.287v-.117h.16c.18 0 .307-.058.385-.175.044-.066.066-.22.066-.462v-2.732c0-.264-.03-.43-.088-.496-.082-.092-.203-.137-.363-.137h-.16v-.116h1.922v.116c-.225-.003-.383.018-.474.062a.38.38 0 00-.186.166c-.034.066-.05.225-.05.477v2.66c0 .174.016.292.05.357a.229.229 0 00.116.097c.052.02.214.03.488.03h.31c.326 0 .554-.023.686-.072a.887.887 0 00.36-.254c.108-.121.216-.313.325-.575z" fill="#1A1919"/><path fill-rule="evenodd" clip-rule="evenodd" d="M.291 63.469h101.38V.867H.291V63.47z" fill="#FFFFFE"/><path clip-rule="evenodd" d="M.291 63.469h101.38V.867H.291V63.47z" stroke="#1A1919"/><path fill-rule="evenodd" clip-rule="evenodd" d="M15.338 49.51c-.151 0-.285.022-.452.06 0 .441-.007 1.242-.007 1.865.083.015.234.021.33.021.616 0 1.03-.382 1.03-.965 0-.569-.384-.98-.902-.98zm1.929 4.688c-.279 0-.436-.038-.594-.144-.247-.164-.51-.613-.66-.867-.255-.442-.54-.914-.81-1.311-.046.008-.083.008-.113.008-.075 0-.136-.008-.211-.008v.397c0 .203.007.403.007.606.009.403.016.577.076.735.075.194.21.292.458.313v.21l-.173-.008c-.194-.007-.464 0-.818 0-.346 0-.616-.007-.81 0l-.181.008v-.21c.187-.015.278-.052.368-.15a.698.698 0 00.15-.404c.023-.223.03-.358.03-1.1v-1.257c0-.914-.03-1.14-.082-1.349-.053-.203-.21-.284-.466-.313v-.212c.15.017.3.01.45.01.391 0 .512 0 .977-.023.405-.016.638-.022.818-.022.51 0 .818.074 1.073.253.285.202.473.592.473.98 0 .615-.406 1.116-1.096 1.371.285.36.51.72.773 1.13.24.382.48.712.668.898a.542.542 0 00.316.188v.21a2.76 2.76 0 01-.623.06zm3.851-.154c-.056.093-.117.111-.46.111-.21 0-.415-.011-.626-.018-.297-.005-.595-.018-.893-.018-.297 0-.595.006-.892.018v-.173c.279-.025.402-.187.428-.457.018-.186.018-.384.018-.705v-1.75c0-.329-.018-.477-.068-.607-.056-.161-.168-.234-.378-.26v-.174h2.901c0 .18-.006.365-.006.544 0 .15-.005.293.006.44h-.223c-.043-.477-.247-.606-.985-.606-.137 0-.317.006-.465.012-.012.24-.02.322-.02.68v.718c.094.006.168.006.28.006.645 0 .843-.093.88-.426h.223c-.012.099-.012.303-.012.613 0 .314.007.5.012.6h-.223c-.018-.353-.185-.44-.824-.44-.112 0-.224.005-.336.005 0 .39.008.78.008 1.171 0 .26.041.346.191.383.094.025.236.03.428.03.67 0 .905-.148 1.048-.655l.242.05c-.087.432-.187.791-.254.908zm-1.383-4.436l-.293-.172.615-.903.713.13-1.035.945zm3.969 2.692c-.063 0-.095 0-.174-.006l-.136-.314c.582-.039.905-.323.905-.793 0-.493-.342-.848-.813-.848-.074 0-.136.008-.235.026 0 .383-.013.767-.013 1.15v1.082c0 .811.006.947.069 1.107.056.161.167.24.378.26v.173l-.15-.005c-.16-.007-.383-.007-.68-.007-.292 0-.521 0-.677.007l-.149.005v-.173c.279-.025.404-.187.429-.457.018-.186.018-.298.018-.91V51.05c0-.328-.018-.476-.07-.606-.054-.161-.166-.234-.377-.26v-.174c.075.006.019.006.285.006.106 0 .254 0 .453-.006.316-.012.633-.03.948-.03.882 0 1.409.433 1.409 1.15 0 .674-.601 1.17-1.42 1.17zm5.635-1.979c-.067.093-.099.216-.112.464-.011.266-.02.47-.02.852 0 .144.009.571.009.997 0 .433-.07.694-.25.953-.285.415-.756.625-1.376.625-.39 0-.688-.075-.967-.26-.434-.278-.602-.644-.602-1.3 0-.668.013-.958.013-1.174 0-.318.019-.644-.037-.953-.038-.223-.155-.314-.415-.34v-.174l.143.006c.16.008.39.008.687.008.298 0 .527 0 .688-.008l.143-.006v.173c-.193.027-.285.075-.347.18-.056.093-.08.218-.088.489-.012.39-.018.773-.018 1.163 0 1.064.026 1.266.217 1.49.15.173.404.292.702.292.414 0 .817-.21.94-.625.082-.266.095-.458.095-1.157v-.612c0-.706-.019-.922-.087-1.028-.069-.111-.161-.172-.322-.192v-.173c.247.014.334.014.644.014.317 0 .403 0 .65-.014v.173c-.136.02-.222.056-.29.137zm2.48 1.738a4.72 4.72 0 00-.378.018c-.007.168-.007.2-.007.482v.367c0 .345.012.53.056.654.05.156.2.23.458.23.528 0 .826-.291.826-.811 0-.576-.372-.94-.954-.94zm-.019-1.725c-.11 0-.222.013-.335.013-.006.401-.018 1.093-.024 1.353.067.006.155.012.273.012.607 0 .954-.253.954-.697 0-.428-.322-.681-.868-.681zm1.352 3.513c-.293.222-.62.297-1.253.297-.335 0-.675-.025-1.01-.025-.137 0-.391 0-.566.013l-.073.005v-.173c.291-.025.403-.174.428-.457.02-.186.024-.298.024-.91v-1.169c0-.575-.005-.822-.067-.983-.062-.161-.174-.234-.385-.26v-.174c.285.014.452.014.85.014.359 0 .898-.018 1.258-.018.57 0 1.092.27 1.092.914 0 .477-.298.797-.887.947.658.13 1.005.507 1.005 1.12 0 .369-.137.648-.416.859zm3.917.204c-.056.086-.129.104-.44.104-.155 0-.316-.005-.47-.011-.386-.012-.733-.025-1.154-.025-.318 0-.528.006-.726.018v-.173c.155-.012.236-.042.303-.124.112-.129.143-.29.143-.742 0-.308.006-.556.006-.877v-.663c0-.835-.006-.946-.067-1.113-.056-.161-.174-.234-.385-.26v-.174l.155.006c.168.008.397.008.706.008.305 0 .54 0 .702-.008l.155-.006v.173c-.317 0-.454.168-.49.464-.012.107-.02.205-.02.91v1.033c0 .86.008.965.088 1.051.068.07.198.1.465.1.34 0 .527-.038.681-.124.175-.093.305-.279.368-.538l.234.063c-.067.357-.185.802-.254.908zm2.157.08c-.156-.006-.384-.006-.675-.006-.299 0-.521 0-.683.007l-.148.005v-.173c.29-.025.402-.174.427-.457.019-.186.026-.298.026-.91v-1.039c0-.16-.007-.328-.007-.507 0-.328-.012-.476-.062-.606-.056-.161-.173-.234-.384-.26v-.174l.148.006c.162.008.384.008.683.008.291 0 .52 0 .675-.008l.15-.006v.173c-.267.02-.404.187-.429.464-.018.181-.018.353-.018.91v1.039c0 .811.006.947.068 1.107.055.161.168.24.379.26v.173l-.15-.005zm2.871-3.773c-.758 0-1.297.63-1.297 1.516 0 1.075.638 1.924 1.452 1.924.763 0 1.301-.644 1.301-1.541 0-1.064-.64-1.899-1.456-1.899zm2.926 4.892c-.484 0-.998-.149-1.489-.42a7.159 7.159 0 01-.954-.655c-.21.03-.291.037-.491.037-1.252 0-2.082-.816-2.082-2.047 0-1.317.899-2.228 2.213-2.228 1.277 0 2.127.818 2.127 2.043 0 .871-.447 1.643-1.154 2.002.224.112.447.236.664.365.633.384 1.066.544 1.476.544.254 0 .465-.055.712-.18l.081.218a1.91 1.91 0 01-1.102.321z" fill="#1A1919"/><path fill-rule="evenodd" clip-rule="evenodd" d="M48.653 50.32c-.069.093-.1.217-.112.464-.013.267-.02.471-.02.852 0 .144.007.572.007.997 0 .433-.069.694-.25.954-.285.414-.76.625-1.382.625-.391 0-.69-.075-.968-.26-.434-.279-.602-.645-.602-1.3 0-.669.014-.959.014-1.175 0-.317.018-.643-.038-.953-.037-.222-.155-.314-.415-.34v-.174l.141.007c.161.007.391.007.69.007.297 0 .526 0 .687-.007l.143-.007v.174c-.193.026-.285.075-.347.18-.057.092-.08.217-.087.488-.011.39-.018.774-.018 1.163 0 1.065.025 1.266.216 1.49.149.173.403.292.703.292.416 0 .822-.21.946-.624.08-.267.093-.459.093-1.158v-.612c0-.705-.018-.922-.086-1.028-.069-.111-.163-.172-.325-.191v-.174c.25.014.337.014.648.014.318 0 .405 0 .653-.014v.174c-.137.019-.223.056-.291.136zm3.781 3.724c-.056.093-.118.11-.46.11-.21 0-.414-.011-.625-.017-.297-.006-.595-.018-.893-.018-.297 0-.595.005-.893.018v-.174c.28-.025.403-.187.43-.457.017-.186.017-.383.017-.705v-1.75c0-.328-.017-.477-.069-.607-.055-.16-.166-.234-.378-.26v-.174h2.903c0 .18-.007.365-.007.545 0 .148-.007.292.007.44h-.224c-.042-.478-.247-.607-.985-.607-.137 0-.316.007-.465.013-.013.24-.02.322-.02.68v.718c.094.005.17.005.28.005.644 0 .842-.092.881-.425h.223c-.013.098-.013.302-.013.612 0 .314.008.5.013.6h-.223c-.02-.353-.187-.44-.826-.44-.11 0-.222.005-.334.005 0 .39.006.78.006 1.171 0 .26.043.346.192.383.095.025.236.03.427.03.67 0 .906-.148 1.05-.655l.24.05c-.088.432-.187.792-.254.909zm5.738-3.696c-.008-.539-.324-.75-1.17-.75-.174 0-.339.009-.526.023-.016.517-.016.875-.016 1.694.18.007.27.014.4.014.696 0 .906-.12.944-.524h.27c0 .21-.014.426-.014.635 0 .277.015.562.015.84h-.271c-.054-.45-.226-.54-1.012-.54-.137 0-.188 0-.332.007v.84c0 .165 0 .344.009.54.014.41.044.77.532.8v.21l-.18-.009c-.188-.007-.465-.007-.818-.007-.36 0-.632 0-.827.007l-.18.009v-.21c.338-.03.488-.226.52-.554.02-.224.02-.36.02-1.1V50.4c0-.395-.02-.576-.082-.733-.067-.194-.201-.285-.459-.314v-.211h3.454c-.014.142-.014.382-.014.696 0 .3 0 .344.014.51h-.277zm2.556-.033c-.123 0-.235.018-.372.049 0 .365-.007 1.027-.007 1.538.068.015.193.02.275.02.509 0 .849-.314.849-.798 0-.47-.315-.809-.745-.809zm1.594 3.87c-.228 0-.36-.03-.49-.116-.203-.137-.422-.507-.545-.718a17.924 17.924 0 00-.67-1.082c-.037.007-.068.007-.092.007-.063 0-.113-.007-.176-.007v.327c0 .168.007.335.007.501.007.334.012.476.061.606.065.161.176.241.38.26v.174l-.142-.006c-.162-.007-.384 0-.677 0-.286 0-.508-.007-.67 0l-.148.006v-.174c.155-.012.23-.041.302-.124a.569.569 0 00.125-.333c.018-.186.025-.298.025-.91v-1.038c0-.755-.025-.941-.068-1.114-.042-.168-.175-.234-.384-.26v-.174c.124.014.248.007.372.007.322 0 .42 0 .807-.018.333-.013.526-.019.674-.019.422 0 .677.062.888.21.235.168.39.49.39.81 0 .509-.335.922-.905 1.133.234.297.422.592.638.933.2.315.397.588.553.743a.452.452 0 00.261.154v.174a2.24 2.24 0 01-.516.048zM64.79 51.1c-.16.421-.385.965-.478 1.268h.917l-.44-1.268zm2.009 3.032c-.156-.007-.379-.007-.663-.007-.292 0-.516 0-.67.007l-.143.006v-.174c.199-.012.315-.117.315-.29 0-.063-.018-.149-.078-.335-.075-.23-.127-.382-.2-.593h-1.19l-.124.358c-.094.278-.143.484-.143.588 0 .18.08.26.277.272v.174c-.235-.006-.32-.013-.618-.013-.292 0-.379.007-.614.013v-.174a.281.281 0 00.192-.087c.116-.103.236-.32.422-.791l.589-1.496c.16-.402.403-1.052.57-1.579h.42c.056.193.187.496.274.719l.874 2.233c.15.376.255.6.336.741.087.15.174.224.322.26v.174l-.148-.006zm4.413-3.76c-.067.11-.081.215-.093.537-.02.556-.025 1.422-.025 1.837v.946c0 .142.019.359.019.446h-.422c-.403-.527-1.24-1.546-1.24-1.546-.099-.124-.875-1.077-1.265-1.553 0 .131-.007.05-.007.45v.404c0 .464.007.92.025 1.385.013.26.036.39.1.507.06.123.154.174.335.18v.173c-.216-.013-.44-.013-.658-.013-.223 0-.44 0-.662.013v-.174c.408-.012.42-.353.433-.673.006-.261.012-.478.012-.873v-1.304c0-.514-.024-.639-.119-.775-.06-.099-.141-.135-.326-.154v-.174c.204.014.279.014.538.014.255 0 .329 0 .534-.014.074.137.192.26.619.781.608.735 1.156 1.36 1.67 2.003v-1.348c0-.617-.014-.774-.045-.934-.043-.197-.161-.297-.39-.328v-.174c.254.014.34.014.657.014s.402 0 .657-.014v.174c-.168.006-.26.038-.347.186zm4.327 3.617c-.402.16-.756.224-1.246.224l-.056.247c.03-.007.094 0 .119 0 .236 0 .39.166.39.37 0 .334-.267.57-.688.57a.956.956 0 01-.373-.081l.087-.24c.08.03.155.05.224.05.173 0 .29-.089.29-.243 0-.123-.06-.198-.154-.198a.23.23 0 00-.136.049l-.138-.038.126-.5c-.547-.05-.944-.229-1.279-.575-.383-.389-.59-.922-.59-1.546 0-1.337.865-2.14 2.283-2.14.43 0 .844.062 1.202.18-.011.142-.011.284-.011.42 0 .104.007.328.011.47h-.241c-.1-.44-.452-.674-1.016-.674-.873 0-1.409.581-1.409 1.546 0 1.113.628 1.924 1.488 1.924.522 0 .876-.26 1.019-.755l.236.05c-.058.209-.113.563-.138.89zm2.295-2.889c-.162.421-.387.965-.48 1.268h.918l-.438-1.268zm2.006 3.032c-.153-.007-.376-.007-.662-.007-.29 0-.514 0-.67.007l-.143.006v-.174c.198-.012.317-.117.317-.29 0-.063-.018-.149-.081-.335-.074-.23-.124-.382-.196-.593h-1.191l-.126.358c-.092.278-.142.484-.142.588 0 .18.08.26.279.272v.174c-.235-.006-.323-.013-.622-.013-.289 0-.378.007-.614.013v-.174c.095-.012.125-.025.193-.087.118-.103.237-.32.421-.791l.59-1.496c.162-.402.403-1.052.57-1.579h.423c.055.193.186.496.272.719l.875 2.233c.149.376.254.6.335.741.086.15.172.224.323.26v.174l-.15-.006zm2.03 0c-.158-.007-.386-.007-.678-.007-.297 0-.52 0-.68.007l-.15.006v-.174c.291-.025.402-.174.426-.457.02-.186.027-.298.027-.91v-1.038c0-.16-.008-.329-.008-.508 0-.327-.01-.476-.061-.606-.056-.16-.172-.234-.384-.26v-.174l.15.007c.16.007.383.007.68.007.291 0 .52 0 .677-.007l.148-.007v.174c-.267.019-.404.186-.428.464-.018.18-.018.352-.018.91v1.038c0 .812.007.947.07 1.108.053.16.165.24.376.26v.173l-.148-.006zm1.926.08c-.362 0-.621-.05-1.043-.21a11.98 11.98 0 00-.11-.892l.232-.036c.152.5.479.76.958.76.44 0 .738-.228.738-.575 0-.278-.192-.47-.472-.644l-.652-.412c-.447-.285-.708-.583-.708-1.128 0-.691.53-1.137 1.347-1.137.397 0 .727.073 1.015.223-.004.149-.004.198-.004.388 0 .224 0 .286.004.458h-.233c-.086-.446-.367-.69-.793-.69-.385 0-.663.239-.663.579 0 .297.204.496.53.705l.529.34c.503.329.788.645.788 1.14 0 .673-.596 1.132-1.463 1.132zm4.984-.167c-.054.093-.117.11-.458.11-.21 0-.415-.011-.626-.017-.299-.006-.595-.018-.894-.018-.297 0-.596.005-.892.018v-.174c.278-.025.402-.187.427-.457.019-.186.019-.383.019-.705v-1.75c0-.328-.019-.477-.069-.607-.054-.16-.166-.234-.377-.26v-.174h2.902c0 .18-.007.365-.007.545 0 .148-.007.292.007.44h-.225c-.042-.478-.248-.607-.985-.607-.135 0-.315.007-.465.013-.013.24-.017.322-.017.68v.718c.092.005.167.005.277.005.646 0 .844-.092.881-.425h.225c-.014.098-.014.302-.014.612 0 .314.006.5.014.6h-.225c-.018-.353-.184-.44-.825-.44-.11 0-.222.005-.333.005 0 .39.004.78.004 1.171 0 .26.045.346.193.383.093.025.236.03.427.03.67 0 .907-.148 1.048-.655l.242.05c-.085.432-.185.792-.254.909zM15.564 43.55c-.056.072-.146.096-.363.096-.296 0-.586-.018-.882-.024a23.941 23.941 0 00-.58-.012c-.18 0-.621.005-.748.012l-.083.006.024-.127c.18-.017.29-.071.374-.185.096-.121.157-.29.24-.628.08-.33.115-.53.243-1.15l.096-.475c.096-.482.132-.766.132-.915 0-.266-.096-.375-.356-.404l.025-.134c.036.007.066.007.084.007.224 0 .44.006.664.006.351 0 .58-.006.683-.006.018 0 .054 0 .096-.007l-.024.134c-.188.011-.29.06-.38.18-.15.193-.237.452-.46 1.615l-.077.402c-.098.495-.133.664-.164.886a1.406 1.406 0 00-.018.186c0 .235.12.308.507.308.682 0 .935-.14 1.159-.633l.164.06c-.145.397-.285.706-.356.802zm1.134.144c-.121 0-.2-.066-.2-.174 0-.054.019-.15.049-.283a49.9 49.9 0 01.248-.982c.084-.314.12-.53.12-.614 0-.08-.036-.115-.102-.115-.055 0-.11.018-.236.054l-.042.012-.018-.169c.332-.126.657-.203.82-.203.09 0 .127.03.127.103 0 .072-.029.263-.138.686l-.091.354c-.15.585-.186.789-.186.885 0 .092.047.146.14.146.052 0 .162-.025.33-.085l.012.169c-.32.126-.665.216-.833.216zm.657-3.076c-.186 0-.306-.115-.306-.29 0-.218.156-.368.372-.368.182 0 .297.11.297.284 0 .216-.151.374-.363.374zm2.662.861c-.109 0-.241.041-.41.131-.175.092-.303.187-.368.277-.08.109-.146.296-.236.693-.091.375-.133.607-.133.693 0 .114.133.181.375.181.247 0 .457-.114.615-.338.241-.343.422-.891.422-1.283 0-.228-.09-.354-.265-.354zm.006 1.932c-.236.204-.512.29-.94.29-.472 0-.757-.079-.757-.2 0-.047.006-.107.067-.36l.314-1.367c.103-.44.18-.79.29-1.283.06-.29.085-.446.085-.525 0-.071-.037-.114-.103-.114-.043 0-.175.03-.266.06l-.006-.175.072-.023c.327-.108.598-.17.725-.17.078 0 .126.037.126.103 0 .067-.03.216-.132.663l-.182.795c-.06.258-.077.355-.095.44.379-.222.712-.325 1.012-.325.368 0 .55.186.55.565 0 .56-.319 1.246-.76 1.626zm2.699-1.95c-.29 0-.598.397-.75.981h.061c.562 0 .984-.295.984-.681 0-.169-.132-.3-.295-.3zm-.622 1.203c-.043 0-.096 0-.175-.007-.018.11-.024.2-.024.291 0 .307.107.47.319.47.194 0 .435-.102.791-.326l.066.205c-.445.276-.784.404-1.091.404-.375 0-.58-.223-.58-.627 0-.994.675-1.854 1.455-1.854.38 0 .603.175.603.475 0 .554-.591.97-1.364.97zm3.785-.668l-.2-.019c.013-.072.02-.156.02-.233 0-.109-.097-.188-.248-.188-.09 0-.181.054-.26.146-.23.257-.32.668-.453 1.336l-.115.584a5.18 5.18 0 00-.525.048c.06-.23.103-.41.151-.614l.133-.56c.092-.38.132-.614.132-.74 0-.151-.035-.217-.107-.217a.607.607 0 00-.153.03l-.15.047-.017-.18c.294-.12.633-.216.784-.216.06 0 .098.024.11.084.018.072.029.156.035.258.272-.222.514-.348.683-.348.114 0 .26.06.398.162a3.476 3.476 0 00-.218.62zm2.047-.41l-.501-.012-.255 1.235c-.065.32-.073.41-.073.458 0 .083.044.131.121.131.043 0 .134-.023.28-.066l.06-.016.018.175c-.315.124-.642.21-.815.21-.127 0-.205-.062-.205-.175 0-.103.024-.253.071-.44.055-.211.097-.386.145-.62l.188-.892-.32.006.041-.192c.41-.073.55-.398.665-.748l.29-.059-.151.71.502-.005-.061.3zm1.804-.126c-.289 0-.596.398-.748.982h.06c.562 0 .985-.295.985-.681 0-.169-.134-.3-.297-.3zm-.62 1.204c-.043 0-.098 0-.176-.007-.019.11-.024.2-.024.291 0 .307.108.47.32.47.193 0 .435-.102.79-.326l.068.205c-.448.276-.787.404-1.095.404-.373 0-.579-.223-.579-.627 0-.994.676-1.854 1.456-1.854.38 0 .604.175.604.475 0 .554-.593.97-1.365.97zm.669-1.819l-.192-.155.736-.832.543.133-1.087.854zm11.52-.354h-.174c.005-.067.012-.092.012-.133 0-.331-.218-.445-.821-.445-.2 0-.394 0-.592.018-.126.5-.21.933-.313 1.468h.224c.385 0 .548-.004.686-.03.224-.042.357-.174.423-.414h.164c-.084.354-.188.86-.23 1.167h-.162c.004-.042.01-.077.01-.102 0-.259-.162-.343-.658-.343-.295 0-.403.006-.512.01-.03.153 0 .02-.139.713a3.981 3.981 0 00-.091.656c0 .21.108.265.514.265.76 0 .996-.12 1.231-.638l.151.06c-.133.397-.278.715-.363.82-.06.065-.139.083-.392.083-.21 0-.429-.007-.64-.012a40.497 40.497 0 00-.839-.012c-.283 0-.561.006-.844.006l.023-.127c.181-.017.29-.071.375-.185.096-.121.157-.29.24-.628.079-.337.105-.476.242-1.15l.098-.475c.095-.47.132-.766.132-.915 0-.266-.096-.375-.356-.404l.024-.134h2.747c-.066.272-.127.598-.17.88zm-1.147-1.283l-.192-.158.737-.83.549.132-1.094.856zm3.067 4.679a9.019 9.019 0 00-.705-.235c-.418.103-.707.41-.707.759 0 .325.278.542.712.542.526 0 1.009-.356 1.009-.74 0-.146-.092-.242-.31-.326zm-.09-2.44c-.326 0-.59.344-.59.754 0 .282.161.475.397.475.32 0 .579-.33.579-.74 0-.3-.151-.488-.386-.488zm1.152.133l-.41-.006a.65.65 0 01.097.362c0 .554-.466.98-1.068.98-.115 0-.2-.01-.326-.047-.152.09-.2.133-.2.187 0 .066.066.096.333.181l.482.15c.483.15.718.296.718.644 0 .638-.633 1.14-1.442 1.14-.663 0-1.068-.315-1.068-.827 0-.469.302-.692.796-.818-.303-.108-.369-.157-.369-.26 0-.132.176-.294.537-.493a.625.625 0 01-.276-.548c0-.573.458-1.005 1.063-1.005.157 0 .27.017.404.066h.797l-.068.294zm1.993-.108c-.243 0-.485.18-.69.519-.228.367-.392.854-.392 1.174 0 .185.09.289.242.289.224 0 .615-.2.766-.35.084-.084.134-.205.193-.434.097-.367.188-.71.242-1.108a.936.936 0 00-.361-.09zm.276 2.228c-.108 0-.145-.066-.198-.36-.448.251-.772.367-1.093.367-.363 0-.575-.187-.575-.52 0-.318.159-.77.399-1.142.326-.506.732-.825 1.347-.825.272 0 .52.048.78.114l-.03.097c-.217.691-.376 1.456-.376 1.714 0 .164.036.253.108.253.051 0 .176-.035.329-.09l.017.187c-.308.115-.606.206-.708.206zm2.683-3.54c-.198.8-.398 1.69-.591 2.54-.06.278-.09.458-.09.548 0 .092.042.133.133.133.06 0 .167-.024.331-.072l.013.169c-.308.12-.684.222-.848.222-.114 0-.181-.066-.181-.18 0-.085.017-.194.11-.572.187-.796.392-1.644.557-2.403.072-.35.109-.523.109-.579 0-.071-.037-.108-.103-.108-.06 0-.17.024-.267.06l-.012-.18c.308-.11.647-.193.816-.193.084 0 .126.036.126.102 0 .06-.024.198-.103.513zm.84 3.534c-.12 0-.2-.066-.2-.174 0-.054.019-.15.05-.283.078-.32.186-.754.246-.982.086-.314.121-.53.121-.614 0-.08-.035-.115-.102-.115-.054 0-.11.018-.235.054l-.044.012-.017-.169c.331-.126.657-.203.822-.203.089 0 .125.03.125.103 0 .072-.03.263-.14.686l-.09.354c-.15.585-.185.789-.185.885 0 .092.047.146.137.146.055 0 .164-.025.332-.085l.013.169c-.32.126-.665.216-.833.216zm.658-3.076c-.187 0-.307-.115-.307-.29 0-.218.155-.368.373-.368.18 0 .296.11.296.284 0 .216-.15.374-.362.374zm2.377.968l-.5-.012-.254 1.235c-.067.32-.074.41-.074.458 0 .083.043.131.122.131.04 0 .132-.023.278-.066l.06-.016.017.175c-.314.124-.638.21-.815.21-.127 0-.205-.062-.205-.175 0-.103.025-.253.073-.44.053-.211.096-.386.144-.62l.188-.892-.32.006.041-.192c.411-.073.55-.398.665-.748l.29-.059-.15.71.5-.005-.06.3zm1.805-.126c-.289 0-.598.398-.75.982h.063c.56 0 .982-.295.982-.681 0-.169-.133-.3-.295-.3zm-.623 1.204c-.042 0-.096 0-.175-.007-.017.11-.024.2-.024.291 0 .307.108.47.32.47.193 0 .436-.102.793-.326l.066.205c-.448.276-.786.404-1.093.404-.375 0-.58-.223-.58-.627 0-.994.676-1.854 1.454-1.854.381 0 .605.175.605.475 0 .554-.592.97-1.366.97zm.671-1.819l-.192-.155.735-.832.543.133-1.086.854zm11.439-.361h-.175c.005-.06.012-.108.012-.138a.398.398 0 00-.115-.29c-.115-.108-.327-.15-.786-.15-.127 0-.294.007-.446.013-.108.493-.207.969-.314 1.48.115 0 .228.007.344.007.672 0 .804-.061.93-.451h.165c-.099.39-.175.776-.231 1.173h-.17a.758.758 0 00.012-.101.31.31 0 00-.113-.253c-.104-.08-.225-.097-.588-.097-.191 0-.246.006-.404.01l-.077.405c-.115.578-.157.85-.157 1.018 0 .247.108.361.356.391l-.024.127-.098-.006c-.046 0-.314-.007-.542-.007-.242 0-.688 0-.768.007l-.103.006.025-.127c.18-.017.29-.071.375-.185.096-.121.163-.29.24-.628.087-.343.115-.524.243-1.15l.095-.475c.097-.476.133-.766.133-.915 0-.266-.095-.375-.356-.404l.026-.134h2.68c-.062.272-.12.585-.17.874zm2.055 1.512l-.198-.019a1.53 1.53 0 00.02-.233c0-.109-.098-.188-.25-.188-.092 0-.18.054-.26.146-.229.257-.32.668-.451 1.336l-.116.584c-.23.012-.29.017-.525.048.062-.23.104-.41.151-.614l.134-.56c.09-.38.132-.614.132-.74 0-.151-.035-.217-.11-.217a.61.61 0 00-.151.03l-.15.047-.018-.18c.297-.12.634-.216.785-.216.06 0 .095.024.11.084.016.072.031.156.034.258.274-.222.515-.348.684-.348.115 0 .258.06.398.162-.096.216-.17.415-.219.62zm2.105-.525c-.241 0-.484.18-.688.52-.23.367-.393.854-.393 1.174 0 .185.092.289.244.289.223 0 .613-.2.764-.35.086-.084.133-.205.194-.434.097-.367.19-.71.24-1.108a.922.922 0 00-.36-.09zm.278 2.23c-.108 0-.143-.067-.198-.361-.448.251-.774.367-1.094.367-.362 0-.572-.187-.572-.52 0-.318.155-.77.396-1.142.326-.506.73-.825 1.347-.825.273 0 .518.048.78.114l-.032.097c-.216.691-.373 1.456-.373 1.714 0 .164.034.253.11.253.047 0 .175-.035.324-.09l.018.187c-.309.115-.603.206-.706.206zm2.88-2.115l-.5-.012-.254 1.235c-.067.32-.074.41-.074.458 0 .083.044.131.121.131.043 0 .133-.023.277-.066l.061-.016.021.175c-.316.124-.642.21-.818.21-.125 0-.204-.062-.204-.175 0-.103.025-.253.073-.44.054-.211.096-.386.144-.62l.187-.892-.32.006.043-.192c.409-.073.55-.398.661-.748l.292-.059-.15.71.5-.005-.06.3zm1.806-.126c-.29 0-.599.398-.75.982h.058c.564 0 .987-.295.987-.681 0-.169-.133-.3-.295-.3zm-.623 1.204c-.042 0-.096 0-.174-.007-.02.11-.025.2-.025.291 0 .307.109.47.32.47.195 0 .434-.102.79-.326l.068.205c-.446.276-.783.404-1.094.404-.373 0-.578-.223-.578-.627 0-.994.675-1.854 1.454-1.854.38 0 .603.175.603.475 0 .554-.59.97-1.364.97zm3.785-.668l-.198-.019c.011-.072.017-.156.017-.233 0-.109-.096-.188-.246-.188-.092 0-.182.054-.262.146-.228.257-.318.668-.451 1.336l-.116.584c-.228.012-.289.017-.524.048.06-.23.103-.41.15-.614l.132-.56c.094-.38.135-.614.135-.74 0-.151-.037-.217-.11-.217a.576.576 0 00-.15.03l-.15.047-.019-.18c.294-.12.633-.216.785-.216.059 0 .095.024.108.084.018.072.03.156.035.258.273-.222.515-.348.683-.348.116 0 .26.06.4.162-.098.216-.17.415-.219.62zm2.409 1.704c-.12 0-.194-.072-.194-.18 0-.072.024-.204.097-.507l.06-.252c.18-.752.224-1.006.224-1.11 0-.09-.043-.137-.127-.137-.103 0-.273.06-.453.17a1.272 1.272 0 00-.412.343c-.054.089-.095.246-.168.565-.096.44-.156.74-.205 1.023a8.333 8.333 0 00-.532.055c.122-.45.21-.825.303-1.24.09-.41.127-.603.127-.712 0-.138-.044-.204-.133-.204-.05 0-.151.025-.297.072l-.013-.168c.292-.114.605-.198.75-.198.134 0 .175.077.175.36v.048c.46-.258.93-.408 1.258-.408.198 0 .276.048.276.168 0 .126-.037.325-.165.813-.07.277-.137.572-.161.704a1.89 1.89 0 00-.055.35c0 .09.05.139.133.139a1.1 1.1 0 00.314-.078l.02.175c-.321.113-.684.21-.822.21zm1.882-.006c-.12 0-.2-.066-.2-.174 0-.054.019-.15.05-.283.08-.32.187-.754.246-.982.088-.314.121-.53.121-.614 0-.08-.033-.115-.104-.115-.052 0-.106.018-.233.054l-.043.012-.018-.169c.332-.126.659-.203.823-.203.089 0 .125.03.125.103 0 .072-.03.263-.139.686l-.09.354c-.152.585-.187.789-.187.885 0 .092.05.146.138.146.055 0 .164-.025.334-.085l.011.169c-.32.126-.665.216-.834.216zm.659-3.076c-.189 0-.308-.115-.308-.29 0-.218.156-.368.374-.368.181 0 .295.11.295.284 0 .216-.15.374-.361.374zm2.377.968l-.5-.012-.255 1.235c-.066.32-.073.41-.073.458 0 .083.044.131.122.131.04 0 .133-.023.277-.066l.059-.016.018.175c-.313.124-.637.21-.814.21-.125 0-.205-.062-.205-.175 0-.103.024-.253.073-.44.053-.211.095-.386.144-.62l.189-.892-.32.006.04-.192c.41-.073.55-.398.665-.748l.29-.059-.152.71.502-.005-.06.3zm1.804-.126c-.289 0-.598.398-.748.982h.06c.56 0 .985-.295.985-.681 0-.169-.133-.3-.297-.3zm-.62 1.204c-.044 0-.097 0-.176-.007-.019.11-.025.2-.025.291 0 .307.107.47.32.47.194 0 .436-.102.792-.326l.067.205c-.45.276-.786.404-1.094.404-.374 0-.579-.223-.579-.627 0-.994.677-1.854 1.456-1.854.38 0 .603.175.603.475 0 .554-.591.97-1.364.97zm.672-1.819l-.197-.155.74-.832.541.133-1.084.854zm-28.31 1.733a.73.73 0 00.73-.73.731.731 0 10-.73.73zm-25.166 0a.73.73 0 100-1.461.733.733 0 00-.733.73c0 .405.329.731.733.731z" fill="#1A1919"/><path d="M13.299 46.356h75.308" stroke="#1A1919" stroke-width=".5"/><mask id="a" maskUnits="userSpaceOnUse" x="13" y="10" width="35" height="27"><path d="M13.406 10.898h34.41v25.23h-34.41v-25.23z" fill="#fff"/></mask><g mask="url(#a)"><path fill-rule="evenodd" clip-rule="evenodd" d="M35.896 26.573c-.684.202-1.383.23-2.017.575 1.498-.057 2.995.173 4.434.633.518.171.979.4 1.44.689.23.172.345.344.574.459.288.172.691.172.98.057h.286c.865-.23 1.786-.46 2.362-1.091 0 .057.057.057.115.057-.173.46-.173.977-.518 1.378 0 .058-.059.172.057.23h.115c-.057 0-.115 0-.115.057 0 .115.172 0 .23.115-.287.057-.575.115-.748.345 0 .057.114.057.173.057-.116.115-.287.058-.345.172 0 0 .058.058.115.058-.057 0-.115 0-.115.058v.172c-.173 0-.231.114-.346.172.23.173.404 0 .633 0-.634.23-1.152.574-1.784.747-.115 0 0 .172-.115.172.173.115.286-.058.46-.058-.806.46-1.61.861-2.475 1.378 0 0-.116.115-.116.23h-.23c-.115.058-.059.23-.173.346.288.172.633-.23.806 0 .058 0-.115.056-.23.056-.057 0-.057.116-.116.116h-.172c-.115.114-.23.17-.23.343-.114 0-.23 0-.287.116 1.266-.173 2.59-.058 3.798-.689a8.851 8.851 0 002.533-1.896s.057.058.057.116c-.172.573-.517.975-.977 1.32-.346.172-.576.46-.864.574-.172.116-.345.23-.519.345-2.129.747-4.662.402-6.505 1.837 0-.058-.057-.058-.115-.058-.114.115-.287.172-.344.288 0 .115.172.058.23.058.345-.231.69-.403 1.094-.517-.461.229-.922.574-1.382.689-.98.172-1.9.115-2.878 0 .575-.346 1.15-.747 1.785-1.09-.174-.117-.347-.117-.519-.117-.288.057-.634-.114-.92 0-.865.402-2.017.288-2.477 1.207-5.757.115-11.571 0-17.328 0 .115-6.26 0-12.462.172-18.72.058-2.24-.057-4.48-.057-6.72 1.555-.286 3.109-.114 4.663-.056 9.96 0 19.86-.058 29.825 0-.694.345-1.502.63-2.02 1.263-.46.574-.921 1.149-1.093 1.838-.748.459-1.21 1.148-1.612 1.837-.519.976-1.267 1.837-1.15 2.93.113.917.344 1.778.517 2.755.057.344.114.63.23.975.115.346 0 .748.174 1.035.115.172.057.401.286.516v.23c.057.058.057.116.173.116v.23c.46.573 1.037 1.09 1.325 1.722.114.343-.576.172-.865.057-.575-.287-.92-.747-1.381-1.149 0 0-.058.058-.058.115.23.402 1.094.918.635 1.207-.231.113-.519-.173-.75.057-.057.114 0 .23 0 .344-.345-.23-.69-.114-1.036-.23-.23-.058-.288-.516-.576-.516-.748-.172-1.44-.345-2.187-.402-1.037-.116-2.015-.288-3.051-.116-.92.058-1.611.747-2.188 1.436v.173c.403.058.577-.288.921-.403.576-.115 1.094-.343 1.67-.46.864-.172 1.668-.4 2.476-.343.172 0 .403-.057.575 0-1.037-.057-1.957.287-2.935.573z" fill="#174489"/></g><path fill-rule="evenodd" clip-rule="evenodd" d="M32.671 29.33c-.177.044-.345.171-.288.286.172.23.518-.056.806-.056-.345.114-.75.056-1.036.344.23.172.46.057.69.057 0 .115.116.115.174.172-.289.115-.519.346-.578.518-.113.287-.401.4-.574.631v.172c-.576.518-1.208.861-1.67 1.493.057 0 .057.057.057.115-.114.172-.345.23-.402.402 0 .058 0 .116.057.116.692-.23 1.21-.748 1.843-.978.46-.115.805-.401 1.21-.515.287-.058.632-.174.919-.23 0 .056 0 .115.059.115h.46c-.057.115-.288.057-.23.115.173.171.518.114.748 0 .172-.115.346-.115.576-.115.057 0 .057-.116.057-.173.174.058.288.058.46.058 1.382-.288 2.708-.575 3.974-1.206-1.497-1.15-3.397-1.55-5.182-2.068.173 0 .344.172.518 0-.287-.23-.633-.114-.92-.287.058 0 .171.058.229-.058-.46-.23-.921-.23-1.381-.344a.56.56 0 00.46-.574c0-.057-.115-.057-.174-.057-.69.343-1.15.975-1.438 1.723.403.23.864.056 1.267.114-.173.172-.46.172-.69.23zm-2.36-2.24c-.587.621-1.21 1.206-1.957 1.608a17.675 17.675 0 01-1.843 2.928c0 .058.057.116.057.116 1.382-1.55 2.649-2.872 4.433-3.962.115-.058-.173.171.058.114.748-.172.979-.919 1.324-1.493.46-.746 1.266-1.034 1.843-1.665 0 .056 0 .115-.059.172.059.057.116.057.174.057.23-.172.518-.114.69-.343-.46-.172-1.035-.23-1.498-.058-1.207.573-2.244 1.492-3.223 2.526z" fill="#FFFFFE"/><path fill-rule="evenodd" clip-rule="evenodd" d="M31.174 28.18c.053-.1.116-.114.174-.229 0-.057 0-.114-.058-.114-.23.057-.404.287-.462.517 0 .057.058.057.116.057a.444.444 0 00.23-.23z" fill="#FFFFFE"/><mask id="b" maskUnits="userSpaceOnUse" x="35" y="10" width="54" height="27"><path d="M35.08 10.898h53.707v25.23H35.08v-25.23z" fill="#fff"/></mask><g mask="url(#b)" fill-rule="evenodd" clip-rule="evenodd"><path d="M35.78 32.547c-.23.113-.634.113-.691.4-.057.115.173.058.288.058.403-.172.863 0 1.21-.345-.116-.113-.29-.058-.404-.23-.116-.057-.287.058-.403.117z" fill="#FFFFFE"/><path d="M42.054 35.647c.356-.079.692-.286 1.037-.4v.114c.864-.345 1.497-1.092 2.36-1.378.058 0 .173.114.289.056.517-.458 1.093-.976 1.845-.86 0 .056 0 .114.058.114s.115 0 .115-.057l-.694.518c-.057.055 0 .114.058.114.289-.114.463-.345.753-.46-.059.057-.059.173-.117.23-1.098.803-1.904 1.723-2.768 2.699h-1.784c0-.058 0-.116-.058-.116-2.015.173-3.972.116-5.986.116 1.151-.173 2.302-.518 3.453-.633.46 0 .922.058 1.44-.057z" fill="#174489"/><path d="M64.743 32.718c.14-.415.29-.86.06-1.264-.344-.515.345-.688.574-1.032.176-.288-.114-.46-.173-.747-.056-.114-.286-.058-.401-.23.401-.172 1.037-.516.75-1.034-.176-.286-.462-.746-.117-1.033.404-.23 1.038-.172 1.208-.575.29-.688-.345-1.263-.69-1.837-.174-.344-.401-.574-.633-.918-.23-.403-.518-.747-.634-1.206-.17-.46.056-.862.056-1.321.06-.863-.17-1.723-.401-2.584-.172-.402-.23-.862-.404-1.264-.055-.23-.113-.459-.288-.688a.485.485 0 010-.403c.233-.172.461-.345.692-.574.174-.287.058-.69-.23-.861-.402-.173-.344.402-.634.517h-.173c-.059-.172.059-.23.173-.346 0-.056 0-.171-.056-.171-.23 0-.461-.058-.518-.173-.577-.803-1.382-1.206-2.245-1.55.229.057.46.115.69.115.402.057.864.057 1.207-.115.29-.116.348-.573.463-.86.114-.23-.058-.575-.172-.748-.29-.46-.75-.746-1.21-.976h27.285c.059 8.499-.056 16.997-.114 25.496-10.765.172-21.53 0-32.295 0 .346-1.148.98-2.24 2.016-2.985.229-.116.517-.173.805-.23.978 0 1.957.287 2.937.402.113 0 .228.058.345.114.345.057.748.057 1.094-.056.401-.116.864-.346 1.033-.863z" fill="#D8232A"/></g><path fill-rule="evenodd" clip-rule="evenodd" d="M62.556 21.406c-.336-.086-.633 0-.978 0-.46.114-.862.171-1.266.344.347-.23.692-.46 1.095-.575.29-.057.575-.23.864-.23.345-.057.69-.172.976-.057.289.115.75.115.807.287.116.345-.17.69-.518.92-.057.114.174.172.174.286-.06.115-.231.172-.346.172-.117.058-.23.23-.345.346.114 0 0 .172.114.172-.23.287.114.86-.23.976a2.609 2.609 0 01-1.325 0c.232-.058.52.057.693-.172v-.23c0-.058-.058-.058-.117-.058-.056.058-.116.058-.116.058 0-.114-.114-.23-.172-.23-.344.056-.63-.115-.862-.344.173-.057.345-.115.518-.057.174 0 .116-.287.288-.403h.172c.345-.459 1.037-.575 1.151-1.034 0-.114-.344-.114-.577-.171z" fill="#8A8B8A"/></g><defs><clipPath id="clip0"><path fill="#fff" d="M0 0h102v100H0z"/></clipPath></defs></svg>