<svg fill="none" xmlns="http://www.w3.org/2000/svg" viewBox="0 0 173 154"><path d="M66.126 146.448c.54 0 .989.45.81 1.438l-2.517.539c.36-1.078 1.168-1.977 1.707-1.977zm1.438 4.133h-.54c-.628.809-1.347 1.348-1.976 1.348s-1.078-.449-1.078-1.348c0-.359 0-.808.09-1.078l4.133-1.347c.808-1.887-.09-2.786-1.348-2.786-1.976 0-4.222 3.235-4.222 6.11 0 1.347.628 1.976 1.527 1.976 1.347 0 2.426-1.078 3.414-2.875zm-.898-6.019l2.875-2.696v-.359h-1.528l-1.797 2.965h.45v.09zm-8.805 1.886h1.347l-2.246 6.02c-.18.539.09.988.54.988 1.257 0 3.234-1.257 3.863-2.875h-.36c-.539.539-1.707 1.348-2.515 1.528l1.976-5.571h1.977l.18-.898h-1.977l.809-2.067h-.81l-1.437 2.067-1.707.18v.539h.36v.089zm-1.797-.179c.09-.539-.18-.899-.45-.899-1.257 0-2.515 1.078-3.234 2.516h.36c.359-.539.988-1.078 1.706-1.258l-2.335 5.93c-.18.539.18.898.449.898 1.078 0 2.426-1.078 2.965-2.515h-.36c-.36.539-.988 1.078-1.707 1.258l2.606-5.93zm.36-2.965c.538 0 .987-.449.987-.988 0-.54-.449-.989-.988-.989a.997.997 0 00-.988.989c-.09.539.36.988.988.988zm-13.118 9.074c-.36.629 0 1.078.629 1.078.449 0 .539-.089.808-.539l1.527-4.222c.81-.899 2.247-1.887 2.876-1.887.449 0 .359.359.09.898l-2.426 4.672c-.18.449.09.989.539.989 1.258 0 2.695-1.079 3.234-2.516h-.36c-.359.539-.988 1.078-1.706 1.258l2.066-4.223c.18-.539.45-.988.45-1.438 0-.628-.36-1.078-1.079-1.078-.988 0-2.066 1.078-3.324 2.516v-1.168c0-.809-.18-1.438-.988-1.438-.45 0-.899.36-1.348.899v.09c.809 0 1.078 1.078.539 2.336l-1.527 3.773zm0-5.211c.359-.988.09-1.797-.63-1.797-.898 0-1.077.629-1.976 2.516v-1.078c0-.809-.18-1.438-.988-1.438-.899 0-1.528 1.348-2.246 2.516h.359c.45-.539.809-.898 1.078-.898.27 0 .54.539 0 1.796l-1.707 3.594c-.36.629 0 1.078.629 1.078.45 0 .54-.089.809-.539l1.527-4.222c.45-.54.898-.989 1.348-1.528h1.797zm-9.255-.719c.54 0 .989.45.81 1.438l-2.517.539c.36-1.078 1.168-1.977 1.707-1.977zm1.438 4.133h-.539c-.629.809-1.348 1.348-1.977 1.348s-1.078-.449-1.078-1.348c0-.359 0-.808.09-1.078l4.133-1.347c.809-1.887-.09-2.786-1.348-2.786-1.976 0-4.223 3.235-4.223 6.11 0 1.347.63 1.976 1.528 1.976 1.348 0 2.426-1.078 3.414-2.875zm-9.793-4.133h1.348l-2.247 6.02c-.18.539.09.988.54.988 1.257 0 3.234-1.257 3.863-2.875h-.36c-.539.539-1.707 1.348-2.515 1.528l1.976-5.571h1.977l.18-.898H28.48l.809-2.067h-.54l-1.437 2.067-1.707.18v.628h.09zm-7.368 4.672c0-1.886 1.977-4.312 3.235-4.312.18 0 .45 0 .629.09l-1.258 3.234c-.629.899-1.797 1.887-2.246 1.887-.27-.09-.36-.27-.36-.899zm6.2-6.109h-.629l-.629.629h-.09c-3.414 0-6.289 3.773-6.289 6.559 0 .808.45 1.257 1.258 1.257.898 0 1.797-1.257 2.695-2.515v.449c-.09 1.348.36 2.066.988 2.066.899 0 1.528-1.347 2.247-2.515h-.36c-.449.539-.808.898-1.078.898s-.539-.539 0-1.797l1.887-5.031zm-7.278 2.156c.36-.988.09-1.797-.628-1.797-.899 0-1.079.629-1.977 2.516v-1.078c0-.809-.18-1.438-.989-1.438-.898 0-1.527 1.348-2.246 2.516h.36c.449-.539.808-.898 1.078-.898.36 0 .539.539 0 1.796l-1.707 3.594c-.36.629 0 1.078.629 1.078.449 0 .539-.089.808-.539l1.528-4.222c.449-.54.898-.989 1.348-1.528h1.796zm-11.41 6.02l.09-.449c-1.977-.36-2.246-.36-1.438-2.516l.809-2.246h2.246c.988 0 .988.449.898 1.437h.54l1.347-3.593h-.539c-.449.898-.898 1.437-1.976 1.437H5.66l1.078-3.145c.36-.988.54-1.257 1.887-1.257h.988c1.348 0 1.528.359 1.528 1.797h.539l.45-2.426H3.952l-.09.449c1.528.359 1.797.449.989 2.516l-1.797 4.851c-.809 1.977-1.078 2.246-2.875 2.516l-.18.449h5.84v.18zm40.34-25.337c.54 0 .989.45.81 1.438l-2.516.539c.359-1.078 1.168-1.977 1.707-1.977zm1.438 4.133h-.539c-.629.809-1.348 1.348-1.977 1.348-.628 0-1.078-.449-1.078-1.348 0-.359 0-.808.09-1.078l4.133-1.348c.809-1.886-.09-2.785-1.347-2.785-1.977 0-4.223 3.235-4.223 6.11 0 1.347.629 1.976 1.527 1.976 1.258 0 2.426-1.168 3.414-2.875zm-.808-6.019l2.875-2.696v-.359h-1.528l-1.797 2.965h.45v.09zm-8.985 1.886h1.348l-2.246 6.02c-.18.539.09.988.539.988 1.258 0 3.234-1.257 3.863-2.875h-.36c-.538.539-1.706 1.348-2.515 1.528l1.977-5.571h2.066l.18-.898H40.97l.808-2.067h-.808l-1.438 2.067-1.707.179v.629zm-1.797-.269c.09-.539-.18-.899-.45-.899-1.257 0-2.515 1.079-3.234 2.516h.36c.36-.539.988-1.078 1.707-1.258l-2.336 5.93c-.18.539.18.898.45.898 1.077 0 2.425-1.078 2.964-2.515h-.36c-.359.539-.988 1.078-1.706 1.258l2.605-5.93zm.36-2.965c.539 0 .988-.449.988-.988a.998.998 0 00-.988-.989c-.54 0-.989.45-.989.989.09.539.45.988.989.988zm-7.907 8.895l4.133-10.872-.09-.09-2.515.36v.359l.538.36c.45.359.36.629-.09 1.797l-3.234 8.535c-.18.449.09.988.54.988 1.257 0 2.425-1.078 2.964-2.515h-.36c-.448.359-1.167.988-1.886 1.078zm-7.906-.989c0-1.886 1.976-4.312 3.234-4.312.18 0 .45 0 .629.09l-1.258 3.234c-.629.899-1.797 1.887-2.246 1.887-.18-.18-.36-.36-.36-.899zm6.289-6.109h-.63l-.628.629h-.18c-3.414 0-6.289 3.773-6.289 6.558 0 .809.45 1.258 1.258 1.258.898 0 1.797-1.258 2.695-2.515v.449c-.09 1.348.36 2.066.989 2.066.898 0 1.527-1.347 2.246-2.515h-.36c-.449.539-.808.898-1.078.898-.36 0-.539-.539 0-1.797l1.977-5.031zm-15.094 9.883c0-.809.808-1.348 1.886-1.707.36.179.899.359 1.528.629 1.078.359 1.527.539 1.527.898 0 .809-1.257 1.348-2.875 1.348-1.437-.18-2.066-.449-2.066-1.168zm2.965-4.762c-.45 0-.63-.449-.63-.898 0-1.348.63-3.325 1.887-3.325.45 0 .63.45.63.899 0 1.258-.63 3.324-1.887 3.324zm3.324 3.953c0-.988-.899-1.347-2.246-1.707-1.258-.359-1.797-.449-1.797-.898 0-.36.18-.629.809-.989 1.976-.089 3.234-1.886 3.234-3.324 0-.359-.09-.539-.09-.808h1.707l.18-.899H17.16c-.359-.18-.628-.359-1.078-.359-2.066 0-3.414 1.797-3.414 3.324 0 1.078.63 1.797 1.528 1.977-.989.449-1.528.898-1.528 1.527 0 .359.09.539.45.809-2.247.628-3.145 1.437-3.145 2.425 0 .989 1.348 1.438 2.965 1.438 2.785.269 5.121-1.168 5.121-2.516zm-10.422-6.289c.988 0 .988.449.898 1.438h.54l1.347-3.594h-.629c-.449.898-.898 1.437-1.976 1.437H5.66l1.078-2.965c.36-.988.54-1.257 1.887-1.257h.988c1.348 0 1.528.359 1.528 1.796h.539l.45-2.425H3.952l-.09.449c1.528.359 1.797.449.989 2.516l-1.887 4.851c-.809 1.977-1.078 2.246-2.875 2.516l-.09.449h9.074l1.707-2.516h-.628c-.989.989-2.336 1.887-4.223 1.887-2.426 0-2.246-.09-1.438-2.336l.899-2.336 2.246.09zm1.168-6.289l2.875-1.977v-.359H9.883l-1.527 2.336h.449zm36.477-13.747c.54 0 .989.45.809 1.438l-2.516.539c.27-1.078.988-1.977 1.707-1.977zm1.348 4.133h-.54c-.628.809-1.347 1.348-1.976 1.348s-1.078-.449-1.078-1.348c0-.449 0-.808.09-1.078l4.133-1.347c.809-1.887-.09-2.786-1.348-2.786-1.976 0-4.223 3.235-4.223 6.11 0 1.348.63 1.976 1.528 1.976 1.258 0 2.515-1.078 3.414-2.875zm-.809-6.019l2.875-2.696v-.359H47.17l-1.797 2.965h.45v.09zm-8.535 1.886h1.078l-2.246 6.02c-.18.539.09.988.539.988 1.258 0 3.235-1.257 3.863-2.875h-.359c-.539.539-1.527 1.348-2.516 1.528l1.977-5.571h1.977l.18-.898h-1.977l.898-2.067h-.809l-1.437 2.067-1.438.18v.539h.27v.089zm-1.078.719c.36-.988.09-1.797-.63-1.797-.898 0-1.077.629-1.976 2.516v-1.078c0-.809-.18-1.438-.988-1.438-.898 0-1.527 1.348-2.246 2.516h.36c.448-.539.808-.898 1.077-.898.36 0 .54.539 0 1.796l-1.527 3.594c-.36.629 0 1.078.629 1.078.45 0 .539-.089.808-.539l1.708-4.133c.449-.539.898-.988 1.347-1.527h1.438v-.09zm-9.164-.719c.539 0 .988.45.808 1.438l-2.515.539c.359-1.078 1.078-1.977 1.707-1.977zm1.437 4.133h-.539c-.629.809-1.348 1.348-1.977 1.348-.628 0-1.078-.449-1.078-1.348 0-.449 0-.808.09-1.078l4.133-1.347c.809-1.887-.09-2.786-1.348-2.786-1.976 0-4.222 3.235-4.222 6.11 0 1.348.629 1.976 1.527 1.976 1.348 0 2.426-1.078 3.414-2.875zm-10.153 1.618c-.449 0-.988-.36-.988-.629 0-.09.18-.539.45-1.078l.628-1.797c.63-.899 1.797-1.797 2.426-1.797.36 0 .63.179.63.808 0 1.618-1.528 4.493-3.146 4.493zm4.762-5.211c0-1.258-.449-1.708-1.347-1.708-.989 0-1.977 1.079-2.965 2.426l2.426-6.558-.09-.09-2.516.359v.359l.54.36c.448.359.358.808-.09 1.797l-2.696 6.918c-.18.539-.45 1.078-.45 1.258 0 .629.989 1.347 1.888 1.347 1.796 0 5.3-3.683 5.3-6.468zm-8.176-.719c.09-.539-.18-.899-.449-.899-1.258 0-2.515 1.078-3.234 2.516h.36c.359-.539.987-1.078 1.706-1.258l-2.336 5.93c-.18.539.18.898.45.898 1.078 0 2.425-1.078 2.964-2.515h-.36c-.359.539-.987 1.078-1.706 1.258l2.605-5.93zm.36-3.055a.997.997 0 00.988-.988.998.998 0 00-.988-.989c-.54 0-.988.45-.988.989.09.539.449.988.988.988zm-6.02-.988h-5.39l-.09.449c1.527.359 1.796.449.988 2.516l-1.797 4.851c-.809 1.977-1.078 2.246-2.875 2.516l-.09.449h8.176l1.797-3.234h-.54c-.988 1.078-2.245 2.515-4.042 2.515-1.348 0-1.528-.179-.809-2.336l1.797-4.851c.809-1.977 1.078-2.246 2.875-2.516v-.359z" fill="#000"/><path d="M30.637 23.81l.899-.9c.539-.628 1.078-1.257 1.707-1.796.18-.18.36-.36.539-.45 0 0 0-.09.09-.18-.18.09-.45.36-.629.45 0 0-.09 0 0-.09.18-.09.36-.18.539-.449v-.09c-.629-.09-1.258.36-1.707.809h-.18c-.808.18-1.347.898-2.066 1.258v-.09c-.36.09-.54.36-.899.36-.449.089-.898 0-1.258 0-.628.089-1.257.179-1.886.358-.36.09-.63.18-.989.36 0 0 0 .09-.09.09l-.359.36c-.36.089-.539.448-.898.628h-.09l-.809.809h-.09c0-.09.09-.09.09-.18s.09-.09.09-.18c.09-.09.09-.18.18-.36v-.089h-.09c.18-.18.54-.45.898-.629h-.09l.09-.09c-.09 0-.18.09-.18.18-.09.09-.179.36-.449.36h-.09v-.09s0-.09.09-.09v-.54l.36-.359c.18-.09.45-.18.539-.36 0 0 .09 0 .09-.09-.36.09-.54.18-.809.45H23c0-.09.18-.09.36-.18h.09c1.707-1.257 3.863-.988 5.75-1.707.09-.09.36-.18.45-.359.179-.09.448-.36.808-.539.449-.36.629-.629.898-1.258v-.09a10.582 10.582 0 01-2.246 1.707c-1.078.54-2.246.45-3.324.63 0-.09.09-.09.18-.09 0-.09.09-.18.18-.36h.179s0-.09.09-.09h.18c-.09-.18-.45.09-.63 0 .09-.09 0-.18.09-.36h.27c0-.089.09-.179.09-.179.808-.45 1.437-.808 2.246-1.258-.09 0-.18.09-.45 0 .09 0 0-.09.09-.09.54-.09.989-.449 1.528-.629-.18 0-.36.09-.54 0 .09 0 .09-.09.36-.09v-.09h.09-.09c0-.089.18 0 .36-.089h-.09c.09-.18.449-.18.629-.36 0-.09-.18 0-.18-.09h.09-.09c-.09 0 0-.09 0-.179.36-.36.36-.809.45-1.258h-.09c-.54.54-1.348.809-2.067.988h-.18c-.18.09-.629.09-.898 0-.18-.09-.36-.18-.54-.449-.449-.18-.808-.449-1.257-.629a9.385 9.385 0 00-3.864-.539c.54-.36 1.258-.36 1.797-.539.899-.18 1.707-.539 2.516-.539h-.54c-.628 0-1.437.09-2.245.36-.54.09-.988.359-1.438.449-.36.09-.449.449-.808.36v-.09c.539-.63 1.078-1.259 1.886-1.259.899-.09 1.797 0 2.696.09.629 0 1.258.18 1.886.36.18 0 .36.449.54.449.359.09.628 0 .898.18v-.36c.18-.18.45 0 .629 0 .45-.18-.36-.629-.54-1.078v-.09c.45.36.63.809 1.259.989.18.09.898.18.808 0-.18-.54-.808-.989-1.257-1.528v-.45c-.09 0-.09 0-.09-.089v-.18c-.18-.09-.09-.359-.18-.449-.09-.18 0-.629-.09-.898-.09-.36-.09-.54-.18-.899-.09-.898-.359-1.707-.449-2.426-.09-.988.54-1.796.989-2.515.359-.63.808-1.258 1.437-1.707.09-.63.54-1.078.988-1.707.45-.45 1.079-.809 1.528-.989C34.59.18 35.22 0 35.22 0h9.972l.18.09c.18.09.54.36.809.45.36.179.808.448.988.808.09.09.18.449.09.629s-.09.629-.45.808c-.359.09-.628.09-1.078.09-.18 0-.449 0-.628-.09.808.36 1.437.63 1.976 1.348 0 .09.18.09.45.09v.09c-.09.09-.18.09-.09.359h.359c.18-.09.18-.629.539-.45.18.09.36.54.18.81-.18.179-.45.359-.63.538v.36c.09.18.18.449.18.629.09.36.18.808.36 1.078.36.808.539 1.527.45 2.336 0 .45-.18.808 0 1.258.089.449.358.629.538 1.078.18.36.45.539.54.809.359.538.898.988.628 1.707-.09.359-.629.359-1.078.539-.36.18 0 .628.09.898.18.45-.36.809-.629.898.09.09.36.09.36.18 0 .18.359.45.09.63-.18.358-.81.448-.54.898.18.359.09.808 0 1.078-.09.449-.539.629-.898.808-.36.09-.63.09-.989 0-.09 0-.18-.09-.359-.09-.899-.09-1.797-.359-2.516-.359-.18 0-.539.09-.629.18-.18.18-.449.36-.629.539l-.09.09-.09.09c-.09.18-.359.359-.449.539v.09c-.18.359-.359.628-.359.898-.36 1.258-.18 2.246 0 2.426.09.09 1.707.539 2.785 1.078.54.18.899.45 1.258.539H24.708c.988-.629 1.886-.988 3.324-1.707.719-.09 2.156-.809 2.605-1.258zm-7.816-3.595h-.18c0-.18.45-.18.63-.36.089 0 .179-.089.358-.089.09.09.18.09.36.18-.36.27-.809 0-1.168.27zm-7.907-1.258a28.534 28.534 0 001.528-2.695c.629-.36 1.258-.898 1.797-1.438.898-.898 1.797-1.796 2.875-2.246.449-.09.898-.09 1.348 0-.09.18-.45.09-.63.36h-.09v-.09c-.538.539-1.257.808-1.706 1.437-.36.54-.54 1.258-1.258 1.348-.18 0 0-.09 0-.09-1.348.989-2.516 2.067-3.864 3.414zm4.403-3.324c0 .09-.09.09-.09.18s-.09.09-.18.18h-.09c-.09-.18 0-.36.36-.36 0-.09 0 0 0 0zm2.336 7.637c0 .09-.09.09-.09.09.09 0 .09 0 .09.09-.09.09-.18.18-.36.18h-.09l-.18.18c-.089 0-.358 0-.179-.09l.36-.36.18-.18.09-.09c-.09.09.179.09.179.18zm-.899-.45c-.18.09-.449.36-.539.45-.18.09-.449.18-.629.36h-.09c-.18.09-.359.18-.538.449l-.09.09-.09.09-.09.09-.09.089h-.27c-.09 0-.09.09-.18.09l-.358.36v-.09c0-.09.09-.09.09-.18v-.09l.09-.09c.089-.09.089-.09.089-.18 0 0 0-.09.09-.09 0 0 0-.09.09-.09v-.269c.09-.09.09-.18.18-.18-.09 0-.09.09-.18.09 0 0-.09 0-.09-.09l.09-.09c.09-.09.09-.18.18-.18s.09-.089.09-.089l.09-.09c.448-.45 1.347-.45 1.976-.808.18-.09.539 0 .808 0 .09 0 .36 0 .45.09-.36-.18-.81.18-1.079.359zm.989-3.503s.09 0 .18-.09h-.45v-.09c-.18 0-.539.09-.808.18-.36.09-.63.36-1.079.449-.539.18-.988.629-1.707.899v-.09c0-.09.18-.18.36-.36v-.18c.449-.538.988-.898 1.437-1.347v-.09c.09-.18.45-.36.54-.539 0-.09.179-.36.538-.45 0 0-.09 0-.09-.09-.18 0-.449.09-.628 0 .09-.089.18-.089.359-.179 0 0-.09 0-.09-.09s.09-.18.18-.18c.18 0 .45 0 .629-.179-.36 0-.809.09-1.078-.09.18-.629.629-1.258 1.347-1.527h.09c0 .18-.09.449-.45.539.45.09.81.09 1.259.36 0 .09-.09 0-.18 0 .18.09.54 0 .809.179-.09.09-.36 0-.45 0 1.528.45 3.235.808 4.583 1.887-1.079.539-2.336.808-3.594 1.078H23v.09c-.18 0-.359 0-.538.09-.27-.09-.54 0-.72-.18" fill="#fff"/><path d="M30.637 23.81l.899-.9c.539-.628 1.078-1.257 1.707-1.796.18-.18.36-.36.539-.45 0 0 0-.09.09-.18-.18.09-.45.36-.63.45 0 0-.089 0 0-.09.18-.09.36-.18.54-.449v-.09c-.629-.09-1.258.36-1.707.809h-.18c-.808.18-1.347.898-2.066 1.258v-.09c-.36.09-.54.36-.899.36-.449.089-.898 0-1.258 0-.628.089-1.257.179-1.886.358-.36.09-.63.18-.989.36 0 0 0 .09-.09.09l-.359.36c-.36.089-.539.448-.898.628h-.09l-.809.809h-.09c0-.09.09-.09.09-.18s.09-.09.09-.18c.09-.09.09-.18.18-.36v-.089h-.09c.18-.18.54-.45.898-.629h-.09l.09-.09c-.09 0-.18.09-.18.18-.09.09-.179.36-.449.36h-.09v-.09s0-.09.09-.09v-.54l.36-.359c.18-.09.45-.18.539-.36 0 0 .09 0 .09-.089-.36.09-.54.18-.809.45H23c0-.09.18-.09.36-.18h.09c1.707-1.258 3.863-.989 5.75-1.708.09-.09.36-.18.45-.359.179-.09.448-.36.808-.539.449-.36.629-.629.898-1.258v-.09a10.586 10.586 0 01-2.246 1.707c-1.078.54-2.246.45-3.324.63 0-.09.09-.09.18-.09 0-.09.09-.18.18-.36h.179s0-.09.09-.09h.18c-.09-.18-.45.09-.63 0 .09-.09 0-.18.09-.36h.27c0-.089.09-.179.09-.179.808-.45 1.437-.808 2.246-1.258-.09 0-.18.09-.45 0 .09 0 0-.09.09-.09.54-.09.989-.449 1.528-.629-.18 0-.36.09-.54 0 .09 0 .09-.09.36-.09v-.09h.09-.09c0-.089.18 0 .36-.089h-.09c.09-.18.449-.18.629-.36 0-.09-.18 0-.18-.09h.09-.09c-.09 0 0-.09 0-.179.36-.36.36-.808.45-1.258h-.09c-.54.54-1.348.809-2.067.988h-.18c-.18.09-.629.09-.898 0-.18-.09-.36-.18-.54-.449-.449-.18-.808-.449-1.257-.629a9.386 9.386 0 00-3.864-.539c.54-.36 1.258-.36 1.797-.539.899-.18 1.707-.539 2.516-.539h-.54c-.628 0-1.437.09-2.245.36-.54.09-.989.359-1.438.449-.36.09-.449.449-.808.36v-.09c.539-.63 1.078-1.258 1.886-1.258.899-.09 1.797 0 2.696.09.629 0 1.258.179 1.886.359.18 0 .36.449.54.449.359.09.628 0 .898.18v-.36c.18-.18.45 0 .629 0 .45-.18-.36-.629-.54-1.078v-.09c.45.36.63.809 1.259.989.18.09.898.18.808 0-.18-.54-.808-.989-1.257-1.528v-.45c-.09 0-.09 0-.09-.089v-.18c-.18-.09-.09-.359-.18-.449-.09-.18 0-.629-.09-.898-.09-.36-.09-.54-.18-.899-.09-.898-.359-1.707-.449-2.426-.09-.988.54-1.796.989-2.515.359-.63.808-1.258 1.437-1.707.09-.63.54-1.078.988-1.707.45-.45 1.079-.809 1.528-.989C34.59.18 35.219 0 35.219 0H0v26.954h24.797c.989-.63 1.887-.989 3.325-1.707.629-.27 2.066-.989 2.515-1.438zm-7.816-3.595h-.18c0-.18.45-.18.63-.36.089 0 .179-.089.358-.089.09.09.18.09.36.18-.36.27-.809 0-1.168.27zm-7.727-1.258s-.18 0 0 0a28.556 28.556 0 001.528-2.695c.628-.36 1.257-.898 1.796-1.438.899-.898 1.797-1.796 2.876-2.246.449-.09.898-.09 1.347 0-.09.18-.45.09-.629.36h-.18v-.09c-.539.539-1.257.808-1.707 1.438-.359.539-.539 1.257-1.257 1.347-.18 0 0-.09 0-.09-1.438.989-2.606 2.067-3.774 3.414zm4.223-3.324c0 .09-.09.09-.09.18s-.09.09-.18.18h-.09c-.09-.18 0-.36.36-.36 0-.09 0 0 0 0zm2.336 7.637c0 .09-.09.09-.09.09.09 0 .09 0 .09.09-.09.09-.18.18-.36.18h-.09l-.18.18c-.089 0-.358 0-.179-.09l.36-.36.18-.18.09-.09c-.09.09.179.09.179.18zm-.899-.45c-.18.09-.449.36-.539.45-.18.09-.449.18-.629.36h-.09c-.18.09-.359.18-.538.449l-.09.09-.09.09-.09.09-.09.089h-.27c-.09 0-.09.09-.18.09l-.358.36v-.09c0-.09.09-.09.09-.18v-.09l.09-.09c.089-.09.089-.09.089-.18 0 0 0-.09.09-.09 0 0 0-.09.09-.09v-.269c.09-.09.09-.18.18-.18-.09 0-.09.09-.18.09 0 0-.09 0-.09-.09l.09-.09c.09-.09.09-.18.18-.18s.09-.089.09-.089l.09-.09c.448-.449 1.347-.449 1.976-.808.18-.09.539 0 .808 0 .09 0 .36 0 .45.09-.36-.18-.63.18-1.079.359zm.989-3.503s.09 0 .18-.09h-.45v-.09c-.18 0-.539.09-.808.18-.36.09-.63.36-1.079.45-.539.179-.988.628-1.707.898v-.09c0-.09.18-.18.36-.36v-.18c.449-.538.988-.898 1.437-1.347v-.09c.09-.18.45-.36.54-.539 0-.09.179-.36.538-.45 0 0-.09 0-.09-.09-.18 0-.449.09-.628 0 .09-.089.18-.089.359-.179 0 0-.09 0-.09-.09s.09-.18.18-.18c.18 0 .45 0 .629-.179-.36 0-.809.09-1.078-.09.18-.629.628-1.258 1.347-1.527h.09c0 .18-.09.449-.45.539.45.09.81.09 1.259.36 0 .09-.09 0-.18 0 .18.09.54 0 .809.179-.09.09-.36 0-.45 0 1.528.45 3.235.808 4.583 1.887-1.079.539-2.336.808-3.594 1.078H23v.09c-.18 0-.359 0-.539.09-.27-.09-.539 0-.718-.18" fill="#000091"/><path d="M74.302 0h-29.11l.18.09c.18.09.54.36.809.45.36.179.808.448.988.808.09.09.18.449.09.629s-.09.629-.45.808c-.359.09-.628.09-1.078.09-.18 0-.449 0-.628-.09.808.36 1.437.63 1.976 1.348 0 .09.18.09.45.09v.09c-.09.09-.18.09-.09.359h.359c.18-.09.18-.629.539-.45.18.09.36.54.18.81-.18.179-.45.359-.63.538v.36c.09.18.18.449.18.629.09.36.18.808.36 1.078.36.808.539 1.527.45 2.336 0 .45-.18.808 0 1.258.089.449.358.629.538 1.078.18.36.45.539.54.809.359.538.898.988.628 1.707-.09.359-.629.359-1.078.539-.36.18 0 .628.09.898.18.45-.36.809-.63.898.09.09.36.09.36.18 0 .18.36.45.09.63-.18.358-.808.448-.539.898.18.359.09.808 0 1.078-.09.449-.539.629-.898.808-.36.09-.63.09-.989 0-.09 0-.18-.09-.359-.09-.899-.09-1.797-.359-2.516-.359-.18 0-.539.09-.629.18-.18.18-.449.36-.629.539l-.09.09-.09.09c-.09.18-.359.359-.449.539v.09c-.18.359-.359.628-.359.898-.36 1.258-.18 2.246 0 2.426.09.09 1.707.539 2.785 1.078.54.18.899.45 1.258.539h28.571V0h-.18z" fill="#E1000F"/><path d="M46.9 9.883c.18 0 .538 0 .538.09-.09.449-.628.539-.988.898h-.09c-.09.09-.09.36-.18.36h-.449c.18.18.45.359.81.359 0 0 .089.09.089.18h.18v.18c-.09.18-.45.09-.63.09.45.09.81.09 1.258 0 .36-.09 0-.63.18-.9-.09 0 0-.089-.09-.089l.36-.36c.09 0 .18 0 .36-.09 0-.09-.18-.09-.09-.179.359-.18.538-.539.448-.809 0-.09-.449-.09-.628-.18-.18-.09-.54 0-.899 0-.18 0-.539.09-.809.18-.628.09-.898.36-1.257.45.36-.09.629-.18 1.078-.36.27.18.539 0 .809.18" fill="#9C9B9B"/><path d="M0 60.825V40.7h5.121l4.852 8.266 4.851-8.266h5.212v20.125h-4.044V46.45L11.5 53.907H8.625L4.133 46.45v14.286H0v.09zm25.876 0V40.7h4.043v20.125h-4.043zm10.062 0V40.7h5.211l8.985 14.375V40.7h4.043v20.125h-5.211L39.98 46.36v14.465h-4.043zm24.169 0V40.7h4.043v20.125h-4.043zm8.266-2.785l2.965-2.695c.628.809 1.257 1.348 2.066 1.797a4.89 4.89 0 002.426.629c.808 0 1.437-.18 1.887-.63.449-.448.718-.987.718-1.706 0-.899-.449-1.617-1.437-2.067-.989-.449-1.977-.988-3.145-1.527-1.168-.54-2.246-1.258-3.144-2.156-.989-.899-1.438-2.157-1.438-3.774 0-.809.18-1.527.45-2.246.359-.719.718-1.348 1.347-1.887.629-.539 1.258-.988 2.066-1.258.809-.27 1.618-.449 2.606-.449 1.527 0 2.875.27 4.043.899 1.168.629 2.156 1.437 3.055 2.425l-2.965 2.696a8.702 8.702 0 00-1.887-1.797c-.629-.45-1.348-.719-2.156-.719-.719 0-1.258.18-1.707.629-.45.36-.63.898-.63 1.527 0 .899.45 1.618 1.438 2.067.989.45 1.977.988 3.145 1.527 1.168.54 2.246 1.258 3.145 2.156.988.899 1.437 2.157 1.437 3.864 0 .898-.18 1.797-.539 2.516-.36.718-.809 1.347-1.438 1.886a5.873 5.873 0 01-2.066 1.168c-.809.27-1.707.45-2.605.45-1.708 0-3.145-.27-4.313-.899-1.438-.539-2.516-1.437-3.324-2.426zm16.441-13.656V40.7h16.532v3.684h-6.2v16.441h-4.132V44.385h-6.2zm20.395 16.441V40.7h11.77v3.504h-7.637v4.582h6.469v3.504h-6.469v5.032h7.637v3.503h-11.77zm4.043-21.832l-3.683-3.863h4.222l3.235 3.863h-3.774zm12.759 21.832V40.7h6.109c2.246 0 3.953.54 5.211 1.617 1.258 1.078 1.887 2.516 1.887 4.403 0 1.168-.27 2.246-.809 3.144a5.228 5.228 0 01-2.336 2.067l6.289 8.895h-4.851l-5.391-8.176h-2.066v8.175h-4.043zm6.379-16.621h-2.336v5.031h2.336c.898 0 1.527-.18 1.976-.629.449-.449.719-1.078.719-1.886 0-.809-.27-1.348-.719-1.797-.449-.54-1.168-.719-1.976-.719zm12.848 16.621V40.7h11.769v3.504h-7.637v4.582h6.469v3.504h-6.469v5.032h7.637v3.503h-11.769zM0 89.576V69.451h7.906c1.618 0 3.055.27 4.403.808 1.348.54 2.426 1.258 3.414 2.157.899.898 1.617 1.976 2.156 3.234a9.612 9.612 0 01.809 3.863c0 1.348-.27 2.606-.809 3.864s-1.258 2.246-2.156 3.234c-.899.899-2.066 1.617-3.414 2.156-1.348.54-2.785.81-4.403.81H0zm7.996-16.442H4.133v12.668h3.863c.899 0 1.797-.18 2.606-.449.808-.36 1.437-.808 2.066-1.347.54-.54.989-1.258 1.348-2.067.36-.808.45-1.617.45-2.515 0-.899-.18-1.708-.45-2.516a6.398 6.398 0 00-1.348-1.977c-.539-.539-1.258-.988-2.066-1.347-.809-.27-1.707-.45-2.606-.45zm26.685 8.895V69.451h4.043V81.67c0 2.605-.72 4.672-2.157 6.199-1.437 1.527-3.414 2.246-5.93 2.246-2.515 0-4.492-.719-5.93-2.246-1.437-1.527-2.156-3.594-2.156-6.2V69.452h4.043v12.578c0 1.348.36 2.426 1.078 3.145.72.718 1.708 1.168 2.965 1.168 1.258 0 2.246-.36 2.965-1.168.72-.72 1.079-1.797 1.079-3.145zm15.183-8.895v-3.683h16.532v3.683h-6.2v16.442h-4.042V73.134h-6.29zM70.17 89.576V69.451h6.109c2.246 0 3.953.539 5.211 1.617 1.258 1.078 1.887 2.516 1.887 4.402 0 1.168-.27 2.246-.809 3.145a5.23 5.23 0 01-2.336 2.066l6.29 8.895H81.67L76.279 81.4h-2.066v8.176H70.17zm6.379-16.621h-2.336v5.031h2.336c.898 0 1.527-.18 1.976-.629.45-.45.719-1.078.719-1.887 0-.808-.27-1.347-.719-1.797-.36-.539-1.078-.718-1.976-.718zm11.23 16.621l7.637-20.125h5.391l7.637 20.125h-4.313l-1.887-5.211h-8.086l-1.886 5.211h-4.493zm7.547-8.715h5.481l-2.785-7.547-2.696 7.547zm12.13-11.41h4.312l5.93 15.723 5.93-15.723h4.312l-7.637 20.125h-5.39l-7.457-20.125zm19.676 20.125l7.637-20.125h5.39l7.637 20.125h-4.312l-1.887-5.211h-8.086l-1.887 5.211h-4.492zm7.547-8.715h5.48l-2.785-7.547-2.695 7.547zm16.442 8.715V69.451h4.043v20.125h-4.043zm9.972 0V69.451h4.043v16.441h7.637v3.684h-11.68z" fill="#000"/></svg>