<svg xmlns="http://www.w3.org/2000/svg" viewBox="0 0 831 663"><g fill="none" fill-rule="nonzero"><path fill="#000" d="M20.21 661.703l.466-1.433c-6.16-1.16-6.95-1.16-4.496-7.875l2.504-6.899h6.804c3.059 0 3.106 1.25 2.64 4.586h1.763l4.074-11.16h-1.762c-1.527 2.637-2.73 4.582-6.066 4.582h-6.711l3.562-9.77c1.114-3.101 1.762-3.75 5.926-3.75h2.965c4.308 0 4.816 1.157 4.816 5.508h1.715l1.434-7.594H14.28l-.46 1.438c4.952 1.02 5.417 1.48 3.1 7.871l-5.554 15.188c-2.316 6.343-3.289 6.855-8.984 7.875l-.418 1.433H20.21zm35.474-18.613c.879-3.012.414-5.653-1.903-5.653-2.73 0-3.426 2.086-6.203 8.06v-3.427c0-2.457-.789-4.633-3.012-4.633-2.59 0-4.953 4.032-6.757 8.012h1.203c1.25-1.804 2.406-2.87 3.332-2.87 1.113 0 1.715 1.714 0 5.51l-5 11.114c-.926 2.082.047 3.426 2.086 3.426 1.25 0 1.804-.324 2.312-1.668l4.91-13.012c1.387-1.71 2.637-3.195 4.211-4.86h4.82zm22.504-6.719l-1.946-.137-2.18 2.13h-.46c-10.559 0-19.68 11.855-19.68 20.468 0 2.406 1.48 3.797 3.797 3.797 2.73 0 5.418-3.89 8.426-8.059l-.137 1.485c-.371 4.258.926 6.574 3.148 6.574 2.594 0 4.953-4.027 6.762-8.012h-1.203c-1.25 1.805-2.41 2.871-3.336 2.871-.973 0-1.668-1.758 0-5.508l6.808-15.609zM58.69 655.406c0-5.695 6.344-13.43 9.91-13.43.786 0 1.528.094 2.176.278l-3.707 9.863c-2.129 2.594-5.418 5.742-6.945 5.742-.879 0-1.434-.742-1.434-2.453zm23.383-14.402h4.262l-6.762 18.476c-.601 1.575.23 3.149 1.852 3.149 3.844 0 10.05-3.797 12.226-8.984H92.45c-1.715 1.808-5.004 4.214-7.828 4.722l6.207-17.363h6.344l.785-2.64h-6.156l2.36-6.669h-2.454l-4.398 6.668-5.235.742v1.899zm30.239 12.687h-1.575c-1.992 2.364-4.12 4.215-6.25 4.215-2.175 0-3.289-1.297-3.289-4.215 0-1.203.14-2.406.371-3.52l12.828-4.21c2.5-5.93-.511-8.524-4.03-8.524-6.063 0-12.966 10.145-12.966 19.036 0 3.98 1.899 6.156 4.864 6.156 3.472 0 7.086-3.379 10.046-8.938zm-4.399-12.828c1.715 0 3.195 1.297 2.406 4.586l-7.965 1.852c1.391-3.703 3.707-6.438 5.56-6.438zm28.434 2.227c.879-3.012.418-5.653-1.899-5.653-2.734 0-3.43 2.086-6.207 8.06v-3.427c0-2.457-.785-4.633-3.008-4.633-2.593 0-4.957 4.032-6.761 8.012h1.203c1.25-1.804 2.41-2.87 3.336-2.87 1.11 0 1.71 1.714 0 5.51l-5 11.114c-.93 2.082.043 3.426 2.082 3.426 1.25 0 1.804-.324 2.312-1.668l4.91-13.012c1.391-1.71 2.641-3.195 4.215-4.86h4.817zm.09 16.113c-.926 2.082.046 3.426 2.085 3.426 1.25 0 1.805-.324 2.317-1.668l4.906-13.012c2.27-2.777 6.945-5.742 8.8-5.742 1.34 0 1.157 1.113.274 2.777l-7.547 14.496c-.738 1.434.235 3.149 1.856 3.149 3.703 0 8.101-3.336 9.86-8.012h-1.204c-1.203 1.715-3.238 3.613-5.14 3.938l6.484-13.106c.836-1.668 1.25-3.242 1.25-4.492 0-2.129-1.203-3.52-3.426-3.52-3.195 0-6.437 3.614-10.281 8.06v-3.427c0-2.457-.785-4.633-3.008-4.633-1.39 0-2.734 1.204-3.984 2.918v.465c2.41-.14 3.472 3.473 1.761 7.27l-5.004 11.113zm40.796-28.34a3.052 3.052 0 003.055-3.054c0-1.668-1.387-3.059-3.055-3.059a3.052 3.052 0 00-3.054 3.059c0 1.71 1.34 3.054 3.054 3.054zm-1.297 9.262c.508-1.715-.648-2.688-1.527-2.688-3.707 0-8.101 3.336-9.863 8.012h1.203c1.203-1.715 3.242-3.613 5.14-3.937l-7.085 18.43c-.649 1.714.648 2.687 1.53 2.687 3.52 0 7.642-3.379 9.4-8.012h-1.204c-1.207 1.715-3.242 3.613-5.14 3.938l7.547-18.43zm5.743.879h4.257l-6.757 18.476c-.602 1.575.23 3.149 1.851 3.149 3.844 0 10.047-3.797 12.227-8.984h-1.203c-1.715 1.808-5.004 4.214-7.828 4.722l6.207-17.363h6.34l.788-2.64h-6.16l2.364-6.669h-2.453l-4.403 6.668-5.23.742v1.899zm27.691-5.926l9.027-8.43v-.972h-4.859l-5.559 9.402h1.391zm2.547 18.613h-1.574c-1.992 2.364-4.121 4.215-6.25 4.215-2.18 0-3.29-1.297-3.29-4.215 0-1.203.137-2.406.372-3.52l12.824-4.21c2.504-5.93-.508-8.524-4.027-8.524-6.067 0-12.965 10.145-12.965 19.036 0 3.98 1.898 6.156 4.86 6.156 3.476 0 7.085-3.379 10.05-8.938zm-4.398-12.828c1.71 0 3.195 1.297 2.406 4.586l-7.965 1.852c1.39-3.703 3.703-6.438 5.559-6.438zM29.379 567.746l9.031-6.207v-.969h-5.465l-5 7.176h1.434zm-3.703 19.402c3.054 0 3.101 1.25 2.637 4.586h1.761l4.074-11.16h-1.757c-1.532 2.64-2.735 4.582-6.067 4.582H19.61l3.38-9.304c1.113-3.106 1.761-3.707 5.925-3.707h2.965c4.308 0 4.816 1.16 4.816 5.464h1.715l1.434-7.593H14.28l-.46 1.433c4.952 1.02 5.417 1.485 3.1 7.875l-5.554 15.188c-2.316 6.343-3.289 6.851-8.984 7.87l-.418 1.438h28.433l5.094-8.058h-1.945c-3.242 3.054-7.317 5.972-13.012 5.972-7.547 0-6.855-.324-4.355-7.222l2.687-7.364h6.809zm32.367 19.82c0-2.964-2.64-4.03-6.945-5.323-3.703-1.114-5.371-1.438-5.371-2.641 0-.973.785-2.129 2.363-2.965 6.062-.324 10-5.789 10-10.371 0-.973-.188-1.809-.512-2.547h5.145l.785-2.64h-8.153a6.283 6.283 0 00-3.285-.926c-6.437 0-10.605 5.648-10.605 10.234 0 3.473 2.222 5.649 4.91 6.156-3.012 1.344-4.68 2.918-4.68 4.774 0 1.062.371 1.804 1.25 2.5-6.945 2.035-9.675 4.351-9.675 7.64 0 3.196 4.214 4.536 9.214 4.536 8.477 0 15.559-4.582 15.559-8.426zm-10.047-12.687c-1.527 0-2.133-1.297-2.133-2.777 0-4.125 2.227-10.192 5.7-10.192 1.527 0 2.128 1.297 2.128 2.782 0 4.12-2.222 10.187-5.695 10.187zm-9.586 14.957c0-2.457 2.36-3.984 5.742-5.328 1.11.559 2.778 1.16 5 1.903 3.52 1.156 4.864 1.62 4.864 2.683 0 2.27-3.844 3.984-9.078 3.984-4.399 0-6.528-.925-6.528-3.242zm47.14-30.75l-1.945-.136-2.175 2.128h-.465c-10.559 0-19.68 11.856-19.68 20.47 0 2.405 1.48 3.796 3.797 3.796 2.73 0 5.418-3.89 8.43-8.058l-.14 1.484c-.372 4.258.925 6.574 3.148 6.574 2.593 0 4.957-4.027 6.761-8.012h-1.207c-1.25 1.805-2.406 2.871-3.332 2.871-.972 0-1.668-1.757 0-5.511l6.809-15.606zM66.056 597.52c0-5.696 6.343-13.426 9.91-13.426.785 0 1.527.093 2.176.277l-3.704 9.863c-2.132 2.594-5.417 5.743-6.949 5.743-.879 0-1.433-.743-1.433-2.457zm24.543 3.152l12.918-33.852-.418-.508-8.102.926v.973l1.574 1.203c1.434 1.11.973 2.176-.324 5.602l-10.098 26.582c-.738 1.433.235 3.148 1.856 3.148 3.703 0 7.64-3.336 9.398-8.012H96.2c-1.203 1.715-3.703 3.614-5.601 3.938zm24.632-27.692a3.056 3.056 0 003.06-3.058c0-1.664-1.392-3.055-3.06-3.055a3.054 3.054 0 00-3.054 3.055 3.026 3.026 0 003.054 3.058zm-1.296 9.258c.511-1.71-.649-2.683-1.528-2.683-3.703 0-8.101 3.336-9.863 8.011h1.203c1.203-1.714 3.242-3.613 5.14-3.937l-7.081 18.43c-.653 1.714.644 2.687 1.527 2.687 3.52 0 7.64-3.383 9.398-8.012h-1.203c-1.203 1.715-3.242 3.614-5.14 3.938l7.547-18.434zm5.742.883h4.261l-6.761 18.477c-.602 1.574.23 3.148 1.851 3.148 3.844 0 10.047-3.797 12.227-8.984h-1.203c-1.715 1.804-5.004 4.215-7.828 4.722l6.207-17.363h6.343l.786-2.64h-6.16l2.363-6.668h-2.453l-4.399 6.667-5.234.743v1.898zm27.691-5.93l9.031-8.425v-.973h-4.863l-5.555 9.398h1.387zm2.547 18.618h-1.574c-1.992 2.363-4.121 4.214-6.25 4.214-2.18 0-3.29-1.296-3.29-4.214 0-1.204.137-2.41.372-3.52l12.824-4.215c2.504-5.926-.508-8.52-4.027-8.52-6.067 0-12.965 10.141-12.965 19.032 0 3.984 1.898 6.16 4.86 6.16 3.476 0 7.085-3.383 10.05-8.937zm-4.398-12.829c1.714 0 3.195 1.297 2.406 4.586l-7.965 1.852c1.39-3.703 3.707-6.438 5.559-6.438zM31.047 512.133H14.19l-.464 1.433c4.957 1.02 5.418 1.485 3.105 7.871l-5.465 15.192c-2.316 6.344-3.289 6.851-8.984 7.871l-.418 1.438H27.62l5.555-9.91H31.23c-3.148 3.472-6.851 7.824-12.546 7.824-4.309 0-4.817-.743-2.504-7.223l5.465-15.192c2.27-6.343 3.289-6.851 8.984-7.87l.418-1.434zm18.66 2.96a3.052 3.052 0 003.059-3.054c0-1.668-1.391-3.055-3.059-3.055a3.05 3.05 0 00-3.055 3.055 3.02 3.02 0 003.055 3.055zm-1.297 9.262c.512-1.71-.648-2.683-1.527-2.683-3.703 0-8.106 3.332-9.863 8.012h1.203c1.207-1.715 3.242-3.614 5.14-3.938l-7.086 18.43c-.644 1.715.649 2.687 1.532 2.687 3.515 0 7.636-3.383 9.398-8.011h-1.203c-1.203 1.71-3.242 3.613-5.14 3.933l7.546-18.43zm25.192 2.457c0-3.753-1.391-5.14-3.985-5.14-3.238 0-6.297 3.426-9.351 7.594l7.73-20.328-.414-.512-8.105.926v.972l1.578 1.207c1.433 1.11.968 2.27-.325 5.602l-8.335 21.484c-.606 1.578-1.344 3.43-1.344 3.938 0 2.222 3.008 4.308 5.742 4.308 6.297 0 16.809-11.347 16.809-20.05zM59.016 543.11c-1.25 0-3.055-1.156-3.055-2.175 0-.325.555-1.758 1.25-3.567l2.082-5.508c2.223-2.64 5.602-5.464 7.5-5.464 1.16 0 2.039.742 2.039 2.453 0 5.047-4.723 14.261-9.816 14.261zm31.441-5.183h-1.574c-1.992 2.36-4.121 4.215-6.25 4.215-2.18 0-3.29-1.297-3.29-4.215 0-1.203.137-2.41.372-3.52l12.824-4.215c2.5-5.925-.508-8.52-4.027-8.52-6.067 0-12.965 10.141-12.965 19.032 0 3.985 1.898 6.16 4.86 6.16 3.476 0 7.085-3.383 10.05-8.937zm-4.398-12.828c1.71 0 3.195 1.297 2.406 4.586l-7.965 1.851c1.39-3.707 3.703-6.437 5.559-6.437zm28.43 2.222c.882-3.008.417-5.648-1.895-5.648-2.735 0-3.43 2.082-6.207 8.058v-3.43c0-2.452-.79-4.628-3.012-4.628-2.594 0-4.953 4.027-6.762 8.012h1.207c1.25-1.809 2.407-2.871 3.332-2.871 1.114 0 1.715 1.71 0 5.507l-5 11.114c-.925 2.086.047 3.43 2.082 3.43 1.25 0 1.809-.325 2.317-1.669l4.91-13.011c1.39-1.715 2.64-3.196 4.215-4.864h4.812zm3.335-2.082h3.38l-6.763 18.477c-.601 1.574.235 3.148 1.856 3.148 3.844 0 10.047-3.797 12.223-8.984h-1.204c-1.71 1.805-5 4.215-7.828 4.723l6.207-17.364h6.344l.79-2.64h-6.161l2.36-6.668h-2.454l-4.398 6.668-4.352.742v1.898zm26.531-5.93l9.032-8.425v-.973h-4.864l-5.554 9.399h1.386zm2.547 18.618h-1.574c-1.988 2.36-4.121 4.215-6.25 4.215-2.176 0-3.289-1.297-3.289-4.215 0-1.203.14-2.41.371-3.52l12.828-4.215c2.5-5.925-.508-8.52-4.027-8.52-6.066 0-12.969 10.141-12.969 19.032 0 3.985 1.899 6.16 4.863 6.16 3.473 0 7.086-3.383 10.047-8.937zm-4.398-12.828c1.715 0 3.195 1.297 2.406 4.586l-7.965 1.851c1.39-3.707 3.707-6.437 5.559-6.437zM2.535 191.174h12.782v-45.187l14.047 23.593h9l14.03-23.593v45.187h12.782v-63H49.254l-15.39 26.453-15.391-26.453H2.536zM82.814 191.174h12.781v-63h-12.78zM113.324 191.174h12.78v-45.547l28.173 45.547h16.375v-63H157.87v45.547l-28.157-45.547h-16.39zM188.382 191.174h12.781v-63h-12.78zM213.22 182.44c5.593 6.672 12.702 10.53 23.312 10.53 11.61 0 20.797-7.108 20.969-18.983 0-21.61-28.61-18.36-28.61-29.797 0-3.782 2.969-6.657 7.469-6.657 4.766 0 8.906 3.157 12.594 7.922l9.359-8.469c-5.39-6.374-12.594-10.609-22.047-10.609-12.062 0-20.344 8.281-20.344 18.266 0 21.328 28.625 18.187 28.625 29.797 0 4.5-3.062 7.187-8.109 7.187-5.125 0-10.156-2.875-13.937-7.734l-9.282 8.547zM264.084 139.783h19.437v51.391h12.782v-51.391h19.437v-11.609h-51.656zM339.76 122.768h11.702l-10.172-12.14h-13.14l11.61 12.14zm-12.688 68.406h36.718v-10.625h-23.937v-16.188h20.344v-10.624h-20.344v-14.938h23.937v-10.625h-36.718v63zM378.73 191.174h12.782v-25.469h6.578l16.828 25.469h15.032l-19.72-27.906c6.485-2.969 10.173-8.64 10.173-16.281 0-11.704-8.547-18.813-22.406-18.813H378.73v63zm19.985-52.375c5.407 0 8.547 3.234 8.547 8 0 5.14-3.14 8.281-8.547 8.281h-7.203V138.8h7.203zM438.13 191.174h36.718v-10.625h-23.937v-16.187h20.344v-10.625h-20.344v-14.938h23.937v-10.625H438.13zM2.535 283.174h24.75c19.985 0 33.484-14.484 33.484-31.5s-13.5-31.5-33.484-31.5H2.535v63zm24.938-51.39c11.703 0 20.156 8.64 20.156 19.89 0 11.156-8.453 19.89-20.156 19.89H15.316v-39.78h12.157zM110.357 259.596c0 8.453-4.86 13.406-12.688 13.406-8.015 0-12.78-4.953-12.78-13.406v-39.422H72.106v38.344c0 16.562 9.719 26.453 25.469 26.453 15.843 0 25.562-9.89 25.562-26.453v-38.344h-12.781v39.422zM156.083 231.783h19.437v51.391h12.782v-51.391h19.437v-11.609h-51.656zM219.07 283.174h12.782v-25.469h6.578l16.828 25.469h15.032l-19.72-27.906c6.485-2.969 10.173-8.64 10.173-16.282 0-11.703-8.547-18.812-22.407-18.812h-19.265v63zm19.985-52.375c5.406 0 8.547 3.234 8.547 8 0 5.14-3.14 8.281-8.547 8.281h-7.203V230.8h7.203zM273.248 283.174h13.594l6.031-16.375h25.203l6.031 16.375h13.594l-23.86-63h-16.734l-23.859 63zm23.594-27.266l8.625-23.672 8.64 23.672h-17.265zM333.997 220.174l23.86 63h16.734l23.86-63h-13.595l-18.64 49.234-18.625-49.234zM394.746 283.174h13.594l6.031-16.375h25.203l6.031 16.375H459.2l-23.86-63h-16.734l-23.859 63zm23.594-27.266l8.625-23.672 8.64 23.672H418.34zM468.997 283.174h12.78v-63h-12.78zM499.506 283.174h36.718v-11.609h-23.937v-51.391h-12.78zM555.304 297.58l10.454-26.922h-12.875l-8.188 26.922zM2.535 375.174h24.75c19.985 0 33.484-14.484 33.484-31.5s-13.5-31.5-33.484-31.5H2.535v63zm24.938-51.39c11.703 0 20.156 8.64 20.156 19.89 0 11.156-8.453 19.89-20.156 19.89H15.316v-39.78h12.157zM73.184 375.174h36.718v-10.625H85.965v-16.187h20.344v-10.625H85.965v-14.938h23.937v-10.625H73.184zM148.332 375.174h36.718v-11.609h-23.937v-51.391h-12.78zM193.061 338.096l10.454-25.922h-12.969l-8.094 25.922zM213.582 375.174H250.3v-10.625h-23.937v-16.187h20.344v-10.625h-20.344v-14.938H250.3v-10.625h-36.718zM265.242 375.174h12.78v-45.187l14.048 23.593h9l14.03-23.593v45.187h12.782v-63H311.96l-15.39 26.453-15.391-26.453h-15.937zM345.52 375.174h12.781v-25.469h8.016c13.86 0 22.312-7.11 22.312-18.719 0-11.703-8.453-18.812-22.312-18.812H345.52v63zm21.328-52.375c5.406 0 8.64 3.234 8.64 8 0 5.14-3.234 8.281-8.64 8.281h-8.547V322.8h8.547zM399.25 375.174h36.717v-11.609H412.03v-51.391h-12.78zM473.138 310.377c-19.89 0-33.47 15.297-33.47 33.297 0 18 13.58 33.297 33.47 33.297 19.812 0 33.39-15.297 33.39-33.297 0-18-13.578-33.297-33.39-33.297zm0 54.625c-11.875 0-20.328-9.266-20.328-21.328 0-12.063 8.453-21.328 20.328-21.328 11.797 0 20.25 9.265 20.25 21.328 0 12.063-8.453 21.328-20.25 21.328zM518.86 375.174h12.78v-63h-12.78zM2.535 467.174h36.719v-10.625H15.317v-16.187H35.66v-10.625H15.317v-14.938h23.937v-10.625H2.535zM49.076 415.783h19.437v51.391h12.782v-51.391h19.437v-11.609H49.076zM135.553 467.174h24.75c19.984 0 33.484-14.484 33.484-31.5s-13.5-31.5-33.484-31.5h-24.75v63zm24.937-51.39c11.703 0 20.156 8.64 20.156 19.89 0 11.156-8.453 19.89-20.156 19.89h-12.156v-39.78h12.156zM206.202 467.174h36.718v-10.625h-23.937v-16.187h20.344v-10.625h-20.344v-14.938h23.937v-10.625h-36.718zM281.35 467.174h36.718v-11.609h-23.937v-51.391h-12.78zM326.08 430.096l10.453-25.922h-12.969l-8.094 25.922zM346.6 467.174h12.781v-63H346.6zM377.11 467.174h12.78v-45.547l28.172 45.547h16.375v-63h-12.78v45.547l-28.158-45.547h-16.39zM446.496 458.44c5.593 6.671 12.703 10.53 23.312 10.53 11.61 0 20.797-7.109 20.969-18.984 0-21.609-28.61-18.359-28.61-29.796 0-3.782 2.97-6.657 7.47-6.657 4.765 0 8.906 3.157 12.593 7.922l9.36-8.469c-5.391-6.375-12.594-10.609-22.047-10.609-12.063 0-20.344 8.281-20.344 18.266 0 21.328 28.625 18.187 28.625 29.797 0 4.5-3.063 7.187-8.11 7.187-5.125 0-10.156-2.875-13.937-7.734l-9.281 8.547zM504.278 467.174h36.718v-10.625h-23.937v-16.187h20.344v-10.625h-20.344v-14.938h23.937v-10.625h-36.718zM555.937 467.174h12.78v-25.469h6.579l16.828 25.469h15.031l-19.718-27.906c6.484-2.969 10.171-8.64 10.171-16.281 0-11.704-8.546-18.813-22.406-18.813h-19.265v63zm19.984-52.375c5.406 0 8.547 3.234 8.547 8 0 5.14-3.14 8.281-8.547 8.281h-7.203V414.8h7.203zM606.078 415.783h19.437v51.391h12.782v-51.391h19.437v-11.609h-51.656zM669.067 467.174h12.78v-63h-12.78zM727.654 402.377c-19.89 0-33.469 15.297-33.469 33.297 0 18 13.578 33.297 33.469 33.297 19.812 0 33.39-15.297 33.39-33.297 0-18-13.578-33.297-33.39-33.297zm0 54.625c-11.875 0-20.328-9.266-20.328-21.328 0-12.063 8.453-21.328 20.328-21.328 11.797 0 20.25 9.265 20.25 21.328 0 12.063-8.453 21.328-20.25 21.328zM773.375 467.174h12.781v-45.547l28.172 45.547h16.375v-63h-12.78v45.547l-28.158-45.547h-16.39z"/><path fill="#000091" d="M68.43 60.871c-.16-.16.472 0 .632-.316h-1.265c-.16 0-.16-.16-.16-.32-.793.16-1.742.476-2.535.636-1.11.316-2.063 1.11-3.329 1.426-1.742.633-3.168 2.058-5.07 2.691-.16 0-.16-.156-.16-.316.16-.477.793-.633 1.11-1.11 0-.156 0-.316-.16-.316 1.269-1.742 3.015-2.691 4.597-4.121v-.473c.476-.636 1.27-.953 1.586-1.746.16-.472.793-1.11 1.586-1.426-.16-.156-.477-.156-.477-.472-.637 0-1.27.316-1.902-.16.297-.297.637-.457.992-.563a.583.583 0 01-.36-.23c-.156-.317.305-.672.794-.793.632-.157 1.425-.157 1.902-.633-1.11-.16-2.375.316-3.488-.316.793-2.063 2.062-3.805 3.965-4.754.156 0 .472 0 .472.156 0 .793-.472 1.426-1.265 1.586 1.265.316 2.535.316 3.8.949-.156.316-.472.16-.632.16.792.477 1.746.156 2.535.793-.477.477-.95 0-1.426 0 4.914 1.426 10.144 2.535 14.266 5.703-3.489 1.746-7.133 2.535-10.938 3.328-.477 0-.793 0-1.27-.156 0 .156 0 .477-.156.477-.633 0-1.11 0-1.586.316-.633.316-1.586.473-2.058 0zm-3.246 11.024c-.012.007-.028.015-.04.027-.593.418-1.183.844-1.808 1.207-.68.39-1.387.691-2.094 1.023-.004-.011-.008-.023-.015-.035-.055-.074-.168-.12-.27-.066-.602.324-1.11.754-1.598 1.215-.074.07-.144.14-.218.214l-.012.012c-.004.004-.008.008-.016.012-.074.074-.148.148-.222.226l-.028.024c-.004.008-.004.012-.008.016a5.494 5.494 0 00-.343.37c-.082.094-.11.153-.215.223-.098.063-.371.063-.344-.12v-.032c-.094.05-.187.102-.281.144-.086.043-.164.09-.246.137a.257.257 0 00-.11-.015.21.21 0 00-.117.039c-.191.152-.383.312-.57.48-.328.3-.645.629-.918.98-.008.004-.012.008-.016.012-.011.016-.02.032-.03.043-.017.024-.032.043-.048.063-.015.023-.035.043-.05.066-.005.008-.012.012-.016.02-.035.05-.07.105-.11.156 0 .004-.004.008-.004.012a.266.266 0 01-.128.062c-.024-.031-.043-.062-.067-.097-.012-.024-.027-.047-.043-.075a5.24 5.24 0 01-.136-.254c0-.004 0-.007-.004-.007-.012-.028-.024-.055-.04-.082a9.85 9.85 0 00.5-.57c.012-.013.02-.024.032-.04.054-.066.11-.133.164-.203.09-.11.18-.223.265-.336.036-.043.067-.086.098-.129.176-.226.34-.445.496-.668l.012-.015c.023-.036.047-.067.066-.102.078-.11.153-.227.22-.34.062-.101.12-.207.175-.316l.012-.024a.117.117 0 01.015-.03c.012-.02.016-.044.028-.06a4.32 4.32 0 00.164-.414l.035-.101c.015-.059.035-.117.05-.176.004-.012.004-.027.008-.039.02-.074.04-.152.055-.23a.168.168 0 00-.02-.11c.172-.297.383-.582.63-.855-.024.015-.051.027-.075.043-.226.144-.375.347-.586.507-.175.13-.492-.085-.289-.238.14-.101.246-.219.364-.328a.082.082 0 01.015-.023c.262-.258.512-.586.809-.805.18-.133.34-.242.488-.371.023-.02.047-.043.066-.063.114-.148.23-.277.356-.402.008-.004.012-.012.016-.016 1.519-1.46 4.074-1.398 6.074-2.332.789-.316 1.742.16 2.535 0 .473 0 .95 0 1.426.317-1.426.777-2.743 1.652-4.04 2.469zm2.84 1.308c-.07.176-.235.324-.391.461.199.043.34.129.21.246-.366.336-.718.676-1.202.84a1.356 1.356 0 01-.243.031c-.195.188-.39.375-.59.555-.19.168-1.062.047-.792-.191.398-.356.773-.743 1.168-1.106.226-.203.46-.398.66-.629.11-.129.203-.254.34-.351.129-.094.968-.168.84.144zm-7.36-23.742c-.156.316-.336.348-.477.633-.156.316-.316.472-.632.633-.16 0-.317 0-.317-.16.157-.633.633-1.266 1.27-1.426.156 0 .156.16.156.32zM47.512 59.918s-.16-.156-.16-.316c2.058-2.696 3.644-5.23 5.07-8.082 2.062-1.11 3.77-2.723 5.39-4.438 2.696-2.852 5.547-5.387 8.876-6.973 1.265-.476 2.851-.316 4.12.16-.476.633-1.269.473-1.906.95-.156 0-.312 0-.472-.16.16-.157.16-.317.16-.473-1.586 1.742-3.805 2.535-5.074 4.594-.95 1.586-1.582 3.644-3.645 4.12-.633.16.16-.476-.156-.316-4.914 3.012-8.403 6.657-12.203 10.934zm24.246 3.488c-.317 0-.95.157-.793-.16.156-.793 1.265-.793 1.902-1.11.317-.156.793-.476 1.11-.316.316.477.793.317 1.109.633-.95.953-2.219.477-3.328.953zm24.37 11.352c.9-.903 1.81-1.867 2.712-2.836h-.02c1.684-1.906 3.332-3.723 5.285-5.395.594-.53 1.172-1 1.723-1.379.16-.16.16-.476.317-.632-.79.316-1.266.949-2.06 1.265-.155 0-.315-.156-.155-.316l1.691-1.27h-.11c-.156 0-.156-.156-.156-.316-2.062-.316-3.644 1.11-5.074 2.379-.316.156-.633-.16-.789-.16-2.379.793-4.12 2.855-6.5 3.804v-.316c-.949.316-1.875.89-2.851 1.11-1.426.316-2.696.16-3.961.16-1.922.19-3.844.613-5.766 1.023-.055.016-.11.027-.164.043a13.275 13.275 0 00-2.953 1.187c-.035.02-.07.043-.11.063a4.693 4.693 0 01-.226.273c-.344.375-.637.72-1.09.95-.973.496-1.766 1.359-2.625 2.058a.438.438 0 01-.254.082c-.851.817-1.691 1.645-2.555 2.445-.058.055-.304.086-.484.055.008-.004.012-.008.016-.012a61.035 61.035 0 01.496-.82c.152-.25.308-.492.472-.738.215-.324.438-.649.672-.965.063-.078.047-.152-.004-.207a.314.314 0 00-.218-.082c.789-.766 1.73-1.422 2.66-1.984v-.028c-.11.035-.262-.047-.18-.16.102-.14.18-.289.274-.434l.046-.14c-.039-.04-.078-.082-.117-.125-.257.168-.527.324-.746.52-.379.343-.676 1.042-1.25 1.035a.803.803 0 01-.238-.036.469.469 0 01-.168-.054c.008-.012.012-.024.02-.035l.023-.047.023-.04c.024-.046.051-.09.075-.136.027-.047.05-.09.078-.137.02-.035.039-.074.058-.11.04-.066.075-.136.114-.202l.082-.141c.07-.117.136-.234.207-.352.03-.054.062-.113.097-.168l.168-.289c.078-.128-.004-.238-.12-.28.292-.384.652-.7 1.085-.946h-.047c.606-.305 1.211-.68 1.82-1.02.087-.074.172-.152.262-.226-.906.304-1.718.715-2.52 1.246 0 0-.21.086-.269.144 0 0-.18.067-.394-.144a.184.184 0 01-.04-.117c.16-.317.633-.477.954-.793.156 0 .316 0 .316.16 5.07-3.965 12.043-3.012 17.906-5.074.477-.317.954-.633 1.426-.95.793-.316 1.426-1.109 2.38-1.585 1.269-.95 2.218-2.06 2.69-3.645 0-.156-.156-.316-.156-.316a24.418 24.418 0 01-6.972 5.23c-3.329 1.742-6.973 1.426-10.461 1.902.16-.32.476-.32.793-.32 0-.473.316-.633.632-.95h.477c.16 0 .16-.316.316-.316.317 0 .793-.16.633-.16-.472-.633-1.426.477-2.219 0 .32-.316.16-.793.477-.949h.637c0-.316.316-.633.316-.633 2.375-1.426 4.594-2.535 6.813-3.804-.477 0-.793.476-1.27.16.32 0 0-.477.32-.477 1.743-.476 3.168-1.426 4.915-2.058-.637 0-1.114.472-1.747 0 .317-.16.477-.477.954-.477v-.477c0-.16.156-.16.316-.16-.16 0-.316-.156-.316-.156.156-.316.632-.16.949-.477-.156 0-.477 0-.477-.156.477-.636 1.27-.793 2.063-.953-.16-.316-.637 0-.637-.316 0-.16.16-.16.316-.16h-.316c-.316-.157-.156-.473-.156-.633.949-1.11.949-2.535 1.425-3.801-.16 0-.316 0-.316-.16-1.586 1.742-4.121 2.379-6.5 3.011h-.793c-.789.317-1.898.317-2.691-.16-.633-.316-.95-.793-1.586-1.265-1.266-.793-2.535-1.426-3.961-1.903-3.961-1.27-8.082-1.902-12.203-1.746 1.742-.949 3.668-1.027 5.547-1.582 2.695-.793 5.23-1.742 8.082-1.586-.477-.156-1.11 0-1.586 0-2.215-.156-4.438.477-6.813.953-1.586.317-3.012.95-4.597 1.266-.95.316-1.426 1.27-2.536 1.11v-.477c1.586-1.899 3.489-3.8 6.024-3.961 2.851-.477 5.547 0 8.398.316 2.063.16 3.961.637 6.024 1.11.793 0 .949 1.27 1.586 1.425.949.32 1.898 0 2.851.637 0-.316-.16-.636 0-.953.633-.633 1.426.16 2.059-.156 1.27-.793-1.11-2.219-1.742-3.328 0-.16.156-.317.156-.317 1.27 1.11 2.222 2.375 3.805 3.168.793.317 2.695.793 2.375-.16-.79-1.742-2.375-3.168-3.641-4.754v-.633c-.317 0-.317-.16-.477-.316v-.633c-.632-.316-.476-.953-.793-1.43-.476-.789-.16-1.898-.476-2.851-.317-.95-.477-1.742-.633-2.691-.477-2.696-1.11-5.075-1.426-7.61-.316-3.012 1.742-5.387 3.168-8.082 1.11-1.902 2.38-3.805 4.438-5.07.476-1.903 1.746-3.488 3.011-5.07 1.266-1.547 3.371-2.493 4.891-3.172a42.07 42.07 0 014.215-1.606H.785v83.863h77.02c3.02-2.171 6.03-3.203 10.242-5.28 1.988-.977 6.539-3.067 8.082-4.61z"/><path fill="#E1000F" d="M231.41.785h-90.215s.172.027.86.395c.73.394 1.68.898 2.273 1.21 1.164.61 2.293 1.372 3.024 2.536.316.476.793 1.43.472 2.062-.316.793-.472 2.059-1.265 2.375-.954.477-2.22.477-3.329.32-.632 0-1.27-.16-1.902-.32 2.375.953 4.598 2.063 6.18 4.282.16.316.793.472 1.43.472.156 0 .156.32.156.477-.317.316-.633.476-.477.953h.477c.793-.32.633-1.902 1.742-1.43.793.477 1.11 1.586.637 2.38-.637.632-1.27 1.108-1.903 1.585-.16.316-.16.79 0 1.11.477.632.633 1.265.79 1.902.476 1.105.636 2.375 1.113 3.484.632 2.379 1.265 4.754 1.105 7.133 0 1.266-.633 2.375-.156 3.644.316 1.266 1.11 2.22 1.742 3.329.637.949 1.27 1.586 1.742 2.535.953 1.586 2.696 3.168 1.903 5.07-.473 1.11-2.22.95-3.329 1.586-.949.793-.156 2.059.32 2.852.79 1.425-.952 2.378-2.062 2.851.317.477.95.317 1.11.637.16.793.953 1.265.476 2.058-.637.954-2.535 1.426-1.586 2.852.633 1.11.223 2.344-.16 3.488-.473 1.426-1.742 2.059-2.851 2.375-.95.32-2.059.32-3.008.16-.32-.16-.637-.316-.953-.316-2.696-.316-5.387-1.11-8.082-1.11-.793.157-1.586.317-2.22.633a14.246 14.246 0 00-1.917 1.696l-.02.023c-.117.125-.234.254-.343.383-.07.078-.137.16-.207.242-.043.055-.09.11-.133.164a14.372 14.372 0 00-1.246 1.828c-.028.04-.051.079-.075.121l-.12.22c-.52.964-.915 1.948-1.2 2.91-1.078 3.628-.605 6.742.149 7.496.21.21 5.234 1.761 8.73 3.316 1.64.73 2.785 1.293 3.738 1.894h88.59V.785"/><path fill="#9D9D9B" d="M146.563 31.379c.632.156 1.582.156 1.582.476-.317 1.266-2.215 1.582-3.168 2.852h-.477c-.473.316-.316 1.11-.79 1.11-.476-.16-.952 0-1.429.156.637.636 1.43 1.113 2.38.953.16 0 .476.316.476.633 0 0 .156 0 .316-.16.156 0 .317 0 .317.16v.632c-.477.637-1.27.32-1.903.477 1.27.316 2.535.316 3.645 0 .953-.316 0-1.902.633-2.695-.317 0 0-.473-.317-.473.317-.316.637-.793.953-.953.317 0 .79-.156.95-.477 0-.312-.633-.472-.473-.789.949-.636 1.742-1.586 1.426-2.539-.16-.472-1.426-.472-2.22-.789-.792-.316-1.745 0-2.694.156-.793 0-1.586.477-2.375.633-1.114.32-2.063.953-3.012 1.586 1.105-.473 2.219-.633 3.484-.95.953 0 1.758-.233 2.696 0"/></g></svg>