<?xml version="1.0" encoding="utf-8"?>
<!-- Generator: Adobe Illustrator 27.0.0, SVG Export Plug-In . SVG Version: 6.00 Build 0)  -->
<svg version="1.1" id="Calque_1" xmlns="http://www.w3.org/2000/svg" xmlns:xlink="http://www.w3.org/1999/xlink" x="0px" y="0px"
	 viewBox="0 0 837.2 747.2" style="enable-background:new 0 0 837.2 747.2;" xml:space="preserve">
<style type="text/css">
	.st0{display:none;}
	.st1{display:inline;}
	.st2{fill:#000091;}
	.st3{fill:#E1000F;}
	.st4{fill:#9D9D9C;}
	.st5{display:inline;fill:none;stroke:#000000;stroke-width:1.3506;stroke-miterlimit:10;}
	.st6{display:inline;fill:none;stroke:#000000;stroke-width:1.8466;stroke-miterlimit:10;}
</style>
<g id="CREA">
	<g>
		<g class="st0">
			<path class="st1" d="M98.3,274.2H85.5v-63h15.9l15.4,26.5l15.4-26.5h15.9v63h-12.8V229l-14,23.6h-9l-14-23.6L98.3,274.2
				L98.3,274.2z"/>
			<path class="st1" d="M178.6,274.2h-12.8v-63h12.8V274.2z"/>
			<path class="st1" d="M209.1,274.2h-12.8v-63h16.4l28.2,45.5v-45.5h12.8v63h-16.4l-28.2-45.5V274.2z"/>
			<path class="st1" d="M284.2,274.2h-12.8v-63h12.8V274.2z"/>
			<path class="st1" d="M319.5,276c-4.9,0-9.3-0.9-13.1-2.6c-3.8-1.7-7.2-4.4-10.2-8l9.3-8.5c1.9,2.5,4.1,4.4,6.5,5.7
				c2.4,1.4,4.9,2,7.4,2s4.5-0.6,5.9-1.9s2.2-3,2.2-5.3c0-1.7-0.7-3.3-2-4.7s-4.4-3.1-9-5.1c-3.6-1.6-6.2-2.8-7.9-3.9
				c-1.7-1-3.1-2.1-4.3-3.2c-1.8-1.7-3.1-3.6-4-5.7c-0.9-2.1-1.3-4.5-1.3-7.2c0-5.2,1.9-9.5,5.8-13s8.7-5.3,14.5-5.3
				c4.3,0,8.3,0.9,12,2.7s7,4.4,10,8l-9.4,8.5c-2-2.6-4.1-4.6-6.2-5.9c-2.1-1.3-4.2-2-6.4-2c-2.2,0-4,0.6-5.4,1.9
				c-1.4,1.3-2.1,2.9-2.1,4.8c0,1.7,0.7,3.3,2,4.6s4.3,3,9,5c3.6,1.6,6.3,2.9,8,3.9s3.2,2.1,4.4,3.2c1.8,1.7,3.1,3.7,4,5.9
				s1.3,4.6,1.3,7.2c-0.1,5.7-2,10.3-5.9,13.8C330.7,274.2,325.7,276,319.5,276z"/>
			<path class="st1" d="M366.5,274.2v-51.4h-19.4v-11.6h51.7v11.6h-19.4v51.4H366.5z"/>
			<path class="st1" d="M410.1,274.2v-63h36.7v10.6h-23.9v14.9h20.3v10.6h-20.3v16.2h23.9v10.6L410.1,274.2L410.1,274.2z
				 M434.5,205.8h-11.7l-11.6-12.1h13.1L434.5,205.8z"/>
			<path class="st1" d="M474.5,274.2h-12.8v-63H481c7,0,12.4,1.7,16.4,5c4,3.4,6,8,6,13.8c0,3.8-0.9,7.2-2.7,9.9
				c-1.8,2.8-4.3,4.9-7.5,6.4l19.7,27.8h-15l-16.8-25.5H481h-6.5V274.2z M490.3,229.8c0-2.5-0.8-4.4-2.3-5.9
				c-1.5-1.4-3.6-2.2-6.3-2.2h-7.2V238h7.2c2.7,0,4.8-0.7,6.3-2.2C489.5,234.4,490.3,232.4,490.3,229.8z"/>
			<path class="st1" d="M521.1,274.2v-63h36.7v10.6h-23.9v14.9h20.3v10.6h-20.3v16.2h23.9v10.6L521.1,274.2L521.1,274.2z"/>
			<path class="st1" d="M143.8,334.7c0,8.9-3.2,16.4-9.5,22.4c-6.4,6.1-14.3,9.1-23.9,9.1H85.5v-63h24.8c9.6,0,17.6,3,23.9,9.1
				C140.6,318.3,143.8,325.8,143.8,334.7z M110.5,314.8H98.3v39.8h12.2c5.8,0,10.6-1.9,14.4-5.7c3.8-3.8,5.8-8.5,5.8-14.2
				s-1.9-10.4-5.7-14.2C121.1,316.7,116.3,314.8,110.5,314.8z"/>
			<path class="st1" d="M180.7,356c4,0,7.1-1.2,9.3-3.6s3.4-5.7,3.4-9.9v-39.4h12.8v38.3c0,8.2-2.3,14.7-6.8,19.4
				c-4.5,4.7-10.8,7.1-18.8,7.1c-7.9,0-14.1-2.4-18.7-7.1c-4.5-4.7-6.8-11.2-6.8-19.4v-38.3h12.8v39.4c0,4.2,1.1,7.5,3.4,9.9
				C173.5,354.8,176.6,356,180.7,356z"/>
			<path class="st1" d="M258.5,366.2v-51.4h-19.4v-11.6h51.7v11.6h-19.4v51.4H258.5z"/>
			<path class="st1" d="M314.9,366.2h-12.8v-63h19.3c7,0,12.4,1.7,16.4,5c4,3.4,6,8,6,13.8c0,3.8-0.9,7.2-2.7,9.9
				c-1.8,2.8-4.3,4.9-7.5,6.4l19.7,27.8h-15l-16.8-25.5h-0.1h-6.5V366.2z M330.6,321.8c0-2.5-0.8-4.4-2.3-5.9
				c-1.5-1.4-3.6-2.2-6.3-2.2h-7.2V330h7.2c2.7,0,4.8-0.7,6.3-2.2C329.9,326.4,330.6,324.4,330.6,321.8z"/>
			<path class="st1" d="M369.8,366.2h-13.6l23.8-63h16.7l23.8,63h-13.6l-6-16.4h-25.2L369.8,366.2z M379.8,338.9h17.3l-8.6-23.7
				L379.8,338.9z"/>
			<path class="st1" d="M440.9,366.2l-23.8-63h13.6l18.6,49.2l18.6-49.2h13.6l-23.8,63H440.9z"/>
			<path class="st1" d="M491.3,366.2h-13.6l23.8-63h16.7l23.8,63h-13.6l-6-16.4h-25.2L491.3,366.2z M501.3,338.9h17.3l-8.6-23.7
				L501.3,338.9z"/>
			<path class="st1" d="M564.8,366.2H552v-63h12.8V366.2z"/>
			<path class="st1" d="M619.2,354.6v11.6h-36.7v-63h12.8v51.4H619.2z"/>
			<path class="st1" d="M648.8,353.7l-10.4,26.9h-10.6l8.2-26.9H648.8z"/>
			<path class="st1" d="M143.8,426.7c0,8.9-3.2,16.4-9.5,22.4c-6.4,6.1-14.3,9.1-23.9,9.1H85.5v-63h24.8c9.6,0,17.6,3,23.9,9.1
				C140.6,410.3,143.8,417.8,143.8,426.7z M110.5,406.8H98.3v39.8h12.2c5.8,0,10.6-1.9,14.4-5.7c3.8-3.8,5.8-8.5,5.8-14.2
				s-1.9-10.4-5.7-14.2C121.1,408.7,116.3,406.8,110.5,406.8z"/>
			<path class="st1" d="M180.7,448c4,0,7.1-1.2,9.3-3.6s3.4-5.7,3.4-9.9v-39.4h12.8v38.3c0,8.2-2.3,14.7-6.8,19.4
				c-4.5,4.7-10.8,7.1-18.8,7.1c-7.9,0-14.1-2.4-18.7-7.1c-4.5-4.7-6.8-11.2-6.8-19.4v-38.3h12.8v39.4c0,4.2,1.1,7.5,3.4,9.9
				C173.5,446.8,176.6,448,180.7,448z"/>
			<path class="st1" d="M258.3,458.2h-12.8v-63h20.8c7,0,12.4,1.7,16.4,5c4,3.4,5.9,8,5.9,13.8s-2,10.4-6,13.7s-9.4,5-16.3,5h-8
				V458.2z M275.5,413.8c0-2.5-0.8-4.4-2.3-5.9c-1.6-1.4-3.7-2.2-6.3-2.2h-8.5V422h8.5c2.7,0,4.8-0.7,6.3-2.2
				C274.8,418.4,275.5,416.4,275.5,413.8z"/>
			<path class="st1" d="M336,446.6v11.6h-36.7v-63h12.8v51.4H336z"/>
			<path class="st1" d="M347.3,458.2v-63H384v10.6h-23.9v14.9h20.3v10.6h-20.3v16.2H384v10.6L347.3,458.2L347.3,458.2z"/>
			<path class="st1" d="M411.8,458.2H399v-63h12.8V458.2z"/>
			<path class="st1" d="M442.3,458.2h-12.8v-63h16.4l28.2,45.5v-45.5h12.8v63h-16.4l-28.2-45.5V458.2z"/>
			<path class="st1" d="M528.1,458.2v-63h36.7v10.6h-23.9v14.9h20.3v10.6h-20.3v16.2h23.9v10.6L528.1,458.2L528.1,458.2z"/>
			<path class="st1" d="M592.5,458.2h-12.8v-63h15.9l15.4,26.5l15.4-26.5h15.9v63h-12.8V413l-14,23.6h-9l-14-23.6L592.5,458.2
				L592.5,458.2z"/>
			<path class="st1" d="M672.8,458.2H660v-63h20.8c7,0,12.4,1.7,16.4,5c4,3.4,5.9,8,5.9,13.8s-2,10.4-6,13.7s-9.4,5-16.3,5h-8
				L672.8,458.2L672.8,458.2z M690,413.8c0-2.5-0.8-4.4-2.3-5.9c-1.6-1.4-3.7-2.2-6.3-2.2h-8.5V422h8.5c2.7,0,4.8-0.7,6.3-2.2
				C689.2,418.4,690,416.4,690,413.8z"/>
			<path class="st1" d="M750.4,446.6v11.6h-36.7v-63h12.8v51.4H750.4z"/>
			<path class="st1" d="M754.1,426.7c0-9.4,3.2-17.2,9.5-23.7c6.4-6.4,14.3-9.6,23.9-9.6c9.5,0,17.5,3.2,23.9,9.6s9.5,14.3,9.5,23.7
				c0,9.4-3.2,17.3-9.5,23.7c-6.4,6.4-14.3,9.6-23.9,9.6c-9.6,0-17.6-3.2-23.9-9.6C757.3,443.9,754.1,436,754.1,426.7z M767.3,426.7
				c0,6.1,1.9,11.2,5.8,15.3c3.8,4,8.7,6.1,14.6,6.1c5.8,0,10.6-2,14.5-6.1c3.8-4.1,5.8-9.1,5.8-15.3c0-6.1-1.9-11.2-5.8-15.3
				c-3.8-4.1-8.7-6.1-14.5-6.1c-5.9,0-10.7,2-14.6,6.1C769.2,415.5,767.3,420.6,767.3,426.7z"/>
			<path class="st1" d="M846.1,458.2h-12.8v-63h12.8V458.2z"/>
			<path class="st1" d="M85.5,550.2v-63h36.7v10.6H98.3v14.9h20.3v10.6H98.3v16.2h23.9v10.6H85.5V550.2z"/>
			<path class="st1" d="M151.5,550.2v-51.4h-19.4v-11.6h51.7v11.6h-19.4v51.4H151.5z"/>
			<path class="st1" d="M276.8,518.7c0,8.9-3.2,16.4-9.5,22.4c-6.4,6.1-14.3,9.1-23.9,9.1h-24.8v-63h24.8c9.6,0,17.6,3,23.9,9.1
				C273.6,502.3,276.8,509.8,276.8,518.7z M243.5,498.8h-12.2v39.8h12.2c5.8,0,10.6-1.9,14.4-5.7s5.8-8.5,5.8-14.2
				s-1.9-10.4-5.7-14.2C254.1,500.7,249.3,498.8,243.5,498.8z"/>
			<path class="st1" d="M289.2,550.2v-63h36.7v10.6H302v14.9h20.3v10.6H302v16.2h23.9v10.6h-36.7L289.2,550.2L289.2,550.2z"/>
			<path class="st1" d="M401.1,538.6v11.6h-36.7v-63h12.8v51.4H401.1z"/>
			<path class="st1" d="M416.1,487.2l-1.3,25.9h-10l-1.4-25.9L416.1,487.2L416.1,487.2z"/>
			<path class="st1" d="M443.1,550.2h-12.8v-63h12.8V550.2z"/>
			<path class="st1" d="M473.6,550.2h-12.8v-63h16.4l28.2,45.5v-45.5h12.8v63h-16.4l-28.2-45.5V550.2z"/>
			<path class="st1" d="M553.5,552c-4.9,0-9.3-0.9-13.1-2.6c-3.8-1.7-7.2-4.4-10.2-8l9.3-8.5c1.9,2.5,4.1,4.4,6.5,5.7s4.9,2,7.4,2
				s4.5-0.6,5.9-1.9c1.4-1.3,2.2-3,2.2-5.3c0-1.7-0.7-3.3-2-4.7s-4.4-3.1-9-5.1c-3.6-1.6-6.2-2.8-7.9-3.9c-1.7-1-3.1-2.1-4.3-3.2
				c-1.8-1.7-3.1-3.6-4-5.7c-0.9-2.1-1.3-4.5-1.3-7.2c0-5.2,1.9-9.5,5.8-13c3.9-3.5,8.7-5.3,14.5-5.3c4.3,0,8.3,0.9,12,2.7
				c3.7,1.8,7,4.4,10,8l-9.4,8.5c-2-2.6-4.1-4.6-6.2-5.9c-2.1-1.3-4.2-2-6.4-2s-4,0.6-5.4,1.9s-2.1,2.9-2.1,4.8c0,1.7,0.7,3.3,2,4.6
				c1.3,1.3,4.3,3,9,5c3.6,1.6,6.3,2.9,8,3.9s3.2,2.1,4.4,3.2c1.8,1.7,3.1,3.7,4,5.9s1.3,4.6,1.3,7.2c-0.1,5.7-2,10.3-5.9,13.8
				C564.7,550.2,559.7,552,553.5,552z"/>
			<path class="st1" d="M588,550.2v-63h36.7v10.6h-23.9v14.9h20.3v10.6h-20.3v16.2h23.9v10.6H588V550.2z"/>
			<path class="st1" d="M652.4,550.2h-12.8v-63h19.3c7,0,12.4,1.7,16.4,5c4,3.4,6,8,6,13.8c0,3.8-0.9,7.2-2.7,9.9
				c-1.8,2.8-4.3,4.9-7.5,6.4l19.7,27.8h-15L659,524.7h-0.1h-6.5V550.2z M668.2,505.8c0-2.5-0.8-4.4-2.3-5.9s-3.6-2.2-6.3-2.2h-7.2
				V514h7.2c2.7,0,4.8-0.7,6.3-2.2C667.4,510.4,668.2,508.4,668.2,505.8z"/>
			<path class="st1" d="M709.2,550.2v-51.4h-19.4v-11.6h51.7v11.6H722v51.4H709.2z"/>
			<path class="st1" d="M765.6,550.2h-12.8v-63h12.8V550.2z"/>
			<path class="st1" d="M777.9,518.7c0-9.4,3.2-17.2,9.5-23.7c6.4-6.4,14.3-9.6,23.9-9.6c9.5,0,17.5,3.2,23.8,9.6
				c6.4,6.4,9.5,14.3,9.5,23.7s-3.2,17.3-9.5,23.7c-6.4,6.4-14.3,9.6-23.8,9.6c-9.6,0-17.6-3.2-23.9-9.6
				C781.1,535.9,777.9,528,777.9,518.7z M791,518.7c0,6.1,1.9,11.2,5.8,15.3c3.8,4,8.7,6.1,14.6,6.1c5.8,0,10.6-2,14.5-6.1
				c3.8-4.1,5.8-9.1,5.8-15.3c0-6.1-1.9-11.2-5.8-15.3c-3.8-4.1-8.7-6.1-14.5-6.1c-5.9,0-10.7,2-14.6,6.1
				C793,507.5,791,512.6,791,518.7z"/>
			<path class="st1" d="M869.9,550.2h-12.8v-63h16.4l28.2,45.5v-45.5h12.8v63H898l-28.2-45.5v45.5H869.9z"/>
		</g>
		<g>
			<g>
				<path class="st2" d="M179,157.8c0.9-0.9,1.8-1.9,2.7-2.8l0,0c1.7-1.9,3.3-3.7,5.3-5.4c0.6-0.5,1.2-1,1.7-1.4
					c0.2-0.2,0.2-0.5,0.3-0.6c-0.8,0.3-1.3,1-2.1,1.3c-0.2,0-0.3-0.2-0.2-0.3c0.6-0.4,1.1-0.8,1.7-1.3h-0.1c-0.2,0-0.2-0.2-0.2-0.3
					c-2.1-0.3-3.6,1.1-5.1,2.4c-0.3,0.2-0.6-0.2-0.8-0.2c-2.4,0.8-4.1,2.9-6.5,3.8c0-0.2,0-0.2,0-0.3c-1,0.3-1.9,0.9-2.9,1.1
					c-1.4,0.3-2.7,0.2-4,0.2c-1.9,0.2-3.8,0.6-5.8,1c-0.1,0-0.1,0-0.2,0c-1,0.3-2,0.7-3,1.2c0,0-0.1,0-0.1,0.1
					c-0.1,0.1-0.2,0.2-0.2,0.3c-0.3,0.4-0.6,0.7-1.1,0.9c-1,0.5-1.8,1.4-2.6,2.1c-0.1,0.1-0.2,0.1-0.3,0.1c-0.9,0.8-1.7,1.6-2.6,2.4
					c-0.1,0.1-0.3,0.1-0.5,0.1l0,0c0-0.1,0.1-0.1,0.1-0.2c0.1-0.2,0.3-0.4,0.4-0.7c0.2-0.2,0.3-0.5,0.5-0.7c0.2-0.3,0.4-0.7,0.7-1
					c0.1-0.1,0-0.2,0-0.2c-0.1-0.1-0.1-0.1-0.2-0.1c0.8-0.8,1.7-1.4,2.7-2l0,0c-0.1,0-0.3,0-0.2-0.2c0.1-0.1,0.2-0.3,0.3-0.4
					c0,0,0-0.1,0.1-0.1l-0.1-0.1c-0.3,0.2-0.5,0.3-0.7,0.5c-0.4,0.3-0.7,1-1.3,1c0,0-0.1,0-0.2,0c-0.1,0-0.1,0-0.2-0.1l0,0l0,0l0,0
					c0,0,0-0.1,0.1-0.1l0.1-0.1c0,0,0-0.1,0.1-0.1c0-0.1,0.1-0.1,0.1-0.2l0.1-0.1c0.1-0.1,0.1-0.2,0.2-0.3c0-0.1,0.1-0.1,0.1-0.2
					c0.1-0.1,0.1-0.2,0.2-0.3c0.1-0.1,0-0.2-0.1-0.3c0.3-0.4,0.7-0.7,1.1-0.9l0,0c0.6-0.3,1.2-0.7,1.8-1c0.1-0.1,0.2-0.2,0.3-0.2
					c-0.9,0.3-1.7,0.7-2.5,1.2c0,0-0.2,0.1-0.3,0.1c0,0-0.2,0.1-0.4-0.1v-0.1c0.2-0.3,0.6-0.5,1-0.8c0.2,0,0.3,0,0.3,0.2
					c5.1-4,12-3,17.9-5.1c0.5-0.3,1-0.6,1.4-1c0.8-0.3,1.4-1.1,2.4-1.6c1.3-1,2.2-2.1,2.7-3.6c0-0.2-0.2-0.3-0.2-0.3
					c-2.1,2.2-4.4,4-7,5.2c-3.3,1.7-7,1.4-10.5,1.9c0.2-0.3,0.5-0.3,0.8-0.3c0-0.5,0.3-0.6,0.6-1c0.2,0,0.3,0,0.5,0s0.2-0.3,0.3-0.3
					c0.3,0,0.8-0.2,0.6-0.2c-0.5-0.6-1.4,0.5-2.2,0c0.3-0.3,0.2-0.8,0.5-1c0.2,0,0.5,0,0.6,0c0-0.3,0.3-0.6,0.3-0.6
					c2.4-1.4,4.6-2.5,6.8-3.8c-0.5,0-0.8,0.5-1.3,0.2c0.3,0,0-0.5,0.3-0.5c1.7-0.5,3.2-1.4,4.9-2.1c-0.6,0-1.1,0.5-1.7,0
					c0.3-0.2,0.5-0.5,1-0.5c0-0.2,0-0.3,0-0.5s0.2-0.2,0.3-0.2c-0.2,0-0.3-0.2-0.3-0.2c0.2-0.3,0.6-0.2,1-0.5c-0.2,0-0.5,0-0.5-0.2
					c0.5-0.6,1.3-0.8,2.1-1c-0.2-0.3-0.6,0-0.6-0.3c0-0.2,0.2-0.2,0.3-0.2c-0.2,0-0.2,0-0.3,0c-0.3-0.2-0.2-0.5-0.2-0.6
					c1-1.1,1-2.5,1.4-3.8c-0.2,0-0.3,0-0.3-0.2c-1.6,1.7-4.1,2.4-6.5,3c-0.2,0-0.6,0-0.8,0c-0.8,0.3-1.9,0.3-2.7-0.2
					c-0.6-0.3-1-0.8-1.6-1.3c-1.3-0.8-2.5-1.4-4-1.9c-4-1.3-8.1-1.9-12.2-1.7c1.7-1,3.7-1,5.5-1.6c2.7-0.8,5.2-1.7,8.1-1.6
					c-0.5-0.2-1.1,0-1.6,0c-2.2-0.2-4.4,0.5-6.8,1c-1.6,0.3-3,1-4.6,1.3c-1,0.3-1.4,1.3-2.5,1.1c0,0,0-0.3,0-0.5
					c1.6-1.9,3.5-3.8,6-4c2.9-0.5,5.5,0,8.4,0.3c2.1,0.2,4,0.6,6,1.1c0.8,0,1,1.3,1.6,1.4c1,0.3,1.9,0,2.9,0.6c0-0.3-0.2-0.6,0-1
					c0.6-0.6,1.4,0.2,2.1-0.2c1.3-0.8-1.1-2.2-1.7-3.3c0-0.2,0.2-0.3,0.2-0.3c1.3,1.1,2.2,2.4,3.8,3.2c0.8,0.3,2.7,0.8,2.4-0.2
					c-0.8-1.7-2.4-3.2-3.6-4.8c0-0.2,0-0.5,0-0.6c-0.3,0-0.3-0.2-0.5-0.3c0-0.2,0-0.5,0-0.6c-0.6-0.3-0.5-1-0.8-1.4
					c-0.5-0.8-0.2-1.9-0.5-2.9s-0.5-1.7-0.6-2.7c-0.5-2.7-1.1-5.1-1.4-7.6c-0.3-3,1.7-5.4,3.2-8.1c1.1-1.9,2.4-3.8,4.4-5.1
					c0.5-1.9,1.7-3.5,3-5.1c1.3-1.5,3.4-2.5,4.9-3.2c2.2-1,4.2-1.6,4.2-1.6H83.7v83.9h77c3-2.2,6-3.2,10.2-5.3
					C172.9,161.4,177.5,159.3,179,157.8z M154.6,146.4c-0.3,0-1,0.2-0.8-0.2c0.2-0.8,1.3-0.8,1.9-1.1c0.3-0.2,0.8-0.5,1.1-0.3
					c0.3,0.5,0.8,0.3,1.1,0.6C157,146.4,155.7,145.9,154.6,146.4z M130.4,142.9c0,0-0.2-0.2-0.2-0.3c2.1-2.7,3.6-5.2,5.1-8.1
					c2.1-1.1,3.8-2.7,5.4-4.4c2.7-2.9,5.5-5.4,8.9-7c1.3-0.5,2.9-0.3,4.1,0.2c-0.5,0.6-1.3,0.5-1.9,1c-0.2,0-0.3,0-0.5-0.2
					c0.2-0.2,0.2-0.3,0.2-0.5c-1.6,1.7-3.8,2.5-5.1,4.6c-1,1.6-1.6,3.6-3.6,4.1c-0.6,0.2,0.2-0.5-0.2-0.3
					C137.7,135,134.2,138.6,130.4,142.9z M143.5,132.5c-0.2,0.3-0.3,0.4-0.5,0.6c-0.2,0.3-0.3,0.5-0.6,0.6c-0.2,0-0.3,0-0.3-0.2
					c0.2-0.6,0.6-1.3,1.3-1.4C143.5,132.1,143.5,132.3,143.5,132.5z M150.9,156.2c-0.1,0.2-0.2,0.3-0.4,0.5c0.2,0,0.3,0.1,0.2,0.2
					c-0.4,0.3-0.7,0.7-1.2,0.8c0,0-0.1,0-0.2,0c-0.2,0.2-0.4,0.4-0.6,0.6c-0.2,0.2-1.1,0-0.8-0.2c0.4-0.4,0.8-0.7,1.2-1.1
					c0.2-0.2,0.5-0.4,0.7-0.6c0.1-0.1,0.2-0.3,0.3-0.4C150.2,156,151,155.9,150.9,156.2z M148.1,154.9
					C148.1,154.9,148,154.9,148.1,154.9c-0.6,0.4-1.2,0.9-1.8,1.2c-0.7,0.4-1.4,0.7-2.1,1l0,0c-0.1-0.1-0.2-0.1-0.3-0.1
					c-0.6,0.3-1.1,0.8-1.6,1.2c-0.1,0.1-0.1,0.1-0.2,0.2l0,0l0,0c-0.1,0.1-0.2,0.1-0.2,0.2l0,0l0,0c-0.1,0.1-0.2,0.2-0.3,0.4
					c-0.1,0.1-0.1,0.2-0.2,0.2c-0.1,0.1-0.4,0.1-0.3-0.1l0,0c-0.1,0-0.2,0.1-0.3,0.1s-0.2,0.1-0.2,0.1h-0.1h-0.1
					c-0.2,0.2-0.4,0.3-0.6,0.5c-0.3,0.3-0.6,0.6-0.9,1l0,0l0,0c0,0,0,0,0,0.1c0,0,0,0-0.1,0.1l0,0c0,0.1-0.1,0.1-0.1,0.2l0,0
					l-0.1,0.1c0,0,0-0.1-0.1-0.1v-0.1c0-0.1-0.1-0.2-0.1-0.3l0,0v-0.1c0.2-0.2,0.3-0.4,0.5-0.6l0,0c0.1-0.1,0.1-0.1,0.2-0.2
					c0.1-0.1,0.2-0.2,0.3-0.3l0.1-0.1c0.2-0.2,0.3-0.4,0.5-0.7l0,0c0,0,0-0.1,0.1-0.1c0.1-0.1,0.1-0.2,0.2-0.3
					c0.1-0.1,0.1-0.2,0.2-0.3l0,0l0,0c0,0,0,0,0-0.1c0.1-0.1,0.1-0.2,0.2-0.4l0,0v-0.1c0-0.1,0-0.1,0-0.2l0,0l0,0
					c0-0.1,0-0.2,0.1-0.2V157c0.2-0.3,0.4-0.6,0.6-0.9c0,0,0,0-0.1,0c-0.2,0.1-0.4,0.3-0.6,0.5c-0.2,0.1-0.5-0.1-0.3-0.2
					c0.1-0.1,0.2-0.2,0.4-0.3l0,0c0.3-0.3,0.5-0.6,0.8-0.8c0.2-0.1,0.3-0.2,0.5-0.4c0,0,0,0,0.1-0.1s0.2-0.3,0.4-0.4l0,0
					c1.5-1.5,4.1-1.4,6.1-2.3c0.8-0.3,1.7,0.2,2.5,0c0.5,0,1,0,1.4,0.3C150.7,153.2,149.4,154.1,148.1,154.9z M151.3,143.9
					c-0.2-0.2,0.5,0,0.6-0.3c-0.5,0-0.8,0-1.3,0c-0.2,0-0.2-0.2-0.2-0.3c-0.8,0.2-1.7,0.5-2.5,0.6c-1.1,0.3-2.1,1.1-3.3,1.4
					c-1.7,0.6-3.2,2.1-5.1,2.7c-0.2,0-0.2-0.2-0.2-0.3c0.2-0.5,0.8-0.6,1.1-1.1c0-0.2,0-0.3-0.2-0.3c1.3-1.7,3-2.7,4.6-4.1
					c0-0.2,0-0.3,0-0.5c0.5-0.6,1.3-1,1.6-1.7c0.2-0.5,0.8-1.1,1.6-1.4c-0.2-0.2-0.5-0.2-0.5-0.5c-0.6,0-1.3,0.3-1.9-0.2
					c0.3-0.3,0.6-0.5,1-0.6c-0.1,0-0.3-0.1-0.4-0.2c-0.2-0.3,0.3-0.7,0.8-0.8c0.6-0.2,1.4-0.2,1.9-0.6c-1.1-0.2-2.4,0.3-3.5-0.3
					c0.8-2.1,2.1-3.8,4-4.8c0.2,0,0.5,0,0.5,0.2c0,0.8-0.5,1.4-1.3,1.6c1.3,0.3,2.5,0.3,3.8,1c-0.2,0.3-0.5,0.2-0.6,0.2
					c0.8,0.5,1.7,0.2,2.5,0.8c-0.5,0.5-1,0-1.4,0c4.9,1.4,10.1,2.5,14.3,5.7c-3.5,1.7-7.1,2.5-10.9,3.3c-0.5,0-0.8,0-1.3-0.2
					c0,0.2,0,0.5-0.2,0.5c-0.6,0-1.1,0-1.6,0.3C152.7,144.2,151.8,144.3,151.3,143.9z"/>
				<g>
					<g>
						<path class="st3" d="M314.3,83.8h-90.2c0,0,0.2,0,0.9,0.4s1.7,0.9,2.3,1.2c1.2,0.6,2.3,1.4,3,2.5c0.3,0.5,0.8,1.4,0.5,2.1
							c-0.3,0.8-0.5,2.1-1.3,2.4c-1,0.5-2.2,0.5-3.3,0.3c-0.6,0-1.3-0.2-1.9-0.3c2.4,1,4.6,2.1,6.2,4.3c0.2,0.3,0.8,0.5,1.4,0.5
							c0.2,0,0.2,0.3,0.2,0.5c-0.3,0.3-0.6,0.5-0.5,1c0.2,0,0.3,0,0.5,0c0.8-0.3,0.6-1.9,1.7-1.4c0.8,0.5,1.1,1.6,0.6,2.4
							c-0.6,0.6-1.3,1.1-1.9,1.6c-0.2,0.3-0.2,0.8,0,1.1c0.5,0.6,0.6,1.3,0.8,1.9c0.5,1.1,0.6,2.4,1.1,3.5c0.6,2.4,1.3,4.8,1.1,7.1
							c0,1.3-0.6,2.4-0.2,3.6c0.3,1.3,1.1,2.2,1.7,3.3c0.6,1,1.3,1.6,1.7,2.5c1,1.6,2.7,3.2,1.9,5.1c-0.5,1.1-2.2,1-3.3,1.6
							c-1,0.8-0.2,2.1,0.3,2.9c0.8,1.4-1,2.4-2.1,2.9c0.3,0.5,1,0.3,1.1,0.6c0.2,0.8,1,1.3,0.5,2.1c-0.6,1-2.5,1.4-1.6,2.9
							c0.6,1.1,0.2,2.3-0.2,3.5c-0.5,1.4-1.7,2.1-2.9,2.4c-1,0.3-2.1,0.3-3,0.2c-0.3-0.2-0.6-0.3-1-0.3c-2.7-0.3-5.4-1.1-8.1-1.1
							c-0.8,0.2-1.6,0.3-2.2,0.6c-0.7,0.5-1.4,1.1-1.9,1.7l0,0c-0.1,0.1-0.2,0.3-0.3,0.4c-0.1,0.1-0.1,0.2-0.2,0.2
							c0,0.1-0.1,0.1-0.1,0.2c-0.5,0.6-0.9,1.2-1.2,1.8c0,0,0,0.1-0.1,0.1c0,0.1-0.1,0.1-0.1,0.2c-0.5,1-0.9,1.9-1.2,2.9
							c-1.1,3.6-0.6,6.7,0.1,7.5c0.2,0.2,5.2,1.8,8.7,3.3c1.6,0.7,2.8,1.3,3.7,1.9h88.6V83.8H314.3z"/>
					</g>
				</g>
				<path class="st4" d="M229.4,114.4c0.6,0.2,1.6,0.2,1.6,0.5c-0.3,1.3-2.2,1.6-3.2,2.9h-0.5c-0.5,0.3-0.3,1.1-0.8,1.1
					c-0.5-0.2-1,0-1.4,0.2c0.6,0.6,1.4,1.1,2.4,1c0.2,0,0.5,0.3,0.5,0.6c0,0,0.2,0,0.3-0.2c0.2,0,0.3,0,0.3,0.2v0.6
					c-0.5,0.6-1.3,0.3-1.9,0.5c1.3,0.3,2.5,0.3,3.6,0c1-0.3,0-1.9,0.6-2.7c-0.3,0,0-0.5-0.3-0.5c0.3-0.3,0.6-0.8,1-1
					c0.3,0,0.8-0.2,1-0.5c0-0.3-0.6-0.5-0.5-0.8c1-0.6,1.7-1.6,1.4-2.5c-0.2-0.5-1.4-0.5-2.2-0.8s-1.7,0-2.7,0.2
					c-0.8,0-1.6,0.5-2.4,0.6c-1.1,0.3-2.1,1-3,1.6c1.1-0.5,2.2-0.6,3.5-1C227.7,114.4,228.5,114.1,229.4,114.4z"/>
			</g>
		</g>
	</g>
</g>
<g id="ZONE_x5F_DE_x5F_PROTECTION" class="st0">
	<rect x="84.5" y="84" class="st5" width="830" height="661.5"/>
	<rect y="0.5" class="st6" width="998.5" height="828.5"/>
</g>
<g>
	<path d="M281.7,632.3c1.7,0,3.2,1.3,2.4,4.6l-8,1.9C277.6,635,279.9,632.3,281.7,632.3 M286.1,645.1h-1.6c-2,2.4-4.1,4.2-6.3,4.2
		c-2.2,0-3.3-1.3-3.3-4.2c0-1.2,0.1-2.4,0.4-3.5l12.9-4.2c2.5-5.9-0.5-8.5-4-8.5c-6.1,0-13,10.1-13,19c0,4,1.9,6.2,4.9,6.2
		C279.5,654,283.2,650.6,286.1,645.1 M283.6,626.5l9-8.4v-1h-4.9l-5.6,9.4H283.6z M255.9,632.4h4.3l-6.8,18.5
		c-0.6,1.6,0.2,3.1,1.9,3.1c3.8,0,10-3.8,12.2-9h-1.2c-1.7,1.8-5,4.2-7.8,4.7l6.2-17.4h6.3l0.8-2.6h-6.2l2.4-6.7h-2.5l-4.4,6.7
		l-5.2,0.7L255.9,632.4L255.9,632.4z M250.1,631.5c0.5-1.7-0.6-2.7-1.5-2.7c-3.7,0-8.1,3.3-9.9,8h1.2c1.2-1.7,3.2-3.6,5.1-3.9
		l-7.1,18.4c-0.6,1.7,0.6,2.7,1.5,2.7c3.5,0,7.6-3.4,9.4-8h-1.2c-1.2,1.7-3.2,3.6-5.1,3.9L250.1,631.5z M251.4,622.3
		c1.7,0,3.1-1.3,3.1-3.1c0-1.7-1.4-3.1-3.1-3.1s-3.1,1.4-3.1,3.1C248.4,620.9,249.7,622.3,251.4,622.3 M210.6,650.6
		c-0.9,2.1,0,3.4,2.1,3.4c1.3,0,1.8-0.3,2.3-1.7l4.9-13c2.3-2.8,6.9-5.7,8.8-5.7c1.3,0,1.2,1.1,0.3,2.8l-7.5,14.5
		c-0.7,1.4,0.2,3.1,1.9,3.1c3.7,0,8.1-3.3,9.9-8h-1.2c-1.2,1.7-3.2,3.6-5.1,3.9l6.5-13.1c0.8-1.7,1.3-3.2,1.3-4.5
		c0-2.1-1.2-3.5-3.4-3.5c-3.2,0-6.4,3.6-10.3,8.1v-3.4c0-2.5-0.8-4.6-3-4.6c-1.4,0-2.7,1.2-4,2.9v0.5c2.4-0.1,3.5,3.5,1.8,7.3
		L210.6,650.6z M210.5,634.5c0.9-3,0.4-5.6-1.9-5.6c-2.7,0-3.4,2.1-6.2,8.1v-3.4c0-2.5-0.8-4.6-3-4.6c-2.6,0-5,4-6.8,8h1.2
		c1.3-1.8,2.4-2.9,3.3-2.9c1.1,0,1.7,1.7,0,5.5l-5,11.1c-0.9,2.1,0,3.4,2.1,3.4c1.3,0,1.8-0.3,2.3-1.7l4.9-13
		c1.4-1.7,2.6-3.2,4.2-4.9L210.5,634.5L210.5,634.5z M182.1,632.3c1.7,0,3.2,1.3,2.4,4.6l-8,1.9C177.9,635,180.3,632.3,182.1,632.3
		 M186.5,645.1h-1.6c-2,2.4-4.1,4.2-6.3,4.2s-3.3-1.3-3.3-4.2c0-1.2,0.1-2.4,0.4-3.5l12.8-4.2c2.5-5.9-0.5-8.5-4-8.5
		c-6.1,0-13,10.1-13,19c0,4,1.9,6.2,4.9,6.2C179.9,654,183.5,650.6,186.5,645.1 M156.3,632.4h4.3l-6.8,18.5
		c-0.6,1.6,0.2,3.1,1.9,3.1c3.8,0,10-3.8,12.2-9h-1.2c-1.7,1.8-5,4.2-7.8,4.7l6.2-17.4h6.3l0.8-2.6H166l2.4-6.7h-2.5l-4.4,6.7
		l-5.2,0.7V632.4z M132.9,646.8c0-5.7,6.3-13.4,9.9-13.4c0.8,0,1.5,0.1,2.2,0.3l-3.7,9.9c-2.1,2.6-5.4,5.7-6.9,5.7
		C133.4,649.3,132.9,648.5,132.9,646.8 M152.4,627.8l-1.9-0.1l-2.2,2.1h-0.5c-10.6,0-19.7,11.9-19.7,20.5c0,2.4,1.5,3.8,3.8,3.8
		c2.7,0,5.4-3.9,8.4-8.1l-0.1,1.5c-0.4,4.3,0.9,6.6,3.1,6.6c2.6,0,5-4,6.8-8h-1.2c-1.3,1.8-2.4,2.9-3.3,2.9c-1,0-1.7-1.8,0-5.5
		L152.4,627.8z M129.9,634.5c0.9-3,0.4-5.6-1.9-5.6c-2.7,0-3.4,2.1-6.2,8.1v-3.4c0-2.5-0.8-4.6-3-4.6c-2.6,0-5,4-6.8,8h1.2
		c1.3-1.8,2.4-2.9,3.3-2.9c1.1,0,1.7,1.7,0,5.5l-5,11.1c-0.9,2.1,0,3.4,2.1,3.4c1.3,0,1.8-0.3,2.3-1.7l4.9-13
		c1.4-1.7,2.6-3.2,4.2-4.9L129.9,634.5L129.9,634.5z M94.4,653.1l0.5-1.4c-6.2-1.2-6.9-1.2-4.5-7.9l2.5-6.9h6.8
		c3.1,0,3.1,1.3,2.6,4.6h1.8l4.1-11.2h-1.8c-1.5,2.6-2.7,4.6-6.1,4.6h-6.7l3.6-9.8c1.1-3.1,1.8-3.8,5.9-3.8h3c4.3,0,4.8,1.2,4.8,5.5
		h1.7l1.4-7.6H88.5l-0.5,1.4c5,1,5.4,1.5,3.1,7.9l-5.6,15.2c-2.3,6.3-3.3,6.9-9,7.9l-0.4,1.4L94.4,653.1L94.4,653.1z"/>
	<path d="M219.7,574.4c1.7,0,3.2,1.3,2.4,4.6l-8,1.9C215.5,577.1,217.9,574.4,219.7,574.4 M224.1,587.2h-1.6c-2,2.4-4.1,4.2-6.3,4.2
		s-3.3-1.3-3.3-4.2c0-1.2,0.1-2.4,0.4-3.5l12.8-4.2c2.5-5.9-0.5-8.5-4-8.5c-6.1,0-13,10.1-13,19c0,4,1.9,6.2,4.9,6.2
		C217.5,596.1,221.2,592.8,224.1,587.2 M221.6,568.6l9-8.4v-1h-4.9l-5.6,9.4H221.6z M193.9,574.5h4.3l-6.8,18.5
		c-0.6,1.6,0.2,3.1,1.9,3.1c3.8,0,10-3.8,12.2-9h-1.3c-1.7,1.8-5,4.2-7.8,4.7l6.2-17.4h6.3l0.8-2.6h-6.2l2.4-6.7h-2.5l-4.4,6.7
		l-5.2,0.7L193.9,574.5L193.9,574.5z M188.1,573.6c0.5-1.7-0.6-2.7-1.5-2.7c-3.7,0-8.1,3.3-9.9,8h1.2c1.2-1.7,3.2-3.6,5.1-3.9
		l-7.1,18.4c-0.6,1.7,0.6,2.7,1.5,2.7c3.5,0,7.6-3.4,9.4-8h-1.2c-1.2,1.7-3.2,3.6-5.1,3.9L188.1,573.6z M189.4,564.4
		c1.7,0,3.1-1.3,3.1-3.1c0-1.7-1.4-3.1-3.1-3.1c-1.7,0-3.1,1.4-3.1,3.1C186.4,563,187.7,564.4,189.4,564.4 M164.8,592.1l12.9-33.9
		l-0.4-0.5l-8.1,0.9v1l1.6,1.2c1.4,1.1,1,2.2-0.3,5.6L160.4,593c-0.7,1.4,0.2,3.1,1.9,3.1c3.7,0,7.6-3.3,9.4-8h-1.2
		C169.2,589.8,166.7,591.7,164.8,592.1 M140.3,588.9c0-5.7,6.3-13.4,9.9-13.4c0.8,0,1.5,0.1,2.2,0.3l-3.7,9.9
		c-2.1,2.6-5.4,5.7-6.9,5.7C140.8,591.4,140.3,590.6,140.3,588.9 M159.7,569.9l-1.9-0.1l-2.2,2.1h-0.4c-10.6,0-19.7,11.9-19.7,20.5
		c0,2.4,1.5,3.8,3.8,3.8c2.7,0,5.4-3.9,8.4-8.1l-0.1,1.5c-0.4,4.3,0.9,6.6,3.1,6.6c2.6,0,5-4,6.8-8h-1.2c-1.3,1.8-2.4,2.9-3.3,2.9
		c-1,0-1.7-1.8,0-5.5L159.7,569.9z M112.6,600.6c0-2.5,2.4-4,5.7-5.3c1.1,0.6,2.8,1.2,5,1.9c3.5,1.2,4.9,1.6,4.9,2.7
		c0,2.3-3.8,4-9.1,4C114.7,603.9,112.6,603,112.6,600.6 M122.2,585.7c-1.5,0-2.1-1.3-2.1-2.8c0-4.1,2.2-10.2,5.7-10.2
		c1.5,0,2.1,1.3,2.1,2.8C127.9,579.6,125.7,585.7,122.2,585.7 M132.2,598.4c0-3-2.6-4-6.9-5.3c-3.7-1.1-5.4-1.4-5.4-2.6
		c0-1,0.8-2.1,2.4-3c6.1-0.3,10-5.8,10-10.4c0-1-0.2-1.8-0.5-2.5h5.1l0.8-2.6h-8.2c-1-0.6-2.1-0.9-3.3-0.9
		c-6.4,0-10.6,5.6-10.6,10.2c0,3.5,2.2,5.6,4.9,6.2c-3,1.3-4.7,2.9-4.7,4.8c0,1.1,0.4,1.8,1.3,2.5c-6.9,2-9.7,4.4-9.7,7.6
		c0,3.2,4.2,4.5,9.2,4.5C125.2,606.8,132.2,602.2,132.2,598.4 M99.9,578.5c3.1,0,3.1,1.3,2.6,4.6h1.8l4.1-11.2h-1.8
		c-1.5,2.6-2.7,4.6-6.1,4.6h-6.7l3.4-9.3c1.1-3.1,1.8-3.7,5.9-3.7h3c4.3,0,4.8,1.2,4.8,5.5h1.7l1.4-7.6H88.5l-0.5,1.4
		c5,1,5.4,1.5,3.1,7.9l-5.6,15.2c-2.3,6.3-3.3,6.9-9,7.9l-0.4,1.4h28.4l5.1-8.1h-1.9c-3.2,3.1-7.3,6-13,6c-7.5,0-6.9-0.3-4.4-7.2
		l2.7-7.4H99.9L99.9,578.5z M103.6,559.1l9-6.2v-1h-5.5l-5,7.2H103.6z"/>
	<path d="M216.7,516.5c1.7,0,3.2,1.3,2.4,4.6l-8,1.9C212.5,519.2,214.9,516.5,216.7,516.5 M221.1,529.3h-1.6c-2,2.4-4.1,4.2-6.3,4.2
		s-3.3-1.3-3.3-4.2c0-1.2,0.1-2.4,0.4-3.5l12.8-4.2c2.5-5.9-0.5-8.5-4-8.5c-6.1,0-13,10.1-13,19c0,4,1.9,6.2,4.9,6.2
		C214.5,538.3,218.1,534.9,221.1,529.3 M218.6,510.7l9-8.4v-1h-4.9l-5.6,9.4H218.6z M192,516.6h3.4l-6.8,18.5
		c-0.6,1.6,0.2,3.1,1.9,3.1c3.8,0,10-3.8,12.2-9h-1.2c-1.7,1.8-5,4.2-7.8,4.7l6.2-17.4h6.3l0.8-2.6h-6.2l2.4-6.7h-2.5l-4.4,6.7
		l-4.4,0.7v2H192z M188.7,518.7c0.9-3,0.4-5.6-1.9-5.6c-2.7,0-3.4,2.1-6.2,8.1v-3.4c0-2.5-0.8-4.6-3-4.6c-2.6,0-5,4-6.8,8h1.2
		c1.3-1.8,2.4-2.9,3.3-2.9c1.1,0,1.7,1.7,0,5.5l-5,11.1c-0.9,2.1,0,3.4,2.1,3.4c1.3,0,1.8-0.3,2.3-1.7l4.9-13
		c1.4-1.7,2.6-3.2,4.2-4.9L188.7,518.7L188.7,518.7z M160.3,516.5c1.7,0,3.2,1.3,2.4,4.6l-8,1.9
		C156.1,519.2,158.4,516.5,160.3,516.5 M164.7,529.3h-1.6c-2,2.4-4.1,4.2-6.3,4.2s-3.3-1.3-3.3-4.2c0-1.2,0.1-2.4,0.4-3.5l12.8-4.2
		c2.5-5.9-0.5-8.5-4-8.5c-6.1,0-13,10.1-13,19c0,4,1.9,6.2,4.9,6.2C158.1,538.3,161.7,534.9,164.7,529.3 M133.2,534.5
		c-1.3,0-3.1-1.2-3.1-2.2c0-0.3,0.6-1.8,1.3-3.6l2.1-5.5c2.2-2.6,5.6-5.5,7.5-5.5c1.2,0,2,0.7,2,2.5
		C143,525.3,138.3,534.5,133.2,534.5 M147.8,518.2c0-3.8-1.4-5.1-4-5.1c-3.2,0-6.3,3.4-9.4,7.6l7.7-20.3l-0.4-0.5l-8.1,0.9v1
		l1.6,1.2c1.4,1.1,1,2.3-0.3,5.6l-8.3,21.5c-0.6,1.6-1.3,3.4-1.3,3.9c0,2.2,3,4.3,5.7,4.3C137.3,538.3,147.8,526.9,147.8,518.2
		 M122.6,515.8c0.5-1.7-0.6-2.7-1.5-2.7c-3.7,0-8.1,3.3-9.9,8h1.2c1.2-1.7,3.2-3.6,5.1-3.9l-7.1,18.4c-0.6,1.7,0.6,2.7,1.5,2.7
		c3.5,0,7.6-3.4,9.4-8h-1.1c-1.2,1.7-3.2,3.6-5.1,3.9L122.6,515.8z M123.9,506.5c1.7,0,3.1-1.3,3.1-3.1c0-1.7-1.4-3.1-3.1-3.1
		s-3.1,1.4-3.1,3.1C120.9,505.2,122.2,506.5,123.9,506.5 M105.2,503.5H88.4l-0.5,1.4c5,1,5.4,1.5,3.1,7.9L85.5,528
		c-2.3,6.3-3.3,6.9-9,7.9l-0.4,1.4h25.7l5.6-9.9h-1.9c-3.1,3.5-6.9,7.8-12.5,7.8c-4.3,0-4.8-0.7-2.5-7.2l5.5-15.2
		c2.3-6.3,3.3-6.9,9-7.9L105.2,503.5z"/>
</g>
<g>
	<path d="M85.5,211.2h15.9l15.4,26.5l15.4-26.5h15.9v63h-12.8V229l-14,23.6h-9l-14-23.6v45.2H85.5V211.2z"/>
	<path d="M165.8,211.2h12.8v63h-12.8V211.2z"/>
	<path d="M196.3,211.2h16.4l28.2,45.5v-45.5h12.8v63h-16.4l-28.2-45.5v45.5h-12.8V211.2z"/>
	<path d="M271.4,211.2h12.8v63h-12.8V211.2z"/>
	<path d="M305.5,256.9c3.8,4.9,8.8,7.7,13.9,7.7c5,0,8.1-2.7,8.1-7.2c0-11.6-28.6-8.5-28.6-29.8c0-10,8.3-18.3,20.3-18.3
		c9.4,0,16.6,4.2,22,10.6l-9.4,8.5c-3.7-4.8-7.8-7.9-12.6-7.9c-4.5,0-7.5,2.9-7.5,6.7c0,11.4,28.6,8.2,28.6,29.8
		c-0.2,11.9-9.5,19-21,19c-10.6,0-17.7-3.9-23.3-10.5L305.5,256.9z"/>
	<path d="M347.1,211.2h51.7v11.6h-19.4v51.4h-12.8v-51.4h-19.4V211.2z"/>
	<path d="M410.1,211.2h36.7v10.6h-23.9v14.9h20.3v10.6h-20.3v16.2h23.9v10.6h-36.7V211.2z M411.2,193.6h13.1l10.2,12.1h-11.7
		L411.2,193.6z"/>
	<path d="M461.7,211.2H481c13.9,0,22.4,7.1,22.4,18.8c0,7.6-3.7,13.3-10.2,16.3l19.7,27.9h-15l-16.8-25.5h-6.6v25.5h-12.8V211.2z
		 M474.5,221.8v16.3h7.2c5.4,0,8.5-3.1,8.5-8.3c0-4.8-3.1-8-8.5-8H474.5z"/>
	<path d="M521.1,211.2h36.7v10.6h-23.9v14.9h20.3v10.6h-20.3v16.2h23.9v10.6h-36.7V211.2z"/>
	<path d="M85.5,303.2h24.7c20,0,33.5,14.5,33.5,31.5s-13.5,31.5-33.5,31.5H85.5V303.2z M98.3,314.8v39.8h12.1
		c11.7,0,20.2-8.7,20.2-19.9c0-11.2-8.5-19.9-20.2-19.9H98.3z"/>
	<path d="M193.4,303.2h12.8v38.3c0,16.6-9.7,26.5-25.6,26.5c-15.7,0-25.5-9.9-25.5-26.5v-38.3h12.8v39.4c0,8.5,4.8,13.4,12.8,13.4
		c7.8,0,12.7-4.9,12.7-13.4V303.2z"/>
	<path d="M239.1,303.2h51.7v11.6h-19.4v51.4h-12.8v-51.4h-19.4V303.2z"/>
	<path d="M302.1,303.2h19.3c13.9,0,22.4,7.1,22.4,18.8c0,7.6-3.7,13.3-10.2,16.3l19.7,27.9h-15l-16.8-25.5h-6.6v25.5h-12.8V303.2z
		 M314.9,313.8v16.3h7.2c5.4,0,8.5-3.1,8.5-8.3c0-4.8-3.1-8-8.5-8H314.9z"/>
	<path d="M380.1,303.2h16.7l23.8,63h-13.6l-6-16.4h-25.2l-6,16.4h-13.6L380.1,303.2z M397.1,338.9l-8.6-23.7l-8.6,23.7H397.1z"/>
	<path d="M430.6,303.2l18.6,49.2l18.6-49.2h13.6l-23.8,63h-16.7l-23.8-63H430.6z"/>
	<path d="M501.6,303.2h16.7l23.8,63h-13.6l-6-16.4h-25.2l-6,16.4h-13.6L501.6,303.2z M518.6,338.9l-8.6-23.7l-8.6,23.7H518.6z"/>
	<path d="M552,303.2h12.8v63H552V303.2z"/>
	<path d="M582.5,303.2h12.8v51.4h23.9v11.6h-36.7V303.2z"/>
	<path d="M85.5,395.2h36.7v10.6H98.3v14.9h20.3v10.6H98.3v16.2h23.9v10.6H85.5V395.2z"/>
	<path d="M132.1,395.2h51.7v11.6h-19.4v51.4h-12.8v-51.4h-19.4V395.2z"/>
	<path d="M218.6,395.2h24.7c20,0,33.5,14.5,33.5,31.5c0,17-13.5,31.5-33.5,31.5h-24.7V395.2z M231.3,406.8v39.8h12.1
		c11.7,0,20.2-8.7,20.2-19.9c0-11.2-8.5-19.9-20.2-19.9H231.3z"/>
	<path d="M289.2,395.2h36.7v10.6H302v14.9h20.3v10.6H302v16.2h23.9v10.6h-36.7V395.2z"/>
	<path d="M364.4,395.2h12.8v51.4h23.9v11.6h-36.7V395.2z"/>
	<path d="M398.5,421.1l8.1-25.9h13l-10.4,25.9H398.5z"/>
	<path d="M429.6,395.2h36.7v10.6h-23.9v14.9h20.3v10.6h-20.3v16.2h23.9v10.6h-36.7V395.2z"/>
	<path d="M481.3,395.2h15.9l15.4,26.5l15.4-26.5h15.9v63h-12.8V413l-14,23.6h-9L494,413v45.2h-12.8V395.2z"/>
	<path d="M561.5,395.2h20.8c13.9,0,22.3,7.1,22.3,18.8c0,11.6-8.5,18.7-22.3,18.7h-8v25.5h-12.8V395.2z M574.3,405.8v16.3h8.5
		c5.4,0,8.6-3.2,8.6-8.3c0-4.8-3.2-8-8.6-8H574.3z"/>
	<path d="M615.3,395.2h12.8v51.4H652v11.6h-36.7V395.2z"/>
	<path d="M722.5,426.7c0,18-13.6,33.3-33.4,33.3c-19.9,0-33.5-15.3-33.5-33.3c0-18,13.6-33.3,33.5-33.3
		C709,393.4,722.5,408.7,722.5,426.7z M709.4,426.7c0-12.1-8.5-21.3-20.2-21.3c-11.9,0-20.3,9.3-20.3,21.3
		c0,12.1,8.5,21.3,20.3,21.3C701,448,709.4,438.7,709.4,426.7z"/>
	<path d="M734.9,395.2h12.8v63h-12.8V395.2z"/>
</g>
</svg>
