<svg xmlns="http://www.w3.org/2000/svg" width="40" height="40" fill="none"><path fill="#CACAFB" fill-rule="evenodd" d="M37.5 31a.5.5 0 1 1 .001-1.002A.5.5 0 0 1 37.5 31M27.5 2a.5.5 0 1 1 .001-1.002A.5.5 0 0 1 27.5 2M1.5 27a.5.5 0 1 1 .001-1.002A.5.5 0 0 1 1.5 27" clip-rule="evenodd"/><path fill="#E1000F" d="M20.5 9a.5.5 0 0 1 .058.996L20.5 10h-8a.5.5 0 0 1-.058-.997L12.5 9zM25.5 12a.5.5 0 0 1 .058.996L25.5 13h-13a.5.5 0 0 1-.058-.996l.058-.004zM23 15.5a.5.5 0 0 0-.5-.5h-10l-.058.003a.5.5 0 0 0 .058.996h10l.058-.003A.5.5 0 0 0 23 15.5"/><path fill="#000091" d="M25.5 18a.5.5 0 0 1 .058.996L25.5 19h-13a.5.5 0 0 1-.058-.997L12.5 18zM26 24.5a.5.5 0 0 0-.5-.5h-13l-.058.003A.5.5 0 0 0 12.5 25h13l.058-.004A.5.5 0 0 0 26 24.5M23 21.5a.5.5 0 0 0-.5-.5h-10l-.058.003A.5.5 0 0 0 12.5 22h10l.058-.004A.5.5 0 0 0 23 21.5M22.5 30a.5.5 0 0 1 .058.996L22.5 31h-10a.5.5 0 0 1-.058-.997L12.5 30zM20 27.5a.5.5 0 0 0-.5-.5h-7l-.058.003A.5.5 0 0 0 12.5 28h7l.058-.004A.5.5 0 0 0 20 27.5"/><path fill="#000091" fill-rule="evenodd" d="M9.5 6h19a.5.5 0 0 1 .5.5v27a.5.5 0 0 1-.5.5h-19a.5.5 0 0 1-.5-.5v-27a.5.5 0 0 1 .5-.5M28 33V7H10v26z" clip-rule="evenodd"/><path fill="#000091" d="M30.5 10a.5.5 0 0 1 .497.441L31 10.5v25a.5.5 0 0 1-.442.497L30.5 36h-17a.5.5 0 0 1-.058-.996l.058-.004H30V10.5a.5.5 0 0 1 .442-.496z"/></svg>