<svg width="1200" height="628" fill="none" xmlns="http://www.w3.org/2000/svg"><path fill="#fff" d="M0 0h1200v628H0z"/><path fill="#fff" d="M507 547h185v58H507z"/><path d="M583.702 598.124l2.187-1.861c1.312-1.302 2.625-2.605 4.155-3.722.438-.372.875-.744 1.313-.93 0 0 0-.186.218-.373-.437.187-1.093.745-1.531.931 0 0-.218 0 0-.186.438-.186.875-.372 1.313-.931v-.186c-1.531-.186-3.062.745-4.156 1.675h-.437c-1.968.372-3.281 1.861-5.03 2.606v-.186c-.875.186-1.312.744-2.187.744-1.094.186-2.187 0-3.062 0-1.531.186-3.062.372-4.593.745-.875.186-1.531.372-2.406.744 0 0 0 .186-.218.186l-.875.744c-.875.187-1.312.931-2.187 1.303h-.219l-1.968 1.675h-.219c0-.186.219-.186.219-.372s.219-.186.219-.372c.218-.186.218-.372.437-.745v-.186h-.219c.438-.372 1.312-.93 2.187-1.303h-.218l.218-.186c-.218 0-.437.186-.437.373-.219.186-.438.744-1.094.744h-.218v-.186s0-.186.218-.186v-1.117l.875-.744c.438-.186 1.094-.372 1.312-.745 0 0 .219 0 .219-.186-.875.186-1.312.372-1.968.931h-.438c0-.186.438-.186.875-.372h.219c4.155-2.606 9.404-2.048 13.997-3.537.219-.186.875-.372 1.093-.744.438-.186 1.094-.744 1.969-1.117 1.093-.744 1.531-1.302 2.187-2.605v-.186c-1.531 1.302-3.5 2.605-5.468 3.536-2.624 1.116-5.467.93-8.092 1.303 0-.187.219-.187.438-.187 0-.186.218-.372.437-.744h.437s0-.186.219-.186h.437c-.218-.372-1.093.186-1.53 0 .218-.186 0-.372.218-.745h.656c0-.186.219-.372.219-.372 1.968-.93 3.499-1.675 5.468-2.605-.219 0-.438.186-1.094 0 .219 0 0-.186.219-.186 1.312-.186 2.406-.931 3.718-1.303-.438 0-.875.186-1.312 0 .218 0 .218-.186.874-.186v-.186h.219-.219c0-.186.438 0 .875-.186h-.219c.219-.373 1.094-.373 1.531-.745 0-.186-.437 0-.437-.186h.219-.219c-.219 0 0-.186 0-.372.875-.745.875-1.675 1.093-2.606h-.218c-1.312 1.117-3.281 1.675-5.03 2.047h-.438c-.437.187-1.531.187-2.187 0-.437-.186-.875-.372-1.312-.93-1.094-.372-1.968-.931-3.062-1.303-3.062-.93-6.124-1.303-9.404-1.117 1.312-.744 3.062-.744 4.374-1.116 2.187-.372 4.155-1.117 6.124-1.117h-1.313c-1.531 0-3.499.186-5.467.745-1.312.186-2.406.744-3.499.93-.875.186-1.094.931-1.969.745v-.187c1.312-1.302 2.625-2.605 4.593-2.605 2.187-.186 4.374 0 6.561.186 1.531 0 3.062.372 4.593.744.437 0 .875.931 1.312.931.875.186 1.531 0 2.187.372v-.744c.438-.372 1.094 0 1.531 0 1.094-.372-.875-1.303-1.312-2.233v-.187c1.093.745 1.531 1.675 3.062 2.048.437.186 2.187.372 1.968 0-.437-1.117-1.968-2.048-3.062-3.164v-.931c-.219 0-.219 0-.219-.186v-.372c-.437-.186-.218-.745-.437-.931-.219-.372 0-1.302-.219-1.861-.218-.744-.218-1.116-.437-1.861-.219-1.861-.875-3.536-1.094-5.025-.218-2.047 1.313-3.722 2.406-5.211.875-1.303 1.968-2.605 3.499-3.536.219-1.303 1.313-2.233 2.406-3.536 1.094-.93 2.625-1.675 3.718-2.047 1.531-1.675 3.062-2.047 3.062-2.047h24.276l.437.186c.438.186 1.313.744 1.969.93.875.373 1.968.931 2.405 1.675.219.186.438.931.219 1.303-.218.372-.218 1.303-1.093 1.675-.875.186-1.531.186-2.625.186-.437 0-1.093 0-1.531-.186 1.969.744 3.5 1.303 4.812 2.792 0 .186.437.186 1.093.186v.186c-.218.186-.437.186-.218.744h.874c.438-.186.438-1.302 1.313-.93.437.186.874 1.116.437 1.675-.437.372-1.093.744-1.531 1.116v.745c.219.372.438.93.438 1.303.218.744.437 1.675.874 2.233.875 1.675 1.313 3.164 1.094 4.839 0 .93-.438 1.675 0 2.605.219.931.875 1.303 1.312 2.234.437.744 1.094 1.116 1.312 1.675.875 1.116 2.187 2.047 1.531 3.536-.218.744-1.531.744-2.624 1.116-.875.372 0 1.303.218 1.861.438.931-.874 1.675-1.53 1.861.218.187.874.187.874.373 0 .372.875.93.219 1.302-.437.745-1.968.931-1.312 1.862.437.744.219 1.674 0 2.233-.219.93-1.312 1.303-2.187 1.675-.875.186-1.531.186-2.406 0-.219 0-.437-.186-.875-.186-2.187-.186-4.374-.745-6.123-.745-.438 0-1.313.186-1.531.372-.438.373-1.094.745-1.531 1.117l-.219.186-.219.186c-.218.373-.874.745-1.093 1.117v.186c-.438.745-.875 1.303-.875 1.861-.875 2.606-.437 4.653 0 5.025.219.186 4.155 1.117 6.78 2.233 1.312.373 2.187.931 3.062 1.117h-51.614c2.405-1.303 4.592-2.047 8.092-3.536 1.749-.186 5.249-1.675 6.342-2.606zm-19.027-7.444h-.437c0-.372 1.093-.372 1.53-.744.219 0 .438-.186.875-.186.219.186.438.186.875.372-.875.558-1.968 0-2.843.558zm-19.246-2.605c1.531-2.048 2.624-3.723 3.718-5.584 1.531-.744 3.062-1.861 4.374-2.977 2.187-1.861 4.374-3.723 6.999-4.653 1.093-.186 2.187-.186 3.28 0-.219.372-1.093.186-1.531.744h-.219v-.186c-1.312 1.117-3.061 1.675-4.155 2.978-.875 1.117-1.312 2.605-3.062 2.792-.437 0 0-.187 0-.187-3.28 2.048-6.123 4.281-9.404 7.073zm10.716-6.886c0 .186-.218.186-.218.372s-.219.186-.438.372h-.218c-.219-.372 0-.744.874-.744 0 0 0-.187 0 0zm5.687 15.819c0 .186-.219.186-.219.186.219 0 .219 0 .219.186-.219.186-.438.372-.875.372h-.219l-.437.372c-.219 0-.875 0-.438-.186l.875-.744.438-.372.218-.186c-.218.186.438.186.438.372zm-2.187-.931c-.438.186-1.094.745-1.312.931-.438.186-1.094.372-1.531.744h-.219c-.438.186-.875.372-1.312.931l-.219.186-.219.186-.218.186-.219.186h-.656c-.219 0-.219.186-.438.186l-.874.745v-.186c0-.186.218-.186.218-.373v-.186l.219-.186c.219-.186.219-.186.219-.372 0 0 0-.186.218-.186 0 0 0-.186.219-.186V598.124c.219-.186.219-.372.437-.372-.218 0-.218.186-.437.186 0 0-.219 0-.219-.186l.219-.186c.219-.186.219-.372.437-.372.219 0 .219-.186.219-.186l.219-.186c1.093-.931 3.28-.931 4.811-1.675.438-.186 1.313 0 1.969 0 .218 0 .874 0 1.093.186-.875-.372-1.968.372-2.624.744zm2.405-7.258s.219 0 .438-.186h-1.094v-.186c-.437 0-1.312.186-1.968.372-.875.186-1.531.744-2.624.931-1.313.372-2.406 1.302-4.156 1.861v-.186c0-.187.438-.373.875-.745v-.372c1.094-1.117 2.406-1.861 3.499-2.792v-.186c.219-.372 1.094-.744 1.313-1.116 0-.187.437-.745 1.312-.931 0 0-.219 0-.219-.186-.437 0-1.093.186-1.531 0 .219-.186.438-.186.875-.372 0 0-.219 0-.219-.186 0-.187.219-.373.438-.373.437 0 1.093 0 1.531-.372-.875 0-1.969.186-2.625-.186.438-1.303 1.531-2.606 3.281-3.164h.218c0 .372-.218.931-1.093 1.117 1.093.186 1.968.186 3.062.744 0 .186-.219 0-.438 0 .438.186 1.313 0 1.969.372-.219.187-.875 0-1.094 0 3.718.931 7.873 1.675 11.154 3.909-2.624 1.116-5.686 1.675-8.748 2.233h-1.094v.186c-.437 0-.874 0-1.312.186-.656-.186-1.312 0-1.75-.372z" fill="#fff"/><path d="M583.702 598.125l2.187-1.862c1.312-1.302 2.625-2.605 4.155-3.722.438-.372.875-.744 1.313-.93 0 0 0-.186.218-.373-.437.187-1.093.745-1.531.931 0 0-.218 0 0-.186.438-.186.875-.372 1.313-.931v-.186c-1.531-.186-3.062.745-4.156 1.675h-.437c-1.968.372-3.281 1.861-5.03 2.606v-.186c-.875.186-1.312.744-2.187.744-1.094.186-2.187 0-3.062 0-1.531.186-3.062.372-4.593.745-.875.186-1.531.372-2.406.744 0 0 0 .186-.218.186l-.875.745c-.875.186-1.312.93-2.187 1.302h-.219l-1.968 1.675h-.219c0-.186.219-.186.219-.372s.218-.186.218-.372c.219-.186.219-.372.438-.745v-.186h-.219c.438-.372 1.312-.93 2.187-1.302h-.219l.219-.187c-.219 0-.437.187-.437.373-.219.186-.438.744-1.094.744h-.218v-.186s0-.186.218-.186v-1.117l.875-.744c.437-.186 1.094-.372 1.312-.745 0 0 .219 0 .219-.186-.875.186-1.312.372-1.968.931h-.438c0-.186.438-.186.875-.372h.219c4.155-2.606 9.404-2.048 13.997-3.537.218-.186.875-.372 1.093-.744.438-.186 1.094-.744 1.969-1.117 1.093-.744 1.531-1.302 2.187-2.605v-.186c-1.531 1.303-3.5 2.605-5.468 3.536-2.624 1.116-5.467.93-8.092 1.303 0-.187.219-.187.437-.187 0-.186.219-.372.438-.744h.437s0-.186.219-.186h.437c-.218-.372-1.093.186-1.531 0 .219-.186 0-.372.219-.745h.656c0-.186.219-.372.219-.372 1.968-.93 3.499-1.675 5.468-2.605-.219 0-.438.186-1.094 0 .219 0 0-.186.219-.186 1.312-.186 2.406-.931 3.718-1.303-.438 0-.875.186-1.312 0 .218 0 .218-.186.874-.186v-.186h.219-.219c0-.186.438 0 .875-.186h-.219c.219-.373 1.094-.373 1.531-.745 0-.186-.437 0-.437-.186h.219-.219c-.219 0 0-.186 0-.372.875-.745.875-1.675 1.093-2.606h-.218c-1.312 1.117-3.281 1.675-5.03 2.047h-.438c-.437.187-1.531.187-2.187 0-.437-.186-.875-.372-1.312-.93-1.094-.372-1.968-.931-3.062-1.303-3.062-.93-6.124-1.303-9.404-1.116 1.312-.745 3.062-.745 4.374-1.117 2.187-.372 4.155-1.117 6.124-1.117h-1.313c-1.531 0-3.499.186-5.467.745-1.312.186-2.406.744-3.499.93-.875.186-1.094.931-1.969.745v-.186c1.312-1.303 2.625-2.606 4.593-2.606 2.187-.186 4.374 0 6.561.186 1.531 0 3.062.372 4.593.745.437 0 .875.93 1.312.93.875.186 1.531 0 2.187.372v-.744c.438-.372 1.094 0 1.531 0 1.094-.372-.875-1.303-1.312-2.233v-.187c1.093.745 1.531 1.675 3.062 2.048.437.186 2.187.372 1.968 0-.437-1.117-1.968-2.048-3.062-3.164v-.931c-.219 0-.219 0-.219-.186v-.372c-.437-.186-.218-.745-.437-.931-.219-.372 0-1.302-.219-1.861-.218-.744-.218-1.116-.437-1.861-.219-1.861-.875-3.536-1.094-5.025-.218-2.047 1.313-3.722 2.406-5.211.875-1.303 1.968-2.605 3.499-3.536.219-1.303 1.313-2.233 2.406-3.536 1.094-.93 2.625-1.675 3.718-2.047 1.531-1.675 3.062-2.047 3.062-2.047h-85.732v55.832h60.362c2.406-1.302 4.593-2.047 8.092-3.536 1.531-.558 5.031-2.047 6.124-2.977zm-19.027-7.445h-.438c0-.372 1.094-.372 1.531-.744.219 0 .438-.186.875-.186.219.186.438.186.875.372-.875.558-1.968 0-2.843.558zm-18.809-2.605s-.437 0 0 0c1.531-2.048 2.625-3.723 3.718-5.584 1.531-.744 3.062-1.861 4.374-2.977 2.187-1.861 4.374-3.723 6.999-4.653 1.093-.186 2.187-.186 3.28 0-.218.372-1.093.186-1.53.744h-.438v-.186c-1.312 1.117-3.062 1.675-4.155 2.978-.875 1.117-1.312 2.606-3.062 2.792-.438 0 0-.186 0-.186-3.499 2.047-6.343 4.28-9.186 7.072zm10.279-6.886c0 .186-.218.186-.218.372s-.219.186-.438.372h-.218c-.219-.372 0-.744.874-.744 0 0 0-.186 0 0zm5.687 15.819c0 .186-.219.186-.219.186.219 0 .219 0 .219.186-.219.186-.438.372-.875.372h-.219l-.437.373c-.219 0-.875 0-.438-.187l.875-.744.438-.372.218-.186c-.218.186.438.186.438.372zm-2.187-.931c-.438.186-1.094.745-1.313.931-.437.186-1.093.372-1.53.744h-.219c-.438.186-.875.373-1.312.931l-.219.186-.219.186-.219.186-.218.186h-.656c-.219 0-.219.186-.438.186l-.875.745v-.186c0-.186.219-.186.219-.372v-.187l.219-.186c.219-.186.219-.186.219-.372 0 0 0-.186.218-.186 0 0 0-.186.219-.186v-.558c.219-.187.219-.373.437-.373-.218 0-.218.186-.437.186 0 0-.219 0-.219-.186l.219-.186c.219-.186.219-.372.437-.372.219 0 .219-.186.219-.186l.219-.186c1.093-.931 3.28-.931 4.811-1.675.438-.186 1.312 0 1.969 0 .218 0 .874 0 1.093.186-.875-.372-1.531.372-2.624.744zm2.405-7.258s.219 0 .438-.186h-1.094v-.186c-.437 0-1.312.186-1.968.372-.875.186-1.531.745-2.624.931-1.313.372-2.406 1.302-4.156 1.861v-.186c0-.187.438-.373.875-.745v-.372c1.093-1.117 2.406-1.861 3.499-2.792v-.186c.219-.372 1.094-.744 1.312-1.116 0-.187.438-.745 1.313-.931 0 0-.219 0-.219-.186-.437 0-1.094.186-1.531 0 .219-.186.437-.186.875-.372 0 0-.219 0-.219-.186 0-.187.219-.373.438-.373.437 0 1.093 0 1.53-.372-.874 0-1.968.186-2.624-.186.437-1.303 1.531-2.605 3.281-3.164h.218c0 .372-.218.931-1.093 1.117 1.093.186 1.968.186 3.062.744 0 .186-.219 0-.438 0 .438.186 1.312 0 1.969.372-.219.187-.875 0-1.094 0 3.718.931 7.873 1.675 11.154 3.909-2.625 1.116-5.686 1.675-8.748 2.233h-1.094v.186c-.437 0-.875 0-1.312.186-.656-.186-1.312 0-1.75-.372z" fill="#000091"/><path d="M689.987 548.806h-70.86l.438.186c.437.186 1.312.744 1.968.93.875.373 1.968.931 2.406 1.675.218.186.437.931.218 1.303-.218.372-.218 1.303-1.093 1.675-.875.186-1.531.186-2.624.186-.438 0-1.094 0-1.531-.186 1.968.744 3.499 1.303 4.811 2.792 0 .186.437.186 1.094.186v.186c-.219.186-.438.186-.219.744h.875c.437-.186.437-1.302 1.312-.93.437.186.875 1.116.437 1.675-.437.372-1.093.744-1.531 1.116v.745c.219.372.438.93.438 1.303.219.744.437 1.675.875 2.233.874 1.675 1.312 3.164 1.093 4.839 0 .93-.437 1.675 0 2.605.219.931.875 1.303 1.312 2.234.438.744 1.094 1.116 1.313 1.675.874 1.116 2.187 2.047 1.531 3.536-.219.744-1.531.744-2.625 1.116-.875.372 0 1.303.219 1.861.437.931-.875 1.675-1.531 1.861.219.187.875.187.875.373 0 .372.874.93.218 1.302-.437.745-1.968.931-1.312 1.862.438.744.219 1.674 0 2.233-.219.93-1.312 1.303-2.187 1.675-.875.186-1.531.186-2.406 0-.218 0-.437-.186-.874-.186-2.187-.186-4.375-.745-6.124-.745-.438 0-1.312.186-1.531.372-.437.373-1.094.745-1.531 1.117l-.219.186-.218.186c-.219.373-.875.745-1.094 1.117v.186c-.437.745-.875 1.303-.875 1.861-.875 2.606-.437 4.653 0 5.025.219.186 4.156 1.117 6.78 2.233 1.312.373 2.187.931 3.062 1.117h69.548v-55.46h-.438z" fill="#E1000F"/><path d="M623.286 569.277c.437 0 1.312 0 1.312.187-.219.93-1.531 1.116-2.406 1.861h-.218c-.219.186-.219.744-.438.744h-1.093c.437.372 1.093.744 1.968.744 0 0 .219.187.219.373h.437v.372c-.218.372-1.093.186-1.531.186 1.094.186 1.969.186 3.062 0 .875-.186 0-1.303.438-1.861-.219 0 0-.186-.219-.186l.875-.745c.218 0 .437 0 .875-.186 0-.186-.438-.186-.219-.372.875-.372 1.312-1.117 1.093-1.675 0-.186-1.093-.186-1.531-.372-.437-.186-1.312 0-2.187 0-.437 0-1.312.186-1.968.372-1.531.186-2.187.745-3.062.931.875-.186 1.531-.373 2.625-.745.656.372 1.312 0 1.968.372z" fill="#9C9B9B"/><g clip-path="url(#clip0)"><path d="M844.063 345.791h-635.08v-94.605h635.08v94.605z" fill="#FF7067"/><path d="M843.932 251.186H524.199v-94.604h319.733v94.604z" fill="#FF7067"/><path d="M266.622 317.746l-.372-.186c2.296 0 4.436-.372 6.42-1.117 1.986-.742 3.661-1.859 5.026-3.347 1.365-1.487 2.481-3.345 3.349-5.578.807-2.17 1.209-4.712 1.209-7.625 0-3.039-.402-5.642-1.209-7.812-.868-2.295-1.984-4.214-3.349-5.764-1.365-1.549-3.04-2.76-5.026-3.628-1.86-.806-3.97-1.208-6.326-1.208h-10.051v36.265h10.329zm-1.303-50.862h-.092c4.838 0 9.212.774 13.12 2.323 4.032 1.55 7.475 3.782 10.329 6.695 2.977 2.976 5.273 6.447 6.885 10.415 1.675 4.092 2.514 8.585 2.514 13.481 0 4.837-.807 9.3-2.42 13.392-1.552 3.966-3.784 7.346-6.7 10.136-2.915 2.788-6.358 4.927-10.33 6.416-3.969 1.487-8.343 2.229-13.12 2.229h-24.844v-65.087h24.658zM365.814 267.068v37.659c0 4.588-.651 8.649-1.954 12.182-1.302 3.595-3.102 6.569-5.397 8.925-2.358 2.418-5.18 4.279-8.467 5.58-3.413 1.239-7.134 1.859-11.166 1.859-4.033 0-7.755-.62-11.168-1.859-3.287-1.301-6.109-3.162-8.467-5.58-2.295-2.356-4.094-5.33-5.397-8.925-1.302-3.533-1.954-7.594-1.954-12.182v-37.659h15.354v37.565c0 4.961.993 8.617 2.978 10.973 1.923 2.294 4.807 3.44 8.654 3.44 3.846 0 6.73-1.146 8.654-3.44 1.984-2.356 2.977-6.012 2.977-10.973v-37.565h15.353zM455.432 267.068v14.412h-18.145v50.679h-15.262V281.48h-17.958v-14.412h51.365zM483.16 297.195l9.307.186c1.24 0 2.357-.248 3.349-.742.869-.436 1.614-1.054 2.232-1.862.62-.804 1.055-1.642 1.303-2.509.31-1.054.467-2.015.467-2.884 0-.867-.157-1.829-.467-2.883-.248-.866-.683-1.704-1.303-2.51-.618-.806-1.363-1.426-2.232-1.859-.992-.496-2.109-.744-3.349-.744h-9.307v15.807zm17.961 35.056l-11.168-21.107h-6.884v21.203h-15.262v-64.999h23.077c3.659 0 7.071.526 10.237 1.58 3.038.992 5.643 2.479 7.815 4.463 2.171 1.984 3.846 4.309 5.025 6.975 1.179 2.603 1.769 5.641 1.769 9.111 0 4.403-.964 8.152-2.887 11.251-1.922 3.163-4.652 5.611-8.187 7.346l13.584 24.177h-17.119zM564.211 308.261l-4.465-14.134c-.498-1.611-.84-2.819-1.026-3.628-.248-1.054-.527-2.106-.837-3.16-.063-.248-.172-.636-.325-1.162-.157-.526-.265-.884-.326-1.07l-.28-.837h-.091l-.186.837c-.065.186-.172.544-.327 1.07-.155.526-.264.914-.326 1.162-.062.248-.201.728-.42 1.441-.215.712-.387 1.288-.511 1.719l-1.115 3.628-4.56 14.134h14.795zm4.465 13.669h-23.541l-3.256 10.228h-16.192l23.357-65.089h15.818l23.357 65.089h-16.284l-3.259-10.228zM655.772 267.068l-22.798 65.091h-17.402l-22.517-65.091h16.563l11.166 35.893c1.054 3.346 1.923 6.478 2.605 9.392.558 2.416.868 3.625.931 3.625h.093c.062 0 .372-1.209.93-3.625.682-2.914 1.552-6.046 2.606-9.392l11.165-35.893h16.658zM699.509 308.261l-4.465-14.134c-.496-1.611-.838-2.819-1.024-3.628-.248-1.054-.527-2.106-.837-3.16-.065-.248-.172-.636-.327-1.162-.155-.526-.263-.884-.325-1.07l-.279-.837h-.093l-.186.837c-.063.186-.172.544-.325 1.07-.157.526-.265.914-.327 1.162-.062.248-.2.728-.419 1.441-.215.712-.387 1.288-.511 1.719l-1.115 3.628-4.56 14.134h14.793zm4.467 13.669h-23.541l-3.257 10.228h-16.193l23.357-65.089h15.82l23.355 65.089h-16.284l-3.257-10.228zM735.151 267.068h15.261v65.091h-15.261v-65.091zM812.288 317.651v14.508h-43.456v-65.091h15.26v50.583h28.196zM597.807 191.634l-.091.274c-1.337-2.064-3.069-3.613-5.194-4.646-2.187-1.032-4.375-1.547-6.563-1.547-4.617 0-8.201 1.639-10.753 4.918-2.552 3.278-3.828 7.771-3.828 13.479 0 5.829 1.368 10.32 4.102 13.478 2.734 3.158 6.288 4.736 10.662 4.736 2.733 0 5.256-.637 7.564-1.912 2.248-1.275 3.981-3.25 5.194-5.92l14.766 3.915c-2.249 5.768-5.803 10.352-10.663 13.753-4.68 3.278-10.329 4.917-16.952 4.917-4.131 0-8.141-.76-12.03-2.276-3.705-1.519-6.896-3.765-9.569-6.74-2.675-2.915-4.769-6.406-6.289-10.473-1.52-4.007-2.279-8.56-2.279-13.661 0-5.1.759-9.654 2.279-13.66 1.52-4.068 3.614-7.559 6.289-10.473 2.673-2.975 5.864-5.222 9.569-6.74 3.829-1.579 7.838-2.368 12.03-2.368 6.197 0 11.544 1.489 16.041 4.463 4.555 3.036 8.111 7.225 10.663 12.567l-14.948 3.916zM643.007 217.59c2.553 3.278 6.107 4.918 10.663 4.918 4.558 0 8.142-1.64 10.754-4.918 2.614-3.218 3.919-7.772 3.919-13.661 0-5.951-1.305-10.504-3.919-13.661-2.673-3.218-6.258-4.827-10.754-4.827-4.556 0-8.11 1.609-10.663 4.827-2.551 3.157-3.829 7.71-3.829 13.661 0 5.829 1.278 10.383 3.829 13.661zm-19.413-13.478c0-5.1.761-9.654 2.279-13.662 1.519-4.067 3.615-7.559 6.289-10.473 2.673-2.975 5.863-5.222 9.57-6.74 3.828-1.577 7.836-2.367 12.029-2.367 4.314 0 8.325.79 12.031 2.367 3.705 1.579 6.895 3.795 9.568 6.649s4.8 6.344 6.38 10.473c1.519 4.008 2.278 8.56 2.278 13.661 0 5.1-.759 9.654-2.278 13.66-1.58 4.128-3.707 7.621-6.38 10.474-2.673 2.853-5.863 5.07-9.568 6.649-3.768 1.516-7.778 2.276-12.031 2.276-4.131 0-8.14-.76-12.029-2.276-3.707-1.519-6.897-3.765-9.57-6.74-2.674-2.915-4.77-6.406-6.289-10.473-1.518-4.007-2.279-8.56-2.279-13.661v.183zM723.394 221.688l-.366-.181c2.248 0 4.344-.366 6.289-1.094 1.945-.728 3.585-1.822 4.921-3.278 1.337-1.457 2.431-3.279 3.28-5.465.792-2.126 1.185-4.614 1.185-7.468 0-2.975-.393-5.525-1.185-7.651-.849-2.245-1.943-4.127-3.28-5.646-1.336-1.516-2.976-2.701-4.921-3.552-1.822-.788-3.889-1.183-6.198-1.183h-9.843v35.518h10.118zm-1.277-49.816h-.092c4.74 0 9.023.758 12.85 2.277 3.951 1.517 7.322 3.703 10.117 6.557 2.916 2.914 5.165 6.313 6.745 10.199 1.639 4.009 2.46 8.41 2.46 13.206 0 4.737-.79 9.108-2.37 13.114-1.517 3.886-3.706 7.195-6.562 9.928-2.855 2.731-6.227 4.827-10.114 6.283-3.89 1.457-8.174 2.186-12.851 2.186h-24.334v-63.75h24.151zM812.253 221.597v14.206H768.78v-63.75h42.926v14.117h-27.979v10.656h21.6v13.297h-21.6v11.474h28.526zM992.003 470.451h-625.96V344.98h625.96v125.471z" fill="#fff"/><path d="M373.47 463.598h610.175V349.442H373.47v114.156zm618.132 7.95H365.514V341.494h626.088v130.054z" fill="#FF7067"/><path d="M458.702 378.188l-.185 64.821h-13.861l-12.75-19.484c-.186-.308-1.571-2.308-4.159-6.002-.677-.985-2-2.985-3.972-6.001-.863-1.356-1.88-2.864-3.049-4.523l-1.203-1.85h-.184l.093 1.664c.062.432.107 1.202.138 2.309.031 1.106.046 1.937.046 2.493.124 2.091.217 4.585.276 7.477.062 1.91.095 5.079.095 9.511v14.218h-15.064v-64.54h13.863l13.489 20.407 3.326 4.987c.124.182 1.387 2.03 3.789 5.537.31.494.802 1.249 1.478 2.263.679 1.017 1.201 1.769 1.573 2.263l1.293 1.845h.092v-6.739c0-2.953-.031-5.355-.092-7.202-.063-1.846-.093-4.74-.093-8.681v-14.773h15.061zM527.175 378.188v37.395c0 4.558-.649 8.588-1.941 12.097-1.294 3.572-3.081 6.527-5.36 8.866-2.341 2.4-5.144 4.246-8.408 5.54-3.387 1.23-7.084 1.844-11.088 1.844s-7.699-.614-11.089-1.844c-3.265-1.294-6.069-3.14-8.409-5.54-2.277-2.339-4.065-5.294-5.359-8.866-1.294-3.509-1.94-7.539-1.94-12.097v-37.395h15.246v37.304c0 4.926.986 8.557 2.957 10.896 1.908 2.278 4.775 3.415 8.594 3.415 3.819 0 6.684-1.137 8.593-3.415 1.971-2.339 2.955-5.97 2.955-10.896v-37.304h15.249zM602.57 378.188l-.186 64.821h-14.783v-17.083c0-6.71.152-12.158.462-16.344.062-1.229.124-2.277.183-3.138.062-.863.093-1.507.093-1.939v-.646h-.093l-.738 1.29c-.615 1.109-1.14 2.094-1.572 2.957l-1.663 3.323-1.201 2.401-7.023 13.112h-7.67l-7.022-13.112c-.244-.615-.615-1.416-1.107-2.401l-1.664-3.323c-.431-.863-.955-1.848-1.572-2.957l-.739-1.29h-.184c-.062 0-.062.463 0 1.385.062.921.155 2.34.277 4.246.309 4.187.464 9.634.464 16.345v17.081h-14.693v-64.542h14.229l11.088 19.575c1.972 3.571 3.266 6.125 3.883 7.665.553 1.476.861 2.215.922 2.215h.093l.184-.556c.062-.122.308-.705.739-1.752.494-1.108.987-2.156 1.478-3.14.741-1.54 1.573-3.078 2.496-4.618l11.088-19.575h14.231zM635.007 375.51l-4.62-8.032 20.607-11.635 5.451 10.247-21.438 9.42zm27.535 52.908v14.404h-44.073v-64.636h43.52v14.315h-28.368v10.803h21.901v13.481h-21.901v11.633h28.921zM692.758 408.105l9.24.186c1.232 0 2.341-.248 3.327-.739.861-.432 1.6-1.047 2.217-1.847.615-.801 1.047-1.632 1.294-2.494.308-1.045.462-2.001.462-2.862 0-.863-.154-1.817-.462-2.863-.247-.863-.679-1.693-1.294-2.494-.617-.801-1.356-1.416-2.217-1.846-.986-.491-2.095-.739-3.327-.739h-9.24v15.698zm17.833 34.811l-11.087-20.96h-6.838v21.053h-15.153v-64.543h22.914c3.635 0 7.022.523 10.164 1.569 3.02.985 5.608 2.463 7.761 4.433 2.157 1.971 3.82 4.279 4.991 6.926 1.17 2.582 1.754 5.6 1.754 9.048 0 4.371-.955 8.095-2.863 11.173-1.909 3.138-4.621 5.57-8.13 7.294l13.489 24.007h-17.002zM739.147 378.188h15.154v64.635h-15.154v-64.635zM807.988 424.264c2.65-3.263 3.973-7.88 3.973-13.85 0-6.032-1.323-10.65-3.973-13.851-2.711-3.261-6.346-4.892-10.904-4.892-4.621 0-8.225 1.631-10.81 4.892-2.588 3.262-3.882 7.879-3.882 13.851 0 5.911 1.294 10.527 3.882 13.85 2.585 3.322 6.189 4.986 10.81 4.986 4.558 0 8.193-1.664 10.904-4.986zM789.509 443.1l-.093.37c-3.265-.677-6.409-2.001-9.425-3.969-2.772-1.787-5.205-4.157-7.299-7.111-2.035-2.894-3.604-6.125-4.715-9.697-1.107-3.569-1.661-7.539-1.661-11.91 0-5.171.768-9.787 2.31-13.85 1.54-4.124 3.666-7.663 6.376-10.619 2.71-3.016 5.943-5.294 9.7-6.832 3.882-1.601 7.947-2.401 12.199-2.401 4.372 0 8.438.8 12.197 2.401 3.757 1.601 6.991 3.847 9.702 6.739 2.708 2.894 4.865 6.433 6.467 10.619 1.54 4.063 2.31 8.681 2.31 13.851 0 4.308-.556 8.311-1.664 12.002-1.109 3.693-2.679 6.926-4.711 9.697-2.033 2.708-4.498 5.017-7.393 6.924-2.894 1.848-6.038 3.14-9.425 3.879v11.726h-14.875V443.1zM892.444 378.188v37.395c0 4.558-.648 8.588-1.942 12.097-1.292 3.572-3.08 6.527-5.358 8.866-2.341 2.4-5.145 4.246-8.41 5.54-3.387 1.23-7.082 1.844-11.087 1.844-4.002 0-7.699-.614-11.089-1.844-3.265-1.294-6.068-3.14-8.408-5.54-2.279-2.339-4.065-5.294-5.359-8.866-1.294-3.509-1.941-7.539-1.941-12.097v-37.395h15.247v37.304c0 4.926.986 8.557 2.957 10.896 1.908 2.278 4.773 3.415 8.593 3.415 3.82 0 6.684-1.137 8.594-3.415 1.971-2.339 2.957-5.97 2.957-10.896v-37.304h15.246zM951.489 428.42v14.401h-44.076v-64.633h43.521V392.5h-28.366v10.804h21.899v13.48h-21.899v11.636h28.921z" fill="#FF7067"/></g><path fill-rule="evenodd" clip-rule="evenodd" d="M36.0138 45H1163.02v538.328h-6v-.17H725.356l-.001-7h431.665V51H42v524.051h430l.002 6H36.1016l-.0006-3.261H36V47.2154h.0138V45z" fill="#000091"/><defs><clipPath id="clip0"><path fill="#fff" transform="translate(208 156)" d="M0 0h784v316H0z"/></clipPath></defs></svg>