<svg width="1200" height="628" viewBox="0 0 1200 628" fill="none" xmlns="http://www.w3.org/2000/svg">
<rect width="1200" height="628" fill="white"/>
<rect width="185" height="58" transform="translate(507 547)" fill="white"/>
<path d="M583.702 598.124L585.889 596.263C587.201 594.961 588.514 593.658 590.044 592.541C590.482 592.169 590.919 591.797 591.357 591.611C591.357 591.611 591.357 591.425 591.575 591.238C591.138 591.425 590.482 591.983 590.044 592.169C590.044 592.169 589.826 592.169 590.044 591.983C590.482 591.797 590.919 591.611 591.357 591.052V590.866C589.826 590.68 588.295 591.611 587.201 592.541H586.764C584.796 592.913 583.483 594.402 581.734 595.147V594.961C580.859 595.147 580.422 595.705 579.547 595.705C578.453 595.891 577.36 595.705 576.485 595.705C574.954 595.891 573.423 596.077 571.892 596.45C571.017 596.636 570.361 596.822 569.486 597.194C569.486 597.194 569.486 597.38 569.268 597.38L568.393 598.124C567.518 598.311 567.081 599.055 566.206 599.427H565.987L564.019 601.102H563.8C563.8 600.916 564.019 600.916 564.019 600.73C564.019 600.544 564.238 600.544 564.238 600.358C564.456 600.172 564.456 599.986 564.675 599.613V599.427H564.456C564.894 599.055 565.768 598.497 566.643 598.124H566.425L566.643 597.938C566.425 597.938 566.206 598.124 566.206 598.311C565.987 598.497 565.768 599.055 565.112 599.055H564.894V598.869C564.894 598.869 564.894 598.683 565.112 598.683V597.566L565.987 596.822C566.425 596.636 567.081 596.45 567.299 596.077C567.299 596.077 567.518 596.077 567.518 595.891C566.643 596.077 566.206 596.263 565.55 596.822H565.112C565.112 596.636 565.55 596.636 565.987 596.45H566.206C570.361 593.844 575.61 594.402 580.203 592.913C580.422 592.727 581.078 592.541 581.296 592.169C581.734 591.983 582.39 591.425 583.265 591.052C584.358 590.308 584.796 589.75 585.452 588.447V588.261C583.921 589.563 581.952 590.866 579.984 591.797C577.36 592.913 574.517 592.727 571.892 593.1C571.892 592.913 572.111 592.913 572.33 592.913C572.33 592.727 572.548 592.541 572.767 592.169H573.204C573.204 592.169 573.204 591.983 573.423 591.983H573.86C573.642 591.611 572.767 592.169 572.33 591.983C572.548 591.797 572.33 591.611 572.548 591.238H573.204C573.204 591.052 573.423 590.866 573.423 590.866C575.391 589.936 576.922 589.191 578.891 588.261C578.672 588.261 578.453 588.447 577.797 588.261C578.016 588.261 577.797 588.075 578.016 588.075C579.328 587.889 580.422 587.144 581.734 586.772C581.296 586.772 580.859 586.958 580.422 586.772C580.64 586.772 580.64 586.586 581.296 586.586V586.4H581.515H581.296C581.296 586.214 581.734 586.4 582.171 586.214H581.952C582.171 585.841 583.046 585.841 583.483 585.469C583.483 585.283 583.046 585.469 583.046 585.283H583.265H583.046C582.827 585.283 583.046 585.097 583.046 584.911C583.921 584.166 583.921 583.236 584.139 582.305H583.921C582.609 583.422 580.64 583.98 578.891 584.352H578.453C578.016 584.539 576.922 584.539 576.266 584.352C575.829 584.166 575.391 583.98 574.954 583.422C573.86 583.05 572.986 582.491 571.892 582.119C568.83 581.189 565.768 580.816 562.488 581.002C563.8 580.258 565.55 580.258 566.862 579.886C569.049 579.514 571.017 578.769 572.986 578.769H571.673C570.142 578.769 568.174 578.955 566.206 579.514C564.894 579.7 563.8 580.258 562.707 580.444C561.832 580.63 561.613 581.375 560.738 581.189V581.002C562.05 579.7 563.363 578.397 565.331 578.397C567.518 578.211 569.705 578.397 571.892 578.583C573.423 578.583 574.954 578.955 576.485 579.327C576.922 579.327 577.36 580.258 577.797 580.258C578.672 580.444 579.328 580.258 579.984 580.63V579.886C580.422 579.514 581.078 579.886 581.515 579.886C582.609 579.514 580.64 578.583 580.203 577.653V577.466C581.296 578.211 581.734 579.141 583.265 579.514C583.702 579.7 585.452 579.886 585.233 579.514C584.796 578.397 583.265 577.466 582.171 576.35V575.419C581.952 575.419 581.952 575.419 581.952 575.233V574.861C581.515 574.675 581.734 574.116 581.515 573.93C581.296 573.558 581.515 572.628 581.296 572.069C581.078 571.325 581.078 570.953 580.859 570.208C580.64 568.347 579.984 566.672 579.765 565.183C579.547 563.136 581.078 561.461 582.171 559.972C583.046 558.669 584.139 557.367 585.67 556.436C585.889 555.133 586.983 554.203 588.076 552.9C589.17 551.97 590.701 551.225 591.794 550.853C593.325 549.178 594.856 548.806 594.856 548.806H619.132L619.569 548.992C620.007 549.178 620.882 549.736 621.538 549.922C622.413 550.295 623.506 550.853 623.943 551.597C624.162 551.783 624.381 552.528 624.162 552.9C623.944 553.272 623.944 554.203 623.069 554.575C622.194 554.761 621.538 554.761 620.444 554.761C620.007 554.761 619.351 554.761 618.913 554.575C620.882 555.319 622.413 555.878 623.725 557.367C623.725 557.553 624.162 557.553 624.818 557.553V557.739C624.6 557.925 624.381 557.925 624.6 558.483H625.474C625.912 558.297 625.912 557.181 626.787 557.553C627.224 557.739 627.661 558.669 627.224 559.228C626.787 559.6 626.131 559.972 625.693 560.344V561.089C625.912 561.461 626.131 562.019 626.131 562.392C626.349 563.136 626.568 564.067 627.005 564.625C627.88 566.3 628.318 567.789 628.099 569.464C628.099 570.394 627.661 571.139 628.099 572.069C628.318 573 628.974 573.372 629.411 574.303C629.848 575.047 630.505 575.419 630.723 575.978C631.598 577.094 632.91 578.025 632.254 579.514C632.036 580.258 630.723 580.258 629.63 580.63C628.755 581.002 629.63 581.933 629.848 582.491C630.286 583.422 628.974 584.166 628.318 584.352C628.536 584.539 629.192 584.539 629.192 584.725C629.192 585.097 630.067 585.655 629.411 586.027C628.974 586.772 627.443 586.958 628.099 587.889C628.536 588.633 628.318 589.563 628.099 590.122C627.88 591.052 626.787 591.425 625.912 591.797C625.037 591.983 624.381 591.983 623.506 591.797C623.287 591.797 623.069 591.611 622.631 591.611C620.444 591.425 618.257 590.866 616.508 590.866C616.07 590.866 615.195 591.052 614.977 591.238C614.539 591.611 613.883 591.983 613.446 592.355L613.227 592.541L613.008 592.727C612.79 593.1 612.134 593.472 611.915 593.844V594.03C611.477 594.775 611.04 595.333 611.04 595.891C610.165 598.497 610.603 600.544 611.04 600.916C611.259 601.102 615.195 602.033 617.82 603.149C619.132 603.522 620.007 604.08 620.882 604.266H569.268C571.673 602.963 573.86 602.219 577.36 600.73C579.109 600.544 582.609 599.055 583.702 598.124ZM564.675 590.68H564.238C564.238 590.308 565.331 590.308 565.768 589.936C565.987 589.936 566.206 589.75 566.643 589.75C566.862 589.936 567.081 589.936 567.518 590.122C566.643 590.68 565.55 590.122 564.675 590.68ZM545.429 588.075C546.96 586.027 548.053 584.352 549.147 582.491C550.678 581.747 552.209 580.63 553.521 579.514C555.708 577.653 557.895 575.791 560.52 574.861C561.613 574.675 562.707 574.675 563.8 574.861C563.581 575.233 562.707 575.047 562.269 575.605H562.05V575.419C560.738 576.536 558.989 577.094 557.895 578.397C557.02 579.514 556.583 581.002 554.833 581.189C554.396 581.189 554.833 581.002 554.833 581.002C551.553 583.05 548.71 585.283 545.429 588.075ZM556.145 581.189C556.145 581.375 555.927 581.375 555.927 581.561C555.927 581.747 555.708 581.747 555.489 581.933H555.271C555.052 581.561 555.271 581.189 556.145 581.189C556.145 581.189 556.145 581.002 556.145 581.189ZM561.832 597.008C561.832 597.194 561.613 597.194 561.613 597.194C561.832 597.194 561.832 597.194 561.832 597.38C561.613 597.566 561.394 597.752 560.957 597.752H560.738L560.301 598.124C560.082 598.124 559.426 598.124 559.863 597.938L560.738 597.194L561.176 596.822L561.394 596.636C561.176 596.822 561.832 596.822 561.832 597.008ZM559.645 596.077C559.207 596.263 558.551 596.822 558.333 597.008C557.895 597.194 557.239 597.38 556.802 597.752H556.583C556.145 597.938 555.708 598.124 555.271 598.683L555.052 598.869L554.833 599.055L554.615 599.241L554.396 599.427H553.958H553.74C553.521 599.427 553.521 599.613 553.302 599.613L552.428 600.358V600.172C552.428 599.986 552.646 599.986 552.646 599.799V599.613L552.865 599.427C553.084 599.241 553.084 599.241 553.084 599.055C553.084 599.055 553.084 598.869 553.302 598.869C553.302 598.869 553.302 598.683 553.521 598.683V598.497V598.311V598.124C553.74 597.938 553.74 597.752 553.958 597.752C553.74 597.752 553.74 597.938 553.521 597.938C553.521 597.938 553.302 597.938 553.302 597.752L553.521 597.566C553.74 597.38 553.74 597.194 553.958 597.194C554.177 597.194 554.177 597.008 554.177 597.008L554.396 596.822C555.489 595.891 557.676 595.891 559.207 595.147C559.645 594.961 560.52 595.147 561.176 595.147C561.394 595.147 562.05 595.147 562.269 595.333C561.394 594.961 560.301 595.705 559.645 596.077ZM562.05 588.819C562.05 588.819 562.269 588.819 562.488 588.633H561.394V588.447C560.957 588.447 560.082 588.633 559.426 588.819C558.551 589.005 557.895 589.563 556.802 589.75C555.489 590.122 554.396 591.052 552.646 591.611V591.425C552.646 591.238 553.084 591.052 553.521 590.68V590.308C554.615 589.191 555.927 588.447 557.02 587.516V587.33C557.239 586.958 558.114 586.586 558.333 586.214C558.333 586.027 558.77 585.469 559.645 585.283C559.645 585.283 559.426 585.283 559.426 585.097C558.989 585.097 558.333 585.283 557.895 585.097C558.114 584.911 558.333 584.911 558.77 584.725C558.77 584.725 558.551 584.725 558.551 584.539C558.551 584.352 558.77 584.166 558.989 584.166C559.426 584.166 560.082 584.166 560.52 583.794C559.645 583.794 558.551 583.98 557.895 583.608C558.333 582.305 559.426 581.002 561.176 580.444H561.394C561.394 580.816 561.176 581.375 560.301 581.561C561.394 581.747 562.269 581.747 563.363 582.305C563.363 582.491 563.144 582.305 562.925 582.305C563.363 582.491 564.238 582.305 564.894 582.677C564.675 582.864 564.019 582.677 563.8 582.677C567.518 583.608 571.673 584.352 574.954 586.586C572.33 587.702 569.268 588.261 566.206 588.819H565.112V589.005C564.675 589.005 564.238 589.005 563.8 589.191C563.144 589.005 562.488 589.191 562.05 588.819Z" fill="white"/>
<path d="M583.702 598.125L585.889 596.263C587.201 594.961 588.514 593.658 590.044 592.541C590.482 592.169 590.919 591.797 591.357 591.611C591.357 591.611 591.357 591.425 591.575 591.238C591.138 591.425 590.482 591.983 590.044 592.169C590.044 592.169 589.826 592.169 590.044 591.983C590.482 591.797 590.919 591.611 591.357 591.052V590.866C589.826 590.68 588.295 591.611 587.201 592.541H586.764C584.796 592.913 583.483 594.402 581.734 595.147V594.961C580.859 595.147 580.422 595.705 579.547 595.705C578.453 595.891 577.36 595.705 576.485 595.705C574.954 595.891 573.423 596.077 571.892 596.45C571.017 596.636 570.361 596.822 569.486 597.194C569.486 597.194 569.486 597.38 569.268 597.38L568.393 598.125C567.518 598.311 567.081 599.055 566.206 599.427H565.987L564.019 601.102H563.8C563.8 600.916 564.019 600.916 564.019 600.73C564.019 600.544 564.237 600.544 564.237 600.358C564.456 600.172 564.456 599.986 564.675 599.613V599.427H564.456C564.894 599.055 565.768 598.497 566.643 598.125H566.424L566.643 597.938C566.424 597.938 566.206 598.125 566.206 598.311C565.987 598.497 565.768 599.055 565.112 599.055H564.894V598.869C564.894 598.869 564.894 598.683 565.112 598.683V597.566L565.987 596.822C566.424 596.636 567.081 596.45 567.299 596.077C567.299 596.077 567.518 596.077 567.518 595.891C566.643 596.077 566.206 596.263 565.55 596.822H565.112C565.112 596.636 565.55 596.636 565.987 596.45H566.206C570.361 593.844 575.61 594.402 580.203 592.913C580.421 592.727 581.078 592.541 581.296 592.169C581.734 591.983 582.39 591.425 583.265 591.052C584.358 590.308 584.796 589.75 585.452 588.447V588.261C583.921 589.564 581.952 590.866 579.984 591.797C577.36 592.913 574.517 592.727 571.892 593.1C571.892 592.913 572.111 592.913 572.329 592.913C572.329 592.727 572.548 592.541 572.767 592.169H573.204C573.204 592.169 573.204 591.983 573.423 591.983H573.86C573.642 591.611 572.767 592.169 572.329 591.983C572.548 591.797 572.329 591.611 572.548 591.238H573.204C573.204 591.052 573.423 590.866 573.423 590.866C575.391 589.936 576.922 589.191 578.891 588.261C578.672 588.261 578.453 588.447 577.797 588.261C578.016 588.261 577.797 588.075 578.016 588.075C579.328 587.889 580.422 587.144 581.734 586.772C581.296 586.772 580.859 586.958 580.422 586.772C580.64 586.772 580.64 586.586 581.296 586.586V586.4H581.515H581.296C581.296 586.214 581.734 586.4 582.171 586.214H581.952C582.171 585.841 583.046 585.841 583.483 585.469C583.483 585.283 583.046 585.469 583.046 585.283H583.265H583.046C582.827 585.283 583.046 585.097 583.046 584.911C583.921 584.166 583.921 583.236 584.139 582.305H583.921C582.609 583.422 580.64 583.98 578.891 584.352H578.453C578.016 584.539 576.922 584.539 576.266 584.352C575.829 584.166 575.391 583.98 574.954 583.422C573.86 583.05 572.986 582.491 571.892 582.119C568.83 581.189 565.768 580.816 562.488 581.003C563.8 580.258 565.55 580.258 566.862 579.886C569.049 579.514 571.017 578.769 572.986 578.769H571.673C570.142 578.769 568.174 578.955 566.206 579.514C564.894 579.7 563.8 580.258 562.707 580.444C561.832 580.63 561.613 581.375 560.738 581.189V581.003C562.05 579.7 563.363 578.397 565.331 578.397C567.518 578.211 569.705 578.397 571.892 578.583C573.423 578.583 574.954 578.955 576.485 579.328C576.922 579.328 577.36 580.258 577.797 580.258C578.672 580.444 579.328 580.258 579.984 580.63V579.886C580.422 579.514 581.078 579.886 581.515 579.886C582.609 579.514 580.64 578.583 580.203 577.653V577.466C581.296 578.211 581.734 579.141 583.265 579.514C583.702 579.7 585.452 579.886 585.233 579.514C584.796 578.397 583.265 577.466 582.171 576.35V575.419C581.952 575.419 581.952 575.419 581.952 575.233V574.861C581.515 574.675 581.734 574.116 581.515 573.93C581.296 573.558 581.515 572.628 581.296 572.069C581.078 571.325 581.078 570.953 580.859 570.208C580.64 568.347 579.984 566.672 579.765 565.183C579.547 563.136 581.078 561.461 582.171 559.972C583.046 558.669 584.139 557.367 585.67 556.436C585.889 555.133 586.983 554.203 588.076 552.9C589.17 551.97 590.701 551.225 591.794 550.853C593.325 549.178 594.856 548.806 594.856 548.806H509.124V604.638H569.486C571.892 603.336 574.079 602.591 577.578 601.102C579.109 600.544 582.609 599.055 583.702 598.125ZM564.675 590.68H564.237C564.237 590.308 565.331 590.308 565.768 589.936C565.987 589.936 566.206 589.75 566.643 589.75C566.862 589.936 567.081 589.936 567.518 590.122C566.643 590.68 565.55 590.122 564.675 590.68ZM545.866 588.075C545.866 588.075 545.429 588.075 545.866 588.075C547.397 586.027 548.491 584.352 549.584 582.491C551.115 581.747 552.646 580.63 553.958 579.514C556.145 577.653 558.332 575.791 560.957 574.861C562.05 574.675 563.144 574.675 564.237 574.861C564.019 575.233 563.144 575.047 562.707 575.605H562.269V575.419C560.957 576.536 559.207 577.094 558.114 578.397C557.239 579.514 556.802 581.003 555.052 581.189C554.614 581.189 555.052 581.003 555.052 581.003C551.553 583.05 548.709 585.283 545.866 588.075ZM556.145 581.189C556.145 581.375 555.927 581.375 555.927 581.561C555.927 581.747 555.708 581.747 555.489 581.933H555.271C555.052 581.561 555.271 581.189 556.145 581.189C556.145 581.189 556.145 581.003 556.145 581.189ZM561.832 597.008C561.832 597.194 561.613 597.194 561.613 597.194C561.832 597.194 561.832 597.194 561.832 597.38C561.613 597.566 561.394 597.752 560.957 597.752H560.738L560.301 598.125C560.082 598.125 559.426 598.125 559.863 597.938L560.738 597.194L561.176 596.822L561.394 596.636C561.176 596.822 561.832 596.822 561.832 597.008ZM559.645 596.077C559.207 596.263 558.551 596.822 558.332 597.008C557.895 597.194 557.239 597.38 556.802 597.752H556.583C556.145 597.938 555.708 598.125 555.271 598.683L555.052 598.869L554.833 599.055L554.614 599.241L554.396 599.427H553.958H553.74C553.521 599.427 553.521 599.613 553.302 599.613L552.427 600.358V600.172C552.427 599.986 552.646 599.986 552.646 599.8V599.613L552.865 599.427C553.084 599.241 553.084 599.241 553.084 599.055C553.084 599.055 553.084 598.869 553.302 598.869C553.302 598.869 553.302 598.683 553.521 598.683V598.497V598.311V598.125C553.74 597.938 553.74 597.752 553.958 597.752C553.74 597.752 553.74 597.938 553.521 597.938C553.521 597.938 553.302 597.938 553.302 597.752L553.521 597.566C553.74 597.38 553.74 597.194 553.958 597.194C554.177 597.194 554.177 597.008 554.177 597.008L554.396 596.822C555.489 595.891 557.676 595.891 559.207 595.147C559.645 594.961 560.519 595.147 561.176 595.147C561.394 595.147 562.05 595.147 562.269 595.333C561.394 594.961 560.738 595.705 559.645 596.077ZM562.05 588.819C562.05 588.819 562.269 588.819 562.488 588.633H561.394V588.447C560.957 588.447 560.082 588.633 559.426 588.819C558.551 589.005 557.895 589.564 556.802 589.75C555.489 590.122 554.396 591.052 552.646 591.611V591.425C552.646 591.238 553.084 591.052 553.521 590.68V590.308C554.614 589.191 555.927 588.447 557.02 587.516V587.33C557.239 586.958 558.114 586.586 558.332 586.214C558.332 586.027 558.77 585.469 559.645 585.283C559.645 585.283 559.426 585.283 559.426 585.097C558.989 585.097 558.332 585.283 557.895 585.097C558.114 584.911 558.332 584.911 558.77 584.725C558.77 584.725 558.551 584.725 558.551 584.539C558.551 584.352 558.77 584.166 558.989 584.166C559.426 584.166 560.082 584.166 560.519 583.794C559.645 583.794 558.551 583.98 557.895 583.608C558.332 582.305 559.426 581.003 561.176 580.444H561.394C561.394 580.816 561.176 581.375 560.301 581.561C561.394 581.747 562.269 581.747 563.363 582.305C563.363 582.491 563.144 582.305 562.925 582.305C563.363 582.491 564.237 582.305 564.894 582.677C564.675 582.864 564.019 582.677 563.8 582.677C567.518 583.608 571.673 584.352 574.954 586.586C572.329 587.702 569.268 588.261 566.206 588.819H565.112V589.005C564.675 589.005 564.237 589.005 563.8 589.191C563.144 589.005 562.488 589.191 562.05 588.819Z" fill="#000091"/>
<path d="M689.987 548.806H619.127L619.565 548.992C620.002 549.178 620.877 549.736 621.533 549.922C622.408 550.295 623.501 550.853 623.939 551.597C624.157 551.783 624.376 552.528 624.157 552.9C623.939 553.272 623.939 554.203 623.064 554.575C622.189 554.761 621.533 554.761 620.44 554.761C620.002 554.761 619.346 554.761 618.909 554.575C620.877 555.319 622.408 555.878 623.72 557.367C623.72 557.553 624.157 557.553 624.814 557.553V557.739C624.595 557.925 624.376 557.925 624.595 558.483H625.47C625.907 558.297 625.907 557.181 626.782 557.553C627.219 557.739 627.657 558.669 627.219 559.228C626.782 559.6 626.126 559.972 625.688 560.344V561.089C625.907 561.461 626.126 562.019 626.126 562.392C626.345 563.136 626.563 564.067 627.001 564.625C627.875 566.3 628.313 567.789 628.094 569.464C628.094 570.394 627.657 571.139 628.094 572.069C628.313 573 628.969 573.372 629.406 574.303C629.844 575.047 630.5 575.419 630.719 575.978C631.593 577.094 632.906 578.025 632.25 579.514C632.031 580.258 630.719 580.258 629.625 580.63C628.75 581.002 629.625 581.933 629.844 582.491C630.281 583.422 628.969 584.166 628.313 584.352C628.532 584.539 629.188 584.539 629.188 584.725C629.188 585.097 630.062 585.655 629.406 586.027C628.969 586.772 627.438 586.958 628.094 587.889C628.532 588.633 628.313 589.563 628.094 590.122C627.875 591.052 626.782 591.425 625.907 591.797C625.032 591.983 624.376 591.983 623.501 591.797C623.283 591.797 623.064 591.611 622.627 591.611C620.44 591.425 618.252 590.866 616.503 590.866C616.065 590.866 615.191 591.052 614.972 591.238C614.535 591.611 613.878 591.983 613.441 592.355L613.222 592.541L613.004 592.727C612.785 593.1 612.129 593.472 611.91 593.844V594.03C611.473 594.775 611.035 595.333 611.035 595.891C610.16 598.497 610.598 600.544 611.035 600.916C611.254 601.102 615.191 602.033 617.815 603.149C619.127 603.522 620.002 604.08 620.877 604.266H690.425V548.806H689.987Z" fill="#E1000F"/>
<path d="M623.286 569.277C623.723 569.277 624.598 569.277 624.598 569.464C624.379 570.394 623.067 570.58 622.192 571.325H621.974C621.755 571.511 621.755 572.069 621.536 572.069H620.443C620.88 572.441 621.536 572.813 622.411 572.813C622.411 572.813 622.63 573 622.63 573.186H623.067V573.558C622.849 573.93 621.974 573.744 621.536 573.744C622.63 573.93 623.505 573.93 624.598 573.744C625.473 573.558 624.598 572.441 625.036 571.883C624.817 571.883 625.036 571.697 624.817 571.697L625.692 570.952C625.91 570.952 626.129 570.952 626.567 570.766C626.567 570.58 626.129 570.58 626.348 570.394C627.223 570.022 627.66 569.277 627.441 568.719C627.441 568.533 626.348 568.533 625.91 568.347C625.473 568.161 624.598 568.347 623.723 568.347C623.286 568.347 622.411 568.533 621.755 568.719C620.224 568.905 619.568 569.464 618.693 569.65C619.568 569.464 620.224 569.277 621.318 568.905C621.974 569.277 622.63 568.905 623.286 569.277Z" fill="#9C9B9B"/>
<g clip-path="url(#clip0)">
<path d="M844.063 345.791H208.983V251.186H844.063V345.791Z" fill="#FF7067"/>
<path d="M843.932 251.186H524.199V156.582H843.932V251.186Z" fill="#FF7067"/>
<path d="M266.622 317.746L266.25 317.56C268.546 317.56 270.686 317.188 272.67 316.443C274.656 315.701 276.331 314.584 277.696 313.096C279.061 311.609 280.177 309.751 281.045 307.518C281.852 305.348 282.254 302.806 282.254 299.893C282.254 296.854 281.852 294.251 281.045 292.081C280.177 289.786 279.061 287.867 277.696 286.317C276.331 284.768 274.656 283.557 272.67 282.689C270.81 281.883 268.7 281.481 266.344 281.481H256.293V317.746H266.622ZM265.319 266.884H265.227C270.065 266.884 274.439 267.658 278.347 269.207C282.379 270.757 285.822 272.989 288.676 275.902C291.653 278.878 293.949 282.349 295.561 286.317C297.236 290.409 298.075 294.902 298.075 299.798C298.075 304.635 297.268 309.098 295.655 313.19C294.103 317.156 291.871 320.536 288.955 323.326C286.04 326.114 282.597 328.253 278.625 329.742C274.656 331.229 270.282 331.971 265.505 331.971H240.661V266.884H265.319Z" fill="white"/>
<path d="M365.814 267.068V304.727C365.814 309.315 365.163 313.376 363.86 316.909C362.558 320.504 360.758 323.478 358.463 325.834C356.105 328.252 353.283 330.113 349.996 331.414C346.583 332.653 342.862 333.273 338.83 333.273C334.797 333.273 331.075 332.653 327.662 331.414C324.375 330.113 321.553 328.252 319.195 325.834C316.9 323.478 315.101 320.504 313.798 316.909C312.496 313.376 311.844 309.315 311.844 304.727V267.068H327.198V304.633C327.198 309.594 328.191 313.25 330.176 315.606C332.099 317.9 334.983 319.046 338.83 319.046C342.676 319.046 345.56 317.9 347.484 315.606C349.468 313.25 350.461 309.594 350.461 304.633V267.068H365.814Z" fill="white"/>
<path d="M455.432 267.068V281.48H437.287V332.159H422.025V281.48H404.067V267.068H455.432Z" fill="white"/>
<path d="M483.16 297.195L492.467 297.381C493.707 297.381 494.824 297.133 495.816 296.639C496.685 296.203 497.43 295.585 498.048 294.777C498.668 293.973 499.103 293.135 499.351 292.268C499.661 291.214 499.818 290.253 499.818 289.384C499.818 288.517 499.661 287.555 499.351 286.501C499.103 285.635 498.668 284.797 498.048 283.991C497.43 283.185 496.685 282.565 495.816 282.132C494.824 281.636 493.707 281.388 492.467 281.388H483.16V297.195ZM501.121 332.251L489.953 311.144H483.069V332.347H467.807V267.348H490.884C494.543 267.348 497.955 267.874 501.121 268.928C504.159 269.92 506.764 271.407 508.936 273.391C511.107 275.375 512.782 277.7 513.961 280.366C515.14 282.969 515.73 286.007 515.73 289.477C515.73 293.88 514.766 297.629 512.843 300.728C510.921 303.891 508.191 306.339 504.656 308.074L518.24 332.251H501.121Z" fill="white"/>
<path d="M564.211 308.261L559.746 294.127C559.248 292.516 558.906 291.308 558.72 290.499C558.472 289.445 558.193 288.393 557.883 287.339C557.82 287.091 557.711 286.703 557.558 286.177C557.401 285.651 557.293 285.293 557.232 285.107L556.952 284.27H556.861L556.675 285.107C556.61 285.293 556.503 285.651 556.348 286.177C556.193 286.703 556.084 287.091 556.022 287.339C555.96 287.587 555.821 288.067 555.602 288.78C555.387 289.492 555.215 290.068 555.091 290.499L553.976 294.127L549.416 308.261H564.211ZM568.676 321.93H545.135L541.879 332.158H525.687L549.044 267.069H564.862L588.219 332.158H571.935L568.676 321.93Z" fill="white"/>
<path d="M655.772 267.068L632.974 332.159H615.572L593.055 267.068H609.618L620.784 302.961C621.838 306.307 622.707 309.439 623.389 312.353C623.947 314.769 624.257 315.978 624.32 315.978H624.413C624.475 315.978 624.785 314.769 625.343 312.353C626.025 309.439 626.895 306.307 627.949 302.961L639.114 267.068H655.772Z" fill="white"/>
<path d="M699.509 308.261L695.044 294.127C694.548 292.516 694.206 291.308 694.02 290.499C693.772 289.445 693.493 288.393 693.183 287.339C693.118 287.091 693.011 286.703 692.856 286.177C692.701 285.651 692.593 285.293 692.531 285.107L692.252 284.27H692.159L691.973 285.107C691.91 285.293 691.801 285.651 691.648 286.177C691.491 286.703 691.383 287.091 691.321 287.339C691.259 287.587 691.121 288.067 690.902 288.78C690.687 289.492 690.515 290.068 690.391 290.499L689.276 294.127L684.716 308.261H699.509ZM703.976 321.93H680.435L677.178 332.158H660.985L684.342 267.069H700.162L723.517 332.158H707.233L703.976 321.93Z" fill="white"/>
<path d="M735.151 267.068H750.412V332.159H735.151V267.068Z" fill="white"/>
<path d="M812.288 317.651V332.159H768.832V267.068H784.092V317.651H812.288Z" fill="white"/>
<path d="M597.807 191.634L597.716 191.908C596.379 189.844 594.647 188.295 592.522 187.262C590.335 186.23 588.147 185.715 585.959 185.715C581.342 185.715 577.758 187.354 575.206 190.633C572.654 193.911 571.378 198.404 571.378 204.112C571.378 209.941 572.746 214.432 575.48 217.59C578.214 220.748 581.768 222.326 586.142 222.326C588.875 222.326 591.398 221.689 593.706 220.414C595.954 219.139 597.687 217.164 598.9 214.494L613.666 218.409C611.417 224.177 607.863 228.761 603.003 232.162C598.323 235.44 592.674 237.079 586.051 237.079C581.92 237.079 577.91 236.319 574.021 234.803C570.316 233.284 567.125 231.038 564.452 228.063C561.777 225.148 559.683 221.657 558.163 217.59C556.643 213.583 555.884 209.03 555.884 203.929C555.884 198.829 556.643 194.275 558.163 190.269C559.683 186.201 561.777 182.71 564.452 179.796C567.125 176.821 570.316 174.574 574.021 173.056C577.85 171.477 581.859 170.688 586.051 170.688C592.248 170.688 597.595 172.177 602.092 175.151C606.647 178.187 610.203 182.376 612.755 187.718L597.807 191.634Z" fill="white"/>
<path d="M643.007 217.59C645.56 220.868 649.114 222.508 653.67 222.508C658.228 222.508 661.812 220.868 664.424 217.59C667.038 214.372 668.343 209.818 668.343 203.929C668.343 197.978 667.038 193.425 664.424 190.268C661.751 187.05 658.166 185.441 653.67 185.441C649.114 185.441 645.56 187.05 643.007 190.268C640.456 193.425 639.178 197.978 639.178 203.929C639.178 209.758 640.456 214.312 643.007 217.59ZM623.594 204.112C623.594 199.012 624.355 194.458 625.873 190.45C627.392 186.383 629.488 182.891 632.162 179.977C634.835 177.002 638.025 174.755 641.732 173.237C645.56 171.66 649.568 170.87 653.761 170.87C658.075 170.87 662.086 171.66 665.792 173.237C669.497 174.816 672.687 177.032 675.36 179.886C678.033 182.74 680.16 186.23 681.74 190.359C683.259 194.367 684.018 198.919 684.018 204.02C684.018 209.12 683.259 213.674 681.74 217.68C680.16 221.808 678.033 225.301 675.36 228.154C672.687 231.007 669.497 233.224 665.792 234.803C662.024 236.319 658.014 237.079 653.761 237.079C649.63 237.079 645.621 236.319 641.732 234.803C638.025 233.284 634.835 231.038 632.162 228.063C629.488 225.148 627.392 221.657 625.873 217.59C624.355 213.583 623.594 209.03 623.594 203.929V204.112Z" fill="white"/>
<path d="M723.394 221.688L723.028 221.507C725.276 221.507 727.372 221.141 729.317 220.413C731.262 219.685 732.902 218.591 734.238 217.135C735.575 215.678 736.669 213.856 737.518 211.67C738.31 209.544 738.703 207.056 738.703 204.202C738.703 201.227 738.31 198.677 737.518 196.551C736.669 194.306 735.575 192.424 734.238 190.905C732.902 189.389 731.262 188.204 729.317 187.353C727.495 186.565 725.428 186.17 723.119 186.17H713.276V221.688H723.394ZM722.117 171.872H722.025C726.765 171.872 731.048 172.63 734.875 174.149C738.826 175.666 742.197 177.852 744.992 180.706C747.908 183.62 750.157 187.019 751.737 190.905C753.376 194.914 754.197 199.315 754.197 204.111C754.197 208.848 753.407 213.219 751.827 217.225C750.31 221.111 748.121 224.42 745.265 227.153C742.41 229.884 739.038 231.98 735.151 233.436C731.261 234.893 726.977 235.622 722.3 235.622H697.966V171.872H722.117Z" fill="white"/>
<path d="M812.253 221.597V235.803H768.78V172.053H811.706V186.17H783.727V196.826H805.327V210.123H783.727V221.597H812.253Z" fill="white"/>
<path d="M992.003 470.451H366.043V344.98H992.003V470.451Z" fill="white"/>
<path d="M373.47 463.598H983.645V349.442H373.47V463.598ZM991.602 471.548H365.514V341.494H991.602V471.548Z" fill="#FF7067"/>
<path d="M458.702 378.188L458.517 443.009H444.656L431.906 423.525C431.72 423.217 430.335 421.217 427.747 417.523C427.07 416.538 425.747 414.538 423.775 411.522C422.912 410.166 421.895 408.658 420.726 406.999L419.523 405.149H419.339L419.432 406.813C419.494 407.245 419.539 408.015 419.57 409.122C419.601 410.228 419.616 411.059 419.616 411.615C419.74 413.706 419.833 416.2 419.892 419.092C419.954 421.002 419.987 424.171 419.987 428.603V442.821H404.923V378.281H418.786L432.275 398.688L435.601 403.675C435.725 403.857 436.988 405.705 439.39 409.212C439.7 409.706 440.192 410.461 440.868 411.475C441.547 412.492 442.069 413.244 442.441 413.738L443.734 415.583H443.826V413.738V408.844C443.826 405.891 443.795 403.489 443.734 401.642C443.671 399.796 443.641 396.902 443.641 392.961V378.188H458.702Z" fill="#FF7067"/>
<path d="M527.175 378.188V415.583C527.175 420.141 526.526 424.171 525.234 427.68C523.94 431.252 522.153 434.207 519.874 436.546C517.533 438.946 514.73 440.792 511.466 442.086C508.079 443.316 504.382 443.93 500.378 443.93C496.374 443.93 492.679 443.316 489.289 442.086C486.024 440.792 483.22 438.946 480.88 436.546C478.603 434.207 476.815 431.252 475.521 427.68C474.227 424.171 473.581 420.141 473.581 415.583V378.188H488.827V415.492C488.827 420.418 489.813 424.049 491.784 426.388C493.692 428.666 496.559 429.803 500.378 429.803C504.197 429.803 507.062 428.666 508.971 426.388C510.942 424.049 511.926 420.418 511.926 415.492V378.188H527.175Z" fill="#FF7067"/>
<path d="M602.57 378.188L602.384 443.009H587.601V425.926C587.601 419.216 587.753 413.768 588.063 409.582C588.125 408.353 588.187 407.305 588.246 406.444C588.308 405.581 588.339 404.937 588.339 404.505V403.859H588.246L587.508 405.149C586.893 406.258 586.368 407.243 585.936 408.106L584.273 411.429L583.072 413.83L576.049 426.942H568.379L561.357 413.83C561.113 413.215 560.742 412.414 560.25 411.429L558.586 408.106C558.155 407.243 557.631 406.258 557.014 405.149L556.275 403.859H556.091C556.029 403.859 556.029 404.322 556.091 405.244C556.153 406.165 556.246 407.584 556.368 409.49C556.677 413.677 556.832 419.124 556.832 425.835V442.916H542.139V378.374H556.368L567.456 397.949C569.428 401.52 570.722 404.074 571.339 405.614C571.892 407.09 572.2 407.829 572.261 407.829H572.354L572.538 407.273C572.6 407.151 572.846 406.568 573.277 405.521C573.771 404.413 574.264 403.365 574.755 402.381C575.496 400.841 576.328 399.303 577.251 397.763L588.339 378.188H602.57Z" fill="#FF7067"/>
<path d="M635.007 375.51L630.387 367.478L650.994 355.843L656.445 366.09L635.007 375.51ZM662.542 428.418V442.822H618.469V378.186H661.989V392.501H633.621V403.304H655.522V416.785H633.621V428.418H662.542Z" fill="#FF7067"/>
<path d="M692.758 408.105L701.998 408.291C703.23 408.291 704.339 408.043 705.325 407.552C706.186 407.12 706.925 406.505 707.542 405.705C708.157 404.904 708.589 404.073 708.836 403.211C709.144 402.166 709.298 401.21 709.298 400.349C709.298 399.486 709.144 398.532 708.836 397.486C708.589 396.623 708.157 395.793 707.542 394.992C706.925 394.191 706.186 393.576 705.325 393.146C704.339 392.655 703.23 392.407 701.998 392.407H692.758V408.105ZM710.591 442.916L699.504 421.956H692.666V443.009H677.513V378.466H700.427C704.062 378.466 707.449 378.989 710.591 380.035C713.611 381.02 716.199 382.498 718.352 384.468C720.509 386.439 722.172 388.747 723.343 391.394C724.513 393.976 725.097 396.994 725.097 400.442C725.097 404.813 724.142 408.537 722.234 411.615C720.325 414.753 717.613 417.185 714.104 418.909L727.593 442.916H710.591Z" fill="#FF7067"/>
<path d="M739.147 378.188H754.301V442.823H739.147V378.188Z" fill="#FF7067"/>
<path d="M807.988 424.264C810.638 421.001 811.961 416.384 811.961 410.414C811.961 404.382 810.638 399.764 807.988 396.563C805.277 393.302 801.642 391.671 797.084 391.671C792.463 391.671 788.859 393.302 786.274 396.563C783.686 399.825 782.392 404.442 782.392 410.414C782.392 416.325 783.686 420.941 786.274 424.264C788.859 427.586 792.463 429.25 797.084 429.25C801.642 429.25 805.277 427.586 807.988 424.264ZM789.509 443.1L789.416 443.47C786.151 442.793 783.007 441.469 779.991 439.501C777.219 437.714 774.786 435.344 772.692 432.39C770.657 429.496 769.088 426.265 767.977 422.693C766.87 419.124 766.316 415.154 766.316 410.783C766.316 405.612 767.084 400.996 768.626 396.933C770.166 392.809 772.292 389.27 775.002 386.314C777.712 383.298 780.945 381.02 784.702 379.482C788.584 377.881 792.649 377.081 796.901 377.081C801.273 377.081 805.339 377.881 809.098 379.482C812.855 381.083 816.089 383.329 818.8 386.221C821.508 389.115 823.665 392.654 825.267 396.84C826.807 400.903 827.577 405.521 827.577 410.691C827.577 414.999 827.021 419.002 825.913 422.693C824.804 426.386 823.234 429.619 821.202 432.39C819.169 435.098 816.704 437.407 813.809 439.314C810.915 441.162 807.771 442.454 804.384 443.193V454.919H789.509V443.1Z" fill="#FF7067"/>
<path d="M892.444 378.188V415.583C892.444 420.141 891.796 424.171 890.502 427.68C889.21 431.252 887.422 434.207 885.144 436.546C882.803 438.946 879.999 440.792 876.734 442.086C873.347 443.316 869.652 443.93 865.647 443.93C861.645 443.93 857.948 443.316 854.558 442.086C851.293 440.792 848.49 438.946 846.15 436.546C843.871 434.207 842.085 431.252 840.791 427.68C839.497 424.171 838.85 420.141 838.85 415.583V378.188H854.097V415.492C854.097 420.418 855.083 424.049 857.054 426.388C858.962 428.666 861.827 429.803 865.647 429.803C869.467 429.803 872.331 428.666 874.241 426.388C876.212 424.049 877.198 420.418 877.198 415.492V378.188H892.444Z" fill="#FF7067"/>
<path d="M951.489 428.42V442.821H907.413V378.188H950.934V392.5H922.568V403.304H944.467V416.784H922.568V428.42H951.489Z" fill="#FF7067"/>
</g>
<path fill-rule="evenodd" clip-rule="evenodd" d="M36.0138 45H1157.02H1163.02V583.328H1157.02V583.158H725.356L725.355 576.158H1157.02V51H42L42 575.051H472L472.002 581.051H36.1016L36.101 577.79H36L36 47.2154H36.0138V45Z" fill="#000091"/>
<defs>
<clipPath id="clip0">
<rect width="784" height="316" fill="white" transform="translate(208 156)"/>
</clipPath>
</defs>
</svg>
