<svg width="353" height="43" viewBox="0 0 353 43" fill="none" xmlns="http://www.w3.org/2000/svg">
  <rect x="0.5" y="2.5" width="351.22" height="37.4" fill="white" />
  <rect x="0.5" y="2.5" width="351.22" height="37.4" stroke="#000091" />
  <path
    d="M18.764 10.875C20.7054 10.875 22.223 11.5677 23.3167 12.9531C24.6201 14.5938 25.2718 17.3145 25.2718 21.1152C25.2718 24.9069 24.6156 27.6322 23.3031 29.291C22.2184 30.6582 20.7054 31.3418 18.764 31.3418C16.8135 31.3418 15.2412 30.5944 14.0472 29.0996C12.8532 27.5957 12.2562 24.9206 12.2562 21.0742C12.2562 17.3008 12.9124 14.5846 14.2249 12.9258C15.3096 11.5586 16.8226 10.875 18.764 10.875ZM18.764 14.0605C18.2992 14.0605 17.8845 14.2109 17.5199 14.5117C17.1553 14.8034 16.8727 15.332 16.6722 16.0977C16.4079 17.0911 16.2757 18.7637 16.2757 21.1152C16.2757 23.4668 16.3942 25.0846 16.6312 25.9688C16.8682 26.8438 17.1644 27.4271 17.5199 27.7188C17.8845 28.0104 18.2992 28.1562 18.764 28.1562C19.2289 28.1562 19.6436 28.0104 20.0081 27.7188C20.3727 27.418 20.6553 26.8848 20.8558 26.1191C21.1201 25.1348 21.2523 23.4668 21.2523 21.1152C21.2523 18.7637 21.1338 17.1504 20.8968 16.2754C20.6598 15.3913 20.3591 14.8034 19.9945 14.5117C19.639 14.2109 19.2289 14.0605 18.764 14.0605ZM38.9437 20.1855C37.9502 19.7663 37.2256 19.1921 36.7699 18.4629C36.3233 17.7246 36.0999 16.918 36.0999 16.043C36.0999 14.5482 36.6195 13.3132 37.6585 12.3379C38.7067 11.3626 40.1924 10.875 42.1156 10.875C44.0205 10.875 45.4971 11.3626 46.5453 12.3379C47.6025 13.3132 48.1312 14.5482 48.1312 16.043C48.1312 16.9727 47.8897 17.8021 47.4066 18.5312C46.9235 19.2513 46.2445 19.8027 45.3695 20.1855C46.4815 20.6322 47.3246 21.2839 47.8988 22.1406C48.4821 22.9974 48.7738 23.9863 48.7738 25.1074C48.7738 26.9577 48.1813 28.4616 46.9964 29.6191C45.8206 30.7767 44.2529 31.3555 42.2933 31.3555C40.4704 31.3555 38.9528 30.877 37.7406 29.9199C36.3096 28.7897 35.5941 27.2402 35.5941 25.2715C35.5941 24.1868 35.863 23.1934 36.4007 22.291C36.9385 21.3796 37.7861 20.6777 38.9437 20.1855ZM39.7367 16.3164C39.7367 17.082 39.9509 17.679 40.3792 18.1074C40.8167 18.5358 41.3955 18.75 42.1156 18.75C42.8447 18.75 43.4281 18.5358 43.8656 18.1074C44.3031 17.6699 44.5218 17.0684 44.5218 16.3027C44.5218 15.5827 44.3031 15.0085 43.8656 14.5801C43.4372 14.1426 42.8675 13.9238 42.1566 13.9238C41.4183 13.9238 40.8304 14.1426 40.3929 14.5801C39.9554 15.0176 39.7367 15.5964 39.7367 16.3164ZM39.3812 24.9023C39.3812 25.9596 39.6501 26.7845 40.1878 27.377C40.7347 27.9694 41.4137 28.2656 42.2249 28.2656C43.0179 28.2656 43.6742 27.9831 44.1937 27.418C44.7132 26.8438 44.973 26.0189 44.973 24.9434C44.973 24.0046 44.7087 23.2526 44.18 22.6875C43.6514 22.1133 42.9815 21.8262 42.1703 21.8262C41.2315 21.8262 40.5296 22.1497 40.0648 22.7969C39.6091 23.444 39.3812 24.1458 39.3812 24.9023ZM57.7289 10.875C59.6703 10.875 61.1878 11.5677 62.2816 12.9531C63.585 14.5938 64.2367 17.3145 64.2367 21.1152C64.2367 24.9069 63.5804 27.6322 62.2679 29.291C61.1833 30.6582 59.6703 31.3418 57.7289 31.3418C55.7783 31.3418 54.2061 30.5944 53.0121 29.0996C51.818 27.5957 51.221 24.9206 51.221 21.0742C51.221 17.3008 51.8773 14.5846 53.1898 12.9258C54.2744 11.5586 55.7874 10.875 57.7289 10.875ZM57.7289 14.0605C57.264 14.0605 56.8493 14.2109 56.4847 14.5117C56.1201 14.8034 55.8376 15.332 55.6371 16.0977C55.3727 17.0911 55.2406 18.7637 55.2406 21.1152C55.2406 23.4668 55.3591 25.0846 55.596 25.9688C55.833 26.8438 56.1292 27.4271 56.4847 27.7188C56.8493 28.0104 57.264 28.1562 57.7289 28.1562C58.1937 28.1562 58.6084 28.0104 58.973 27.7188C59.3376 27.418 59.6201 26.8848 59.8206 26.1191C60.085 25.1348 60.2171 23.4668 60.2171 21.1152C60.2171 18.7637 60.0986 17.1504 59.8617 16.2754C59.6247 15.3913 59.3239 14.8034 58.9593 14.5117C58.6039 14.2109 58.1937 14.0605 57.7289 14.0605ZM79.8363 15.8652L76.1175 16.2754C76.0264 15.5098 75.7894 14.9447 75.4066 14.5801C75.0238 14.2155 74.527 14.0332 73.9164 14.0332C73.1052 14.0332 72.417 14.3978 71.8519 15.127C71.2959 15.8561 70.945 17.3737 70.7992 19.6797C71.7562 18.5495 72.9456 17.9844 74.3675 17.9844C75.9717 17.9844 77.3434 18.5951 78.4828 19.8164C79.6312 21.0378 80.2054 22.6146 80.2054 24.5469C80.2054 26.5977 79.6039 28.2428 78.4007 29.4824C77.1976 30.722 75.6527 31.3418 73.766 31.3418C71.7425 31.3418 70.0791 30.5579 68.7757 28.9902C67.4723 27.4134 66.8206 24.834 66.8206 21.252C66.8206 17.5788 67.4997 14.931 68.8578 13.3086C70.2158 11.6862 71.9795 10.875 74.1488 10.875C75.6709 10.875 76.9287 11.3034 77.9222 12.1602C78.9248 13.0078 79.5628 14.2428 79.8363 15.8652ZM71.1273 24.2461C71.1273 25.4948 71.4144 26.4609 71.9886 27.1445C72.5628 27.819 73.2191 28.1562 73.9574 28.1562C74.6683 28.1562 75.2608 27.8783 75.7347 27.3223C76.2087 26.7663 76.4456 25.8548 76.4456 24.5879C76.4456 23.2845 76.1904 22.332 75.68 21.7305C75.1696 21.1198 74.5316 20.8145 73.766 20.8145C73.0277 20.8145 72.4033 21.1061 71.8929 21.6895C71.3825 22.2637 71.1273 23.1159 71.1273 24.2461ZM96.6937 10.875C98.6351 10.875 100.153 11.5677 101.246 12.9531C102.55 14.5938 103.202 17.3145 103.202 21.1152C103.202 24.9069 102.545 27.6322 101.233 29.291C100.148 30.6582 98.6351 31.3418 96.6937 31.3418C94.7432 31.3418 93.1709 30.5944 91.9769 29.0996C90.7829 27.5957 90.1859 24.9206 90.1859 21.0742C90.1859 17.3008 90.8421 14.5846 92.1546 12.9258C93.2393 11.5586 94.7523 10.875 96.6937 10.875ZM96.6937 14.0605C96.2289 14.0605 95.8141 14.2109 95.4496 14.5117C95.085 14.8034 94.8024 15.332 94.6019 16.0977C94.3376 17.0911 94.2054 18.7637 94.2054 21.1152C94.2054 23.4668 94.3239 25.0846 94.5609 25.9688C94.7979 26.8438 95.0941 27.4271 95.4496 27.7188C95.8141 28.0104 96.2289 28.1562 96.6937 28.1562C97.1585 28.1562 97.5733 28.0104 97.9378 27.7188C98.3024 27.418 98.585 26.8848 98.7855 26.1191C99.0498 25.1348 99.182 23.4668 99.182 21.1152C99.182 18.7637 99.0635 17.1504 98.8265 16.2754C98.5895 15.3913 98.2887 14.8034 97.9242 14.5117C97.5687 14.2109 97.1585 14.0605 96.6937 14.0605ZM112.28 10.875C114.221 10.875 115.739 11.5677 116.832 12.9531C118.136 14.5938 118.787 17.3145 118.787 21.1152C118.787 24.9069 118.131 27.6322 116.819 29.291C115.734 30.6582 114.221 31.3418 112.28 31.3418C110.329 31.3418 108.757 30.5944 107.563 29.0996C106.369 27.5957 105.772 24.9206 105.772 21.0742C105.772 17.3008 106.428 14.5846 107.741 12.9258C108.825 11.5586 110.338 10.875 112.28 10.875ZM112.28 14.0605C111.815 14.0605 111.4 14.2109 111.035 14.5117C110.671 14.8034 110.388 15.332 110.188 16.0977C109.924 17.0911 109.791 18.7637 109.791 21.1152C109.791 23.4668 109.91 25.0846 110.147 25.9688C110.384 26.8438 110.68 27.4271 111.035 27.7188C111.4 28.0104 111.815 28.1562 112.28 28.1562C112.744 28.1562 113.159 28.0104 113.524 27.7188C113.888 27.418 114.171 26.8848 114.371 26.1191C114.636 25.1348 114.768 23.4668 114.768 21.1152C114.768 18.7637 114.649 17.1504 114.412 16.2754C114.175 15.3913 113.875 14.8034 113.51 14.5117C113.155 14.2109 112.744 14.0605 112.28 14.0605ZM127.866 10.875C129.807 10.875 131.325 11.5677 132.418 12.9531C133.722 14.5938 134.373 17.3145 134.373 21.1152C134.373 24.9069 133.717 27.6322 132.405 29.291C131.32 30.6582 129.807 31.3418 127.866 31.3418C125.915 31.3418 124.343 30.5944 123.149 29.0996C121.955 27.5957 121.358 24.9206 121.358 21.0742C121.358 17.3008 122.014 14.5846 123.327 12.9258C124.411 11.5586 125.924 10.875 127.866 10.875ZM127.866 14.0605C127.401 14.0605 126.986 14.2109 126.621 14.5117C126.257 14.8034 125.974 15.332 125.774 16.0977C125.509 17.0911 125.377 18.7637 125.377 21.1152C125.377 23.4668 125.496 25.0846 125.733 25.9688C125.97 26.8438 126.266 27.4271 126.621 27.7188C126.986 28.0104 127.401 28.1562 127.866 28.1562C128.33 28.1562 128.745 28.0104 129.11 27.7188C129.474 27.418 129.757 26.8848 129.957 26.1191C130.222 25.1348 130.354 23.4668 130.354 21.1152C130.354 18.7637 130.235 17.1504 129.998 16.2754C129.761 15.3913 129.461 14.8034 129.096 14.5117C128.741 14.2109 128.33 14.0605 127.866 14.0605ZM154.58 31H150.739V16.5215C149.335 17.834 147.681 18.8047 145.776 19.4336V15.9473C146.778 15.6191 147.868 14.9993 149.043 14.0879C150.219 13.1673 151.026 12.0964 151.463 10.875H154.58V31ZM173.311 27.4316V31H159.844C159.99 29.651 160.427 28.375 161.157 27.1719C161.886 25.9596 163.326 24.3555 165.477 22.3594C167.209 20.7461 168.271 19.6523 168.662 19.0781C169.191 18.2852 169.455 17.5013 169.455 16.7266C169.455 15.8698 169.223 15.2135 168.758 14.7578C168.302 14.293 167.669 14.0605 166.858 14.0605C166.056 14.0605 165.418 14.3021 164.944 14.7852C164.47 15.2682 164.196 16.0703 164.123 17.1914L160.295 16.8086C160.523 14.694 161.239 13.1764 162.442 12.2559C163.645 11.3353 165.149 10.875 166.953 10.875C168.931 10.875 170.485 11.4082 171.616 12.4746C172.746 13.541 173.311 14.8672 173.311 16.4531C173.311 17.3555 173.147 18.2168 172.819 19.0371C172.5 19.8483 171.989 20.7005 171.287 21.5938C170.823 22.1862 169.984 23.0384 168.772 24.1504C167.56 25.2624 166.789 26.0007 166.461 26.3652C166.142 26.7298 165.882 27.0853 165.682 27.4316H173.311ZM188.938 15.8652L185.219 16.2754C185.128 15.5098 184.891 14.9447 184.508 14.5801C184.125 14.2155 183.629 14.0332 183.018 14.0332C182.207 14.0332 181.519 14.3978 180.953 15.127C180.397 15.8561 180.047 17.3737 179.901 19.6797C180.858 18.5495 182.047 17.9844 183.469 17.9844C185.073 17.9844 186.445 18.5951 187.584 19.8164C188.733 21.0378 189.307 22.6146 189.307 24.5469C189.307 26.5977 188.705 28.2428 187.502 29.4824C186.299 30.722 184.754 31.3418 182.868 31.3418C180.844 31.3418 179.181 30.5579 177.877 28.9902C176.574 27.4134 175.922 24.834 175.922 21.252C175.922 17.5788 176.601 14.931 177.959 13.3086C179.317 11.6862 181.081 10.875 183.25 10.875C184.772 10.875 186.03 11.3034 187.024 12.1602C188.026 13.0078 188.664 14.2428 188.938 15.8652ZM180.229 24.2461C180.229 25.4948 180.516 26.4609 181.09 27.1445C181.664 27.819 182.321 28.1562 183.059 28.1562C183.77 28.1562 184.362 27.8783 184.836 27.3223C185.31 26.7663 185.547 25.8548 185.547 24.5879C185.547 23.2845 185.292 22.332 184.782 21.7305C184.271 21.1198 183.633 20.8145 182.868 20.8145C182.129 20.8145 181.505 21.1061 180.994 21.6895C180.484 22.2637 180.229 23.1159 180.229 24.2461Z"
    fill="#000091" />
  <rect width="141.16" height="42.4" transform="translate(200.06)" fill="#000091" />
  <mask id="path-3-inside-1_555_1579" fill="white">
    <path d="M200.06 11.2H210.06V31.2H200.06V11.2Z" />
  </mask>
  <path
    d="M200.06 11.2V1.2H190.06V11.2H200.06ZM200.06 31.2H190.06V41.2H200.06V31.2ZM200.06 21.2H210.06V1.2H200.06V21.2ZM210.06 21.2H200.06V41.2H210.06V21.2ZM210.06 31.2V11.2H190.06V31.2H210.06Z"
    fill="url(#paint0_diamond_555_1579)" mask="url(#path-3-inside-1_555_1579)" />
  <path
    d="M220.638 12.6734L222.888 12.4547C223.024 13.2099 223.297 13.7646 223.708 14.1187C224.125 14.4729 224.685 14.65 225.388 14.65C226.133 14.65 226.693 14.4937 227.068 14.1812C227.448 13.8635 227.638 13.4937 227.638 13.0719C227.638 12.801 227.557 12.5719 227.396 12.3844C227.24 12.1917 226.964 12.025 226.568 11.8844C226.297 11.7906 225.68 11.624 224.716 11.3844C223.477 11.0771 222.607 10.6995 222.107 10.2516C221.404 9.62135 221.052 8.85312 221.052 7.94687C221.052 7.36354 221.216 6.81926 221.544 6.31406C221.878 5.80364 222.354 5.41562 222.974 5.14999C223.599 4.88437 224.352 4.75156 225.232 4.75156C226.669 4.75156 227.75 5.06666 228.474 5.69687C229.203 6.32708 229.586 7.16822 229.623 8.22031L227.31 8.32187C227.211 7.73333 226.998 7.31145 226.669 7.05624C226.347 6.79583 225.86 6.66562 225.208 6.66562C224.537 6.66562 224.011 6.80364 223.63 7.07968C223.386 7.25676 223.263 7.49374 223.263 7.79062C223.263 8.06145 223.378 8.29322 223.607 8.48593C223.899 8.73072 224.607 8.98593 225.732 9.25156C226.857 9.51718 227.688 9.79322 228.224 10.0797C228.766 10.3609 229.188 10.749 229.49 11.2437C229.797 11.7333 229.951 12.3401 229.951 13.0641C229.951 13.7203 229.768 14.3349 229.404 14.9078C229.039 15.4807 228.524 15.9078 227.857 16.1891C227.19 16.4651 226.36 16.6031 225.365 16.6031C223.917 16.6031 222.805 16.2698 222.029 15.6031C221.253 14.9312 220.789 13.9547 220.638 12.6734ZM236.685 13.7594L238.873 14.1266C238.591 14.9286 238.146 15.5406 237.537 15.9625C236.932 16.3792 236.175 16.5875 235.263 16.5875C233.82 16.5875 232.753 16.1161 232.06 15.1734C231.513 14.4182 231.24 13.4651 231.24 12.3141C231.24 10.9391 231.599 9.86354 232.318 9.08749C233.037 8.30624 233.945 7.91562 235.044 7.91562C236.279 7.91562 237.253 8.32447 237.966 9.14218C238.68 9.95468 239.021 11.2021 238.99 12.8844H233.49C233.505 13.5354 233.682 14.0432 234.021 14.4078C234.36 14.7672 234.781 14.9469 235.287 14.9469C235.63 14.9469 235.919 14.8531 236.154 14.6656C236.388 14.4781 236.565 14.176 236.685 13.7594ZM236.81 11.5406C236.794 10.9052 236.63 10.4234 236.318 10.0953C236.005 9.76197 235.625 9.59531 235.177 9.59531C234.698 9.59531 234.302 9.76979 233.99 10.1187C233.677 10.4677 233.524 10.9417 233.529 11.5406H236.81ZM242.888 16.4H240.693V8.10312H242.732V9.28281C243.081 8.72551 243.393 8.35833 243.669 8.18124C243.951 8.00416 244.268 7.91562 244.623 7.91562C245.123 7.91562 245.604 8.05364 246.068 8.32968L245.388 10.2437C245.018 10.0042 244.675 9.88437 244.357 9.88437C244.05 9.88437 243.789 9.97031 243.576 10.1422C243.362 10.3088 243.193 10.6135 243.068 11.0562C242.948 11.499 242.888 12.426 242.888 13.8375V16.4ZM249.302 16.4L245.958 8.10312H248.263L249.826 12.3375L250.279 13.7516C250.399 13.3922 250.474 13.1552 250.505 13.0406C250.578 12.8062 250.656 12.5719 250.74 12.3375L252.318 8.10312H254.576L251.279 16.4H249.302ZM255.927 6.97812V4.94687H258.123V6.97812H255.927ZM255.927 16.4V8.10312H258.123V16.4H255.927ZM267.615 10.5562L265.451 10.9469C265.378 10.5146 265.211 10.1891 264.951 9.97031C264.695 9.75156 264.362 9.64218 263.951 9.64218C263.404 9.64218 262.966 9.83229 262.638 10.2125C262.315 10.5875 262.154 11.2177 262.154 12.1031C262.154 13.0875 262.318 13.7828 262.646 14.1891C262.979 14.5953 263.425 14.7984 263.982 14.7984C264.399 14.7984 264.74 14.6812 265.005 14.4469C265.271 14.2073 265.458 13.7984 265.568 13.2203L267.724 13.5875C267.5 14.5771 267.07 15.3245 266.435 15.8297C265.8 16.3349 264.948 16.5875 263.88 16.5875C262.667 16.5875 261.698 16.2047 260.974 15.4391C260.255 14.6734 259.896 13.6135 259.896 12.2594C259.896 10.8896 260.258 9.82447 260.982 9.06406C261.706 8.29843 262.685 7.91562 263.919 7.91562C264.93 7.91562 265.732 8.13437 266.326 8.57187C266.925 9.00416 267.354 9.66562 267.615 10.5562ZM274.091 13.7594L276.279 14.1266C275.998 14.9286 275.552 15.5406 274.943 15.9625C274.339 16.3792 273.581 16.5875 272.669 16.5875C271.227 16.5875 270.159 16.1161 269.466 15.1734C268.919 14.4182 268.646 13.4651 268.646 12.3141C268.646 10.9391 269.005 9.86354 269.724 9.08749C270.443 8.30624 271.352 7.91562 272.451 7.91562C273.685 7.91562 274.659 8.32447 275.373 9.14218C276.086 9.95468 276.427 11.2021 276.396 12.8844H270.896C270.912 13.5354 271.089 14.0432 271.427 14.4078C271.766 14.7672 272.188 14.9469 272.693 14.9469C273.037 14.9469 273.326 14.8531 273.56 14.6656C273.794 14.4781 273.972 14.176 274.091 13.7594ZM274.216 11.5406C274.201 10.9052 274.037 10.4234 273.724 10.0953C273.412 9.76197 273.031 9.59531 272.583 9.59531C272.104 9.59531 271.708 9.76979 271.396 10.1187C271.083 10.4677 270.93 10.9417 270.935 11.5406H274.216ZM282.443 16.9469L284.951 17.2516C284.992 17.5432 285.089 17.7437 285.24 17.8531C285.448 18.0094 285.776 18.0875 286.224 18.0875C286.797 18.0875 287.227 18.0016 287.513 17.8297C287.706 17.7151 287.852 17.5302 287.951 17.275C288.018 17.0927 288.052 16.7568 288.052 16.2672V15.0562C287.396 15.9521 286.568 16.4 285.568 16.4C284.453 16.4 283.57 15.9286 282.919 14.9859C282.409 14.2411 282.154 13.3141 282.154 12.2047C282.154 10.8141 282.487 9.75156 283.154 9.01718C283.826 8.28281 284.659 7.91562 285.654 7.91562C286.68 7.91562 287.526 8.36614 288.193 9.26718V8.10312H290.248V15.5484C290.248 16.5276 290.167 17.2594 290.005 17.7437C289.844 18.2281 289.617 18.6083 289.326 18.8844C289.034 19.1604 288.643 19.3766 288.154 19.5328C287.669 19.6891 287.055 19.7672 286.31 19.7672C284.904 19.7672 283.906 19.525 283.318 19.0406C282.729 18.5615 282.435 17.9521 282.435 17.2125C282.435 17.1396 282.438 17.051 282.443 16.9469ZM284.404 12.0797C284.404 12.9599 284.573 13.6057 284.912 14.0172C285.255 14.4234 285.677 14.6266 286.177 14.6266C286.714 14.6266 287.167 14.4182 287.537 14.0016C287.906 13.5797 288.091 12.9573 288.091 12.1344C288.091 11.275 287.914 10.637 287.56 10.2203C287.206 9.80364 286.758 9.59531 286.216 9.59531C285.69 9.59531 285.255 9.80104 284.912 10.2125C284.573 10.6187 284.404 11.2411 284.404 12.0797ZM294.529 16.4H292.333V8.10312H294.373V9.28281C294.722 8.72551 295.034 8.35833 295.31 8.18124C295.591 8.00416 295.909 7.91562 296.263 7.91562C296.763 7.91562 297.245 8.05364 297.708 8.32968L297.029 10.2437C296.659 10.0042 296.315 9.88437 295.998 9.88437C295.69 9.88437 295.43 9.97031 295.216 10.1422C295.003 10.3088 294.833 10.6135 294.708 11.0562C294.589 11.499 294.529 12.426 294.529 13.8375V16.4ZM300.302 10.6344L298.31 10.275C298.534 9.47291 298.919 8.87916 299.466 8.49374C300.013 8.10833 300.826 7.91562 301.904 7.91562C302.883 7.91562 303.612 8.03281 304.091 8.26718C304.57 8.49635 304.906 8.79062 305.099 9.14999C305.297 9.50416 305.396 10.1578 305.396 11.1109L305.373 13.6734C305.373 14.4026 305.406 14.9417 305.474 15.2906C305.547 15.6344 305.68 16.0042 305.873 16.4H303.701C303.643 16.2542 303.573 16.038 303.49 15.7516C303.453 15.6213 303.427 15.5354 303.412 15.4937C303.037 15.8583 302.636 16.1318 302.208 16.3141C301.781 16.4963 301.326 16.5875 300.841 16.5875C299.987 16.5875 299.313 16.3557 298.818 15.8922C298.328 15.4286 298.083 14.8427 298.083 14.1344C298.083 13.6656 298.195 13.249 298.419 12.8844C298.643 12.5146 298.956 12.2333 299.357 12.0406C299.763 11.8427 300.347 11.6708 301.107 11.525C302.133 11.3323 302.844 11.1526 303.24 10.9859V10.7672C303.24 10.3453 303.136 10.0458 302.927 9.86874C302.719 9.68645 302.326 9.59531 301.748 9.59531C301.357 9.59531 301.052 9.67343 300.833 9.82968C300.615 9.98072 300.438 10.249 300.302 10.6344ZM303.24 12.4156C302.958 12.5094 302.513 12.6213 301.904 12.7516C301.294 12.8818 300.896 13.0094 300.708 13.1344C300.422 13.3375 300.279 13.5953 300.279 13.9078C300.279 14.2151 300.393 14.4807 300.623 14.7047C300.852 14.9286 301.143 15.0406 301.498 15.0406C301.893 15.0406 302.271 14.9104 302.63 14.65C302.896 14.4521 303.07 14.2099 303.154 13.9234C303.211 13.7359 303.24 13.3792 303.24 12.8531V12.4156ZM311.373 8.10312V9.85312H309.873V13.1969C309.873 13.874 309.886 14.2698 309.912 14.3844C309.943 14.4937 310.008 14.5849 310.107 14.6578C310.211 14.7307 310.336 14.7672 310.482 14.7672C310.685 14.7672 310.979 14.6969 311.365 14.5562L311.552 16.2594C311.042 16.4781 310.464 16.5875 309.818 16.5875C309.422 16.5875 309.065 16.5224 308.748 16.3922C308.43 16.2568 308.195 16.0849 308.044 15.8766C307.899 15.663 307.797 15.3766 307.74 15.0172C307.693 14.762 307.669 14.2463 307.669 13.4703V9.85312H306.662V8.10312H307.669V6.45468L309.873 5.17343V8.10312H311.373ZM318.357 16.4V15.1578C318.055 15.6005 317.656 15.9495 317.162 16.2047C316.672 16.4599 316.154 16.5875 315.607 16.5875C315.05 16.5875 314.55 16.4651 314.107 16.2203C313.664 15.9755 313.344 15.6318 313.146 15.1891C312.948 14.7463 312.849 14.1344 312.849 13.3531V8.10312H315.044V11.9156C315.044 13.0823 315.083 13.7984 315.162 14.0641C315.245 14.3245 315.393 14.5328 315.607 14.6891C315.82 14.8401 316.091 14.9156 316.419 14.9156C316.794 14.9156 317.13 14.8141 317.427 14.6109C317.724 14.4026 317.927 14.1474 318.037 13.8453C318.146 13.538 318.201 12.7906 318.201 11.6031V8.10312H320.396V16.4H318.357ZM322.677 6.97812V4.94687H324.873V6.97812H322.677ZM322.677 16.4V8.10312H324.873V16.4H322.677ZM330.935 8.10312V9.85312H329.435V13.1969C329.435 13.874 329.448 14.2698 329.474 14.3844C329.505 14.4937 329.57 14.5849 329.669 14.6578C329.774 14.7307 329.899 14.7672 330.044 14.7672C330.248 14.7672 330.542 14.6969 330.927 14.5562L331.115 16.2594C330.604 16.4781 330.026 16.5875 329.38 16.5875C328.985 16.5875 328.628 16.5224 328.31 16.3922C327.992 16.2568 327.758 16.0849 327.607 15.8766C327.461 15.663 327.36 15.3766 327.302 15.0172C327.255 14.762 327.232 14.2463 327.232 13.4703V9.85312H326.224V8.10312H327.232V6.45468L329.435 5.17343V8.10312H330.935ZM223.724 34.7516V31.775H220.724V29.7203H223.724V26.7437H225.724V29.7203H228.732V31.775H225.724V34.7516H223.724ZM234.943 28.1031H236.99V29.3219C237.255 28.9052 237.615 28.5667 238.068 28.3062C238.521 28.0458 239.024 27.9156 239.576 27.9156C240.539 27.9156 241.357 28.2932 242.029 29.0484C242.701 29.8036 243.037 30.8557 243.037 32.2047C243.037 33.5901 242.698 34.6682 242.021 35.4391C241.344 36.2047 240.524 36.5875 239.56 36.5875C239.102 36.5875 238.685 36.4963 238.31 36.3141C237.94 36.1318 237.55 35.8193 237.138 35.3766V39.5562H234.943V28.1031ZM237.115 32.1109C237.115 33.0432 237.3 33.7333 237.669 34.1812C238.039 34.624 238.49 34.8453 239.021 34.8453C239.531 34.8453 239.956 34.6422 240.294 34.2359C240.633 33.8245 240.802 33.1526 240.802 32.2203C240.802 31.3505 240.628 30.7047 240.279 30.2828C239.93 29.8609 239.498 29.65 238.982 29.65C238.445 29.65 238 29.8583 237.646 30.275C237.292 30.6865 237.115 31.2984 237.115 32.1109ZM246.888 36.4H244.693V28.1031H246.732V29.2828C247.081 28.7255 247.393 28.3583 247.669 28.1812C247.951 28.0042 248.268 27.9156 248.623 27.9156C249.123 27.9156 249.604 28.0536 250.068 28.3297L249.388 30.2437C249.018 30.0042 248.675 29.8844 248.357 29.8844C248.05 29.8844 247.789 29.9703 247.576 30.1422C247.362 30.3088 247.193 30.6135 247.068 31.0562C246.948 31.499 246.888 32.426 246.888 33.8375V36.4ZM251.021 26.9781V24.9469H253.216V26.9781H251.021ZM251.021 36.4V28.1031H253.216V36.4H251.021ZM254.419 36.4L257.412 32.1266L254.544 28.1031H257.224L258.693 30.3844L260.24 28.1031H262.818L260.005 32.0328L263.076 36.4H260.38L258.693 33.8297L256.99 36.4H254.419ZM270.474 30.6344L268.482 30.275C268.706 29.4729 269.091 28.8792 269.638 28.4937C270.185 28.1083 270.998 27.9156 272.076 27.9156C273.055 27.9156 273.784 28.0328 274.263 28.2672C274.742 28.4963 275.078 28.7906 275.271 29.15C275.469 29.5042 275.568 30.1578 275.568 31.1109L275.544 33.6734C275.544 34.4026 275.578 34.9417 275.646 35.2906C275.719 35.6344 275.852 36.0042 276.044 36.4H273.873C273.815 36.2542 273.745 36.038 273.662 35.7516C273.625 35.6213 273.599 35.5354 273.583 35.4937C273.208 35.8583 272.807 36.1318 272.38 36.3141C271.953 36.4963 271.498 36.5875 271.013 36.5875C270.159 36.5875 269.485 36.3557 268.99 35.8922C268.5 35.4286 268.255 34.8427 268.255 34.1344C268.255 33.6656 268.367 33.249 268.591 32.8844C268.815 32.5146 269.128 32.2333 269.529 32.0406C269.935 31.8427 270.518 31.6708 271.279 31.525C272.305 31.3323 273.016 31.1526 273.412 30.9859V30.7672C273.412 30.3453 273.307 30.0458 273.099 29.8687C272.891 29.6865 272.498 29.5953 271.919 29.5953C271.529 29.5953 271.224 29.6734 271.005 29.8297C270.787 29.9807 270.61 30.249 270.474 30.6344ZM273.412 32.4156C273.13 32.5094 272.685 32.6213 272.076 32.7516C271.466 32.8818 271.068 33.0094 270.88 33.1344C270.594 33.3375 270.451 33.5953 270.451 33.9078C270.451 34.2151 270.565 34.4807 270.794 34.7047C271.024 34.9286 271.315 35.0406 271.669 35.0406C272.065 35.0406 272.443 34.9104 272.802 34.65C273.068 34.4521 273.242 34.2099 273.326 33.9234C273.383 33.7359 273.412 33.3792 273.412 32.8531V32.4156ZM277.677 28.1031H279.724V29.3219C279.99 28.9052 280.349 28.5667 280.802 28.3062C281.255 28.0458 281.758 27.9156 282.31 27.9156C283.274 27.9156 284.091 28.2932 284.763 29.0484C285.435 29.8036 285.771 30.8557 285.771 32.2047C285.771 33.5901 285.432 34.6682 284.755 35.4391C284.078 36.2047 283.258 36.5875 282.294 36.5875C281.836 36.5875 281.419 36.4963 281.044 36.3141C280.675 36.1318 280.284 35.8193 279.873 35.3766V39.5562H277.677V28.1031ZM279.849 32.1109C279.849 33.0432 280.034 33.7333 280.404 34.1812C280.774 34.624 281.224 34.8453 281.755 34.8453C282.266 34.8453 282.69 34.6422 283.029 34.2359C283.367 33.8245 283.537 33.1526 283.537 32.2203C283.537 31.3505 283.362 30.7047 283.013 30.2828C282.664 29.8609 282.232 29.65 281.716 29.65C281.18 29.65 280.735 29.8583 280.38 30.275C280.026 30.6865 279.849 31.2984 279.849 32.1109ZM287.458 28.1031H289.505V29.3219C289.771 28.9052 290.13 28.5667 290.583 28.3062C291.037 28.0458 291.539 27.9156 292.091 27.9156C293.055 27.9156 293.873 28.2932 294.544 29.0484C295.216 29.8036 295.552 30.8557 295.552 32.2047C295.552 33.5901 295.214 34.6682 294.537 35.4391C293.86 36.2047 293.039 36.5875 292.076 36.5875C291.617 36.5875 291.201 36.4963 290.826 36.3141C290.456 36.1318 290.065 35.8193 289.654 35.3766V39.5562H287.458V28.1031ZM289.63 32.1109C289.63 33.0432 289.815 33.7333 290.185 34.1812C290.555 34.624 291.005 34.8453 291.537 34.8453C292.047 34.8453 292.472 34.6422 292.81 34.2359C293.149 33.8245 293.318 33.1526 293.318 32.2203C293.318 31.3505 293.143 30.7047 292.794 30.2828C292.445 29.8609 292.013 29.65 291.498 29.65C290.961 29.65 290.516 29.8583 290.162 30.275C289.807 30.6865 289.63 31.2984 289.63 32.1109ZM302.107 33.7594L304.294 34.1266C304.013 34.9286 303.568 35.5406 302.958 35.9625C302.354 36.3792 301.597 36.5875 300.685 36.5875C299.242 36.5875 298.175 36.1161 297.482 35.1734C296.935 34.4182 296.662 33.4651 296.662 32.3141C296.662 30.9391 297.021 29.8635 297.74 29.0875C298.458 28.3062 299.367 27.9156 300.466 27.9156C301.701 27.9156 302.675 28.3245 303.388 29.1422C304.102 29.9547 304.443 31.2021 304.412 32.8844H298.912C298.927 33.5354 299.104 34.0432 299.443 34.4078C299.781 34.7672 300.203 34.9469 300.708 34.9469C301.052 34.9469 301.341 34.8531 301.576 34.6656C301.81 34.4781 301.987 34.176 302.107 33.7594ZM302.232 31.5406C302.216 30.9052 302.052 30.4234 301.74 30.0953C301.427 29.762 301.047 29.5953 300.599 29.5953C300.12 29.5953 299.724 29.7698 299.412 30.1187C299.099 30.4677 298.945 30.9417 298.951 31.5406H302.232ZM306.208 36.4V24.9469H308.404V36.4H306.208Z"
    fill="white" />
  <defs>
    <radialGradient id="paint0_diamond_555_1579" cx="0" cy="0" r="1" gradientUnits="userSpaceOnUse"
      gradientTransform="translate(200.06 21.2) scale(10)">
      <stop offset="1" stop-color="white" />
      <stop offset="1" stop-opacity="0" />
    </radialGradient>
  </defs>
</svg>
  