<svg width="35" height="35" viewBox="0 0 35 35" fill="none" xmlns="http://www.w3.org/2000/svg">
<path d="M16.6486 2.76679C17.185 1.76054 18.6308 1.77332 19.1497 2.78832L22.6383 9.61332L30.7691 10.9938C31.8985 11.1856 32.34 12.5728 31.5296 13.3826L25.8893 19.0229L27.1075 26.7855C27.2846 27.9129 26.1181 28.7731 25.0937 28.271L17.9039 24.7528L10.5222 28.2899C9.49782 28.7812 8.34282 27.921 8.51849 26.799L9.73542 19.0425L8.27484 17.7057C8.20651 17.6431 8.15118 17.5677 8.11201 17.4838C8.07283 17.3998 8.05058 17.3089 8.04651 17.2164C8.04245 17.1238 8.05666 17.0314 8.08833 16.9443C8.12 16.8572 8.16851 16.7772 8.23109 16.7089C8.29367 16.6406 8.36909 16.5852 8.45306 16.5461C8.53702 16.5069 8.62788 16.4846 8.72044 16.4806C8.81301 16.4765 8.90546 16.4907 8.99254 16.5224C9.07961 16.5541 9.15959 16.6026 9.22792 16.6652L10.6885 18.0019C10.8599 18.1592 10.9898 18.3564 11.0667 18.5759C11.1436 18.7955 11.1651 19.0307 11.1294 19.2605L9.91244 27.0177L17.2941 23.4807C17.4861 23.3886 17.6965 23.3412 17.9095 23.342C18.1224 23.3429 18.3325 23.3919 18.5238 23.4854L25.7136 27.0043L24.496 19.2417C24.4616 19.0221 24.4795 18.7974 24.5484 18.586C24.6173 18.3747 24.7352 18.1826 24.8924 18.0254L30.5328 12.3851L22.4021 11.0046C22.1854 10.9678 21.9803 10.8809 21.8031 10.7509C21.626 10.6208 21.4816 10.4512 21.3817 10.2554L17.8938 3.43044L14.0795 10.5812C14.0259 10.6818 13.9487 10.7679 13.8546 10.8323C13.7999 10.9127 13.729 10.981 13.6465 11.0326C13.564 11.0843 13.4717 11.1183 13.3754 11.1325L4.87311 12.3925L5.20763 12.6852C5.27953 12.7456 5.33867 12.8197 5.38157 12.9031C5.42448 12.9866 5.4503 13.0778 5.45751 13.1714C5.46472 13.265 5.45318 13.3591 5.42356 13.4482C5.39395 13.5372 5.34685 13.6195 5.28504 13.6901C5.22323 13.7608 5.14794 13.8183 5.06359 13.8595C4.97924 13.9007 4.88751 13.9246 4.7938 13.9299C4.70009 13.9351 4.60626 13.9216 4.51783 13.8902C4.42939 13.8587 4.34812 13.81 4.27878 13.7467L3.94426 13.4539C3.03897 12.6617 3.47647 11.1728 4.66647 10.9972L12.9103 9.77554L16.6486 2.76679Z" fill="#3558A2"/>
<path d="M6.56476 15.7389C6.75184 15.7389 6.93126 15.6646 7.06354 15.5323C7.19583 15.4 7.27014 15.2206 7.27014 15.0335C7.27014 14.8464 7.19583 14.667 7.06354 14.5347C6.93126 14.4024 6.75184 14.3281 6.56476 14.3281C6.37768 14.3281 6.19826 14.4024 6.06598 14.5347C5.93369 14.667 5.85938 14.8464 5.85938 15.0335C5.85938 15.2206 5.93369 15.4 6.06598 15.5323C6.19826 15.6646 6.37768 15.7389 6.56476 15.7389Z" fill="#3558A2"/>
<path d="M6.07548 4.13672L8.7799 6.78191M29.9616 4.13672L27.2579 6.78191M33.7921 21.9921L29.9616 20.6695M5.17423 20.6695L1.34375 21.9921M18.0186 28.8252V32.3521" stroke="#E1000F" stroke-width="1.34615" stroke-linecap="round"/>
</svg>
