<svg width="31" height="31" xmlns="http://www.w3.org/2000/svg"><defs><filter x="-15.4%" y="-13.8%" width="130.8%" height="139.7%" filterUnits="objectBoundingBox" id="a"><feOffset dy="2" in="SourceAlpha" result="shadowOffsetOuter1"/><feGaussianBlur stdDeviation="3" in="shadowOffsetOuter1" result="shadowBlurOuter1"/><feColorMatrix values="0 0 0 0 0.374478691 0 0 0 0 0.422945662 0 0 0 0 0.791294643 0 0 0 0.142861187 0" in="shadowBlurOuter1" result="shadowMatrixOuter1"/><feMerge><feMergeNode in="shadowMatrixOuter1"/><feMergeNode in="SourceGraphic"/></feMerge></filter></defs><path d="M14.966 13.976c1.239-1.486 2.017-3.397 2.017-5.484C16.983 3.822 13.162 0 8.492 0S0 3.821 0 8.492c0 4.67 3.821 8.491 8.492 8.491a8.373 8.373 0 0 0 5.484-2.017l3.821 3.822a.699.699 0 0 0 .495.212c.177 0 .354-.07.496-.212a.684.684 0 0 0 0-.991l-3.822-3.821zm-6.474 1.627c-3.892 0-7.077-3.184-7.077-7.076 0-3.892 3.185-7.076 7.077-7.076s7.076 3.184 7.076 7.076c0 3.892-3.184 7.076-7.076 7.076z" transform="translate(6 4)" filter="url(#a)" fill="#FFF" fill-rule="evenodd"/></svg>