<svg xmlns="http://www.w3.org/2000/svg" viewBox="0 0 512 512" fill="#4c5467"><path d="M336 164c-5.52 0-10 4.48-10 10s4.48 10 10 10 10-4.48 10-10-4.48-10-10-10zM136 40c-5.52 0-10 4.48-10 10s4.48 10 10 10 10-4.48 10-10-4.48-10-10-10z"/><path d="M431.856 142.998C411.438 130.747 384.498 124 356 124c-31.621 0-67.025 8.717-90 29.346V70c0-19.679-12.126-37.792-34.144-51.002C211.437 6.747 184.498 0 156 0s-55.438 6.747-75.856 18.998C58.126 32.208 46 50.321 46 70v372c0 19.679 12.126 37.792 34.144 51.002C100.562 505.253 127.502 512 156 512c36.134 0 79.546-11.983 100-40.371C276.337 499.855 319.539 512 356 512c28.498 0 55.438-6.747 75.856-18.998C453.874 479.792 466 461.679 466 442V194c0-19.679-12.126-37.792-34.144-51.002zM246 442c0 27.103-41.215 50-90 50s-90-22.897-90-50v-21.347C88.962 441.27 124.296 450 156 450c31.584 0 67.007-8.702 90-29.347V442zm0-62c0 27.103-41.215 50-90 50s-90-22.897-90-50v-21.347C88.962 379.27 124.296 388 156 388c31.584 0 67.007-8.702 90-29.347V380zm0-62c0 27.103-41.215 50-90 50s-90-22.897-90-50v-21.347C88.962 317.27 124.296 326 156 326c31.584 0 67.007-8.702 90-29.347V318zm0-62c0 27.103-41.215 50-90 50s-90-22.897-90-50v-21.347C88.962 255.27 124.296 264 156 264c31.584 0 67.007-8.702 90-29.347V256zm0-62c0 27.103-41.215 50-90 50s-90-22.897-90-50v-21.347C88.962 193.27 124.296 202 156 202c31.584 0 67.007-8.702 90-29.347V194zm0-62c0 27.103-41.215 50-90 50s-90-22.897-90-50v-21.347C88.962 131.27 124.296 140 156 140c28.498 0 55.437-6.747 75.856-18.998 5.3-3.18 10.021-6.647 14.144-10.349V132zm-90-12c-48.785 0-90-22.897-90-50s41.215-50 90-50 90 22.897 90 50-41.215 50-90 50zm290 322c0 27.103-41.215 50-90 50s-90-22.897-90-50v-21.346C288.962 441.271 324.306 450 356 450c31.621 0 67.025-8.717 90-29.346V442zm0-62c0 27.103-41.215 50-90 50s-90-22.897-90-50v-21.346C288.962 379.271 324.306 388 356 388c31.621 0 67.025-8.717 90-29.346V380zm0-62c0 27.103-41.215 50-90 50s-90-22.897-90-50v-21.346C288.962 317.271 324.306 326 356 326c31.621 0 67.025-8.717 90-29.346V318zm0-62c0 27.103-41.215 50-90 50s-90-22.897-90-50v-21.346C288.962 255.271 324.306 264 356 264c31.621 0 67.025-8.717 90-29.346V256zm-90-12c-48.785 0-90-22.897-90-50s41.215-50 90-50 90 22.897 90 50-41.215 50-90 50z"/><path d="M425.534 191.474c-3.83-10.785-24.437-21.852-47.932-25.74-5.455-.895-10.597 2.785-11.499 8.233-.901 5.448 2.784 10.597 8.233 11.499 11.942 1.977 20.716 5.602 26.215 8.728C392.319 198.548 377.368 204 356 204c-24.653 0-40.154-7.198-47.074-11.789a9.981 9.981 0 0 0-1.811-8.602c-3.397-4.356-9.683-5.132-14.035-1.734-2.974 2.319-4.973 4.538-6.11 6.784a10.002 10.002 0 0 0-.506 7.86C290.546 208.04 316.981 224 356 224c39.641 0 64.92-16.378 69.067-24.733a10.003 10.003 0 0 0 .467-7.793zM225.533 67.474c-3.83-10.785-24.436-21.851-47.93-25.74-5.441-.896-10.597 2.785-11.499 8.233s2.784 10.597 8.233 11.499c11.942 1.977 20.715 5.602 26.214 8.728C192.319 74.548 177.37 80 156 80c-24.655 0-40.155-7.198-47.074-11.79a9.982 9.982 0 0 0-1.812-8.602c-3.397-4.354-9.681-5.13-14.036-1.732-2.975 2.32-4.973 4.541-6.11 6.787a9.998 9.998 0 0 0-.504 7.855C90.545 84.04 116.98 100 156 100c39.643 0 64.921-16.379 69.067-24.734a9.996 9.996 0 0 0 .466-7.792z"/></svg>