<svg xmlns="http://www.w3.org/2000/svg" viewBox="0 0 512 512" fill="#4c5467"><path d="M216 380.001c-5.52 0-10 4.48-10 10s4.48 10 10 10 10-4.48 10-10-4.48-10-10-10zM236 60.003c-71.681 0-129.999 58.318-129.999 129.999S164.319 320.001 236 320.001s129.999-58.318 129.999-129.999S307.681 60.003 236 60.003zm0 239.998c-60.654 0-109.999-49.346-109.999-109.999S175.347 80.003 236 80.003c60.654 0 109.999 49.346 109.999 109.999S296.654 300.001 236 300.001z"/><path d="M240.677 181.877C225.771 173.998 216 168.268 216 160.712c0-11.028 8.972-20 20-20s20 8.972 20 20c0 5.523 4.477 10 10 10s10-4.477 10-10c0-18.604-12.767-34.282-30-38.734v-11.266c0-5.523-4.477-10-10-10s-10 4.477-10 10v11.266c-17.233 4.452-30 20.13-30 38.734 0 20.171 18.77 30.093 35.331 38.847C246.232 207.436 256 213.163 256 220.712c0 11.028-8.972 20-20 20s-20-8.972-20-20c0-5.523-4.477-10-10-10s-10 4.477-10 10c0 18.604 12.767 34.282 30 38.734v11.266c0 5.523 4.477 10 10 10s10-4.477 10-10v-11.266c17.233-4.452 30-20.13 30-38.734 0-20.164-18.766-30.083-35.323-38.835z"/><path d="M465.283 286.288c-28.897-72.244-37.034-92.585-39.454-98.548C419.128 79.848 339.301 6.285 248.626.415 136.574-6.844 46.002 82.159 46.002 190.002c0 61.708 29.796 119.194 79.972 154.851.027 56.95.027 157.147.027 157.147 0 5.523 4.477 10 10 10H316c5.523 0 10-4.477 10-10v-77.305l43.799 10.263c.107.025.215.048.323.07C388.696 438.737 406 424.513 406 405.601v-33.239l18.944-37.889a9.997 9.997 0 0 0 0-8.944l-12.764-25.528H456c3.318 0 6.42-1.646 8.281-4.394a10.005 10.005 0 0 0 1.002-9.319zm-69.284-6.286a10 10 0 0 0-8.944 14.472l17.764 35.528-17.764 35.528a10.006 10.006 0 0 0-1.056 4.472v35.6c0 6.276-5.708 10.98-11.828 9.839L257.51 388.115c-5.377-1.255-10.757 2.079-12.017 7.457-1.259 5.377 2.08 10.757 7.457 12.017l53.05 12.42V492H146.001c-.001-27.803-.005-106.961-.03-152.404a10.002 10.002 0 0 0-4.438-8.305c-47.295-31.651-75.531-84.469-75.531-141.289 0-97.99 82.391-176.03 181.333-169.63 86.765 5.617 153.475 77.142 158.62 170.073a10 10 0 0 0 .747 3.275c.726 1.789 20.546 51.33 34.528 86.281h-45.231z"/></svg>