<svg xmlns="http://www.w3.org/2000/svg" viewBox="0 0 512.001 512.001" fill="#4c5467"><path d="M455.198 164.367c-5.523 0-10.006 4.483-10.006 10.006 0 5.523 4.483 10.006 10.006 10.006s10.006-4.483 10.006-10.006c0-5.523-4.482-10.006-10.006-10.006zM341.994 51.163c-5.523 0-10.006 4.483-10.006 10.006 0 5.523 4.483 10.006 10.006 10.006S352 66.692 352 61.169c0-5.524-4.483-10.006-10.006-10.006zM179.812 326.129c-5.523 0-10.006 4.483-10.006 10.006s4.483 10.006 10.006 10.006 10.006-4.483 10.006-10.006-4.483-10.006-10.006-10.006zM312.197 52.944c-1.206-5.393-6.557-8.79-11.948-7.583a59.778 59.778 0 0 0-29.558 16.369c-23.292 23.567-23.06 61.606.513 84.9 3.926 3.881 10.264 3.851 14.15-.083 3.885-3.931 3.847-10.266-.083-14.15-15.704-15.52-15.868-40.895-.343-56.604a39.802 39.802 0 0 1 19.685-10.902c5.394-1.205 8.789-6.554 7.584-11.947zM464.006 204.114c-5.378-1.262-10.764 2.078-12.026 7.458a39.86 39.86 0 0 1-10.464 18.926c-15.499 15.691-40.891 15.867-56.598.345-3.93-3.885-10.267-3.85-14.15.083-3.885 3.931-3.847 10.266.083 14.15 23.548 23.272 61.609 23.066 84.901-.513a59.867 59.867 0 0 0 15.712-28.423c1.262-5.38-2.077-10.764-7.458-12.026zM448.125 68.243c-11.729-11.731-30.723-11.733-42.457-.001-11.704 11.705-11.705 30.749.001 42.457 11.708 11.705 30.75 11.704 42.456 0 11.728-11.73 11.734-30.725 0-42.456zm-14.151 28.304c-3.901 3.903-10.252 3.902-14.155.001-3.902-3.902-3.902-10.253 0-14.156 3.908-3.908 10.244-3.912 14.156 0 3.909 3.908 3.91 10.244-.001 14.155z"/><path d="M511.663 195.963c-1.951-24.084-12.108-46.862-28.699-64.507 20.555-27.414 18.376-66.594-6.541-91.511-24.918-24.917-64.096-27.097-91.511-6.541-17.645-16.59-40.423-26.748-64.507-28.698-25.812-2.089-50.696 5.534-70.074 21.468-47.218 38.826-47.856 107.727-7.384 148.2l14.141 14.141-105.459 105.279-49.641-49.632c-3.906-3.907-10.24-3.907-14.148-.001L2.93 329.06c-3.907 3.907-3.907 10.243 0 14.151l49.557 49.557-35.398 35.338c-11.73 11.73-11.733 30.723 0 42.457l28.296 28.294c11.699 11.701 30.741 11.701 42.45.007l240.006-239.597 14.153 14.154c40.478 40.478 109.376 39.829 148.2-7.384 15.934-19.377 23.558-44.263 21.469-70.074zM24.155 336.135L38.31 321.98l21.22 21.228c3.904 3.907 10.241 3.911 14.15.003 3.908-3.906 3.909-10.242.002-14.15L52.46 307.83l14.15-14.148 21.229 21.222c3.907 3.906 10.243 3.906 14.15-.002s3.905-10.244-.002-14.151l-21.226-21.218 14.151-14.149 42.452 42.445-70.756 70.758-42.453-42.452zm450.581-82.809c-31.003 37.706-86.117 38.419-118.591 5.943l-21.222-21.222c-3.905-3.904-10.235-3.906-14.145-.006L73.695 484.703c-3.907 3.902-10.259 3.905-14.16.004l-28.296-28.295c-3.866-3.866-3.947-10.208-.006-14.15l247.08-246.661c3.911-3.905 3.914-10.246.006-14.156l-21.222-21.222c-32.44-32.44-31.792-87.564 5.943-118.592 14.028-11.534 31.456-17.183 49.162-17.183 21.86 0 44.14 8.617 60.929 25.405l4.24 4.241a10.007 10.007 0 0 0 7.075 2.932h.001c2.654 0 5.198-1.055 7.075-2.931 19.504-19.503 51.244-19.505 70.748 0 19.505 19.505 19.505 51.243 0 70.748a10.007 10.007 0 0 0 .001 14.151l4.241 4.24c30.387 30.388 33.999 78.746 8.224 110.092z"/><path d="M158.591 357.356c-3.907-3.905-10.242-3.906-14.15 0l-56.602 56.601c-3.907 3.907-3.908 10.243 0 14.151 3.908 3.907 10.243 3.907 14.15 0l56.602-56.601c3.907-3.907 3.908-10.243 0-14.151z"/></svg>