<svg xmlns="http://www.w3.org/2000/svg" viewBox="0 0 512 512" fill="#4c5467"><path d="M326 220c-5.52 0-10 4.48-10 10s4.48 10 10 10 10-4.48 10-10-4.48-10-10-10zM246 140c-5.52 0-10 4.48-10 10s4.48 10 10 10 10-4.48 10-10-4.48-10-10-10zM166 372c-5.52 0-10 4.48-10 10s4.48 10 10 10 10-4.48 10-10-4.48-10-10-10z"/><path d="M466 492h-31.006c-4.646-22.795-24.847-40-48.994-40H136v-20h50c13.036 0 24.152-8.361 28.28-20H386c16.575 0 30-13.425 30-30 0-16.542-13.458-30-30-30H214.28c-4.128-11.639-15.243-20-28.28-20h-50V230c0-27.57 22.43-50 50-50h20.02A50.273 50.273 0 0 0 236 198.977V230c0 3.855 1.871 5.781 20.513 63.162A10 10 0 0 0 266 300h80a9.999 9.999 0 0 0 9.487-6.838C376.193 230.492 376 232.942 376 230V90c0-5.522-4.478-10-10-10h-10V60h10c5.522 0 10-4.478 10-10V10c0-5.522-4.478-10-10-10H246c-5.522 0-10 4.478-10 10v40c0 5.522 4.478 10 10 10h10v20h-10c-5.522 0-10 4.478-10 10v11.023A50.274 50.274 0 0 0 206.02 120H186c-60.654 0-110 49.346-110 110v262H46c-5.522 0-10 4.478-10 10s4.478 10 10 10h420c5.522 0 10-4.478 10-10s-4.478-10-10-10zM216 372h170c5.514 0 10 4.486 10 10 0 5.52-4.479 10-10 10H216v-20zm40-352h100v20H256V20zm80 40v20h-60V60h60zm-80 40h100v128.377L338.792 280h-65.584l-13.333-40H286c5.522 0 10-4.478 10-10s-4.478-10-10-10h-30v-21.006c22.795-4.646 40-24.847 40-48.994s-17.205-44.348-40-48.994V100zm-35.995 35.008C225.361 125.751 235.322 120 246 120c16.542 0 30 13.458 30 30s-13.458 30-30 30c-10.678 0-20.639-5.751-25.989-14.999C217.387 160.455 216 155.269 216 150s1.387-10.455 4.005-14.992zM186 352c5.514 0 10 4.486 10 10v40c0 5.514-4.486 10-10 10h-50v-60h50zM96 230c0-49.626 40.374-90.1 90-90.1h11.017A51.106 51.106 0 0 0 196 150c0 3.37.348 6.72 1.017 10H186c-38.599 0-70 31.402-70 70v222H96V230zm0 262v-20h290c13.036 0 24.152 8.361 28.28 20H96z"/></svg>