<svg xmlns="http://www.w3.org/2000/svg" viewBox="0 0 512 512" fill="#4c5467"><path d="M376 336c-5.52 0-10 4.48-10 10s4.48 10 10 10 10-4.48 10-10-4.48-10-10-10zM186 96c-5.52 0-10 4.48-10 10 0 5.603 4.577 10 10 10 5.52 0 10-4.48 10-10 0-5.564-4.542-10-10-10zM136 396c-5.52 0-10 4.48-10 10s4.48 10 10 10 10-4.48 10-10-4.48-10-10-10zM256 156c-5.519 0-10-4.479-10-10 0-5.519 4.479-10 10-10a9.929 9.929 0 0 1 7.068 2.932c3.906 3.904 10.236 3.904 14.143 0 3.905-3.905 3.905-10.237 0-14.143A29.901 29.901 0 0 0 266 117.703V106c0-5.522-4.478-10-10-10s-10 4.478-10 10v11.703c-11.39 4.019-20 14.966-20 28.297 0 16.575 13.425 30 30 30 5.519 0 10 4.479 10 10 0 5.519-4.479 10-10 10a9.929 9.929 0 0 1-7.068-2.932c-3.905-3.903-10.236-3.903-14.143 0-3.905 3.905-3.905 10.237 0 14.143A29.901 29.901 0 0 0 246 214.297V226c0 5.522 4.478 10 10 10s10-4.478 10-10v-11.703c11.39-4.019 20-14.966 20-28.297 0-16.575-13.425-30-30-30z"/><path d="M502 36H10C4.477 36 0 40.478 0 46v420c0 5.522 4.477 10 10 10h492c5.522 0 10-4.478 10-10V46c0-5.522-4.478-10-10-10zM20 56h59.274C74.875 86.608 50.609 110.875 20 115.274V56zm0 160.726c30.609 4.399 54.875 28.666 59.274 59.274H20v-59.274zM206 396h-30c-5.523 0-10 4.478-10 10s4.477 10 10 10h30v40H20v-40h76c5.523 0 10-4.478 10-10s-4.477-10-10-10H20v-40h186v40zm0-60H20v-40h186v40zm80 120h-60V296h60v160zm-28.385-180.03c-.532.023-1.073.03-1.614.03-17.916 0-35.051-10.901-48.247-30.696C193.725 224.263 186 196.099 186 166c0-6.451.379-13.252 1.151-19.799.647-5.484-3.275-10.455-8.76-11.103-5.493-.651-10.456 3.276-11.103 8.761a172.627 172.627 0 0 0-.621 6.179l-.021.226-.014.151A193.977 193.977 0 0 0 166 166c0 34.004 8.918 66.107 25.112 90.398 5.044 7.567 10.621 14.117 16.612 19.602H99.441C94.815 234.348 61.652 201.185 20 196.559v-61.117C61.652 130.815 94.815 97.652 99.441 56h108.346a98.878 98.878 0 0 0-8.881 9.221c-3.568 4.217-3.041 10.526 1.175 14.093 4.216 3.565 10.526 3.04 14.093-1.176 11.8-13.948 24.841-20.374 36.083-21.764v-.003c1.921-.236 3.642-.371 5.743-.371 17.916 0 35.051 10.901 48.247 30.696C318.274 107.737 326 135.901 326 166c0 26.579-6.409 55.479-20.529 77.425-10.993 17.292-27.307 31.621-47.856 32.545zM492 456H306v-40h186v40zm0-120h-76c-5.522 0-10 4.478-10 10s4.478 10 10 10h76v40H306v-40h30c5.522 0 10-4.478 10-10s-4.478-10-10-10h-30v-40h186v40zm0-60h-59.274c4.399-30.608 28.666-54.875 59.274-59.274V276zm0-79.442c-41.652 4.626-74.815 37.789-79.441 79.441H304.214C333.273 249.544 346 205.154 346 166c0-34.003-8.918-66.107-25.112-90.398-5.044-7.567-10.621-14.117-16.612-19.602h108.283c4.626 41.652 37.789 74.815 79.441 79.441v61.117zm0-81.284c-30.608-4.399-54.875-28.666-59.274-59.274H492v59.274z"/></svg>