<svg xmlns="http://www.w3.org/2000/svg" viewBox="0 0 512 512" fill="#4c5467"><path d="M176 40c-5.52 0-10 4.48-10 10s4.48 10 10 10 10-4.48 10-10-4.48-10-10-10zM176 180c-5.52 0-10 4.48-10 10s4.48 10 10 10 10-4.48 10-10-4.48-10-10-10zM176 320c-5.52 0-10 4.48-10 10s4.48 10 10 10 10-4.48 10-10-4.48-10-10-10zM136 40c-5.52 0-10 4.48-10 10s4.48 10 10 10 10-4.48 10-10-4.48-10-10-10zM136 180c-5.52 0-10 4.48-10 10s4.48 10 10 10 10-4.48 10-10-4.48-10-10-10zM136 320c-5.52 0-10 4.48-10 10s4.48 10 10 10 10-4.48 10-10-4.48-10-10-10zM96 40c-5.52 0-10 4.48-10 10s4.48 10 10 10 10-4.48 10-10-4.48-10-10-10zM96 180c-5.52 0-10 4.48-10 10s4.48 10 10 10 10-4.48 10-10-4.48-10-10-10zM96 320c-5.52 0-10 4.48-10 10s4.48 10 10 10 10-4.48 10-10-4.48-10-10-10zM296 320h-20c-5.522 0-10 4.478-10 10s4.478 10 10 10h20c5.522 0 10-4.478 10-10s-4.478-10-10-10zM356 320h-20c-5.522 0-10 4.478-10 10s4.478 10 10 10h20c5.522 0 10-4.478 10-10s-4.478-10-10-10zM416 320h-20c-5.522 0-10 4.478-10 10s4.478 10 10 10h20c5.522 0 10-4.478 10-10s-4.478-10-10-10zM296 180h-20c-5.522 0-10 4.478-10 10s4.478 10 10 10h20c5.522 0 10-4.478 10-10s-4.478-10-10-10zM356 180h-20c-5.522 0-10 4.478-10 10s4.478 10 10 10h20c5.522 0 10-4.478 10-10s-4.478-10-10-10zM416 180h-20c-5.522 0-10 4.478-10 10s4.478 10 10 10h20c5.522 0 10-4.478 10-10s-4.478-10-10-10zM296 40h-20c-5.522 0-10 4.478-10 10s4.478 10 10 10h20c5.522 0 10-4.478 10-10s-4.478-10-10-10zM356 40h-20c-5.522 0-10 4.478-10 10s4.478 10 10 10h20c5.522 0 10-4.478 10-10s-4.478-10-10-10zM416 40h-20c-5.522 0-10 4.478-10 10s4.478 10 10 10h20c5.522 0 10-4.478 10-10s-4.478-10-10-10z"/><path d="M502 452H286v-52h170c5.522 0 10-4.478 10-10V290c0-5.522-4.478-10-10-10h-50v-20h50c5.522 0 10-4.478 10-10V150c0-5.522-4.478-10-10-10h-50v-20h50c5.522 0 10-4.478 10-10V10c0-5.522-4.478-10-10-10H56c-5.522 0-10 4.478-10 10v100c0 5.522 4.478 10 10 10h30v20H56c-5.522 0-10 4.478-10 10v100c0 5.522 4.478 10 10 10h30v20H56c-5.522 0-10 4.478-10 10v100c0 5.522 4.478 10 10 10h170v52H10c-5.522 0-10 4.478-10 10v40c0 5.522 4.478 10 10 10h492c5.522 0 10-4.478 10-10v-40c0-5.522-4.478-10-10-10zM66 100V20h380v80H66zm320 20v20H106v-20h280zM66 240v-80h380v80H66zm320 20v20H106v-20h280zM66 380v-80h380v80H66zm200 20v52h-20v-52h20zm-80 92H20v-20h166v20zm120 0H206v-20h100v20zm186 0H326v-20h166v20z"/></svg>