<svg xmlns="http://www.w3.org/2000/svg" viewBox="0 0 511.999 511.999" fill="#4c5467"><path d="M256 126c-71.682 0-130 58.317-130 130s58.318 130 130 130 130-58.317 130-130-58.318-130-130-130zm0 240c-60.654 0-110-49.346-110-110s49.346-110 110-110 110 49.346 110 110-49.346 110-110 110z"/><path d="M510.157 250.215c-1.184-1.67-29.541-41.391-74.802-81.684C385.522 124.166 322.689 86 256 86c-66.706 0-129.544 38.186-179.355 82.531-45.261 40.293-73.617 80.014-74.802 81.685a9.999 9.999 0 0 0 0 11.568c1.185 1.671 29.541 41.392 74.802 81.685C126.478 387.834 189.311 426 256 426c31.835 0 65.115-8.781 98.917-26.101 26.655-13.657 53.718-32.643 80.438-56.431 45.261-40.293 73.617-80.014 74.802-81.685a9.999 9.999 0 0 0 0-11.568zM256 406c-65.2 0-126.121-41.978-165.746-77.192-33.784-30.023-58.292-60.414-67.775-72.802C44.136 227.782 144.102 106 256 106c65.2 0 126.121 41.978 165.746 77.192 33.781 30.021 58.29 60.411 67.775 72.802C467.864 284.218 367.898 406 256 406z"/><path d="M260.677 247.875C245.771 239.995 236 234.266 236 226.71c0-11.028 8.972-20 20-20s20 8.972 20 20c0 5.522 4.477 10 10 10s10-4.478 10-10c0-18.604-12.767-34.282-30-38.734V176.71c0-5.522-4.477-10-10-10s-10 4.478-10 10v11.266c-17.233 4.452-30 20.13-30 38.734 0 20.172 18.77 30.093 35.331 38.847C266.232 273.434 276 279.161 276 286.71c0 11.028-8.972 20-20 20s-20-8.972-20-20c0-5.522-4.477-10-10-10s-10 4.478-10 10c0 18.604 12.767 34.282 30 38.734v11.266c0 5.522 4.477 10 10 10s10-4.478 10-10v-11.266c17.233-4.452 30-20.13 30-38.734 0-20.164-18.766-30.084-35.323-38.835z"/></svg>