<svg xmlns="http://www.w3.org/2000/svg" viewBox="0 0 512 512" fill="#4c5467"><path d="M170 100c-5.52 0-10 4.48-10 10s4.48 10 10 10 10-4.48 10-10-4.48-10-10-10zM323.071 308.928l-39.992-39.992A29.877 29.877 0 0 0 286 256c0-13.036-8.361-24.152-20-28.28V150c0-5.522-4.477-10-10-10s-10 4.478-10 10v77.72c-11.639 4.128-20 15.243-20 28.28 0 16.542 13.458 30 30 30 4.552 0 8.948-1.01 12.937-2.921l39.992 39.992c3.906 3.905 10.237 3.905 14.142 0 3.905-3.905 3.906-10.237 0-14.143zm-60.002-45.86A9.93 9.93 0 0 1 256 266c-5.514 0-10-4.486-10-10 0-4.682 3.239-8.611 7.59-9.694.773.192 1.577.305 2.41.305s1.636-.113 2.41-.305c4.352 1.083 7.59 5.013 7.59 9.694a9.93 9.93 0 0 1-2.931 7.068z"/><path d="M442 0H70C31.402 0 0 31.402 0 70v372c0 38.598 31.402 70 70 70h372c38.598 0 70-31.402 70-70V70c0-38.598-31.402-70-70-70zm50 442c0 27.57-22.43 50-50 50H70c-27.57 0-50-22.43-50-50V70c0-27.57 22.43-50 50-50h372c27.57 0 50 22.43 50 50v372z"/><path d="M422 60H90c-16.559 0-30 13.424-30 30v332c0 8.01 3.121 15.542 8.789 21.211C74.457 448.879 81.99 452 90 452h332c16.333 0 30-13.21 30-30V90c0-16.575-13.424-30-30-30zM266 80h151.858l-20 20H266V80zm-20 0v20h-36c-5.523 0-10 4.478-10 10s4.477 10 10 10h182v272H120V120h10c5.523 0 10-4.478 10-10s-4.477-10-10-10h-15.858l-20-20H246zM80 94.142l20 20V246H80V94.142zm0 323.716V266h20v131.858l-20 20zM246 432H94.142l20-20H246v20zm20 0v-20h131.858l20 20H266zm166-14.142l-20-20V266h20v151.858zM432 246h-20V114.142l20-20V246z"/></svg>