<?xml version="1.0" encoding="UTF-8"?>
<svg viewBox="0 0 34 50" version="1.1"
  xmlns="http://www.w3.org/2000/svg">
  <!-- Generator: Sketch 52.2 (67145) - http://www.bohemiancoding.com/sketch -->
  <title>Group</title>
  <desc>Created with Sketch.</desc>
  <g id="Wireframes" stroke="none" stroke-width="1" fill="none" fill-rule="evenodd">
    <g id="Icones" transform="translate(-55.000000, -356.000000)" fill="#000000">
      <g id="Group" transform="translate(55.000000, 356.000000)">
        <path d="M31.9633009,0 L2.03733575,0 C0.912113992,0 0,0.924807813 0,2.0656892 L0,41.9920195 C0,43.1329009 0.912113992,44.0577087 2.03733575,44.0577087 L5.20482706,44.0577087 L5.20482706,48.5400654 C5.20482706,49.1105061 5.66064532,49.5725066 6.22325621,49.5725066 C6.52103413,49.5725066 6.80385154,49.4408292 6.99786078,49.211362 L9.23843673,46.5670023 L11.4790127,49.211362 C11.845227,49.6444774 12.4880517,49.6954701 12.9152222,49.3248046 C13.1413806,49.1287409 13.2720464,48.8419875 13.2720464,48.5400654 L13.2720464,44.0577087 L31.9633009,44.0577087 C33.0886818,44.0577087 34,43.1329009 34,41.9920195 L34,2.0656892 C34,0.924807813 33.0886818,0 31.9633009,0 Z M10.0124047,44.2744277 C9.64682698,43.8408283 9.00400227,43.7903196 8.57635433,44.1609851 C8.53656573,44.1956795 8.49868698,44.2334399 8.46446878,44.2744277 L7.24216281,45.7204586 L7.24216281,41.7959557 C8.52908547,42.2876481 9.94778799,42.2876481 11.2347106,41.7959557 L11.2347106,45.7204586 L10.0124047,44.2744277 Z M12.935594,36.301813 C12.9362306,38.3787981 11.2869133,40.0694649 9.23843673,40.0920566 L9.19737489,40.0920566 C7.13330119,40.0920566 5.45979244,38.3952578 5.45979244,36.301813 C5.45979244,34.2083683 7.13330119,32.5115695 9.19737489,32.5115695 C11.2620852,32.5115695 12.935594,34.2083683 12.935594,36.301813 Z M31.9123714,41.9818532 L13.2720464,41.9818532 L13.2720464,40.4841842 C15.5549574,38.2256586 15.5996798,34.5178747 13.3721545,32.2039995 C11.1439926,29.8893173 7.48773809,29.8439725 5.20482706,32.1024981 C2.92207519,34.3610237 2.87719364,38.0686462 5.10471893,40.3833283 C5.13766389,40.4173772 5.17124548,40.4507807 5.20482706,40.4841842 L5.20482706,41.9818532 L2.03733575,41.9818532 L2.03733575,2.0656892 L31.9633009,2.0656892 L31.9123714,41.9818532 Z" id="Fill-1"></path>
        <path d="M25.1638753,7.96703297 L7.96371131,7.96703297 C7.41707791,7.96703297 6.97435897,8.3630023 6.97435897,8.85205139 C6.97435897,9.34096218 7.41707791,9.73748474 7.96371131,9.73748474 L25.1638753,9.73748474 C25.7105087,9.73748474 26.1538462,9.34096218 26.1538462,8.85205139 C26.1538462,8.3630023 25.7105087,7.96703297 25.1638753,7.96703297 Z" id="Fill-2"></path>
        <path d="M25.1638753,14.1636142 L7.96371131,14.1636142 C7.41707791,14.1636142 6.97435897,14.5597073 6.97435897,15.0487709 C6.97435897,15.5379728 7.41707791,15.9340659 7.96371131,15.9340659 L25.1638753,15.9340659 C25.7105087,15.9340659 26.1538462,15.5379728 26.1538462,15.0487709 C26.1538462,14.5597073 25.7105087,14.1636142 25.1638753,14.1636142 Z" id="Fill-3"></path>
        <path d="M25.1638753,20.3601954 L7.96371131,20.3601954 C7.41707791,20.3601954 6.97435897,20.7567179 6.97435897,21.2456287 C6.97435897,21.7345395 7.41707791,22.1306471 7.96371131,22.1306471 L25.1638753,22.1306471 C25.7105087,22.1306471 26.1538462,21.7345395 26.1538462,21.2456287 C26.1538462,20.7567179 25.7105087,20.3601954 25.1638753,20.3601954 Z" id="Fill-4"></path>
        <path d="M25.1638753,25.6715507 L7.96371131,25.6715507 C7.41707791,25.6715507 6.97435897,26.0681042 6.97435897,26.5570532 C6.97435897,27.0454489 7.41707791,27.4420024 7.96371131,27.4420024 L25.1638753,27.4420024 C25.7105087,27.4420024 26.1538462,27.0454489 26.1538462,26.5570532 C26.1538462,26.0681042 25.7105087,25.6715507 25.1638753,25.6715507 Z" id="Fill-5"></path>
        <path d="M25.97286,31.8681319 L17.6162258,31.8681319 C17.0355682,31.8681319 16.5641026,32.2647927 16.5641026,32.7531503 C16.5641026,33.2420611 17.0355682,33.6385836 17.6162258,33.6385836 L25.97286,33.6385836 C26.5541754,33.6385836 27.025641,33.2420611 27.025641,32.7531503 C27.025641,32.2647927 26.5541754,31.8681319 25.97286,31.8681319 Z" id="Fill-6"></path>
      </g>
    </g>
  </g>
</svg>
