<?xml version="1.0" encoding="UTF-8"?>
<svg width="40px" height="37px" viewBox="0 0 40 37" version="1.1"
  xmlns="http://www.w3.org/2000/svg"
  xmlns:xlink="http://www.w3.org/1999/xlink">
  <!-- Generator: Sketch 52.2 (67145) - http://www.bohemiancoding.com/sketch -->
  <title>message</title>
  <desc>Created with Sketch.</desc>

  <g id="Wireframes" stroke="none" stroke-width="1" fill="none" fill-rule="evenodd">
    <g id="Icones" transform="translate(-582.000000, -157.000000)">
      <g id="message" transform="translate(582.000000, 157.000000)">
        <g id="Group-3">

          <g id="Clip-2"></g>
          <path d="M6.19640625,16.3338392 L2.825625,14.0304154 L6.19640625,11.7269916 L6.19640625,16.3338392 Z M31.7551562,6.10847599 L31.7551562,17.6889353 L23.8617187,23.1148038 L20.6434375,20.6465407 C20.6384375,20.6426785 20.6341406,20.6402067 20.6292969,20.6368079 C20.2696875,20.3700063 19.7608594,20.3601962 19.3875781,20.6465407 L16.1459375,23.1325699 L8.24515625,17.733737 L8.24515625,6.10847599 L31.7551562,6.10847599 Z M20.0011719,2.29407724 L22.6035156,4.08266806 L17.3838281,4.08266806 L20.0011719,2.29407724 Z M37.0771875,14.0306472 L33.8039062,16.280618 L33.8039062,11.7814489 L37.0771875,14.0306472 Z M25.558125,24.4157516 L37.9233594,15.9161023 L37.9483594,33.918572 L25.558125,24.4157516 Z M20.0155469,22.7282735 L35.9210156,34.9269186 L4.05273437,34.9702526 L20.0155469,22.7282735 Z M14.4474219,24.4352171 L2.07640625,33.9225887 L2.05140625,15.9649207 L14.4474219,24.4352171 Z M39.9694531,14.0133445 C39.969375,13.9538664 39.9559375,13.8640313 39.9325781,13.8122777 C39.8711719,13.5918225 39.7344531,13.3904468 39.5299219,13.2498622 L33.8039844,9.31442171 L33.8039844,5.09564927 C33.8039844,4.53632359 33.3452344,4.08282255 32.7796094,4.08282255 L26.1921875,4.08282255 L20.5871875,0.230033403 C20.236875,-0.011045929 19.7717969,-0.0120501044 19.4204687,0.227947808 L13.779375,4.08282255 L7.22078125,4.08282255 C6.655,4.08282255 6.19640625,4.53632359 6.19640625,5.09564927 L6.19640625,9.26467641 L0.44265625,13.1964864 C0.159609375,13.3899061 0.006484375,13.6991921 0.001640625,14.0152756 C0.001328125,14.0212234 0,14.0269395 0,14.033119 L0.030546875,35.9885637 C0.0309375,36.257142 0.13921875,36.5145971 0.331484375,36.704309 C0.52359375,36.8936347 0.783671875,37 1.05492187,37 C1.05539062,37 1.05578125,37 1.05632812,37 L38.9770312,36.9484008 C39.5427344,36.9476284 40.0007812,36.4935866 40,35.9341837 L39.9694531,14.0133445 Z" id="Fill-1" fill="#0A0B09" mask="url(#mask-2)"></path>
        </g>
        <path d="M13.0651562,12.1853591 L26.9351562,12.1853591 C27.5009375,12.1853591 27.9595312,11.731858 27.9595312,11.1725324 C27.9595312,10.6132839 27.5009375,10.1597056 26.9351562,10.1597056 L13.0651562,10.1597056 C12.4995312,10.1597056 12.0407813,10.6132839 12.0407813,11.1725324 C12.0407813,11.731858 12.4995312,12.1853591 13.0651562,12.1853591" id="Fill-4" fill="#0A0B09"></path>
        <path d="M13.0651562,17.4521044 L26.9351562,17.4521044 C27.5009375,17.4521044 27.9595312,16.9985261 27.9595312,16.4392777 C27.9595312,15.879952 27.5009375,15.4264509 26.9351562,15.4264509 L13.0651562,15.4264509 C12.4995312,15.4264509 12.0407813,15.879952 12.0407813,16.4392777 C12.0407813,16.9985261 12.4995312,17.4521044 13.0651562,17.4521044" id="Fill-5" fill="#0A0B09"></path>
      </g>
    </g>
  </g>
</svg>
