<svg xmlns="http://www.w3.org/2000/svg" viewBox="0 0 512 512" fill="#4c5467"><path d="M482 246.127H377.448v-30.391c0-44.233-33.955-80.67-77.166-84.653-.102-.029-.206-.05-.309-.075 9.359-10.451 15.064-24.239 15.064-39.339V10c0-5.523-4.477-10-10-10h-60.742c-26.099 0-47.332 21.233-47.332 47.332v44.337c0 15.1 5.705 28.888 15.064 39.339-.103.025-.207.047-.309.075-43.211 3.983-77.166 40.42-77.166 84.653v30.391H30c-16.542 0-30 13.458-30 30V482c0 16.542 13.458 30 30 30h273c5.523 0 10-4.478 10-10s-4.477-10-10-10H30c-5.514 0-10-4.486-10-10V276.127c0-5.514 4.486-10 10-10h452c5.514 0 10 4.486 10 10V482c0 5.514-4.486 10-10 10h-91.5c-5.523 0-10 4.478-10 10s4.477 10 10 10H482c16.542 0 30-13.458 30-30V276.127c0-16.542-13.458-30-30-30zm-225.999-115.42c-21.525 0-39.037-17.512-39.037-39.037V78.453h59.764a38.075 38.075 0 0 0 18.31-4.667V91.67c0 21.525-17.512 39.037-39.037 39.037zm17.431 19.999L256 168.138l-17.432-17.432h34.864zm-56.47-103.374h.001c0-15.071 12.261-27.332 27.332-27.332h50.742v20.144c0 10.096-8.214 18.31-18.31 18.31h-59.765V47.332zM357.448 246H154.552v-30.264c0-32.906 24.573-60.164 56.33-64.431l38.047 38.047c1.953 1.953 4.512 2.929 7.071 2.929s5.119-.976 7.071-2.929l38.047-38.047c31.757 4.267 56.33 31.525 56.33 64.431V246z"/><path d="M355.07 494.93c-1.86-1.86-4.44-2.93-7.07-2.93s-5.21 1.069-7.07 2.93c-1.86 1.86-2.93 4.44-2.93 7.07s1.07 5.21 2.93 7.069c1.86 1.86 4.44 2.931 7.07 2.931s5.21-1.07 7.07-2.931c1.86-1.859 2.93-4.439 2.93-7.069s-1.07-5.21-2.93-7.07zM298 301.938h-84c-11.028 0-20 8.972-20 20v15.396c0 5.522 4.477 10 10 10s10-4.478 10-10v-15.396h84v116h-84V413c0-5.522-4.477-10-10-10s-10 4.478-10 10v24.938c0 11.028 8.972 20 20 20h84c11.028 0 20-8.972 20-20v-116c0-11.029-8.972-20-20-20z"/><path d="M211.07 368.98c-1.86-1.87-4.44-2.93-7.07-2.93s-5.21 1.06-7.07 2.93c-1.86 1.86-2.93 4.44-2.93 7.07s1.07 5.21 2.93 7.07c1.86 1.859 4.44 2.93 7.07 2.93s5.21-1.07 7.07-2.93 2.93-4.44 2.93-7.07c0-2.64-1.07-5.21-2.93-7.07zM452 301.938h-84c-11.028 0-20 8.972-20 20v116c0 11.028 8.972 20 20 20h84c11.028 0 20-8.972 20-20v-116c0-11.028-8.972-20-20-20zm0 136h-84v-116h84l.013 115.999-.013.001zM119 389.906H85c-5.523 0-10 4.478-10 10s4.477 10 10 10h34c5.523 0 10-4.478 10-10s-4.477-10-10-10zM119 349.969H85c-5.523 0-10 4.478-10 10s4.477 10 10 10h34c5.523 0 10-4.478 10-10s-4.477-10-10-10zM273.127 389.906h-34c-5.523 0-10 4.478-10 10s4.477 10 10 10h34c5.523 0 10-4.478 10-10s-4.477-10-10-10zM273.127 349.969h-34c-5.523 0-10 4.478-10 10s4.477 10 10 10h34c5.523 0 10-4.478 10-10s-4.477-10-10-10z"/><path d="M427.254 389.906h-34c-5.523 0-10 4.478-10 10s4.477 10 10 10h34c5.523 0 10-4.478 10-10s-4.477-10-10-10zM427.254 349.969h-34c-5.523 0-10 4.478-10 10s4.477 10 10 10h34c5.523 0 10-4.478 10-10s-4.477-10-10-10zM144 301.938H60c-11.028 0-20 8.972-20 20v116c0 11.028 8.972 20 20 20h84c11.028 0 20-8.972 20-20v-116c0-11.028-8.972-20-20-20zm0 136H60v-116h84l.013 115.999-.013.001z"/></svg>