<svg xmlns="http://www.w3.org/2000/svg" viewBox="0 0 512 512" fill="#4c5467"><path d="M358.07 279.93c-1.86-1.86-4.44-2.93-7.07-2.93s-5.21 1.07-7.07 2.93c-1.86 1.86-2.93 4.44-2.93 7.07s1.07 5.21 2.93 7.07c1.86 1.86 4.44 2.93 7.07 2.93s5.21-1.07 7.07-2.93S361 289.63 361 287s-1.07-5.21-2.93-7.07zM300.22 357.458c9.494-10.529 15.285-24.46 15.285-39.72v-61.61c0-5.523-4.477-10-10-10h-61.164c-26.242 0-47.592 21.35-47.592 47.591v24.019c0 15.26 5.791 29.191 15.285 39.72-43.709 3.777-78.13 40.538-78.13 85.209V502c0 5.523 4.477 10 10 10H368.35c5.523 0 10-4.477 10-10v-59.333c0-44.671-34.421-81.432-78.13-85.209zm-83.471-63.74c0-15.214 12.377-27.591 27.592-27.591h51.164v51.61c0 21.713-17.665 39.377-39.378 39.377s-39.378-17.665-39.378-39.377v-24.019zM358.35 492H153.904v-49.333c0-36.146 29.407-65.552 65.552-65.552h73.341c36.146 0 65.552 29.406 65.552 65.552V444h-77.682c-5.523 0-10 4.477-10 10s4.477 10 10 10h77.683v28z"/><path d="M512 161.375c0-32.361-23.702-59.28-54.655-64.339 5.488-7.584 8.735-16.891 8.735-26.946V10c0-5.523-4.477-10-10-10h-44.692c-20.66 0-37.468 16.808-37.468 37.468V70.09c0 10.056 3.247 19.362 8.735 26.946-18.786 3.07-34.89 14.194-44.655 29.701-9.765-15.508-25.869-26.631-44.655-29.701 5.488-7.584 8.735-16.891 8.735-26.946V10c0-5.523-4.477-10-10-10h-44.692c-20.66 0-37.468 16.808-37.468 37.468V70.09c0 10.056 3.247 19.362 8.735 26.946-18.786 3.07-34.89 14.194-44.655 29.701-9.765-15.508-25.869-26.631-44.655-29.701 5.488-7.584 8.735-16.891 8.735-26.946V10c0-5.523-4.477-10-10-10H83.388C62.728 0 45.92 16.808 45.92 37.468V70.09c0 10.056 3.247 19.362 8.735 26.946C23.702 102.095 0 129.014 0 161.375V191c0 2.446.881 4.684 2.339 6.422A27.317 27.317 0 0 0 0 208.5v61C0 284.664 12.336 297 27.5 297h132.167c5.523 0 10-4.477 10-10s-4.477-10-10-10H27.5c-4.136 0-7.5-3.364-7.5-7.5v-61c0-4.136 3.364-7.5 7.5-7.5h457c4.136 0 7.5 3.364 7.5 7.5v61c0 4.136-3.364 7.5-7.5 7.5h-95.089c-5.523 0-10 4.477-10 10s4.477 10 10 10H484.5c15.164 0 27.5-12.336 27.5-27.5v-61c0-3.94-.839-7.687-2.339-11.078A9.957 9.957 0 0 0 512 191v-29.625zM65.92 37.468C65.92 27.836 73.756 20 83.388 20h34.692v12.179c0 5.972-4.858 10.83-10.83 10.83H65.92v-5.541zm0 25.54h41.331c3.81 0 7.458-.699 10.83-1.969v9.051h-.001c0 14.38-11.7 26.08-26.08 26.08s-26.08-11.7-26.08-26.08v-7.082zm32.527 53.162L92 122.617l-6.447-6.447h12.894zM164 181H20v-19.625c0-22.429 16.422-41.087 37.873-44.601l27.056 27.056a10.001 10.001 0 0 0 14.142 0l27.057-27.057c21.45 3.515 37.872 22.172 37.872 44.601V181zm65.92-143.532c0-9.632 7.836-17.468 17.468-17.468h34.692v12.179c0 5.972-4.858 10.83-10.83 10.83h-41.33v-5.541zm0 25.54h41.331c3.81 0 7.458-.699 10.83-1.969v9.051h-.001c0 14.38-11.7 26.08-26.08 26.08s-26.08-11.7-26.08-26.08v-7.082zm32.527 53.162L256 122.617l-6.447-6.447h12.894zM328 181H184v-19.625c0-22.429 16.422-41.087 37.873-44.601l27.056 27.056a10.001 10.001 0 0 0 14.142 0l27.057-27.057c21.45 3.515 37.872 22.172 37.872 44.601V181zm65.92-143.532c0-9.632 7.836-17.468 17.468-17.468h34.692v12.179c0 5.972-4.858 10.83-10.83 10.83h-41.33v-5.541zm0 25.54h41.331c3.81 0 7.458-.699 10.83-1.969v9.051h-.001c0 14.38-11.7 26.08-26.08 26.08-14.38 0-26.08-11.7-26.08-26.08v-7.082zm32.527 53.162L420 122.617l-6.447-6.447h12.894zM492 181H348v-19.625c0-22.429 16.422-41.087 37.873-44.601l27.056 27.056a10.001 10.001 0 0 0 14.142 0l27.057-27.057c21.45 3.515 37.872 22.172 37.872 44.601V181zM250.07 446.93c-1.86-1.86-4.44-2.93-7.07-2.93s-5.21 1.07-7.07 2.93S233 451.37 233 454s1.07 5.21 2.93 7.07c1.86 1.86 4.44 2.93 7.07 2.93s5.21-1.07 7.07-2.93S253 456.63 253 454s-1.07-5.21-2.93-7.07z"/></svg>