<svg xmlns="http://www.w3.org/2000/svg" viewBox="0 0 512 512" fill="#4c5467"><path d="M256 492h-.313c-5.522 0-10 4.478-10 10s4.478 10 10 10H256c5.522 0 10-4.478 10-10s-4.478-10-10-10z"/><path d="M438.557 236.455h52.627A237.56 237.56 0 0 1 492 256c0 5.522 4.478 10 10 10s10-4.478 10-10c0-68.38-26.629-132.667-74.98-181.019C388.667 26.629 324.38 0 256 0S123.333 26.629 74.98 74.981C26.629 123.333 0 187.62 0 256a256.221 256.221 0 0 0 40.457 138.128c.183.324.385.635.601.935a254.957 254.957 0 0 0 19.961 26.832c38.903 45.681 92.723 76.377 151.543 86.434.571.097 1.138.145 1.697.145 4.783-.001 9.012-3.443 9.846-8.316.931-5.444-2.729-10.612-8.172-11.543-28.154-4.813-54.39-14.454-77.934-27.984v-47.012c0-18.958-15.424-34.381-34.382-34.381H54.48C32.505 343.218 20 300.941 20 256c0-22.035 3.045-43.371 8.72-63.619h84.487c21.151 0 38.359-17.208 38.359-38.359v-1.164c0-10.124 8.236-18.359 18.359-18.359 21.151 0 38.359-17.208 38.359-38.359v-6.204c0-21.151-17.208-38.359-38.359-38.359h-31.749C172.871 31.502 213.116 20 256 20c44.56 0 86.273 12.418 121.867 33.969h-51.542c-37.188 0-67.444 30.256-67.444 67.445 0 6.251-5.086 11.336-11.337 11.336-26.329 0-47.749 21.42-47.749 47.749 0 30.854 25.102 55.956 55.956 55.956h34.021c-43.891 25.666-73.443 73.299-73.443 127.709 0 29.275 8.554 56.589 23.293 79.576a9.965 9.965 0 0 0-7.666 3.285c-6.305 6.976-14.032 4.729-16.25 3.878-2.219-.854-9.457-4.371-9.457-13.774v-63.148c0-24.97-20.314-45.283-45.284-45.283-19.848 0-35.994-16.147-35.994-35.995v-16.104c0-22.135 18.009-40.144 40.144-40.144H182c5.522 0 10-4.477 10-10s-4.478-10-10-10h-16.887c-33.163 0-60.144 26.98-60.144 60.144v16.104c0 30.876 25.119 55.995 55.994 55.995 13.941 0 25.284 11.342 25.284 25.283v63.148c0 14.498 8.742 27.231 22.272 32.439a35.006 35.006 0 0 0 12.591 2.357c9.601-.001 18.924-4.013 25.682-11.49a9.935 9.935 0 0 0 2.134-3.78C276.046 490.376 317.624 512 364.164 512c29.817 0 58.313-8.745 82.801-25.353l50.704 24.366a9.996 9.996 0 0 0 11.248-1.792 10 10 0 0 0 2.274-11.161l-22.937-53.521C503.809 420.594 512 392.927 512 364.164c0-54.41-29.552-102.042-73.443-127.709zM103.618 399.237c7.93 0 14.382 6.451 14.382 14.381v34.116a235.172 235.172 0 0 1-49.849-48.497h35.467zm66.308-327.662c10.123.001 18.359 8.237 18.359 18.36v6.204c0 10.124-8.236 18.359-18.359 18.359-21.151 0-38.359 17.208-38.359 38.359v1.164c0 10.124-8.236 18.359-18.359 18.359h-77.89c15.16-39.875 40.826-74.609 73.607-100.805h61.001zm85.824 144.88c-19.826 0-35.956-16.129-35.956-35.956 0-15.301 12.448-27.749 27.749-27.749 17.279 0 31.337-14.058 31.337-31.336 0-26.161 21.283-47.445 47.444-47.445h79.72c27.719 22.889 50.141 51.974 65.126 85.114h-61.793c-5.522 0-10 4.477-10 10s4.478 10 10 10h69.741a233.987 233.987 0 0 1 9.55 37.372H255.75zM467.722 447.4l14.589 34.043-31.987-15.372a10 10 0 0 0-10.273.971C417.953 483.37 391.712 492 364.164 492c-70.489 0-127.836-57.347-127.836-127.836 0-68.637 54.375-124.804 122.309-127.709h11.054C437.625 239.36 492 295.527 492 364.164c0 26.51-8.044 51.938-23.262 73.537a9.999 9.999 0 0 0-1.016 9.699z"/><path d="M373.88 162.01a10.077 10.077 0 0 0-7.07-2.93c-2.64 0-5.21 1.07-7.069 2.93a10.034 10.034 0 0 0-2.931 7.07c0 2.64 1.061 5.21 2.931 7.07a10.013 10.013 0 0 0 7.069 2.93c2.629 0 5.21-1.06 7.07-2.93 1.86-1.86 2.93-4.43 2.93-7.07 0-2.63-1.069-5.21-2.93-7.07zM317.833 320.164h-32.858c-5.522 0-10 4.478-10 10s4.478 10 10 10h6.43v38.832c0 3.545-2.885 6.43-6.43 6.43s-6.43-2.885-6.43-6.43c0-5.522-4.478-10-10-10s-10 4.478-10 10c0 14.573 11.856 26.43 26.43 26.43s26.43-11.856 26.43-26.43v-38.832h6.429c5.521 0 9.999-4.477 9.999-10 0-5.522-4.478-10-10-10zM365.696 320.164c-23.507 0-42.631 19.124-42.631 42.631s19.124 42.631 42.631 42.631 42.631-19.124 42.631-42.631-19.124-42.631-42.631-42.631zm0 65.262c-12.479 0-22.631-10.152-22.631-22.631s10.152-22.631 22.631-22.631 22.631 10.152 22.631 22.631-10.152 22.631-22.631 22.631zM469.783 347.164c0-14.888-12.112-27-27-27h-15.858c-5.522 0-10 4.478-10 10v68c0 5.522 4.478 10 10 10h15.858c14.888 0 27-12.112 27-27a26.866 26.866 0 0 0-6.044-17 26.872 26.872 0 0 0 6.044-17zm-27 41h-5.858v-14h5.858c3.859 0 7 3.141 7 7s-3.14 7-7 7zm0-34h-5.858v-14h5.858c3.859 0 7 3.141 7 7s-3.141 7-7 7z"/></svg>