<svg xmlns="http://www.w3.org/2000/svg" viewBox="0 0 512 512" fill="#4c5467"><path d="M79.019 348.99a10.063 10.063 0 0 0-7.069-2.921c-2.631 0-5.21 1.061-7.07 2.921a10.095 10.095 0 0 0-2.93 7.079c0 2.631 1.069 5.2 2.93 7.07a10.07 10.07 0 0 0 7.07 2.93c2.63 0 5.21-1.069 7.069-2.93a10.093 10.093 0 0 0 2.931-7.07c0-2.63-1.07-5.21-2.931-7.079zM390.684 238.508c-22.077-14.818-47.854-22.651-74.544-22.651h-5.84c18.36-15.531 30.049-38.717 30.049-64.593V87.107a56.77 56.77 0 0 0 6.761-26.927V10c0-5.522-4.478-10-10-10H220.745c-32.268 0-58.519 26.251-58.519 58.519v16.488c0 9.769 3.337 18.767 8.919 25.935v50.321c0 25.875 11.688 49.062 30.049 64.593h-5.336c-30.42 0-60.202 10.479-83.862 29.507-23.301 18.738-39.841 45.011-46.572 73.977-1.25 5.379 2.097 10.753 7.476 12.003.762.177 1.522.262 2.272.262 4.546 0 8.658-3.12 9.731-7.738 11.126-47.876 50.926-82.387 98.94-87.366l65.084 65.084a9.972 9.972 0 0 0 7.071 2.929 9.972 9.972 0 0 0 7.071-2.929l65.092-65.091a113.152 113.152 0 0 1 51.376 18.619c4.585 3.078 10.798 1.857 13.876-2.729s1.856-10.799-2.729-13.876zM182.227 75.007V58.519C182.227 37.28 199.506 20 220.746 20h106.366v40.181c0 20.472-16.655 37.127-37.127 37.127h-85.458c-12.296 0-22.3-10.004-22.3-22.301zM256 280.371l-44.515-44.516h43.878c.129.001.256.01.385.01s.256-.009.385-.01h44.383L256 280.371zm.133-64.515h-.77c-35.445-.21-64.217-29.1-64.217-64.593v-36.137a42.092 42.092 0 0 0 13.381 2.182h85.458a56.766 56.766 0 0 0 30.366-8.774v42.729c0 35.493-28.773 64.384-64.218 64.593zM276 370.219c-15.269 0-28.217 10.117-32.497 24H140.216c-4.28-13.883-17.228-24-32.497-24-18.748 0-34 15.252-34 34a33.795 33.795 0 0 0 3.958 15.899l-27.778 27.778A33.783 33.783 0 0 0 34 443.938c-18.748 0-34 15.252-34 34s15.252 34 34 34 34-15.252 34-34a33.795 33.795 0 0 0-3.958-15.899L91.82 434.26a33.783 33.783 0 0 0 15.899 3.958c15.269 0 28.217-10.117 32.497-24h103.287c4.28 13.883 17.228 24 32.497 24 18.748 0 34-15.252 34-34s-15.252-33.999-34-33.999zM34 491.938c-7.72 0-14-6.28-14-14s6.28-14 14-14 14 6.28 14 14-6.28 14-14 14zm73.719-73.719c-7.72 0-14-6.28-14-14s6.28-14 14-14 14 6.28 14 14-6.281 14-14 14zm168.281 0c-7.72 0-14-6.28-14-14s6.28-14 14-14 14 6.28 14 14-6.28 14-14 14zM328.09 356.13a10.08 10.08 0 0 0-7.07-2.93c-2.64 0-5.22 1.069-7.08 2.93a10.078 10.078 0 0 0-2.93 7.07c0 2.63 1.07 5.21 2.93 7.069a10.04 10.04 0 0 0 7.08 2.931c2.63 0 5.2-1.061 7.07-2.931a10.062 10.062 0 0 0 2.92-7.069c0-2.631-1.06-5.2-2.92-7.07zM502 172.05h-35.891c-5.522 0-10 4.478-10 10s4.478 10 10 10h11.917L341.288 328.788c-3.905 3.905-3.905 10.237 0 14.143 1.953 1.952 4.512 2.929 7.071 2.929s5.118-.977 7.071-2.929L492 206.361v11.579c0 5.522 4.478 10 10 10s10-4.478 10-10v-35.89c0-5.523-4.478-10-10-10z"/><path d="M235.42 142.1a10.08 10.08 0 0 0-7.07-2.93c-2.64 0-5.21 1.07-7.07 2.93a10.043 10.043 0 0 0-2.93 7.08c0 2.63 1.061 5.2 2.93 7.07a10.054 10.054 0 0 0 7.07 2.92c2.63 0 5.21-1.061 7.07-2.92a10.098 10.098 0 0 0 2.93-7.07c0-2.64-1.071-5.22-2.93-7.08zM290.439 142.1c-1.859-1.859-4.439-2.93-7.069-2.93s-5.21 1.07-7.07 2.93a10.081 10.081 0 0 0-2.93 7.08c0 2.63 1.069 5.21 2.93 7.07 1.86 1.859 4.44 2.92 7.07 2.92s5.21-1.061 7.069-2.92a10.077 10.077 0 0 0 2.931-7.07c0-2.64-1.07-5.22-2.931-7.08zM424 336c-48.523 0-88 39.477-88 88s39.477 88 88 88 88-39.477 88-88-39.477-88-88-88zm0 156c-37.495 0-68-30.505-68-68s30.505-68 68-68 68 30.505 68 68-30.505 68-68 68z"/><path d="M424.002 414.633c-4.62 0-8.523-3.119-8.523-6.812-.002-3.692 3.901-6.811 8.521-6.811s8.523 3.119 8.523 6.811c0 5.522 4.478 10 10 10s10-4.478 10-10c0-11.489-7.73-21.31-18.557-25.118-.347-5.208-4.67-9.329-9.966-9.329-5.296 0-9.619 4.121-9.966 9.329-10.827 3.808-18.557 13.629-18.557 25.118 0 14.784 12.796 26.812 28.523 26.812 4.62 0 8.523 3.119 8.523 6.811s-3.903 6.811-8.523 6.811-8.523-3.119-8.523-6.811c0-5.522-4.478-10-10-10s-10 4.478-10 10c0 11.513 7.762 21.352 18.624 25.143.657 4.887 4.833 8.66 9.9 8.66s9.243-3.773 9.9-8.66c10.862-3.791 18.624-13.63 18.624-25.143 0-14.783-12.796-26.811-28.523-26.811z"/></svg>