<svg xmlns="http://www.w3.org/2000/svg" viewBox="0 0 512 512" fill="#4c5467"><path d="M396.579 113.215l36.012-84.684a10 10 0 0 0-4.093-12.509L410.827 5.519c-13.854-8.236-31.549-6.918-44.031 3.275l-2.728 2.227c-6.782 5.541-16.627 5.541-23.417-.004l-.109-.089C326.404-.617 305.896-.6 291.778 10.972c-6.787 5.563-16.644 5.569-23.438.02l-2.771-2.264c-12.423-10.147-30.058-11.5-43.883-3.366l-18.144 10.674a10 10 0 0 0-4.121 12.559l36.237 84.548c-26.212 9.466-48.578 27.571-63.253 51.353-2.901 4.699-1.442 10.861 3.258 13.761 4.7 2.899 10.861 1.44 13.762-3.26a103.78 103.78 0 0 1 54.593-43.623h143.966C429.929 145.74 458 184.934 458 229.393v26.532c0 5.522 4.477 10 10 10s10-4.478 10-10v-26.532c0-52.289-32.554-98.458-81.421-116.178zm-20.952-1.841h-118.97l-35.388-82.565 10.557-6.209c6.643-3.91 15.119-3.259 21.09 1.618l2.771 2.263c14.138 11.549 34.648 11.532 48.769-.041 6.785-5.562 16.641-5.569 23.442-.016l.109.089c14.113 11.525 34.599 11.525 48.711-.002l2.727-2.227c5.999-4.898 14.502-5.531 21.161-1.574l10.158 6.038-35.137 82.626zM475.07 286.635c-1.86-1.86-4.44-2.93-7.07-2.93s-5.21 1.069-7.07 2.93a10.092 10.092 0 0 0-2.93 7.07c0 2.63 1.07 5.21 2.93 7.069 1.86 1.87 4.44 2.94 7.07 2.94s5.21-1.07 7.07-2.94a10.072 10.072 0 0 0 2.93-7.069c0-2.631-1.07-5.211-2.93-7.07zM152.98 446.075a10.076 10.076 0 0 0-7.07-2.93c-2.63 0-5.21 1.07-7.07 2.93-1.86 1.86-2.93 4.44-2.93 7.07s1.07 5.21 2.93 7.07c1.86 1.859 4.44 2.93 7.07 2.93s5.21-1.07 7.07-2.93c1.86-1.86 2.93-4.44 2.93-7.07s-1.07-5.21-2.93-7.07z"/><path d="M512 417.925c0-11.071-4.761-21.048-12.341-28 7.579-6.952 12.341-16.929 12.341-28 0-20.953-17.047-38-38-38H366c-20.953 0-38 17.047-38 38 0 11.071 4.761 21.048 12.341 28-7.579 6.952-12.341 16.929-12.341 28s4.761 21.048 12.341 28c-7.579 6.952-12.341 16.929-12.341 28a37.76 37.76 0 0 0 4.543 18h-40.72v-39.102c0-52.884-40.655-96.443-92.351-101.084a10.032 10.032 0 0 0-4.315-.299c-.168-.008-.337-.012-.505-.019 12.981-12.682 21.061-30.361 21.061-49.899v-99.597c0-5.522-4.477-10-10-10h-74.076c-30.618 0-55.527 24.909-55.527 55.526v54.07c0 19.538 8.08 37.217 21.061 49.899-.168.007-.337.011-.505.019a10.047 10.047 0 0 0-4.315.299C40.655 356.38 0 399.94 0 452.823v49.102c0 5.522 4.477 10 10 10h464c20.953 0 38-17.047 38-38 0-11.071-4.761-21.048-12.341-28 7.58-6.952 12.341-16.929 12.341-28zM96.11 261.458v-14.007c0-19.589 15.938-35.526 35.527-35.526h64.076v26.761c0 13.522-11.001 24.523-24.524 24.523H96.11v-1.751zm0 40.064v-18.313h75.079a44.26 44.26 0 0 0 24.524-7.388v25.7c0 27.46-22.341 49.801-49.801 49.801s-49.802-22.34-49.802-49.8zm76.359 69.8l-26.558 26.558-26.558-26.558h53.116zm99.354 120.604H164v-.001H20v-28.78h81.603c5.523 0 10-4.478 10-10s-4.477-10-10-10H20.595c4.42-37.167 33.938-66.726 71.087-71.21l47.159 47.159a9.972 9.972 0 0 0 7.071 2.929 9.97 9.97 0 0 0 7.071-2.929l47.159-47.159c40.323 4.867 71.681 39.274 71.681 80.889v39.102zM474 491.925H366c-9.925 0-18-8.075-18-18s8.075-18 18-18h108c9.925 0 18 8.075 18 18s-8.075 18-18 18zm0-56H366c-9.925 0-18-8.075-18-18s8.075-18 18-18h108c9.925 0 18 8.075 18 18s-8.075 18-18 18zm0-56H366c-9.925 0-18-8.075-18-18s8.075-18 18-18h108c9.925 0 18 8.075 18 18s-8.075 18-18 18z"/><path d="M374 227.993c-8.005 0-14.518-5.496-14.518-12.251s6.513-12.251 14.518-12.251 14.518 5.496 14.518 12.251c0 5.522 4.477 10 10 10s10-4.478 10-10c0-14.535-10.346-26.85-24.518-30.866v-1.493c0-5.522-4.477-10-10-10s-10 4.478-10 10v1.493c-14.171 4.016-24.518 16.331-24.518 30.866 0 17.783 15.484 32.251 34.518 32.251 8.005 0 14.518 5.496 14.518 12.251 0 6.755-6.513 12.251-14.518 12.251s-14.518-5.496-14.518-12.251c0-5.522-4.477-10-10-10s-10 4.478-10 10c0 14.535 10.346 26.85 24.518 30.866v.641c0 5.522 4.477 10 10 10s10-4.478 10-10v-.641c14.171-4.016 24.518-16.331 24.518-30.866 0-17.783-15.484-32.251-34.518-32.251z"/></svg>