<svg width="72" height="72" viewBox="0 0 72 72" fill="none" xmlns="http://www.w3.org/2000/svg">
<rect y="-0.000366211" width="72" height="72" rx="36" fill="#F3F6FE"/>
<path fill-rule="evenodd" clip-rule="evenodd" d="M34.7948 14.3997C35.5108 13.8626 36.4965 13.8667 37.2081 14.4098L56 28.7509V33.2457C56 34.3503 55.1046 35.2457 54 35.2457H52V52.2457H54C55.1046 52.2457 56 53.1412 56 54.2457V59.2457H16V54.2457C16 53.1412 16.8954 52.2457 18 52.2457H20V35.2457H18C16.8954 35.2457 16 34.3503 16 33.2457V28.7533L22.8903 23.4531C23.328 23.1164 23.9559 23.1983 24.2926 23.636C24.6294 24.0738 24.5475 24.7016 24.1097 25.0384L19.9401 28.2457H52.0413L35.9948 15.9997L30.6 20.0457C30.1582 20.3771 29.5314 20.2876 29.2 19.8457C28.8686 19.4039 28.9582 18.7771 29.4 18.4457L34.7948 14.3997ZM54 30.2457H18V33.2457H54V30.2457ZM38 35.2457H34.5V52.2457H38V35.2457ZM40 52.2457V35.2457H45V52.2457H40ZM47 52.2457H50V35.2457H47V52.2457ZM32.5 52.2457V35.2457H27.5V52.2457H32.5ZM25.5 52.2457V35.2457H22V52.2457H25.5ZM18 54.2457V57.2457H54V54.2457H18Z" fill="#3558A2"/>
<path fill-rule="evenodd" clip-rule="evenodd" d="M29.4 18.4457L34.7948 14.3996C35.5108 13.8626 36.4965 13.8667 37.2081 14.4097L56 28.7509V33.2457C56 34.3503 55.1046 35.2457 54 35.2457H18C16.8954 35.2457 16 34.3503 16 33.2457V28.7533L22.8903 23.4531C23.328 23.1163 23.9559 23.1982 24.2926 23.636C24.6294 24.0737 24.5475 24.7016 24.1097 25.0383L19.9401 28.2457H52.0413L35.9948 15.9996L30.6 20.0457C30.1582 20.3771 29.5314 20.2875 29.2 19.8457C28.9101 19.4591 28.9424 18.9309 29.251 18.5829C29.295 18.5332 29.3448 18.4871 29.4 18.4457ZM54 30.2457H18V33.2457H54V30.2457Z" fill="#E1000F"/>
<path d="M27 22.2457C27.5523 22.2457 28 21.798 28 21.2457C28 20.6934 27.5523 20.2457 27 20.2457C26.4477 20.2457 26 20.6934 26 21.2457C26 21.798 26.4477 22.2457 27 22.2457Z" fill="#E1000F"/>
</svg>
