<svg width="72" height="72" viewBox="0 0 72 72" fill="none" xmlns="http://www.w3.org/2000/svg">
<rect y="-0.000366211" width="72" height="72" rx="36" fill="#F3F6FE"/>
<path d="M51.9531 11.9996H19.0469C17.3668 11.9996 16 13.3665 16 15.0465V24.9996C16 25.5606 16.4548 25.9996 17.0156 25.9996C17.5765 25.9996 18.0312 25.5606 18.0312 24.9996V15.0465C18.0312 14.4865 18.4869 14.0309 19.0469 14.0309H51.9531C52.5131 14.0309 52.9688 14.4865 52.9688 15.0465V56.9528C52.9688 57.5128 52.5131 57.9684 51.9531 57.9684H19.0469C18.4869 57.9684 18.0312 57.5128 18.0312 56.9528V33.971C18.0312 33.41 17.5765 32.9553 17.0156 32.9553C16.4548 32.9553 16 33.41 16 33.971V56.9528C16 58.6328 17.3668 59.9996 19.0469 59.9996H51.9531C53.6332 59.9996 55 58.6328 55 56.9528V15.0465C55 13.3665 53.6332 11.9996 51.9531 11.9996Z" fill="#3558A2"/>
<path d="M17.0615 27.9996C17.3286 27.9996 17.5907 28.1073 17.7795 28.2962C17.9684 28.4861 18.0771 28.7471 18.0771 29.0142C18.0765 29.2838 17.9695 29.5422 17.7795 29.7333C17.5906 29.9222 17.3285 30.0309 17.0615 30.0309C16.7944 30.0309 16.5324 29.9222 16.3435 29.7333C16.1537 29.542 16.0468 29.2837 16.0459 29.0142C16.0471 28.7451 16.154 28.4873 16.3435 28.2962C16.5324 28.1073 16.7944 27.9996 17.0615 27.9996Z" fill="#3558A2"/>
<path d="M30.1254 46.297C29.7287 45.9005 29.0858 45.9004 28.689 46.297L25.9892 48.9969L24.7338 47.7415C24.3372 47.3449 23.6944 47.345 23.2975 47.7415C22.9008 48.1381 22.9008 48.7812 23.2975 49.1778L25.271 51.1513C25.4615 51.3417 25.7199 51.4487 25.9892 51.4487C26.2586 51.4487 26.5169 51.3417 26.7074 51.1513L30.1254 47.7333C30.522 47.3367 30.522 46.6936 30.1254 46.297Z" fill="#3558A2"/>
<path d="M30.185 38.297C29.7883 37.9005 29.1454 37.9004 28.7486 38.297L26.0487 40.9969L24.7934 39.7415C24.3968 39.3449 23.7539 39.345 23.357 39.7415C22.9604 40.1381 22.9604 40.7812 23.357 41.1778L25.3306 43.1513C25.5211 43.3417 25.7794 43.4487 26.0488 43.4487C26.3181 43.4487 26.5765 43.3417 26.767 43.1513L30.185 39.7333C30.5816 39.3367 30.5816 38.6936 30.185 38.297Z" fill="#3558A2"/>
<path fill-rule="evenodd" clip-rule="evenodd" d="M22.0156 19.9996H32.0156C32.5765 19.9996 33.0312 20.4543 33.0312 21.0153V30.984C33.0312 31.5449 32.5765 31.9996 32.0156 31.9996H22.0156C21.4548 31.9996 21 31.5449 21 30.984V21.0153C21 20.4543 21.4548 19.9996 22.0156 19.9996ZM31 29.9684H23.0312V22.0309H31V29.9684Z" fill="#3558A2"/>
<path d="M39.0156 20.9996H48.125C48.6858 20.9996 49.1406 21.4543 49.1406 22.0153C49.1406 22.5762 48.6858 23.0309 48.125 23.0309H39.0156C38.4548 23.0309 38 22.5762 38 22.0153C38 21.4543 38.4548 20.9996 39.0156 20.9996Z" fill="#E1000F"/>
<path d="M39.0156 28.9996H48.125C48.6858 28.9996 49.1406 29.4543 49.1406 30.0153C49.1406 30.5762 48.6858 31.0309 48.125 31.0309H39.0156C38.4548 31.0309 38 30.5762 38 30.0153C38 29.4543 38.4548 28.9996 39.0156 28.9996Z" fill="#E1000F"/>
<path d="M47.9756 38.9996H36.0244C35.4587 38.9996 35 39.4473 35 39.9996C35 40.5519 35.4587 40.9996 36.0244 40.9996H47.9756C48.5413 40.9996 49 40.5519 49 39.9996C49 39.4473 48.5413 38.9996 47.9756 38.9996Z" fill="#E1000F"/>
<path d="M47.9756 47.9996H36.0244C35.4587 47.9996 35 48.4473 35 48.9996C35 49.5519 35.4587 49.9996 36.0244 49.9996H47.9756C48.5413 49.9996 49 49.5519 49 48.9996C49 48.4473 48.5413 47.9996 47.9756 47.9996Z" fill="#E1000F"/>
<path d="M48.125 24.9996H39.0156C38.4548 24.9996 38 25.4543 38 26.0153C38 26.5762 38.4548 27.0309 39.0156 27.0309H48.125C48.6858 27.0309 49.1406 26.5762 49.1406 26.0153C49.1406 25.4543 48.6858 24.9996 48.125 24.9996Z" fill="#E1000F"/>
</svg>
