<svg width="72" height="72" viewBox="0 0 72 72" fill="none" xmlns="http://www.w3.org/2000/svg">
<rect y="-0.000366211" width="72" height="72" rx="36" fill="#F3F6FE"/>
<g clip-path="url(#clip0_3647_26745)">
<path fill-rule="evenodd" clip-rule="evenodd" d="M17.5078 38.541C17.5078 37.6333 18.4145 37.0051 19.2643 37.3238L25.1398 39.5275C26.2556 39.946 26.9762 40.9508 27.089 42.0571L32.2282 41.7595C32.5291 41.7421 32.9311 41.7587 33.3352 41.9382C33.5072 42.0146 33.6778 42.1058 33.8484 42.2092L32.8123 43.9199C32.7001 43.8519 32.6047 43.8022 32.5234 43.766C32.5262 43.7673 32.5165 43.7624 32.4863 43.7585C32.4549 43.7544 32.4089 43.7524 32.3438 43.7561L26.6432 44.0863L23.8713 50.9088L32.9321 58.0714C33.5605 58.5682 34.2716 58.9502 35.0327 59.2L35.5389 59.3661L33.0918 56.9568C32.6982 56.5693 32.6933 55.9362 33.0808 55.5426C33.4682 55.1491 34.1014 55.1442 34.4949 55.5316L37.8577 58.8424C38.2888 58.9555 38.7406 58.8692 39.0957 58.6232L35.8354 55.4133C35.4418 55.0259 35.4369 54.3927 35.8243 53.9991C36.2118 53.6056 36.845 53.6007 37.2385 53.9881L40.866 57.5595H40.93C41.4115 57.5595 41.8716 57.3861 42.2305 57.079L38.187 53.0981C37.7934 52.7106 37.7885 52.0775 38.176 51.6839C38.5634 51.2903 39.1966 51.2854 39.5901 51.6729L43.9169 55.9327L44.3118 55.855C44.5494 55.8082 44.7356 55.6231 44.7839 55.3857C44.8255 55.1806 44.7565 54.9672 44.6019 54.825C43.2592 53.5901 42.0387 52.473 40.9383 51.4658C38.7657 49.4774 37.0613 47.9174 35.8093 46.7248L37.1888 45.2766C38.4262 46.4555 40.1064 47.9932 42.2662 49.9699C43.3693 50.9795 44.5975 52.1037 45.9558 53.353C46.6255 53.9689 46.9251 54.8915 46.7438 55.7839C46.5349 56.8125 45.728 57.6145 44.6982 57.8173L44.1573 57.9238L44.1119 57.9834C43.3672 58.961 42.2151 59.5412 40.9884 59.559C40.1829 60.5804 38.8772 61.0662 37.6107 60.835L37.5212 60.9231C37.153 61.2856 36.657 61.4888 36.1402 61.4888C35.7778 61.4888 35.4177 61.4313 35.0734 61.3183L34.4091 61.1003C33.4246 60.7772 32.5047 60.283 31.6919 59.6404L22.9569 52.7354C22.3971 53.3816 21.5752 53.7713 20.6891 53.7713H18.8078C18.0898 53.7713 17.5078 53.1893 17.5078 52.4713V38.541ZM25.0282 42.7481C25.2457 42.2126 24.9786 41.6031 24.4374 41.4001L19.5078 39.5512V51.7713H20.6891C21.096 51.7713 21.4623 51.5248 21.6155 51.1478L25.0282 42.7481Z" fill="#3558A2"/>
<path fill-rule="evenodd" clip-rule="evenodd" d="M51.9985 41.1048L47.2694 42.9155C46.9658 43.0317 46.7377 43.2882 46.6577 43.6033L46.5955 43.8483L49.606 52.3696C49.9249 52.9509 50.5361 53.3144 51.2022 53.3144H51.9985V41.1048ZM47.4832 52.365L44.8059 44.7868L43.8617 44.6319C43.2442 44.5305 42.6393 44.3638 42.0571 44.1346L41.4426 43.8926C41.015 43.7241 40.6013 43.5221 40.2055 43.2883L39.7464 43.0171C38.1807 42.0922 36.2659 41.9761 34.5999 42.7051C34.4225 42.7828 34.2576 42.8865 34.1109 43.013L32.816 44.1284C31.9469 44.8771 31.2684 45.8219 30.8367 46.8847L30.8351 46.8898L30.7575 47.2718C30.7051 47.5296 30.8726 47.7809 31.1308 47.8317L31.2004 47.8454C31.3172 47.8684 31.438 47.861 31.5511 47.8239L31.9648 47.6881C32.0427 47.6625 32.1136 47.6193 32.172 47.5618L32.8831 46.8617C33.4045 46.3484 34.0547 45.9851 34.7652 45.8103C35.1315 45.7201 35.4763 45.5583 35.7798 45.3342L36.727 44.6348L37.915 46.2437L36.9678 46.9432C36.452 47.324 35.8658 47.599 35.2432 47.7523C34.882 47.8412 34.5514 48.0259 34.2863 48.2869L33.5752 48.987C33.297 49.2608 32.9593 49.4667 32.5884 49.5884L32.1748 49.7241C31.7358 49.8682 31.2672 49.897 30.814 49.8077L30.7444 49.794C29.3979 49.5289 28.5243 48.2185 28.7976 46.8736L28.8752 46.4916C28.9001 46.3686 28.9365 46.2482 28.9838 46.1319C29.535 44.7751 30.4012 43.569 31.5107 42.6131L32.8055 41.4977C33.1034 41.2411 33.438 41.0305 33.7982 40.8728C36.053 39.8862 38.6446 40.0433 40.7636 41.2951L41.2227 41.5663C41.5275 41.7464 41.8461 41.902 42.1755 42.0317L42.79 42.2737C43.2402 42.451 43.708 42.5799 44.1855 42.6583L44.8301 42.764C45.1345 41.9794 45.7579 41.3526 46.5543 41.0477L52.5052 38.7693C53.2254 38.4935 53.9985 39.0253 53.9985 39.7965V54.2144C53.9985 54.8219 53.506 55.3144 52.8985 55.3144H51.2022C50.1419 55.3144 49.1478 54.8754 48.4375 54.131L46.8843 55.1504L45.7868 53.4784L47.4832 52.365Z" fill="#3558A2"/>
<path fill-rule="evenodd" clip-rule="evenodd" d="M31.2735 16.8834C31.2735 16.4692 31.6093 16.1334 32.0235 16.1334H41.031C41.4453 16.1334 41.781 16.4692 41.781 16.8834C41.781 17.2976 41.4453 17.6334 41.031 17.6334H32.0235C31.6093 17.6334 31.2735 17.2976 31.2735 16.8834ZM31.2734 20.9759C31.2734 20.5616 31.6092 20.2259 32.0234 20.2259H41.0309C41.4451 20.2259 41.7809 20.5616 41.7809 20.9759C41.7809 21.3901 41.4451 21.7259 41.0309 21.7259H32.0234C31.6092 21.7259 31.2734 21.3901 31.2734 20.9759ZM31.2734 25.0683C31.2734 24.6541 31.6092 24.3183 32.0234 24.3183H41.0309C41.4451 24.3183 41.7809 24.6541 41.7809 25.0683C41.7809 25.4825 41.4451 25.8183 41.0309 25.8183H32.0234C31.6092 25.8183 31.2734 25.4825 31.2734 25.0683ZM31.2734 31.8687C31.2734 31.4545 31.6092 31.1187 32.0234 31.1187H36.0862C36.5004 31.1187 36.8362 31.4545 36.8362 31.8687C36.8362 32.2829 36.5004 32.6187 36.0862 32.6187H32.0234C31.6092 32.6187 31.2734 32.2829 31.2734 31.8687Z" fill="#3558A2"/>
<path fill-rule="evenodd" clip-rule="evenodd" d="M26.4922 12.9996C26.4922 11.8951 27.3876 10.9996 28.4922 10.9996H44.043C45.1476 10.9996 46.043 11.8951 46.043 12.9996V25.446C46.043 25.9983 45.5953 26.446 45.043 26.446C44.4907 26.446 44.043 25.9983 44.043 25.446V12.9996H28.4922V35.554L44.043 35.554V34.8001C44.043 34.2478 44.4907 33.8001 45.043 33.8001C45.5953 33.8001 46.043 34.2478 46.043 34.8001V35.554C46.043 36.6585 45.1476 37.554 44.043 37.554H28.4922C27.3876 37.554 26.4922 36.6585 26.4922 35.554V12.9996Z" fill="#E1000F"/>
<path fill-rule="evenodd" clip-rule="evenodd" d="M49.1114 26.6977C49.3884 27.0057 49.3633 27.4799 49.0553 27.7569L45.2266 31.2003C44.8872 31.5056 44.3673 31.4882 44.049 31.161L42.1659 29.2255C41.8771 28.9286 41.8836 28.4538 42.1805 28.165C42.4774 27.8761 42.9522 27.8827 43.2411 28.1795L44.6883 29.6671L48.0522 26.6416C48.3602 26.3646 48.8344 26.3897 49.1114 26.6977Z" fill="#E1000F"/>
</g>
<defs>
<clipPath id="clip0_3647_26745">
<rect width="52" height="52" fill="white" transform="translate(10 9.99963)"/>
</clipPath>
</defs>
</svg>
