<svg width="72" height="72" viewBox="0 0 72 72" fill="none" xmlns="http://www.w3.org/2000/svg">
<rect y="-0.000366211" width="72" height="72" rx="36" fill="#F3F6FE"/>
<path fill-rule="evenodd" clip-rule="evenodd" d="M26 11.9996L15 22.9997L15.0001 24.9997C15 25.9996 15.3976 25.9996 16.0765 25.9996H25.7692C27.5535 25.9996 29 24.6565 29 22.9997V14L48 13.9996C48.5523 13.9996 49 14.4473 49 14.9996V41.9996H51V14.9996C51 13.3428 49.6569 11.9996 48 11.9996H26ZM25.7692 23.9997H17L27 14V22.9997C27 23.552 26.364 23.9997 25.7692 23.9997Z" fill="#3558A2"/>
<path d="M36 59.9996V57.9996H18C17.4477 57.9996 17 57.5519 17 56.9996V33.9996C17 33.9996 17 32.9996 16 32.9996C15 32.9996 15 33.9996 15 33.9996V56.9996C15 58.6565 16.3431 59.9996 18 59.9996H36Z" fill="#3558A2"/>
<path d="M16 29.9996C16.5523 29.9996 17 29.5519 17 28.9996C17 28.4473 16.5523 27.9996 16 27.9996C15.4477 27.9996 15 28.4473 15 28.9996C15 29.5519 15.4477 29.9996 16 29.9996Z" fill="#3558A2"/>
<path d="M34.0526 22.9996C33.4713 22.9996 33 23.4473 33 23.9996C33 24.5519 33.4713 24.9996 34.0526 24.9996H41.9474C42.5287 24.9996 43 24.5519 43 23.9996C43 23.4473 42.5287 22.9996 41.9474 22.9996H34.0526Z" fill="#E1000F"/>
<path d="M23 29.9996C23 29.4473 23.4713 28.9996 24.0526 28.9996H41.9474C42.5287 28.9996 43 29.4473 43 29.9996C43 30.5519 42.5287 30.9996 41.9474 30.9996H24.0526C23.4713 30.9996 23 30.5519 23 29.9996Z" fill="#E1000F"/>
<path fill-rule="evenodd" clip-rule="evenodd" d="M42.5565 46.0437H43.8646L59.4728 54.9582C60.0975 55.3149 60.5578 55.9017 60.7555 56.5931L60.878 57.0216C61.4478 59.0152 59.9502 60.9996 57.8758 60.9996C57.0183 60.9996 56.1799 60.7459 55.4663 60.2705L40.1447 50.0613L42.5565 46.0437ZM43.5152 47.8768L42.5251 49.5263L56.4458 58.802C56.8693 59.0842 57.3669 59.2348 57.8758 59.2348C58.7771 59.2348 59.4278 58.3726 59.1802 57.5065L59.0577 57.078C58.9867 56.8295 58.8212 56.6187 58.5968 56.4905L43.5152 47.8768Z" fill="#E1000F"/>
<path fill-rule="evenodd" clip-rule="evenodd" d="M35.0273 36.2431C34.7435 35.1086 35.5994 33.9996 36.7771 33.9996C37.2997 33.9996 37.8114 34.1498 38.2511 34.4323L45.473 39.0726C45.7969 39.2808 46.0811 39.545 46.3122 39.8529L46.3669 39.9259C47.3216 41.1981 46.5303 42.9795 45.0296 43.198C44.9517 43.7782 44.7953 44.3464 44.5636 44.8868L44.4183 45.2256C43.6439 47.0317 42.6564 48.7388 41.4768 50.3108L40.5159 51.5913C40.0394 52.2263 39.4484 52.7645 38.775 53.1791V53.603C38.775 54.448 38.2341 55.1981 37.4321 55.4653C36.5575 55.7567 35.5979 55.6364 34.8224 55.1381L28.4205 51.0247C27.7429 50.5893 27.2568 49.912 27.0614 49.1308C26.7422 47.8545 27.7076 46.618 29.0237 46.6172C29.1283 45.6545 29.4036 44.7157 29.8389 43.8455L29.9332 43.6569C30.9146 41.6953 32.1196 39.8537 33.5243 38.1688C33.9901 37.6102 34.5397 37.1283 35.1515 36.7399L35.0273 36.2431ZM36.1384 38.2044C35.6644 38.4994 35.2392 38.8688 34.8808 39.2987C33.5632 40.879 32.433 42.6063 31.5126 44.4462L31.4182 44.6347C31.0436 45.3835 30.8202 46.197 30.7589 47.029L37.9213 51.631C38.3765 51.3388 38.7772 50.9671 39.1034 50.5324L40.0642 49.2519C41.1594 47.7924 42.0763 46.2073 42.7953 44.5304L42.9406 44.1916C43.1302 43.7494 43.2505 43.2816 43.2981 42.8047L36.1384 38.2044ZM37.0093 53.1431L29.5994 48.382H29.025C28.857 48.382 28.7337 48.5399 28.7744 48.7028C28.8608 49.0482 29.0757 49.3477 29.3754 49.5402L35.7772 53.6536C36.1031 53.8629 36.5062 53.9135 36.8737 53.791C36.9547 53.7641 37.0093 53.6883 37.0093 53.603V53.1431ZM36.9424 36.6229L44.4634 41.4555H44.7189C44.9614 41.4555 45.0999 41.1787 44.9544 40.9848L44.8996 40.9118C44.7946 40.7719 44.6654 40.6518 44.5181 40.5571L37.2962 35.9169C37.1414 35.8174 36.9612 35.7645 36.7771 35.7645C36.7682 35.7645 36.7642 35.7661 36.7618 35.7674C36.7582 35.7692 36.753 35.7729 36.7481 35.7792C36.7432 35.7856 36.7405 35.7919 36.7394 35.7968C36.7386 35.8005 36.738 35.8057 36.7403 35.8151L36.9424 36.6229Z" fill="#E1000F"/>
</svg>
