<svg width="72" height="72" viewBox="0 0 72 72" fill="none" xmlns="http://www.w3.org/2000/svg">
<rect y="-0.000366211" width="72" height="72" rx="36" fill="#F3F6FE"/>
<g clip-path="url(#clip0_3647_37529)">
<path d="M53.8475 9.99963H23.448C19.8925 9.99963 17 12.8923 17 16.4478V55.5514C17 59.107 19.8926 61.9996 23.4482 61.9996H53.8476C54.4859 61.9996 55.0033 61.4823 55.0033 60.844C55.0033 60.8195 55.0011 60.7955 54.9997 60.7713C55.0012 60.7472 55.0033 60.7233 55.0033 60.6987V11.1553C55.0032 10.517 54.4857 9.99963 53.8475 9.99963ZM22 59.9996C20.2797 59.498 19 57.4314 19 55.5515L18.9999 20.9996C19.5 21.9996 20.5901 22.7075 22 22.9076V59.9996ZM23.448 20.9996C21.167 20.9996 18.9999 18.7287 18.9999 16.4478C18.9999 14.1669 21.1671 11.9996 23.448 11.9996H50.5C49 11.9996 47 14.4996 47 16.4996C47 18.4996 49.5 20.9996 51 20.9996H23.448ZM45 23.0133V29.6765L43.6896 28.6316C43.49 28.483 43.2478 28.4027 42.9989 28.4028C42.7501 28.4029 42.5079 28.4833 42.3085 28.6321L40.9646 29.675V22.9996L45 23.0133ZM53 59.9859L24 59.9996V23.0133H39V31.9922C39 32.2066 39.0596 32.4167 39.1721 32.5992C39.2847 32.7817 39.4458 32.9292 39.6374 33.0253C39.8291 33.1214 40.0437 33.1624 40.2572 33.1435C40.4708 33.1247 40.6749 33.0468 40.8467 32.9185L43 30.9996L45.154 32.8911C45.3259 33.0192 45.5299 33.0969 45.7435 33.1156C45.957 33.1343 46.1715 33.0933 46.363 32.9972C46.5545 32.901 46.7155 32.7534 46.828 32.571C46.9405 32.3886 47.0001 32.1785 47 31.9641V22.9996H53V59.9859ZM53 20.4055C52 20.4055 48.5 19.3959 48.5 16.4478C48.5 13.4997 52 12.4996 52.9999 12.4627L53 20.4055Z" fill="#3558A2"/>
<path d="M30 41.9996C30 41.4473 30.4477 40.9996 31 40.9996H46C46.5523 40.9996 47 41.4473 47 41.9996C47 42.5519 46.5523 42.9996 46 42.9996H31C30.4477 42.9996 30 42.5519 30 41.9996Z" fill="#E1000F"/>
<path d="M28 46.9996C28 46.4473 28.4477 45.9996 29 45.9996H48C48.5523 45.9996 49 46.4473 49 46.9996C49 47.5519 48.5523 47.9996 48 47.9996H29C28.4477 47.9996 28 47.5519 28 46.9996Z" fill="#E1000F"/>
</g>
<defs>
<clipPath id="clip0_3647_37529">
<rect width="52" height="52" fill="white" transform="translate(10 9.99963)"/>
</clipPath>
</defs>
</svg>
