<svg width="72" height="72" viewBox="0 0 72 72" fill="none" xmlns="http://www.w3.org/2000/svg">
<rect y="-0.000366211" width="72" height="72" rx="36" fill="#F3F6FE"/>
<path d="M36.2745 21.9996L35.7255 23.6467H34.0784L35.1764 24.7447L34.6274 26.3918L36.2745 25.2937L37.9215 26.3918L37.3725 24.7447L38.4706 23.6467H36.8235L36.2745 21.9996Z" fill="#E1000F"/>
<path d="M46.1569 40.1173L45.6078 41.7643H43.9608L45.0588 42.8624L44.5098 44.5094L46.1569 43.4114L47.8039 44.5094L47.2549 42.8624L48.3529 41.7643H46.7059L46.1569 40.1173Z" fill="#E1000F"/>
<path d="M29.6863 23.6467L29.1373 25.2937H27.4902L28.5882 26.3918L28.0392 28.0388L29.6863 26.9408L31.3333 28.0388L30.7843 26.3918L31.8824 25.2937H30.2353L29.6863 23.6467Z" fill="#E1000F"/>
<path d="M25.8432 28.0389L25.2942 29.686H23.6471L24.7451 30.784L24.1961 32.4311L25.8432 31.3331L27.4902 32.4311L26.9412 30.784L28.0393 29.686H26.3922L25.8432 28.0389Z" fill="#E1000F"/>
<path d="M24.1961 34.0777L23.6471 35.7247H22L23.098 36.8228L22.549 38.4698L24.1961 37.3718L25.8431 38.4698L25.2941 36.8228L26.3921 35.7247H24.7451L24.1961 34.0777Z" fill="#E1000F"/>
<path d="M25.8432 40.1173L25.2942 41.7643H23.6471L24.7451 42.8624L24.1961 44.5094L25.8432 43.4114L27.4902 44.5094L26.9412 42.8624L28.0393 41.7643H26.3922L25.8432 40.1173Z" fill="#E1000F"/>
<path d="M30.2353 43.9605L29.6863 45.6075H28.0392L29.1372 46.7055L28.5882 48.3526L30.2353 47.2546L31.8823 48.3526L31.3333 46.7055L32.4314 45.6075H30.7843L30.2353 43.9605Z" fill="#E1000F"/>
<path d="M36.2745 45.6075L35.7255 47.2545H34.0784L35.1764 48.3526L34.6274 49.9996L36.2745 48.9016L37.9215 49.9996L37.3725 48.3526L38.4706 47.2545H36.8235L36.2745 45.6075Z" fill="#E1000F"/>
<path d="M41.7647 43.9605L41.2157 45.6075H39.5686L40.6666 46.7055L40.1176 48.3526L41.7647 47.2546L43.4117 48.3526L42.8627 46.7055L43.9608 45.6075H42.3137L41.7647 43.9605Z" fill="#E1000F"/>
<path d="M47.8039 34.0777L47.2549 35.7247H45.6078L46.7059 36.8228L46.1569 38.4698L47.8039 37.3718L49.451 38.4698L48.902 36.8228L50 35.7247H48.3529L47.8039 34.0777Z" fill="#E1000F"/>
<path d="M46.1569 28.0389L45.6078 29.686H43.9608L45.0588 30.784L44.5098 32.4311L46.1569 31.3331L47.8039 32.4311L47.2549 30.784L48.3529 29.686H46.7059L46.1569 28.0389Z" fill="#E1000F"/>
<path d="M42.3137 23.6467L41.7647 25.2937H40.1176L41.2157 26.3918L40.6667 28.0388L42.3137 26.9408L43.9608 28.0388L43.4118 26.3918L44.5098 25.2937H42.8627L42.3137 23.6467Z" fill="#E1000F"/>
<path d="M51.9531 11.9996H19.0469C17.3668 11.9996 16 13.3665 16 15.0465V24.9996C16 25.5606 16.4548 25.9996 17.0156 25.9996C17.5765 25.9996 18.0312 25.5606 18.0312 24.9996V15.0465C18.0312 14.4865 18.4869 14.0309 19.0469 14.0309H51.9531C52.5131 14.0309 52.9688 14.4865 52.9688 15.0465V56.9528C52.9688 57.5128 52.5131 57.9684 51.9531 57.9684H19.0469C18.4869 57.9684 18.0312 57.5128 18.0312 56.9528V33.971C18.0312 33.41 17.5765 32.9553 17.0156 32.9553C16.4548 32.9553 16 33.41 16 33.971V56.9528C16 58.6328 17.3668 59.9996 19.0469 59.9996H51.9531C53.6332 59.9996 55 58.6328 55 56.9528V15.0465C55 13.3665 53.6332 11.9996 51.9531 11.9996Z" fill="#3558A2"/>
<path d="M17.0615 27.9996C17.3286 27.9996 17.5907 28.1073 17.7795 28.2962C17.9684 28.4861 18.0771 28.7471 18.0771 29.0142C18.0765 29.2838 17.9695 29.5422 17.7795 29.7333C17.5906 29.9222 17.3285 30.0309 17.0615 30.0309C16.7944 30.0309 16.5324 29.9222 16.3435 29.7333C16.1537 29.542 16.0468 29.2837 16.0459 29.0142C16.0471 28.7451 16.154 28.4873 16.3435 28.2962C16.5324 28.1073 16.7944 27.9996 17.0615 27.9996Z" fill="#3558A2"/>
</svg>
