<svg width="72" height="72" viewBox="0 0 72 72" fill="none" xmlns="http://www.w3.org/2000/svg">
<rect y="-0.000366211" width="72" height="72" rx="36" fill="#F3F6FE"/>
<path fill-rule="evenodd" clip-rule="evenodd" d="M23.277 18.1843C21.778 19.6874 20.8186 21.6223 19.1608 23.0021C18.6864 23.3976 18.1708 23.7553 17.661 24.2716C18.0798 21.3057 20.0574 18.5734 23.2738 18.1843H23.277Z" fill="#3558A2"/>
<path fill-rule="evenodd" clip-rule="evenodd" d="M48.7236 18.1843C50.2227 19.6874 51.182 21.6223 52.8366 23.0021C53.311 23.3976 53.8266 23.7553 54.3365 24.2716C53.9176 21.3057 51.94 18.5734 48.7236 18.1843Z" fill="#3558A2"/>
<path fill-rule="evenodd" clip-rule="evenodd" d="M19.119 20.1591C16.8973 21.3433 17.317 24.2069 16.5413 25.9992L16.613 26.0128C17.35 24.2407 20.1992 23.8202 21.0135 21.804C20.958 25.5521 17.081 26.2545 15.507 29.1342C15.4047 25.8139 14.6781 21.3263 19.119 20.1591Z" fill="#3558A2"/>
<path fill-rule="evenodd" clip-rule="evenodd" d="M52.8824 20.1599C55.104 21.3441 54.6843 24.2077 55.46 26L55.3883 26.0137C54.6513 24.2415 51.8022 23.821 50.9878 21.8048C51.0434 25.5529 54.9203 26.2553 56.4943 29.135C56.5958 25.8139 57.3224 21.3263 52.8816 20.1591L52.8824 20.1599Z" fill="#3558A2"/>
<path fill-rule="evenodd" clip-rule="evenodd" d="M15.2386 23.4154C14.0425 25.5999 15.3192 27.7563 14.8794 31.39C14.8979 31.4093 14.8979 31.4746 14.9688 31.4512C15.6607 28.2871 18.2932 27.7748 18.9843 26.1928C18.5099 29.7798 15.3361 31.568 14.7876 34.8215C14.6353 33.1348 10.8735 27.621 15.2386 23.417V23.4154Z" fill="#3558A2"/>
<path fill-rule="evenodd" clip-rule="evenodd" d="M56.7628 23.4154C57.959 25.5999 56.6823 27.7563 57.1221 31.39C57.1036 31.4093 57.1036 31.4746 57.0327 31.4512C56.3407 28.2871 53.7083 27.7748 53.0172 26.1928C53.4924 29.7798 56.6654 31.568 57.2139 34.8215C57.3662 33.1348 61.1279 27.621 56.7628 23.417V23.4154Z" fill="#3558A2"/>
<path fill-rule="evenodd" clip-rule="evenodd" d="M12.7309 29.4739C12.2572 31.7873 14.4225 34.5164 14.971 37.6974C15.0097 37.7119 15.0371 37.6781 15.0516 37.6523C14.8679 35.1963 15.5784 34.0194 16.8358 32.1949C17.1419 31.6971 17.3191 31.1477 17.4722 30.5839C18.0924 31.4176 17.5012 33.2421 16.8543 35.5322C16.396 37.1464 15.7419 38.5158 15.9223 40.9195C15.1273 39.9529 12.7655 37.0474 12.5472 35.9196C11.852 33.7447 11.7224 31.5698 12.7309 29.4755V29.4739Z" fill="#3558A2"/>
<path fill-rule="evenodd" clip-rule="evenodd" d="M59.2707 29.4739C59.7444 31.7873 57.5792 34.5164 57.0306 37.6974C56.9919 37.7119 56.9646 37.6781 56.9501 37.6523C57.1337 35.1963 56.4232 34.0194 55.1658 32.1949C54.8597 31.6971 54.6825 31.1477 54.5295 30.5839C53.9092 31.4176 54.5005 33.2421 55.1473 35.5322C55.604 37.1472 56.2581 38.5126 56.0777 40.9187C56.8727 39.9521 59.2345 37.0466 59.4528 35.9188C60.148 33.7439 60.2776 31.569 59.2691 29.4747L59.2707 29.4739Z" fill="#3558A2"/>
<path fill-rule="evenodd" clip-rule="evenodd" d="M12.1336 36.5172C12.4341 39.1327 15.7029 41.1208 17.0956 43.5252C17.1351 43.5397 17.1488 43.5067 17.152 43.4825C15.7778 40.6117 17.3566 38.4738 17.3027 36.0806C18.9636 39.7393 17.5927 42.4241 19.4921 46.492C14.7194 43.9755 11.4014 41.0418 12.1336 36.5172Z" fill="#3558A2"/>
<path fill-rule="evenodd" clip-rule="evenodd" d="M59.8671 36.5162C59.5666 39.1317 56.2978 41.1197 54.9051 43.5242C54.8656 43.5387 54.8519 43.5057 54.8487 43.4815C56.2221 40.609 54.6449 38.472 54.6981 36.0788C53.0371 39.7382 54.4081 42.423 52.5087 46.4909C57.2814 43.9769 60.5993 41.0432 59.8671 36.5186V36.5162Z" fill="#3558A2"/>
<path fill-rule="evenodd" clip-rule="evenodd" d="M13.6189 42.9919C14.0216 43.9352 15.0503 44.901 16.4019 45.6952C18.1137 46.6989 19.8012 47.0445 21.3962 48.5685C19.8697 46.7601 19.5636 45.141 18.8547 40.7856C20.1387 42.0229 20.8685 43.5767 21.513 45.3771C22.1171 47.0686 22.4522 48.9842 24.1043 50.3713C22.8638 49.8654 20.2185 49.8155 18.0412 48.7514C15.7197 47.6188 14.078 45.4439 13.6189 42.9919Z" fill="#3558A2"/>
<path fill-rule="evenodd" clip-rule="evenodd" d="M58.3817 42.9919C57.9789 43.9352 56.9503 44.901 55.5986 45.6952C53.8869 46.6989 52.1993 47.0445 50.6044 48.5685C52.1349 46.7601 52.437 45.141 53.1466 40.7856C51.8626 42.0229 51.1328 43.5767 50.4884 45.3771C49.8843 47.0686 49.5492 48.9842 47.8971 50.3713C49.1376 49.8654 51.7829 49.8155 53.9602 48.7514C56.2777 47.6188 57.9193 45.4439 58.3785 42.9919H58.3817Z" fill="#3558A2"/>
<path fill-rule="evenodd" clip-rule="evenodd" d="M17.1172 48.7244C19.6465 51.3585 23.9408 50.4474 26.2735 51.0395C23.7764 49.9118 23.1175 47.7014 22.08 45.7134C24.6134 46.6913 25.9223 50.6271 30.422 51.3778C28.0505 51.6758 25.1458 53.4174 21.3196 52.425C19.4121 51.8144 18.0637 50.6424 17.1164 48.726L17.1172 48.7244Z" fill="#3558A2"/>
<path fill-rule="evenodd" clip-rule="evenodd" d="M54.8835 48.7244C52.3542 51.3585 48.06 50.4474 45.7272 51.0395C48.2243 49.9118 48.8832 47.7014 49.9207 45.7134C47.3874 46.6913 46.0784 50.6271 41.5788 51.3778C43.9502 51.6758 46.8549 53.4174 50.6811 52.425C52.5886 51.8144 53.937 50.6424 54.8843 48.726L54.8835 48.7244Z" fill="#3558A2"/>
<path fill-rule="evenodd" clip-rule="evenodd" d="M48.195 54.9079C45.6697 55.8681 42.9801 55.0465 41.0025 53.516C40.1043 52.9248 38.3902 51.727 37.1553 52.0717C39.0733 52.9819 40.6819 54.1661 42.3195 55.7666C42.0408 56.0824 41.626 56.4255 41.2925 56.6986C39.7241 54.9692 37.9746 53.4435 36.0252 52.4753C34.4069 53.1318 31.8228 55.3405 30.7418 56.7091L29.66 55.7545C31.2863 54.092 32.9248 53.0408 34.883 52.112C33.0053 51.6714 31.9565 52.8829 30.5863 53.8084C28.8867 55.0111 26.2051 55.8407 24.1422 55.0167C23.0418 54.5833 21.869 53.9244 21.115 52.8603C22.7261 53.9953 25.7806 53.7754 27.6148 53.0424C30.0845 51.9469 32.588 50.5525 36.0179 51.6633C38.6286 50.7772 41.1572 51.4047 43.5165 52.6879C46.0064 53.7762 48.2772 54.2442 50.8572 52.8829C50.0517 53.9091 49.3364 54.5044 48.199 54.9136L48.195 54.9079Z" fill="#3558A2"/>
<path fill-rule="evenodd" clip-rule="evenodd" d="M36 19.9996C43.732 19.9996 50 26.2676 50 33.9996C50 41.7316 43.732 47.9996 36 47.9996C28.268 47.9996 22 41.7316 22 33.9996C22 31.8073 22.5032 29.7354 23.3995 27.8904C23.6408 27.3936 23.4337 26.7953 22.937 26.554C22.4402 26.3126 21.8419 26.5197 21.6005 27.0165C20.5748 29.1278 20 31.498 20 33.9996C20 42.8362 27.1634 49.9996 36 49.9996C44.8366 49.9996 52 42.8362 52 33.9996C52 25.1631 44.8366 17.9996 36 17.9996C33.5179 17.9996 31.1651 18.5655 29.0661 19.5763C28.5685 19.8159 28.3594 20.4136 28.599 20.9112C28.8386 21.4088 29.4363 21.6179 29.9339 21.3783C31.7679 20.495 33.8247 19.9996 36 19.9996Z" fill="#E1000F"/>
<path d="M25 22.9996C25 23.5519 25.4477 23.9996 26 23.9996C26.5523 23.9996 27 23.5519 27 22.9996C27 22.4473 26.5523 21.9996 26 21.9996C25.4477 21.9996 25 22.4473 25 22.9996Z" fill="#E1000F"/>
</svg>
