<svg width="72" height="72" viewBox="0 0 72 72" fill="none" xmlns="http://www.w3.org/2000/svg">
<rect y="-0.000366211" width="72" height="72" rx="36" fill="#F3F6FE"/>
<path d="M15 24.1169C13.8954 24.1169 13 25.0124 13 26.1169V45.6203C13 46.7249 13.8954 47.6203 15 47.6203H19.9346V45.6203H15V26.1169L28.3763 26.1169V27.9998H30.3763V26.1169C30.3763 25.0124 29.4809 24.1169 28.3763 24.1169H15Z" fill="#E1000F"/>
<path fill-rule="evenodd" clip-rule="evenodd" d="M16.9375 30.7389C16.9375 30.3307 17.2343 29.9998 17.6004 29.9998H24.2746C24.6407 29.9998 24.9375 30.3307 24.9375 30.7389C24.9375 31.1472 24.6407 31.4781 24.2746 31.4781H17.6004C17.2343 31.4781 16.9375 31.1472 16.9375 30.7389ZM16.9375 33.9622C16.9375 33.554 17.2343 33.223 17.6004 33.223H24.2746C24.6407 33.223 24.9375 33.554 24.9375 33.9622C24.9375 34.3705 24.6407 34.7014 24.2746 34.7014H17.6004C17.2343 34.7014 16.9375 34.3705 16.9375 33.9622ZM16.9375 38.2606C16.9375 37.8524 17.2343 37.5214 17.6004 37.5214H20.5099C20.876 37.5214 21.1728 37.8524 21.1728 38.2606C21.1728 38.6688 20.876 38.9998 20.5099 38.9998H17.6004C17.2343 38.9998 16.9375 38.6688 16.9375 38.2606Z" fill="#3558A2"/>
<path fill-rule="evenodd" clip-rule="evenodd" d="M34.2366 41.6503C37.205 41.6503 39.691 39.1736 39.691 36.0189C39.691 32.8642 37.205 30.3875 34.2366 30.3875C31.2683 30.3875 28.7823 32.8642 28.7823 36.0189C28.7823 39.1736 31.2683 41.6503 34.2366 41.6503ZM34.2366 43.6503C38.3535 43.6503 41.691 40.2336 41.691 36.0189C41.691 31.8042 38.3535 28.3875 34.2366 28.3875C30.1197 28.3875 26.7823 31.8042 26.7823 36.0189C26.7823 40.2336 30.1197 43.6503 34.2366 43.6503Z" fill="#3558A2"/>
<path fill-rule="evenodd" clip-rule="evenodd" d="M22.7607 45.3826C24.7674 43.6216 27.3461 42.6506 30.016 42.6506H38.4586C41.1284 42.6506 43.7072 43.6216 45.7139 45.3826L45.9968 45.6308C46.4728 46.0485 46.8894 46.5294 47.235 47.0601C48.4397 48.9101 49.081 51.0703 49.081 53.278V59.9135H19.3936V53.174C19.3936 51.0341 20.0152 48.9404 21.1829 47.1472C21.5661 46.5587 22.0281 46.0254 22.556 45.5622L22.7607 45.3826ZM30.016 44.6506C27.8316 44.6506 25.7217 45.4451 24.0798 46.8859L23.8751 47.0655C23.4844 47.4083 23.1425 47.803 22.8588 48.2386C21.9026 49.707 21.3936 51.4216 21.3936 53.174V57.9135H47.081V53.278C47.081 51.4578 46.5523 49.6768 45.559 48.1515C45.313 47.7737 45.0165 47.4314 44.6777 47.1341L44.3948 46.8859C42.7529 45.4451 40.643 44.6506 38.4586 44.6506H30.016Z" fill="#3558A2"/>
<path fill-rule="evenodd" clip-rule="evenodd" d="M32.7139 42.3957L34.2377 42.6785L35.7615 42.3957L37.882 53.821L34.2377 56.8057L30.5935 53.821L32.7139 42.3957ZM34.2377 44.0493L32.5575 53.1029L34.2377 54.479L35.918 53.1029L34.2377 44.0493Z" fill="#3558A2"/>
<path fill-rule="evenodd" clip-rule="evenodd" d="M48.659 14.9997C47.4804 14.9997 46.319 15.2825 45.2724 15.8244L44.77 16.0845C43.9567 16.5056 43.2679 17.1324 42.7721 17.9025C42.2272 18.7489 41.9375 19.7342 41.9375 20.7408V20.9931C41.9375 21.9997 42.2272 22.985 42.7721 23.8314C43.2679 24.6015 43.9567 25.2282 44.77 25.6493L45.5128 26.0339C46.2976 26.4403 46.6862 27.3442 46.441 28.1933L46.3665 28.4513L47.8413 27.3664C48.4218 26.9394 49.1068 26.6771 49.824 26.6073L52.2605 26.3701C52.9871 26.2994 53.6984 26.1171 54.3695 25.8296L55.0081 25.556C55.8941 25.1763 56.6464 24.5404 57.1683 23.7298C57.6705 22.9498 57.9375 22.0416 57.9375 21.1139V20.8669C57.9375 19.778 57.6241 18.712 57.0346 17.7964L56.9324 17.6378C56.5216 16.9997 55.9886 16.4492 55.3641 16.018C54.4035 15.3549 53.2638 14.9997 52.0966 14.9997H48.659ZM44.3528 14.0484C45.6836 13.3593 47.1603 12.9997 48.659 12.9997H52.0966C53.6698 12.9997 55.2057 13.4784 56.5003 14.3721C57.342 14.9532 58.0604 15.6951 58.6141 16.5552L58.7162 16.7138C59.5135 17.9523 59.9375 19.394 59.9375 20.8669V21.1139C59.9375 22.4256 59.5599 23.7095 58.8499 24.8125C58.1121 25.9584 57.0485 26.8576 55.7957 27.3943L55.1571 27.6679C54.2971 28.0364 53.3855 28.2701 52.4543 28.3607L50.0178 28.5979C49.6592 28.6328 49.3167 28.764 49.0265 28.9775L45.4194 31.6309C44.5733 32.2534 43.4194 31.449 43.7108 30.4397L44.486 27.7545L43.8504 27.4254C42.7269 26.8437 41.7753 25.9778 41.0905 24.914C40.3378 23.7448 39.9375 22.3836 39.9375 20.9931V20.7408C39.9375 19.3502 40.3378 17.9891 41.0905 16.8199C41.7753 15.7561 42.7269 14.8902 43.8504 14.3085L44.3528 14.0484Z" fill="#E1000F"/>
<path d="M47.1532 20.587C47.1532 21.1891 46.6765 21.6772 46.0883 21.6772C45.5002 21.6772 45.0234 21.1891 45.0234 20.587C45.0234 19.9849 45.5002 19.4968 46.0883 19.4968C46.6765 19.4968 47.1532 19.9849 47.1532 20.587Z" fill="#3558A2"/>
<path d="M55.6738 20.587C55.6738 21.1891 55.197 21.6772 54.6088 21.6772C54.0207 21.6772 53.5439 21.1891 53.5439 20.587C53.5439 19.9849 54.0207 19.4968 54.6088 19.4968C55.197 19.4968 55.6738 19.9849 55.6738 20.587Z" fill="#3558A2"/>
<path d="M51.414 20.587C51.414 21.1891 50.9372 21.6772 50.3491 21.6772C49.761 21.6772 49.2842 21.1891 49.2842 20.587C49.2842 19.9849 49.761 19.4968 50.3491 19.4968C50.9372 19.4968 51.414 19.9849 51.414 20.587Z" fill="#3558A2"/>
</svg>
