<?xml version="1.0" encoding="UTF-8"?>
<svg width="242px" height="179px" viewBox="0 0 242 179" version="1.1" xmlns="http://www.w3.org/2000/svg" xmlns:xlink="http://www.w3.org/1999/xlink">
    <title>illustration</title>
    <defs>
        <linearGradient x1="49.9987036%" y1="99.9974619%" x2="49.9987036%" y2="-0.00636991182%" id="linearGradient-1">
            <stop stop-color="#808080" stop-opacity="0.25" offset="0%"></stop>
            <stop stop-color="#808080" stop-opacity="0.12" offset="54%"></stop>
            <stop stop-color="#808080" stop-opacity="0.1" offset="100%"></stop>
        </linearGradient>
    </defs>
    <g id="Design" stroke="none" stroke-width="1" fill="none" fill-rule="evenodd">
        <g id="DA---Homepage" transform="translate(-196.000000, -1202.000000)">
            <g id="illustration" transform="translate(196.000000, 1202.000000)">
                <g id="Group" opacity="0.1" transform="translate(184.000000, 105.000000)">
                    <path d="M9.33767635,21.7249012 C9.33767635,21.7249012 -7.88622407,19.473834 4.95912863,47.5313834 C4.95912863,47.5313834 16.6653112,42.4825296 17.1315353,31.0943874 C17.3277499,26.5072922 14.0843695,22.4973661 9.58178423,21.7603162 L9.33767635,21.7249012 Z" id="Shape" fill="#007FD8" fill-rule="nonzero"></path>
                    <path d="M9.59058091,21.6828458 C9.59058091,21.6828458 13.4897095,37.3274308 4.97232365,47.5335968" id="Shape" stroke="#535461"></path>
                    <path d="M4.73921162,48.9789723 C4.73921162,48.9789723 10.9408714,33.5955731 22.5217012,27.8893281 C27.3980597,25.5271184 31.3809123,21.6357102 33.8716183,16.8 C35.0355513,14.4967549 35.987372,12.0910212 36.7151452,9.61296443" id="Shape" stroke="#535461" stroke-width="2"></path>
                    <path d="M43.9921992,5.97628458 C42.7848548,7.50355731 36.5370124,9.73913043 36.5370124,9.73913043 C36.5370124,9.73913043 37.2891286,3.09881423 38.496473,1.5826087 C39.2469521,0.504094954 40.5299675,-0.0663202611 41.8275058,0.101666461 C43.125044,0.269653184 44.2228658,1.14830521 44.677729,2.38286946 C45.1325923,3.61743371 44.8693935,5.00406875 43.9943983,5.9829249 L43.9921992,5.97628458 Z" id="Shape" fill="#007FD8" fill-rule="nonzero"></path>
                    <path d="M41.8480083,18.0727273 C40.0095021,18.6947036 33.5615353,17.1475099 33.5615353,17.1475099 C33.5615353,17.1475099 37.7729461,11.9946245 39.6114523,11.3726482 C40.8250761,10.8720291 42.2146133,11.092348 43.2165424,11.9442553 C44.2184716,12.7961626 44.6664712,14.1382408 44.3788568,15.4262151 C44.0912424,16.7141895 43.1157583,17.7342547 41.8480083,18.0727273 Z" id="Shape" fill="#007FD8" fill-rule="nonzero"></path>
                    <path d="M30.223195,32.3737549 C28.3253112,31.9775494 23.5333195,27.3647431 23.5333195,27.3647431 C23.5333195,27.3647431 29.7525726,25.0561265 31.6526556,25.452332 C33.4367974,25.9528146 34.5300179,27.759668 34.1529609,29.5847877 C33.7759039,31.4099074 32.0576735,32.6283731 30.223195,32.3715415 L30.223195,32.3737549 Z" id="Shape" fill="#007FD8" fill-rule="nonzero"></path>
                    <path d="M19.0074274,41.2009486 C17.0699585,41.132332 11.5720332,37.4026877 11.5720332,37.4026877 C11.5720332,37.4026877 17.3162656,34.0648221 19.2537344,34.1356522 C21.0970047,34.3244307 22.4790293,35.9195246 22.4140388,37.7831866 C22.3490484,39.6468485 20.8593118,41.1404933 19.0074274,41.1987352 L19.0074274,41.2009486 Z" id="Shape" fill="#007FD8" fill-rule="nonzero"></path>
                    <path d="M27.5578008,12.8158103 C27.8063071,14.7525692 32.0045228,19.9143083 32.0045228,19.9143083 C32.0045228,19.9143083 34.7688797,13.8494862 34.5225726,11.9127273 C34.4402461,10.5948001 33.6362338,9.4324361 32.4367811,8.89728975 C31.2373284,8.3621434 29.8416797,8.54310936 28.81615,9.36675673 C27.7906203,10.1904041 27.305563,11.5199146 27.5578008,12.8158103 Z" id="Shape" fill="#007FD8" fill-rule="nonzero"></path>
                    <path d="M14.5695021,23.3163636 C15.3809959,25.0871146 20.9229046,28.7503557 20.9229046,28.7503557 C20.9229046,28.7503557 21.7585892,22.1299605 20.9470954,20.3592095 C20.4758939,19.1276169 19.3633744,18.261899 18.0605057,18.1129815 C16.757637,17.9640639 15.4805755,18.5566533 14.7469883,19.6505389 C14.013401,20.7444244 13.9449962,22.1581217 14.5695021,23.3185771 L14.5695021,23.3163636 Z" id="Shape" fill="#007FD8" fill-rule="nonzero"></path>
                    <path d="M3.33614108,35.2556522 C3.83755187,37.141502 8.68672199,41.692332 8.68672199,41.692332 C8.68672199,41.692332 10.6219917,35.3109881 10.1183817,33.4251383 C9.86316189,32.1289541 8.9122048,31.0835819 7.65181844,30.7136843 C6.39143207,30.3437866 5.03126887,30.710892 4.12386888,31.6658711 C3.21646889,32.6208502 2.91276887,34.0048519 3.33614108,35.2556522 Z" id="Shape" fill="#007FD8" fill-rule="nonzero"></path>
                    <path d="M43.9921992,5.97628458 C42.7848548,7.50355731 36.5370124,9.73913043 36.5370124,9.73913043 C36.5370124,9.73913043 37.2891286,3.09881423 38.496473,1.5826087 C39.2469521,0.504094954 40.5299675,-0.0663202611 41.8275058,0.101666461 C43.125044,0.269653184 44.2228658,1.14830521 44.677729,2.38286946 C45.1325923,3.61743371 44.8693935,5.00406875 43.9943983,5.9829249 L43.9921992,5.97628458 Z" id="Shape" fill="#000000" fill-rule="nonzero" opacity="0.25"></path>
                    <path d="M41.8480083,18.0727273 C40.0095021,18.6947036 33.5615353,17.1475099 33.5615353,17.1475099 C33.5615353,17.1475099 37.7729461,11.9946245 39.6114523,11.3726482 C40.8250761,10.8720291 42.2146133,11.092348 43.2165424,11.9442553 C44.2184716,12.7961626 44.6664712,14.1382408 44.3788568,15.4262151 C44.0912424,16.7141895 43.1157583,17.7342547 41.8480083,18.0727273 Z" id="Shape" fill="#000000" fill-rule="nonzero" opacity="0.25"></path>
                    <path d="M30.223195,32.3737549 C28.3253112,31.9775494 23.5333195,27.3647431 23.5333195,27.3647431 C23.5333195,27.3647431 29.7525726,25.0561265 31.6526556,25.452332 C33.4367974,25.9528146 34.5300179,27.759668 34.1529609,29.5847877 C33.7759039,31.4099074 32.0576735,32.6283731 30.223195,32.3715415 L30.223195,32.3737549 Z" id="Shape" fill="#000000" fill-rule="nonzero" opacity="0.25"></path>
                    <path d="M19.0074274,41.2009486 C17.0699585,41.132332 11.5720332,37.4026877 11.5720332,37.4026877 C11.5720332,37.4026877 17.3162656,34.0648221 19.2537344,34.1356522 C21.0970047,34.3244307 22.4790293,35.9195246 22.4140388,37.7831866 C22.3490484,39.6468485 20.8593118,41.1404933 19.0074274,41.1987352 L19.0074274,41.2009486 Z" id="Shape" fill="#000000" fill-rule="nonzero" opacity="0.25"></path>
                    <path d="M27.5578008,12.8158103 C27.8063071,14.7525692 32.0045228,19.9143083 32.0045228,19.9143083 C32.0045228,19.9143083 34.7688797,13.8494862 34.5225726,11.9127273 C34.4402461,10.5948001 33.6362338,9.4324361 32.4367811,8.89728975 C31.2373284,8.3621434 29.8416797,8.54310936 28.81615,9.36675673 C27.7906203,10.1904041 27.305563,11.5199146 27.5578008,12.8158103 Z" id="Shape" fill="#000000" fill-rule="nonzero" opacity="0.25"></path>
                    <path d="M14.5695021,23.3163636 C15.3809959,25.0871146 20.9229046,28.7503557 20.9229046,28.7503557 C20.9229046,28.7503557 21.7585892,22.1299605 20.9470954,20.3592095 C20.4758939,19.1276169 19.3633744,18.261899 18.0605057,18.1129815 C16.757637,17.9640639 15.4805755,18.5566533 14.7469883,19.6505389 C14.013401,20.7444244 13.9449962,22.1581217 14.5695021,23.3185771 L14.5695021,23.3163636 Z" id="Shape" fill="#000000" fill-rule="nonzero" opacity="0.25"></path>
                    <path d="M3.33614108,35.2556522 C3.83755187,37.141502 8.68672199,41.692332 8.68672199,41.692332 C8.68672199,41.692332 10.6219917,35.3109881 10.1183817,33.4251383 C9.86316189,32.1289541 8.9122048,31.0835819 7.65181844,30.7136843 C6.39143207,30.3437866 5.03126887,30.710892 4.12386888,31.6658711 C3.21646889,32.6208502 2.91276887,34.0048519 3.33614108,35.2556522 Z" id="Shape" fill="#000000" fill-rule="nonzero" opacity="0.25"></path>
                    <path d="M12.9992946,55.9778656 C12.9992946,55.9778656 19.2009544,40.5944664 30.7817842,34.8882213 C35.6560276,32.5242691 39.63648,28.6321674 42.1251037,23.7966798 C43.2890368,21.4934348 44.2408575,19.0877011 44.9686307,16.6096443" id="Shape" stroke="#535461" stroke-width="2"></path>
                    <path d="M52.2412863,12.970751 C51.0339419,14.4980237 44.7860996,16.7335968 44.7860996,16.7335968 C44.7860996,16.7335968 45.5382158,10.0932806 46.7455602,8.5770751 C47.9897522,7.18519877 50.0953974,7.00852593 51.5513919,8.17384482 C53.0073864,9.3391637 53.3106229,11.4438077 52.2434855,12.9773913 L52.2412863,12.970751 Z" id="Shape" fill="#007FD8" fill-rule="nonzero"></path>
                    <path d="M50.1014938,25.0671937 C48.2629876,25.68917 41.8150207,24.1419763 41.8150207,24.1419763 C41.8150207,24.1419763 46.0264315,18.9890909 47.8649378,18.3671146 C49.6577402,17.8884599 51.511849,18.8926928 52.1025707,20.6623253 C52.6932924,22.4319578 51.8177531,24.3592378 50.1014938,25.0671937 Z" id="Shape" fill="#007FD8" fill-rule="nonzero"></path>
                    <path d="M38.4766805,39.3770751 C36.5787967,38.9808696 31.786805,34.3680632 31.786805,34.3680632 C31.786805,34.3680632 38.0060581,32.0594466 39.9061411,32.4556522 C41.6902829,32.9561347 42.7835034,34.7629881 42.4064464,36.5881078 C42.0293893,38.4132275 40.3111589,39.6316933 38.4766805,39.3748617 L38.4766805,39.3770751 Z" id="Shape" fill="#007FD8" fill-rule="nonzero"></path>
                    <path d="M27.2587137,48.1932016 C25.3212448,48.124585 19.8233195,44.3949407 19.8233195,44.3949407 C19.8233195,44.3949407 25.5675519,41.061502 27.5050207,41.1301186 C29.348291,41.3188971 30.7303156,42.913991 30.6653251,44.777653 C30.6003347,46.6413149 29.1105981,48.1349597 27.2587137,48.1932016 Z" id="Shape" fill="#007FD8" fill-rule="nonzero"></path>
                    <path d="M35.8090871,19.8191304 C36.0575934,21.7558893 40.2558091,26.9176285 40.2558091,26.9176285 C40.2558091,26.9176285 43.020166,20.8528063 42.7738589,18.9160474 C42.6915324,17.5981203 41.8875201,16.4357563 40.6880674,15.9006099 C39.4886147,15.3654636 38.092966,15.5464295 37.0674363,16.3700769 C36.0419066,17.1937243 35.5568494,18.5232347 35.8090871,19.8191304 Z" id="Shape" fill="#007FD8" fill-rule="nonzero"></path>
                    <path d="M22.8229876,30.3019763 C23.6344813,32.0727273 29.17639,35.7359684 29.17639,35.7359684 C29.17639,35.7359684 30.0120747,29.1155731 29.2005809,27.3448221 C28.3169224,25.7028099 26.3183412,25.0335284 24.6334153,25.8153774 C22.9484894,26.5972264 22.1562504,28.5615204 22.8229876,30.3041897 L22.8229876,30.3019763 Z" id="Shape" fill="#007FD8" fill-rule="nonzero"></path>
                    <path d="M11.5896266,42.2545455 C12.0910373,44.1403953 16.9402075,48.6912253 16.9402075,48.6912253 C16.9402075,48.6912253 18.8754772,42.3098814 18.3718672,40.4240316 C17.774398,38.6588836 15.9193339,37.662447 14.1298101,38.1454361 C12.3402863,38.6284252 11.2294565,40.4253508 11.5896266,42.2545455 Z" id="Shape" fill="#007FD8" fill-rule="nonzero"></path>
                </g>
                <path d="M3,95 C6.81895373,111.575276 14.9034324,125.903285 27.6802085,132.84837 C54.2324962,147.28137 114.114835,139.838133 158.807153,131.284665 C181.388591,126.978584 201.886144,115.081485 217,97.5086301 L3,95 Z" id="Shape" fill="#007FD8" fill-rule="nonzero" opacity="0.1"></path>
                <path d="M236.751439,17.7259458 L212.276651,17.7259458 C211.108293,17.7259458 210.161152,16.7787717 210.161152,15.6103732 C210.161152,14.4419746 211.108293,13.4948005 212.276651,13.4948005 L216.507647,13.4948005 C215.339289,13.4948005 214.392149,12.5476264 214.392149,11.3792278 C214.392149,10.2108293 215.339289,9.26365516 216.507647,9.26365516 L213.486448,9.26365516 C212.31809,9.26365516 211.370949,8.31648102 211.370949,7.1480825 C211.370949,5.97968398 212.31809,5.03250983 213.486448,5.03250983 L226.260675,5.03250983 C223.426105,3.71508005 220.112886,2.77750918 216.296866,2.28566873 C181.465248,-2.18920111 169.029149,0.770624476 164.642262,3.82267015 C159.230012,7.57734504 153.192005,10.3395562 146.739022,11.6701602 C125.245912,16.09892 85.0547396,21.4345107 48.6268928,9.95750152 C30.5216535,4.24863911 17.0645821,13.8922251 9,30 L241,30 C240.697002,25.3187328 239.790203,20.9975631 238.125909,17.2121482 C237.744278,17.5428545 237.256414,17.7252252 236.751439,17.7259458 Z" id="Shape" fill="#007FD8" fill-rule="nonzero" opacity="0.1"></path>
                <path d="M0.527867142,61 C-0.414637507,70.6625899 -0.093971882,80.4095347 1.48149683,89.9865053 L217.023829,98 C223.023848,90.9831041 228.061671,83.1725639 232,74.7812405 L0.527867142,61 Z M85.7775158,81.6774584 L81.5335333,81.6774584 C82.7054767,81.6774584 83.6555245,82.6433177 83.6555245,83.8347655 C83.6555245,85.0262133 82.7054767,85.9920726 81.5335333,85.9920726 L56.9836254,85.9920726 C55.8116821,85.9920726 54.8616342,85.0262133 54.8616342,83.8347655 C54.8616342,82.6433177 55.8116821,81.6774584 56.9836254,81.6774584 L61.2276079,81.6774584 C60.0556645,81.6774584 59.1056167,80.7115991 59.1056167,79.5201513 C59.1056167,78.3287035 60.0556645,77.3628442 61.2276079,77.3628442 L58.1971357,77.3628442 C57.0251923,77.3628442 56.0751445,76.3969849 56.0751445,75.2055371 C56.0751445,74.0140892 57.0251923,73.04823 58.1971357,73.04823 L82.7470436,73.04823 C83.918987,73.04823 84.8690348,74.0140892 84.8690348,75.2055371 C84.8690348,76.3969849 83.918987,77.3628442 82.7470436,77.3628442 L85.7775158,77.3628442 C86.9494591,77.3628442 87.899507,78.3287035 87.899507,79.5201513 C87.899507,80.7115991 86.9494591,81.6774584 85.7775158,81.6774584 Z" id="Shape" fill="#007FD8" fill-rule="nonzero" opacity="0.1"></path>
                <path d="M241.890695,30 L6.62786541,35.7214113 C3.76769438,43.0734248 1.88073011,51.3848749 1,60 L237.768878,60 C239.314784,54.9392594 240.458154,49.7643483 241.188312,44.5235825 C241.892897,39.4601335 242.17473,34.5617252 241.890695,30 Z M48.761994,48.742023 L44.5190767,48.742023 C45.6907259,48.742023 46.6405353,49.6912792 46.6405353,50.862246 C46.6405353,52.0332128 45.6907259,52.982469 44.5190767,52.982469 L19.9753303,52.982469 C18.803681,52.982469 17.8538716,52.0332128 17.8538716,50.862246 C17.8538716,49.6912792 18.803681,48.742023 19.9753303,48.742023 L24.2182476,48.742023 C23.0465983,48.742023 22.0967889,47.7927669 22.0967889,46.6218 C22.0967889,45.4508332 23.0465983,44.5015771 24.2182476,44.5015771 L21.188536,44.5015771 C20.0168867,44.5015771 19.0670773,43.5523209 19.0670773,42.3813541 C19.0670773,41.2103872 20.0168867,40.2611311 21.188536,40.2611311 L45.7322824,40.2611311 C46.9039316,40.2611311 47.853741,41.2103872 47.853741,42.3813541 C47.853741,43.5523209 46.9039316,44.5015771 45.7322824,44.5015771 L48.761994,44.5015771 C49.9336432,44.5015771 50.8834526,45.4508332 50.8834526,46.6218 C50.8834526,47.7927669 49.9336432,48.742023 48.761994,48.742023 Z" id="Shape" fill="#007FD8" fill-rule="nonzero" opacity="0.1"></path>
                <path d="M207,178.885836 C207,178.885836 197.178587,125.228797 178.450456,116.521603 C162.581027,109.138271 145.420003,104.161164 140.540153,102.810956 C139.811471,101.641797 138.96913,100.546848 138.02529,99.5419162 C131.355721,92.6064585 127.348691,92.7359906 126.700689,92.8216135 C126.393135,91.4462569 126.172295,90.053076 126.039463,88.6502398 C126.019626,88.4306938 125.999789,88.226516 125.982156,88.0091655 L126.039463,87.9806245 C125.999789,87.5656826 125.964524,87.1375679 125.933666,86.6962805 C128.656289,85.2488881 131.162967,83.4303652 133.381278,81.2932537 C133.409931,81.3876585 133.434176,81.4820633 133.465033,81.5786635 C138.271413,77.5316992 142.978609,73.3749618 147.586621,69.1084514 C148.909073,67.8767985 150.297648,66.5397634 150.747282,64.8031546 C150.891277,64.2055289 150.946966,63.5901739 150.912589,62.976532 C150.972099,61.6592561 150.659119,60.3134392 150.60622,58.9785996 C150.60622,58.7590536 150.630465,58.5548758 150.659119,58.3463071 C150.967691,56.1618246 152.492919,54.3681338 153.744841,52.5349249 C156.872571,47.9022104 158.505159,42.428443 158.424118,36.8461686 C158.458365,34.1713744 158.086827,31.5067695 157.322075,28.942513 C156.345664,25.6888415 154.313495,22.2705105 150.930221,21.5591815 C149.620993,21.284749 148.261072,21.4559949 146.925395,21.3703719 C141.395339,21.0190984 137.256063,16.5403602 132.845684,13.2581477 C127.46288,9.27165575 121.097246,6.81062621 114.423922,6.13607586 C112.34106,5.91652988 110.18987,5.90116166 108.208396,6.55979962 C103.758343,8.03514866 101.056132,12.5907279 96.7691823,14.4634552 C93.5997047,15.8553767 89.9365115,15.6292444 86.6303804,16.6742833 C81.7086533,18.2330598 77.5319078,23.2606629 77.4217034,28.42658 C77.4217034,28.617585 77.4217034,28.80859 77.4217034,28.999595 C77.4217034,29.0325269 77.4217034,29.0654588 77.4217034,29.0961952 C77.3666012,31.706597 78.3033383,34.3652989 78.3782773,37.0371736 C78.3782773,37.2786742 78.3819508,37.5209066 78.3892977,37.7638708 C78.3650528,40.6487051 78.0190111,43.5423212 76.9632532,46.2537142 C76.3945987,47.713695 75.6628417,49.4041991 75.7818624,50.8641799 C75.7157398,51.7577321 75.8898627,52.5963977 76.5136194,53.2791857 L77.5781936,52.3439198 C77.221161,54.2687279 77.041881,56.2220657 77.0426004,58.1794522 C77.0426004,68.0458489 81.5477549,76.8803794 88.6537326,82.8256847 C88.6948756,83.4828591 88.7345492,84.1868699 88.7727534,84.9377171 C88.940264,88.1913887 89.0725092,92.2727486 89.0350398,96.7207503 L78.6405637,106.238069 L51.9182084,118.313098 C51.9182084,118.313098 27.4792876,123.454865 32.7426483,157.653544 L35.2553079,178.888032 L57.5672843,178.888032 L57.5165903,179 L90.6330031,179 L90.6528399,178.888032 L169.444555,178.888032 L169.429127,179 L172.514849,179 L172.514849,178.888032 L207,178.885836 Z M126.896853,93.3660876 C127.572309,94.7577994 128.104022,96.2142861 128.483796,97.7130981 C127.70397,96.2707972 127.127676,94.728209 126.77122,93.1289779 L126.804281,93.1882553 L126.896853,93.3660876 Z M89.0262234,97.7570073 C89.0262234,98.1756084 89.0188764,98.5978685 89.0041825,99.0237877 L88.9512844,99.0984333 C88.9477203,98.6465118 88.9727495,98.1948157 89.0262234,97.74603 L89.0262234,97.7570073 Z" id="Shape" fill="url(#linearGradient-1)" fill-rule="nonzero"></path>
                <path d="M136,102.568411 L131.59237,144.530338 L108.011551,152 C108.011551,152 77.3785237,146.287905 85.3122574,129.810709 C90.9562273,118.08993 90.7997565,97.1441176 90.2399875,86.0275024 C90.019606,81.5149476 89.7198872,78.6215519 89.7198872,78.6215519 C89.7198872,78.6215519 129.829318,43.6898954 126.523596,75.1064166 C125.88449,81.1897976 125.847025,85.9462149 126.201839,89.6634704 C127.689414,105.138853 136,102.568411 136,102.568411 Z" id="Shape" fill="#FDC2CC" fill-rule="nonzero"></path>
                <path d="M136,102.568411 L131.59237,144.530338 L108.011551,152 C108.011551,152 77.3785237,146.287905 85.3122574,129.810709 C90.9562273,118.08993 90.7997565,97.1441176 90.2399875,86.0275024 C90.019606,81.5149476 89.7198872,78.6215519 89.7198872,78.6215519 C89.7198872,78.6215519 129.829318,43.6898954 126.523596,75.1064166 C125.88449,81.1897976 125.847025,85.9462149 126.201839,89.6634704 C127.689414,105.138853 136,102.568411 136,102.568411 Z" id="Shape" fill="#000000" fill-rule="nonzero" opacity="0.03"></path>
                <path d="M125.806325,75.2886408 C125.167174,81.4566016 125.129706,86.2791495 125.484545,90.0480876 C113.893513,96.4437256 99.6045995,94.9790449 89.5201373,86.3615671 C89.2997401,81.7862723 89,78.8526485 89,78.8526485 C89,78.8526485 129.112283,43.4353222 125.806325,75.2886408 Z" id="Shape" fill="#000000" fill-rule="nonzero" opacity="0.1"></path>
                <circle id="Oval" fill="#FDC2CC" fill-rule="nonzero" cx="110" cy="60" r="32"></circle>
                <circle id="Oval" fill="#000000" fill-rule="nonzero" opacity="0.03" cx="110" cy="60" r="32"></circle>
                <path d="M90.4629165,99.8390904 C90.5706178,94.6074177 90.4280674,89.7626361 90.2399875,86.0275024 C90.2251091,85.7228505 90.209869,85.4255784 90.1943841,85.1360784 C82.7673803,79.2760381 78,70.1947597 78,60 C78,42.326888 92.326888,28 110,28 C127.673112,28 142,42.326888 142,60 C142,71.8211988 135.590136,82.1452935 126.056456,87.6862348 C126.093014,88.3759839 126.141813,89.034598 126.201839,89.6634704 C127.689414,105.138853 136,102.568411 136,102.568411 L131.59237,144.530338 L108.011551,152 C108.011551,152 102.556715,150.982845 96.8469119,148.568837 L91.3652863,178.995594 L60,179 L76.3406561,141.658349 C76.3406561,141.658349 80.9467471,132.84616 82.0434355,124.033971 C82.7409293,118.431622 85.3883349,110.780439 87.2241912,105.949156 C88.0468986,103.780699 89.1358556,101.728517 90.4629165,99.8390904 Z" id="Combined-Shape" fill="#FFFFFF" fill-rule="nonzero" opacity="0.349196429"></path>
                <path d="M204,179 L38.1406946,179 L35.7145612,158.02216 C30.6417367,124.236796 54.2413985,119.157951 54.2413985,119.157951 L80.0466362,107.233705 L90.3025639,97.6280622 C86.9942001,110.214766 112.027486,136.381862 112.027486,136.381862 C112.188335,136.232195 112.340755,136.073697 112.48404,135.9071 C113.158947,135.169563 114.771223,133.323513 118.547169,128.74372 C119.896981,127.103032 121.526902,125.113449 123.489864,122.697685 C132.929729,111.082586 128.086284,97.3586626 126.639426,94.5211337 L126.548998,94.3444782 C126.493858,94.2429013 126.451952,94.1611981 126.418869,94.1037851 C126.409751,94.0829077 126.398673,94.0629444 126.385785,94.0441639 C126.376652,94.0300435 126.368544,94.0152842 126.361524,94 L138.492191,103.495233 C138.492191,103.495233 138.957568,103.618892 139.815537,103.861793 C144.535469,105.186709 161.116988,110.113189 176.428096,117.406853 C194.516024,126.003351 204,179 204,179 Z" id="Shape" fill="#007FD8" fill-rule="nonzero"></path>
                <path d="M148.562668,128.451422 C146.562084,126.464797 133.002567,124.036699 133.002567,124.036699 C133.447142,129.334367 116.997892,137.501604 116.997892,137.501604 L118.220471,179 L110.333723,179 L109,141.695591 L112.778882,136.397923 L113.239016,135.923341 C115.428809,133.669378 117.469937,131.27752 119.34969,128.76266 C120.710087,127.12259 122.35279,125.133758 124.331145,122.718904 C133.845036,111.108183 128.96361,97.3894311 127.505406,94.5529716 L127.414268,94.3763827 C127.360919,94.2726367 127.318685,94.1931717 127.283119,94.1357803 C127.273929,94.1149108 127.262765,94.0949549 127.249776,94.0761815 C127.240571,94.0620665 127.232399,94.0473127 127.225324,94.0320343 C127.225324,94.0320343 131.226493,93.1490897 138.339682,100.654119 C139.259213,101.650889 140.078178,102.734731 140.784841,103.890111 C146.564307,113.099223 150.325405,130.20186 148.562668,128.451422 Z" id="Shape" fill="#007FD8" fill-rule="nonzero"></path>
                <path d="M148.562668,128.451422 C146.562084,126.464797 133.002567,124.036699 133.002567,124.036699 C133.447142,129.334367 116.997892,137.501604 116.997892,137.501604 L118.220471,179 L110.333723,179 L109,141.695591 L112.778882,136.397923 L113.239016,135.923341 C115.428809,133.669378 117.469937,131.27752 119.34969,128.76266 C120.710087,127.12259 122.35279,125.133758 124.331145,122.718904 C133.845036,111.108183 128.96361,97.3894311 127.505406,94.5529716 L127.414268,94.3763827 C127.360919,94.2726367 127.318685,94.1931717 127.283119,94.1357803 C127.273929,94.1149108 127.262765,94.0949549 127.249776,94.0761815 C127.240571,94.0620665 127.232399,94.0473127 127.225324,94.0320343 C127.225324,94.0320343 131.226493,93.1490897 138.339682,100.654119 C139.259213,101.650889 140.078178,102.734731 140.784841,103.890111 C146.564307,113.099223 150.325405,130.20186 148.562668,128.451422 Z" id="Shape" fill="#000000" fill-rule="nonzero" opacity="0.1"></path>
                <path d="M58,145 C58,145 68.4444444,166.403279 69,179" id="Shape" fill="#000000" fill-rule="nonzero" opacity="0.1"></path>
                <polygon id="Shape" fill="#000000" fill-rule="nonzero" opacity="0.1" points="171 157 168 179 171 179"></polygon>
                <path d="M60,179 L76.3406561,141.656512 C76.3406561,141.656512 80.9467471,132.843889 82.0434355,124.031266 C83.1401238,115.218644 89.0622408,101.338763 89.0622408,101.338763 C89.0622408,101.338763 103.757864,82.61194 110.557332,85.2557268 C117.3568,87.8995135 104.635215,97.813714 104.635215,97.813714 C104.635215,97.813714 123.278917,105.084128 110.557332,126.675053 C97.8357475,148.265979 97.6164098,144.300298 97.6164098,144.300298 L91.3652863,179 L60,179 Z" id="Shape" fill="#000000" fill-rule="nonzero" opacity="0.1"></path>
                <path d="M60,179 L76.3406561,141.658349 C76.3406561,141.658349 80.9467471,132.84616 82.0434355,124.033971 C82.7409293,118.431622 85.3883349,110.780439 87.2241912,105.949156 C88.4225314,102.790622 90.1857543,99.878781 92.4268806,97.3572717 C97.1777345,92.0170851 105.806478,83.4053734 110.557332,85.2559331 C117.3568,87.8995898 104.635215,97.8133024 104.635215,97.8133024 C104.635215,97.8133024 123.278917,105.083358 110.557332,126.673222 C97.8357475,148.263085 97.6164098,144.2976 97.6164098,144.2976 L91.3652863,178.995594 L60,179 Z" id="Shape" fill="#F7C8D0" fill-rule="nonzero"></path>
                <circle id="Oval" fill="#FFFFFF" fill-rule="nonzero" opacity="0.15" cx="121" cy="43" r="1"></circle>
                <circle id="Oval" fill="#FFFFFF" fill-rule="nonzero" opacity="0.15" cx="118" cy="43" r="1"></circle>
                <path d="M87.5166953,20.5493991 C90.7151344,19.5158866 94.265026,19.738931 97.3330519,18.3653311 C101.48196,16.5058919 104.096855,12.0052541 108.402702,10.5477365 C110.321323,9.89847863 112.403513,9.92277059 114.417182,10.1303564 C120.89249,10.8036488 127.059058,13.2379132 132.246214,17.1683999 C136.514484,20.4124808 140.519716,24.835826 145.871078,25.1825385 C147.164158,25.2664562 148.479342,25.0964125 149.745898,25.3680408 C153.026121,26.0702993 154.991161,29.4468818 155.934999,32.6556289 C158.144626,40.3510911 156.880316,48.6268865 152.473523,55.313403 C151.262228,57.1242582 149.785685,58.8975713 149.487282,61.0551391 C149.19551,63.170748 150.09735,65.3636496 149.571277,67.4350913 C149.129198,69.150987 147.802962,70.4715864 146.512092,71.6883927 C142.054466,75.9004715 137.498845,80.0043406 132.845231,84 C130.42706,76.3237405 133.974742,68.0578488 133.422143,60.0304601 C133.201104,56.9034222 132.095907,53.4892976 129.335126,52.0141131 C126.751176,50.6360964 123.448849,51.3516051 120.833953,50.026589 C117.916234,48.5580296 116.718201,45.0798625 114.512229,42.6727501 C110.75456,38.5652004 104.231689,38.035194 98.9775845,39.8902164 C93.7234797,41.7452389 89.4286855,45.561285 85.2731461,49.2823717 L77.7202322,56.0509952 C76.2458999,54.3903085 77.3643589,51.841861 78.1623109,49.7660026 C79.3515025,46.6544232 79.6123289,43.2999243 79.5327547,39.9962177 C79.4686533,37.3461857 78.5535505,34.729279 78.6065999,32.1499145 C78.7126988,27.0618529 82.7532977,22.0886261 87.5166953,20.5493991 Z" id="Shape" fill="#000000" fill-rule="nonzero" opacity="0.1"></path>
                <path d="M87.5166953,19.5493991 C90.7151344,18.5158866 94.265026,18.738931 97.3330519,17.3653311 C101.48196,15.5058919 104.096855,11.0052541 108.402702,9.54773649 C110.321323,8.89847863 112.403513,8.92277059 114.417182,9.13035644 C120.89249,9.80364876 127.059058,12.2379132 132.246214,16.1683999 C136.514484,19.4124808 140.519716,23.835826 145.871078,24.1825385 C147.164158,24.2664562 148.479342,24.0964125 149.745898,24.3680408 C153.026121,25.0702993 154.991161,28.4468818 155.934999,31.6556289 C158.144626,39.3510911 156.880316,47.6268865 152.473523,54.313403 C151.262228,56.1242582 149.785685,57.8975713 149.487282,60.0551391 C149.19551,62.170748 150.09735,64.3636496 149.571277,66.4350913 C149.129198,68.150987 147.802962,69.4715864 146.512092,70.6883927 C142.054466,74.9004715 137.498845,79.0043406 132.845231,83 C130.42706,75.3237405 133.974742,67.0578488 133.422143,59.0304601 C133.201104,55.9034222 132.095907,52.4892976 129.335126,51.0141131 C126.751176,49.6360964 123.448849,50.3516051 120.833953,49.026589 C117.916234,47.5580296 116.718201,44.0798625 114.512229,41.6727501 C110.75456,37.5652004 104.231689,37.035194 98.9775845,38.8902164 C93.7234797,40.7452389 89.4286855,44.561285 85.2731461,48.2823717 L77.7202322,55.0509952 C76.2458999,53.3903085 77.3643589,50.841861 78.1623109,48.7660026 C79.3515025,45.6544232 79.6123289,42.2999243 79.5327547,38.9962177 C79.4686533,36.3461857 78.5535505,33.729279 78.6065999,31.1499145 C78.7126988,26.0618529 82.7532977,21.0886261 87.5166953,19.5493991 Z" id="Shape" fill="#865A61" fill-rule="nonzero"></path>
            </g>
        </g>
    </g>
</svg>