<svg width="384" height="233" fill="none" xmlns="http://www.w3.org/2000/svg">
  <path opacity=".1"
        d="M264.65 196.009c28.44 0 51.495-5.721 51.495-12.779s-23.055-12.779-51.495-12.779c-28.441 0-51.496 5.721-51.496 12.779s23.055 12.779 51.496 12.779Zm-145.962 23.269c28.441 0 51.495-5.721 51.495-12.779s-23.054-12.779-51.495-12.779-51.496 5.721-51.496 12.779 23.056 12.779 51.496 12.779Z"
        fill="#9298AF"/>
  <path opacity=".3" d="M201.604 31.167h-44.592v28.019h44.592v-28.02Z" fill="#7598D6"/>
  <path opacity=".2"
        d="M139.862 31.167H95.271v28.019h44.592v-28.02h-.001Zm123.482 0h-44.591v28.019h44.591v-28.02ZM139.862 71.225H95.271v28.019h44.592v-28.02h-.001Zm61.741 0h-44.592v28.019h44.592v-28.02Zm61.741 0h-44.591v28.019h44.591v-28.02ZM139.862 111.28H95.271V139.3h44.592l-.001-28.019Zm61.741 0h-44.592V139.3h44.592v-28.019Zm61.741 0h-44.591V139.3h44.591v-28.019Z"
        fill="#AFBED3"/>
  <path
    d="M295.406 62.368c-.416-.804-2.61-5.797-2.61-5.797l-3.676-9.526s-2.61-4.017-2.61-4.764c0-.746-4.744-3.73-4.744-3.73s-3.855-1.148-4.151-1.262c-.297-.116-4.863-1.626-4.863-1.626s-1.798-2.364-2.054-1.747v.002l-.029-.046a6.124 6.124 0 0 1-.685-2.21l-.027-.213a8.796 8.796 0 0 0 3.863-7.245 8.66 8.66 0 0 0-.076-1.127.787.787 0 0 1 .102-.054c.074-.031.055-.058.001-.084.019-.01.037-.021.056-.029.098-.042.032-.075-.063-.113l.006-.003c.134-.058-.035-.096-.172-.159l-.021-.118a.805.805 0 0 0 .054-.237l.036.018c.032-.148.032-.301-.002-.448a.912.912 0 0 1-.032.087.76.76 0 0 0-.345-.679l-.021-.019.252-2.574c3.708-.175 4.359-6.484 3.512-6.835-.845-.35 0-1.11 0-2.628 0-1.52-2.797-3.214-2.797-3.214s-1.171.585-2.992-2.336c-1.822-2.92-8.523-3.388-8.978-2.628-.456.759-3.448 1.752-7.352 2.862-3.903 1.11-3.188 5.725-2.537 6.718.536.82.85 1.766.91 2.745 0 .585 1.237 3.038 1.237 3.038-.39.85.603 5.508.895 6.831l-.012.123-.009.01a1.296 1.296 0 0 0-.038.067.762.762 0 0 0-.06.439.919.919 0 0 0 .066.48 8.757 8.757 0 0 0 3.105 6.532l.013.242c.055 1.08.085 2.36.028 3.583-.002.063-.007.124-.01.186a1.411 1.411 0 0 0-.993.783c-.368.708-2.502 1.798-2.502 1.798s-3.736.171-4.092.86c-.356.69-5.752 2.985-5.752 2.985s-2.846 1.663-2.432 3.558c.217.99-.391 2.528-1.022 3.77a17.93 17.93 0 0 0-4.094-1.021l3.023 2.892-.1.155-1.72 6.084s-.593 2.123-1.187 2.64c-.592.516.534 5.222.534 5.222s-.652 3.33-1.185 4.19c-.534.86.83 2.984.83 2.984l2.728 6.198 7.234 1.836 1.261.269-.075.444c-.349 1.974-.806 3.789-1.363 4.28-1.365 1.206-1.306 6.6-1.306 6.6l.06 7.633s.475 9.412.237 9.756c-.149.218.151.572.943.891-.022.141-.044.285-.065.432-.224 1.56-.323 3.343.19 4.129.222.427.344.897.355 1.378 0 .746 1.127 2.296 1.127 2.296s-.89 6.37.593 8.55c1.483 2.181 2.728 6.141 2.016 7.059 0 0-1.245 2.698-.653 3.903.594 1.206 0 1.894-.77 2.181-.771.287-.704 2.64-.704 2.64l1.415 11.192s.771 2.295.119 3.099c-.652.802-.652 4.819.356 6.198 1.008 1.377-1.424 3.901-1.424 3.901s-1.481 2.124.89 2.813c0 0 .475.115-.415 1.033-.889.918-1.067 2.066-.475 2.468.124.074.252.137.386.191-.023.136-.046.276-.075.427-.227 1.198-.656 2.759-1.437 3.514a25.041 25.041 0 0 0-3.883 5.174c-.813 1.543-1.17 2.986-.268 3.664 2.135 1.607 4.863 2.123 6.464 1.492 1.601-.631 3.854-2.582 3.854-2.582l.534-2.238s-.356-1.378 1.423-1.895c1.779-.516 3.44-2.353 3.44-2.353v-2.974c.43-.247.846-.518 1.245-.814 0 0 .83-2.926 0-3.901-.831-.977-1.127-1.32-.06-1.952 1.068-.631 1.213-2.008.43-3.214-.785-1.205-2.031-2.984-.963-5.51 1.068-2.524 1.459-10.272 1.459-10.272s-.498-5.28 0-6.486c.498-1.204-.569-3.615-.569-3.615s.355-2.985 1.008-4.362c.651-1.377 1.186-8.666 1.186-8.666s1.185-3.099 1.185-5.107c0-2.009-1.838-6.83.89-8.093 0 0 1.186 1.034.712 5.166 0 0 1.364 4.82 1.364 6.313 0 1.492 1.008 6.886 1.008 6.886s.118 1.722.533 2.354c.416.631 0 2.353 0 2.353s1.542 1.434 1.128 2.352c-.416.919.07 2.989.07 2.989l-.368 12.851s-1.067 5.51 1.424 8.838c0 0-.89 4.878-1.424 5.223-.533.344 1.957 3.329 1.957 3.329s-.69 1.933.712 2.027v3.195a6.815 6.815 0 0 0 1.957 2.181c1.305.918.771 4.075.771 4.075s1.66 4.017 6.049 3.156c4.388-.861 4.981-1.263 4.743-2.697a30.81 30.81 0 0 0-.547-2.518c-.472-1.844-1.196-4.068-2.062-5.165-1.363-1.73-2.49-5.345-2.49-5.345s-.534-1.206 0-1.606c.533-.402.296-1.149.296-1.149s.52-1.491.052-2.409c-.467-.92.897-2.813.897-2.813l-.414-8.838.414-12.855s-1.838-2.124-1.067-3.387c.771-1.262-.89-3.042-.89-3.042s-.177-.057.297-1.491a3.572 3.572 0 0 0-.119-2.583s-1.008-3.558.771-6.255c0 0 .771-3.558 1.008-5.395.164-1.276 1.189-6.044 1.798-8.833l.1-.453c.878.048 1.542.104 1.542.104s-1.365-9.47 0-11.421c1.363-1.952-1.067-16.873-1.067-16.873s-.582-2.608-.94-5.268c-.021-.152-.039-.303-.058-.455a28.741 28.741 0 0 1 3.31-.074c2.846.173 5.633-.918 5.693-2.008.059-1.09 1.601-5.395 1.839-6.37.236-.976.414-4.306 0-5.108Z"
    fill="url(#a)"/>
  <path
    d="M260.803 173.081v5.313s-1.601 1.829-3.314 2.343c-1.715.514-1.372 1.886-1.372 1.886l-.514 2.229s-2.171 1.943-3.714 2.571c-1.543.628-4.171.114-6.228-1.486-.869-.674-.526-2.111.258-3.648a24.9 24.9 0 0 1 3.742-5.151c.751-.752 1.166-2.307 1.385-3.5.161-.894.214-1.586.214-1.586l9.543 1.029Z"
    fill="#7D7D95"/>
  <path opacity=".1"
        d="M260.803 177.046v1.348s-1.601 1.829-3.314 2.343c-1.715.514-1.372 1.886-1.372 1.886l-.514 2.228s-2.171 1.943-3.714 2.572c-1.543.628-4.171.114-6.228-1.486-.869-.674-.526-2.112.258-3.647-.037 1.613.441 3.426 2.77 3.361a11.79 11.79 0 0 0 6.914-2.514s-.057-3.771 2.571-4.629a7.99 7.99 0 0 0 2.629-1.462Z"
        fill="#000"/>
  <path
    d="M281.717 186.679c-4.229.857-5.829-3.142-5.829-3.142s.514-3.142-.742-4.057a6.74 6.74 0 0 1-1.886-2.172v-5.257l5.142-3.656 2.784 2.463.187.165s1.087 3.6 2.4 5.321c.835 1.092 1.532 3.307 1.987 5.142.263 1.057.446 1.986.527 2.508.23 1.429-.342 1.829-4.57 2.685Z"
    fill="#9298AF"/>
  <path opacity=".1"
        d="M281.717 186.68c-4.229.857-5.829-3.142-5.829-3.142s.514-3.143-.743-4.057a6.749 6.749 0 0 1-1.885-2.172v-2.036c.816.861 2.354 2.53 2.685 3.236.457.972.514 4.514 2.628 5.143 2.115.629 6.229 1.2 6.572-.401a9.037 9.037 0 0 1 .614-1.764c.264 1.057.447 1.986.528 2.508.23 1.428-.343 1.828-4.57 2.685Zm-30.456-14.627 9.542 1.028v2.809c-1.077.638-2.619 1.313-3.485.619-1.28-1.024-5.085-2.324-6.272-2.871.162-.894.215-1.585.215-1.585Zm30.112-.573c-1.314-.457-3.656 1.543-6.742 2.8a3.221 3.221 0 0 1-1.371.307v-2.536l5.142-3.656 2.784 2.463c.043.213.106.421.187.622Z"
        fill="#000"/>
  <path
    d="m284.745 108.568-.439 2.061c-.588 2.778-1.574 7.525-1.732 8.796-.229 1.828-.972 5.371-.972 5.371-1.714 2.685-.743 6.228-.743 6.228.348.815.389 1.729.115 2.571-.457 1.429-.286 1.486-.286 1.486s1.6 1.771.857 3.028c-.743 1.258 1.029 3.372 1.029 3.372l-.4 12.799.4 8.799s-1.315 1.886-.864 2.801c.45.914-.051 2.4-.051 2.4s.23.742-.286 1.142c-.514.4 0 1.6 0 1.6-1.313-.457-3.656 1.542-6.741 2.8-3.087 1.257-2.057-1.715-2.057-1.715s-2.4-2.971-1.886-3.313c.514-.343 1.371-5.2 1.371-5.2-2.399-3.315-1.371-8.8-1.371-8.8l.354-12.795s-.469-2.061-.069-2.975c.4-.915-1.085-2.343-1.085-2.343s.4-1.714 0-2.343c-.401-.628-.515-2.342-.515-2.342s-.971-5.371-.971-6.857c0-1.487-1.315-6.285-1.315-6.285.458-4.115-.685-5.144-.685-5.144-2.628 1.258-.857 6.058-.857 8.058s-1.143 5.085-1.143 5.085-.514 7.257-1.143 8.628c-.628 1.371-.97 4.343-.97 4.343s1.028 2.399.547 3.6c-.48 1.199 0 6.456 0 6.456s-.376 7.714-1.405 10.228c-1.028 2.514.171 4.286.928 5.486.755 1.2.615 2.571-.414 3.2-1.028.628-.743.971.057 1.943.801.971 0 3.885 0 3.885s-3.257 2.571-4.685 1.429c-1.429-1.144-6-2.629-6.571-3.029-.571-.401-.4-1.543.457-2.457.857-.915.4-1.029.4-1.029-2.286-.685-.857-2.799-.857-2.799s2.343-2.515 1.371-3.886c-.971-1.371-.971-5.371-.343-6.171.629-.8-.114-3.085-.114-3.085l-1.365-11.143s-.063-2.343.679-2.628c.743-.286 1.314-.971.743-2.172-.571-1.199.628-3.885.628-3.885.687-.915-.514-4.857-1.942-7.028-1.429-2.172-.572-8.515-.572-8.515s-1.085-1.542-1.085-2.285a3.206 3.206 0 0 0-.343-1.371c-.494-.784-.398-2.558-.183-4.112.209-1.504.526-2.802.526-2.802l35.998.914Z"
    fill="#4E6896"/>
  <path
    d="m273.545 43.83-11.256 2.628s-5.543-4.686-4.171-7.2c.47-.864.679-2.338.75-3.898.044-1.189.035-2.379-.028-3.567a50.99 50.99 0 0 0-.208-2.706s11.542-6.515 11.142 0a16.62 16.62 0 0 0 .076 3.255c.081.768.305 1.514.66 2.2.617 1.1 1.379 1.116 1.379 1.116l1.656 8.171Z"
    fill="#FCB6AC"/>
  <path opacity=".1"
        d="M269.85 32.342a8.854 8.854 0 0 1-11.01-.55 50.99 50.99 0 0 0-.208-2.705s11.542-6.515 11.143 0a16.543 16.543 0 0 0 .075 3.255Z"
        fill="#000"/>
  <path
    d="M264.689 33.773a8.859 8.859 0 0 0 8.181-5.468 8.857 8.857 0 0 0-8.182-12.244 8.854 8.854 0 0 0-8.856 8.856 8.855 8.855 0 0 0 8.857 8.856Z"
    fill="#FCB6AC"/>
  <path opacity=".1"
        d="m273.545 43.83-11.256 2.628s-5.543-4.686-4.171-7.2c.47-.864.679-2.338.749-3.897a5.75 5.75 0 0 0 2.05 3.44c2.571 1.714 2.172 3.829 2.172 3.829l4.628-.172c-.285-1.886 1.428-2.914 2-3.143.571-.228.286-1.257.286-1.257l.506-3.515c.618 1.1 1.38 1.115 1.38 1.115l1.656 8.171Zm11.2 64.738s-.181.841-.439 2.061c-1.244-.066-2.886-.114-3.618.053-1.257.285-6.285.4-6.285.4l-12.457.441v-.384a36.749 36.749 0 0 0-4.285.285c-2.115.287-5.428-.114-7.543-.457a8.042 8.042 0 0 1-1.897-.511c.208-1.505.525-2.802.525-2.802l35.999.914Z"
        fill="#000"/>
  <path
    d="M283.773 72.287c-.18 1.066-.047 2.835.181 4.581.345 2.65.905 5.247.905 5.247s2.343 14.855 1.028 16.798c-1.313 1.943 0 11.371 0 11.371s-3.942-.342-5.199-.057c-1.257.286-6.285.4-6.285.4l-12.456.441v-.384a36.781 36.781 0 0 0-4.286.286c-2.115.285-5.428-.115-7.543-.457-2.114-.343-2.971-1.028-2.742-1.372.228-.343-.229-9.714-.229-9.714l-.057-7.6s-.058-5.37 1.257-6.57c.537-.49.978-2.297 1.315-4.262.481-2.846.742-6.024.742-6.024l-8.686-23.255-.171-.457s2.514-3.886 2.114-5.771c-.4-1.886 2.343-3.543 2.343-3.543s5.2-2.285 5.542-2.973c.343-.684 3.943-.856 3.943-.856s2.058-1.085 2.412-1.79a1.352 1.352 0 0 1 .957-.778 5.76 5.76 0 0 0 2.059 3.483c2.572 1.713 2.172 3.828 2.172 3.828l4.628-.172c-.285-1.885 1.428-2.914 2-3.141.572-.23.286-1.259.286-1.259l.534-3.7c.248-.614 1.98 1.74 1.98 1.74s4.4 1.503 4.686 1.619c.285.114 3.999 1.256 3.999 1.256s4.571 2.972 4.571 3.715c0 .742 2.514 4.741 2.514 4.741l-.084.453c-.581 3.15-4.011 21.719-4.43 24.176Z"
    fill="#7598D6"/>
  <path
    d="M265.489 63.029s-9.886-2.629-10.857-3.258c-.972-.628-6.685 3.03.286 8 0 0 8.524 1.772 10.804 0 2.281-1.771-.233-4.742-.233-4.742Z"
    fill="#FCB6AC"/>
  <path opacity=".1"
        d="m286.859 47.374 1.2.057 3.543 9.485s2.114 4.971 2.514 5.771c.4.8.228 4.115 0 5.085-.229.971-1.715 5.257-1.772 6.343-.057 1.086-2.742 2.172-5.485 2-2.743-.172-9.143.686-9.143.686s-6.834-.715-11.027 1.428c0 0-2.687-5.543-2.4-15.885 0 0 4.742-.285 5.942.172 1.2.457 7.028 1.771 7.771 1.085.742-.685 4.114 1.258 4.114 1.258a2.892 2.892 0 0 0 0-2.401c-.571-1.371-1.543-5.656-.285-7.028 1.256-1.372 5.028-8.056 5.028-8.056Z"
        fill="#000"/>
  <path opacity=".1"
        d="M283.954 76.869c-2.837.191-6.009.616-6.009.616s-6.834-.715-11.029 1.428c0 0-2.685-5.542-2.398-15.884 0 0 4.741-.286 5.942.171 1.199.458 7.028 1.772 7.77 1.086.743-.685 4.115 1.257 4.115 1.257a2.904 2.904 0 0 0 0-2.4c-.571-1.37-1.543-5.657-.286-7.029 1.257-1.37 5.029-8.056 5.029-8.056l1.114.053c-.58 3.15-4.01 21.718-4.429 24.175-.18 1.068-.048 2.836.181 4.583Z"
        fill="#000"/>
  <path
    d="m287.088 47.6 1.199.058 3.543 9.486s2.114 4.97 2.514 5.77c.4.8.229 4.115 0 5.086-.228.97-1.714 5.257-1.771 6.342-.057 1.086-2.743 2.171-5.485 2-2.743-.171-9.143.686-9.143.686s-6.835-.715-11.029 1.428c0 0-2.685-5.542-2.398-15.884 0 0 4.741-.286 5.942.171 1.199.457 7.028 1.772 7.77 1.085.743-.685 4.115 1.258 4.115 1.258a2.907 2.907 0 0 0 0-2.401c-.571-1.37-1.543-5.657-.286-7.027 1.257-1.372 5.029-8.057 5.029-8.057Z"
    fill="#7598D6"/>
  <path d="m275.016 68.589 1.425.882 7.946-12.832-1.426-.882-7.945 12.832Z" fill="#E4E8EF"/>
  <path
    d="M288.461 54.903c1.405-2.268 1.253-4.905-.337-5.89-1.591-.983-4.019.055-5.423 2.323-1.404 2.269-1.254 4.905.337 5.89 1.591.984 4.018-.055 5.423-2.323Z"
    fill="#E4E8EF"/>
  <path
    d="M287.649 54.398c1.006-1.628.899-3.52-.244-4.227-1.141-.707-2.884.04-3.892 1.667-1.007 1.628-.899 3.52.243 4.228 1.141.706 2.885-.04 3.893-1.668Z"
    fill="#BBCADF"/>
  <path d="m275.457 67.876-4.061 6.558a.838.838 0 0 0 1.426.883l4.06-6.558a.839.839 0 1 0-1.425-.883Z" fill="#4E6896"/>
  <path
    d="m262.574 75.714 3.485-.972s17.199.456 11.429-6.628c0 0-3.029-2.915-9.372-.571-6.341 2.342-8.113 2.627-8.113 2.627l2.571 5.544Z"
    fill="#FCB6AC"/>
  <path opacity=".1"
        d="M260.004 45.83a.683.683 0 0 0 .685-.686.683.683 0 0 0-.685-.685.686.686 0 0 0 0 1.37Zm11.77-.401a.69.69 0 0 0 .658-.417.69.69 0 0 0-.156-.764.68.68 0 0 0-.502-.191.685.685 0 0 0 0 1.372Z"
        fill="#000"/>
  <path d="M260.003 45.6a.685.685 0 1 0 0-1.37.685.685 0 0 0 0 1.37Z" fill="#fff"/>
  <path opacity=".1"
        d="M260.974 55.315a.69.69 0 0 0 .634-.423.693.693 0 0 0 0-.525.69.69 0 0 0-.634-.423.684.684 0 0 0 0 1.37Zm11.143-.685a.687.687 0 0 0 .485-1.17.687.687 0 0 0-1.17.484.684.684 0 0 0 .685.686Z"
        fill="#000"/>
  <path d="M260.974 55.085a.685.685 0 1 0 .001-1.369.685.685 0 0 0-.001 1.37Z" fill="#fff"/>
  <path opacity=".1"
        d="M271.832 87.717a.684.684 0 1 0 0-1.369.684.684 0 0 0 0 1.37Zm-9.025 0a.685.685 0 1 0 .001-1.37.685.685 0 0 0-.001 1.37Z"
        fill="#000"/>
  <path d="M271.832 87.488a.687.687 0 0 0 .485-1.17.687.687 0 0 0-.97.97c.129.128.303.2.485.2Z" fill="#fff"/>
  <path opacity=".1"
        d="M263.493 99.198a.687.687 0 0 0 .485-1.17.686.686 0 1 0-.485 1.17Zm8.624-.686a.685.685 0 1 0 .001-1.37.685.685 0 0 0-.001 1.37Z"
        fill="#000"/>
  <path
    d="M263.493 98.97a.687.687 0 1 0 0-1.373.687.687 0 0 0 0 1.373Zm-.686-11.482a.685.685 0 1 0 .001-1.37.685.685 0 0 0-.001 1.37Zm9.31 10.793a.687.687 0 0 0 .485-1.17.687.687 0 0 0-1.17.485.684.684 0 0 0 .685.685Zm-.343-53.08a.686.686 0 1 0 0-1.372.686.686 0 0 0 0 1.372Zm.343 9.199a.687.687 0 0 0 .485-1.17.686.686 0 1 0-.485 1.17Z"
    fill="#fff"/>
  <path opacity=".1"
        d="M273.145 77.77s.114 15.657.457 18.457c0 0 .125-17.718-.457-18.456Zm2.914 7.258c-.235 0 4.685 18.342 4.914 19.656.228 1.314-3.542-19.656-4.914-19.656Zm3.886-2.972c0 .172 2.742 9.943 4.114 10.457 1.371.514-4.114-10.457-4.114-10.457Zm10.799-19.026s-5.828.259-5.999 1.1c-.172.842 5.999-1.1 5.999-1.1Zm-10.285 74.509s-4.172 1.771-3.542 1.886c.628.114 3.542-1.886 3.542-1.886Zm-8.628-2.629c-.163-.366 2.8 1.485 2.8 1.714 0 .228-2.571-1.2-2.8-1.714Zm3.885 6.001s3.258-.164 3.486 1.089c.229 1.254-3.486-1.089-3.486-1.089Zm-23.427-.008s3.543-.692 3.828 0c.286.693-3.828 0-3.828 0Zm1.314 21.55s.233 2.914-.626 3.599.626-3.599.626-3.599Zm-.433 6.17c1.118.115 7.004-.914 6.947 0-.057.915-6.947 0-6.947 0Zm27.003-3.543s-2.007-.309-1.518 1.046l1.518-1.046ZM242.861 51.03h-1.086l-1.657 6.055s-.572 2.115-1.143 2.629c-.571.514.514 5.2.514 5.2s-.628 3.314-1.142 4.171c-.514.857.799 2.972.799 2.972l2.629 6.17 6.971 1.828s12.285 2.687 12.856 3.087c.573.4 1.087-.172 1.486-3.886.4-3.714 1.486-10.913 2.343-11.256 0 0-6.857.742-7.428.628-.571-.114-3.314.057-3.314.057s-3.6-.228-4.171.114c-.571.343.742-1.66.742-1.66a5.499 5.499 0 0 0 0-2.797c-.4-1.543-.628-19.028-8.399-13.313Z"
        fill="#000"/>
  <path opacity=".1"
        d="M265.203 68.684c-.858.343-1.943 7.543-2.343 11.256-.4 3.715-.915 4.286-1.486 3.886-.463-.325-8.653-2.158-11.714-2.834.482-2.846.744-6.023.744-6.023l-8.686-23.255h.915c7.771-5.714 7.999 11.77 8.399 13.314.24.916.24 1.88 0 2.796 0 0-1.315 2.002-.743 1.66.571-.343 4.171-.114 4.171-.114s2.743-.172 3.315-.058c.571.115 7.428-.628 7.428-.628Z"
        fill="#000"/>
  <path
    d="M242.633 51.257h-1.087l-1.656 6.057s-.572 2.114-1.143 2.628c-.572.514.514 5.2.514 5.2s-.629 3.314-1.143 4.171c-.514.857.8 2.971.8 2.971l2.628 6.171 6.972 1.83s12.285 2.684 12.856 3.084c.572.4 1.086-.171 1.486-3.885.4-3.714 1.485-10.914 2.343-11.257 0 0-6.857.744-7.429.63-.571-.116-3.314.057-3.314.057s-3.6-.23-4.171.114c-.571.343.743-1.66.743-1.66a5.5 5.5 0 0 0 0-2.797c-.4-1.543-.629-19.028-8.399-13.314Z"
    fill="#7598D6"/>
  <path opacity=".1"
        d="M246.346 71.94s-3.142 5.944-3.713 5.258c-.572-.686 3.713-5.257 3.713-5.257Zm-3.256-3.38s-2.914 2.412-1.544 3.04c1.372.628 1.544-3.04 1.544-3.04Zm2.742-2.961c.229.057 4.229.851 4.286 1.197.057.346-4.286-1.197-4.286-1.197Zm27.738-41.857a.593.593 0 0 0-.39.612c-.234.205-.561-.037-.75-.3-.193-.26-.409-.582-.699-.546-.138.044-.272.1-.401.167-.457.147-.843-.391-1.099-.86l-1.337-2.475c-.894.518-1.95-.024-2.837-.561-.886-.538-1.943-1.084-2.839-.565-1.313.76-1.362 3.29-2.724 3.913-.439.201-.948.158-1.355.434-.402.275-.62.803-.8 1.307a1.388 1.388 0 0 1-.448.738.984.984 0 0 1-.461.112c-.404.07-.82.011-1.189-.167a1.002 1.002 0 0 1-.412-1.187.82.82 0 0 1 .036-.067c.147-.177.279-.366.394-.565.137-.363-.059-.786-.016-1.18.071-.67.782-1.025.903-1.686.05-.258-.003-.534.046-.796a.586.586 0 0 1 .027-.1l-.419.289c.469-.547.705-1.306 1.048-1.969a6.053 6.053 0 0 1 3.697-3.01c1.491-.433 3.065-.315 4.569.053 1.43.357 2.8.92 4.066 1.675.453.243.855.57 1.185.963.276.407.511.84.701 1.296.443.918 1.655 1.768.691 1.896-.803.108-.071.67.349 1.05.095.073.176.163.242.264a.946.946 0 0 1-.05.917c-.163.206.496.247.272.348Z"
        fill="#000"/>
  <path
    d="M273.57 23.513a.593.593 0 0 0-.39.614c-.234.205-.56-.037-.75-.3-.192-.26-.409-.583-.699-.546-.138.043-.272.099-.401.166-.457.147-.843-.392-1.099-.861l-1.337-2.473c-.893.518-1.95-.026-2.836-.563-.887-.537-1.943-1.083-2.839-.565-1.314.76-1.363 3.29-2.725 3.914-.439.2-.948.157-1.355.433-.402.275-.62.803-.799 1.308a1.396 1.396 0 0 1-.449.738.98.98 0 0 1-.461.112c-.404.069-.82.01-1.189-.167a.997.997 0 0 1-.411-1.188.82.82 0 0 1 .036-.066c.146-.177.278-.366.393-.565.138-.363-.059-.786-.016-1.18.071-.671.782-1.026.904-1.686.049-.259-.004-.535.045-.795a.7.7 0 0 1 .028-.1l-.419.287c.468-.547.704-1.305 1.047-1.967a6.044 6.044 0 0 1 3.697-3.011c1.491-.434 3.066-.315 4.57.053 1.43.356 2.799.92 4.065 1.675.453.243.855.57 1.185.962.276.408.511.842.701 1.296.444.92 1.656 1.769.691 1.898-.803.107-.071.67.349 1.048.095.074.177.164.242.265a.944.944 0 0 1-.049.916c-.163.207.496.248.271.348Z"
    fill="#9298AF"/>
  <path opacity=".1"
        d="m273.106 21.984-.091.962s-9.59-12.155-17.051 1.571l-.099-.448c.147-.177.279-.366.394-.565.137-.363-.06-.786-.016-1.18.071-.671.781-1.026.903-1.686.05-.259-.003-.535.046-.795a.587.587 0 0 1 .027-.1l-.419.287c.469-.547.705-1.305 1.047-1.967a6.061 6.061 0 0 1 3.698-3.011c1.49-.434 3.065-.315 4.569.053 1.43.356 2.8.92 4.066 1.675.453.243.855.57 1.185.962.276.408.511.842.701 1.296.443.92 1.655 1.769.691 1.898-.803.107-.071.67.349 1.048Z"
        fill="#000"/>
  <path
    d="M255.964 24.288s-1.38-6.165-.941-7.154c0 0-1.191-2.443-1.191-3.025a5.786 5.786 0 0 0-.877-2.733c-.628-.989-1.317-5.583 2.445-6.688 3.761-1.105 6.644-2.094 7.083-2.85.439-.756 6.895-.29 8.651 2.618 1.755 2.907 2.883 2.327 2.883 2.327s2.696 1.686 2.696 3.198c0 1.513-.815 2.268 0 2.617.815.349.188 6.63-3.385 6.805l-.313 3.315s-9.591-12.156-17.051 1.57Z"
    fill="#7598D6"/>
  <path opacity=".1"
        d="M256.374 5.888s-.828 4.857.687 6.486l-.687-6.486Zm3.886-1.114s-2.114 5.2-1.6 6.2l1.6-6.2Zm1.829-1.657s-1.429 6.771-.744 7.314l.744-7.314Zm2.457 1.827s-1.772 4.343-1.058 4.943l1.058-4.943Zm3.342.517s-2.086 3.543-1.657 4.17l1.657-4.17Zm4.286 3.456s-2.229.6-1.772 1.315l1.772-1.315Zm2.114 3.684s-2 .973-1.629 1.486l1.629-1.486Zm-19.265 4.532s12.774-5.189 18.305 2.268c0 0-6.713-5.707-18.305-2.268Z"
        fill="#000"/>
  <path
    d="m247.714 59.63 2.208-2.233 6.24 6.168-2.207 2.234-5.739-5.674-.502-.496Zm-18.635-19.212a1.574 1.574 0 0 1-.48-1.11 1.556 1.556 0 0 1 .453-1.123 1.576 1.576 0 0 1 1.116-.466 1.574 1.574 0 0 1 1.117.466l4.008 3.962a1.573 1.573 0 0 1 .012 2.22 1.568 1.568 0 0 1-2.22.012l-4.006-3.96Z"
    fill="#4E6896"/>
  <path d="m231.684 46.38 5.483-5.577 15.503 15.409-5.483 5.577-14.257-14.17-1.246-1.238Z" fill="#BBCADF"/>
  <path d="M237.248 44.207s4.535.653 10.511 8.996c5.976 8.342-10.511-8.996-10.511-8.996Z" fill="#AFBED3"/>
  <path
    d="M262.098 62.815s-7.488-2.73-8.224-3.383c-.736-.652-5.064 3.145.217 8.308 0 0 6.456 1.839 8.183 0 1.728-1.84-.176-4.925-.176-4.925Z"
    fill="#FCB6AC"/>
  <path d="M244.66 181.802s-4.597 5.613-.947 14.098L207 211.823l-3.523.738-1.623-7.099 1.086-8.96v-4.896l41.72-9.804Z"
        fill="#D5D6DB"/>
  <path d="m128.726 178.175 50.813-9.263 67.332 10.726-41.82 15.056-76.325-16.519Z" fill="#6C63FF"/>
  <path d="m128.726 178.175 50.813-9.263 67.332 10.726-41.82 15.056-76.325-16.519Z" fill="#7598D6"/>
  <path d="M128.726 178.174s-4.753 9.004.723 17.32l75.354 16.329s-4.677-7.173.241-17.128l-76.318-16.521Z"
        fill="#7598D6"/>
  <path opacity=".1" d="M128.726 178.174s-4.753 9.004.723 17.32l75.354 16.329s-4.677-7.173.241-17.128l-76.318-16.521Z"
        fill="#000"/>
  <path opacity=".1" d="M130.971 181.296s-2.716 6.588 0 10.852v-10.852Z" fill="#000"/>
  <path
    d="m204.803 211.823 42.068-17.95s2.353.506.832 2.23c-1.522 1.724-42.088 17.444-42.088 17.444l-76.165-18.052 75.353 16.328Z"
    fill="#7598D6"/>
  <path opacity=".1"
        d="m204.803 211.823 42.068-17.95s2.353.506.832 2.23c-1.522 1.724-42.088 17.444-42.088 17.444l-76.165-18.052 75.353 16.328Z"
        fill="#000"/>
  <path opacity=".1"
        d="M201.355 196.509s-4.057 4.868 0 12.17v-12.17Zm19.639-.083-18.195 6.071.063.193 18.197-6.072-.065-.192Zm3.645-.604-21.847 8.308.073.189 21.846-8.307-.072-.19Zm3.348-.028-25.072 10.262.076.188 25.072-10.262-.076-.188Zm3.639-.881-28.419 12.839.084.184 28.419-12.838-.084-.185Zm3.058.007-31.252 13.66.082.186 31.251-13.66-.081-.186Zm6.689-1.137-37.47 16.182.08.187 37.47-16.183-.08-.186Z"
        fill="#000"/>
  <path opacity=".3" d="m147.604 179.166 35.699-7.504 21.748 4.158-29.254 9.431-28.193-6.085Z" fill="#fff"/>
  <path d="M246.871 179.638s1.846.744.763 1.895c-1.083 1.149-42.589 13.161-42.589 13.161l41.826-15.056Z"
        fill="#6C63FF"/>
  <path
    d="M264.8 162.293s-4.597 5.611-.946 14.097l-36.712 15.922-3.523.743-1.624-7.099 1.102-8.957v-4.903l41.703-9.803Z"
    fill="#D5D6DB"/>
  <path d="m148.867 158.665 50.813-9.261 67.332 10.725-41.82 15.057-76.325-16.521Z" fill="#FF7067"/>
  <path d="M148.859 158.665s-4.755 9.004.722 17.321l75.353 16.328s-4.675-7.178.25-17.13l-76.325-16.519Z"
        fill="#FF7067"/>
  <path opacity=".1"
        d="M148.859 158.665s-4.755 9.004.722 17.321l75.353 16.328s-4.675-7.178.25-17.13l-23.829-5.157-52.496-11.362Z"
        fill="#000"/>
  <path opacity=".1" d="M151.11 161.788s-2.713 6.585 0 10.85v-10.85Z" fill="#000"/>
  <path
    d="m224.943 192.313 42.07-17.951s2.351.508.83 2.232c-1.522 1.724-42.089 17.444-42.089 17.444l-76.164-18.053 75.353 16.328Z"
    fill="#FF7067"/>
  <path opacity=".1"
        d="m224.943 192.313 42.07-17.951s2.351.508.83 2.232c-1.522 1.724-42.089 17.444-42.089 17.444l-76.164-18.053 75.353 16.328Z"
        fill="#000"/>
  <path opacity=".1"
        d="M221.495 177s-4.058 4.869 0 12.171V177Zm19.641-.08-18.197 6.07.065.193 18.195-6.07-.063-.193Zm3.647-.606-21.847 8.307.072.19 21.847-8.308-.072-.189Zm3.344-.031-25.071 10.263.076.187 25.073-10.261-.078-.189Zm3.642-.879-28.418 12.838.083.185 28.419-12.838-.084-.185Zm3.056.001-31.253 13.661.081.185 31.252-13.66-.08-.186Zm6.69-1.134-37.47 16.182.081.186 37.469-16.182-.08-.186Z"
        fill="#000"/>
  <path opacity=".45" d="m167.745 159.658 35.699-7.505 21.749 4.159-29.254 9.431-28.194-6.085Z" fill="#fff"/>
  <path d="M267.012 160.129s1.845.745.763 1.892c-1.081 1.149-42.583 13.163-42.583 13.163l41.82-15.055Z" fill="#FF7067"/>
  <path
    d="M266.707 139.976s-4.599 10.074-.948 18.559l-36.714 11.46-3.514.745-1.623-7.099 1.085-8.96v-4.902l41.714-9.803Z"
    fill="#D5D6DB"/>
  <path d="m150.779 136.349 50.815-9.263 67.334 10.726-41.824 15.056-76.325-16.519Z" fill="#7598D6"/>
  <path d="M150.78 136.348s-4.76 9.004.716 17.32l75.354 16.328s-4.678-7.178.246-17.127l-76.316-16.521Z" fill="#7598D6"/>
  <path opacity=".1" d="M150.78 136.348s-4.76 9.004.716 17.32l75.354 16.328s-4.678-7.178.246-17.127l-76.316-16.521Z"
        fill="#000"/>
  <path opacity=".1" d="M153.026 139.469s-2.717 6.589 0 10.852v-10.852Z" fill="#000"/>
  <path
    d="m226.857 169.995 42.069-13.488s2.352.507.831 2.231c-1.521 1.724-42.089 12.982-42.089 12.982l-76.164-18.053 75.353 16.328Z"
    fill="#7598D6"/>
  <path opacity=".1"
        d="m226.857 169.995 42.069-13.488s2.352.507.831 2.231c-1.521 1.724-42.089 12.982-42.089 12.982l-76.164-18.053 75.353 16.328Z"
        fill="#000"/>
  <path opacity=".1"
        d="M223.409 154.682s-4.056 4.867 0 12.17v-12.17Zm19.643-.081-18.197 6.072.065.192 18.195-6.071-.063-.193Zm3.645-.604-21.846 8.308.072.189 21.846-8.307-.072-.19Zm3.343-.031-25.073 10.261.077.189 25.072-10.263-.076-.187Zm3.645-.882-28.42 12.838.084.185 28.419-12.838-.083-.185Zm3.055.005-31.251 13.66.081.186 31.252-13.66-.082-.186Zm6.69-1.134-37.47 16.183.081.187 37.47-16.184-.081-.186Z"
        fill="#000"/>
  <path opacity=".3" d="m169.657 137.339 35.699-7.504 21.749 4.158-29.253 9.431-28.195-6.085Z" fill="#fff"/>
  <path d="M268.926 137.812s1.845.743.762 1.894c-1.083 1.15-42.584 13.162-42.584 13.162l41.822-15.056Z" fill="#7598D6"/>
  <path
    d="M76.742 104.899s5.849-29.097 3.61-32.717c0 0-.082-3.365.053-7.655v-.492c-.395.263-.804.5-1.23.71a9.947 9.947 0 0 1-6.694.863l1.771-1.973c.424-.471.867-.98.96-1.605.091-.624-.163-1.18-.383-1.736-1.682-4.25-1.771-9.596 1.47-12.84 2.74-2.729 3.404-6.249 6.377-8.74 2.171-1.823 3.364-4.498 4.49-7.084.954-2.185 1.914-4.39 2.459-6.706.425-1.808.595-3.684 1.18-5.451.584-1.767 1.678-3.485 3.39-4.275.61-.28 1.285-.44 1.841-.812.73-.492 1.17-1.292 1.697-1.994 2.682-3.543 11.662-1.456 15.913-.017a8.946 8.946 0 0 1 3.145 1.743l-.039-.064c-.031-.054-.071-.107-.105-.16.465.376.867.825 1.189 1.328.62.981.878 2.126 1.397 3.189.623 1.258 4.09 4.767 2.598 6.181a1.24 1.24 0 0 1-.354.226 3.067 3.067 0 0 1-1.771.178l.064.151a10.36 10.36 0 0 1 .769 3.93c0 5.82-4.8 10.537-10.726 10.537a10.819 10.819 0 0 1-3.284-.506c-.025.135-.046.27-.071.404 0 .053-.018.106-.025.158l.188.264a.4.4 0 0 1 .031-.047l5.562 7.772c.85.599 5.746 4.141 6.022 6.798.291 2.909.582 6.312.582 6.312l.038.73a2.186 2.186 0 0 0 1.772.478c1.734-.283 1.734 6.376 1.734 6.376s1.155 1.063 1.95.142c.793-.92 2.89 2.2 2.89 2.2l13.142.567.301.017.708-2.193a.916.916 0 0 1 .537-.57.922.922 0 0 1 .781.046l.05.029.092.064.045.042a.67.67 0 0 1 .071.074l.042.05.022.02a.9.9 0 0 1 .128.794l-.61 1.882c2.537.51 5.13 1.948 3.015 5.908l10.719-1.98-3.469 2.912-17.901 3.694c.237.425.081 1.042-.659 1.91-3.189 3.744-8.998 4.76-11.335 5.023a20.118 20.118 0 0 1-2.3 3.896l.202 3.73s5.919 28.43 7.003 29.872a16.908 16.908 0 0 1-1.499-1.973c1.719 5.842 4.12 13.837 4.752 15.034 1.012 1.912 1.951 9.653.796 10.149-.354.152-1.368.077-2.813-.033v.642l.064 24.296s-.29 14.903.508 16.324c.796 1.419 1.009 4.398 1.009 4.398s3.188 5.877 5.713 8.24a.527.527 0 0 0 .056.05l.079-.554s3.035 3.834 9.752 3.618c0 0 4.041 2.628-1.952 2.77-5.994.142-13.648-.213-13.648-.213s-5.346-8.147-9.823-7.084v6.174h-1.372v-6.274a5.601 5.601 0 0 1-2.44-3.694 4.492 4.492 0 0 1 1.601-4.156 2.64 2.64 0 0 0 .875-1.941l.05.043c0-.124.032-.251.045-.382.394-3.189.887-9.767-.853-14.633-2.384-6.674-3.107-15.969-1.371-21.502a49.127 49.127 0 0 0 1.378-5.388c.042-.231.082-.451.116-.656-1.186.161-2.36.398-3.516.709-4.021 1.108-12.816 1.313-20.326 1.254-.018.205-.04.421-.064.637a23.201 23.201 0 0 1-.835 4.435c-.944 2.835-1.375 15.328-1.375 15.328s-1.215 10.272-.553 14.452c.354 2.324.708 4.658.91 7.003v.047s1.991 5.667 3.448 8.746c.034.077.073.155.11.229.388.036.77.121 1.136.252 0 0 1.952 3.897 3.897 4.542 1.944.644 1.3 2.766-3.103 1.986-4.403-.778-11.053-1.416-11.053-1.416l-.286-3.975-1.353-1.693.354 3.964-1.442-.283.19-4.821-2.213-2.771s-2.674-2.38 1.3-7.063v.103c.043-.068.082-.139.128-.205v-.022c.659-1.02 1.183-2.922.223-6.298a139.02 139.02 0 0 1-2.745-11.637s-3.875-14.831.783-21.849h-.205a11.782 11.782 0 0 0 1.066-3.51c-3.447-.198-6.83-.822-9.59-2.167.011-.015 1.672-35.211 3.047-40.815ZM120.5 80.35v.072l.708.035-.708-.107Zm2.429.338a.786.786 0 0 1 .32.152c.304.43.496.93.556 1.456l1.105-.248s.776-.167 1.891-.354l.529-.532c-1.453-.12-2.961-.297-4.4-.474h-.001Z"
    fill="url(#b)"/>
  <path d="m86.363 201.182.421 5.019-1.413-.283.213-5.444.78.708Z" fill="#7D7D95"/>
  <path
    d="M118.609 177.349c1.703 4.853 1.222 11.402.839 14.584-.141 1.176-.273 1.891-.273 1.891s2.548 5.803 2.76 6.023c.212.218 7.495 4.664 7.495 4.664l5.091 2.972s5.165-2.263 2.688-3.043a3.752 3.752 0 0 1-1.335-.91c-2.48-2.356-5.593-8.211-5.593-8.211s-.213-2.971-.993-4.386c-.779-1.413-.496-16.266-.496-16.266l-.06-24.212v-3.156l-9.688.071a21.922 21.922 0 0 1-.418 3.188 48.602 48.602 0 0 1-1.35 5.371c-1.707 5.522-.998 14.771 1.333 21.42Z"
    fill="#E8C9C5"/>
  <path opacity=".1"
        d="M119.176 193.825s2.546 5.802 2.758 6.022c.213.219 7.496 4.665 7.496 4.665l5.091 2.972s5.165-2.263 2.689-3.043a3.756 3.756 0 0 1-1.336-.91l-.22 1.548-1.697-.071-14.523-13.068a28.857 28.857 0 0 1-.258 1.885Z"
        fill="#000"/>
  <path
    d="m119.353 192.271 14.604 13.156 1.697.071.354-2.48s2.969 3.819 9.565 3.606c0 0 3.96 2.618-1.909 2.76-5.87.141-13.365-.213-13.365-.213s-5.236-8.147-9.618-7.084v6.153h-1.346v-6.209a5.6 5.6 0 0 1-2.387-3.684 4.507 4.507 0 0 1 1.562-4.138 2.675 2.675 0 0 0 .843-1.938Z"
    fill="#7D7D95"/>
  <path
    d="M85.016 184.916c.943 3.364.43 5.26-.216 6.276v.021a11.602 11.602 0 0 0-1.692 4.135l-.057.318 6.644 9.689 3.607 1.416s5.798-1.98 4.739-2.547c-.265-.137-.68-.875-1.153-1.891-1.418-3.064-3.374-8.718-3.374-8.718v-.046c-.206-2.334-.531-4.661-.892-6.978-.648-4.169.542-14.403.542-14.403s.425-12.444 1.346-15.274c.416-1.439.692-2.915.825-4.407.192-1.771.234-3.23.234-3.23s-3.818-5.314-10.818.424a7.686 7.686 0 0 0-1.463 1.588c-4.836 6.879-.941 22.033-.941 22.033s.973 5.511 2.67 11.594Z"
    fill="#E8C9C5"/>
  <path opacity=".1"
        d="m83.041 195.668 6.644 9.687 3.607 1.417s5.798-1.98 4.739-2.547c-.265-.138-.68-.874-1.153-1.892-2.456-.021-3.728 2.318-3.728 2.318l-3.11-.496s-4.102-8.063-5.023-8.555c-.92-.493-.142-3.681-.142-3.681v-.811c-.024.028-.045.06-.074.089v.021a11.602 11.602 0 0 0-1.692 4.133l-.068.317Z"
        fill="#000"/>
  <path
    d="M92.936 204.858s1.772-3.252 5.166-2.051c0 0 1.909 3.896 3.818 4.528 1.909.63 1.272 2.755-3.043 1.98-4.314-.776-10.818-1.417-10.818-1.417l-.283-3.965-4.385-5.585s-2.614-2.371 1.275-7.035v.811s-.78 3.188.142 3.68c.92.493 5.008 8.559 5.008 8.559l3.12.495Z"
    fill="#7D7D95"/>
  <path opacity=".1"
        d="M119.033 147.365a21.936 21.936 0 0 1-.418 3.189c3.988-.585 7.69-.294 10.117-.104v-3.156l-9.699.071Zm-36.139 4.806s5.669.276 12.427.333c.19-1.771.233-3.23.233-3.23s-3.818-5.314-10.817.425a7.672 7.672 0 0 0-1.464 1.587c-.11.302-.236.597-.379.885Z"
        fill="#000"/>
  <path
    d="M82.894 151.534s24.825 1.202 32.391-.92c7.567-2.122 15.066-.283 16.196-.776 1.13-.492.212-8.204-.78-10.113-.991-1.91-6.433-21.218-6.433-21.218l-5.235-27.297-5.515-1.52-.389-.11-9.612-2.65-7.042-1.945s-14.001 54.669-12.8 58.7c.435 1.544.505 3.167.204 4.743a11.823 11.823 0 0 1-.983 3.106h-.002Z"
    fill="#7598D6"/>
  <path d="M137.283 72.54s4.96 5.313 1.204 8.275c-3.755 2.961-6.223.283-6.223.283l5.019-8.558Z" fill="#C7DAF5"/>
  <path opacity=".1" d="M137.283 72.54s4.96 5.313 1.204 8.275c-3.755 2.961-6.223.283-6.223.283l5.019-8.558Z"
        fill="#000"/>
  <path
    d="M97.217 37.607s.58.553 1.455 1.368c1.553 1.457 3.13 2.89 4.729 4.296 2.267 1.974 4.138 3.423 3.468 2.186-.669-1.237-.542-3.39-.209-5.406.025-.134.046-.27.071-.4.276-1.48.641-2.943 1.094-4.378 0 0-3.662-4.732-5.689-6.6-.754-.709-1.282-.999-1.314-.506-.035.662-.53 2.126-1.147 3.677a87.31 87.31 0 0 1-1.34 3.24c-.363.845-.736 1.686-1.118 2.523Z"
    fill="#E8C9C5"/>
  <path opacity=".1"
        d="M99.618 31.989a10.52 10.52 0 0 0 7.042 8.061 36.83 36.83 0 0 1 1.166-4.778s-6.896-8.91-7.003-7.106c-.024.683-.563 2.2-1.205 3.823Zm7.73 10.441-.893-1.258s-.592 3.607-2.767 2.017c-2.174-1.591-2.28 11.97-2.28 11.97l2.334 34.901 16.868-1.009-.478-16.865-1.909-8.502-4.723-12.359-2.808-4.085-3.344-4.81Z"
        fill="#000"/>
  <path
    d="m101.408 55.374 2.125 31.559.222 3.343 9.406-.563.355-.021 7.084-.425-.478-16.868-1.91-8.502-4.722-12.36-2.809-4.084-3.343-4.827-.893-1.255s-.592 3.607-2.767 2.016l-.045-.031c-2.126-1.347-2.225 12.018-2.225 12.018Z"
    fill="#7598D6"/>
  <path
    d="M117.974 60.943s.846 1.77 2.547 1.484c1.701-.287 1.697 6.376 1.697 6.376s1.13 1.063 1.91.141c.778-.92 2.833 2.193 2.833 2.193l12.872.567s-5.727 2.618-4.604 10.539c0 0-19.447-1.205-20.085-3.043-.638-1.839 2.83-18.257 2.83-18.257Z"
    fill="#fff"/>
  <path opacity=".03"
        d="M117.974 60.943s.846 1.77 2.547 1.484c1.701-.287 1.697 6.376 1.697 6.376s1.13 1.063 1.91.141c.778-.92 2.833 2.193 2.833 2.193l12.872.567s-5.727 2.618-4.604 10.539c0 0-19.447-1.205-20.085-3.043-.638-1.839 2.83-18.257 2.83-18.257Z"
        fill="#000"/>
  <path
    d="m155.385 75.867-3.394 2.898-27.934 5.87 3.464-3.536 27.864-5.232Zm-48.09-32.32c.463.709 1.791 4.337 2.901 7.502.924 2.64 1.696 4.96 1.696 4.96s1.804 11.739 2.724 13.86c.921 2.123.422 10.398.422 10.398l3.432 20.435s1.555 10.538 3.956 16.833c2.371 6.196 5.01 9.1 5.092 9.192-1.063-1.438-6.854-29.755-6.854-29.755l-1.915-35.713s-.279-3.394-.562-6.295c-.284-2.901-6.022-6.861-6.022-6.861l-5.534-7.868c-.555.744-.184 2.04.664 3.312Z"
    fill="#fff"/>
  <path d="M121.722 89.445s8.147-.355 12.094-5.095c3.946-4.739-9.122-1.891-9.122-1.891l-3.397.779.425 6.207Z"
        fill="#E8C9C5"/>
  <path opacity=".1"
        d="M83.674 143.686c.437 1.544.507 3.168.206 4.744 8.888.63 18.395-1.772 18.395-1.772 1.771 1.63 6.436 4.032 6.436 4.032l2.544-31.526c1.626-4.251 2.263-26.522 2.263-26.522s-.146-1.166-.354-2.912c0-.042 0-.088-.018-.131-.635-4.877-1.891-14.035-2.508-15.271-.85-1.7 2.615-6.223 2.615-6.223l-1.576-13.444-.192-1.621c-3.323-1.485-5.87-6.225-5.87-6.225l-1.955-3.424c-2.126-1.365-2.235 12-2.235 12l2.126 31.559-7.042-1.945s-14.036 54.65-12.835 58.681Z"
        fill="#000"/>
  <path
    d="M74.554 145.866c9.687 4.81 27.296.354 27.296.354 1.771 1.629 6.436 4.031 6.436 4.031l2.547-31.526c1.622-4.251 2.26-26.521 2.26-26.521s-2.048-16.616-2.898-18.314c-.248-.496-.127-1.232.167-2.026A25.653 25.653 0 0 0 111.914 60l-.68-5.777-.189-1.618c-3.326-1.488-5.873-6.228-5.873-6.228l-1.771-3.103-3.258-5.717-1.545-2.707-.262.238-2.001 1.813-2.126 1.772c-2.773 2.338-7.566 6.454-10.039 8.973-2.174 2.216-2.862 10.842-3.06 17.335-.132 4.276-.053 7.626-.053 7.626 2.192 3.61-3.543 32.59-3.543 32.59-1.336 5.6-2.96 40.669-2.96 40.669Z"
    fill="#fff"/>
  <path opacity=".03"
        d="M93.15 46.307s6.649 12.656 5.877 17.466c-.772 4.81-2.97 10.256-1.91 11.527a3.915 3.915 0 0 0 3.114 1.555c1.062.07 3.896 2.052 3.896 2.263 0 .213 2.618.213 4.96 1.205 2.341.992 5.799 1.555 5.799 1.555s6.73-.212 7.357.425c.626.638 1.271 4.453-.071 7.496-1.343 3.043-2.834 5.313-3.961 5.727-1.126.415-8.274-1.98-14.072-2.547-5.8-.567-12.094-5.161-12.094-5.161s-6.932-2.48-8.148-6.649c-1.215-4.17 1.484-27.084 1.484-27.084s2.042-10.68 7.77-7.778Z"
        fill="#000"/>
  <path opacity=".03"
        d="M94 45.243s6.649 12.661 5.87 17.467c-.78 4.807-2.97 10.256-1.906 11.53a3.896 3.896 0 0 0 3.109 1.555c1.063.072 3.897 2.052 3.897 2.263 0 .214 2.619.214 4.96 1.202 2.341.988 5.799 1.555 5.799 1.555s6.73-.212 7.353.425c.624.638 1.275 4.456-.071 7.496-1.345 3.039-2.834 5.313-3.96 5.727-1.126.415-8.274-1.98-14.074-2.542-5.798-.564-12.092-5.165-12.092-5.165s-6.93-2.48-8.13-6.646c-1.201-4.166 1.484-27.087 1.484-27.087s2.033-10.678 7.76-7.78Z"
        fill="#000"/>
  <path
    d="M93.36 45.668s6.647 12.66 5.869 17.468c-.78 4.806-2.97 10.254-1.91 11.526a3.897 3.897 0 0 0 3.114 1.558c1.063.071 3.896 2.052 3.896 2.26 0 .209 2.615.212 4.96 1.205 2.344.991 5.798 1.555 5.798 1.555s6.731-.213 7.357.425c.627.637 1.273 4.456-.071 7.495-1.342 3.04-2.833 5.314-3.96 5.728-1.126.415-8.274-1.98-14.073-2.547-5.799-.566-12.094-5.161-12.094-5.161s-6.932-2.48-8.146-6.649c-1.217-4.17 1.466-27.084 1.466-27.084s2.07-10.662 7.794-7.78Z"
    fill="#fff"/>
  <path opacity=".1"
        d="M91.913 75.83s7.511-1.612 4.897 1.075c-2.614 2.686-2.599 5.04-5.798 4.934-3.201-.108.9-6.01.9-6.01Zm22.56 7.762s2.472-1.425 1.128 1.502c-1.346 2.93-1.878 5.623-2.75 5.322-.872-.302 1.622-6.824 1.622-6.824Zm-30.707 27.46s2.354 5.043-2.149 16.669c-4.501 11.627 2.15-16.669 2.15-16.669Zm24.545-9.466c-.065.861-1.468 31.641-5.487 39.057-4.02 7.418 5.487-39.057 5.487-39.057Z"
        fill="#000"/>
  <path
    d="M139.615 71.687c2.564.089 8.104.871 5.231 6.23-2.539 4.745-6.808 1.573-9.209-.832a9.05 9.05 0 0 1 3.978-5.398Z"
    fill="#E8C9C5"/>
  <path opacity=".1"
        d="M94.209 38.889c2.72 1.86 5.002 3.428 5.448 3.755 1.219.902 3.543 6.205 5.041 8.912 1.193 2.179 5.073 2.738 6.536 2.877l-.189-1.62c-3.326-1.488-5.873-6.227-5.873-6.227l-6.574-11.527-2.263 2.058-2.126 1.772Z"
        fill="#000"/>
  <path
    d="M94.209 38.675c2.72 1.86 5.002 3.43 5.448 3.76 1.219.898 3.543 6.202 5.041 8.908 1.193 2.18 5.073 2.738 6.536 2.877l-.189-1.62c-3.326-1.487-5.873-6.227-5.873-6.227l-6.574-11.527-2.263 2.052s-.85.7-2.126 1.777Z"
    fill="#DCE7FF"/>
  <path d="M99.444 29.65a10.512 10.512 0 0 0 3.076 7.43 10.52 10.52 0 0 0 7.429 3.079A10.506 10.506 0 1 0 99.444 29.65Z"
        fill="#E8C9C5"/>
  <path opacity=".1"
        d="M81.11 64.984a9.338 9.338 0 0 0 3.39-3.641c.592-1.17.984-2.519 1.994-3.348.91-.743 2.126-.924 3.259-1.258 3.726-1.1 6.85-4.501 6.968-8.384.056-1.828-.514-3.652-.255-5.462a6.05 6.05 0 0 1 1.183-2.816 9.687 9.687 0 0 1 1.023-1.102c.496-.467 1.017-.92 1.471-1.417.285-.306.535-.645.743-1.009a4.78 4.78 0 0 0 .407-.939c.709-2.168.064-4.74.843-6.932l.043-.12c.295-.78.893-1.56 1.726-1.619.832-.06 1.544.63 2.337.938 1.661.645 3.454-.454 4.839-1.573 1.386-1.119 2.947-2.397 4.707-2.15 1.167.167 2.087.96 3.16 1.37.244.095.493.167.748.218a10.501 10.501 0 0 0-20.251 3.913c-.002.737.076 1.472.23 2.193a87.484 87.484 0 0 1-1.339 3.24l-2.001 1.815-2.126 1.771c-2.773 2.338-7.566 6.454-10.039 8.973-2.174 2.224-2.855 10.846-3.06 17.34Z"
        fill="#000"/>
  <path
    d="M119.073 19.052c-.506-1.031-.758-2.186-1.364-3.164-.888-1.417-2.44-2.323-4.035-2.872-4.162-1.435-12.957-3.518-15.585 0-.518.708-.947 1.494-1.662 1.983-.546.372-1.204.532-1.803.811-1.675.787-2.745 2.501-3.316 4.252-.57 1.75-.74 3.627-1.158 5.43-.534 2.312-1.474 4.505-2.408 6.684-1.103 2.571-2.271 5.238-4.396 7.056-2.901 2.48-3.544 5.99-6.235 8.71-3.188 3.23-3.086 8.562-1.442 12.796.217.555.461 1.137.376 1.728-.085.592-.524 1.13-.939 1.601l-1.743 1.967c4.123.994 8.79-1.16 10.708-4.94.593-1.168.985-2.514 2-3.346.906-.744 2.124-.92 3.254-1.255 3.726-1.104 6.85-4.509 6.968-8.392.056-1.823-.514-3.649-.256-5.454a6.022 6.022 0 0 1 1.187-2.835c.974-1.271 2.444-2.125 3.237-3.542 1.344-2.37.323-5.447 1.291-7.99.296-.78.891-1.56 1.724-1.62.833-.06 1.544.631 2.342.94 1.658.644 3.45-.45 4.835-1.574 1.386-1.123 2.947-2.398 4.711-2.147 1.166.164 2.084.957 3.156 1.372.794.305 2.401.576 3.096-.092 1.467-1.35-1.931-4.846-2.543-6.107Z"
    fill="#4E6896"/>
  <path opacity=".1"
        d="M83.087 59.927c.595-1.168.984-2.515 1.998-3.344.906-.743 2.125-.924 3.258-1.258 3.723-1.1 6.848-4.505 6.968-8.387.056-1.825-.514-3.652-.259-5.459a6.058 6.058 0 0 1 1.187-2.816c.978-1.272 2.447-2.126 3.237-3.543 1.344-2.366.323-5.444 1.294-7.99.294-.777.893-1.555 1.721-1.619.829-.064 1.548.634 2.342.942 1.657.645 3.453-.454 4.834-1.573 1.383-1.12 2.951-2.398 4.712-2.15 1.166.167 2.086.96 3.157 1.37.793.305 2.405.582 3.099-.089 1.459-1.417-1.938-4.905-2.547-6.16-.507-1.034-.758-2.185-1.367-3.162-.032-.053-.068-.106-.104-.16.456.378.85.825 1.166 1.325.606.978.857 2.125 1.364 3.163.613 1.254 4.009 4.754 2.547 6.16-.708.674-2.302.397-3.097.092-1.061-.414-1.99-1.208-3.155-1.37-1.771-.253-3.33 1.027-4.712 2.146-1.381 1.12-3.188 2.217-4.839 1.573-.793-.308-1.487-1.003-2.337-.94-.85.064-1.417.84-1.725 1.62-.967 2.543.053 5.622-1.291 7.991-.793 1.393-2.263 2.264-3.236 3.543a6.022 6.022 0 0 0-1.187 2.834c-.258 1.806.312 3.63.255 5.454-.116 3.897-3.24 7.288-6.968 8.392-1.122.333-2.348.51-3.255 1.255-1.017.832-1.417 2.178-1.999 3.347-1.918 3.78-6.584 5.934-10.707 4.938l.821-.928c3.575.053 7.192-1.98 8.825-5.197Z"
        fill="#000"/>
  <path opacity=".1"
        d="M107.507 43.76c.463.71 1.792 4.336 2.9 7.503 1.039-.404 1.981-2.98 1.981-2.98l-5.533-7.87c-.566.779-.195 2.072.652 3.348Z"
        fill="#000"/>
  <path
    d="M107.294 43.547c.465.709 1.793 4.337 2.901 7.502 1.039-.4 1.981-2.978 1.981-2.978l-5.534-7.868c-.567.776-.194 2.073.652 3.344Z"
    fill="#DCE7FF"/>
  <path d="m139.465 79.735 3.068-9.674a.903.903 0 1 0-1.722-.55l-3.067 9.664.305 2.023 1.416-1.463Z" fill="#FF7067"/>
  <path opacity=".1"
        d="M142.243 69.21a.906.906 0 0 0-1.137.588l-3.067 9.663.229 1.517-.222.232-.306-2.02 3.086-9.665a.906.906 0 0 1 1.133-.588.908.908 0 0 1 .471.354 1.258 1.258 0 0 0-.187-.081Z"
        fill="#fff"/>
  <path d="m139.465 79.736-1.721-.546.252 1.658.053.365.503-.525.913-.952Z" fill="#EFC8C4"/>
  <path
    d="M138.551 80.687a.348.348 0 0 0-.11-.092.157.157 0 0 0-.166 0 .446.446 0 0 0-.06.095.3.3 0 0 1-.22.146l.053.354.503-.503Z"
    fill="#727A9C"/>
  <path d="M142.551 73.498s-6.152-.035-4.704 2.583c1.449 2.616 3.712 2.931 3.712 2.931l.992-5.514Z" fill="#E8C9C5"/>
  <defs>
    <linearGradient id="a" x1="266.291" y1="187.683" x2="266.291" y2=".701" gradientUnits="userSpaceOnUse">
      <stop stop-color="gray" stop-opacity=".25"/>
      <stop offset=".535" stop-color="gray" stop-opacity=".12"/>
      <stop offset="1" stop-color="gray" stop-opacity=".1"/>
    </linearGradient>
    <linearGradient id="b" x1="-78638.5" y1="164400" x2="-78638.5" y2="52513.5" gradientUnits="userSpaceOnUse">
      <stop stop-color="gray" stop-opacity=".25"/>
      <stop offset=".54" stop-color="gray" stop-opacity=".12"/>
      <stop offset="1" stop-color="gray" stop-opacity=".1"/>
    </linearGradient>
  </defs>
</svg>
