<svg width="2048" height="1792" xmlns="http://www.w3.org/2000/svg"><path d="M1848 339h-511v124h511V339zm-252 426q-90 0-146 52.5T1388 960h408q-18-195-200-195zm16 585q63 0 122-32t76-87h221q-100 307-427 307-214 0-340.5-132T1137 1059q0-208 130.5-345.5T1604 576q138 0 240.5 68t153 179 50.5 248q0 17-2 47h-658q0 111 57.5 171.5T1612 1350zm-1335-50h296q205 0 205-167 0-180-199-180H277v347zm0-537h281q78 0 123.5-36.5T727 613q0-144-190-144H277v294zM0 254h594q87 0 155 14t126.5 47.5 90 96.5T997 566q0 181-172 263 114 32 172 115t58 204q0 75-24.5 136.5t-66 103.5-98.5 71-121 42-134 13H0V254z"/></svg>