<svg width="1792" height="1792" xmlns="http://www.w3.org/2000/svg"><path d="M1376 1408h32V768h-32q-35 0-67.5-12t-62.5-37-50-46-49-54q-8-9-12-14-72-81-112-145-14-22-38-68-1-3-10.5-22.5t-18.5-36-20-35.5-21.5-30.5T896 256q-71 0-115.5 30.5T736 384q0 43 15 84.5t33 68 33 55 15 48.5H256q-50 0-89 38.5T128 768q0 52 38 90t90 38h331q-15 17-25 47.5T552 999q0 69 53 119-18 32-18 69t17.5 73.5T652 1313q-4 24-4 56 0 85 48.5 126t135.5 41q84 0 183-32t194-64 167-32zm288-64q0-26-19-45t-45-19-45 19-19 45 19 45 45 19 45-19 19-45zm128-576v640q0 53-37.5 90.5T1664 1536h-288q-59 0-223 59-190 69-317 69-142 0-230-77.5T519 1369l1-5q-61-76-61-178 0-22 3-43-33-57-37-119H256q-105 0-180.5-76T0 767q0-103 76-179t180-76h374q-22-60-22-128 0-122 81.5-189T896 128q38 0 69.5 17.5t55 49.5 40.5 63 37 72 33 62q35 55 100 129 2 3 14 17t19 21.5 20.5 21.5 24 22.5 22.5 18 23.5 14 21.5 4.5h288q53 0 90.5 37.5T1792 768z"/></svg>