<svg width="2048" height="1792" xmlns="http://www.w3.org/2000/svg"><path d="M459 1792q-77 0-137.5-47.5T242 1622l-101-401q-13-57-13-108 0-45-5-67L7 569q-7-27-7-57 0-93 62-161t155-78q17-85 82.5-139T452 80q83 0 148 51.5T685 264l83 348 103-428q20-81 85-132.5T1104 0q89 0 155.5 57.5T1340 202q92 10 152 79t60 162q0 24-7 59l-123 512q10-7 37.5-28.5T1498 956t35-23 41-20.5 41.5-11 49.5-5.5q105 0 180 74t75 179q0 62-28.5 118t-78.5 94l-507 380q-68 51-153 51H459zm645-1664q-38 0-68.5 24T996 214L832 896H705L560 294q-9-38-39.5-62T452 208q-48 0-80 33t-32 80q0 15 3 28l132 547h-26l-99-408q-9-37-40-62.5T241 400q-47 0-80 33t-33 79q0 14 3 26l116 478q7 28 9 86t10 88l100 401q8 32 34 52.5t59 20.5h694q42 0 76-26l507-379q56-43 56-110 0-52-37.5-88.5T1665 1024q-43 0-77 26l-307 230v-227q0-4 32-138t68-282 39-161q4-18 4-29 0-47-32-81t-79-34q-39 0-69.5 24t-39.5 62l-116 482h-26l150-624q3-14 3-28 0-48-31.5-82t-79.5-34z"/></svg>