<svg width="2304" height="1792" xmlns="http://www.w3.org/2000/svg"><path d="M1524 1561q0 68-48 116t-116 48-116.5-48-48.5-116 48.5-116.5T1360 1396t116 48.5 48 116.5zm-749 0q0 68-48.5 116T610 1725t-116-48-48-116 48-116.5 116-48.5 116.5 48.5T775 1561zM0 67q57 60 110.5 104.5t121 82 136 63 166 45.5 200 31.5 250 18.5 304 9.5T1660 424q139 0 244.5 5t181 16.5 124 27.5 71 39.5 24 51.5-19.5 64-56.5 76.5-89.5 91T2023 900t-139 119q-185 157-286 247 29-51 76.5-109t94-105.5T1863 953t83-91.5 54-80.5 13-70-45.5-55.5-116.5-41-204-23.5-304-5q-168 2-314-6t-256-23-204.5-41T409 464.5 286.5 402 195 335.5 127 264t-50.5-69.5-40-68T0 67z"/></svg>