<svg width="1792" height="1792" xmlns="http://www.w3.org/2000/svg"><path d="M1255 787q0-318-105-474.5T820 156q-222 0-326 157T390 787q0 316 104 471.5T820 1414q74 0 131-17-22-43-39-73t-44-65-53.5-56.5-63-36T674 1152q-46 0-79 16l-49-97q105-91 276-91 132 0 215.5 54t150.5 155q67-149 67-402zm390 632h117q3 27-2 67t-26.5 95-58 100.5-107 78T1406 1792q-71 0-130.5-19t-105.5-56-79-78-66-96q-97 27-205 27-150 0-292.5-58t-253-158.5-178-249T29 787q0-170 67.5-319.5T275 217 528.5 58 820 0q121 0 238.5 36t217 106 176 164.5 119.5 219 43 261.5q0 190-80.5 347.5T1315 1399q47 70 93.5 106.5T1513 1542q61 0 94-37.5t38-85.5z"/></svg>