<svg width="2048" height="1792" xmlns="http://www.w3.org/2000/svg"><path d="M1500 1371V638q0-21-15-36t-35-15h-93q-20 0-35 15t-15 36v733q0 20 15 35t35 15h93q20 0 35-15t15-35zm-284 0V840q0-20-15-35t-35-15h-101q-20 0-35 15t-15 35v531q0 20 15 35t35 15h101q20 0 35-15t15-35zm-292 0V942q0-20-15-35t-35-15H773q-20 0-35 15t-15 35v429q0 20 15 35t35 15h101q20 0 35-15t15-35zm-292 0v-362q0-20-15-35t-35-15H481q-20 0-35 15t-15 35v362q0 20 15 35t35 15h101q20 0 35-15t15-35zm1416-146q0 166-118 284t-284 118H402q-166 0-284-118T0 1225q0-116 63-214.5T231 862q-10-34-10-73 0-113 80.5-193.5T495 515q102 0 180 67 45-183 194-300t338-117q149 0 275 73.5T1681.5 438t73.5 275q0 66-14 122 135 33 221 142.5t86 247.5z"/></svg>