<svg width="2304" height="1792" xmlns="http://www.w3.org/2000/svg"><path d="M684 1120q-110 64-268 64H288v-64h-64q-13 0-22.5-23.5T192 1040q0-24 7-49-58-2-96.5-10.5T64 960t38.5-20.5T199 929q-7-25-7-49 0-33 9.5-56.5T224 800h64v-64h128q158 0 268 64h1113q42 7 106.5 18t80.5 14q89 15 150 40.5t83.5 47.5 22.5 40-22.5 40-83.5 47.5-150 40.5q-16 3-80.5 14t-106.5 18H684zm1119-252q53 36 53 92t-53 92l81 30q68-48 68-122t-68-122zM689 1136h1015q-217 38-456 80-57 0-113 24t-83 48l-28 24-288 288q-26 26-70.5 45t-89.5 19h-96l-93-464h29q157 0 273-64zM416 720h-29l93-464h96q46 0 90 19t70 45l288 288q4 4 11 10.5t30.5 23 48.5 29 61.5 23T1248 704l456 80H689q-116-64-273-64z"/></svg>