<svg width="2048" height="1792" xmlns="http://www.w3.org/2000/svg"><path d="M580 461q0-41-25-66t-66-25q-43 0-76 25.5T380 461q0 39 33 64.5t76 25.5q41 0 66-24.5t25-65.5zm743 507q0-28-25.5-50t-65.5-22q-27 0-49.5 22.5T1160 968q0 28 22.5 50.5t49.5 22.5q40 0 65.5-22t25.5-51zm-236-507q0-41-24.5-66T997 370q-43 0-76 25.5T888 461q0 39 33 64.5t76 25.5q41 0 65.5-24.5T1087 461zm635 507q0-28-26-50t-65-22q-27 0-49.5 22.5T1559 968q0 28 22.5 50.5t49.5 22.5q39 0 65-22t26-51zm-266-397q-31-4-70-4-169 0-311 77T851.5 852.5 770 1140q0 78 23 152-35 3-68 3-26 0-50-1.5t-55-6.5-44.5-7-54.5-10.5-50-10.5l-253 127 72-218Q0 965 0 678q0-169 97.5-311t264-223.5T725 62q176 0 332.5 66t262 182.5T1456 571zm592 561q0 117-68.5 223.5T1794 1549l55 181-199-109q-150 37-218 37-169 0-311-70.5T897.5 1396 816 1132t81.5-264T1121 676.5t311-70.5q161 0 303 70.5t227.5 192T2048 1132z"/></svg>