<svg width="2304" height="1792" xmlns="http://www.w3.org/2000/svg"><path d="M1494 1639l-295-695q-25 49-158.5 305.5T842 1639q-1 1-27.5.5T788 1638q-82-193-255.5-587T273 455q-21-50-66.5-107.5T103 247 1 204q0-5-.5-24T0 153h583v50q-39 2-79.5 16T437 262t-10 64q26 59 216.5 499T879 1365q31-61 140-266.5T1150 851q-19-39-126-281T888 275q-38-69-201-71v-50l513 1v47q-60 2-93.5 25t-12.5 69q33 70 87 189.5t86 187.5q110-214 173-363 24-55-10-79.5T1301 204q1-7 1-25v-24q64 0 170.5-.5t180-1 92.5-.5v49q-62 2-119 33t-90 81l-213 442q13 33 127.5 290t121.5 274l441-1017q-14-38-49.5-62.5t-65-31.5-55.5-8v-50l460 4 1 2-1 44q-139 4-201 145-526 1216-559 1291h-49z"/></svg>