<svg width="1792" height="1792" xmlns="http://www.w3.org/2000/svg"><path d="M1584 1290l-218-111q-74 120-196.5 189T906 1437q-147 0-271-72t-196-196-72-270q0-110 42.5-209.5t115-172 172-115T906 360q131 0 247.5 60.5T1346 589l215-125q-110-169-286.5-265T896 103q-161 0-308 63T335 335 166 588t-63 308 63 308 169 253 253 169 308 63q213 0 397.5-107t290.5-292zm-554-397l693 352q-116 253-334.5 400T896 1792q-182 0-348-71t-286-191-191-286T0 896t71-348 191-286T548 71 896 0q260 0 470.5 133.5T1702 500zm513 3h-39v160h-96V704h136q32 0 54.5 20t28.5 48 1 56-27.5 48-57.5 20z"/></svg>