<svg width="1792" height="1792" xmlns="http://www.w3.org/2000/svg"><path d="M1792 937q0 56-7 104H634q0 146 109.5 244.5T1001 1384q99 0 185.5-46.5T1323 1207h423q-56 159-170.5 281T1308 1676.5 987 1743q-187 0-356-83-228 116-394 116-237 0-237-263 0-115 45-275 17-60 109-229 199-360 475-606-184 79-427 354 63-274 283.5-449.5T987 132q30 0 45 1 255-117 433-117 64 0 116 13t94.5 40.5T1742 146t24 115q0 116-75 286 101 182 101 390zm-70-640q0-83-53-132t-137-49q-108 0-254 70 121 47 222.5 131.5T1671 513q51-135 51-216zM128 1534q0 86 48.5 132.5T311 1713q115 0 266-83-122-72-213.5-183T226 1202q-98 205-98 332zm504-713h728q-5-142-113-237t-251-95q-144 0-251.5 95T632 821z"/></svg>