<svg width="1792" height="1792" xmlns="http://www.w3.org/2000/svg"><path d="M381 1620q0 80-54.5 126T191 1792q-106 0-172-66l57-88q49 45 106 45 29 0 50.5-14.5T254 1626q0-64-105-56l-26-56q8-10 32.5-43.5t42.5-54 37-38.5v-1q-16 0-48.5 1t-48.5 1v53H32v-152h333v88l-95 115q51 12 81 49t30 88zm2-627v159H21q-6-36-6-54 0-51 23.5-93T95 937t66-47.5 56.5-43.5 23.5-45q0-25-14.5-38.5T187 749q-46 0-81 58l-85-59q24-51 71.5-79.5T198 640q73 0 123 41.5T371 794q0 50-34 91.5T262 950t-75.5 50.5T151 1053h127v-60h105zm1409 319v192q0 13-9.5 22.5t-22.5 9.5H544q-13 0-22.5-9.5T512 1504v-192q0-14 9-23t23-9h1216q13 0 22.5 9.5t9.5 22.5zM384 413v99H49v-99h107q0-41 .5-121.5T157 170v-12h-2q-8 17-50 54l-71-76L170 9h106v404h108zm1408 387v192q0 13-9.5 22.5t-22.5 9.5H544q-13 0-22.5-9.5T512 992V800q0-14 9-23t23-9h1216q13 0 22.5 9.5t9.5 22.5zm0-512v192q0 13-9.5 22.5T1760 512H544q-13 0-22.5-9.5T512 480V288q0-13 9.5-22.5T544 256h1216q13 0 22.5 9.5t9.5 22.5z"/></svg>