<svg width="2048" height="1792" xmlns="http://www.w3.org/2000/svg"><path d="M1901 915q19 19 19 45t-19 45l-294 294q-9 10-22.5 10t-22.5-10l-45-45q-10-9-10-22.5t10-22.5l185-185h-294v224q0 14-9 23t-23 9h-64q-14 0-23-9t-9-23v-224h-132q-24 217-187.5 364.5T576 1536q-167 0-306-87T58 1213 4 894q15-133 88-245.5t188-182T529 386q155-12 292 52.5t224 186T1148 896h132V672q0-14 9-23t23-9h64q14 0 23 9t9 23v224h294l-185-185q-10-9-10-22.5t10-22.5l45-45q9-10 22.5-10t22.5 10zM576 1408q185 0 316.5-131.5T1024 960 892.5 643.5 576 512 259.5 643.5 128 960t131.5 316.5T576 1408z"/></svg>