<svg width="1792" height="1792" xmlns="http://www.w3.org/2000/svg"><path d="M384 544v576q0 13-9.5 22.5T352 1152q-14 0-23-9L41 855q-9-9-9-23t9-23l288-288q9-9 23-9 13 0 22.5 9.5T384 544zm1408 768v192q0 13-9.5 22.5t-22.5 9.5H32q-13 0-22.5-9.5T0 1504v-192q0-13 9.5-22.5T32 1280h1728q13 0 22.5 9.5t9.5 22.5zm0-384v192q0 13-9.5 22.5t-22.5 9.5H672q-13 0-22.5-9.5T640 1120V928q0-13 9.5-22.5T672 896h1088q13 0 22.5 9.5t9.5 22.5zm0-384v192q0 13-9.5 22.5T1760 768H672q-13 0-22.5-9.5T640 736V544q0-13 9.5-22.5T672 512h1088q13 0 22.5 9.5t9.5 22.5zm0-384v192q0 13-9.5 22.5T1760 384H32q-13 0-22.5-9.5T0 352V160q0-13 9.5-22.5T32 128h1728q13 0 22.5 9.5t9.5 22.5z"/></svg>