<svg width="1792" height="1792" xmlns="http://www.w3.org/2000/svg"><path d="M736 1440q0 12-10 24l-319 319q-10 9-23 9-12 0-23-9L41 1463q-15-16-7-35 8-20 30-20h192V32q0-14 9-23t23-9h192q14 0 23 9t9 23v1376h192q14 0 23 9t9 23zm1056 128v192q0 14-9 23t-23 9H928q-14 0-23-9t-9-23v-192q0-14 9-23t23-9h832q14 0 23 9t9 23zm-192-512v192q0 14-9 23t-23 9H928q-14 0-23-9t-9-23v-192q0-14 9-23t23-9h640q14 0 23 9t9 23zm-192-512v192q0 14-9 23t-23 9H928q-14 0-23-9t-9-23V544q0-14 9-23t23-9h448q14 0 23 9t9 23zM1216 32v192q0 14-9 23t-23 9H928q-14 0-23-9t-9-23V32q0-14 9-23t23-9h256q14 0 23 9t9 23z"/></svg>