<svg width="1792" height="1792" xmlns="http://www.w3.org/2000/svg"><path d="M1024 1344q0 80-56 136t-136 56-136-56-56-136q0-60 35-110t93-71V512h128v651q58 21 93 71t35 110zm128 0q0-77-34-144t-94-112V320q0-80-56-136t-136-56-136 56-56 136v768q-60 45-94 112t-34 144q0 133 93.5 226.5T832 1664t226.5-93.5T1152 1344zm128 0q0 185-131.5 316.5T832 1792t-316.5-131.5T384 1344q0-182 128-313V320q0-133 93.5-226.5T832 0t226.5 93.5T1152 320v711q128 131 128 313zm128-576v128h-192V768h192zm0-256v128h-192V512h192zm0-256v128h-192V256h192z"/></svg>