<svg width="2048" height="1792" xmlns="http://www.w3.org/2000/svg"><path d="M704 896q-159 0-271.5-112.5T320 512t112.5-271.5T704 128t271.5 112.5T1088 512 975.5 783.5 704 896zm1077 320l249 249q9 9 9 23 0 13-9 22l-136 136q-9 9-22 9-14 0-23-9l-249-249-249 249q-9 9-23 9-13 0-22-9l-136-136q-9-9-9-22 0-14 9-23l249-249-249-249q-9-9-9-23 0-13 9-22l136-136q9-9 22-9 14 0 23 9l249 249 249-249q9-9 23-9 13 0 22 9l136 136q9 9 9 22 0 14-9 23zm-498 0l-181 181q-37 37-37 91 0 53 37 90l83 83q-21 3-44 3H267q-121 0-194-69T0 1405q0-53 3.5-103.5t14-109T44 1084t43-97.5 62-81 85.5-53.5T346 832q19 0 39 17 154 122 319 122t319-122q20-17 39-17 28 0 57 6-28 27-41 50t-13 56q0 54 37 91z"/></svg>