<?xml version="1.0" encoding="UTF-8" standalone="no"?>
<svg
   width="378"
   height="257.45926"
   fill="none"
   version="1.1"
   id="svg145"
   sodipodi:docname="IllustrationHomePrincipalMobile.svg"
   inkscape:version="1.4.2 (ebf0e940d0, 2025-05-08)"
   xmlns:inkscape="http://www.inkscape.org/namespaces/inkscape"
   xmlns:sodipodi="http://sodipodi.sourceforge.net/DTD/sodipodi-0.dtd"
   xmlns="http://www.w3.org/2000/svg"
   xmlns:svg="http://www.w3.org/2000/svg">
  <sodipodi:namedview
     id="namedview145"
     pagecolor="#ffffff"
     bordercolor="#000000"
     borderopacity="0.25"
     inkscape:showpageshadow="2"
     inkscape:pageopacity="0.0"
     inkscape:pagecheckerboard="0"
     inkscape:deskcolor="#d1d1d1"
     showgrid="false"
     inkscape:zoom="2.0127226"
     inkscape:cx="288.66372"
     inkscape:cy="196.5"
     inkscape:window-width="1916"
     inkscape:window-height="1164"
     inkscape:window-x="3840"
     inkscape:window-y="16"
     inkscape:window-maximized="1"
     inkscape:current-layer="svg145" />
  <g
     opacity="0.8"
     id="g140"
     transform="matrix(0.65666411,0,0,0.65666411,-2.4118134e-4,-2.746751e-4)">
    <path
       opacity="0.1"
       d="M 296.491,69.097 C 260.275,75.08 224.004,71.86 189.087,67.398 154.17,62.938 119.334,57.24 83.043,58.356 59.711,59.079 33.756,63.62 17.611,77.556 2.08,90.967 -0.141,109.299 0.007,125.878 c 0.111,12.469 1.293,25.386 9.82,35.413 5.918,6.959 14.967,12.013 21.81,18.448 23.84,22.397 17.078,57.092 1.983,86.472 -7.101,13.786 -15.78,27.315 -20.543,41.448 -4.762,14.131 -5.234,29.354 3.734,41.054 8.896,11.601 25.913,18.282 43.62,21.864 35.957,7.27 75.865,3.518 114.464,-1.703 85.437,-11.61 169.919,-30.389 254.158,-49.133 31.179,-6.933 62.495,-13.907 92.492,-24.115 16.657,-5.657 33.603,-12.776 44.27,-24.034 13.538,-14.294 13.659,-34.023 0.284,-45.989 -22.439,-20.096 -72.639,-16.318 -90.082,-39.187 -9.606,-12.56 -5.696,-29.45 1.644,-44.296 15.723,-31.851 46.537,-63.125 42.099,-95.132 -3.044,-21.985 -24.54,-40.392 -53.096,-45.482 -29.927,-5.33 -68.176,3.572 -85.102,25.43 -17.427,22.569 -53.095,36.887 -85.07,42.162 h -0.001 z"
       fill="#5e7ebe"
       id="path1" />
    <path
       d="M 412.301,112.92 H 95.841 c -2.365,0 -4.284,1.968 -4.284,4.395 v 177.377 c 0,2.427 1.918,4.395 4.284,4.395 h 316.46 c 2.367,0 4.285,-1.968 4.285,-4.395 V 117.315 c 0,-2.427 -1.918,-4.395 -4.285,-4.395 z"
       fill="#f2f5fa"
       id="path2" />
    <path
       d="M 414.628,110.547 H 92.948 a 1.652,1.652 0 0 0 -1.65,1.657 v 7.009 h 324.966 v -6.995 a 1.662,1.662 0 0 0 -1.005,-1.539 1.647,1.647 0 0 0 -0.631,-0.132 z"
       fill="#7598d6"
       id="path3" />
    <path
       d="m 97.8,117.118 a 2.239,2.239 0 0 0 2.062,-1.385 c 0.112,-0.271 0.169,-0.562 0.168,-0.855 a 2.232,2.232 0 0 0 -3.084,-2.068 2.235,2.235 0 0 0 -1.375,2.068 2.231,2.231 0 0 0 1.375,2.068 c 0.27,0.113 0.561,0.171 0.855,0.172 z m 6.003,0 a 2.237,2.237 0 0 0 2.23,-2.24 2.237,2.237 0 0 0 -2.23,-2.24 2.233,2.233 0 0 0 -2.229,2.24 2.232,2.232 0 0 0 2.229,2.24 z"
       fill="#ffffff"
       id="path4" />
    <path
       d="m 109.806,117.118 a 2.238,2.238 0 0 0 2.23,-2.24 2.237,2.237 0 0 0 -2.23,-2.24 2.238,2.238 0 0 0 -2.23,2.24 2.237,2.237 0 0 0 2.23,2.24 z"
       fill="#ee5d49"
       id="path5" />
    <path
       d="M 380.541,152.695 H 116.56 a 3.504,3.504 0 0 0 -3.496,3.512 v 128.318 a 3.504,3.504 0 0 0 3.496,3.512 h 263.981 a 3.504,3.504 0 0 0 3.495,-3.512 V 156.207 a 3.503,3.503 0 0 0 -3.495,-3.512 z"
       fill="#ffffff"
       id="path6" />
    <path
       opacity="0.2"
       d="m 178.193,128.409 h -75.295 c -0.732,0 -1.324,0.595 -1.324,1.33 v 5.558 c 0,0.734 0.592,1.33 1.324,1.33 h 75.295 a 1.328,1.328 0 0 0 1.324,-1.33 v -5.558 c 0,-0.735 -0.593,-1.33 -1.324,-1.33 z m 146.977,39.996 h -75.296 c -0.731,0 -1.324,0.595 -1.324,1.33 v 5.557 c -0.001,0.352 0.138,0.69 0.387,0.939 0.248,0.25 0.585,0.391 0.937,0.392 h 75.296 a 1.329,1.329 0 0 0 1.324,-1.331 v -5.557 c 0,-0.735 -0.593,-1.33 -1.324,-1.33 z m 43.763,23.01 H 249.874 c -0.731,0 -1.324,0.595 -1.324,1.33 v 5.559 a 1.33,1.33 0 0 0 1.324,1.329 h 119.059 a 1.327,1.327 0 0 0 1.325,-1.329 v -5.559 a 1.33,1.33 0 0 0 -1.325,-1.33 z m 0,13.438 H 249.874 a 1.328,1.328 0 0 0 -1.324,1.33 v 5.558 c 0,0.735 0.593,1.33 1.324,1.33 h 119.059 a 1.328,1.328 0 0 0 1.325,-1.33 v -5.558 a 1.33,1.33 0 0 0 -1.325,-1.33 z m 0,13.438 H 249.874 a 1.325,1.325 0 0 0 -0.937,0.392 1.322,1.322 0 0 0 -0.387,0.939 v 5.558 c 0,0.734 0.593,1.329 1.324,1.329 h 119.059 a 1.327,1.327 0 0 0 1.325,-1.329 v -5.558 a 1.34,1.34 0 0 0 -0.387,-0.94 1.332,1.332 0 0 0 -0.938,-0.391 z m 0,13.439 H 249.874 c -0.731,0 -1.324,0.595 -1.324,1.33 v 5.557 a 1.326,1.326 0 0 0 1.324,1.331 h 119.059 a 1.34,1.34 0 0 0 0.938,-0.391 1.322,1.322 0 0 0 0.387,-0.94 v -5.557 c 0,-0.352 -0.139,-0.69 -0.387,-0.94 a 1.331,1.331 0 0 0 -0.938,-0.39 z m 0,14.817 H 129.079 c -0.731,0 -1.324,0.595 -1.324,1.33 v 5.557 a 1.326,1.326 0 0 0 1.324,1.331 h 239.854 a 1.33,1.33 0 0 0 1.324,-1.331 v -5.557 c 0,-0.735 -0.593,-1.33 -1.324,-1.33 z m 0,13.438 H 129.079 c -0.731,0 -1.324,0.595 -1.324,1.33 v 5.558 c 0,0.735 0.593,1.33 1.324,1.33 h 239.854 c 0.731,0 1.324,-0.595 1.324,-1.33 v -5.558 c 0,-0.735 -0.593,-1.33 -1.324,-1.33 z m 0,13.438 H 129.079 a 1.328,1.328 0 0 0 -1.324,1.33 v 5.558 c 0,0.735 0.593,1.33 1.324,1.33 h 239.854 c 0.731,0 1.324,-0.595 1.324,-1.33 v -5.558 a 1.327,1.327 0 0 0 -1.324,-1.33 z M 228.426,163.846 H 130.67 a 2.922,2.922 0 0 0 -2.915,2.929 v 70.479 a 2.923,2.923 0 0 0 2.915,2.929 h 97.756 a 2.918,2.918 0 0 0 2.696,-1.81 c 0.146,-0.355 0.221,-0.735 0.22,-1.119 v -70.479 a 2.921,2.921 0 0 0 -2.916,-2.929 z"
       fill="#7598d6"
       id="path7" />
    <path
       opacity="0.1"
       d="m 358.083,369.964 c 20.04,0 36.286,-4.032 36.286,-9.005 0,-4.973 -16.246,-9.005 -36.286,-9.005 -20.04,0 -36.286,4.032 -36.286,9.005 0,4.973 16.246,9.005 36.286,9.005 z"
       fill="#9298af"
       id="path8" />
    <path
       d="m 361.762,231.21 c 0,0 4.481,-0.15 5.91,3.517 1.428,3.668 0.351,6.472 -0.058,7.804 -1.064,3.485 -1.152,4.749 -0.637,6.854 0.459,1.863 0.882,2.824 1.404,4.567 0.523,1.744 -0.35,1.539 -0.427,1.676 -0.077,0.136 -17.545,1.737 -17.545,1.737 0,0 0.467,-3.775 1.697,-4.65 1.231,-0.875 2.445,-1.053 1.51,-4.789 -0.935,-3.734 -1.53,-5.467 -1.005,-8.176 0.608,-3.139 0.99,-5.099 3.949,-7.157 a 7.973,7.973 0 0 1 5.202,-1.383 z"
       fill="#4e6896"
       id="path9" />
    <path
       d="m 366.931,354.394 c 0,0 -2.464,3.65 -3.456,4.531 0,0 -2.205,0.807 -2.425,2.348 -0.221,1.542 -0.186,2.568 2.425,2.638 2.61,0.071 4.323,-0.393 4.801,-1.978 a 7.184,7.184 0 0 1 1.523,-2.638 v 3.298 h 0.589 c 0,0 0.147,-3.19 0.185,-3.778 0.038,-0.587 0.419,-2.842 -0.82,-3.842 -1.239,-1.001 -2.822,-0.579 -2.822,-0.579 z m -12.336,-2.915 c -0.333,0.73 -0.748,1.418 -1.238,2.053 -0.592,0.77 -2.425,3.924 -3.237,4.146 -0.811,0.222 -3.306,0.66 -3.526,2.054 -0.221,1.393 -0.331,2.383 2.133,2.493 2.465,0.11 4.083,0.257 5.26,-1.467 1.177,-1.723 3.053,-2.97 3.053,-2.97 v 4.499 h 0.959 c 0,0 0.441,-4.683 0.699,-5.013 0.257,-0.33 0.919,-3.924 -1.374,-5.795 -2.292,-1.871 -2.729,0 -2.729,0 z"
       fill="#7d7d95"
       id="path10" />
    <path
       d="m 368.586,283.955 c 0,0 2.769,4.106 3.614,8.892 0.843,4.787 -0.157,20.78 -0.119,23.145 0.037,2.366 2.241,8.254 1.8,12.71 -0.441,4.456 -4.128,26.271 -4.128,26.271 l -2.823,-0.578 c 0,0 0.277,-22.611 0,-24.482 -0.275,-1.871 -0.828,-8.69 -0.938,-9.453 -0.111,-0.762 -7.006,-20.995 -7.006,-24.447 0,-3.451 2.086,-17.688 9.6,-12.058 z"
       fill="#fcb6ac"
       id="path11" />
    <path
       d="m 352.955,285.53 c 0,0 -5.11,19.459 -5.719,22.154 -0.608,2.695 -1.485,4.92 -1.485,6.065 0,2.656 0.987,6.921 0.987,6.921 l 7.857,30.809 3.258,0.51 c 0,0 -1.885,-18.933 -1.984,-22.565 -0.099,-3.632 -2.903,-8.809 -2.35,-10.35 0.554,-1.541 8.889,-19.305 8.889,-19.305 0,0 6.306,-19.887 -9.453,-14.239 z m 10.519,73.395 c 0,0 2.523,1.407 4.147,-0.4 0.9,-1.06 1.62,-2.26 2.132,-3.553 l -2.822,-0.578 z"
       fill="#fcb6ac"
       id="path12" />
    <path
       d="m 350.127,357.68 c 0,0 2.204,0.549 3.053,0 0.849,-0.55 3.721,-5.4 4.674,-5.69 0,0 -0.922,-1.867 -3.258,-0.51 0,0 -3.843,5.393 -4.469,6.2 z"
       fill="#fcb6ac"
       id="path13" />
    <path
       d="m 345.751,313.751 c 0,0 11.825,5.056 29.429,5.056 0,0 -1.854,-26.601 -4.409,-32.334 -2.555,-5.734 -18.22,0.577 -18.22,0.577 0,0 -6.8,21.899 -6.8,26.701 z"
       fill="#7598d6"
       id="path14" />
    <path
       d="m 332.449,275.207 c 0,0 10.784,0.926 13.448,-0.259 1.342,-0.591 3.152,-3.05 4.814,-5.736 0.284,-0.457 0.564,-0.923 0.837,-1.387 2.044,-3.473 3.695,-6.885 3.695,-6.885 0,0 4.947,-6.2 -0.309,-8.411 a 6.363,6.363 0 0 0 -3.306,2.519 c -1.268,1.954 -2.26,4.889 -2.508,5.857 -0.25,0.966 -4.474,9.47 -4.738,9.71 -0.265,0.24 -2.919,0.081 -4.964,0.272 -3.338,0.315 -6.858,0.497 -6.858,0.497 z"
       fill="#5e7ebe"
       id="path15" />
    <path
       d="m 351.123,266.574 c 1.322,3.062 0.075,4.085 0.684,7.147 0.608,3.062 0.821,11.788 0.709,13.49 -0.112,1.701 15.122,3.449 18.65,0.349 0,0 -1.175,-6.62 -3.334,-10.735 -0.412,-0.781 -0.22,-3.861 0.203,-4.92 0.128,-0.323 0.637,-1.576 1.285,-3.159 l 2.189,-5.336 a 1672.73,1672.73 0 0 1 1.467,-3.559 c 0,0 0.524,-4.929 -1.528,-6.517 -1.779,-1.38 -6.64,-1.87 -7.511,-2.173 -0.87,-0.304 -3.408,-0.441 -5.191,-0.17 0,0 -2.729,1.284 -3.677,1.475 -0.948,0.192 -4.63,4.953 -5.271,6.692 -0.641,1.739 -0.002,4.349 1.325,7.416 z"
       fill="#7598d6"
       id="path16" />
    <path
       d="m 357.44,247.849 c 0,0 0.545,4.996 0.441,6.62 0,0 2.283,2.766 5.511,-3.379 0,0 -0.804,-2.462 0.221,-5.914 1.025,-3.451 -6.173,2.673 -6.173,2.673 z"
       fill="#fcb6ac"
       id="path17" />
    <path
       d="m 366.115,251.596 c 0,0 -1.957,5.745 -7.309,5.327 -5.353,-0.418 -2.54,-4.858 -2.54,-4.858 0,0 1.336,-0.763 1.71,-0.836 0.376,-0.072 5.318,-0.281 5.318,-0.281 z"
       fill="#fcb6ac"
       id="path18" />
    <path
       d="m 331.605,256.289 h 12.768 a 1.013,1.013 0 0 1 1.016,1.014 v 19.06 a 1.012,1.012 0 0 1 -1.016,1.014 h -12.768 a 1.013,1.013 0 0 1 -1.016,-1.014 v -19.06 a 1.013,1.013 0 0 1 1.016,-1.014 z"
       fill="#434343"
       id="path19" />
    <path
       d="m 331.597,257.723 h 12.788 v 18.221 h -12.788 z"
       fill="#dbdff0"
       id="path20" />
    <path
       d="m 349.084,273.067 a 1.483,1.483 0 0 1 -0.802,-0.22 c -0.549,-0.413 -0.747,-1.431 -1.715,-1.356 -0.968,0.075 -1.42,3.104 -1.177,3.678 0.242,0.574 1.589,0.862 3.577,0.466 1.989,-0.396 0.117,-2.568 0.117,-2.568 z"
       fill="#fcb6ac"
       id="path21" />
    <path
       d="m 332.276,260.336 c 0,0 -2.104,-0.488 -2.781,0.524 a 3.937,3.937 0 0 0 -0.533,2.913 c 0.17,0.602 0.714,2.15 1.427,1.833 2.283,-1.012 1.887,-5.27 1.887,-5.27 z"
       fill="#eea886"
       id="path22" />
    <path
       d="m 330.195,260.358 c 0,0 0.293,-1.416 0.864,-1.174 0.571,0.242 0.055,1.177 0.055,1.177 z"
       fill="#eea886"
       id="path23" />
    <path
       d="m 332.276,260.337 c 0,0 -0.033,-0.809 -1.503,0.024 -1.471,0.834 1.503,-0.024 1.503,-0.024 z"
       fill="#eea886"
       id="path24" />
    <path
       d="m 312.105,244.72 a 0.095,0.095 0 0 0 0.058,-0.024 0.095,0.095 0 0 0 0.017,-0.027 0.067,0.067 0 0 0 0.007,-0.031 0.067,0.067 0 0 0 -0.007,-0.031 0.095,0.095 0 0 0 -0.017,-0.027 0.127,0.127 0 0 0 -0.027,-0.018 0.081,0.081 0 0 0 -0.089,0.018 0.083,0.083 0 0 0 -0.024,0.058 c 0,0.022 0.009,0.042 0.024,0.058 a 0.084,0.084 0 0 0 0.058,0.024 z"
       fill="#e6e8ec"
       id="path25" />
    <path
       d="m 343.303,246.473 h -59.425 a 2.354,2.354 0 0 0 -2.163,1.452 2.336,2.336 0 0 0 -0.176,0.897 v 69.309 a 2.343,2.343 0 0 0 2.339,2.349 h 59.425 a 2.34,2.34 0 0 0 2.162,-1.452 c 0.117,-0.285 0.177,-0.59 0.177,-0.897 v -69.309 a 2.344,2.344 0 0 0 -2.339,-2.349 z"
       fill="#ffffff"
       id="path26" />
    <path
       opacity="0.1"
       d="m 343.303,246.473 h -59.425 a 2.354,2.354 0 0 0 -2.163,1.452 2.336,2.336 0 0 0 -0.176,0.897 v 69.309 a 2.343,2.343 0 0 0 2.339,2.349 h 59.425 a 2.34,2.34 0 0 0 2.162,-1.452 c 0.117,-0.285 0.177,-0.59 0.177,-0.897 v -69.309 a 2.344,2.344 0 0 0 -2.339,-2.349 z"
       fill="#3e486e"
       id="path27" />
    <path
       d="m 340.034,250.247 h -52.887 a 2.336,2.336 0 0 0 -1.656,0.691 2.346,2.346 0 0 0 -0.682,1.659 v 61.759 a 2.336,2.336 0 0 0 0.682,1.659 2.348,2.348 0 0 0 1.656,0.69 h 52.887 a 2.335,2.335 0 0 0 1.656,-0.69 2.34,2.34 0 0 0 0.682,-1.659 v -61.759 a 2.343,2.343 0 0 0 -2.338,-2.35 z"
       fill="#ffffff"
       id="path28" />
    <path
       opacity="0.7"
       d="m 330.541,263.576 h -35.225 a 2.136,2.136 0 0 0 -2.133,2.143 v 9.404 a 2.15,2.15 0 0 0 0.622,1.514 2.14,2.14 0 0 0 1.511,0.63 h 35.225 a 2.145,2.145 0 0 0 1.973,-1.325 2.15,2.15 0 0 0 0.161,-0.819 v -9.404 a 2.138,2.138 0 0 0 -2.134,-2.143 z"
       fill="#7598d6"
       id="path29" />
    <path
       d="m 331.227,282.275 h -36.594 v 2.793 h 36.594 z"
       fill="#ff7067"
       id="path30" />
    <path
       opacity="0.7"
       d="m 338.767,288.17 h -50.354 v 2.794 h 50.354 z m 0,6.207 h -50.354 v 2.794 h 50.354 z m 0,6.205 h -50.354 v 2.794 h 50.354 z"
       fill="#7598d6"
       id="path31" />
    <path
       d="m 346.897,271.505 c -0.985,-0.326 -1.986,-0.6 -3,-0.822 -1.411,-0.304 -3.086,-0.402 -3.26,-0.158 -0.174,0.243 1.373,0.505 2.757,0.896 1.272,0.361 0.968,0.493 0.968,0.493 0,0 0.084,-0.042 -1.369,-0.178 -1.563,-0.145 -3.17,-0.143 -3.328,0.169 -0.077,0.152 -0.025,0.255 0.538,0.396 -0.338,-0.015 -0.386,0.073 -0.399,0.209 -0.067,0.701 2.204,1.26 3.116,1.482 -0.696,-0.167 -1.221,-0.221 -0.969,0.252 0.286,0.539 3.538,1.19 4.684,1.539 1.252,0.361 0.262,-4.278 0.262,-4.278 z"
       fill="#fcb6ac"
       id="path32" />
    <path
       d="m 351.558,267.812 c 0,0 -1.605,-3.801 -1.673,-4.659 0.013,0.506 0.128,3.586 0.835,6.048 0.285,-0.457 0.565,-0.923 0.838,-1.387 z"
       fill="#2f3b6c"
       id="path33" />
    <path
       d="m 349.884,263.155 v -0.072 c 0,0 -0.002,0.044 0,0.072 z"
       fill="#d1c0ba"
       id="path34" />
    <path
       d="m 358.109,273.07 6.68,-11.729 c 0,0 -2.332,11.7 -4.101,12.092 -1.768,0.391 -2.579,-0.363 -2.579,-0.363 z"
       fill="#5e7ebe"
       id="path35" />
    <path
       d="m 371.166,253.122 c 0,0 3.203,1.589 2.098,5.716 -1.104,4.127 -2.204,5.302 -3.258,6.841 -0.996,1.456 -3.031,5.371 -3.28,5.809 -0.249,0.437 -2.698,6.83 -4.947,7.558 -2.248,0.728 -13.385,-2.806 -13.636,-2.418 -0.252,0.387 0.015,-3.891 0.015,-3.891 0,0 5.17,0.369 6.3,0.29 1.852,-0.125 4.826,0.631 5.54,-0.97 0.84,-1.879 3.851,-8.059 4.169,-9.077 0.317,-1.018 4.027,-10.905 6.999,-9.858 z"
       fill="#5e7ebe"
       id="path36" />
    <path
       d="m 358.268,233.556 c 0,0 -4.942,3.216 -3.335,10.992 1.607,7.775 7.442,3.504 8.075,3.064 0.633,-0.439 2.594,-5.309 2.669,-7.433 0.073,-2 1.127,-10.016 -7.409,-6.623 z"
       fill="#fcb6ac"
       id="path37" />
    <path
       d="m 358.608,235.116 c 0.516,-0.152 2.244,3.201 3.192,4.028 0.948,0.826 2.658,2.906 2.828,5.181 0.17,2.276 2.094,-4.972 1.427,-7.663 -0.669,-2.691 -1.555,-6.635 -7.578,-3.505 -6.022,3.131 -4.458,8.72 -4.458,8.72 0,0 1.983,-5.993 4.589,-6.761 z"
       fill="#4e6896"
       id="path38" />
    <path
       d="m 362.783,240.484 c 0.158,-0.921 2.204,-1.699 2.164,-0.316 -0.039,1.382 -1.153,2.981 -1.79,2.881 -0.637,-0.098 -0.522,-1.716 -0.374,-2.565 z"
       fill="#fcb6ac"
       id="path39" />
    <path
       d="m 362.533,247.933 c -0.038,0.07 -1.213,2.324 -4.81,2.891 -0.082,-0.879 -0.192,-1.956 -0.192,-1.956 a 5.795,5.795 0 0 0 5.002,-0.935 z"
       fill="#ab7d7d"
       id="path40" />
    <path
       opacity="0.1"
       d="m 163.304,392.163 c 20.515,0 37.147,-4.127 37.147,-9.219 0,-5.091 -16.632,-9.218 -37.147,-9.218 -20.515,0 -37.147,4.127 -37.147,9.218 0,5.092 16.632,9.219 37.147,9.219 z"
       fill="#9298af"
       id="path41" />
    <path
       d="M 264.187,246.16 H 110.795 a 2.47,2.47 0 0 0 -1.737,0.724 2.455,2.455 0 0 0 -0.716,1.74 v 72.688 a 2.447,2.447 0 0 0 0.716,1.74 2.453,2.453 0 0 0 1.737,0.724 h 153.392 a 2.47,2.47 0 0 0 1.737,-0.724 2.455,2.455 0 0 0 0.716,-1.74 v -72.688 a 2.456,2.456 0 0 0 -2.453,-2.464 z"
       fill="#ffffff"
       id="path42" />
    <path
       d="M 264.187,246.16 H 110.795 a 2.47,2.47 0 0 0 -1.737,0.724 2.455,2.455 0 0 0 -0.716,1.74 v 72.688 a 2.447,2.447 0 0 0 0.716,1.74 2.453,2.453 0 0 0 1.737,0.724 h 153.392 a 2.47,2.47 0 0 0 1.737,-0.724 2.455,2.455 0 0 0 0.716,-1.74 v -72.688 a 2.456,2.456 0 0 0 -2.453,-2.464 z"
       fill="#f2f5fa"
       id="path43" />
    <path
       d="m 255.832,249.589 h -137.24 a 2.47,2.47 0 0 0 -1.737,0.724 2.45,2.45 0 0 0 -0.716,1.74 v 64.77 a 2.456,2.456 0 0 0 2.453,2.465 h 137.24 a 2.47,2.47 0 0 0 1.737,-0.724 2.465,2.465 0 0 0 0.716,-1.741 v -64.77 a 2.456,2.456 0 0 0 -2.453,-2.464 z"
       fill="#ffffff"
       id="path44" />
    <path
       opacity="0.2"
       d="M 232.384,264.101 H 139.34 a 2.245,2.245 0 0 0 -2.237,2.248 v 9.864 a 2.245,2.245 0 0 0 2.237,2.248 h 93.044 a 2.246,2.246 0 0 0 2.237,-2.248 v -9.864 a 2.24,2.24 0 0 0 -2.237,-2.248 z"
       fill="#7598d6"
       id="path45" />
    <path
       opacity="0.7"
       d="M 231.044,283.709 H 140.68 v 2.93 h 90.364 z m 18.616,6.184 H 125.317 v 2.93 H 249.66 Z m 0,6.508 H 125.317 v 2.93 H 249.66 Z m 0,6.509 H 125.317 v 2.929 H 249.66 Z"
       fill="#7598d6"
       id="path46" />
    <path
       d="m 147.033,379.628 c 0.441,-1.617 0.742,-3.042 0.742,-3.042 a 6.353,6.353 0 0 1 0.823,-3.082 v -0.447 l 0.127,-3.285 a 11.146,11.146 0 0 0 -0.742,-1.752 c -0.55,-1.054 0.185,-4.816 0.185,-4.816 0,0 2.386,-5.244 1.985,-8.648 -0.4,-3.403 5.054,-14.847 5.054,-14.847 0.015,-1.128 -0.1,-2.253 -0.342,-3.355 a 2.627,2.627 0 0 1 -0.036,-0.697 0.412,0.412 0 0 1 0,-0.086 v 0.026 c 0.159,-2.236 2.074,-6.336 2.074,-6.336 l 0.07,-7.977 c 0,0 -0.943,-4.742 1.114,-10.978 0.723,-2.177 1.198,-3.922 1.51,-5.271 0.037,-0.153 0.07,-0.298 0.1,-0.44 a 615.36,615.36 0 0 1 -6.598,-1.312 c 0,0 2.535,-9.088 4.082,-10.635 1.547,-1.547 2.905,-6.549 2.905,-6.549 0,0 1.017,-6.449 -0.148,-8.387 -1.165,-1.938 -1.217,-5.219 -1.217,-5.219 0,0 -2.753,-2.173 -3.073,-3.102 -0.319,-0.928 -0.827,-3.019 -0.786,-4.1 0.041,-1.081 0.434,-2.05 0.338,-2.628 -0.097,-0.577 0.931,-2.717 0.497,-3.768 a 2.897,2.897 0 0 1 -0.149,-1.003 v -0.03 c 0.032,-0.903 0.149,-1.8 0.353,-2.68 a 7.564,7.564 0 0 1 2.857,-1.394 l 0.07,-0.246 0.186,-0.638 c 0.091,-0.056 0.185,-0.109 0.282,-0.156 l 0.018,-0.235 0.06,-0.928 -0.357,-2.117 c -0.741,-3.676 4.127,-4.03 4.127,-4.03 a 2.554,2.554 0 0 1 1.413,-1.156 c 0.988,-0.305 -0.044,5.484 -0.515,5.838 -0.371,0.265 -1.484,2.05 -2.022,2.926 l -0.089,0.146 c 0.077,0.074 0.15,0.155 0.215,0.242 l -0.234,1.256 -0.037,0.19 c 0.306,0.413 0.55,0.869 0.723,1.353 0,0 -0.923,0.939 -0.786,2.036 a 6.583,6.583 0 0 1 -0.371,2.508 c 0.052,-0.055 0.701,-0.708 1.317,-0.522 0.616,0.186 2.331,0.779 2.331,0.779 0,0 1.287,0.28 1.157,0.563 -0.13,0.283 0.828,1.581 0.828,1.581 l 3.61,-3.18 c 0.041,-0.101 0.078,-0.197 0.115,-0.298 0.166,-0.469 0.29,-0.952 0.371,-1.443 a 7.683,7.683 0 0 1 -1.113,-0.399 2.434,2.434 0 0 1 -0.943,-0.655 c -0.333,-0.433 -0.371,-1.008 -0.501,-1.532 -0.237,-1.03 -0.794,-1.961 -1.183,-2.949 a 9.463,9.463 0 0 1 -0.497,-5.219 3.476,3.476 0 0 1 0.593,-1.491 c 0.601,-0.764 1.644,-1.044 2.42,-1.64 0.775,-0.596 1.294,-1.539 2.185,-1.976 0.809,-0.395 1.77,-0.306 2.657,-0.126 a 14.146,14.146 0 0 1 4.842,1.979 c 0.498,0.324 1.043,0.697 1.633,0.611 0.49,-0.131 0.922,-0.424 1.225,-0.831 a 0.226,0.226 0 0 1 0,-0.052 l 0.04,-0.041 a 6.17,6.17 0 0 1 0.438,2.639 c 0,0.138 0,0.279 -0.03,0.417 v 0.145 a 0.642,0.642 0 0 0 0,0.124 0.653,0.653 0 0 0 0.022,0.182 c 0.066,0.184 0.171,0.351 0.309,0.489 0.1,0.124 0.19,0.258 0.267,0.399 0,-0.049 -0.026,-0.097 -0.041,-0.146 0.21,0.335 0.321,0.723 0.319,1.119 a 1.1,1.1 0 0 1 -0.293,0.779 3.46,3.46 0 0 1 -0.587,0.44 6.706,6.706 0 0 1 -3.443,6.817 c -0.044,0.097 -0.088,0.198 -0.13,0.298 a 8.378,8.378 0 0 0 -0.779,3.792 c 0,0.093 0,0.186 0.03,0.279 0.03,0.093 0.086,0.101 0.122,0.153 0,0 5.751,0.279 7.155,-0.902 1.402,-1.182 3.302,3.142 3.302,3.142 0,0 2.048,0.481 2.475,0.097 0.426,-0.384 2.834,0.052 2.834,0.052 a 5.183,5.183 0 0 1 3.644,-1.182 10.654,10.654 0 0 1 2.698,-1.371 l 0.067,-0.023 a 2.902,2.902 0 0 1 1.302,-0.115 c 0,0 2.921,-2.237 3.793,-3.471 0.872,-1.234 4.965,-5.755 4.965,-5.777 l 0.025,-0.224 0.071,-0.679 c 0.115,0.025 0.232,0.039 0.348,0.045 l 0.09,-0.235 a 12.76,12.76 0 0 1 0.909,-1.893 c 0,0 0.033,-0.861 -0.208,-1.085 -0.241,-0.224 0.234,-3.354 0.234,-3.354 0,0 2.779,-5.891 4.891,-1.332 0,0 4.207,3.061 0.452,6.289 0,0 -1.484,0.649 -1.696,1.197 -0.148,0.372 -0.679,1.349 -1.035,2.009 l -0.16,0.294 0.041,0.038 -0.074,0.559 -0.029,0.22 c 0.663,0.413 1.113,0.816 0.99,1.118 a 6.38,6.38 0 0 0 -0.471,1.532 c 0,0 -5.247,6.076 -5.997,8.756 0,0 -13.751,7.507 -18.182,7.91 l 0.613,4.041 c 0.073,1.09 0.09,2.184 0.052,3.276 -0.093,0.858 0.349,4.775 0.349,4.775 0,0 0.545,5.763 1.165,6.591 0.619,0.827 0.371,4.264 0.371,4.264 0.093,1.652 0.326,3.293 0.698,4.906 0.564,2.203 0,4.879 0,4.879 0,0 2.044,5.245 -3.188,1.54 0,0 -2.627,-0.265 -5.655,-0.485 v 0.302 c 0,0.395 -0.019,0.82 -0.03,1.268 -0.074,2.955 -0.211,7.026 -0.464,10.101 -0.445,5.439 -2.508,16.152 -2.508,16.152 l -0.208,5.413 c 0.088,0.512 0.121,1.033 0.097,1.554 a 10.098,10.098 0 0 1 -1.659,5.364 l -0.553,3.597 c 0,0 -1.058,2.341 -1.132,3.761 -0.002,0.116 0.009,0.232 0.03,0.347 0.028,0.184 0.036,0.37 0.026,0.555 0,1.641 -1.143,5.524 -1.143,5.524 0,0 -0.211,3.956 -0.809,4.161 -0.512,0.178 0.586,2.307 0.913,2.918 a 0.597,0.597 0 0 0 0.026,-0.111 l 0.071,0.119 c 0.109,0.325 0.158,0.667 0.144,1.01 a 1.449,1.449 0 0 1 -0.708,1.364 c -1.147,0.645 -1.77,1.193 -0.828,1.461 0.348,0.068 0.692,0.154 1.032,0.257 l 0.055,-0.13 a 0.634,0.634 0 0 1 0.371,0.709 2.898,2.898 0 0 1 -0.404,1.327 14.505,14.505 0 0 1 -1.707,2.862 l -0.452,-0.067 c 0.061,0.175 0.143,0.341 0.244,0.496 0.163,0.256 0.384,0.47 0.646,0.623 0.24,0.155 0.511,0.26 0.794,0.305 a 2.289,2.289 0 0 1 1.64,0.883 c 0.557,0.787 0.887,1.842 -0.311,2.71 l -4.272,1.298 c 0,0 -7.287,0.667 -6.842,-0.951 0.446,-1.618 0.742,-3.041 0.742,-3.041 a 6.493,6.493 0 0 1 0.698,-2.878 c 0.082,-0.145 0.174,-0.285 0.274,-0.418 l -0.256,-0.037 c 0,0 -0.423,-3.634 -1.12,-4.339 -0.156,-0.168 -0.189,-0.291 -0.149,-0.372 -0.063,-0.198 0.123,-0.306 0.371,-0.374 0,0.045 0.034,0.094 0.049,0.142 0.233,-0.039 0.468,-0.055 0.705,-0.048 0,0 0.307,-1.883 -0.43,-2.61 a 0.696,0.696 0 0 1 -0.127,-0.566 c 0.001,-0.26 0.038,-0.518 0.107,-0.768 l 0.026,0.045 c 0.454,-1.7 1.856,-4.377 1.856,-4.377 0,0 0.122,-1.718 -0.323,-2.426 -0.445,-0.709 0.419,-9.342 0.419,-9.342 0,0 -0.018,-4.19 0.587,-6.117 0.605,-1.927 -0.486,-4.268 -0.486,-4.268 0,0 0,-0.044 0.018,-0.123 a 0.092,0.092 0 0 0 0,-0.033 l 0.097,-0.656 v 0.041 c 0.163,-1.119 0.463,-3.098 0.664,-4.023 0.286,-1.308 0.233,-7.626 0.233,-7.626 l -0.96,-2.721 -2.067,4.57 -2.227,6.113 c 0,0 -1.043,1.267 -1.113,2.609 v 0.198 c 0.009,0.137 0.009,0.276 0,0.414 a 3.706,3.706 0 0 1 -0.697,2.18 c 0,0 -0.643,2.904 -1.485,3.616 -0.842,0.712 -0.909,2.147 -0.909,2.147 0,0 -1.165,4.205 -1.666,4.932 -0.419,0.611 -0.508,2.337 -0.523,2.866 v 0.153 c 0,0 -0.196,1.514 -0.241,2.789 v 0.451 c -0.012,0.336 0.016,0.672 0.081,1.002 v 0.063 -0.215 c 0.176,0.872 0.245,1.764 0.205,2.653 -0.034,1.525 -0.335,3.321 -1.295,4.347 -1.663,1.774 -2.654,1.491 -2.654,1.491 0,0 0.679,2.322 1.603,2.818 0.036,0.019 0.07,0.041 0.101,0.067 0,-0.045 0,-0.09 0.026,-0.13 a 1.123,1.123 0 0 1 0.245,0.864 c 0.029,1.011 -0.669,2.61 -1.3,3.355 a 1.84,1.84 0 0 1 -0.812,0.44 c 0.046,0.035 0.095,0.068 0.145,0.097 a 3,3 0 0 0 0.319,0.164 c 0.149,0.074 0.31,0.122 0.475,0.145 a 2.246,2.246 0 0 1 1.64,0.884 c 0.557,0.783 0.887,1.838 -0.312,2.706 l -4.271,1.297 c 0,0 -7.31,0.649 -6.86,-0.969 z"
       fill="url(#a)"
       id="path47"
       style="fill:url(#a)" />
    <path
       d="m 174.621,383.402 4.137,-1.301 c 1.162,-0.872 0.843,-1.927 0.305,-2.714 a 2.175,2.175 0 0 0 -1.585,-0.876 1.918,1.918 0 0 1 -0.772,-0.309 1.857,1.857 0 0 1 -0.619,-0.618 3.075,3.075 0 0 1 -0.405,-1.604 c 0,0 -4.43,-1.49 -5.707,-0.219 a 3.349,3.349 0 0 0 -0.568,0.779 6.735,6.735 0 0 0 -0.682,2.877 c 0,0 -0.282,1.421 -0.716,3.042 -0.434,1.621 6.612,0.943 6.612,0.943 z m -19.893,-2.791 4.138,-1.301 c 1.161,-0.872 0.842,-1.927 0.304,-2.71 a 2.165,2.165 0 0 0 -1.588,-0.88 1.43,1.43 0 0 1 -0.46,-0.142 2.774,2.774 0 0 1 -0.308,-0.167 c -1.114,-0.675 -1.028,-2.237 -1.028,-2.237 0,0 -4.431,-1.491 -5.707,-0.219 a 3.3,3.3 0 0 0 -0.453,0.566 6.536,6.536 0 0 0 -0.802,3.09 c 0,0 -0.285,1.424 -0.715,3.042 -0.431,1.618 6.619,0.958 6.619,0.958 z"
       fill="#7d7d95"
       id="path48" />
    <path
       opacity="0.1"
       d="m 169.972,375.761 a 3.358,3.358 0 0 0 -0.565,0.779 l 6.679,1.04 a 3.073,3.073 0 0 1 -0.404,-1.603 c 0,0 -4.419,-1.487 -5.71,-0.216 z m -20.346,-2.225 -0.048,1.263 c 0.98,1.771 6.044,1.589 7.544,0.779 a 2.774,2.774 0 0 1 -0.308,-0.167 c -1.113,-0.675 -1.028,-2.237 -1.028,-2.237 0,0 -4.43,-1.491 -5.707,-0.219 a 3.31,3.31 0 0 0 -0.453,0.581 z"
       fill="#000000"
       id="path49" />
    <path
       d="m 149.037,368.064 c 0.294,0.563 0.543,1.148 0.742,1.752 l -0.182,4.525 c 1.069,1.939 7.028,1.536 7.867,0.537 0.838,-0.999 1.795,-3.664 0.901,-4.156 -0.894,-0.492 -1.551,-2.818 -1.551,-2.818 0,0 0.961,0.269 2.576,-1.491 1.613,-1.759 1.309,-5.863 1.057,-6.848 -0.252,-0.984 0.166,-4.242 0.166,-4.242 0,0 0.03,-2.296 0.516,-3.023 0.487,-0.727 1.619,-4.932 1.619,-4.932 0,0 0.051,-1.435 0.879,-2.147 0.827,-0.712 1.455,-3.619 1.455,-3.619 a 3.77,3.77 0 0 0 0.663,-2.442 c -0.114,-1.439 1.085,-2.944 1.085,-2.944 l 2.177,-6.114 2.004,-4.573 0.924,2.732 c 0,0 0.045,6.318 -0.234,7.627 -0.278,1.308 -0.742,4.793 -0.742,4.793 0,0 1.054,2.338 0.467,4.268 -0.586,1.931 -0.579,6.118 -0.579,6.118 0,0 -0.845,8.636 -0.415,9.341 0.431,0.704 0.308,2.423 0.308,2.423 0,0 -2.53,4.954 -1.818,5.673 0.712,0.719 0.415,2.609 0.415,2.609 0,0 -1.595,-0.063 -0.938,0.652 0.656,0.716 1.009,4.321 1.009,4.321 l 6.869,1.07 a 14.684,14.684 0 0 0 1.655,-2.867 c 0.994,-2.083 -0.097,-1.897 -1.006,-2.162 -0.909,-0.265 -0.308,-0.816 0.801,-1.461 1.11,-0.645 0.542,-2.218 0.542,-2.218 0,0 -1.547,-2.874 -0.965,-3.079 0.583,-0.205 0.787,-4.16 0.787,-4.16 0,0 1.321,-4.66 1.084,-5.931 -0.238,-1.271 1.079,-4.264 1.079,-4.264 l 0.534,-3.593 a 9.959,9.959 0 0 0 1.518,-6.774 l 0.215,-5.561 c 0,0 2.019,-10.695 2.471,-16.152 0.283,-3.481 0.424,-8.241 0.487,-11.212 0.037,-1.671 0.052,-2.774 0.052,-2.774 l -24.554,-3.533 a 20.515,20.515 0 0 1 -0.589,3.66 c -0.301,1.353 -0.765,3.098 -1.485,5.275 -2.011,6.236 -1.113,10.978 -1.113,10.978 l -0.078,7.977 c 0,0 -2.375,5.248 -1.985,7.101 0.233,1.102 0.342,2.228 0.326,3.355 0,0 -5.283,11.436 -4.897,14.824 0.386,3.389 -1.934,8.652 -1.934,8.652 0,0 -0.716,3.772 -0.185,4.827 z"
       fill="#7598d6"
       id="path50" />
    <path
       opacity="0.05"
       d="m 164.275,338.743 -7.465,-1.304 c 0,0 4.085,4.533 7.465,1.304 z"
       fill="#000000"
       id="path51" />
    <path
       opacity="0.1"
       d="m 158.175,330.127 c 0,0 -0.37,2.654 1.229,3.727 -0.015,-0.007 -2.891,-0.577 -1.229,-3.727 z m 0.787,-8.468 c 0,0 6.075,5.431 8.371,5.092 2.297,-0.339 -8.371,-5.092 -8.371,-5.092 z m 14.527,19.879 c 0,0 4.724,1.275 4.795,3.198 0.07,1.924 -4.795,-3.198 -4.795,-3.198 z"
       fill="#000000"
       id="path52" />
    <path
       opacity="0.05"
       d="m 171.518,365.394 c 0,0 6.679,1.521 4.743,2.307 -1.937,0.787 -5.11,1.354 -5.11,1.354 0,0 -2.174,0.037 0.367,-3.661 z m 6.053,3.729 a 1.342,1.342 0 0 0 0.653,-0.954 l 0.063,0.123 c 0,0 0.572,1.569 -0.541,2.237 -0.127,0.07 -0.245,0.145 -0.372,0.216 -0.196,-0.045 -0.411,-0.083 -0.616,-0.142 -0.905,-0.28 -0.3,-0.831 0.813,-1.48 z m -8.661,-0.79 c -0.178,-0.18 -0.152,-0.619 0,-1.182 0.256,0.519 0.366,1.099 0.319,1.677 a 1.295,1.295 0 0 0 -0.319,-0.495 z m 2.131,-28.478 a 7.84,7.84 0 0 1 0.37,2.127 8.113,8.113 0 0 0 -0.467,-1.468 c 0,0 0.041,-0.257 0.097,-0.659 z m -15.3,-3.606 a 2.712,2.712 0 0 1 -0.041,-0.63 c 0.071,0.433 0.116,0.831 0.142,1.182 a 17.786,17.786 0 0 0 -0.101,-0.552 z m 14.68,23.991 a 3.8,3.8 0 0 1 -0.119,-1.278 c 0.192,0.516 0.282,1.066 0.268,1.617 a 1.574,1.574 0 0 0 -0.149,-0.339 z m -1.826,10.747 a 22.66,22.66 0 0 1 0.65,3.553 l 6.868,1.07 a 14.544,14.544 0 0 0 1.659,-2.867 c 0.088,-0.183 0.155,-0.347 0.215,-0.495 0.404,0.204 0.552,0.644 -0.041,1.882 a 14.653,14.653 0 0 1 -1.655,2.863 l -6.883,-1.062 c 0,0 -0.372,-3.632 -1.036,-4.343 -0.308,-0.354 -0.077,-0.515 0.223,-0.601 z m 9.51,-9.934 c 0,0 -0.208,3.955 -0.787,4.16 -0.263,-0.667 -0.434,-1.293 -0.174,-1.386 0.579,-0.209 0.791,-4.161 0.791,-4.161 0,0 1.321,-4.656 1.083,-5.931 -0.238,-1.275 1.076,-4.26 1.076,-4.26 l 0.538,-3.597 a 9.964,9.964 0 0 0 1.518,-6.774 l 0.212,-5.561 c 0,0 2.01,-10.713 2.448,-16.151 0.279,-3.482 0.42,-8.242 0.486,-11.213 0,-0.537 0.023,-1.014 0.03,-1.417 l 0.197,0.03 c 0,0 0,1.118 -0.052,2.77 -0.064,2.982 -0.204,7.734 -0.486,11.216 -0.438,5.435 -2.446,16.152 -2.446,16.152 l -0.215,5.558 a 9.977,9.977 0 0 1 -1.513,6.773 l -0.542,3.597 c 0,0 -1.318,2.982 -1.081,4.264 0.238,1.282 -1.083,5.931 -1.083,5.931 z m -20.813,12.286 a 6.714,6.714 0 0 0 1.195,-2.679 c 0.679,0.663 -0.223,3.112 -1.021,4.063 -0.797,0.95 -6.797,1.401 -7.866,-0.534 l 0.041,-1.091 c 1.484,1.595 6.857,1.188 7.651,0.241 z m -8.427,-6.824 c 0.296,0.562 0.544,1.148 0.743,1.751 l -0.034,0.802 a 12.514,12.514 0 0 0 -0.526,-1.17 3.45,3.45 0 0 1 -0.193,-1.428 z m 8.298,1.236 a 11.178,11.178 0 0 1 -0.512,-1.382 c 0,0 0.96,0.265 2.571,-1.51 1.173,-1.293 1.332,-3.81 1.235,-5.465 0.253,0.988 0.553,5.073 -1.057,6.848 -1.062,1.163 -1.837,1.45 -2.237,1.509 z m 3.454,-12.6 a 30.876,30.876 0 0 0 -0.245,3.397 4.928,4.928 0 0 0 -0.096,-0.538 c -0.249,-0.987 0.163,-4.241 0.163,-4.241 0,0 0.034,-2.297 0.516,-3.024 0.482,-0.726 1.617,-4.931 1.617,-4.931 0,0 0.056,-1.431 0.884,-2.147 0.827,-0.716 1.454,-3.619 1.454,-3.619 a 3.794,3.794 0 0 0 0.665,-2.442 c -0.116,-1.439 1.083,-2.945 1.083,-2.945 l 2.178,-6.113 2.004,-4.574 0.924,2.736 v 0.872 l -0.743,-2.236 -2.003,4.57 -2.178,6.117 c 0,0 -1.199,1.491 -1.084,2.945 a 3.764,3.764 0 0 1 -0.664,2.441 c 0,0 -0.627,2.904 -1.455,3.616 -0.827,0.712 -0.879,2.147 -0.879,2.147 0,0 -1.136,4.205 -1.618,4.935 -0.482,0.731 -0.523,3.034 -0.523,3.034 z"
       fill="#000000"
       id="path53" />
    <path
       d="m 159.864,249.503 0.349,2.111 -0.059,0.931 -0.045,0.686 2.371,0.34 0.286,-0.485 c 0.526,-0.876 1.617,-2.662 1.963,-2.93 0.453,-0.354 1.462,-6.143 0.504,-5.838 a 2.51,2.51 0 0 0 -1.372,1.156 c 0,0 -4.698,0.358 -3.997,4.029 z"
       fill="#fcb6ac"
       id="path54" />
    <path
       opacity="0.1"
       d="m 160.109,253.232 2.372,0.34 0.285,-0.485 a 2.095,2.095 0 0 0 -2.597,-0.537 z"
       fill="#000000"
       id="path55" />
    <path
       d="m 159.464,254.342 3.113,0.854 0.081,-0.469 0.227,-1.257 a 2.183,2.183 0 0 0 -1.402,-0.899 2.162,2.162 0 0 0 -1.622,0.367 l -0.178,0.637 z"
       fill="#dce6f2"
       id="path56" />
    <path
       d="m 210.499,251.703 3.28,1.939 c 0,0 0.137,-0.265 0.33,-0.626 0.345,-0.66 0.857,-1.652 1.002,-2.009 0.219,-0.548 1.644,-1.201 1.644,-1.201 3.64,-3.232 -0.431,-6.284 -0.431,-6.284 -2.041,-4.56 -4.735,1.334 -4.735,1.334 0,0 -0.463,3.142 -0.229,3.355 0.233,0.212 0.2,1.084 0.2,1.084 a 12.698,12.698 0 0 0 -1.061,2.408 z"
       fill="#fcb6ac"
       id="path57" />
    <path
       opacity="0.1"
       d="m 210.499,251.702 3.28,1.939 c 0,0 0.137,-0.265 0.33,-0.626 -0.46,-0.414 -2.086,-1.864 -2.638,-1.805 -0.264,0.027 -0.53,0.027 -0.794,0 a 7.21,7.21 0 0 0 -0.178,0.492 z"
       fill="#000000"
       id="path58" />
    <path
       d="m 210.117,252.698 3.711,2.01 0.103,-0.813 0.075,-0.559 c 0,0 -2.108,-1.961 -2.753,-1.917 -0.33,0.034 -0.662,0.02 -0.988,-0.04 l -0.066,0.678 z"
       fill="#dce6f2"
       id="path59" />
    <path
       d="m 168.461,263.758 c 0,0 16.353,2.498 13.321,1.38 -2.111,-0.783 -2.909,-2.181 -3.028,-3.702 a 8.695,8.695 0 0 1 0.742,-3.795 c 0.429,-1.024 0.96,-2.003 1.585,-2.922 0,0 -12.29,-7.421 -10.019,-1.018 0.351,0.969 0.552,1.986 0.597,3.016 a 8.512,8.512 0 0 1 -0.438,3.012 9.018,9.018 0 0 1 -2.76,4.029 z"
       fill="#fcb6ac"
       id="path60" />
    <path
       opacity="0.1"
       d="m 171.077,253.701 c 0.351,0.969 0.553,1.986 0.598,3.016 1.143,1.04 2.441,1.025 4.107,1.088 1.28,0.052 2.683,0.418 3.711,-0.164 0.429,-1.024 0.96,-2.003 1.584,-2.922 0,0 -12.271,-7.421 -10,-1.018 z"
       fill="#000000"
       id="path61" />
    <path
       d="m 176.249,258.257 c 3.753,0 6.795,-3.056 6.795,-6.825 0,-3.77 -3.042,-6.825 -6.795,-6.825 -3.752,0 -6.794,3.055 -6.794,6.825 0,3.769 3.042,6.825 6.794,6.825 z"
       fill="#fcb6ac"
       id="path62" />
    <path
       opacity="0.1"
       d="m 168.462,263.759 c 0,0 16.353,2.498 13.321,1.379 -2.112,-0.782 -2.91,-2.18 -3.028,-3.701 -0.783,-0.921 -2.401,-1.625 -3.443,-2.01 a 4.946,4.946 0 0 0 -2.969,-0.164 c -0.392,0.1 -0.767,0.257 -1.113,0.467 a 9.02,9.02 0 0 1 -2.768,4.029 z m -8.998,-9.417 3.113,0.853 0.081,-0.469 a 2.755,2.755 0 0 0 -2.968,-1.152 z m 50.653,-1.643 3.711,2.009 0.104,-0.813 a 27.916,27.916 0 0 0 -3.748,-1.819 z m -49.744,52.376 c 6.308,1.257 15.325,2.919 16.775,2.535 1.206,-0.317 5.01,-0.13 8.316,0.112 0.037,-1.67 0.052,-2.774 0.052,-2.774 l -24.554,-3.533 a 20.41,20.41 0 0 1 -0.589,3.66 z"
       fill="#000000"
       id="path63" />
    <path
       d="m 154.091,303.33 c 0,0 20.801,4.422 23.076,3.821 2.275,-0.6 13.785,0.589 13.785,0.589 5.057,3.698 3.087,-1.543 3.087,-1.543 0,0 0.56,-2.677 0,-4.88 a 29.906,29.906 0 0 1 -0.671,-4.905 c 0,0 0.248,-3.437 -0.349,-4.261 -0.598,-0.823 -1.113,-6.59 -1.113,-6.59 0,0 -0.42,-3.918 -0.331,-4.775 0.09,-0.857 -0.045,-3.277 -0.045,-3.277 l -0.59,-4.04 c 4.301,-0.407 17.618,-7.929 17.618,-7.929 0.743,-2.669 5.823,-8.79 5.823,-8.79 a 6.615,6.615 0 0 1 0.46,-1.532 c 0.371,-0.902 -4.687,-2.934 -4.687,-2.934 0,0 -4.011,4.552 -4.842,5.782 -0.832,1.23 -3.678,3.474 -3.678,3.474 a 2.768,2.768 0 0 0 -1.261,0.116 h -0.067 c -0.928,0.33 -1.803,0.793 -2.597,1.375 a 4.962,4.962 0 0 0 -3.533,1.182 c 0,0 -2.326,-0.433 -2.738,-0.048 -0.412,0.384 -2.397,-0.094 -2.397,-0.094 0,0 -1.855,-4.316 -3.195,-3.134 -1.34,1.181 -6.928,0.909 -6.928,0.909 -0.701,-1.022 -2.483,-1.801 -3.596,-2.21 a 4.882,4.882 0 0 0 -2.968,-0.164 3.841,3.841 0 0 0 -1.198,0.525 l -3.503,3.191 c 0,0 -0.924,-1.298 -0.798,-1.581 0.126,-0.283 -1.113,-0.559 -1.113,-0.559 0,0 -1.636,-0.581 -2.256,-0.775 -0.62,-0.194 -1.224,0.462 -1.276,0.522 a 6.67,6.67 0 0 0 0.371,-2.509 c -0.13,-1.096 0.76,-2.039 0.76,-2.039 -1.807,-5.006 -6.471,-1.051 -6.471,-1.051 0,0 -0.62,2.673 -0.2,3.727 0.419,1.055 -0.579,3.191 -0.49,3.769 0.088,0.578 -0.286,1.539 -0.327,2.628 -0.041,1.089 0.449,3.176 0.742,4.1 0.294,0.925 2.969,3.102 2.969,3.102 0,0 0.048,3.273 1.172,5.219 1.124,1.945 0.138,8.386 0.138,8.386 0,0 -1.336,4.999 -2.824,6.55 -1.488,1.551 -3.959,10.653 -3.959,10.653 z"
       fill="#7598d6"
       id="path64" />
    <path
       opacity="0.1"
       d="m 186.061,266.793 c 0,0 0.701,-1.864 1.277,-2.017 a 13.067,13.067 0 0 0 1.684,-0.682 l -0.341,-0.72 c 0,0 -2.166,0.512 -2.53,1.119 -0.364,0.607 -0.09,2.3 -0.09,2.3 z m 11.629,-3.738 c 0.093,0.577 5.151,1.289 5.151,1.289 l -2.468,-2.688 h -0.063 c -0.937,0.336 -1.82,0.807 -2.62,1.399 z"
       fill="#5776ae"
       id="path65" />
    <path
       d="m 212.684,256.209 a 0.456,0.456 0 0 0 0.456,-0.458 0.455,0.455 0 0 0 -0.788,-0.34 0.44,0.44 0 0 0 -0.097,0.157 0.439,0.439 0 0 0 -0.027,0.183 0.46,0.46 0 0 0 0.456,0.458 z m -0.619,0.895 a 0.459,0.459 0 1 0 0,-0.917 0.459,0.459 0 0 0 0,0.917 z m -0.605,0.824 a 0.46,0.46 0 0 0 0.421,-0.283 0.46,0.46 0 0 0 -0.421,-0.634 0.46,0.46 0 1 0 0,0.917 z m -0.631,0.895 a 0.456,0.456 0 0 0 0.457,-0.458 0.47,0.47 0 0 0 -0.124,-0.34 0.444,0.444 0 0 0 -0.152,-0.106 0.448,0.448 0 0 0 -0.362,0 0.44,0.44 0 0 0 -0.151,0.106 0.453,0.453 0 0 0 -0.124,0.34 c 0,0.253 0.204,0.458 0.456,0.458 z m -53.785,-2.214 a 0.37,0.37 0 0 0 0.372,-0.373 0.37,0.37 0 0 0 -0.372,-0.372 0.373,0.373 0 1 0 0,0.745 z m -0.09,0.842 a 0.368,0.368 0 0 0 0.371,-0.372 0.366,0.366 0 0 0 -0.223,-0.365 0.373,0.373 0 0 0 -0.518,0.365 0.37,0.37 0 0 0 0.37,0.372 z m -0.084,0.843 c 0.099,0 0.193,-0.04 0.263,-0.11 a 0.37,0.37 0 0 0 0,-0.527 0.37,0.37 0 0 0 -0.527,0 0.373,0.373 0 0 0 0.264,0.637 z"
       fill="#4e6896"
       id="path66" />
    <path
       opacity="0.1"
       d="m 185.437,282.325 c 0.056,-0.063 -13.432,15.757 -23.057,5.942 0,0 15.695,2.758 23.057,-5.942 z"
       fill="#5776ae"
       id="path67" />
    <path
       opacity="0.1"
       d="m 192.503,291.096 c 0,0 -7.707,-0.085 -8.598,2.106 l -0.089,2.315 a 1.486,1.486 0 0 0 1.433,0.057 c 0.794,-0.392 5.536,-2.588 7.135,-1.38 z"
       fill="#000000"
       id="path68" />
    <path
       d="m 192.359,291.089 c 0,0 -7.366,-0.082 -8.22,2.009 l -0.085,2.207 a 1.402,1.402 0 0 0 1.369,0.052 c 0.743,-0.373 5.295,-2.464 6.824,-1.316 z"
       fill="#5776ae"
       id="path69" />
    <path
       opacity="0.1"
       d="m 188.945,274.144 a 25.137,25.137 0 0 1 -3.181,5.028 20.103,20.103 0 0 1 -4.853,4.354 c 0,0 7.863,-8.338 8.034,-9.382 z m 2.861,-8.887 c 0,0 -1.485,5.521 -4.88,7.284 z m 1.948,0.637 c 0.036,-0.101 0.972,4.451 -4.532,6.736 0,0 2.327,-0.697 4.532,-6.736 z m -33.466,-5.031 c 0.084,0 -2.736,1.658 -3.515,2.445 0.019,0 1.893,-2.624 3.515,-2.445 z"
       fill="#5776ae"
       id="path70" />
    <path
       d="m 177.849,257.686 a 1.46,1.46 0 0 1 -0.568,0.902 1.402,1.402 0 0 1 -0.645,0.116 c -2.074,0.052 -4.234,0.06 -6.116,-0.816 a 2.318,2.318 0 0 1 -0.909,-0.656 c -0.326,-0.433 -0.37,-1.003 -0.486,-1.532 -0.23,-1.029 -0.768,-1.957 -1.142,-2.946 a 9.722,9.722 0 0 1 -0.472,-5.218 3.503,3.503 0 0 1 0.575,-1.491 c 0.579,-0.764 1.592,-1.044 2.342,-1.644 0.749,-0.6 1.254,-1.539 2.123,-1.979 0.779,-0.395 1.71,-0.31 2.567,-0.126 a 13.425,13.425 0 0 1 4.712,1.986 c 0.479,0.325 1.006,0.693 1.577,0.608 0.491,-0.137 0.919,-0.44 1.21,-0.858 0.367,0.949 0.502,1.971 0.393,2.983 a 1.29,1.29 0 0 0 0,0.447 c 0.064,0.182 0.165,0.348 0.297,0.488 0.487,0.615 0.772,1.569 0.245,2.151 -0.23,0.253 -0.575,0.372 -0.797,0.645 -0.401,0.462 -0.301,1.155 -0.316,1.77 a 0.941,0.941 0 0 1 -0.17,0.6 0.883,0.883 0 0 1 -0.847,0.168 2.298,2.298 0 0 0 -0.89,-0.119 1.486,1.486 0 0 0 -0.798,0.566 c -1.006,1.171 -1.421,2.502 -1.885,3.955 z"
       fill="#9298af"
       id="path71" />
    <path
       opacity="0.1"
       d="m 178.9,261.868 c 0,0 -8.535,0.802 -9.24,-0.51 z"
       fill="#000000"
       id="path72" />
    <path
       opacity="0.1"
       d="m 162.547,257.705 c 0,0 -4.716,-0.175 -5.818,1.558 z"
       fill="#5776ae"
       id="path73" />
    <path
       opacity="0.1"
       d="m 274.884,365.326 c 12.758,0 23.101,-1.593 23.101,-3.56 0,-1.966 -10.343,-3.56 -23.101,-3.56 -12.759,0 -23.102,1.594 -23.102,3.56 0,1.967 10.343,3.56 23.102,3.56 z"
       fill="#7dbedc"
       id="path74" />
    <path
       d="m 280.718,325.027 c 0,0 2.21,2.901 -1.02,7.285 -3.231,4.383 -5.891,8.081 -4.814,10.813 0,0 4.87,-8.137 8.838,-8.235 3.969,-0.097 1.36,-4.97 -3.004,-9.863 z"
       fill="#bbcadf"
       id="path75" />
    <path
       opacity="0.1"
       d="m 280.719,325.027 c 0.192,0.28 0.344,0.587 0.451,0.91 3.871,4.566 5.931,8.83 2.213,8.935 -3.465,0.101 -7.623,6.326 -8.618,7.894 0.031,0.127 0.071,0.252 0.119,0.374 0,0 4.87,-8.137 8.838,-8.234 3.968,-0.098 1.36,-4.986 -3.003,-9.879 z"
       fill="#bbcadf"
       id="path76" />
    <path
       d="m 284.825,328.726 c 0,1.021 -0.111,1.849 -0.253,1.849 -0.141,0 -0.254,-0.828 -0.254,-1.849 0,-1.022 0.142,-0.539 0.283,-0.539 0.142,0 0.224,-0.483 0.224,0.539 z"
       fill="#ffd037"
       id="path77" />
    <path
       d="m 286.237,329.945 c -0.894,0.487 -1.672,0.783 -1.739,0.659 -0.067,-0.124 0.603,-0.621 1.49,-1.123 0.886,-0.501 0.54,-0.134 0.607,0 0.067,0.135 0.533,-0.026 -0.358,0.464 z"
       fill="#ffd037"
       id="path78" />
    <path
       d="m 269.049,325.027 c 0,0 -2.21,2.901 1.018,7.285 3.226,4.383 5.894,8.081 4.817,10.813 0,0 -4.874,-8.137 -8.838,-8.235 -3.965,-0.097 -1.36,-4.97 3.003,-9.863 z"
       fill="#bbcadf"
       id="path79" />
    <path
       opacity="0.1"
       d="m 269.049,325.027 a 3.49,3.49 0 0 0 -0.454,0.91 c -3.868,4.566 -5.928,8.83 -2.21,8.935 3.465,0.101 7.62,6.326 8.614,7.894 a 2.736,2.736 0 0 1 -0.115,0.374 c 0,0 -4.874,-8.137 -8.838,-8.234 -3.965,-0.098 -1.36,-4.986 3.003,-9.879 z"
       fill="#bbcadf"
       id="path80" />
    <path
       d="m 264.939,328.726 c 0,1.021 0.116,1.848 0.258,1.848 0.141,0 0.253,-0.827 0.253,-1.848 0,-1.022 -0.142,-0.532 -0.279,-0.532 -0.138,0 -0.232,-0.49 -0.232,0.532 z"
       fill="#ffd037"
       id="path81" />
    <path
       d="m 263.531,329.945 c 0.894,0.487 1.672,0.783 1.739,0.659 0.068,-0.124 -0.603,-0.621 -1.49,-1.123 -0.886,-0.501 -0.54,-0.134 -0.607,0 -0.067,0.135 -0.536,-0.026 0.358,0.464 z"
       fill="#ffd037"
       id="path82" />
    <path
       d="m 286.781,339.213 -0.111,0.907 -0.153,1.28 -0.068,0.535 -0.152,1.28 -0.067,0.535 -0.157,1.277 -1.766,14.56 c -0.16,1.3 -2.273,2.314 -4.843,2.314 h -9.174 c -2.553,0 -4.661,-1.014 -4.818,-2.314 l -1.774,-14.549 -0.152,-1.277 -0.068,-0.534 -0.156,-1.281 -0.063,-0.535 -0.157,-1.281 -0.111,-0.905 c -0.086,-0.749 1.058,-1.355 2.499,-1.355 h 18.787 c 1.442,-0.011 2.587,0.606 2.504,1.343 z"
       fill="#7598d6"
       id="path83" />
    <path
       d="m 286.663,340.12 -0.153,1.28 h -23.251 l -0.156,-1.28 z m -0.22,1.811 -0.153,1.28 h -22.811 l -0.156,-1.28 z m -0.221,1.815 -0.156,1.281 h -22.367 l -0.153,-1.281 z"
       fill="#bbcadf"
       id="path84" />
    <path
       d="m 406.863,161.538 3.431,-1.929 1.609,0.965 32.151,154.755 -1.926,0.367 -4.018,-3.487 z"
       fill="#e4e8ef"
       id="path85" />
    <path
       opacity="0.1"
       d="m 410.294,159.609 31.834,156.087 1.926,-0.367 -32.152,-154.755 z"
       fill="#000000"
       id="path86" />
    <path
       d="m 386.63,168.07 24.469,2.343 v 1.892 l -24.339,-2.119 z m 2.593,23.054 h 25.947 v 2.77 h -26.281 z m 2.379,24.171 26.195,-1.042 3.277,1.042 v 1.775 l -23.274,1.225 h -5.984 z"
       fill="#e4e8ef"
       id="path87" />
    <path
       opacity="0.1"
       d="m 398.133,216.737 22.941,-1.442 v 1.776 l -23.274,1.224 z m -6.531,-1.442 6.531,1.442 -0.334,1.558 h -5.984 z"
       fill="#000000"
       id="path88" />
    <path
       d="m 393.975,241.53 28.92,-2.683 3.187,0.831 v 1.852 l -25.833,2.713 -6.274,0.557 z"
       fill="#e4e8ef"
       id="path89" />
    <path
       opacity="0.1"
       d="m 400.139,242.685 23.07,-2.32 2.873,-0.687 v 1.851 l -25.833,2.714 z"
       fill="#000000"
       id="path90" />
    <path
       opacity="0.1"
       d="m 393.588,243.024 6.551,-0.34 0.11,1.559 -6.274,0.557 z"
       fill="#000000"
       id="path91" />
    <path
       d="m 395.35,267.62 32.615,-4.332 2.796,1.112 v 2.116 l -28.133,4.231 h -6.611 z"
       fill="#e4e8ef"
       id="path92" />
    <path
       opacity="0.1"
       d="m 402.628,269.409 28.133,-5.009 v 2.116 l -28.133,4.231 z m -6.888,0.037 6.888,-0.036 v 1.337 h -6.611 z"
       fill="#000000"
       id="path93" />
    <path
       d="m 397.29,294.423 35.775,-6.671 3.168,1.862 v 1.472 l -31.391,7.616 -6.471,0.49 z"
       fill="#e4e8ef"
       id="path94" />
    <path
       opacity="0.1"
       d="m 404.827,297.248 31.391,-7.572 v 1.471 l -31.391,7.616 z m -6.848,0.344 6.848,-0.343 v 1.515 l -6.471,0.491 z"
       fill="#000000"
       id="path95" />
    <path
       d="m 388.91,157.681 -2.894,0.644 10.452,166.409 3.054,1.125 h 2.412 z"
       fill="#e4e8ef"
       id="path96" />
    <path
       opacity="0.1"
       d="m 387.497,157.995 12.025,167.864 h 2.412 L 388.909,157.681 Z"
       fill="#000000"
       id="path97" />
    <path
       d="m 397.295,153.562 a 9.726,9.726 0 0 0 -1.664,-1.856 3.478,3.478 0 0 0 -1.727,-0.521 4.003,4.003 0 0 1 -1.92,-1.207 c -0.264,-0.27 -0.017,-0.427 0.486,-0.366 0.502,0.061 1.216,0.401 1.429,0.379 0.212,-0.021 0.196,-0.28 -0.069,-0.737 a 5.244,5.244 0 0 0 -1.294,-1.411 c -0.376,-0.24 -1.393,-0.688 -1.532,-1.002 -0.138,-0.315 -0.072,-0.484 0.453,-0.365 0.542,0.09 1.074,0.237 1.584,0.441 0.352,0.139 0.705,-0.214 1.941,0.199 a 9.97,9.97 0 0 1 1.093,0.512 0.971,0.971 0 0 1 0.215,0.032 c 0.472,0.142 0.865,1.707 1.147,2.116 a 21.428,21.428 0 0 0 2.192,1.844 z"
       fill="#fcb6ac"
       id="path98" />
    <path
       d="m 422.126,170.613 c -0.295,-1.503 -0.863,-2.972 -0.877,-4.503 -0.021,-2.486 1.302,-5.372 -0.437,-7.208 -0.397,-0.418 -0.929,-0.73 -1.224,-1.219 a 2.682,2.682 0 0 1 -0.307,-1.375 c -0.029,-2.899 1.569,-5.843 0.612,-8.59 a 2.915,2.915 0 0 0 -1.096,-1.528 c -0.553,-0.36 -1.181,-0.428 -1.859,-0.416 -0.612,0 -1.257,0.068 -1.89,0.08 -0.359,0 -0.715,-0.047 -1.062,-0.14 -0.731,-0.207 -1.353,-0.687 -2.078,-0.923 a 3.406,3.406 0 0 0 -1.182,-0.163 c -1.587,-0.052 -3.038,1.004 -4.167,2.027 -0.563,0.474 -1.159,0.907 -1.783,1.297 0.094,-0.066 -2.205,1.512 -1.34,1.528 a 3.015,3.015 0 0 1 1.71,0.595 4.631,4.631 0 0 0 0.236,5.359 c -0.403,-0.396 -0.809,-0.79 -1.216,-1.181 -1.266,-1.245 -3.036,-2.916 -3.868,-3.372 -1.368,-0.735 -3.322,-2.332 -3.322,-2.332 0,0 -2.539,1.418 -1.757,3.386 0.373,0.116 0.737,0.258 1.089,0.428 0,0.262 0.051,0.52 0.149,0.763 a 8.402,8.402 0 0 1 2.256,1.105 c 0.079,0.11 0.151,0.222 0.217,0.338 0.338,0.591 1.39,1.666 2.675,2.862 0.902,0.904 2.091,1.986 3.274,3.028 -0.357,0.709 -0.732,1.417 -0.798,2.126 a 2.487,2.487 0 0 1 -0.267,-0.123 c -1.758,-0.945 -5.859,-0.846 -5.859,-0.846 0,0 -3.419,-1.786 -4.101,-5.827 0,0 -0.683,-2.446 -0.489,-3.103 h -0.013 l 0.088,-0.019 0.82,-1.485 a 0.656,0.656 0 0 0 -0.539,-0.965 c -3.997,-0.358 -4.186,3.308 -4.186,3.308 h 0.035 l -0.011,0.03 c 0.489,2.351 0.878,2.163 0.782,4.043 l 1.561,4.137 c 0,0 0.097,1.417 2.93,3.29 2.832,1.874 6.055,4.796 6.055,4.796 0,0 -1.709,0.894 -1.075,4.983 0.775,4.999 -0.39,12.129 -0.39,12.129 v 4.607 l 0.217,-0.059 a 25.93,25.93 0 0 0 -0.217,7.489 c 0.586,4.89 2.93,11.576 2.93,11.576 0,0 0.879,2.351 1.075,4.232 0.03,0.372 0.115,0.738 0.25,1.086 a 8.558,8.558 0 0 1 0.685,3.263 22.995,22.995 0 0 0 1.505,8.248 c 0.99,2.513 1.359,3.987 1.467,4.847 -0.709,0.917 -1.621,1.916 -2.346,2.016 -1.368,0.188 -4.004,0.375 -2.246,2.631 0.06,0.078 0.129,0.15 0.203,0.215 -1.336,0.213 -2.802,0.681 -1.375,2.511 1.757,2.256 12.107,1.222 12.107,1.222 0,0 0.067,-1.255 0,-2.632 0.725,-0.049 1.181,-0.094 1.181,-0.094 0,0 0.293,-5.453 -0.975,-6.112 a 2.792,2.792 0 0 0 -0.686,0.165 c -0.136,-0.753 -0.235,-1.692 -0.306,-2.384 l 0.503,-0.038 v -0.037 h 0.031 v -8.217 c 0,0 -0.586,-5.077 -2.734,-7.324 a 4.58,4.58 0 0 1 -0.709,-0.945 l -0.028,-0.059 c 0.014,-0.642 0.014,-1.51 0,-2.504 l 0.031,-0.055 c 0.077,-0.127 0.168,-0.246 0.271,-0.354 l 0.031,-0.04 c 0,0 1.182,-1.418 5.177,-10.343 2.44,-5.448 1.795,-8.505 0.92,-10.081 -0.183,-0.708 -0.569,-2.296 -1.051,-5.015 a 19.672,19.672 0 0 1 -0.281,-3.494 7.008,7.008 0 0 0 1.853,0.207 6.28,6.28 0 0 0 2.834,-0.605 c -0.638,-0.93 -1.304,-2.022 -0.982,-3.092 0.363,-1.218 1.805,-1.778 2.636,-2.761 1.002,-1.189 1.028,-2.885 0.733,-4.39 z"
       fill="url(#b)"
       id="path99"
       style="fill:url(#b)" />
    <path
       d="m 397.381,149.554 c 0,0 -2.424,1.399 -1.678,3.357 0,0 2.519,0.747 3.544,2.61 1.026,1.864 8.952,8.579 8.952,8.579 l 5.788,-2.89 c 0,0 -2.011,-2.683 -8.37,-4.559 0,0 -3.75,-4.017 -5.056,-4.765 -1.307,-0.749 -3.18,-2.332 -3.18,-2.332 z"
       fill="#5776ae"
       id="path100" />
    <path
       opacity="0.05"
       d="m 398.562,150.735 c 0,0 -2.424,1.4 -1.677,3.357 0,0 2.518,0.747 3.543,2.611 1.026,1.864 8.952,8.579 8.952,8.579 l 5.788,-2.89 c 0,0 -2.01,-2.683 -8.37,-4.559 0,0 -3.75,-4.017 -5.056,-4.765 -1.306,-0.749 -3.18,-2.333 -3.18,-2.333 z"
       fill="#000000"
       id="path101" />
    <path
       d="m 412.486,229.085 c 0,0 0.279,4.101 0.747,4.568 0.467,0.468 -4.196,0.747 -4.196,0.747 l 0.652,-5.315 z"
       fill="#ffb9b9"
       id="path102" />
    <path
       opacity="0.05"
       d="m 412.486,229.085 c 0,0 0.279,4.101 0.747,4.568 0.467,0.468 -4.196,0.747 -4.196,0.747 l 0.652,-5.315 z"
       fill="#000000"
       id="path103" />
    <path
       d="m 413.514,232.256 c 0,0 -0.653,0 -2.984,1.211 0,0 -1.585,-0.278 -2.237,-2.518 0,0 -1.959,3.357 -3.263,3.544 -1.304,0.187 -3.822,0.373 -2.145,2.61 1.677,2.238 11.562,1.212 11.562,1.212 0,0 0.276,-5.408 -0.933,-6.059 z"
       fill="#9298af"
       id="path104" />
    <path
       opacity="0.1"
       d="m 413.514,232.256 c 0,0 -0.653,0 -2.984,1.211 0,0 -1.585,-0.278 -2.237,-2.518 0,0 -1.959,3.357 -3.263,3.544 -1.304,0.187 -3.822,0.373 -2.145,2.61 1.677,2.238 11.562,1.212 11.562,1.212 0,0 0.276,-5.408 -0.933,-6.059 z"
       fill="#333333"
       id="path105" />
    <path
       d="m 412.113,235.425 -0.651,1.772 -4.288,-1.212 0.236,-1.758 0.059,-0.425 0.163,-1.182 c 0,0 3.636,-0.933 3.636,-0.472 0.048,0.384 0.127,0.764 0.236,1.136 0.149,0.575 0.335,1.226 0.473,1.654 0.08,0.3 0.136,0.487 0.136,0.487 z"
       fill="#ffb9b9"
       id="path106" />
    <path
       d="m 409.772,211.109 a 2.548,2.548 0 0 0 0,2.599 c 0.184,0.336 0.409,0.648 0.671,0.928 2.05,2.237 2.61,7.271 2.61,7.271 v 8.111 l -1.398,0.107 -2.237,0.172 -3.357,-13.799 c 0,0 -1.959,-10.069 -1.026,-11.842 0.933,-1.771 1.772,-12.866 1.772,-12.866 l 0.775,-0.8 1.836,-1.902 h 5.315 a 3.57,3.57 0 0 1 1.035,1.155 c 0.894,1.476 1.694,4.548 -0.754,10.218 -3.822,8.857 -4.942,10.256 -4.942,10.256 a 2.08,2.08 0 0 0 -0.3,0.392 z"
       fill="#4e6896"
       id="path107" />
    <path
       opacity="0.1"
       d="m 409.803,211.069 a 2.54,2.54 0 0 0 0,2.598 c 0.183,0.337 0.409,0.649 0.67,0.929 2.051,2.237 2.611,7.272 2.611,7.272 v 8.11 l -1.398,0.106 -2.238,0.173 -3.357,-13.8 c 0,0 -1.959,-10.069 -1.026,-11.84 0.934,-1.773 1.773,-12.866 1.773,-12.866 l 0.774,-0.802 1.836,-1.902 h 5.316 c 0.425,0.306 0.779,0.7 1.034,1.156 0.894,1.477 1.695,4.548 -0.753,10.217 -3.822,8.858 -4.942,10.256 -4.942,10.256 a 2.163,2.163 0 0 0 -0.3,0.393 z"
       fill="#333333"
       id="path108" />
    <path
       opacity="0.1"
       d="m 411.512,233.296 -4.036,0.506 0.162,-1.182 c 0,0 3.636,-0.933 3.636,-0.472 0.049,0.389 0.128,0.773 0.238,1.148 z"
       fill="#000000"
       id="path109" />
    <path
       d="m 409.498,199.157 c 0,0 0.236,7.34 0.269,11.952 v 2.599 c 0.005,0.342 -0.02,0.684 -0.076,1.022 -0.278,0.839 0.28,2.703 0.28,2.703 a 26.933,26.933 0 0 1 1.677,11.562 v 4.102 l -4.474,0.56 c 0,0 0.746,-0.56 -1.307,-5.968 a 23.58,23.58 0 0 1 -1.439,-8.18 8.764,8.764 0 0 0 -0.654,-3.236 4.023,4.023 0 0 1 -0.237,-1.078 c -0.186,-1.863 -1.025,-4.195 -1.025,-4.195 0,0 -2.237,-6.615 -2.797,-11.468 a 26.712,26.712 0 0 1 0.129,-6.936 c 0.083,-0.583 0.195,-1.162 0.336,-1.734 0,0 9.115,-5.736 12.557,-1.772 0.331,0.388 0.594,0.83 0.777,1.306 0.189,0.471 0.336,0.957 0.439,1.454 1.071,5.256 -4.455,7.307 -4.455,7.307 z"
       fill="#4e6896"
       id="path110" />
    <path
       d="m 409.221,158.321 a 4.755,4.755 0 1 0 10e-4,-9.51 4.755,4.755 0 0 0 -10e-4,9.51 z"
       fill="#ffb9b9"
       id="path111" />
    <path
       d="m 406.611,156.546 c 0,0 1.958,5.5 0,8.392 -1.958,2.892 6.246,1.959 6.246,1.959 l 3.171,-3.823 c 0,0 -3.73,0 -3.917,-6.528 -0.187,-6.527 -5.5,0 -5.5,0 z"
       fill="#ffb9b9"
       id="path112" />
    <path
       opacity="0.1"
       d="m 416.028,191.324 c -0.676,0.234 -1.371,0.408 -2.077,0.521 -1.16,0.179 -2.53,0.186 -3.331,-0.521 -0.472,-0.418 -1.653,-0.472 -3.05,-0.335 -2.96,0.283 -6.965,1.387 -7.73,1.604 a 17.06,17.06 0 0 1 0.336,-1.734 c 0,0 9.114,-5.736 12.556,-1.772 h 1.989 c 0.426,0.305 0.779,0.699 1.035,1.155 0.173,0.743 0.272,1.082 0.272,1.082 z m -3.915,44.101 -0.651,1.772 -4.288,-1.212 0.235,-1.758 c 0.737,1.631 1.995,1.853 1.995,1.853 0.818,-0.453 1.677,-0.83 2.565,-1.125 0.088,0.283 0.144,0.47 0.144,0.47 z"
       fill="#000000"
       id="path113" />
    <path
       d="m 412.392,234.96 c 0,0 -0.652,0 -2.984,1.212 0,0 -1.586,-0.279 -2.238,-2.519 0,0 -1.958,3.357 -3.262,3.544 -1.304,0.187 -3.823,0.373 -2.145,2.611 1.677,2.237 11.562,1.212 11.562,1.212 0,0 0.279,-5.408 -0.933,-6.06 z"
       fill="#9298af"
       id="path114" />
    <path
       d="m 393.658,116.571 h -45.916 c -1.122,0 -2.031,0.535 -2.031,1.197 v 31.461 c 0,0.662 0.909,1.198 2.031,1.198 h 45.916 c 1.122,0 2.03,-0.536 2.03,-1.198 v -31.461 c 0,-0.662 -0.908,-1.197 -2.03,-1.197 z"
       fill="#e4e8ef"
       id="path115" />
    <path
       d="m 391.437,118.99 h -41.473 c -1.013,0 -1.834,0.459 -1.834,1.026 v 26.966 c 0,0.567 0.821,1.027 1.834,1.027 h 41.473 c 1.013,0 1.834,-0.46 1.834,-1.027 v -26.966 c 0,-0.567 -0.821,-1.026 -1.834,-1.026 z"
       fill="#ffffff"
       id="path116" />
    <path
       opacity="0.2"
       d="m 383.868,123.826 h -26.097 a 1.577,1.577 0 0 0 -1.119,0.467 1.573,1.573 0 0 0 -0.462,1.121 v 6.967 c 0,0.877 0.708,1.588 1.581,1.588 h 26.097 a 1.585,1.585 0 0 0 1.58,-1.588 v -6.967 a 1.588,1.588 0 0 0 -0.461,-1.122 1.588,1.588 0 0 0 -1.119,-0.466 z"
       fill="#7598d6"
       id="path117" />
    <path
       d="m 380.373,137.529 h -19.346 v 2.418 h 19.346 z"
       fill="#ff7067"
       id="path118" />
    <path
       opacity="0.7"
       d="m 389.464,142.047 h -37.305 v 2.07 h 37.305 z"
       fill="#7598d6"
       id="path119" />
    <path
       d="m 393.912,155.241 a 9.711,9.711 0 0 1 -0.734,-2.384 3.475,3.475 0 0 1 0.443,-1.749 4,4 0 0 0 -0.045,-2.266 c -0.096,-0.366 -0.357,-0.234 -0.564,0.228 -0.207,0.462 -0.283,1.248 -0.411,1.419 -0.128,0.171 -0.342,0.024 -0.597,-0.438 a 5.232,5.232 0 0 1 -0.542,-1.837 c -0.012,-0.445 0.129,-1.548 -0.07,-1.828 -0.198,-0.282 -0.377,-0.312 -0.545,0.2 a 7.648,7.648 0 0 0 -0.44,1.584 c -0.061,0.374 -0.546,0.495 -0.829,1.766 a 9.895,9.895 0 0 0 -0.124,1.201 1.06,1.06 0 0 0 -0.084,0.2 c -0.122,0.478 1.018,1.622 1.223,2.075 0.213,0.931 0.364,1.875 0.451,2.827 z"
       fill="#fcb6ac"
       id="path120" />
    <path
       d="m 412.3,164.192 c 0,0 -4.569,-0.746 -5.781,-1.677 0,0 -0.933,1.772 -2.611,0.838 -1.677,-0.933 -5.594,-0.838 -5.594,-0.838 a 8.473,8.473 0 0 1 -3.917,-5.781 c 0,0 -0.652,-2.424 -0.473,-3.072 0,0 -2.424,-2.518 -3.636,0.839 0.473,2.332 0.839,2.145 0.747,4.017 l 1.491,4.101 c 0,0 0.092,1.398 2.797,3.262 2.705,1.864 5.781,4.756 5.781,4.756 0,0 -1.633,0.886 -1.025,4.942 0.741,4.961 -0.373,12.028 -0.373,12.028 v 4.569 c 0,0 9.324,-2.703 10.907,-1.306 1.583,1.396 5.407,0 5.407,0 0,0 -0.472,-1.586 -1.119,-5.408 -0.648,-3.823 0.092,-7.56 0.092,-7.56 0,0 2.424,-6.434 3.544,-9.044 1.12,-2.611 -0.839,-6.142 -2.797,-7.459 -1.959,-1.316 -2.687,-0.521 -2.687,-0.521 0,0 3.443,2.475 -0.753,3.314 z"
       fill="#7598d6"
       id="path121" />
    <path
       opacity="0.05"
       d="m 400.319,177.66 c 0,0 0.744,-0.179 4.472,-0.739 3.728,-0.56 10.256,0.746 10.256,0.746"
       fill="#000000"
       id="path122" />
    <path
       opacity="0.1"
       d="m 403.542,150.485 c 2.126,0.044 3.7,2.667 2.757,4.56 -0.413,0.831 -1.214,1.563 -1.131,2.487 0.037,0.42 0.261,0.801 0.358,1.212 0.447,1.89 -1.814,3.66 -1.297,5.526 0.177,0.5 0.452,0.96 0.808,1.353 l 3.927,4.947 c 0.238,0.273 0.436,0.579 0.586,0.908 0.15,0.469 0.207,0.962 0.17,1.452 -0.019,2.363 0.135,4.898 1.529,6.815 1.674,2.3 5.088,3.127 7.628,1.844 -0.61,-0.924 -1.245,-2.005 -0.945,-3.071 0.348,-1.207 1.722,-1.765 2.516,-2.738 0.959,-1.181 0.983,-2.859 0.709,-4.35 -0.274,-1.491 -0.825,-2.948 -0.836,-4.465 -0.02,-2.463 1.242,-5.327 -0.419,-7.146 -0.38,-0.416 -0.885,-0.723 -1.169,-1.21 a 2.74,2.74 0 0 1 -0.293,-1.366 c -0.026,-2.872 1.498,-5.794 0.583,-8.518 a 2.882,2.882 0 0 0 -1.046,-1.517 c -1.294,-0.872 -3.09,-0.026 -4.588,-0.472 -0.709,-0.206 -1.293,-0.683 -1.985,-0.917 -1.866,-0.631 -3.593,0.635 -4.883,1.85 -0.536,0.468 -1.105,0.898 -1.703,1.285 0.092,-0.05 -2.102,1.514 -1.276,1.531 z"
       fill="#000000"
       id="path123" />
    <path
       d="m 403.778,150.485 c 2.127,0.044 3.7,2.667 2.757,4.56 -0.413,0.831 -1.214,1.563 -1.131,2.487 0.038,0.42 0.262,0.801 0.359,1.212 0.446,1.89 -1.814,3.66 -1.297,5.526 0.176,0.5 0.451,0.961 0.808,1.353 l 3.926,4.947 c 0.239,0.273 0.436,0.579 0.586,0.908 0.15,0.469 0.208,0.962 0.17,1.452 -0.019,2.363 0.135,4.898 1.529,6.815 1.675,2.3 5.089,3.127 7.629,1.844 -0.61,-0.924 -1.246,-2.005 -0.946,-3.071 0.347,-1.207 1.722,-1.765 2.517,-2.738 0.959,-1.181 0.982,-2.859 0.708,-4.35 -0.274,-1.491 -0.824,-2.948 -0.836,-4.465 -0.019,-2.463 1.242,-5.327 -0.419,-7.146 -0.38,-0.416 -0.886,-0.723 -1.169,-1.21 a 2.74,2.74 0 0 1 -0.293,-1.366 c -0.026,-2.872 1.498,-5.794 0.584,-8.518 a 2.893,2.893 0 0 0 -1.047,-1.517 c -1.295,-0.872 -3.09,-0.026 -4.588,-0.472 -0.708,-0.206 -1.292,-0.683 -1.984,-0.917 -1.866,-0.631 -3.594,0.635 -4.884,1.85 -0.536,0.468 -1.105,0.898 -1.703,1.285 0.092,-0.05 -2.103,1.514 -1.276,1.531 z"
       fill="#4e6896"
       id="path124" />
    <path
       d="m 323.106,84.21 c 0,0 -2.402,0.782 -5.801,5.981 -3.399,5.2 -9.081,21.087 -9.081,21.087 h 21.969 c 0,0 9.537,-16.138 10.197,-17.05 a 7.68,7.68 0 0 0 1.233,-3.083 l -2.567,-3.02 z"
       fill="#4d73b8"
       id="path125" />
    <path
       opacity="0.61"
       d="m 323.249,99.529 c -0.158,-0.33 -0.308,-0.667 -0.466,-1.004 -0.595,-1.255 0.316,-4.519 -0.968,-4.748 -1.161,-0.208 -8.986,13.296 -8.563,13.698 0.172,0.172 3.249,-3.256 3.478,-3.17 1.213,0.466 2.719,-2.151 4.009,-2.324 a 2.505,2.505 0 0 0 2.094,-1.112"
       fill="#f9d8cd"
       id="path126" />
    <path
       d="m 356.884,113.987 c 0.784,0.447 1.507,0.994 2.151,1.627 0.393,0.533 0.639,1.158 0.718,1.814 a 4.297,4.297 0 0 0 1.434,1.951 c 0.316,0.266 0.466,0 0.359,-0.544 -0.108,-0.546 -0.538,-1.27 -0.538,-1.507 0,-0.236 0.287,-0.229 0.795,0 a 5.664,5.664 0 0 1 1.636,1.269 c 0.286,0.381 0.853,1.435 1.197,1.557 0.345,0.122 0.524,0 0.359,-0.517 a 8.5,8.5 0 0 0 -0.61,-1.663 c -0.186,-0.366 0.165,-0.775 -0.386,-2.066 a 9.474,9.474 0 0 0 -0.639,-1.126 1.052,1.052 0 0 0 -0.05,-0.229 c -0.194,-0.495 -1.908,-0.782 -2.367,-1.047 a 23.203,23.203 0 0 1 -2.151,-2.194 z"
       fill="#ab7d7d"
       id="path127" />
    <path
       d="m 316.437,91.669 10.692,0.523 13.54,1.585 c 3.894,-6.755 -4.719,-10.506 -6.361,-10.678 l -4.747,-0.717 a 21.289,21.289 0 0 0 -7.223,2.201 c -2.029,1.04 -4.31,3.687 -5.901,7.086 z"
       fill="#4e6896"
       id="path128" />
    <path
       d="m 335.327,81.592 c 0,0 -0.423,1.987 -0.523,2.546 a 1.597,1.597 0 0 1 -1.564,1.305 c -4.174,0 -4.037,-2.625 -4.037,-2.625 0.789,-1.355 1.097,-5.27 1.097,-5.27 m 12.349,39.278 c 0.48,0.759 1.056,1.453 1.714,2.065 a 3.743,3.743 0 0 0 1.836,0.631 4.304,4.304 0 0 1 2.016,1.377 c 0.272,0.302 0,0.46 -0.538,0.373 -0.538,-0.086 -1.291,-0.48 -1.521,-0.466 -0.23,0.015 -0.222,0.294 0.043,0.796 a 5.669,5.669 0 0 0 1.334,1.571 c 0.395,0.272 1.47,0.796 1.606,1.14 0.137,0.344 0.058,0.523 -0.502,0.373 a 8.186,8.186 0 0 1 -1.685,-0.538 c -0.373,-0.165 -0.767,0.201 -2.08,-0.294 a 10.658,10.658 0 0 1 -1.154,-0.595 1.196,1.196 0 0 1 -0.23,-0.043 c -0.502,-0.173 -0.861,-1.872 -1.148,-2.323 a 22.605,22.605 0 0 0 -2.28,-2.073 z"
       fill="#ab7d7d"
       id="path129" />
    <path
       d="m 319.521,94.114 c -1.535,-2.352 3.334,-5.135 3.334,-5.135 l 1.886,0.781 c 1.126,-0.566 3.07,-1.433 3.07,-1.433 l 1.018,2.775 c 0.083,0.438 0.041,0.89 -0.122,1.305 0.072,1.593 2.948,10.334 3.07,10.464 a 120.09,120.09 0 0 1 11.267,14.235 4.184,4.184 0 0 1 -1.055,1.434 6.433,6.433 0 0 1 -1.384,0.976 c 0,0 -8.914,-7.244 -12.959,-11.474 -3.765,-4.01 -6.591,-11.576 -8.125,-13.928 z"
       fill="#4e6896"
       id="path130" />
    <path
       d="m 340.44,79.613 a 5.816,5.816 0 0 1 -2.639,2.754 5.018,5.018 0 0 1 -4.002,-0.108 6.377,6.377 0 0 1 -3.7,-5.737 6.348,6.348 0 0 1 3.844,-5.666 c 2.072,-0.853 5.321,-0.473 6.892,1.291 1.57,1.765 0.551,5.609 -0.395,7.466 z"
       fill="#ab7d7d"
       id="path131" />
    <path
       d="m 330.085,76.493 a 6.358,6.358 0 0 0 3.7,5.738 5.16,5.16 0 0 0 3.585,0.258 8.426,8.426 0 0 1 -2.316,-0.438 6.455,6.455 0 0 1 -3.808,-5.737 c 0,-2.416 2.152,-4.769 4.382,-5.694 0.231,-0.1 0.471,-0.18 0.717,-0.237 a 6.129,6.129 0 0 0 -5.806,3.727 6.14,6.14 0 0 0 -0.49,2.376 z"
       fill="#ab7d7d"
       id="path132" />
    <path
       d="m 341.329,74.636 a 4.94,4.94 0 0 1 -3.751,-2.675 2.503,2.503 0 0 1 -1.594,1.564 2.491,2.491 0 0 1 -2.206,-0.338 3.025,3.025 0 0 1 -2.675,3.135 1.286,1.286 0 0 1 -0.26,1.621 c -0.15,0.13 -0.329,0.223 -0.522,0.272 a 1.701,1.701 0 0 1 -1.844,-1.198 2.582,2.582 0 0 1 0.496,-2.266 4.302,4.302 0 0 1 -1.435,-5.257 4.308,4.308 0 0 1 4.977,-2.223 4.073,4.073 0 0 1 7.66,-0.143 c -0.058,-0.13 1.168,-0.079 1.262,-0.072 0.497,0.026 0.985,0.15 1.434,0.366 0.832,0.408 0.014,7.372 -1.542,7.214 z"
       fill="#3e486e"
       id="path133" />
    <path
       d="m 330.177,76.7 c -0.129,-0.802 0.33,-1.935 1.04,-2.1 a 1.14,1.14 0 0 1 1.498,0.932 c 0.13,0.803 -0.315,2.151 -1.017,2.33 a 1.31,1.31 0 0 1 -1.521,-1.161 z"
       fill="#ab7d7d"
       id="path134" />
    <path
       d="m 340.884,87.617 7.617,12.801 -3.93,4.059 c 0,0 -2.217,-2.015 -3.694,-3.701 -0.607,-0.69 -1.2,-1.393 -1.779,-2.108 a 5.95,5.95 0 0 1 -1.233,-4.87 c 0.148,-1.01 0.403,-2.004 0.76,-2.962 1.47,-2.911 2.259,-3.22 2.259,-3.22 z"
       fill="#4e6896"
       id="path135" />
    <path
       d="m 348.5,100.418 c 0,0 7.89,7.788 11.217,11.74 l -1.929,2.546 c 0,0 -10.865,-6.325 -15.024,-12.5 -2.984,-4.432 5.736,-1.786 5.736,-1.786 z m -26.032,-8.455 c 0,0 -2.453,5.392 -5.02,4.704 -2.116,-0.56 -0.997,-4.984 -0.997,-4.984 l 2.869,-2.596 z"
       fill="#4e6896"
       id="path136" />
    <path
       d="m 340.088,87.723 a 23.2,23.2 0 0 1 -1.879,11.475 l -0.81,-5.802 a 21.974,21.974 0 0 0 0,-9.05 c 0.344,0.101 0.673,0.251 0.975,0.444 a 3.363,3.363 0 0 1 1.714,2.933 z m -9.057,5.215 c 0,0 -0.402,-9.216 -5.588,-9.646 a 2.917,2.917 0 0 0 -1.928,0.717 c 0,0 4.482,1.32 5.228,8.692 z"
       fill="#5e7ebe"
       id="path137" />
    <path
       d="m 332.867,72.004 c 0,0 1.736,3.299 9.194,4.044 0.566,0.057 2.532,-0.38 0.846,-2.101 z"
       fill="#ff7067"
       id="path138" />
    <path
       d="m 343.122,73.316 c 0.553,-1.8 1.585,-7.02 -3.837,-9.323 -8.046,-3.442 -10.915,1.506 -11.962,5.738 a 0.607,0.607 0 0 0 -0.544,0.452 0.51,0.51 0 0 0 0.336,0.502 c 0.7,0.271 1.419,0.492 2.152,0.659 3.191,0.954 9.258,2.582 13.31,2.603 a 0.389,0.389 0 0 0 0.358,0 c 0.567,-0.229 0.187,-0.63 0.187,-0.63 z"
       fill="#ff7067"
       id="path139" />
    <path
       d="m 334.638,62.817 c 0,0 6.59,1.664 4.303,10.815 0.918,0.196 1.852,0.307 2.789,0.33 0,0 2.124,-6.9 -2.445,-9.969 0,0 -2.044,-2.152 -4.647,-1.176 z"
       fill="#ff9892"
       id="path140" />
  </g>
  <defs
     id="defs145">
    <linearGradient
       id="a"
       x1="-63460.801"
       y1="122773"
       x2="-61271.199"
       y2="68281.297"
       gradientUnits="userSpaceOnUse">
      <stop
         stop-color="gray"
         stop-opacity=".25"
         id="stop140" />
      <stop
         offset=".54"
         stop-color="gray"
         stop-opacity=".12"
         id="stop141" />
      <stop
         offset="1"
         stop-color="gray"
         stop-opacity=".1"
         id="stop142" />
    </linearGradient>
    <linearGradient
       id="b"
       x1="34088.199"
       y1="78773.203"
       x2="34088.199"
       y2="39430.5"
       gradientUnits="userSpaceOnUse">
      <stop
         stop-color="gray"
         stop-opacity=".25"
         id="stop143" />
      <stop
         offset=".54"
         stop-color="gray"
         stop-opacity=".12"
         id="stop144" />
      <stop
         offset="1"
         stop-color="gray"
         stop-opacity=".1"
         id="stop145" />
    </linearGradient>
  </defs>
</svg>
