<svg width="577" height="393" fill="none" xmlns="http://www.w3.org/2000/svg">
  <g opacity=".8">
    <path opacity=".1"
          d="M296.491 69.097c-36.216 5.983-72.487 2.763-107.404-1.699-34.917-4.46-69.753-10.158-106.044-9.042-23.332.723-49.287 5.264-65.432 19.2C2.08 90.967-.141 109.299.007 125.878c.111 12.469 1.293 25.386 9.82 35.413 5.918 6.959 14.967 12.013 21.81 18.448 23.84 22.397 17.078 57.092 1.983 86.472-7.101 13.786-15.78 27.315-20.543 41.448-4.762 14.131-5.234 29.354 3.734 41.054 8.896 11.601 25.913 18.282 43.62 21.864 35.957 7.27 75.865 3.518 114.464-1.703 85.437-11.61 169.919-30.389 254.158-49.133 31.179-6.933 62.495-13.907 92.492-24.115 16.657-5.657 33.603-12.776 44.27-24.034 13.538-14.294 13.659-34.023.284-45.989-22.439-20.096-72.639-16.318-90.082-39.187-9.606-12.56-5.696-29.45 1.644-44.296 15.723-31.851 46.537-63.125 42.099-95.132-3.044-21.985-24.54-40.392-53.096-45.482-29.927-5.33-68.176 3.572-85.102 25.43-17.427 22.569-53.095 36.887-85.07 42.162h-.001Z"
          fill="#5E7EBE"/>
    <path
      d="M412.301 112.92H95.841c-2.365 0-4.284 1.968-4.284 4.395v177.377c0 2.427 1.918 4.395 4.284 4.395h316.46c2.367 0 4.285-1.968 4.285-4.395V117.315c0-2.427-1.918-4.395-4.285-4.395Z"
      fill="#F2F5FA"/>
    <path
      d="M414.628 110.547H92.948a1.652 1.652 0 0 0-1.65 1.657v7.009h324.966v-6.995a1.662 1.662 0 0 0-1.005-1.539 1.647 1.647 0 0 0-.631-.132Z"
      fill="#7598D6"/>
    <path
      d="M97.8 117.118a2.239 2.239 0 0 0 2.062-1.385c.112-.271.169-.562.168-.855a2.232 2.232 0 0 0-3.084-2.068 2.235 2.235 0 0 0-1.375 2.068 2.231 2.231 0 0 0 1.375 2.068c.27.113.561.171.855.172Zm6.003 0a2.237 2.237 0 0 0 2.23-2.24 2.237 2.237 0 0 0-2.23-2.24 2.233 2.233 0 0 0-2.229 2.24 2.232 2.232 0 0 0 2.229 2.24Z"
      fill="#fff"/>
    <path
      d="M109.806 117.118a2.238 2.238 0 0 0 2.23-2.24 2.237 2.237 0 0 0-2.23-2.24 2.238 2.238 0 0 0-2.23 2.24 2.237 2.237 0 0 0 2.23 2.24Z"
      fill="#EE5D49"/>
    <path
      d="M380.541 152.695H116.56a3.504 3.504 0 0 0-3.496 3.512v128.318a3.504 3.504 0 0 0 3.496 3.512h263.981a3.504 3.504 0 0 0 3.495-3.512V156.207a3.503 3.503 0 0 0-3.495-3.512Z"
      fill="#fff"/>
    <path opacity=".2"
          d="M178.193 128.409h-75.295c-.732 0-1.324.595-1.324 1.33v5.558c0 .734.592 1.33 1.324 1.33h75.295a1.328 1.328 0 0 0 1.324-1.33v-5.558c0-.735-.593-1.33-1.324-1.33Zm146.977 39.996h-75.296c-.731 0-1.324.595-1.324 1.33v5.557c-.001.352.138.69.387.939.248.25.585.391.937.392h75.296a1.329 1.329 0 0 0 1.324-1.331v-5.557c0-.735-.593-1.33-1.324-1.33Zm43.763 23.01H249.874c-.731 0-1.324.595-1.324 1.33v5.559a1.33 1.33 0 0 0 1.324 1.329h119.059a1.327 1.327 0 0 0 1.325-1.329v-5.559a1.33 1.33 0 0 0-1.325-1.33Zm0 13.438H249.874a1.328 1.328 0 0 0-1.324 1.33v5.558c0 .735.593 1.33 1.324 1.33h119.059a1.328 1.328 0 0 0 1.325-1.33v-5.558a1.33 1.33 0 0 0-1.325-1.33Zm0 13.438H249.874a1.325 1.325 0 0 0-.937.392 1.322 1.322 0 0 0-.387.939v5.558c0 .734.593 1.329 1.324 1.329h119.059a1.327 1.327 0 0 0 1.325-1.329v-5.558a1.34 1.34 0 0 0-.387-.94 1.332 1.332 0 0 0-.938-.391Zm0 13.439H249.874c-.731 0-1.324.595-1.324 1.33v5.557a1.326 1.326 0 0 0 1.324 1.331h119.059a1.34 1.34 0 0 0 .938-.391 1.322 1.322 0 0 0 .387-.94v-5.557c0-.352-.139-.69-.387-.94a1.331 1.331 0 0 0-.938-.39Zm0 14.817H129.079c-.731 0-1.324.595-1.324 1.33v5.557a1.326 1.326 0 0 0 1.324 1.331h239.854a1.33 1.33 0 0 0 1.324-1.331v-5.557c0-.735-.593-1.33-1.324-1.33Zm0 13.438H129.079c-.731 0-1.324.595-1.324 1.33v5.558c0 .735.593 1.33 1.324 1.33h239.854c.731 0 1.324-.595 1.324-1.33v-5.558c0-.735-.593-1.33-1.324-1.33Zm0 13.438H129.079a1.328 1.328 0 0 0-1.324 1.33v5.558c0 .735.593 1.33 1.324 1.33h239.854c.731 0 1.324-.595 1.324-1.33v-5.558a1.327 1.327 0 0 0-1.324-1.33ZM228.426 163.846H130.67a2.922 2.922 0 0 0-2.915 2.929v70.479a2.923 2.923 0 0 0 2.915 2.929h97.756a2.918 2.918 0 0 0 2.696-1.81c.146-.355.221-.735.22-1.119v-70.479a2.921 2.921 0 0 0-2.916-2.929Z"
          fill="#7598D6"/>
    <path opacity=".1"
          d="M358.083 369.964c20.04 0 36.286-4.032 36.286-9.005 0-4.973-16.246-9.005-36.286-9.005-20.04 0-36.286 4.032-36.286 9.005 0 4.973 16.246 9.005 36.286 9.005Z"
          fill="#9298AF"/>
    <path
      d="M361.762 231.21s4.481-.15 5.91 3.517c1.428 3.668.351 6.472-.058 7.804-1.064 3.485-1.152 4.749-.637 6.854.459 1.863.882 2.824 1.404 4.567.523 1.744-.35 1.539-.427 1.676-.077.136-17.545 1.737-17.545 1.737s.467-3.775 1.697-4.65c1.231-.875 2.445-1.053 1.51-4.789-.935-3.734-1.53-5.467-1.005-8.176.608-3.139.99-5.099 3.949-7.157a7.973 7.973 0 0 1 5.202-1.383Z"
      fill="#4E6896"/>
    <path
      d="M366.931 354.394s-2.464 3.65-3.456 4.531c0 0-2.205.807-2.425 2.348-.221 1.542-.186 2.568 2.425 2.638 2.61.071 4.323-.393 4.801-1.978a7.184 7.184 0 0 1 1.523-2.638v3.298h.589s.147-3.19.185-3.778c.038-.587.419-2.842-.82-3.842-1.239-1.001-2.822-.579-2.822-.579Zm-12.336-2.915c-.333.73-.748 1.418-1.238 2.053-.592.77-2.425 3.924-3.237 4.146-.811.222-3.306.66-3.526 2.054-.221 1.393-.331 2.383 2.133 2.493 2.465.11 4.083.257 5.26-1.467 1.177-1.723 3.053-2.97 3.053-2.97v4.499h.959s.441-4.683.699-5.013c.257-.33.919-3.924-1.374-5.795-2.292-1.871-2.729 0-2.729 0Z"
      fill="#7D7D95"/>
    <path
      d="M368.586 283.955s2.769 4.106 3.614 8.892c.843 4.787-.157 20.78-.119 23.145.037 2.366 2.241 8.254 1.8 12.71-.441 4.456-4.128 26.271-4.128 26.271l-2.823-.578s.277-22.611 0-24.482c-.275-1.871-.828-8.69-.938-9.453-.111-.762-7.006-20.995-7.006-24.447 0-3.451 2.086-17.688 9.6-12.058Z"
      fill="#FCB6AC"/>
    <path
      d="M352.955 285.53s-5.11 19.459-5.719 22.154c-.608 2.695-1.485 4.92-1.485 6.065 0 2.656.987 6.921.987 6.921l7.857 30.809 3.258.51s-1.885-18.933-1.984-22.565c-.099-3.632-2.903-8.809-2.35-10.35.554-1.541 8.889-19.305 8.889-19.305s6.306-19.887-9.453-14.239Zm10.519 73.395s2.523 1.407 4.147-.4c.9-1.06 1.62-2.26 2.132-3.553l-2.822-.578-3.457 4.531Z"
      fill="#FCB6AC"/>
    <path
      d="M350.127 357.68s2.204.549 3.053 0c.849-.55 3.721-5.4 4.674-5.69 0 0-.922-1.867-3.258-.51 0 0-3.843 5.393-4.469 6.2Z"
      fill="#FCB6AC"/>
    <path
      d="M345.751 313.751s11.825 5.056 29.429 5.056c0 0-1.854-26.601-4.409-32.334-2.555-5.734-18.22.577-18.22.577s-6.8 21.899-6.8 26.701Z"
      fill="#7598D6"/>
    <path
      d="M332.449 275.207s10.784.926 13.448-.259c1.342-.591 3.152-3.05 4.814-5.736.284-.457.564-.923.837-1.387 2.044-3.473 3.695-6.885 3.695-6.885s4.947-6.2-.309-8.411a6.363 6.363 0 0 0-3.306 2.519c-1.268 1.954-2.26 4.889-2.508 5.857-.25.966-4.474 9.47-4.738 9.71-.265.24-2.919.081-4.964.272-3.338.315-6.858.497-6.858.497l-.111 3.823Z"
      fill="#5E7EBE"/>
    <path
      d="M351.123 266.574c1.322 3.062.075 4.085.684 7.147.608 3.062.821 11.788.709 13.49-.112 1.701 15.122 3.449 18.65.349 0 0-1.175-6.62-3.334-10.735-.412-.781-.22-3.861.203-4.92.128-.323.637-1.576 1.285-3.159l2.189-5.336a1672.73 1672.73 0 0 1 1.467-3.559s.524-4.929-1.528-6.517c-1.779-1.38-6.64-1.87-7.511-2.173-.87-.304-3.408-.441-5.191-.17 0 0-2.729 1.284-3.677 1.475-.948.192-4.63 4.953-5.271 6.692-.641 1.739-.002 4.349 1.325 7.416Z"
      fill="#7598D6"/>
    <path
      d="M357.44 247.849s.545 4.996.441 6.62c0 0 2.283 2.766 5.511-3.379 0 0-.804-2.462.221-5.914 1.025-3.451-6.173 2.673-6.173 2.673Z"
      fill="#FCB6AC"/>
    <path
      d="M366.115 251.596s-1.957 5.745-7.309 5.327c-5.353-.418-2.54-4.858-2.54-4.858s1.336-.763 1.71-.836c.376-.072 5.318-.281 5.318-.281l2.821.648Z"
      fill="#FCB6AC"/>
    <path
      d="M331.605 256.289h12.768a1.013 1.013 0 0 1 1.016 1.014v19.06a1.012 1.012 0 0 1-1.016 1.014h-12.768a1.013 1.013 0 0 1-1.016-1.014v-19.06a1.013 1.013 0 0 1 1.016-1.014Z"
      fill="#434343"/>
    <path d="M331.597 257.723h12.788v18.221h-12.788v-18.221Z" fill="#DBDFF0"/>
    <path
      d="M349.084 273.067a1.483 1.483 0 0 1-.802-.22c-.549-.413-.747-1.431-1.715-1.356-.968.075-1.42 3.104-1.177 3.678.242.574 1.589.862 3.577.466 1.989-.396.117-2.568.117-2.568Z"
      fill="#FCB6AC"/>
    <path
      d="M332.276 260.336s-2.104-.488-2.781.524a3.937 3.937 0 0 0-.533 2.913c.17.602.714 2.15 1.427 1.833 2.283-1.012 1.887-5.27 1.887-5.27Z"
      fill="#EEA886"/>
    <path d="M330.195 260.358s.293-1.416.864-1.174.055 1.177.055 1.177l-.919-.003Z" fill="#EEA886"/>
    <path d="M332.276 260.337s-.033-.809-1.503.024c-1.471.834 1.503-.024 1.503-.024Z" fill="#EEA886"/>
    <path
      d="M312.105 244.72a.095.095 0 0 0 .058-.024.095.095 0 0 0 .017-.027.067.067 0 0 0 .007-.031.067.067 0 0 0-.007-.031.095.095 0 0 0-.017-.027.127.127 0 0 0-.027-.018.081.081 0 0 0-.089.018.083.083 0 0 0-.024.058c0 .022.009.042.024.058a.084.084 0 0 0 .058.024Z"
      fill="#E6E8EC"/>
    <path
      d="M343.303 246.473h-59.425a2.354 2.354 0 0 0-2.163 1.452 2.336 2.336 0 0 0-.176.897v69.309a2.343 2.343 0 0 0 2.339 2.349h59.425a2.34 2.34 0 0 0 2.162-1.452c.117-.285.177-.59.177-.897v-69.309a2.344 2.344 0 0 0-2.339-2.349Z"
      fill="#fff"/>
    <path opacity=".1"
          d="M343.303 246.473h-59.425a2.354 2.354 0 0 0-2.163 1.452 2.336 2.336 0 0 0-.176.897v69.309a2.343 2.343 0 0 0 2.339 2.349h59.425a2.34 2.34 0 0 0 2.162-1.452c.117-.285.177-.59.177-.897v-69.309a2.344 2.344 0 0 0-2.339-2.349Z"
          fill="#3E486E"/>
    <path
      d="M340.034 250.247h-52.887a2.336 2.336 0 0 0-1.656.691 2.346 2.346 0 0 0-.682 1.659v61.759a2.336 2.336 0 0 0 .682 1.659 2.348 2.348 0 0 0 1.656.69h52.887a2.335 2.335 0 0 0 1.656-.69 2.34 2.34 0 0 0 .682-1.659v-61.759a2.343 2.343 0 0 0-2.338-2.35Z"
      fill="#fff"/>
    <path opacity=".7"
          d="M330.541 263.576h-35.225a2.136 2.136 0 0 0-2.133 2.143v9.404a2.15 2.15 0 0 0 .622 1.514 2.14 2.14 0 0 0 1.511.63h35.225a2.145 2.145 0 0 0 1.973-1.325 2.15 2.15 0 0 0 .161-.819v-9.404a2.138 2.138 0 0 0-2.134-2.143Z"
          fill="#7598D6"/>
    <path d="M331.227 282.275h-36.594v2.793h36.594v-2.793Z" fill="#FF7067"/>
    <path opacity=".7"
          d="M338.767 288.17h-50.354v2.794h50.354v-2.794Zm0 6.207h-50.354v2.794h50.354v-2.794Zm0 6.205h-50.354v2.794h50.354v-2.794Z"
          fill="#7598D6"/>
    <path
      d="M346.897 271.505c-.985-.326-1.986-.6-3-.822-1.411-.304-3.086-.402-3.26-.158-.174.243 1.373.505 2.757.896 1.272.361.968.493.968.493s.084-.042-1.369-.178c-1.563-.145-3.17-.143-3.328.169-.077.152-.025.255.538.396-.338-.015-.386.073-.399.209-.067.701 2.204 1.26 3.116 1.482-.696-.167-1.221-.221-.969.252.286.539 3.538 1.19 4.684 1.539 1.252.361.262-4.278.262-4.278Z"
      fill="#FCB6AC"/>
    <path d="M351.558 267.812s-1.605-3.801-1.673-4.659c.013.506.128 3.586.835 6.048.285-.457.565-.923.838-1.387v-.002Z"
          fill="#2F3B6C"/>
    <path d="M349.884 263.155v-.072s-.002.044 0 .072Z" fill="#D1C0BA"/>
    <path d="m358.109 273.07 6.68-11.729s-2.332 11.7-4.101 12.092c-1.768.391-2.579-.363-2.579-.363Z" fill="#5E7EBE"/>
    <path
      d="M371.166 253.122s3.203 1.589 2.098 5.716c-1.104 4.127-2.204 5.302-3.258 6.841-.996 1.456-3.031 5.371-3.28 5.809-.249.437-2.698 6.83-4.947 7.558-2.248.728-13.385-2.806-13.636-2.418-.252.387.015-3.891.015-3.891s5.17.369 6.3.29c1.852-.125 4.826.631 5.54-.97.84-1.879 3.851-8.059 4.169-9.077.317-1.018 4.027-10.905 6.999-9.858Z"
      fill="#5E7EBE"/>
    <path
      d="M358.268 233.556s-4.942 3.216-3.335 10.992c1.607 7.775 7.442 3.504 8.075 3.064.633-.439 2.594-5.309 2.669-7.433.073-2 1.127-10.016-7.409-6.623Z"
      fill="#FCB6AC"/>
    <path
      d="M358.608 235.116c.516-.152 2.244 3.201 3.192 4.028.948.826 2.658 2.906 2.828 5.181.17 2.276 2.094-4.972 1.427-7.663-.669-2.691-1.555-6.635-7.578-3.505-6.022 3.131-4.458 8.72-4.458 8.72s1.983-5.993 4.589-6.761Z"
      fill="#4E6896"/>
    <path
      d="M362.783 240.484c.158-.921 2.204-1.699 2.164-.316-.039 1.382-1.153 2.981-1.79 2.881-.637-.098-.522-1.716-.374-2.565Z"
      fill="#FCB6AC"/>
    <path
      d="M362.533 247.933c-.038.07-1.213 2.324-4.81 2.891-.082-.879-.192-1.956-.192-1.956a5.795 5.795 0 0 0 5.002-.935Z"
      fill="#AB7D7D"/>
    <path opacity=".1"
          d="M163.304 392.163c20.515 0 37.147-4.127 37.147-9.219 0-5.091-16.632-9.218-37.147-9.218-20.515 0-37.147 4.127-37.147 9.218 0 5.092 16.632 9.219 37.147 9.219Z"
          fill="#9298AF"/>
    <path
      d="M264.187 246.16H110.795a2.47 2.47 0 0 0-1.737.724 2.455 2.455 0 0 0-.716 1.74v72.688a2.447 2.447 0 0 0 .716 1.74 2.453 2.453 0 0 0 1.737.724h153.392a2.47 2.47 0 0 0 1.737-.724 2.455 2.455 0 0 0 .716-1.74v-72.688a2.456 2.456 0 0 0-2.453-2.464Z"
      fill="#fff"/>
    <path
      d="M264.187 246.16H110.795a2.47 2.47 0 0 0-1.737.724 2.455 2.455 0 0 0-.716 1.74v72.688a2.447 2.447 0 0 0 .716 1.74 2.453 2.453 0 0 0 1.737.724h153.392a2.47 2.47 0 0 0 1.737-.724 2.455 2.455 0 0 0 .716-1.74v-72.688a2.456 2.456 0 0 0-2.453-2.464Z"
      fill="#F2F5FA"/>
    <path
      d="M255.832 249.589h-137.24a2.47 2.47 0 0 0-1.737.724 2.45 2.45 0 0 0-.716 1.74v64.77a2.456 2.456 0 0 0 2.453 2.465h137.24a2.47 2.47 0 0 0 1.737-.724 2.465 2.465 0 0 0 .716-1.741v-64.77a2.456 2.456 0 0 0-2.453-2.464Z"
      fill="#fff"/>
    <path opacity=".2"
          d="M232.384 264.101H139.34a2.245 2.245 0 0 0-2.237 2.248v9.864a2.245 2.245 0 0 0 2.237 2.248h93.044a2.246 2.246 0 0 0 2.237-2.248v-9.864a2.24 2.24 0 0 0-2.237-2.248Z"
          fill="#7598D6"/>
    <path opacity=".7"
          d="M231.044 283.709H140.68v2.93h90.364v-2.93Zm18.616 6.184H125.317v2.93H249.66v-2.93Zm0 6.508H125.317v2.93H249.66v-2.93Zm0 6.509H125.317v2.929H249.66v-2.929Z"
          fill="#7598D6"/>
    <path
      d="M147.033 379.628c.441-1.617.742-3.042.742-3.042a6.353 6.353 0 0 1 .823-3.082v-.447l.127-3.285a11.146 11.146 0 0 0-.742-1.752c-.55-1.054.185-4.816.185-4.816s2.386-5.244 1.985-8.648c-.4-3.403 5.054-14.847 5.054-14.847.015-1.128-.1-2.253-.342-3.355a2.627 2.627 0 0 1-.036-.697.412.412 0 0 1 0-.086v.026c.159-2.236 2.074-6.336 2.074-6.336l.07-7.977s-.943-4.742 1.114-10.978c.723-2.177 1.198-3.922 1.51-5.271.037-.153.07-.298.1-.44a615.36 615.36 0 0 1-6.598-1.312s2.535-9.088 4.082-10.635c1.547-1.547 2.905-6.549 2.905-6.549s1.017-6.449-.148-8.387c-1.165-1.938-1.217-5.219-1.217-5.219s-2.753-2.173-3.073-3.102c-.319-.928-.827-3.019-.786-4.1.041-1.081.434-2.05.338-2.628-.097-.577.931-2.717.497-3.768a2.897 2.897 0 0 1-.149-1.003v-.03c.032-.903.149-1.8.353-2.68a7.564 7.564 0 0 1 2.857-1.394l.07-.246.186-.638c.091-.056.185-.109.282-.156l.018-.235.06-.928-.357-2.117c-.741-3.676 4.127-4.03 4.127-4.03a2.554 2.554 0 0 1 1.413-1.156c.988-.305-.044 5.484-.515 5.838-.371.265-1.484 2.05-2.022 2.926l-.089.146c.077.074.15.155.215.242l-.234 1.256-.037.19c.306.413.55.869.723 1.353 0 0-.923.939-.786 2.036a6.583 6.583 0 0 1-.371 2.508c.052-.055.701-.708 1.317-.522.616.186 2.331.779 2.331.779s1.287.28 1.157.563c-.13.283.828 1.581.828 1.581l3.61-3.18c.041-.101.078-.197.115-.298.166-.469.29-.952.371-1.443a7.683 7.683 0 0 1-1.113-.399 2.434 2.434 0 0 1-.943-.655c-.333-.433-.371-1.008-.501-1.532-.237-1.03-.794-1.961-1.183-2.949a9.463 9.463 0 0 1-.497-5.219 3.476 3.476 0 0 1 .593-1.491c.601-.764 1.644-1.044 2.42-1.64.775-.596 1.294-1.539 2.185-1.976.809-.395 1.77-.306 2.657-.126a14.146 14.146 0 0 1 4.842 1.979c.498.324 1.043.697 1.633.611.49-.131.922-.424 1.225-.831a.226.226 0 0 1 0-.052l.04-.041a6.17 6.17 0 0 1 .438 2.639c0 .138 0 .279-.03.417v.145a.642.642 0 0 0 0 .124.653.653 0 0 0 .022.182c.066.184.171.351.309.489.1.124.19.258.267.399 0-.049-.026-.097-.041-.146.21.335.321.723.319 1.119a1.1 1.1 0 0 1-.293.779 3.46 3.46 0 0 1-.587.44 6.706 6.706 0 0 1-3.443 6.817c-.044.097-.088.198-.13.298a8.378 8.378 0 0 0-.779 3.792c0 .093 0 .186.03.279.03.093.086.101.122.153 0 0 5.751.279 7.155-.902 1.402-1.182 3.302 3.142 3.302 3.142s2.048.481 2.475.097c.426-.384 2.834.052 2.834.052a5.183 5.183 0 0 1 3.644-1.182 10.654 10.654 0 0 1 2.698-1.371l.067-.023a2.902 2.902 0 0 1 1.302-.115s2.921-2.237 3.793-3.471c.872-1.234 4.965-5.755 4.965-5.777l.025-.224.071-.679c.115.025.232.039.348.045l.09-.235a12.76 12.76 0 0 1 .909-1.893s.033-.861-.208-1.085c-.241-.224.234-3.354.234-3.354s2.779-5.891 4.891-1.332c0 0 4.207 3.061.452 6.289 0 0-1.484.649-1.696 1.197-.148.372-.679 1.349-1.035 2.009l-.16.294.041.038-.074.559-.029.22c.663.413 1.113.816.99 1.118a6.38 6.38 0 0 0-.471 1.532s-5.247 6.076-5.997 8.756c0 0-13.751 7.507-18.182 7.91l.613 4.041c.073 1.09.09 2.184.052 3.276-.093.858.349 4.775.349 4.775s.545 5.763 1.165 6.591c.619.827.371 4.264.371 4.264.093 1.652.326 3.293.698 4.906.564 2.203 0 4.879 0 4.879s2.044 5.245-3.188 1.54c0 0-2.627-.265-5.655-.485v.302c0 .395-.019.82-.03 1.268-.074 2.955-.211 7.026-.464 10.101-.445 5.439-2.508 16.152-2.508 16.152l-.208 5.413c.088.512.121 1.033.097 1.554a10.098 10.098 0 0 1-1.659 5.364l-.553 3.597s-1.058 2.341-1.132 3.761c-.002.116.009.232.03.347.028.184.036.37.026.555 0 1.641-1.143 5.524-1.143 5.524s-.211 3.956-.809 4.161c-.512.178.586 2.307.913 2.918a.597.597 0 0 0 .026-.111l.071.119c.109.325.158.667.144 1.01a1.449 1.449 0 0 1-.708 1.364c-1.147.645-1.77 1.193-.828 1.461.348.068.692.154 1.032.257l.055-.13a.634.634 0 0 1 .371.709 2.898 2.898 0 0 1-.404 1.327 14.505 14.505 0 0 1-1.707 2.862l-.452-.067c.061.175.143.341.244.496.163.256.384.47.646.623.24.155.511.26.794.305a2.289 2.289 0 0 1 1.64.883c.557.787.887 1.842-.311 2.71l-4.272 1.298s-7.287.667-6.842-.951c.446-1.618.742-3.041.742-3.041a6.493 6.493 0 0 1 .698-2.878c.082-.145.174-.285.274-.418l-.256-.037s-.423-3.634-1.12-4.339c-.156-.168-.189-.291-.149-.372-.063-.198.123-.306.371-.374 0 .045.034.094.049.142.233-.039.468-.055.705-.048 0 0 .307-1.883-.43-2.61a.696.696 0 0 1-.127-.566c.001-.26.038-.518.107-.768l.026.045c.454-1.7 1.856-4.377 1.856-4.377s.122-1.718-.323-2.426c-.445-.709.419-9.342.419-9.342s-.018-4.19.587-6.117c.605-1.927-.486-4.268-.486-4.268s0-.044.018-.123a.092.092 0 0 0 0-.033l.097-.656v.041c.163-1.119.463-3.098.664-4.023.286-1.308.233-7.626.233-7.626l-.96-2.721-2.067 4.57-2.227 6.113s-1.043 1.267-1.113 2.609v.198c.009.137.009.276 0 .414a3.706 3.706 0 0 1-.697 2.18s-.643 2.904-1.485 3.616c-.842.712-.909 2.147-.909 2.147s-1.165 4.205-1.666 4.932c-.419.611-.508 2.337-.523 2.866v.153s-.196 1.514-.241 2.789v.451c-.012.336.016.672.081 1.002v.063-.215c.176.872.245 1.764.205 2.653-.034 1.525-.335 3.321-1.295 4.347-1.663 1.774-2.654 1.491-2.654 1.491s.679 2.322 1.603 2.818c.036.019.07.041.101.067 0-.045 0-.09.026-.13a1.123 1.123 0 0 1 .245.864c.029 1.011-.669 2.61-1.3 3.355a1.84 1.84 0 0 1-.812.44c.046.035.095.068.145.097a3 3 0 0 0 .319.164c.149.074.31.122.475.145a2.246 2.246 0 0 1 1.64.884c.557.783.887 1.838-.312 2.706l-4.271 1.297s-7.31.649-6.86-.969Z"
      fill="url(#a)"/>
    <path
      d="m174.621 383.402 4.137-1.301c1.162-.872.843-1.927.305-2.714a2.175 2.175 0 0 0-1.585-.876 1.918 1.918 0 0 1-.772-.309 1.857 1.857 0 0 1-.619-.618 3.075 3.075 0 0 1-.405-1.604s-4.43-1.49-5.707-.219a3.349 3.349 0 0 0-.568.779 6.735 6.735 0 0 0-.682 2.877s-.282 1.421-.716 3.042c-.434 1.621 6.612.943 6.612.943Zm-19.893-2.791 4.138-1.301c1.161-.872.842-1.927.304-2.71a2.165 2.165 0 0 0-1.588-.88 1.43 1.43 0 0 1-.46-.142 2.774 2.774 0 0 1-.308-.167c-1.114-.675-1.028-2.237-1.028-2.237s-4.431-1.491-5.707-.219a3.3 3.3 0 0 0-.453.566 6.536 6.536 0 0 0-.802 3.09s-.285 1.424-.715 3.042c-.431 1.618 6.619.958 6.619.958Z"
      fill="#7D7D95"/>
    <path opacity=".1"
          d="M169.972 375.761a3.358 3.358 0 0 0-.565.779l6.679 1.04a3.073 3.073 0 0 1-.404-1.603s-4.419-1.487-5.71-.216Zm-20.346-2.225-.048 1.263c.98 1.771 6.044 1.589 7.544.779a2.774 2.774 0 0 1-.308-.167c-1.113-.675-1.028-2.237-1.028-2.237s-4.43-1.491-5.707-.219a3.31 3.31 0 0 0-.453.581Z"
          fill="#000"/>
    <path
      d="M149.037 368.064c.294.563.543 1.148.742 1.752l-.182 4.525c1.069 1.939 7.028 1.536 7.867.537.838-.999 1.795-3.664.901-4.156-.894-.492-1.551-2.818-1.551-2.818s.961.269 2.576-1.491c1.613-1.759 1.309-5.863 1.057-6.848-.252-.984.166-4.242.166-4.242s.03-2.296.516-3.023c.487-.727 1.619-4.932 1.619-4.932s.051-1.435.879-2.147c.827-.712 1.455-3.619 1.455-3.619a3.77 3.77 0 0 0 .663-2.442c-.114-1.439 1.085-2.944 1.085-2.944l2.177-6.114 2.004-4.573.924 2.732s.045 6.318-.234 7.627c-.278 1.308-.742 4.793-.742 4.793s1.054 2.338.467 4.268c-.586 1.931-.579 6.118-.579 6.118s-.845 8.636-.415 9.341c.431.704.308 2.423.308 2.423s-2.53 4.954-1.818 5.673c.712.719.415 2.609.415 2.609s-1.595-.063-.938.652c.656.716 1.009 4.321 1.009 4.321l6.869 1.07a14.684 14.684 0 0 0 1.655-2.867c.994-2.083-.097-1.897-1.006-2.162-.909-.265-.308-.816.801-1.461 1.11-.645.542-2.218.542-2.218s-1.547-2.874-.965-3.079c.583-.205.787-4.16.787-4.16s1.321-4.66 1.084-5.931c-.238-1.271 1.079-4.264 1.079-4.264l.534-3.593a9.959 9.959 0 0 0 1.518-6.774l.215-5.561s2.019-10.695 2.471-16.152c.283-3.481.424-8.241.487-11.212.037-1.671.052-2.774.052-2.774l-24.554-3.533a20.515 20.515 0 0 1-.589 3.66c-.301 1.353-.765 3.098-1.485 5.275-2.011 6.236-1.113 10.978-1.113 10.978l-.078 7.977s-2.375 5.248-1.985 7.101c.233 1.102.342 2.228.326 3.355 0 0-5.283 11.436-4.897 14.824.386 3.389-1.934 8.652-1.934 8.652s-.716 3.772-.185 4.827Z"
      fill="#7598D6"/>
    <path opacity=".05" d="m164.275 338.743-7.465-1.304s4.085 4.533 7.465 1.304Z" fill="#000"/>
    <path opacity=".1"
          d="M158.175 330.127s-.37 2.654 1.229 3.727c-.015-.007-2.891-.577-1.229-3.727Zm.787-8.468s6.075 5.431 8.371 5.092c2.297-.339-8.371-5.092-8.371-5.092Zm14.527 19.879s4.724 1.275 4.795 3.198c.07 1.924-4.795-3.198-4.795-3.198Z"
          fill="#000"/>
    <path opacity=".05"
          d="M171.518 365.394s6.679 1.521 4.743 2.307c-1.937.787-5.11 1.354-5.11 1.354s-2.174.037.367-3.661Zm6.053 3.729a1.342 1.342 0 0 0 .653-.954l.063.123s.572 1.569-.541 2.237c-.127.07-.245.145-.372.216-.196-.045-.411-.083-.616-.142-.905-.28-.3-.831.813-1.48Zm-8.661-.79c-.178-.18-.152-.619 0-1.182.256.519.366 1.099.319 1.677a1.295 1.295 0 0 0-.319-.495Zm2.131-28.478a7.84 7.84 0 0 1 .37 2.127 8.113 8.113 0 0 0-.467-1.468s.041-.257.097-.659Zm-15.3-3.606a2.712 2.712 0 0 1-.041-.63c.071.433.116.831.142 1.182a17.786 17.786 0 0 0-.101-.552Zm14.68 23.991a3.8 3.8 0 0 1-.119-1.278c.192.516.282 1.066.268 1.617a1.574 1.574 0 0 0-.149-.339Zm-1.826 10.747a22.66 22.66 0 0 1 .65 3.553l6.868 1.07a14.544 14.544 0 0 0 1.659-2.867c.088-.183.155-.347.215-.495.404.204.552.644-.041 1.882a14.653 14.653 0 0 1-1.655 2.863l-6.883-1.062s-.372-3.632-1.036-4.343c-.308-.354-.077-.515.223-.601Zm9.51-9.934s-.208 3.955-.787 4.16c-.263-.667-.434-1.293-.174-1.386.579-.209.791-4.161.791-4.161s1.321-4.656 1.083-5.931c-.238-1.275 1.076-4.26 1.076-4.26l.538-3.597a9.964 9.964 0 0 0 1.518-6.774l.212-5.561s2.01-10.713 2.448-16.151c.279-3.482.42-8.242.486-11.213 0-.537.023-1.014.03-1.417l.197.03s0 1.118-.052 2.77c-.064 2.982-.204 7.734-.486 11.216-.438 5.435-2.446 16.152-2.446 16.152l-.215 5.558a9.977 9.977 0 0 1-1.513 6.773l-.542 3.597s-1.318 2.982-1.081 4.264c.238 1.282-1.083 5.931-1.083 5.931Zm-20.813 12.286a6.714 6.714 0 0 0 1.195-2.679c.679.663-.223 3.112-1.021 4.063-.797.95-6.797 1.401-7.866-.534l.041-1.091c1.484 1.595 6.857 1.188 7.651.241Zm-8.427-6.824c.296.562.544 1.148.743 1.751l-.034.802a12.514 12.514 0 0 0-.526-1.17 3.45 3.45 0 0 1-.193-1.428l.01.045Zm8.298 1.236a11.178 11.178 0 0 1-.512-1.382s.96.265 2.571-1.51c1.173-1.293 1.332-3.81 1.235-5.465.253.988.553 5.073-1.057 6.848-1.062 1.163-1.837 1.45-2.237 1.509Zm3.454-12.6a30.876 30.876 0 0 0-.245 3.397 4.928 4.928 0 0 0-.096-.538c-.249-.987.163-4.241.163-4.241s.034-2.297.516-3.024c.482-.726 1.617-4.931 1.617-4.931s.056-1.431.884-2.147c.827-.716 1.454-3.619 1.454-3.619a3.794 3.794 0 0 0 .665-2.442c-.116-1.439 1.083-2.945 1.083-2.945l2.178-6.113 2.004-4.574.924 2.736v.872l-.743-2.236-2.003 4.57-2.178 6.117s-1.199 1.491-1.084 2.945a3.764 3.764 0 0 1-.664 2.441s-.627 2.904-1.455 3.616c-.827.712-.879 2.147-.879 2.147s-1.136 4.205-1.618 4.935c-.482.731-.523 3.034-.523 3.034Z"
          fill="#000"/>
    <path
      d="m159.864 249.503.349 2.111-.059.931-.045.686 2.371.34.286-.485c.526-.876 1.617-2.662 1.963-2.93.453-.354 1.462-6.143.504-5.838a2.51 2.51 0 0 0-1.372 1.156s-4.698.358-3.997 4.029Z"
      fill="#FCB6AC"/>
    <path opacity=".1" d="m160.109 253.232 2.372.34.285-.485a2.095 2.095 0 0 0-2.597-.537l-.06.682Z" fill="#000"/>
    <path
      d="m159.464 254.342 3.113.854.081-.469.227-1.257a2.183 2.183 0 0 0-1.402-.899 2.162 2.162 0 0 0-1.622.367l-.178.637-.219.767Z"
      fill="#DCE6F2"/>
    <path
      d="m210.499 251.703 3.28 1.939s.137-.265.33-.626c.345-.66.857-1.652 1.002-2.009.219-.548 1.644-1.201 1.644-1.201 3.64-3.232-.431-6.284-.431-6.284-2.041-4.56-4.735 1.334-4.735 1.334s-.463 3.142-.229 3.355c.233.212.2 1.084.2 1.084a12.698 12.698 0 0 0-1.061 2.408Z"
      fill="#FCB6AC"/>
    <path opacity=".1"
          d="m210.499 251.702 3.28 1.939s.137-.265.33-.626c-.46-.414-2.086-1.864-2.638-1.805-.264.027-.53.027-.794 0a7.21 7.21 0 0 0-.178.492Z"
          fill="#000"/>
    <path
      d="m210.117 252.698 3.711 2.01.103-.813.075-.559s-2.108-1.961-2.753-1.917c-.33.034-.662.02-.988-.04l-.066.678-.082.641Z"
      fill="#DCE6F2"/>
    <path
      d="M168.461 263.758s16.353 2.498 13.321 1.38c-2.111-.783-2.909-2.181-3.028-3.702a8.695 8.695 0 0 1 .742-3.795c.429-1.024.96-2.003 1.585-2.922 0 0-12.29-7.421-10.019-1.018.351.969.552 1.986.597 3.016a8.512 8.512 0 0 1-.438 3.012 9.018 9.018 0 0 1-2.76 4.029Z"
      fill="#FCB6AC"/>
    <path opacity=".1"
          d="M171.077 253.701c.351.969.553 1.986.598 3.016 1.143 1.04 2.441 1.025 4.107 1.088 1.28.052 2.683.418 3.711-.164.429-1.024.96-2.003 1.584-2.922 0 0-12.271-7.421-10-1.018Z"
          fill="#000"/>
    <path
      d="M176.249 258.257c3.753 0 6.795-3.056 6.795-6.825 0-3.77-3.042-6.825-6.795-6.825-3.752 0-6.794 3.055-6.794 6.825 0 3.769 3.042 6.825 6.794 6.825Z"
      fill="#FCB6AC"/>
    <path opacity=".1"
          d="M168.462 263.759s16.353 2.498 13.321 1.379c-2.112-.782-2.91-2.18-3.028-3.701-.783-.921-2.401-1.625-3.443-2.01a4.946 4.946 0 0 0-2.969-.164c-.392.1-.767.257-1.113.467a9.02 9.02 0 0 1-2.768 4.029Zm-8.998-9.417 3.113.853.081-.469a2.755 2.755 0 0 0-2.968-1.152l-.226.768Zm50.653-1.643 3.711 2.009.104-.813a27.916 27.916 0 0 0-3.748-1.819l-.067.623Zm-49.744 52.376c6.308 1.257 15.325 2.919 16.775 2.535 1.206-.317 5.01-.13 8.316.112.037-1.67.052-2.774.052-2.774l-24.554-3.533a20.41 20.41 0 0 1-.589 3.66Z"
          fill="#000"/>
    <path
      d="M154.091 303.33s20.801 4.422 23.076 3.821c2.275-.6 13.785.589 13.785.589 5.057 3.698 3.087-1.543 3.087-1.543s.56-2.677 0-4.88a29.906 29.906 0 0 1-.671-4.905s.248-3.437-.349-4.261c-.598-.823-1.113-6.59-1.113-6.59s-.42-3.918-.331-4.775c.09-.857-.045-3.277-.045-3.277l-.59-4.04c4.301-.407 17.618-7.929 17.618-7.929.743-2.669 5.823-8.79 5.823-8.79a6.615 6.615 0 0 1 .46-1.532c.371-.902-4.687-2.934-4.687-2.934s-4.011 4.552-4.842 5.782c-.832 1.23-3.678 3.474-3.678 3.474a2.768 2.768 0 0 0-1.261.116h-.067c-.928.33-1.803.793-2.597 1.375a4.962 4.962 0 0 0-3.533 1.182s-2.326-.433-2.738-.048c-.412.384-2.397-.094-2.397-.094s-1.855-4.316-3.195-3.134c-1.34 1.181-6.928.909-6.928.909-.701-1.022-2.483-1.801-3.596-2.21a4.882 4.882 0 0 0-2.968-.164 3.841 3.841 0 0 0-1.198.525l-3.503 3.191s-.924-1.298-.798-1.581c.126-.283-1.113-.559-1.113-.559s-1.636-.581-2.256-.775c-.62-.194-1.224.462-1.276.522a6.67 6.67 0 0 0 .371-2.509c-.13-1.096.76-2.039.76-2.039-1.807-5.006-6.471-1.051-6.471-1.051s-.62 2.673-.2 3.727c.419 1.055-.579 3.191-.49 3.769.088.578-.286 1.539-.327 2.628-.041 1.089.449 3.176.742 4.1.294.925 2.969 3.102 2.969 3.102s.048 3.273 1.172 5.219c1.124 1.945.138 8.386.138 8.386s-1.336 4.999-2.824 6.55c-1.488 1.551-3.959 10.653-3.959 10.653Z"
      fill="#7598D6"/>
    <path opacity=".1"
          d="M186.061 266.793s.701-1.864 1.277-2.017a13.067 13.067 0 0 0 1.684-.682l-.341-.72s-2.166.512-2.53 1.119c-.364.607-.09 2.3-.09 2.3Zm11.629-3.738c.093.577 5.151 1.289 5.151 1.289l-2.468-2.688h-.063c-.937.336-1.82.807-2.62 1.399Z"
          fill="#5776AE"/>
    <path
      d="M212.684 256.209a.456.456 0 0 0 .456-.458.455.455 0 0 0-.788-.34.44.44 0 0 0-.097.157.439.439 0 0 0-.027.183.46.46 0 0 0 .456.458Zm-.619.895a.459.459 0 1 0 0-.917.459.459 0 0 0 0 .917Zm-.605.824a.46.46 0 0 0 .421-.283.46.46 0 0 0-.421-.634.46.46 0 1 0 0 .917Zm-.631.895a.456.456 0 0 0 .457-.458.47.47 0 0 0-.124-.34.444.444 0 0 0-.152-.106.448.448 0 0 0-.362 0 .44.44 0 0 0-.151.106.453.453 0 0 0-.124.34c0 .253.204.458.456.458Zm-53.785-2.214a.37.37 0 0 0 .372-.373.37.37 0 0 0-.372-.372.373.373 0 1 0 0 .745Zm-.09.842a.368.368 0 0 0 .371-.372.366.366 0 0 0-.223-.365.373.373 0 0 0-.518.365.37.37 0 0 0 .37.372Zm-.084.843c.099 0 .193-.04.263-.11a.37.37 0 0 0 0-.527.37.37 0 0 0-.527 0 .373.373 0 0 0 .264.637Z"
      fill="#4E6896"/>
    <path opacity=".1" d="M185.437 282.325c.056-.063-13.432 15.757-23.057 5.942 0 0 15.695 2.758 23.057-5.942Z"
          fill="#5776AE"/>
    <path opacity=".1"
          d="M192.503 291.096s-7.707-.085-8.598 2.106l-.089 2.315a1.486 1.486 0 0 0 1.433.057c.794-.392 5.536-2.588 7.135-1.38l.119-3.098Z"
          fill="#000"/>
    <path
      d="M192.359 291.089s-7.366-.082-8.22 2.009l-.085 2.207a1.402 1.402 0 0 0 1.369.052c.743-.373 5.295-2.464 6.824-1.316l.112-2.952Z"
      fill="#5776AE"/>
    <path opacity=".1"
          d="M188.945 274.144a25.137 25.137 0 0 1-3.181 5.028 20.103 20.103 0 0 1-4.853 4.354s7.863-8.338 8.034-9.382Zm2.861-8.887s-1.485 5.521-4.88 7.284l4.88-7.284Zm1.948.637c.036-.101.972 4.451-4.532 6.736 0 0 2.327-.697 4.532-6.736Zm-33.466-5.031c.084 0-2.736 1.658-3.515 2.445.019 0 1.893-2.624 3.515-2.445Z"
          fill="#5776AE"/>
    <path
      d="M177.849 257.686a1.46 1.46 0 0 1-.568.902 1.402 1.402 0 0 1-.645.116c-2.074.052-4.234.06-6.116-.816a2.318 2.318 0 0 1-.909-.656c-.326-.433-.37-1.003-.486-1.532-.23-1.029-.768-1.957-1.142-2.946a9.722 9.722 0 0 1-.472-5.218 3.503 3.503 0 0 1 .575-1.491c.579-.764 1.592-1.044 2.342-1.644.749-.6 1.254-1.539 2.123-1.979.779-.395 1.71-.31 2.567-.126a13.425 13.425 0 0 1 4.712 1.986c.479.325 1.006.693 1.577.608.491-.137.919-.44 1.21-.858.367.949.502 1.971.393 2.983a1.29 1.29 0 0 0 0 .447c.064.182.165.348.297.488.487.615.772 1.569.245 2.151-.23.253-.575.372-.797.645-.401.462-.301 1.155-.316 1.77a.941.941 0 0 1-.17.6.883.883 0 0 1-.847.168 2.298 2.298 0 0 0-.89-.119 1.486 1.486 0 0 0-.798.566c-1.006 1.171-1.421 2.502-1.885 3.955Z"
      fill="#9298AF"/>
    <path opacity=".1" d="M178.9 261.868s-8.535.802-9.24-.51l9.24.51Z" fill="#000"/>
    <path opacity=".1" d="M162.547 257.705s-4.716-.175-5.818 1.558l5.818-1.558Z" fill="#5776AE"/>
    <path opacity=".1"
          d="M274.884 365.326c12.758 0 23.101-1.593 23.101-3.56 0-1.966-10.343-3.56-23.101-3.56-12.759 0-23.102 1.594-23.102 3.56 0 1.967 10.343 3.56 23.102 3.56Z"
          fill="#7DBEDC"/>
    <path
      d="M280.718 325.027s2.21 2.901-1.02 7.285c-3.231 4.383-5.891 8.081-4.814 10.813 0 0 4.87-8.137 8.838-8.235 3.969-.097 1.36-4.97-3.004-9.863Z"
      fill="#BBCADF"/>
    <path opacity=".1"
          d="M280.719 325.027c.192.28.344.587.451.91 3.871 4.566 5.931 8.83 2.213 8.935-3.465.101-7.623 6.326-8.618 7.894.031.127.071.252.119.374 0 0 4.87-8.137 8.838-8.234 3.968-.098 1.36-4.986-3.003-9.879Z"
          fill="#BBCADF"/>
    <path
      d="M284.825 328.726c0 1.021-.111 1.849-.253 1.849-.141 0-.254-.828-.254-1.849 0-1.022.142-.539.283-.539.142 0 .224-.483.224.539Z"
      fill="#FFD037"/>
    <path
      d="M286.237 329.945c-.894.487-1.672.783-1.739.659-.067-.124.603-.621 1.49-1.123.886-.501.54-.134.607 0 .067.135.533-.026-.358.464Z"
      fill="#FFD037"/>
    <path
      d="M269.049 325.027s-2.21 2.901 1.018 7.285c3.226 4.383 5.894 8.081 4.817 10.813 0 0-4.874-8.137-8.838-8.235-3.965-.097-1.36-4.97 3.003-9.863Z"
      fill="#BBCADF"/>
    <path opacity=".1"
          d="M269.049 325.027a3.49 3.49 0 0 0-.454.91c-3.868 4.566-5.928 8.83-2.21 8.935 3.465.101 7.62 6.326 8.614 7.894a2.736 2.736 0 0 1-.115.374s-4.874-8.137-8.838-8.234c-3.965-.098-1.36-4.986 3.003-9.879Z"
          fill="#BBCADF"/>
    <path
      d="M264.939 328.726c0 1.021.116 1.848.258 1.848.141 0 .253-.827.253-1.848 0-1.022-.142-.532-.279-.532-.138 0-.232-.49-.232.532Z"
      fill="#FFD037"/>
    <path
      d="M263.531 329.945c.894.487 1.672.783 1.739.659.068-.124-.603-.621-1.49-1.123-.886-.501-.54-.134-.607 0-.067.135-.536-.026.358.464Z"
      fill="#FFD037"/>
    <path
      d="m286.781 339.213-.111.907-.153 1.28-.068.535-.152 1.28-.067.535-.157 1.277-1.766 14.56c-.16 1.3-2.273 2.314-4.843 2.314h-9.174c-2.553 0-4.661-1.014-4.818-2.314l-1.774-14.549-.152-1.277-.068-.534-.156-1.281-.063-.535-.157-1.281-.111-.905c-.086-.749 1.058-1.355 2.499-1.355h18.787c1.442-.011 2.587.606 2.504 1.343Z"
      fill="#7598D6"/>
    <path
      d="m286.663 340.12-.153 1.28h-23.251l-.156-1.28h23.56Zm-.22 1.811-.153 1.28h-22.811l-.156-1.28h23.12Zm-.221 1.815-.156 1.281h-22.367l-.153-1.281h22.676Z"
      fill="#BBCADF"/>
    <path d="m406.863 161.538 3.431-1.929 1.609.965 32.151 154.755-1.926.367-4.018-3.487-31.247-150.671Z"
          fill="#E4E8EF"/>
    <path opacity=".1" d="m410.294 159.609 31.834 156.087 1.926-.367-32.152-154.755-1.608-.965Z" fill="#000"/>
    <path
      d="m386.63 168.07 24.469 2.343v1.892l-24.339-2.119-.13-2.116Zm2.593 23.054h25.947v2.77h-26.281l.334-2.77Zm2.379 24.171 26.195-1.042 3.277 1.042v1.775l-23.274 1.225h-5.984l-.214-3Z"
      fill="#E4E8EF"/>
    <path opacity=".1"
          d="m398.133 216.737 22.941-1.442v1.776l-23.274 1.224.333-1.558ZM391.602 215.295l6.531 1.442-.334 1.558h-5.984l-.213-3Z"
          fill="#000"/>
    <path d="m393.975 241.53 28.92-2.683 3.187.831v1.852l-25.833 2.713-6.274.557v-3.27Z" fill="#E4E8EF"/>
    <path opacity=".1" d="m400.139 242.685 23.07-2.32 2.873-.687v1.851l-25.833 2.714-.11-1.558Z" fill="#000"/>
    <path opacity=".1" d="m393.588 243.024 6.551-.34.11 1.559-6.274.557-.387-1.776Z" fill="#000"/>
    <path d="m395.35 267.62 32.615-4.332 2.796 1.112v2.116l-28.133 4.231h-6.611l-.667-3.127Z" fill="#E4E8EF"/>
    <path opacity=".1"
          d="m402.628 269.409 28.133-5.009v2.116l-28.133 4.231v-1.338Zm-6.888.037 6.888-.036v1.337h-6.611l-.277-1.301Z"
          fill="#000"/>
    <path d="m397.29 294.423 35.775-6.671 3.168 1.862v1.472l-31.391 7.616-6.471.49-1.081-4.769Z" fill="#E4E8EF"/>
    <path opacity=".1"
          d="m404.827 297.248 31.391-7.572v1.471l-31.391 7.616v-1.515ZM397.979 297.592l6.848-.343v1.515l-6.471.491-.377-1.663Z"
          fill="#000"/>
    <path d="m388.91 157.681-2.894.644 10.452 166.409 3.054 1.125h2.412L388.91 157.681Z" fill="#E4E8EF"/>
    <path opacity=".1" d="m387.497 157.995 12.025 167.864h2.412l-13.025-168.178-1.412.314Z" fill="#000"/>
    <path
      d="M397.295 153.562a9.726 9.726 0 0 0-1.664-1.856 3.478 3.478 0 0 0-1.727-.521 4.003 4.003 0 0 1-1.92-1.207c-.264-.27-.017-.427.486-.366.502.061 1.216.401 1.429.379.212-.021.196-.28-.069-.737a5.244 5.244 0 0 0-1.294-1.411c-.376-.24-1.393-.688-1.532-1.002-.138-.315-.072-.484.453-.365.542.09 1.074.237 1.584.441.352.139.705-.214 1.941.199a9.97 9.97 0 0 1 1.093.512.971.971 0 0 1 .215.032c.472.142.865 1.707 1.147 2.116a21.428 21.428 0 0 0 2.192 1.844l-2.334 1.942Z"
      fill="#FCB6AC"/>
    <path
      d="M422.126 170.613c-.295-1.503-.863-2.972-.877-4.503-.021-2.486 1.302-5.372-.437-7.208-.397-.418-.929-.73-1.224-1.219a2.682 2.682 0 0 1-.307-1.375c-.029-2.899 1.569-5.843.612-8.59a2.915 2.915 0 0 0-1.096-1.528c-.553-.36-1.181-.428-1.859-.416-.612 0-1.257.068-1.89.08-.359 0-.715-.047-1.062-.14-.731-.207-1.353-.687-2.078-.923a3.406 3.406 0 0 0-1.182-.163c-1.587-.052-3.038 1.004-4.167 2.027-.563.474-1.159.907-1.783 1.297.094-.066-2.205 1.512-1.34 1.528a3.015 3.015 0 0 1 1.71.595 4.631 4.631 0 0 0 .236 5.359c-.403-.396-.809-.79-1.216-1.181-1.266-1.245-3.036-2.916-3.868-3.372-1.368-.735-3.322-2.332-3.322-2.332s-2.539 1.418-1.757 3.386c.373.116.737.258 1.089.428 0 .262.051.52.149.763a8.402 8.402 0 0 1 2.256 1.105c.079.11.151.222.217.338.338.591 1.39 1.666 2.675 2.862.902.904 2.091 1.986 3.274 3.028-.357.709-.732 1.417-.798 2.126a2.487 2.487 0 0 1-.267-.123c-1.758-.945-5.859-.846-5.859-.846s-3.419-1.786-4.101-5.827c0 0-.683-2.446-.489-3.103h-.013l.088-.019.82-1.485a.656.656 0 0 0-.539-.965c-3.997-.358-4.186 3.308-4.186 3.308h.035l-.011.03c.489 2.351.878 2.163.782 4.043l1.561 4.137s.097 1.417 2.93 3.29c2.832 1.874 6.055 4.796 6.055 4.796s-1.709.894-1.075 4.983c.775 4.999-.39 12.129-.39 12.129v4.607l.217-.059a25.93 25.93 0 0 0-.217 7.489c.586 4.89 2.93 11.576 2.93 11.576s.879 2.351 1.075 4.232c.03.372.115.738.25 1.086a8.558 8.558 0 0 1 .685 3.263 22.995 22.995 0 0 0 1.505 8.248c.99 2.513 1.359 3.987 1.467 4.847-.709.917-1.621 1.916-2.346 2.016-1.368.188-4.004.375-2.246 2.631.06.078.129.15.203.215-1.336.213-2.802.681-1.375 2.511 1.757 2.256 12.107 1.222 12.107 1.222s.067-1.255 0-2.632c.725-.049 1.181-.094 1.181-.094s.293-5.453-.975-6.112a2.792 2.792 0 0 0-.686.165c-.136-.753-.235-1.692-.306-2.384l.503-.038v-.037h.031v-8.217s-.586-5.077-2.734-7.324a4.58 4.58 0 0 1-.709-.945l-.028-.059c.014-.642.014-1.51 0-2.504l.031-.055c.077-.127.168-.246.271-.354l.031-.04s1.182-1.418 5.177-10.343c2.44-5.448 1.795-8.505.92-10.081-.183-.708-.569-2.296-1.051-5.015a19.672 19.672 0 0 1-.281-3.494 7.008 7.008 0 0 0 1.853.207 6.28 6.28 0 0 0 2.834-.605c-.638-.93-1.304-2.022-.982-3.092.363-1.218 1.805-1.778 2.636-2.761 1.002-1.189 1.028-2.885.733-4.39Z"
      fill="url(#b)"/>
    <path
      d="M397.381 149.554s-2.424 1.399-1.678 3.357c0 0 2.519.747 3.544 2.61 1.026 1.864 8.952 8.579 8.952 8.579l5.788-2.89s-2.011-2.683-8.37-4.559c0 0-3.75-4.017-5.056-4.765-1.307-.749-3.18-2.332-3.18-2.332Z"
      fill="#5776AE"/>
    <path opacity=".05"
          d="M398.562 150.735s-2.424 1.4-1.677 3.357c0 0 2.518.747 3.543 2.611 1.026 1.864 8.952 8.579 8.952 8.579l5.788-2.89s-2.01-2.683-8.37-4.559c0 0-3.75-4.017-5.056-4.765-1.306-.749-3.18-2.333-3.18-2.333Z"
          fill="#000"/>
    <path d="M412.486 229.085s.279 4.101.747 4.568c.467.468-4.196.747-4.196.747l.652-5.315h2.797Z" fill="#FFB9B9"/>
    <path opacity=".05" d="M412.486 229.085s.279 4.101.747 4.568c.467.468-4.196.747-4.196.747l.652-5.315h2.797Z"
          fill="#000"/>
    <path
      d="M413.514 232.256s-.653 0-2.984 1.211c0 0-1.585-.278-2.237-2.518 0 0-1.959 3.357-3.263 3.544-1.304.187-3.822.373-2.145 2.61 1.677 2.238 11.562 1.212 11.562 1.212s.276-5.408-.933-6.059Z"
      fill="#9298AF"/>
    <path opacity=".1"
          d="M413.514 232.256s-.653 0-2.984 1.211c0 0-1.585-.278-2.237-2.518 0 0-1.959 3.357-3.263 3.544-1.304.187-3.822.373-2.145 2.61 1.677 2.238 11.562 1.212 11.562 1.212s.276-5.408-.933-6.059Z"
          fill="#333"/>
    <path
      d="m412.113 235.425-.651 1.772-4.288-1.212.236-1.758.059-.425.163-1.182s3.636-.933 3.636-.472c.048.384.127.764.236 1.136.149.575.335 1.226.473 1.654.08.3.136.487.136.487Z"
      fill="#FFB9B9"/>
    <path
      d="M409.772 211.109a2.548 2.548 0 0 0 0 2.599c.184.336.409.648.671.928 2.05 2.237 2.61 7.271 2.61 7.271v8.111l-1.398.107-2.237.172-3.357-13.799s-1.959-10.069-1.026-11.842c.933-1.771 1.772-12.866 1.772-12.866l.775-.8 1.836-1.902h5.315a3.57 3.57 0 0 1 1.035 1.155c.894 1.476 1.694 4.548-.754 10.218-3.822 8.857-4.942 10.256-4.942 10.256a2.08 2.08 0 0 0-.3.392Z"
      fill="#4E6896"/>
    <path opacity=".1"
          d="M409.803 211.069a2.54 2.54 0 0 0 0 2.598c.183.337.409.649.67.929 2.051 2.237 2.611 7.272 2.611 7.272v8.11l-1.398.106-2.238.173-3.357-13.8s-1.959-10.069-1.026-11.84c.934-1.773 1.773-12.866 1.773-12.866l.774-.802 1.836-1.902h5.316c.425.306.779.7 1.034 1.156.894 1.477 1.695 4.548-.753 10.217-3.822 8.858-4.942 10.256-4.942 10.256a2.163 2.163 0 0 0-.3.393Z"
          fill="#333"/>
    <path opacity=".1" d="m411.512 233.296-4.036.506.162-1.182s3.636-.933 3.636-.472c.049.389.128.773.238 1.148Z"
          fill="#000"/>
    <path
      d="M409.498 199.157s.236 7.34.269 11.952v2.599c.005.342-.02.684-.076 1.022-.278.839.28 2.703.28 2.703a26.933 26.933 0 0 1 1.677 11.562v4.102l-4.474.56s.746-.56-1.307-5.968a23.58 23.58 0 0 1-1.439-8.18 8.764 8.764 0 0 0-.654-3.236 4.023 4.023 0 0 1-.237-1.078c-.186-1.863-1.025-4.195-1.025-4.195s-2.237-6.615-2.797-11.468a26.712 26.712 0 0 1 .129-6.936c.083-.583.195-1.162.336-1.734 0 0 9.115-5.736 12.557-1.772.331.388.594.83.777 1.306.189.471.336.957.439 1.454 1.071 5.256-4.455 7.307-4.455 7.307Z"
      fill="#4E6896"/>
    <path d="M409.221 158.321a4.755 4.755 0 1 0 .001-9.51 4.755 4.755 0 0 0-.001 9.51Z" fill="#FFB9B9"/>
    <path
      d="M406.611 156.546s1.958 5.5 0 8.392c-1.958 2.892 6.246 1.959 6.246 1.959l3.171-3.823s-3.73 0-3.917-6.528c-.187-6.527-5.5 0-5.5 0Z"
      fill="#FFB9B9"/>
    <path opacity=".1"
          d="M416.028 191.324c-.676.234-1.371.408-2.077.521-1.16.179-2.53.186-3.331-.521-.472-.418-1.653-.472-3.05-.335-2.96.283-6.965 1.387-7.73 1.604a17.06 17.06 0 0 1 .336-1.734s9.114-5.736 12.556-1.772h1.989c.426.305.779.699 1.035 1.155.173.743.272 1.082.272 1.082Zm-3.915 44.101-.651 1.772-4.288-1.212.235-1.758c.737 1.631 1.995 1.853 1.995 1.853.818-.453 1.677-.83 2.565-1.125.088.283.144.47.144.47Z"
          fill="#000"/>
    <path
      d="M412.392 234.96s-.652 0-2.984 1.212c0 0-1.586-.279-2.238-2.519 0 0-1.958 3.357-3.262 3.544-1.304.187-3.823.373-2.145 2.611 1.677 2.237 11.562 1.212 11.562 1.212s.279-5.408-.933-6.06Z"
      fill="#9298AF"/>
    <path
      d="M393.658 116.571h-45.916c-1.122 0-2.031.535-2.031 1.197v31.461c0 .662.909 1.198 2.031 1.198h45.916c1.122 0 2.03-.536 2.03-1.198v-31.461c0-.662-.908-1.197-2.03-1.197Z"
      fill="#E4E8EF"/>
    <path
      d="M391.437 118.99h-41.473c-1.013 0-1.834.459-1.834 1.026v26.966c0 .567.821 1.027 1.834 1.027h41.473c1.013 0 1.834-.46 1.834-1.027v-26.966c0-.567-.821-1.026-1.834-1.026Z"
      fill="#fff"/>
    <path opacity=".2"
          d="M383.868 123.826h-26.097a1.577 1.577 0 0 0-1.119.467 1.573 1.573 0 0 0-.462 1.121v6.967c0 .877.708 1.588 1.581 1.588h26.097a1.585 1.585 0 0 0 1.58-1.588v-6.967a1.588 1.588 0 0 0-.461-1.122 1.588 1.588 0 0 0-1.119-.466Z"
          fill="#7598D6"/>
    <path d="M380.373 137.529h-19.346v2.418h19.346v-2.418Z" fill="#FF7067"/>
    <path opacity=".7" d="M389.464 142.047h-37.305v2.07h37.305v-2.07Z" fill="#7598D6"/>
    <path
      d="M393.912 155.241a9.711 9.711 0 0 1-.734-2.384 3.475 3.475 0 0 1 .443-1.749 4 4 0 0 0-.045-2.266c-.096-.366-.357-.234-.564.228-.207.462-.283 1.248-.411 1.419-.128.171-.342.024-.597-.438a5.232 5.232 0 0 1-.542-1.837c-.012-.445.129-1.548-.07-1.828-.198-.282-.377-.312-.545.2a7.648 7.648 0 0 0-.44 1.584c-.061.374-.546.495-.829 1.766a9.895 9.895 0 0 0-.124 1.201 1.06 1.06 0 0 0-.084.2c-.122.478 1.018 1.622 1.223 2.075.213.931.364 1.875.451 2.827l2.868-.998Z"
      fill="#FCB6AC"/>
    <path
      d="M412.3 164.192s-4.569-.746-5.781-1.677c0 0-.933 1.772-2.611.838-1.677-.933-5.594-.838-5.594-.838a8.473 8.473 0 0 1-3.917-5.781s-.652-2.424-.473-3.072c0 0-2.424-2.518-3.636.839.473 2.332.839 2.145.747 4.017l1.491 4.101s.092 1.398 2.797 3.262 5.781 4.756 5.781 4.756-1.633.886-1.025 4.942c.741 4.961-.373 12.028-.373 12.028v4.569s9.324-2.703 10.907-1.306c1.583 1.396 5.407 0 5.407 0s-.472-1.586-1.119-5.408c-.648-3.823.092-7.56.092-7.56s2.424-6.434 3.544-9.044c1.12-2.611-.839-6.142-2.797-7.459-1.959-1.316-2.687-.521-2.687-.521s3.443 2.475-.753 3.314Z"
      fill="#7598D6"/>
    <path opacity=".05" d="M400.319 177.66s.744-.179 4.472-.739c3.728-.56 10.256.746 10.256.746" fill="#000"/>
    <path opacity=".1"
          d="M403.542 150.485c2.126.044 3.7 2.667 2.757 4.56-.413.831-1.214 1.563-1.131 2.487.037.42.261.801.358 1.212.447 1.89-1.814 3.66-1.297 5.526.177.5.452.96.808 1.353l3.927 4.947c.238.273.436.579.586.908.15.469.207.962.17 1.452-.019 2.363.135 4.898 1.529 6.815 1.674 2.3 5.088 3.127 7.628 1.844-.61-.924-1.245-2.005-.945-3.071.348-1.207 1.722-1.765 2.516-2.738.959-1.181.983-2.859.709-4.35-.274-1.491-.825-2.948-.836-4.465-.02-2.463 1.242-5.327-.419-7.146-.38-.416-.885-.723-1.169-1.21a2.74 2.74 0 0 1-.293-1.366c-.026-2.872 1.498-5.794.583-8.518a2.882 2.882 0 0 0-1.046-1.517c-1.294-.872-3.09-.026-4.588-.472-.709-.206-1.293-.683-1.985-.917-1.866-.631-3.593.635-4.883 1.85-.536.468-1.105.898-1.703 1.285.092-.05-2.102 1.514-1.276 1.531Z"
          fill="#000"/>
    <path
      d="M403.778 150.485c2.127.044 3.7 2.667 2.757 4.56-.413.831-1.214 1.563-1.131 2.487.038.42.262.801.359 1.212.446 1.89-1.814 3.66-1.297 5.526.176.5.451.961.808 1.353l3.926 4.947c.239.273.436.579.586.908.15.469.208.962.17 1.452-.019 2.363.135 4.898 1.529 6.815 1.675 2.3 5.089 3.127 7.629 1.844-.61-.924-1.246-2.005-.946-3.071.347-1.207 1.722-1.765 2.517-2.738.959-1.181.982-2.859.708-4.35-.274-1.491-.824-2.948-.836-4.465-.019-2.463 1.242-5.327-.419-7.146-.38-.416-.886-.723-1.169-1.21a2.74 2.74 0 0 1-.293-1.366c-.026-2.872 1.498-5.794.584-8.518a2.893 2.893 0 0 0-1.047-1.517c-1.295-.872-3.09-.026-4.588-.472-.708-.206-1.292-.683-1.984-.917-1.866-.631-3.594.635-4.884 1.85-.536.468-1.105.898-1.703 1.285.092-.05-2.103 1.514-1.276 1.531Z"
      fill="#4E6896"/>
    <path
      d="M323.106 84.21s-2.402.782-5.801 5.981c-3.399 5.2-9.081 21.087-9.081 21.087h21.969s9.537-16.138 10.197-17.05a7.68 7.68 0 0 0 1.233-3.083l-2.567-3.02-15.95-3.915Z"
      fill="#4D73B8"/>
    <path opacity=".61"
          d="M323.249 99.529c-.158-.33-.308-.667-.466-1.004-.595-1.255.316-4.519-.968-4.748-1.161-.208-8.986 13.296-8.563 13.698.172.172 3.249-3.256 3.478-3.17 1.213.466 2.719-2.151 4.009-2.324a2.505 2.505 0 0 0 2.094-1.112"
          fill="#F9D8CD"/>
    <path
      d="M356.884 113.987c.784.447 1.507.994 2.151 1.627.393.533.639 1.158.718 1.814a4.297 4.297 0 0 0 1.434 1.951c.316.266.466 0 .359-.544-.108-.546-.538-1.27-.538-1.507 0-.236.287-.229.795 0a5.664 5.664 0 0 1 1.636 1.269c.286.381.853 1.435 1.197 1.557.345.122.524 0 .359-.517a8.5 8.5 0 0 0-.61-1.663c-.186-.366.165-.775-.386-2.066a9.474 9.474 0 0 0-.639-1.126 1.052 1.052 0 0 0-.05-.229c-.194-.495-1.908-.782-2.367-1.047a23.203 23.203 0 0 1-2.151-2.194l-1.908 2.675Z"
      fill="#AB7D7D"/>
    <path
      d="m316.437 91.669 10.692.523 13.54 1.585c3.894-6.755-4.719-10.506-6.361-10.678l-4.747-.717a21.289 21.289 0 0 0-7.223 2.201c-2.029 1.04-4.31 3.687-5.901 7.086Z"
      fill="#4E6896"/>
    <path
      d="M335.327 81.592s-.423 1.987-.523 2.546a1.597 1.597 0 0 1-1.564 1.305c-4.174 0-4.037-2.625-4.037-2.625.789-1.355 1.097-5.27 1.097-5.27m12.349 39.278c.48.759 1.056 1.453 1.714 2.065a3.743 3.743 0 0 0 1.836.631 4.304 4.304 0 0 1 2.016 1.377c.272.302 0 .46-.538.373-.538-.086-1.291-.48-1.521-.466-.23.015-.222.294.043.796a5.669 5.669 0 0 0 1.334 1.571c.395.272 1.47.796 1.606 1.14.137.344.058.523-.502.373a8.186 8.186 0 0 1-1.685-.538c-.373-.165-.767.201-2.08-.294a10.658 10.658 0 0 1-1.154-.595 1.196 1.196 0 0 1-.23-.043c-.502-.173-.861-1.872-1.148-2.323a22.605 22.605 0 0 0-2.28-2.073l2.589-1.994Z"
      fill="#AB7D7D"/>
    <path
      d="M319.521 94.114c-1.535-2.352 3.334-5.135 3.334-5.135l1.886.781c1.126-.566 3.07-1.433 3.07-1.433l1.018 2.775c.083.438.041.89-.122 1.305.072 1.593 2.948 10.334 3.07 10.464a120.09 120.09 0 0 1 11.267 14.235 4.184 4.184 0 0 1-1.055 1.434 6.433 6.433 0 0 1-1.384.976s-8.914-7.244-12.959-11.474c-3.765-4.01-6.591-11.576-8.125-13.928Z"
      fill="#4E6896"/>
    <path
      d="M340.44 79.613a5.816 5.816 0 0 1-2.639 2.754 5.018 5.018 0 0 1-4.002-.108 6.377 6.377 0 0 1-3.7-5.737 6.348 6.348 0 0 1 3.844-5.666c2.072-.853 5.321-.473 6.892 1.291 1.57 1.765.551 5.609-.395 7.466Z"
      fill="#AB7D7D"/>
    <path
      d="M330.085 76.493a6.358 6.358 0 0 0 3.7 5.738 5.16 5.16 0 0 0 3.585.258 8.426 8.426 0 0 1-2.316-.438 6.455 6.455 0 0 1-3.808-5.737c0-2.416 2.152-4.769 4.382-5.694.231-.1.471-.18.717-.237a6.129 6.129 0 0 0-5.806 3.727 6.14 6.14 0 0 0-.49 2.376l.036.007Z"
      fill="#AB7D7D"/>
    <path
      d="M341.329 74.636a4.94 4.94 0 0 1-3.751-2.675 2.503 2.503 0 0 1-1.594 1.564 2.491 2.491 0 0 1-2.206-.338 3.025 3.025 0 0 1-2.675 3.135 1.286 1.286 0 0 1-.26 1.621c-.15.13-.329.223-.522.272a1.701 1.701 0 0 1-1.844-1.198 2.582 2.582 0 0 1 .496-2.266 4.302 4.302 0 0 1-1.435-5.257 4.308 4.308 0 0 1 4.977-2.223 4.073 4.073 0 0 1 7.66-.143c-.058-.13 1.168-.079 1.262-.072.497.026.985.15 1.434.366.832.408.014 7.372-1.542 7.214Z"
      fill="#3E486E"/>
    <path
      d="M330.177 76.7c-.129-.802.33-1.935 1.04-2.1a1.14 1.14 0 0 1 1.498.932c.13.803-.315 2.151-1.017 2.33a1.31 1.31 0 0 1-1.521-1.161Z"
      fill="#AB7D7D"/>
    <path
      d="m340.884 87.617 7.617 12.801-3.93 4.059s-2.217-2.015-3.694-3.701c-.607-.69-1.2-1.393-1.779-2.108a5.95 5.95 0 0 1-1.233-4.87c.148-1.01.403-2.004.76-2.962 1.47-2.911 2.259-3.22 2.259-3.22Z"
      fill="#4E6896"/>
    <path
      d="M348.5 100.418s7.89 7.788 11.217 11.74l-1.929 2.546s-10.865-6.325-15.024-12.5c-2.984-4.432 5.736-1.786 5.736-1.786Zm-26.032-8.455s-2.453 5.392-5.02 4.704c-2.116-.56-.997-4.984-.997-4.984l2.869-2.596 3.148 2.876Z"
      fill="#4E6896"/>
    <path
      d="M340.088 87.723a23.2 23.2 0 0 1-1.879 11.475l-.81-5.802a21.974 21.974 0 0 0 0-9.05c.344.101.673.251.975.444a3.363 3.363 0 0 1 1.714 2.933Zm-9.057 5.215s-.402-9.216-5.588-9.646a2.917 2.917 0 0 0-1.928.717s4.482 1.32 5.228 8.692l2.288.237Z"
      fill="#5E7EBE"/>
    <path d="M332.867 72.004s1.736 3.299 9.194 4.044c.566.057 2.532-.38.846-2.101l-10.04-1.943Z" fill="#FF7067"/>
    <path
      d="M343.122 73.316c.553-1.8 1.585-7.02-3.837-9.323-8.046-3.442-10.915 1.506-11.962 5.738a.607.607 0 0 0-.544.452.51.51 0 0 0 .336.502c.7.271 1.419.492 2.152.659 3.191.954 9.258 2.582 13.31 2.603a.389.389 0 0 0 .358 0c.567-.229.187-.63.187-.63Z"
      fill="#FF7067"/>
    <path
      d="M334.638 62.817s6.59 1.664 4.303 10.815c.918.196 1.852.307 2.789.33 0 0 2.124-6.9-2.445-9.969 0 0-2.044-2.152-4.647-1.176Z"
      fill="#FF9892"/>
  </g>
  <defs>
    <linearGradient id="a" x1="-63460.8" y1="122773" x2="-61271.2" y2="68281.3" gradientUnits="userSpaceOnUse">
      <stop stop-color="gray" stop-opacity=".25"/>
      <stop offset=".54" stop-color="gray" stop-opacity=".12"/>
      <stop offset="1" stop-color="gray" stop-opacity=".1"/>
    </linearGradient>
    <linearGradient id="b" x1="34088.2" y1="78773.2" x2="34088.2" y2="39430.5" gradientUnits="userSpaceOnUse">
      <stop stop-color="gray" stop-opacity=".25"/>
      <stop offset=".54" stop-color="gray" stop-opacity=".12"/>
      <stop offset="1" stop-color="gray" stop-opacity=".1"/>
    </linearGradient>
  </defs>
</svg>
