<svg xmlns="http://www.w3.org/2000/svg" width="378" height="257.46" fill="none"><g opacity=".8"><path fill="#5e7ebe" d="M194.7 45.37c-23.79 3.93-47.6 1.82-70.53-1.11s-45.8-6.67-69.64-5.94c-15.32.47-32.36 3.46-42.97 12.6C1.36 59.74-.09 71.78 0 82.67c.08 8.19.85 16.67 6.45 23.25 3.89 4.57 9.83 7.9 14.32 12.12 15.66 14.7 11.22 37.49 1.3 56.78-4.66 9.05-10.36 17.94-13.48 27.22S5.15 221.31 11.04 229c5.84 7.61 17.02 12 28.64 14.35 23.61 4.78 49.82 2.31 75.17-1.11 56.1-7.63 111.58-19.96 166.9-32.27 20.47-4.55 41.03-9.13 60.73-15.83 10.94-3.72 22.07-8.4 29.07-15.79 8.89-9.38 8.97-22.34.19-30.2-14.74-13.2-47.7-10.71-59.16-25.73-6.3-8.25-3.74-19.34 1.08-29.09 10.33-20.91 30.56-41.45 27.65-62.46-2-14.44-16.12-26.53-34.87-29.87-19.65-3.5-44.77 2.34-55.88 16.7-11.46 14.8-34.87 24.2-55.86 27.67" opacity=".1"/><path fill="#f2f5fa" d="M270.74 74.15H62.94a2.85 2.85 0 0 0-2.82 2.89V193.5c0 1.6 1.26 2.89 2.82 2.89h207.8c1.56 0 2.82-1.3 2.82-2.89V77.04c0-1.6-1.26-2.89-2.82-2.89"/><path fill="#7598d6" d="M272.27 72.6H61.04a1.1 1.1 0 0 0-1.09 1.08v4.6h213.4v-4.6a1.1 1.1 0 0 0-.66-1 1 1 0 0 0-.42-.09"/><path fill="#fff" d="M64.22 76.9a1.5 1.5 0 0 0 1.36-.9q.1-.27.1-.56a1.47 1.47 0 0 0-2.02-1.36 1.5 1.5 0 0 0-.9 1.36 1.5 1.5 0 0 0 .9 1.35q.27.12.56.12m3.94 0a1.47 1.47 0 0 0 1.47-1.46 1.47 1.47 0 0 0-1.47-1.47 1.47 1.47 0 0 0-1.46 1.47 1.47 1.47 0 0 0 1.46 1.47"/><path fill="#ee5d49" d="M72.1 76.9a1.47 1.47 0 0 0 1.47-1.46 1.47 1.47 0 0 0-1.46-1.47 1.47 1.47 0 0 0-1.47 1.47 1.47 1.47 0 0 0 1.47 1.47"/><path fill="#fff" d="M249.89 100.27H76.54a2.3 2.3 0 0 0-2.3 2.3v84.27a2.3 2.3 0 0 0 2.3 2.3H249.9a2.3 2.3 0 0 0 2.3-2.3v-84.26a2.3 2.3 0 0 0-2.3-2.31"/><path fill="#7598d6" d="M117.01 84.32H67.57c-.48 0-.87.4-.87.87v3.65c0 .49.39.88.87.88H117a.87.87 0 0 0 .87-.88V85.2a.87.87 0 0 0-.87-.87m96.52 26.27h-49.45a.87.87 0 0 0-.87.87v3.65a.87.87 0 0 0 .87.87h49.45a.87.87 0 0 0 .87-.87v-3.65a.87.87 0 0 0-.87-.87m28.73 15.1h-78.18c-.48 0-.87.4-.87.88v3.65a.87.87 0 0 0 .87.87h78.18a.87.87 0 0 0 .87-.87v-3.65a.87.87 0 0 0-.87-.87m0 8.83h-78.18a.87.87 0 0 0-.87.87v3.65c0 .49.4.88.87.88h78.18a.87.87 0 0 0 .87-.88v-3.65a.87.87 0 0 0-.87-.87m0 8.82h-78.18a1 1 0 0 0-.61.26 1 1 0 0 0-.26.62v3.65c0 .48.4.87.87.87h78.18a.87.87 0 0 0 .87-.87v-3.65a1 1 0 0 0-.25-.62 1 1 0 0 0-.62-.26m0 8.83h-78.18a.87.87 0 0 0-.87.87v3.65a.87.87 0 0 0 .87.87h78.18a1 1 0 0 0 .62-.25 1 1 0 0 0 .25-.62v-3.65q0-.35-.25-.62a1 1 0 0 0-.62-.25m0 9.73H84.76a.87.87 0 0 0-.87.87v3.65a.87.87 0 0 0 .87.87h157.5a.87.87 0 0 0 .87-.87v-3.65a.87.87 0 0 0-.87-.87m0 8.82H84.76c-.48 0-.87.4-.87.88v3.65c0 .48.4.87.87.87h157.5c.48 0 .87-.4.87-.87v-3.65a.87.87 0 0 0-.87-.88m0 8.83H84.76a.87.87 0 0 0-.87.87v3.65c0 .48.4.87.87.87h157.5c.48 0 .87-.39.87-.87v-3.65a.87.87 0 0 0-.87-.87M150 107.59H85.8a1.9 1.9 0 0 0-1.9 1.92v46.29a1.9 1.9 0 0 0 1.9 1.92H150a1.9 1.9 0 0 0 1.77-1.19q.14-.35.14-.73v-46.3a1.9 1.9 0 0 0-1.91-1.92" opacity=".2"/><path fill="#9298af" d="M235.14 242.94c13.16 0 23.83-2.65 23.83-5.91s-10.67-5.91-23.83-5.91-23.83 2.64-23.83 5.9 10.67 5.92 23.83 5.92" opacity=".1"/><path fill="#4e6896" d="M237.56 151.83s2.94-.1 3.88 2.3c.93 2.42.23 4.26-.04 5.13-.7 2.29-.76 3.12-.42 4.5.3 1.23.58 1.86.92 3 .35 1.15-.23 1.01-.28 1.1A533 533 0 0 1 230.1 169s.3-2.48 1.12-3.05c.8-.58 1.6-.7.99-3.15s-1-3.59-.66-5.37c.4-2.06.65-3.34 2.59-4.7a5.2 5.2 0 0 1 3.42-.9"/><path fill="#7d7d95" d="M240.95 232.72s-1.62 2.4-2.27 2.97c0 0-1.45.53-1.6 1.54-.14 1.02-.11 1.7 1.6 1.74s2.84-.26 3.15-1.3a5 5 0 0 1 1-1.73v2.16h.39l.12-2.48c.03-.38.28-1.87-.54-2.52-.81-.66-1.85-.38-1.85-.38m-8.1-1.92q-.34.72-.81 1.35c-.4.5-1.6 2.58-2.13 2.72s-2.17.44-2.31 1.35-.22 1.57 1.4 1.64 2.68.17 3.45-.96a8 8 0 0 1 2-1.95v2.95h.63s.3-3.07.46-3.3c.17-.2.6-2.57-.9-3.8s-1.79 0-1.79 0"/><path fill="#fcb6ac" d="M242.04 186.46s1.82 2.7 2.37 5.84c.55 3.15-.1 13.65-.08 15.2s1.47 5.42 1.18 8.35-2.7 17.25-2.7 17.25l-1.86-.38s.18-14.85 0-16.08-.54-5.7-.62-6.2-4.6-13.8-4.6-16.06c0-2.27 1.37-11.61 6.3-7.92"/><path fill="#fcb6ac" d="M231.77 187.5s-3.35 12.78-3.75 14.54c-.4 1.77-.98 3.24-.98 3.99 0 1.74.65 4.54.65 4.54l5.16 20.23 2.14.34s-1.24-12.43-1.3-14.82c-.07-2.38-1.91-5.78-1.55-6.8.37-1 5.84-12.67 5.84-12.67s4.14-13.06-6.2-9.35m6.91 48.2s1.66.92 2.72-.27q.9-1.05 1.4-2.33l-1.85-.38z"/><path fill="#fcb6ac" d="M229.92 234.88s1.44.36 2 0c.56-.37 2.44-3.55 3.07-3.74 0 0-.6-1.23-2.14-.34 0 0-2.52 3.55-2.93 4.08"/><path fill="#7598d6" d="M227.04 206.03s7.77 3.32 19.33 3.32c0 0-1.22-17.47-2.9-21.23s-11.96.38-11.96.38-4.47 14.38-4.47 17.53"/><path fill="#5e7ebe" d="M218.3 180.72s7.09.6 8.84-.17c.88-.39 2.07-2 3.16-3.77l.55-.9c1.34-2.29 2.43-4.53 2.43-4.53s3.24-4.07-.2-5.52a4.2 4.2 0 0 0-2.18 1.65 16 16 0 0 0-1.65 3.85 77 77 0 0 1-3.1 6.37c-.18.16-1.92.06-3.27.18-2.19.2-4.5.33-4.5.33z"/><path fill="#7598d6" d="M230.57 175.05c.87 2.01.05 2.68.45 4.7.4 2 .54 7.73.46 8.85-.07 1.12 9.93 2.27 12.25.23 0 0-.77-4.35-2.19-7.05-.27-.51-.14-2.53.14-3.23l.84-2.07 1.44-3.5.96-2.35s.34-3.23-1-4.27c-1.17-.91-4.36-1.23-4.94-1.43a10 10 0 0 0-3.4-.11s-1.8.84-2.42.97c-.62.12-3.04 3.25-3.46 4.39s0 2.86.87 4.87"/><path fill="#fcb6ac" d="M234.72 162.75s.36 3.28.29 4.35c0 0 1.5 1.82 3.62-2.22 0 0-.53-1.62.14-3.88.67-2.27-4.05 1.75-4.05 1.75"/><path fill="#fcb6ac" d="M240.41 165.21s-1.28 3.78-4.8 3.5-1.66-3.19-1.66-3.19.87-.5 1.12-.55c.25-.04 3.5-.18 3.5-.18z"/><path fill="#434343" d="M217.75 168.3h8.39a.67.67 0 0 1 .66.66v12.52a.66.66 0 0 1-.66.66h-8.39a.67.67 0 0 1-.66-.66v-12.52a.67.67 0 0 1 .66-.66"/><path fill="#dbdff0" d="M217.75 169.24h8.4v11.96h-8.4z"/><path fill="#fcb6ac" d="M229.23 179.31a1 1 0 0 1-.53-.14c-.36-.27-.49-.94-1.12-.9-.64.06-.93 2.05-.78 2.42s1.05.57 2.35.3c1.31-.25.08-1.68.08-1.68"/><path fill="#eea886" d="M218.2 170.95s-1.39-.32-1.83.35a2.6 2.6 0 0 0-.35 1.91c.1.4.47 1.41.93 1.2 1.5-.66 1.24-3.46 1.24-3.46"/><path fill="#eea886" d="M216.83 170.97s.19-.93.56-.77.04.77.04.77z"/><path fill="#eea886" d="M218.2 170.95s-.03-.53-1 .02c-.96.55 1-.02 1-.02"/><path fill="#e6e8ec" d="m204.95 160.7.04-.02v-.01l.01-.03v-.02l-.01-.01-.02-.02-.06.02-.02.03.02.04z"/><path fill="#fff" d="M225.43 161.85h-39.02a1.6 1.6 0 0 0-1.42.95 2 2 0 0 0-.11.6v45.5a1.54 1.54 0 0 0 1.53 1.55h39.02a1.5 1.5 0 0 0 1.42-.96q.12-.27.12-.59v-45.5a1.54 1.54 0 0 0-1.54-1.55"/><path fill="#3e486e" d="M225.43 161.85h-39.02a1.6 1.6 0 0 0-1.42.95 2 2 0 0 0-.11.6v45.5a1.54 1.54 0 0 0 1.53 1.55h39.02a1.5 1.5 0 0 0 1.42-.96q.12-.27.12-.59v-45.5a1.54 1.54 0 0 0-1.54-1.55" opacity=".1"/><path fill="#fff" d="M223.29 164.33h-34.73a1.5 1.5 0 0 0-1.09.45 1.5 1.5 0 0 0-.45 1.1v40.55a1.5 1.5 0 0 0 .45 1.09 1.5 1.5 0 0 0 1.09.45h34.73a1.5 1.5 0 0 0 1.09-.45 1.5 1.5 0 0 0 .44-1.1v-40.55a1.54 1.54 0 0 0-1.53-1.54"/><path fill="#7598d6" d="M217.05 173.08h-23.13a1.4 1.4 0 0 0-1.4 1.4v6.18a1.4 1.4 0 0 0 .41 1 1.4 1.4 0 0 0 1 .41h23.12a1.4 1.4 0 0 0 1.3-.87 1.4 1.4 0 0 0 .1-.54v-6.17a1.4 1.4 0 0 0-1.4-1.4" opacity=".7"/><path fill="#ff7067" d="M217.5 185.36h-24.03v1.83h24.03z"/><path fill="#7598d6" d="M222.46 189.23h-33.07v1.84h33.07zm0 4.08h-33.07v1.83h33.07zm0 4.07h-33.07v1.84h33.07z" opacity=".7"/><path fill="#fcb6ac" d="M227.8 178.29q-.97-.33-1.98-.54c-.92-.2-2.02-.27-2.14-.1-.11.15.9.33 1.81.58.84.24.64.33.64.33s.06-.03-.9-.12c-1.03-.1-2.08-.1-2.18.11-.05.1-.02.17.35.26-.22-.01-.25.05-.26.14-.05.46 1.44.82 2.04.97-.45-.1-.8-.14-.63.17.18.35 2.32.78 3.07 1 .82.24.17-2.8.17-2.8"/><path fill="#2f3b6c" d="M230.86 175.86s-1.06-2.5-1.1-3.06c0 .34.08 2.36.54 3.97q.3-.45.56-.9z"/><path fill="#d1c0ba" d="M229.76 172.8v-.04z"/><path fill="#5e7ebe" d="m235.16 179.31 4.38-7.7s-1.53 7.69-2.69 7.94c-1.16.26-1.7-.24-1.7-.24"/><path fill="#5e7ebe" d="M243.73 166.22s2.1 1.04 1.38 3.75-1.45 3.48-2.14 4.5c-.65.95-2 3.52-2.15 3.8-.17.3-1.78 4.5-3.25 4.97-1.48.48-8.8-1.84-8.96-1.59-.16.26.01-2.55.01-2.55s3.4.24 4.14.19c1.22-.09 3.17.41 3.64-.64.55-1.23 2.53-5.3 2.74-5.96.2-.67 2.64-7.16 4.6-6.47"/><path fill="#fcb6ac" d="M235.26 153.37s-3.24 2.1-2.19 7.22c1.06 5.1 4.89 2.3 5.3 2 .42-.28 1.7-3.48 1.76-4.87.04-1.32.74-6.58-4.87-4.35"/><path fill="#4e6896" d="M235.48 154.4c.34-.1 1.48 2.1 2.1 2.64s1.75 1.9 1.86 3.4 1.37-3.27.93-5.03c-.43-1.77-1.02-4.36-4.97-2.3-3.96 2.05-2.93 5.72-2.93 5.72s1.3-3.93 3.01-4.44"/><path fill="#fcb6ac" d="M238.23 157.92c.1-.6 1.44-1.12 1.42-.21-.03.9-.76 1.96-1.18 1.9s-.34-1.14-.24-1.7"/><path fill="#ab7d7d" d="M238.06 162.8c-.02.05-.8 1.53-3.16 1.9l-.12-1.28a3.8 3.8 0 0 0 3.28-.61"/><path fill="#9298af" d="M107.24 257.52c13.47 0 24.39-2.71 24.39-6.05 0-3.35-10.92-6.06-24.4-6.06s-24.39 2.71-24.39 6.06 10.92 6.05 24.4 6.05" opacity=".1"/><path fill="#fff" d="M173.48 161.64H72.75a1.6 1.6 0 0 0-1.14.48 1.6 1.6 0 0 0-.47 1.14V211a1.6 1.6 0 0 0 .47 1.15 1.6 1.6 0 0 0 1.14.47h100.73a1.6 1.6 0 0 0 1.14-.47 1.6 1.6 0 0 0 .47-1.15v-47.73a1.6 1.6 0 0 0-1.6-1.62"/><path fill="#f2f5fa" d="M173.48 161.64H72.75a1.6 1.6 0 0 0-1.14.48 1.6 1.6 0 0 0-.47 1.14V211a1.6 1.6 0 0 0 .47 1.15 1.6 1.6 0 0 0 1.14.47h100.73a1.6 1.6 0 0 0 1.14-.47 1.6 1.6 0 0 0 .47-1.15v-47.73a1.6 1.6 0 0 0-1.6-1.62"/><path fill="#fff" d="M168 163.9H77.87a1.6 1.6 0 0 0-1.14.47 1.6 1.6 0 0 0-.47 1.14v42.54a1.6 1.6 0 0 0 1.61 1.61H168a1.6 1.6 0 0 0 1.14-.47 1.6 1.6 0 0 0 .47-1.14V165.5a1.6 1.6 0 0 0-1.61-1.61"/><path fill="#7598d6" d="M152.6 173.43H91.5a1.47 1.47 0 0 0-1.47 1.47v6.48a1.47 1.47 0 0 0 1.47 1.48h61.1a1.47 1.47 0 0 0 1.47-1.48v-6.48a1.47 1.47 0 0 0-1.47-1.47" opacity=".2"/><path fill="#7598d6" d="M151.72 186.3H92.38v1.93h59.34zm12.22 4.06H82.3v1.93h81.65Zm0 4.28H82.3v1.92h81.65Zm0 4.27H82.3v1.92h81.65Z" opacity=".7"/><path fill="url(#a)" d="M147.03 379.63c.44-1.62.74-3.04.74-3.04a6.4 6.4 0 0 1 .83-3.09v-.44l.12-3.29a11 11 0 0 0-.74-1.75c-.55-1.05.19-4.82.19-4.82s2.38-5.24 1.98-8.64 5.06-14.85 5.06-14.85q.02-1.7-.34-3.36a3 3 0 0 1-.04-.7v-.08.03c.16-2.24 2.07-6.34 2.07-6.34l.07-7.98s-.94-4.74 1.12-10.97a59 59 0 0 0 1.6-5.72l-6.6-1.3s2.54-9.1 4.1-10.64c1.54-1.55 2.9-6.55 2.9-6.55s1.01-6.45-.15-8.39c-1.17-1.94-1.22-5.22-1.22-5.22s-2.75-2.17-3.07-3.1-.83-3.02-.79-4.1.44-2.05.34-2.63c-.1-.57.93-2.71.5-3.77a3 3 0 0 1-.15-1v-.03q.05-1.36.35-2.68a8 8 0 0 1 2.86-1.4l.07-.24.18-.64.29-.15.01-.24.06-.92-.35-2.12c-.74-3.68 4.12-4.03 4.12-4.03a2.6 2.6 0 0 1 1.42-1.16c.99-.3-.05 5.49-.52 5.84-.37.27-1.48 2.05-2.02 2.93l-.09.14.22.24-.24 1.26-.03.19q.46.62.72 1.35s-.92.94-.79 2.04a7 7 0 0 1-.37 2.5c.05-.05.7-.7 1.32-.51.61.18 2.33.77 2.33.77s1.29.28 1.16.57.82 1.58.82 1.58l3.61-3.18.12-.3q.25-.7.37-1.44a8 8 0 0 1-1.11-.4 2.4 2.4 0 0 1-.95-.66c-.33-.43-.37-1-.5-1.53-.23-1.03-.8-1.96-1.18-2.95a9.5 9.5 0 0 1-.5-5.22 3.5 3.5 0 0 1 .6-1.49c.6-.76 1.64-1.04 2.42-1.64.77-.6 1.29-1.54 2.18-1.97.81-.4 1.77-.31 2.66-.13a14 14 0 0 1 4.84 1.98c.5.32 1.04.7 1.63.61q.77-.2 1.23-.83v-.05l.04-.04a6 6 0 0 1 .44 2.64q0 .2-.03.41v.27l.02.18q.1.28.3.5.16.18.27.4 0-.08-.04-.15.32.51.32 1.11a1 1 0 0 1-.3.78 4 4 0 0 1-.58.44 6.7 6.7 0 0 1-3.44 6.82l-.13.3a8.4 8.4 0 0 0-.78 3.79q0 .15.03.28c.03.1.09.1.12.15 0 0 5.75.28 7.16-.9 1.4-1.18 3.3 3.14 3.3 3.14s2.05.48 2.47.1 2.84.05 2.84.05a5.2 5.2 0 0 1 3.64-1.18 11 11 0 0 1 2.7-1.37l.07-.02a3 3 0 0 1 1.3-.12s2.92-2.24 3.8-3.47c.86-1.23 4.96-5.76 4.96-5.78l.02-.22.07-.68.35.04.1-.23a13 13 0 0 1 .9-1.9s.03-.85-.2-1.08c-.25-.22.23-3.35.23-3.35s2.78-5.9 4.89-1.34c0 0 4.2 3.07.45 6.3 0 0-1.48.64-1.7 1.2-.14.36-.68 1.34-1.03 2l-.16.3.04.03-.07.56-.03.22c.66.41 1.1.82.99 1.12a6 6 0 0 0-.47 1.53s-5.25 6.08-6 8.76c0 0-13.75 7.5-18.18 7.9l.6 4.05q.12 1.63.06 3.27c-.1.86.35 4.78.35 4.78s.55 5.76 1.17 6.59.37 4.26.37 4.26q.13 2.5.7 4.91c.56 2.2 0 4.88 0 4.88s2.04 5.24-3.2 1.54c0 0-2.62-.27-5.65-.49v.3l-.03 1.27c-.07 2.96-.21 7.03-.46 10.1-.45 5.44-2.51 16.16-2.51 16.16l-.2 5.41q.12.77.09 1.55a10 10 0 0 1-1.66 5.37l-.55 3.6s-1.06 2.34-1.14 3.76q0 .17.03.34.04.28.03.56c0 1.64-1.14 5.52-1.14 5.52s-.21 3.96-.81 4.16c-.51.18.58 2.31.91 2.92l.03-.11.07.12q.16.5.14 1a1.5 1.5 0 0 1-.7 1.37c-1.15.65-1.78 1.2-.83 1.46q.52.1 1.03.26l.05-.13a.6.6 0 0 1 .37.71 3 3 0 0 1-.4 1.33 15 15 0 0 1-1.7 2.86l-.46-.07q.09.26.25.5.25.39.64.62.36.24.8.3a2.3 2.3 0 0 1 1.64.89c.55.79.88 1.84-.32 2.7l-4.27 1.3s-7.28.67-6.84-.94c.45-1.62.74-3.05.74-3.05a6.5 6.5 0 0 1 .7-2.87q.12-.23.27-.42l-.25-.04s-.42-3.63-1.12-4.34q-.23-.25-.15-.37c-.06-.2.12-.3.37-.37q.01.07.05.14.35-.06.7-.05s.31-1.88-.43-2.6a.7.7 0 0 1-.12-.58q0-.39.1-.76l.03.04a28 28 0 0 1 1.86-4.37s.12-1.72-.33-2.43c-.44-.71.42-9.34.42-9.34s-.02-4.2.59-6.12c.6-1.93-.49-4.27-.49-4.27l.02-.12v-.03l.1-.66v.04c.16-1.12.46-3.1.66-4.02.29-1.31.24-7.63.24-7.63l-.96-2.72-2.07 4.57-2.23 6.11s-1.04 1.27-1.11 2.61v.61a3.7 3.7 0 0 1-.7 2.18s-.64 2.9-1.48 3.62c-.85.71-.91 2.15-.91 2.15s-1.17 4.2-1.67 4.93c-.42.61-.5 2.34-.52 2.87v.15s-.2 1.51-.24 2.79v.45q-.02.5.08 1v.06-.21q.26 1.31.2 2.65c-.03 1.53-.33 3.32-1.3 4.35-1.65 1.77-2.65 1.49-2.65 1.49s.68 2.32 1.6 2.82l.1.06q0-.06.03-.13a1.1 1.1 0 0 1 .25.87 6 6 0 0 1-1.3 3.35 2 2 0 0 1-.81.44l.14.1.32.16q.22.12.48.15a2.3 2.3 0 0 1 1.64.88c.55.79.88 1.84-.32 2.71l-4.27 1.3s-7.3.65-6.86-.97" style="fill:url(#a)" transform="scale(.65666)"/><path fill="#7d7d95" d="m114.67 251.77 2.71-.86c.77-.57.56-1.26.2-1.78a1.4 1.4 0 0 0-1.04-.58 1 1 0 0 1-.5-.2 1 1 0 0 1-.41-.4 2 2 0 0 1-.27-1.06s-2.9-.98-3.74-.14a2 2 0 0 0-.38.51 4.4 4.4 0 0 0-.44 1.89s-.19.93-.47 2c-.29 1.06 4.34.62 4.34.62m-13.07-1.84 2.72-.85c.76-.57.55-1.27.2-1.78a1.4 1.4 0 0 0-1.04-.58 1 1 0 0 1-.3-.1l-.2-.1c-.74-.44-.68-1.47-.68-1.47s-2.91-.98-3.75-.14a2 2 0 0 0-.3.37 4.3 4.3 0 0 0-.52 2.03s-.19.93-.47 2c-.29 1.06 4.34.62 4.34.62"/><path fill="#000" d="M111.61 246.75a2 2 0 0 0-.37.51l4.39.68a2 2 0 0 1-.27-1.05s-2.9-.98-3.75-.14m-13.36-1.46-.03.83c.65 1.16 3.97 1.04 4.96.5l-.2-.1c-.74-.44-.68-1.47-.68-1.47s-2.91-.98-3.75-.14a2 2 0 0 0-.3.38" opacity=".1"/><path fill="#7598d6" d="M97.87 241.7q.28.55.48 1.14l-.12 2.98c.7 1.27 4.62 1 5.17.35.55-.66 1.18-2.4.6-2.73-.6-.32-1.03-1.85-1.03-1.85s.63.18 1.7-.98c1.05-1.16.86-3.85.69-4.5s.1-2.78.1-2.78.03-1.51.35-1.99c.32-.47 1.06-3.24 1.06-3.24s.03-.94.58-1.4c.54-.47.95-2.38.95-2.38a2.5 2.5 0 0 0 .44-1.6c-.08-.95.71-1.94.71-1.94l1.43-4.01 1.32-3 .6 1.79s.03 4.15-.15 5c-.18.86-.49 3.15-.49 3.15s.7 1.54.3 2.8c-.38 1.27-.37 4.02-.37 4.02s-.56 5.67-.27 6.14c.28.46.2 1.59.2 1.59s-1.66 3.25-1.2 3.72c.47.48.28 1.72.28 1.72s-1.05-.05-.62.42.66 2.84.66 2.84l4.51.7a10 10 0 0 0 1.1-1.88c.64-1.37-.07-1.24-.67-1.42s-.2-.53.53-.96.35-1.45.35-1.45-1.01-1.9-.63-2.03.52-2.73.52-2.73.86-3.06.7-3.9c-.15-.83.72-2.8.72-2.8l.35-2.35a6.5 6.5 0 0 0 1-4.45l.13-3.65s1.33-7.02 1.63-10.6c.18-2.3.28-5.42.32-7.37l.03-1.82-16.12-2.32a14 14 0 0 1-.39 2.4q-.28 1.33-.97 3.47c-1.32 4.09-.74 7.2-.74 7.2l-.05 5.24s-1.56 3.45-1.3 4.67q.22 1.08.21 2.2s-3.46 7.5-3.21 9.73-1.27 5.68-1.27 5.68-.47 2.48-.12 3.17"/><path fill="#000" d="m107.87 222.44-4.9-.86s2.68 2.98 4.9.86" opacity=".05"/><path fill="#000" d="M103.87 216.78s-.25 1.75.8 2.45c0 0-1.9-.38-.8-2.45m.51-5.56s4 3.57 5.5 3.35c1.51-.23-5.5-3.35-5.5-3.35m9.54 13.06s3.1.83 3.15 2.1c.05 1.26-3.15-2.1-3.15-2.1" opacity=".1"/><path fill="#000" d="M112.63 239.94s4.39 1 3.11 1.52c-1.27.51-3.35.88-3.35.88s-1.43.03.24-2.4m3.97 2.45a1 1 0 0 0 .43-.63l.04.08s.38 1.03-.35 1.47l-.25.14-.4-.09c-.6-.18-.2-.54.53-.97m-5.68-.52q-.17-.2 0-.78.25.53.2 1.1a1 1 0 0 0-.2-.32m1.4-18.7a5 5 0 0 1 .24 1.4 5 5 0 0 0-.3-.97zm-10.05-2.37a2 2 0 0 1-.03-.41q.07.42.1.77zm9.64 15.76a3 3 0 0 1-.08-.84q.2.51.18 1.06zm-1.2 7.05a15 15 0 0 1 .43 2.34l4.5.7a10 10 0 0 0 1.1-1.88l.14-.33c.26.14.36.42-.03 1.24a10 10 0 0 1-1.09 1.88l-4.52-.7s-.24-2.38-.68-2.85c-.2-.23-.05-.34.15-.4m6.24-6.52s-.13 2.6-.51 2.73c-.17-.44-.29-.85-.12-.9.38-.15.52-2.74.52-2.74s.87-3.06.71-3.9c-.15-.83.71-2.8.71-2.8l.35-2.35a6.5 6.5 0 0 0 1-4.45l.14-3.65s1.32-7.04 1.6-10.61c.2-2.29.28-5.41.33-7.36l.02-.93.13.02s0 .73-.04 1.81a141 141 0 0 1-.32 7.37c-.28 3.57-1.6 10.6-1.6 10.6l-.14 3.66a6.6 6.6 0 0 1-1 4.44l-.35 2.37s-.87 1.95-.71 2.8c.15.84-.72 3.89-.72 3.89m-13.66 8.07a4.4 4.4 0 0 0 .78-1.76c.45.43-.14 2.04-.67 2.67-.52.62-4.46.92-5.16-.35l.02-.72c.98 1.05 4.5.78 5.03.16m-5.54-4.48q.3.55.5 1.15l-.03.52a8 8 0 0 0-.35-.76 2 2 0 0 1-.12-.94zm5.45.8a7 7 0 0 1-.33-.9s.63.18 1.69-.99c.77-.85.87-2.5.8-3.59.17.65.37 3.33-.69 4.5-.7.76-1.2.95-1.47.99m2.27-8.27a20 20 0 0 0-.16 2.24l-.06-.36c-.17-.65.1-2.78.1-2.78s.03-1.51.34-1.99 1.06-3.24 1.06-3.24.04-.94.59-1.4c.54-.48.95-2.38.95-2.38a2.5 2.5 0 0 0 .44-1.6c-.08-.95.7-1.94.7-1.94l1.44-4.01 1.31-3 .61 1.79v.57l-.49-1.47-1.31 3-1.43 4.02s-.79.98-.71 1.93a2.5 2.5 0 0 1-.44 1.6s-.41 1.91-.96 2.38c-.54.47-.57 1.41-.57 1.41s-.75 2.76-1.07 3.24c-.31.48-.34 2-.34 2" opacity=".05"/><path fill="#fcb6ac" d="m104.98 163.84.23 1.39-.04.6-.03.46 1.55.22.2-.32a14 14 0 0 1 1.28-1.92c.3-.23.96-4.04.33-3.84a1.7 1.7 0 0 0-.9.76s-3.08.24-2.62 2.65"/><path fill="#000" d="m105.14 166.29 1.56.22.18-.32a1.4 1.4 0 0 0-1.7-.35z" opacity=".1"/><path fill="#dce6f2" d="m104.71 167.02 2.05.56.05-.31.15-.83a1.4 1.4 0 0 0-.92-.59 1.4 1.4 0 0 0-1.07.25l-.11.41z"/><path fill="#fcb6ac" d="m138.23 165.28 2.15 1.28.22-.41c.22-.44.56-1.09.66-1.32.14-.36 1.07-.8 1.07-.8 2.4-2.11-.28-4.12-.28-4.12-1.34-3-3.1.88-3.1.88s-.31 2.06-.16 2.2c.16.14.13.71.13.71a8 8 0 0 0-.7 1.58"/><path fill="#000" d="m138.23 165.28 2.15 1.28.22-.41c-.3-.28-1.37-1.23-1.73-1.19q-.27.03-.53 0z" opacity=".1"/><path fill="#dce6f2" d="m137.98 165.94 2.43 1.32.07-.54.05-.36s-1.38-1.3-1.8-1.26q-.33.03-.66-.03l-.04.45z"/><path fill="#fcb6ac" d="M110.62 173.2s10.74 1.64 8.75.9c-1.39-.5-1.91-1.43-1.99-2.42a6 6 0 0 1 .49-2.5q.42-1 1.04-1.92s-8.07-4.87-6.58-.66q.34.95.4 1.98a6 6 0 0 1-.3 1.97 6 6 0 0 1-1.8 2.65"/><path fill="#000" d="M112.34 166.6q.34.95.4 1.98c.74.68 1.6.67 2.69.71.84.04 1.76.28 2.44-.1q.42-1.02 1.04-1.93s-8.06-4.87-6.57-.66" opacity=".1"/><path fill="#fcb6ac" d="M115.74 169.59a4.47 4.47 0 1 0-.02-8.95 4.47 4.47 0 0 0 .02 8.95"/><path fill="#000" d="M110.62 173.2s10.74 1.64 8.75.9c-1.39-.5-1.91-1.43-1.99-2.42a6 6 0 0 0-2.26-1.32 3.3 3.3 0 0 0-1.95-.11q-.39.1-.73.3a6 6 0 0 1-1.82 2.65m-5.9-6.18 2.04.56.05-.31a1.8 1.8 0 0 0-1.95-.76zm33.26-1.08 2.43 1.32.07-.54a18 18 0 0 0-2.46-1.2zm-32.67 34.4c4.14.82 10.06 1.9 11.02 1.66.79-.21 3.29-.09 5.46.07l.03-1.82-16.12-2.32a13 13 0 0 1-.39 2.4" opacity=".1"/><path fill="#7598d6" d="M101.19 199.19s13.66 2.9 15.15 2.5 9.05.4 9.05.4c3.32 2.42 2.03-1.02 2.03-1.02s.37-1.76 0-3.2a20 20 0 0 1-.44-3.23s.16-2.25-.23-2.8c-.4-.54-.73-4.32-.73-4.32s-.28-2.58-.22-3.14-.03-2.15-.03-2.15l-.39-2.65c2.83-.27 11.57-5.21 11.57-5.21.49-1.75 3.83-5.77 3.83-5.77a4 4 0 0 1 .3-1c.24-.6-3.08-1.93-3.08-1.93s-2.63 2.98-3.18 3.8a17 17 0 0 1-2.41 2.27 2 2 0 0 0-.83.08h-.05q-.91.33-1.7.9a3.3 3.3 0 0 0-2.32.78s-1.53-.29-1.8-.03c-.27.25-1.57-.06-1.57-.06s-1.22-2.84-2.1-2.06-4.55.6-4.55.6c-.46-.68-1.63-1.19-2.36-1.46a3.2 3.2 0 0 0-1.95-.1 3 3 0 0 0-.79.34l-2.3 2.1s-.6-.86-.52-1.04-.73-.37-.73-.37-1.08-.38-1.48-.5c-.41-.14-.8.3-.84.33a4 4 0 0 0 .24-1.64c-.08-.72.5-1.34.5-1.34-1.19-3.29-4.25-.7-4.25-.7s-.4 1.76-.13 2.46c.27.69-.38 2.1-.32 2.47s-.19 1.01-.22 1.73c-.02.71.3 2.08.49 2.69.2.6 1.95 2.04 1.95 2.04s.03 2.14.77 3.42.09 5.5.09 5.5-.88 3.3-1.85 4.31c-.98 1.02-2.6 7-2.6 7"/><path fill="#5776ae" d="M122.18 175.2s.46-1.23.84-1.33a9 9 0 0 0 1.1-.45l-.22-.47s-1.42.33-1.66.73-.06 1.51-.06 1.51m7.64-2.46c.06.38 3.38.84 3.38.84l-1.62-1.76h-.04q-.93.33-1.72.92" opacity=".1"/><path fill="#4e6896" d="M139.66 168.24a.3.3 0 0 0 .3-.3.3.3 0 0 0-.52-.22l-.06.1-.02.12a.3.3 0 0 0 .3.3m-.4.6a.3.3 0 1 0 0-.61.3.3 0 0 0 0 .6m-.4.53a.3.3 0 0 0 .27-.18.3.3 0 0 0-.27-.42.3.3 0 1 0 0 .6m-.42.59a.3.3 0 0 0 .3-.3.3.3 0 0 0-.08-.22l-.1-.07a.3.3 0 0 0-.24 0l-.1.07a.3.3 0 0 0-.08.22c0 .16.14.3.3.3m-35.32-1.45a.24.24 0 0 0 .25-.25.24.24 0 0 0-.25-.24.24.24 0 1 0 0 .49m-.05.55a.24.24 0 0 0 .24-.25.24.24 0 0 0-.15-.24.24.24 0 0 0-.34.24.24.24 0 0 0 .25.25m-.06.55q.1 0 .17-.07a.24.24 0 0 0 0-.35.24.24 0 0 0-.34 0 .24.24 0 0 0 .17.42"/><path fill="#5776ae" d="M121.77 185.4c.04-.05-8.82 10.34-15.14 3.9 0 0 10.3 1.8 15.14-3.9" opacity=".1"/><path fill="#000" d="M126.41 191.15s-5.06-.05-5.65 1.38l-.05 1.53a1 1 0 0 0 .94.03c.52-.25 3.63-1.7 4.68-.9z" opacity=".1"/><path fill="#5776ae" d="M126.32 191.15s-4.84-.06-5.4 1.32l-.06 1.45a.9.9 0 0 0 .9.03c.49-.24 3.48-1.62 4.48-.86z"/><path fill="#5776ae" d="M124.07 180.02a17 17 0 0 1-2.09 3.3 13 13 0 0 1-3.18 2.86s5.16-5.47 5.27-6.16m1.88-5.84s-.97 3.63-3.2 4.79zm1.28.42c.02-.06.64 2.93-2.97 4.43 0 0 1.52-.46 2.97-4.43m-21.97-3.3c.05 0-1.8 1.09-2.31 1.6 0 0 1.24-1.72 2.3-1.6" opacity=".1"/><path fill="#9298af" d="M116.79 169.21a1 1 0 0 1-.38.6 1 1 0 0 1-.42.07c-1.36.04-2.78.04-4.02-.53a1.5 1.5 0 0 1-.6-.44c-.2-.28-.24-.65-.31-1-.15-.68-.5-1.29-.75-1.94a6.4 6.4 0 0 1-.31-3.42 2 2 0 0 1 .38-.98c.38-.5 1.04-.69 1.53-1.08.5-.4.83-1.01 1.4-1.3.5-.26 1.12-.2 1.68-.08a9 9 0 0 1 3.1 1.3c.31.21.66.46 1.03.4q.5-.15.8-.56c.24.62.33 1.3.26 1.96a1 1 0 0 0 0 .29q.05.18.2.32c.31.4.5 1.03.15 1.41-.15.17-.38.25-.52.43-.26.3-.2.75-.2 1.16a.6.6 0 0 1-.12.4.6.6 0 0 1-.56.1 2 2 0 0 0-.58-.08 1 1 0 0 0-.53.38c-.66.76-.93 1.64-1.23 2.6"/><path fill="#000" d="M117.48 171.96s-5.6.53-6.07-.34z" opacity=".1"/><path fill="#5776ae" d="M106.74 169.23s-3.1-.12-3.82 1.02z" opacity=".1"/><path fill="#7dbedc" d="M180.5 239.9c8.38 0 15.18-1.05 15.18-2.34 0-1.3-6.8-2.34-15.17-2.34s-15.17 1.05-15.17 2.34 6.79 2.34 15.17 2.34" opacity=".1"/><path fill="#bbcadf" d="M184.34 213.43s1.45 1.9-.67 4.79c-2.12 2.88-3.87 5.3-3.16 7.1 0 0 3.2-5.35 5.8-5.41s.9-3.26-1.97-6.48"/><path fill="#bbcadf" d="M184.34 213.43q.18.28.3.6c2.54 3 3.89 5.8 1.45 5.87-2.28.06-5 4.15-5.66 5.18q.03.13.08.25s3.2-5.35 5.8-5.41.9-3.27-1.97-6.49" opacity=".1"/><path fill="#ffd037" d="M187.03 215.86c0 .67-.07 1.22-.16 1.22-.1 0-.17-.55-.17-1.22s.1-.35.19-.35.14-.32.14.35"/><path fill="#ffd037" d="M187.96 216.66c-.59.32-1.1.52-1.14.44s.4-.41.98-.74.35-.09.4 0c.04.09.35-.02-.24.3"/><path fill="#bbcadf" d="M176.67 213.43s-1.45 1.9.67 4.79c2.12 2.88 3.87 5.3 3.17 7.1 0 0-3.2-5.35-5.8-5.41-2.61-.06-.9-3.26 1.96-6.48"/><path fill="#bbcadf" d="M176.67 213.43a2 2 0 0 0-.3.6c-2.53 3-3.89 5.8-1.44 5.87 2.27.06 5 4.15 5.65 5.18l-.07.25s-3.2-5.35-5.8-5.41c-2.61-.06-.9-3.27 1.96-6.49" opacity=".1"/><path fill="#ffd037" d="M173.98 215.86c0 .67.07 1.22.17 1.22.09 0 .16-.55.16-1.22s-.1-.35-.18-.35c-.1 0-.15-.32-.15.35"/><path fill="#ffd037" d="M173.05 216.66c.59.32 1.1.52 1.14.44.05-.09-.4-.41-.98-.74s-.35-.09-.4 0c-.04.09-.35-.02.24.3"/><path fill="#7598d6" d="m188.32 222.75-.07.6-.1.83-.05.36-.1.84-.04.35-.1.84-1.17 9.56c-.1.85-1.49 1.52-3.18 1.52h-6.02c-1.68 0-3.06-.67-3.16-1.52l-1.17-9.56-.1-.83-.04-.36-.1-.84-.05-.35-.1-.84-.07-.6c-.06-.49.7-.88 1.64-.88h12.33c.95-.01 1.7.4 1.65.88"/><path fill="#bbcadf" d="m188.24 223.34-.1.84h-15.27l-.1-.84zm-.14 1.2-.1.83h-14.98l-.1-.84zm-.15 1.19-.1.84h-14.69l-.1-.84z"/><path fill="#e4e8ef" d="m267.17 106.08 2.26-1.27 1.05.63 21.11 101.62-1.26.25-2.64-2.3z"/><path fill="#000" d="m269.43 104.8 20.9 102.5 1.26-.24-21.1-101.62z" opacity=".1"/><path fill="#e4e8ef" d="m253.89 110.37 16.06 1.53v1.25l-15.98-1.4zm1.7 15.13h17.04v1.82h-17.26zm1.56 15.88 17.2-.69 2.15.69v1.16l-15.28.8h-3.93z"/><path fill="#000" d="m261.44 142.32 15.06-.94v1.16l-15.28.8zm-4.29-.94 4.29.94-.22 1.03h-3.93z" opacity=".1"/><path fill="#e4e8ef" d="m258.7 158.6 19-1.76 2.1.55v1.21l-16.97 1.79-4.12.36z"/><path fill="#000" d="m262.76 159.36 15.15-1.52 1.88-.45v1.21l-16.96 1.79zm-4.31.22 4.3-.22.08 1.03-4.12.36z" opacity=".1"/><path fill="#e4e8ef" d="m259.61 175.74 21.42-2.85 1.84.73v1.4l-18.48 2.77h-4.34z"/><path fill="#000" d="m264.4 176.91 18.47-3.29v1.4l-18.48 2.77zm-4.53.03 4.52-.03v.88h-4.34z" opacity=".1"/><path fill="#e4e8ef" d="m260.89 193.34 23.49-4.38 2.08 1.22v.97l-20.62 5-4.24.32z"/><path fill="#000" d="m265.84 195.2 20.6-4.98v.97l-20.6 5zm-4.5.22 4.5-.23v1l-4.25.32z" opacity=".1"/><path fill="#e4e8ef" d="m255.38 103.54-1.9.43 6.87 109.27 2 .74h1.59z"/><path fill="#000" d="m254.46 103.75 7.9 110.23h1.58l-8.56-110.44Z" opacity=".1"/><path fill="#fcb6ac" d="M260.89 100.84a6 6 0 0 0-1.1-1.22 2.3 2.3 0 0 0-1.13-.34 2.6 2.6 0 0 1-1.26-.8c-.17-.17-.01-.28.32-.24s.8.27.94.25q.22-.02-.05-.48a3 3 0 0 0-.85-.93c-.24-.15-.91-.45-1-.66-.1-.2-.05-.31.3-.23q.53.08 1.04.28c.23.1.46-.14 1.27.14a7 7 0 0 1 .72.33l.14.02c.3.1.57 1.12.75 1.4a14 14 0 0 0 1.44 1.2z"/><path fill="url(#b)" d="M422.13 170.61c-.3-1.5-.87-2.97-.88-4.5-.02-2.49 1.3-5.37-.44-7.2-.4-.43-.93-.74-1.22-1.23a3 3 0 0 1-.3-1.37c-.04-2.9 1.56-5.84.6-8.6a3 3 0 0 0-1.1-1.52 3 3 0 0 0-1.85-.42c-.61 0-1.26.07-1.9.08a4 4 0 0 1-1.05-.14c-.74-.2-1.36-.68-2.08-.92a3 3 0 0 0-1.18-.16c-1.6-.05-3.04 1-4.17 2.03q-.84.7-1.78 1.3c.09-.07-2.2 1.5-1.34 1.52a3 3 0 0 1 1.7.6 4.6 4.6 0 0 0 .24 5.35l-1.21-1.18c-1.27-1.24-3.04-2.91-3.87-3.37a27 27 0 0 1-3.32-2.33s-2.54 1.42-1.76 3.39q.56.16 1.09.42 0 .4.15.77a8 8 0 0 1 2.25 1.1l.22.34c.34.59 1.39 1.67 2.67 2.86.9.9 2.1 1.99 3.28 3.03-.36.7-.73 1.42-.8 2.12l-.27-.12c-1.75-.94-5.86-.84-5.86-.84s-3.41-1.79-4.1-5.83c0 0-.68-2.45-.49-3.1l.08-.02.82-1.49a.66.66 0 0 0-.54-.96c-4-.36-4.18 3.3-4.18 3.3h.03l-.01.03c.49 2.36.88 2.17.78 4.05l1.56 4.13s.1 1.42 2.93 3.3a61 61 0 0 1 6.06 4.8s-1.71.88-1.08 4.97c.78 5-.39 12.13-.39 12.13v4.61l.22-.06a26 26 0 0 0-.22 7.49c.59 4.89 2.93 11.58 2.93 11.58s.88 2.35 1.08 4.23q.04.56.25 1.08a9 9 0 0 1 .68 3.27 23 23 0 0 0 1.5 8.24 22 22 0 0 1 1.47 4.85c-.7.92-1.62 1.92-2.34 2.02-1.37.19-4 .37-2.25 2.63q.1.12.2.21c-1.33.22-2.8.68-1.37 2.51 1.76 2.26 12.1 1.23 12.1 1.23s.07-1.26 0-2.64c.73-.04 1.19-.09 1.19-.09s.3-5.45-.98-6.11a3 3 0 0 0-.68.16c-.14-.75-.24-1.69-.3-2.38l.5-.04v-.04h.03v-8.21s-.6-5.08-2.74-7.33a5 5 0 0 1-.7-.94l-.04-.06c.02-.64.02-1.51 0-2.5l.04-.06q.1-.2.27-.35l.03-.04s1.18-1.42 5.17-10.35c2.44-5.44 1.8-8.5.92-10.08-.18-.7-.56-2.3-1.05-5.01a20 20 0 0 1-.28-3.5 7 7 0 0 0 1.86.21 6 6 0 0 0 2.83-.6c-.64-.93-1.3-2.03-.98-3.1.36-1.21 1.8-1.77 2.63-2.76 1-1.19 1.03-2.88.74-4.39" style="fill:url(#b)" transform="scale(.65666)"/><path fill="#5776ae" d="M260.95 98.2s-1.6.93-1.1 2.21c0 0 1.65.5 2.32 1.71.67 1.23 5.88 5.64 5.88 5.64l3.8-1.9s-1.32-1.76-5.5-3c0 0-2.46-2.63-3.32-3.12s-2.08-1.53-2.08-1.53"/><path fill="#000" d="M261.72 98.98s-1.6.92-1.1 2.2c0 0 1.65.5 2.33 1.72.67 1.22 5.87 5.63 5.87 5.63l3.8-1.9s-1.31-1.76-5.5-2.99c0 0-2.45-2.63-3.31-3.13-.86-.49-2.09-1.53-2.09-1.53" opacity=".05"/><path fill="#ffb9b9" d="M270.86 150.43s.19 2.7.5 3c.3.3-2.76.5-2.76.5l.43-3.5z"/><path fill="#000" d="M270.86 150.43s.19 2.7.5 3c.3.3-2.76.5-2.76.5l.43-3.5z" opacity=".05"/><path fill="#9298af" d="M271.54 152.51s-.43 0-1.96.8c0 0-1.04-.18-1.47-1.65 0 0-1.29 2.2-2.14 2.32-.86.13-2.51.25-1.41 1.72s7.6.8 7.6.8.17-3.56-.62-3.99"/><path fill="#333" d="M271.54 152.51s-.43 0-1.96.8c0 0-1.04-.18-1.47-1.65 0 0-1.29 2.2-2.14 2.32-.86.13-2.51.25-1.41 1.72s7.6.8 7.6.8.17-3.56-.62-3.99" opacity=".1"/><path fill="#ffb9b9" d="m270.62 154.6-.43 1.16-2.81-.8.15-1.15.04-.28.1-.78s2.4-.61 2.4-.3q.05.38.15.74l.31 1.09z"/><path fill="#4e6896" d="M269.08 138.63a1.7 1.7 0 0 0 0 1.7 3 3 0 0 0 .44.61c1.35 1.47 1.72 4.78 1.72 4.78v5.32l-.92.07-1.47.12-2.2-9.06s-1.3-6.62-.68-7.78c.61-1.16 1.17-8.45 1.17-8.45l.5-.52 1.21-1.25h3.49a2 2 0 0 1 .68.76c.59.96 1.11 2.98-.5 6.7-2.5 5.82-3.24 6.74-3.24 6.74z"/><path fill="#333" d="M269.1 138.6a1.7 1.7 0 0 0 0 1.7q.18.34.44.62c1.35 1.47 1.72 4.77 1.72 4.77v5.33l-.92.07-1.47.11-2.2-9.06s-1.3-6.61-.68-7.78c.61-1.16 1.17-8.44 1.17-8.44l.5-.53 1.21-1.25h3.49q.42.3.68.76c.59.97 1.11 2.99-.5 6.7-2.5 5.83-3.24 6.74-3.24 6.74z" opacity=".1"/><path fill="#000" d="m270.22 153.2-2.65.33.11-.78s2.39-.61 2.39-.3q.04.37.15.75" opacity=".1"/><path fill="#4e6896" d="M268.9 130.78s.16 4.82.18 7.85v1.7q0 .34-.05.68c-.18.55.18 1.77.18 1.77a18 18 0 0 1 1.1 7.6v2.69l-2.93.36s.49-.36-.86-3.92a16 16 0 0 1-.95-5.37 6 6 0 0 0-.43-2.12 3 3 0 0 1-.15-.7 14 14 0 0 0-.68-2.76s-1.46-4.35-1.83-7.53a18 18 0 0 1 .08-4.56q.09-.57.22-1.14s5.99-3.76 8.25-1.16q.33.38.51.86.18.45.29.95c.7 3.45-2.93 4.8-2.93 4.8"/><path fill="#ffb9b9" d="M268.72 103.96a3.12 3.12 0 1 0 0-6.24 3.12 3.12 0 0 0 0 6.24"/><path fill="#ffb9b9" d="M267 102.8s1.3 3.61 0 5.5c-1.28 1.9 4.1 1.3 4.1 1.3l2.09-2.52s-2.45 0-2.57-4.28-3.61 0-3.61 0"/><path fill="#000" d="M273.19 125.64q-.66.22-1.36.34c-.77.11-1.66.12-2.2-.34-.3-.28-1.08-.31-2-.22-1.94.18-4.57.9-5.07 1.05a11 11 0 0 1 .22-1.14s5.99-3.77 8.25-1.16h1.3q.42.3.68.75zm-2.57 28.95-.43 1.17-2.81-.8.15-1.15c.48 1.07 1.31 1.21 1.31 1.21q.8-.45 1.69-.73z" opacity=".1"/><path fill="#9298af" d="M270.8 154.29s-.43 0-1.96.8c0 0-1.04-.19-1.47-1.66 0 0-1.28 2.2-2.14 2.33-.85.12-2.5.24-1.4 1.71s7.59.8 7.59.8.18-3.55-.62-3.98"/><path fill="#e4e8ef" d="M258.5 76.55h-30.15c-.74 0-1.33.35-1.33.78V98c0 .44.6.79 1.33.79h30.15c.74 0 1.33-.35 1.33-.79V77.33c0-.43-.6-.78-1.33-.78"/><path fill="#fff" d="M257.04 78.14h-27.23c-.67 0-1.2.3-1.2.67v17.7c0 .38.53.68 1.2.68h27.23c.67 0 1.2-.3 1.2-.67V78.8c0-.37-.53-.67-1.2-.67"/><path fill="#7598d6" d="M252.07 81.31h-17.13a1 1 0 0 0-.74.3 1 1 0 0 0-.3.74v4.58c0 .58.46 1.04 1.04 1.04h17.13a1.04 1.04 0 0 0 1.04-1.04v-4.58a1 1 0 0 0-.3-.73 1 1 0 0 0-.74-.3" opacity=".2"/><path fill="#ff7067" d="M249.78 90.31h-12.7v1.59h12.7z"/><path fill="#7598d6" d="M255.75 93.28h-24.5v1.36h24.5z" opacity=".7"/><path fill="#fcb6ac" d="M258.67 101.94a6 6 0 0 1-.48-1.56 2.3 2.3 0 0 1 .29-1.15 2.6 2.6 0 0 0-.03-1.5c-.07-.23-.24-.14-.37.16-.14.3-.19.82-.27.93q-.14.17-.4-.29a3 3 0 0 1-.35-1.2c0-.3.08-1.02-.05-1.2-.13-.19-.24-.2-.36.13a5 5 0 0 0-.28 1.04c-.04.24-.36.32-.55 1.16a7 7 0 0 0-.08.79l-.05.13c-.09.31.66 1.06.8 1.36q.21.92.3 1.86z"/><path fill="#7598d6" d="M270.74 107.82s-3-.5-3.8-1.1c0 0-.6 1.16-1.7.55-1.11-.61-3.68-.55-3.68-.55a5.6 5.6 0 0 1-2.57-3.8s-.43-1.59-.31-2.02c0 0-1.6-1.65-2.4.55.32 1.54.56 1.41.5 2.64l.98 2.7s.06.91 1.83 2.14a39 39 0 0 1 3.8 3.12s-1.07.58-.67 3.25c.48 3.25-.25 7.9-.25 7.9v3s6.13-1.78 7.16-.86c1.04.91 3.56 0 3.56 0s-.31-1.04-.74-3.55.06-4.97.06-4.97 1.6-4.22 2.33-5.94c.73-1.71-.55-4.03-1.84-4.9-1.29-.86-1.76-.34-1.76-.34s2.26 1.63-.5 2.18"/><path fill="#000" d="M262.87 116.66s.5-.11 2.94-.48c2.45-.37 6.74.49 6.74.49" opacity=".05"/><path fill="#000" d="M265 98.82c1.39.03 2.42 1.75 1.8 3-.27.54-.8 1.02-.74 1.63.02.27.17.52.23.8.3 1.23-1.19 2.4-.85 3.62q.18.5.53.89l2.58 3.25q.24.27.39.6.15.45.1.95c0 1.55.1 3.21 1.01 4.47a4.1 4.1 0 0 0 5.01 1.21c-.4-.6-.82-1.31-.62-2.01.23-.8 1.13-1.16 1.65-1.8.63-.78.65-1.88.47-2.86s-.54-1.93-.55-2.93c-.01-1.62.82-3.5-.28-4.7-.25-.27-.58-.47-.76-.79a2 2 0 0 1-.2-.9c-.01-1.88.99-3.8.39-5.59a2 2 0 0 0-.69-1c-.85-.57-2.03-.01-3.01-.3-.47-.14-.85-.45-1.3-.6-1.23-.42-2.37.41-3.21 1.2q-.53.48-1.12.85c.06-.03-1.38 1-.84 1" opacity=".1"/><path fill="#4e6896" d="M265.15 98.82c1.4.03 2.43 1.75 1.8 3-.26.54-.79 1.02-.74 1.63.03.27.18.52.24.8.3 1.23-1.2 2.4-.85 3.62q.18.5.53.89l2.58 3.25q.23.27.38.6.15.45.11.95c0 1.55.1 3.21 1 4.47a4.1 4.1 0 0 0 5.02 1.21c-.4-.6-.82-1.31-.62-2.01.22-.8 1.13-1.16 1.65-1.8.63-.78.64-1.88.46-2.86s-.54-1.93-.55-2.93c0-1.62.82-3.5-.27-4.7-.25-.27-.58-.47-.77-.79a2 2 0 0 1-.2-.9c0-1.88 1-3.8.4-5.59a2 2 0 0 0-.7-1c-.85-.57-2.02-.01-3-.3-.47-.14-.86-.45-1.31-.6-1.23-.42-2.36.41-3.2 1.2q-.54.48-1.13.85c.06-.03-1.38 1-.83 1"/><path fill="#4d73b8" d="M212.17 55.3s-1.58.51-3.8 3.92c-2.24 3.42-5.97 13.85-5.97 13.85h14.43s6.26-10.6 6.7-11.2a5 5 0 0 0 .8-2.02l-1.68-1.98z"/><path fill="#f9d8cd" d="m212.27 65.36-.31-.66c-.4-.83.2-2.97-.64-3.12-.76-.14-5.9 8.73-5.62 9 .11.1 2.13-2.14 2.28-2.09.8.3 1.79-1.4 2.64-1.52a1.6 1.6 0 0 0 1.37-.73" opacity=".61"/><path fill="#ab7d7d" d="M234.35 74.85q.78.45 1.42 1.07.38.53.47 1.19a3 3 0 0 0 .94 1.28c.2.18.3 0 .23-.36-.07-.35-.35-.83-.35-.99q.01-.23.52 0a4 4 0 0 1 1.08.84c.18.25.56.94.78 1.02.23.08.35 0 .24-.34a6 6 0 0 0-.4-1.1c-.12-.23.1-.5-.26-1.35a6 6 0 0 0-.41-.74l-.04-.15c-.12-.32-1.25-.51-1.55-.68a15 15 0 0 1-1.41-1.45z"/><path fill="#4e6896" d="m207.8 60.2 7.01.34 8.9 1.04c2.55-4.44-3.1-6.9-4.18-7.01l-3.12-.47a14 14 0 0 0-4.74 1.44c-1.33.69-2.83 2.42-3.88 4.66"/><path fill="#ab7d7d" d="m220.2 53.58-.35 1.67a1.05 1.05 0 0 1-1.02.86c-2.74 0-2.65-1.73-2.65-1.73.51-.89.72-3.46.72-3.46m8.1 25.8q.48.75 1.13 1.35a2.5 2.5 0 0 0 1.2.42 3 3 0 0 1 1.33.9c.18.2 0 .3-.35.24-.36-.05-.85-.31-1-.3q-.23.02.03.52a4 4 0 0 0 .87 1.03c.26.18.97.53 1.06.75.09.23.03.35-.33.25a5 5 0 0 1-1.1-.36c-.25-.1-.51.14-1.38-.19a7 7 0 0 1-.75-.4l-.15-.02c-.33-.11-.57-1.23-.76-1.52a15 15 0 0 0-1.5-1.37z"/><path fill="#4e6896" d="M209.82 61.8c-1.01-1.54 2.19-3.37 2.19-3.37l1.24.51a59 59 0 0 1 2.01-.94l.67 1.82q.08.45-.08.86c.05 1.05 1.94 6.79 2.02 6.87a79 79 0 0 1 7.4 9.35 3 3 0 0 1-.7.94 4 4 0 0 1-.9.64s-5.86-4.76-8.52-7.53c-2.47-2.64-4.32-7.6-5.33-9.15"/><path fill="#ab7d7d" d="M223.55 52.28a4 4 0 0 1-1.73 1.8 3.3 3.3 0 0 1-2.63-.06 4.2 4.2 0 0 1-2.43-3.77 4.2 4.2 0 0 1 2.53-3.72c1.36-.56 3.5-.31 4.52.85 1.03 1.16.37 3.68-.26 4.9"/><path fill="#ab7d7d" d="M216.75 50.23a4.2 4.2 0 0 0 2.43 3.77 3.4 3.4 0 0 0 2.36.17 6 6 0 0 1-1.52-.29 4.2 4.2 0 0 1-2.5-3.77c0-1.58 1.41-3.13 2.87-3.74q.23-.09.48-.15a4 4 0 0 0-3.82 2.45 4 4 0 0 0-.32 1.56z"/><path fill="#3e486e" d="M224.14 49.01a3.2 3.2 0 0 1-2.46-1.76 1.6 1.6 0 0 1-1.05 1.03 1.6 1.6 0 0 1-1.45-.22 2 2 0 0 1-1.76 2.06.84.84 0 0 1-.17 1.06 1 1 0 0 1-.34.18 1.1 1.1 0 0 1-1.21-.79 1.7 1.7 0 0 1 .32-1.48 2.8 2.8 0 0 1-.94-3.46 2.8 2.8 0 0 1 3.27-1.46 2.67 2.67 0 0 1 5.03-.09c-.04-.09.77-.05.83-.05q.5.03.94.24c.55.27.01 4.84-1.01 4.74"/><path fill="#ab7d7d" d="M216.82 50.37c-.09-.53.21-1.27.68-1.38a.75.75 0 0 1 .98.6c.09.54-.2 1.42-.67 1.54a.86.86 0 0 1-1-.76"/><path fill="#4e6896" d="m223.85 57.53 5 8.41-2.58 2.67s-1.46-1.33-2.43-2.43q-.6-.69-1.17-1.39a3.9 3.9 0 0 1-.8-3.2q.15-1 .5-1.94c.96-1.91 1.48-2.12 1.48-2.12"/><path fill="#4e6896" d="M228.85 65.94s5.18 5.11 7.36 7.71l-1.26 1.67s-7.14-4.15-9.87-8.2c-1.96-2.92 3.77-1.18 3.77-1.18m-17.1-5.55s-1.6 3.54-3.3 3.09c-1.38-.37-.65-3.28-.65-3.28l1.89-1.7z"/><path fill="#5e7ebe" d="M223.32 57.6a15 15 0 0 1-1.23 7.54l-.53-3.81a14 14 0 0 0 0-5.94q.34.1.64.29a2.2 2.2 0 0 1 1.12 1.92m-5.94 3.43s-.27-6.05-3.67-6.34a2 2 0 0 0-1.27.48s2.94.86 3.43 5.7z"/><path fill="#ff7067" d="M218.58 47.28s1.14 2.17 6.04 2.66c.37.04 1.66-.25.55-1.38z"/><path fill="#ff7067" d="M225.32 48.14c.36-1.18 1.04-4.6-2.52-6.12-5.29-2.26-7.17 1-7.86 3.77a.4.4 0 0 0-.36.3.3.3 0 0 0 .22.33q.7.26 1.42.43c2.1.63 6.08 1.7 8.74 1.7a.3.3 0 0 0 .23 0c.38-.14.13-.4.13-.4"/><path fill="#ff9892" d="M219.74 41.25s4.33 1.1 2.83 7.1q.9.2 1.83.22s1.4-4.53-1.6-6.55c0 0-1.35-1.41-3.06-.77"/></g><defs><linearGradient id="a" x1="-63460.8" x2="-61271.2" y1="122773" y2="68281.3" gradientUnits="userSpaceOnUse"><stop stop-color="gray" stop-opacity=".25"/><stop offset=".54" stop-color="gray" stop-opacity=".12"/><stop offset="1" stop-color="gray" stop-opacity=".1"/></linearGradient><linearGradient id="b" x1="34088.2" x2="34088.2" y1="78773.2" y2="39430.5" gradientUnits="userSpaceOnUse"><stop stop-color="gray" stop-opacity=".25"/><stop offset=".54" stop-color="gray" stop-opacity=".12"/><stop offset="1" stop-color="gray" stop-opacity=".1"/></linearGradient></defs></svg>