<svg width="52" height="52" viewBox="0 0 52 52" fill="none" xmlns="http://www.w3.org/2000/svg">
  <path
    d="M42.4531 1.99951H9.54687C7.86683 1.99951 6.5 3.36634 6.5 5.04639V14.9995C6.5 15.5604 6.9548 15.9995 7.51562 15.9995C8.07645 15.9995 8.53125 15.5604 8.53125 14.9995V5.04639C8.53125 4.48637 8.98686 4.03076 9.54687 4.03076H42.4531C43.0131 4.03076 43.4688 4.48637 43.4688 5.04639V46.9526C43.4688 47.5127 43.0131 47.9683 42.4531 47.9683H9.54687C8.98686 47.9683 8.53125 47.5127 8.53125 46.9526V23.9708C8.53125 23.4099 8.07645 22.9552 7.51562 22.9552C6.9548 22.9552 6.5 23.4099 6.5 23.9708V46.9526C6.5 48.6327 7.86683 49.9995 9.54687 49.9995H42.4531C44.1332 49.9995 45.5 48.6327 45.5 46.9526V5.04639C45.5 3.36634 44.1332 1.99951 42.4531 1.99951Z"
    fill="#3558A2"/>
  <path
    d="M7.56152 17.9995C7.82863 17.9995 8.09066 18.1072 8.27947 18.2961C8.46837 18.486 8.57715 18.747 8.57715 19.0141C8.57647 19.2837 8.4695 19.542 8.27947 19.7332C8.09056 19.9221 7.82853 20.0308 7.56152 20.0308C7.29441 20.0308 7.03238 19.9221 6.84348 19.7332C6.65369 19.5419 6.54679 19.2836 6.5459 19.0141C6.54713 18.745 6.654 18.4872 6.84348 18.2961C7.03238 18.1072 7.29441 17.9995 7.56152 17.9995Z"
    fill="#3558A2"/>
  <path
    d="M20.6254 36.2969C20.2287 35.9004 19.5858 35.9003 19.189 36.2969L16.4892 38.9968L15.2338 37.7413C14.8372 37.3447 14.1944 37.3448 13.7975 37.7413C13.4008 38.1379 13.4008 38.781 13.7975 39.1776L15.771 41.1512C15.9615 41.3416 16.2199 41.4486 16.4892 41.4486C16.7586 41.4486 17.0169 41.3416 17.2074 41.1512L20.6254 37.7332C21.022 37.3366 21.022 36.6935 20.6254 36.2969Z"
    fill="#3558A2"/>
  <path
    d="M20.685 28.2969C20.2883 27.9004 19.6454 27.9003 19.2486 28.2969L16.5487 30.9968L15.2934 29.7413C14.8968 29.3447 14.2539 29.3448 13.857 29.7413C13.4604 30.1379 13.4604 30.781 13.857 31.1776L15.8306 33.1512C16.0211 33.3416 16.2794 33.4486 16.5488 33.4486C16.8181 33.4486 17.0765 33.3416 17.267 33.1512L20.685 29.7332C21.0816 29.3366 21.0816 28.6935 20.685 28.2969Z"
    fill="#3558A2"/>
  <path
    d="M38.4756 28.9995H26.5244C25.9587 28.9995 25.5 29.4472 25.5 29.9995C25.5 30.5518 25.9587 30.9995 26.5244 30.9995H38.4756C39.0413 30.9995 39.5 30.5518 39.5 29.9995C39.5 29.4472 39.0413 28.9995 38.4756 28.9995Z"
    fill="#E1000F"/>
  <path
    d="M38.4756 37.9995H26.5244C25.9587 37.9995 25.5 38.4472 25.5 38.9995C25.5 39.5518 25.9587 39.9995 26.5244 39.9995H38.4756C39.0413 39.9995 39.5 39.5518 39.5 38.9995C39.5 38.4472 39.0413 37.9995 38.4756 37.9995Z"
    fill="#E1000F"/>
  <rect x="13.5" y="18.9995" width="26" height="2" rx="1" fill="#E1000F"/>
  <rect x="13.5" y="12.9995" width="26" height="2" rx="1" fill="#E1000F"/>
  <rect x="13.5" y="6.99951" width="26" height="2" rx="1" fill="#E1000F"/>
</svg>
