<svg xmlns="http://www.w3.org/2000/svg" viewBox="0 0 512 512" fill="#4c5467"><path d="M302 306c-5.52 0-10 4.48-10 10s4.48 10 10 10 10-4.48 10-10-4.48-10-10-10z"/><path d="M482 186h-10V10c0-5.523-4.477-10-10-10H50c-5.523 0-10 4.477-10 10v56H30C13.424 66 0 79.425 0 96c0 16.542 13.458 30 30 30h10v40H30c-16.576 0-30 13.425-30 30 0 16.542 13.458 30 30 30h10v40H30c-16.576 0-30 13.425-30 30 0 16.542 13.458 30 30 30h10v40H30c-16.576 0-30 13.425-30 30 0 16.542 13.458 30 30 30h10v76c0 5.523 4.477 10 10 10h412c5.523 0 10-4.477 10-10V306h10c16.542 0 30-13.458 30-30v-60c0-16.542-13.458-30-30-30zM432 20h20v166h-20V20zm-180 0h40v77.315l-14.453-9.635a10.001 10.001 0 0 0-11.094 0L252 97.315V20zM30 106c-5.514 0-10-4.486-10-10 0-5.521 4.478-10 10-10h40c5.514 0 10 4.486 10 10 0 5.521-4.478 10-10 10H30zm0 100c-5.514 0-10-4.486-10-10 0-5.521 4.478-10 10-10h40c5.514 0 10 4.486 10 10 0 5.521-4.478 10-10 10H30zm0 100c-5.514 0-10-4.486-10-10 0-5.521 4.478-10 10-10h40c5.514 0 10 4.486 10 10 0 5.521-4.478 10-10 10H30zm0 100c-5.514 0-10-4.486-10-10 0-5.521 4.478-10 10-10h40c5.514 0 10 4.486 10 10 0 5.521-4.478 10-10 10H30zm302 86H60v-66h10c16.576 0 30-13.425 30-30 0-16.542-13.458-30-30-30H60v-40h10c16.576 0 30-13.425 30-30 0-16.542-13.458-30-30-30H60v-40h10c16.576 0 30-13.425 30-30 0-16.542-13.458-30-30-30H60v-40h10c16.576 0 30-13.425 30-30 0-16.542-13.458-30-30-30H60V20h172v96a10 10 0 0 0 15.547 8.32L272 108.019l24.453 16.302a10.001 10.001 0 0 0 15.547-8.32V20h20v472zm80 0h-20v-46h20v46zm40 0h-20v-46h10c3.506 0 6.87-.61 10-1.72V492zm0-76c0 5.514-4.486 10-10 10h-60c-5.523 0-10 4.477-10 10v56h-20V20h20v316c0 5.523 4.477 10 10 10h60c5.514 0 10 4.486 10 10v60zm0-88.28a29.857 29.857 0 0 0-10-1.72h-10v-20h20v21.72zM492 276c0 5.514-4.486 10-10 10h-60c-5.523 0-10 4.477-10 10v30h-20V20h20v176c0 5.523 4.477 10 10 10h60c5.514 0 10 4.486 10 10v60z"/><path d="M302 266H130c-5.523 0-10 4.477-10 10s4.477 10 10 10h172c5.523 0 10-4.477 10-10s-4.477-10-10-10zM262 306H130c-5.523 0-10 4.477-10 10s4.477 10 10 10h132c5.523 0 10-4.477 10-10s-4.477-10-10-10zM302 166H130c-5.523 0-10 4.477-10 10v60c0 5.523 4.477 10 10 10h172c5.523 0 10-4.477 10-10v-60c0-5.523-4.477-10-10-10zm-10 60H140v-40h152v40z"/></svg>