<svg xmlns="http://www.w3.org/2000/svg" viewBox="0 0 512 512" fill="#4c5467"><path d="M383.07 168.93c-3.9-3.91-10.24-3.91-14.14 0-3.91 3.9-3.91 10.24 0 14.14 3.9 3.91 10.24 3.91 14.14 0 3.91-3.9 3.91-10.24 0-14.14z"/><path d="M482 126h-96V76c0-27.57-22.43-50-50-50H176c-27.57 0-50 22.43-50 50v50H30c-16.542 0-30 13.458-30 30v67.35c0 11.523 6.724 22.162 17.13 27.104l.11.052 2.76 1.267V456c0 16.542 13.458 30 30 30h412c16.542 0 30-13.458 30-30V251.773c.254-.215 20-6.937 20-28.424V156c0-16.542-13.458-30-30-30zM146 76c0-16.542 13.458-30 30-30h160c16.542 0 30 13.458 30 30v50h-20V76c0-5.522-4.477-10-10-10H176c-5.523 0-10 4.478-10 10v50h-20V76zm180 10v40H186V86h140zm146 370c0 5.514-4.486 10-10 10H266v-70c0-5.522-4.477-10-10-10s-10 4.478-10 10v70H50c-5.514 0-10-4.486-10-10V260.967l66 30.34V366H96c-5.523 0-10 4.478-10 10s4.477 10 10 10h10v10c0 2.652 1.054 5.195 2.929 7.071l20 20c1.953 1.952 4.512 2.929 7.071 2.929s5.119-.977 7.071-2.929l20-20A10.003 10.003 0 0 0 166 396v-10h10c5.523 0 10-4.478 10-10s-4.477-10-10-10h-10v-47.11l42.513 19.543 26.049 12.361c13.651 6.479 29.277 6.456 42.875 0l26.05-12.361L346 318.89V366h-10c-5.523 0-10 4.478-10 10s4.477 10 10 10h10v10c0 2.652 1.054 5.195 2.929 7.071l20 20c1.953 1.952 4.512 2.929 7.071 2.929s5.119-.977 7.071-2.929l20-20A10.003 10.003 0 0 0 406 396v-10h10c5.523 0 10-4.478 10-10s-4.477-10-10-10h-10v-74.692l66-30.34V456zm-326-70v5.857l-10 10-10-10V386h20zm-20-20v-65.499l20 9.194V366h-20zm260 20v5.857l-10 10-10-10V386h20zm-20-20v-56.304l20-9.194V366h-20zm126-142.65c0 3.825-2.221 7.357-5.662 9.015-204.845 94.168-188.007 86.274-217.477 100.361a29.868 29.868 0 0 1-25.725 0c-23.225-11.021 3.679 1.13-217.476-100.361A10.054 10.054 0 0 1 20 223.35V156c0-5.514 4.486-10 10-10h452c5.514 0 10 4.486 10 10v67.35z"/><path d="M336 166H136c-5.523 0-10 4.478-10 10s4.477 10 10 10h200c5.523 0 10-4.478 10-10s-4.477-10-10-10z"/></svg>