<svg xmlns="http://www.w3.org/2000/svg" viewBox="0 0 512 512" fill="#4c5467"><path d="M336 120c-5.52 0-10 4.48-10 10s4.48 10 10 10 10-4.48 10-10-4.48-10-10-10zM296 120H176c-5.523 0-10 4.478-10 10s4.477 10 10 10h120c5.522 0 10-4.478 10-10s-4.478-10-10-10z"/><path d="M456 60h-30V30c0-16.542-13.458-30-30-30s-30 13.458-30 30v30H146V30c0-16.542-13.458-30-30-30S86 13.458 86 30v30H56c-16.542 0-30 13.458-30 30v392c0 16.542 13.458 30 30 30h400c16.542 0 30-13.458 30-30V90c0-16.542-13.458-30-30-30zm-70-30c0-5.514 4.486-10 10-10s10 4.486 10 10v60c0 5.52-4.479 10-10 10-5.514 0-10-4.486-10-10V30zm-280 0c0-5.514 4.486-10 10-10s10 4.486 10 10v60c0 5.521-4.479 10-10 10-5.514 0-10-4.486-10-10V30zm360 452c0 5.514-4.486 10-10 10H56c-5.514 0-10-4.486-10-10V180h420v302zm0-322H46V90c0-5.514 4.486-10 10-10h30v10c0 16.542 13.458 30 30 30 16.575 0 30-13.424 30-30V80h220v10c0 16.542 13.458 30 30 30 16.575 0 30-13.425 30-30V80h30c5.514 0 10 4.486 10 10v70z"/><path d="M176 226H96c-5.523 0-10 4.478-10 10v40c0 5.522 4.477 10 10 10h80c5.523 0 10-4.478 10-10v-40c0-5.522-4.477-10-10-10zm-10 40h-60v-20h60v20zM296 226h-80c-5.523 0-10 4.478-10 10v40c0 5.522 4.477 10 10 10h80c5.522 0 10-4.478 10-10v-40c0-5.522-4.478-10-10-10zm-10 40h-60v-20h60v20zM416 226h-80c-5.522 0-10 4.478-10 10v40c0 5.522 4.478 10 10 10h80c5.522 0 10-4.478 10-10v-40c0-5.522-4.478-10-10-10zm-10 40h-60v-20h60v20zM176 306H96c-5.523 0-10 4.478-10 10v40c0 5.522 4.477 10 10 10h80c5.523 0 10-4.478 10-10v-40c0-5.522-4.477-10-10-10zm-10 40h-60v-20h60v20zM296 306h-80c-5.523 0-10 4.478-10 10v40c0 5.522 4.477 10 10 10h80c5.522 0 10-4.478 10-10v-40c0-5.522-4.478-10-10-10zm-10 40h-60v-20h60v20zM416 306h-80c-5.522 0-10 4.478-10 10v40c0 5.522 4.478 10 10 10h80c5.522 0 10-4.478 10-10v-40c0-5.522-4.478-10-10-10zm-10 40h-60v-20h60v20zM176 386H96c-5.523 0-10 4.478-10 10v40c0 5.522 4.477 10 10 10h80c5.523 0 10-4.478 10-10v-40c0-5.522-4.477-10-10-10zm-10 40h-60v-20h60v20zM296 386h-80c-5.523 0-10 4.478-10 10v40c0 5.522 4.477 10 10 10h80c5.522 0 10-4.478 10-10v-40c0-5.522-4.478-10-10-10zm-10 40h-60v-20h60v20zM416 386h-80c-5.522 0-10 4.478-10 10v40c0 5.522 4.478 10 10 10h80c5.522 0 10-4.478 10-10v-40c0-5.522-4.478-10-10-10zm-10 40h-60v-20h60v20z"/></svg>