<svg xmlns="http://www.w3.org/2000/svg" viewBox="0 0 511.998 511.998" fill="#4c5467"><path d="M429.065 274.93c-3.9-3.91-10.24-3.91-14.14 0-3.91 3.9-3.91 10.24 0 14.14 3.9 3.91 10.24 3.91 14.14 0 3.91-3.9 3.91-10.24 0-14.14zM409.065 254.93c-3.9-3.91-10.24-3.91-14.14 0-3.91 3.9-3.91 10.24 0 14.14 3.9 3.91 10.24 3.91 14.14 0 3.91-3.9 3.91-10.24 0-14.14zM409.065 294.93c-3.9-3.91-10.24-3.91-14.14 0-3.91 3.9-3.91 10.24 0 14.14 3.9 3.91 10.24 3.91 14.14 0 3.91-3.9 3.91-10.24 0-14.14zM389.065 274.93c-3.9-3.91-10.24-3.91-14.14 0-3.91 3.9-3.91 10.24 0 14.14 3.9 3.91 10.24 3.91 14.14 0 3.91-3.9 3.91-10.24 0-14.14zM303.065 254.93c-3.9-3.91-10.24-3.91-14.14 0-3.91 3.9-3.91 10.24 0 14.14 3.9 3.91 10.24 3.91 14.14 0 3.91-3.9 3.91-10.24 0-14.14zM129.995 272h-10v-10c0-5.522-4.477-10-10-10s-10 4.478-10 10v10h-10c-5.523 0-10 4.478-10 10s4.477 10 10 10h10v10c0 5.522 4.477 10 10 10s10-4.478 10-10v-10h10c5.523 0 10-4.478 10-10s-4.477-10-10-10zM295.995 292h-20c-5.522 0-10 4.478-10 10s4.478 10 10 10h20c5.522 0 10-4.478 10-10s-4.477-10-10-10zM235.995 292h-20c-5.523 0-10 4.478-10 10s4.477 10 10 10h20c5.522 0 10-4.478 10-10s-4.477-10-10-10zM255.995 252h-40c-5.523 0-10 4.478-10 10s4.477 10 10 10h40c5.522 0 10-4.478 10-10s-4.477-10-10-10z"/><path d="M401.995 212c-38.598 0-70 31.402-70 70s31.402 70 70 70 70-31.402 70-70-31.402-70-70-70zm0 120c-27.57 0-50-22.43-50-50s22.43-50 50-50 50 22.43 50 50-22.43 50-50 50z"/><path d="M507.861 251.685c-9.504-34.793-36.835-63.227-71.326-74.205-34.059-10.833-68.365-5.66-97.087 14.52h-53.453v-10c0-13.334-8.615-24.28-20-28.297V100c0-11.028 8.972-20 20-20h40c22.098 0 40-17.898 40-40 0-22.056-17.944-40-40-40h-170c-5.523 0-10 4.478-10 10s4.477 10 10 10h170c11.028 0 20 8.972 20 20 0 11.046-8.954 20-20 20h-40c-22.056 0-40 17.944-40 40v53.72c-11.639 4.128-20 15.243-20 28.28v10h-53.441c-28.731-20.184-63.042-25.354-97.103-14.519-34.483 10.979-61.809 39.404-71.313 74.183-8.487 31.067-3.814 62.702 13.159 89.08 14.849 23.059 22.698 51.108 22.698 81.116v27.279c0 32.047 23.655 59.522 53.853 62.551 35.462 3.559 66.147-24.153 66.147-59.69 0-13.857 1.755-15.473 5.682-36.064 1.035-5.417 3.617-10.389 7.352-14.39 7.255 6.662 16.769 10.454 26.966 10.454 14.441 0 27.591-7.807 34.64-20h42.721c7.052 12.196 20.2 20 34.639 20 10.268 0 19.828-3.834 27.087-10.556 3.753 3.981 6.346 8.933 7.383 14.33 3.797 19.786 5.53 20.363 5.53 33.376 0 32.052 23.651 59.522 53.843 62.54 35.691 3.569 66.157-24.378 66.157-59.69v-30.71c0-29.915 7.731-57.589 22.357-80.028 17.255-26.465 22.053-58.276 13.509-89.577zM245.995 182c0-5.514 4.486-10 10-10 5.52 0 10 4.479 10 10v10h-20v-10zm-46 210c-11.363 0-20-9.271-20-20 0-11.028 8.972-20 20-20s20 8.972 20 20c0 11.147-9.069 20-20 20zm129.074-9.603c-3.653 6.013-10.036 9.603-17.074 9.603-8.464 0-16.044-5.357-18.861-13.332l-.004-.012a19.845 19.845 0 0 1-1.135-6.656c0-11.028 8.972-20 20-20s20 8.972 20 20a19.87 19.87 0 0 1-2.926 10.397zm148.529-52.057c-16.749 25.698-25.603 57.148-25.603 90.95V452c0 23.055-19.765 42.223-44.166 39.79-20.094-2.009-35.834-20.738-35.834-42.64 0-15.662-2.225-18.064-5.89-37.146-2.075-10.808-7.792-20.538-16.066-27.719A39.925 39.925 0 0 0 351.995 372c0-22.056-17.944-40-40-40s-40 17.944-40 40h-32c0-22.056-17.944-40-40-40s-40 17.944-40 40c0 4.256.696 8.445 2.002 12.434-8.22 7.202-13.9 16.942-15.965 27.751-3.788 19.856-6.037 23.502-6.037 39.814 0 23.095-19.833 42.244-44.152 39.79-20.102-2.016-35.848-20.75-35.848-42.65V421.86c0-33.856-8.95-65.65-25.881-91.941-13.861-21.542-17.655-47.461-10.683-72.983 7.736-28.31 29.994-51.452 58.085-60.396 29.075-9.247 58.353-4.298 82.442 13.943a10.012 10.012 0 0 0 9.189 1.518h165.41a10.002 10.002 0 0 0 9.403-1.454c24.099-18.29 53.402-23.266 82.511-14.007 28.098 8.942 50.359 32.093 58.096 60.414 7.019 25.71 3.123 51.772-10.969 73.386z"/><path d="M109.995 212c-38.598 0-70 31.402-70 70s31.402 70 70 70 70-31.402 70-70-31.402-70-70-70zm0 120c-27.57 0-50-22.43-50-50s22.43-50 50-50 50 22.43 50 50-22.429 50-50 50z"/></svg>