<svg xmlns="http://www.w3.org/2000/svg" viewBox="0 0 512 512" fill="#4c5467"><path d="M216 380.001c-5.52 0-10 4.48-10 10s4.48 10 10 10 10-4.48 10-10-4.48-10-10-10zM196 140.003c-5.52 0-10 4.48-10 10s4.48 10 10 10 10-4.48 10-10-4.48-10-10-10z"/><path d="M465.283 286.288c-28.897-72.244-37.034-92.585-39.454-98.548C419.128 79.848 339.301 6.285 248.626.415 136.575-6.845 46.002 82.16 46.002 190.002c0 61.708 29.796 119.194 79.972 154.851.027 56.95.027 157.147.027 157.147 0 5.523 4.477 10 10 10H316c5.523 0 10-4.477 10-10v-77.305l43.799 10.263c.107.025.215.048.323.07a29.896 29.896 0 0 0 24.897-6.225 29.9 29.9 0 0 0 10.98-23.202v-33.239l18.944-37.889a9.997 9.997 0 0 0 0-8.944l-12.764-25.528h43.82c3.319 0 6.421-1.646 8.282-4.394a10.004 10.004 0 0 0 1.002-9.319zm-69.284-6.285v-.001a10 10 0 0 0-8.944 14.472l17.764 35.528-17.764 35.528a10.006 10.006 0 0 0-1.056 4.472v35.6a9.97 9.97 0 0 1-3.663 7.737 9.965 9.965 0 0 1-8.166 2.103l-116.661-27.326c-5.375-1.257-10.758 2.08-12.017 7.457-1.259 5.377 2.08 10.757 7.457 12.017l53.05 12.422v71.99H146c-.001-27.803-.005-106.961-.03-152.404a10.002 10.002 0 0 0-4.438-8.305C94.237 299.642 66 246.823 66 190.003c0-97.991 82.395-176.035 181.333-169.63 86.765 5.617 153.475 77.142 158.62 170.073a10 10 0 0 0 .747 3.275c.726 1.789 20.546 51.33 34.528 86.281h-45.229z"/><path d="M214.547 62.492c-32.139 7.468-57.968 33.009-65.8 65.067-6.628 27.121-.908 55.068 15.693 76.674 13.904 18.105 21.561 41.456 21.561 65.768 0 27.622 22.374 50 50 50 27.57 0 50-22.43 50-50 0-11.899 2.042-23.825 6.072-35.455 3.895-11.277 9.609-22.148 16.983-32.314 11.085-15.285 16.945-33.346 16.945-52.231-.002-57.444-53.227-101.038-111.454-87.509zM236 300.002c-13.318 0-24.273-8.706-28.295-20.1h56.575c-4.128 11.639-15.244 20.1-28.28 20.1zm56.865-109.512c-8.531 11.761-15.158 24.387-19.694 37.517-3.636 10.492-5.902 21.215-6.769 31.995H205.63c-1.859-25.064-10.689-48.886-25.331-67.952-13.076-17.018-17.382-38.235-12.125-59.744 6.06-24.799 26.039-44.557 50.899-50.333C264.532 71.41 306 105.207 306 150.002c0 14.641-4.542 28.64-13.135 40.488z"/><path d="M236 100.003a49.94 49.94 0 0 0-25.026 6.709c-4.777 2.771-6.405 8.89-3.634 13.667 2.771 4.778 8.89 6.405 13.667 3.634A29.91 29.91 0 0 1 236 120.002c16.542 0 30 13.458 30 30 0 5.523 4.477 10 10 10s10-4.477 10-10c0-27.57-22.43-49.999-50-49.999z"/></svg>