<svg xmlns="http://www.w3.org/2000/svg" viewBox="0 0 512 512" fill="#4c5467"><path d="M162.38 127.6a9.993 9.993 0 0 0-6.38-2.29c-5.52 0-10 4.48-10 10a9.98 9.98 0 0 0 7.64 9.71c.76.19 1.55.29 2.36.29 5.52 0 10-4.47 10-10 0-3.1-1.41-5.859-3.62-7.71zM315.33 171.029a10 10 0 0 0-8.072-6.805l-29.227-4.244-13.063-26.484A10.001 10.001 0 0 0 256 127.92h-.001a10 10 0 0 0-8.967 5.574L233.96 159.98l-29.228 4.245a10.001 10.001 0 0 0-5.544 17.056l21.147 20.621-4.992 29.11a10 10 0 0 0 14.51 10.541l26.146-13.744 26.137 13.744a10 10 0 1 0 14.51-10.541l-4.992-29.11 21.147-20.621a10.002 10.002 0 0 0 2.529-10.252zm-41.401 20.222a10.003 10.003 0 0 0-2.875 8.85l2.455 14.318-12.854-6.76a10 10 0 0 0-9.308 0l-12.866 6.764 2.456-14.322a10.004 10.004 0 0 0-2.875-8.85l-10.405-10.146 14.381-2.088a9.998 9.998 0 0 0 7.529-5.47l6.431-13.027 6.424 13.025a10 10 0 0 0 7.531 5.472l14.382 2.088-10.406 10.146z"/><path d="M256 65.311c-50.202 0-80.624 31.383-81.274 31.778-4.083 3.719-4.377 10.044-.658 14.126 3.72 4.083 10.044 4.377 14.127.658C208.2 93.725 232.014 85.311 256 85.311c55.141 0 100 44.86 100 100 0 54.96-44.587 100-100 100-56.559 0-102.675-47.309-99.875-105.05.093-1.706.223-3.419.387-5.093.54-5.496-3.479-10.39-8.975-10.929-5.518-.546-10.391 3.479-10.93 8.975a137.514 137.514 0 0 0-.456 6.022C132.789 248.404 187.996 305.31 256 305.31c66.659 0 120-54.277 120-120 0-66.168-53.832-119.999-120-119.999z"/><path d="M439.213 179.183l-27.584-35.569 6.109-44.596a9.999 9.999 0 0 0-6.126-10.615L369.93 71.381l-17.012-41.67a9.997 9.997 0 0 0-10.615-6.128l-44.596 6.109-35.578-27.593a10 10 0 0 0-12.258 0l-35.578 27.594-44.596-6.109a10.002 10.002 0 0 0-10.615 6.128l-17.012 41.67-41.682 17.022a10 10 0 0 0-6.126 10.615l6.109 44.596-27.584 35.569a10 10 0 0 0 0 12.255l27.585 35.579-6.109 44.597a10 10 0 0 0 6.128 10.616l41.68 17.012 17.011 41.679a9.998 9.998 0 0 0 10.616 6.128L186 344.814V502a10.001 10.001 0 0 0 17.071 7.071L256 456.142l52.929 52.929A10.001 10.001 0 0 0 326 502V344.814l16.303 2.234a9.995 9.995 0 0 0 10.616-6.128l17.011-41.679 41.68-17.012a10 10 0 0 0 6.128-10.616l-6.109-44.597 27.585-35.579a9.998 9.998 0 0 0-.001-12.254zM306 477.858l-42.929-42.929c-3.906-3.905-10.236-3.905-14.143 0L206 477.858V342.074l8.293-1.136 35.58 27.585c1.803 1.398 3.965 2.097 6.127 2.097s4.324-.699 6.127-2.097l35.58-27.585 8.293 1.136v135.784zm87.247-259.774a10.004 10.004 0 0 0-2.004 7.485l5.627 41.075-38.39 15.669a10 10 0 0 0-5.479 5.479l-15.668 38.389-17.428-2.388a9.887 9.887 0 0 0-5.151-.706l-18.496-2.534a9.997 9.997 0 0 0-7.484 2.005L256 347.967l-32.773-25.41a10.001 10.001 0 0 0-7.484-2.005l-41.075 5.627L159 287.79a9.998 9.998 0 0 0-5.479-5.479l-38.39-15.669 5.627-41.075a10 10 0 0 0-2.004-7.485l-25.408-32.771 25.406-32.762a10.002 10.002 0 0 0 2.005-7.486l-5.627-41.077 38.392-15.678a10.002 10.002 0 0 0 5.477-5.478l15.669-38.379 41.075 5.627a10.005 10.005 0 0 0 7.486-2.005L256 22.657l32.771 25.417a10.004 10.004 0 0 0 7.486 2.005l41.075-5.627 15.669 38.379a9.999 9.999 0 0 0 5.477 5.478l38.392 15.678-5.627 41.077a9.998 9.998 0 0 0 2.005 7.486l25.407 32.763-25.408 32.771z"/></svg>