<svg xmlns="http://www.w3.org/2000/svg" viewBox="0 0 512 512" fill="#4c5467"><path d="M276 346h-40c-5.523 0-10 4.477-10 10s4.477 10 10 10h40c5.523 0 10-4.477 10-10s-4.477-10-10-10z"/><path d="M482 40H200V30c0-16.542-13.458-30-30-30H30C13.458 0 0 13.458 0 30v346c0 16.542 13.458 30 30 30h176v47.006c-19.563 3.987-35.007 19.431-38.994 38.994H136c-5.523 0-10 4.477-10 10s4.477 10 10 10h240c5.523 0 10-4.477 10-10s-4.477-10-10-10h-31.006c-3.987-19.563-19.431-35.007-38.994-38.994V406h176c16.542 0 30-13.458 30-30V70c0-16.542-13.458-30-30-30zM20 30c0-5.514 4.486-10 10-10h140c5.514 0 10 4.486 10 10v30H20V30zm0 50h160v186H20V80zm0 206h160v50c0 5.514-4.486 10-10 10H30c-5.514 0-10-4.486-10-10v-50zm304.28 206H187.72c4.128-11.639 15.243-20 28.28-20h80c13.036 0 24.152 8.361 28.28 20zM226 452v-46h60v46h-60zm266-76c0 5.514-4.486 10-10 10H30c-5.514 0-10-4.486-10-10v-11.72A29.857 29.857 0 0 0 30 366h140c16.542 0 30-13.458 30-30v-11h292v51zm0-71H200V60h282c5.514 0 10 4.486 10 10v235z"/><path d="M110 306H90c-5.523 0-10 4.477-10 10s4.477 10 10 10h20c5.523 0 10-4.477 10-10s-4.477-10-10-10z"/></svg>