<svg xmlns="http://www.w3.org/2000/svg" viewBox="0 0 512 512" fill="#4c5467"><path d="M176 226c-5.52 0-10 4.48-10 10s4.48 10 10 10 10-4.48 10-10-4.48-10-10-10z"/><path d="M418.424 266.298l-16.355-4.087c-3.724-16.263-10.049-31.568-18.864-45.648l8.651-14.418a10.002 10.002 0 0 0-1.504-12.216l-28.28-28.28a9.998 9.998 0 0 0-12.216-1.503l-14.418 8.65c-14.081-8.816-29.387-15.141-45.648-18.864l-4.087-16.356A10.003 10.003 0 0 0 276 126h-40a10.001 10.001 0 0 0-9.702 7.576l-4.087 16.356c-16.262 3.724-31.567 10.048-45.648 18.864l-14.418-8.65a9.998 9.998 0 0 0-12.216 1.503l-28.28 28.28a10.002 10.002 0 0 0-1.504 12.216l8.651 14.418c-8.815 14.08-15.141 29.385-18.864 45.648l-16.355 4.087A10 10 0 0 0 86 276v40a10 10 0 0 0 7.576 9.702l16.355 4.087c3.724 16.262 10.049 31.568 18.863 45.647l-8.649 14.407a10.002 10.002 0 0 0 1.502 12.217l28.28 28.29a10 10 0 0 0 12.217 1.505l14.418-8.65c14.081 8.816 29.387 15.141 45.648 18.864l4.087 16.356a10.001 10.001 0 0 0 9.702 7.576h40c4.589 0 8.589-3.124 9.702-7.576l4.087-16.356c16.262-3.724 31.567-10.048 45.648-18.864l14.418 8.65a10 10 0 0 0 12.217-1.505l28.28-28.29a10.002 10.002 0 0 0 1.502-12.217l-8.649-14.407c8.814-14.08 15.14-29.386 18.863-45.647l16.355-4.087a10 10 0 0 0 7.576-9.702v-40a9.996 9.996 0 0 0-7.574-9.702zM406 308.191l-14.874 3.717a10 10 0 0 0-7.41 7.885c-3.326 18.009-10.241 34.744-20.555 49.74a10 10 0 0 0-.335 10.813l7.861 13.095-17.239 17.245-13.104-7.862a10.002 10.002 0 0 0-10.812.335c-14.997 10.314-31.732 17.23-49.739 20.556a9.997 9.997 0 0 0-7.885 7.409L268.191 446h-24.383l-3.718-14.875a9.997 9.997 0 0 0-7.885-7.409c-18.007-3.326-34.742-10.242-49.739-20.556a10.002 10.002 0 0 0-10.812-.335l-13.104 7.862-17.239-17.245 7.861-13.095a10 10 0 0 0-.335-10.813c-10.313-14.997-17.229-31.731-20.555-49.74a9.999 9.999 0 0 0-7.41-7.885L106 308.191v-24.383l14.874-3.717a10 10 0 0 0 7.41-7.885c3.326-18.009 10.241-34.744 20.555-49.74a10 10 0 0 0 .336-10.812l-7.863-13.104 17.238-17.238 13.105 7.863a9.998 9.998 0 0 0 10.812-.335c14.997-10.314 31.732-17.23 49.739-20.556a9.997 9.997 0 0 0 7.885-7.409L243.809 146h24.383l3.718 14.875a9.997 9.997 0 0 0 7.885 7.409c18.007 3.326 34.742 10.242 49.739 20.556a10.002 10.002 0 0 0 10.812.335l13.105-7.863 17.238 17.238-7.863 13.104a10 10 0 0 0 .336 10.812c10.313 14.997 17.229 31.731 20.555 49.74a9.999 9.999 0 0 0 7.41 7.885L406 283.809v24.382z"/><path d="M256 186c-19.395 0-38.459 5.115-55.13 14.791-4.777 2.772-6.401 8.892-3.629 13.669 2.771 4.776 8.891 6.4 13.668 3.629C224.535 210.18 240.127 206 256 206c49.626 0 90 40.374 90 90s-40.374 90-90 90-90-40.374-90-90c0-7.269.866-14.498 2.574-21.485 1.312-5.365-1.975-10.777-7.339-12.088-5.367-1.313-10.777 1.975-12.089 7.339A110.62 110.62 0 0 0 146 296c0 60.654 49.346 110 110 110s110-49.346 110-110-49.346-110-110-110z"/><path d="M502 0H10C4.478 0 0 4.477 0 10v492c0 5.523 4.478 10 10 10h492c5.522 0 10-4.477 10-10V10c0-5.523-4.478-10-10-10zM20 20h326v60H20V20zm472 472H20V100h472v392zm0-412H366V20h126v60z"/><path d="M70 40H50c-5.522 0-10 4.477-10 10s4.478 10 10 10h20c5.522 0 10-4.477 10-10s-4.478-10-10-10zM130 40h-20c-5.522 0-10 4.477-10 10s4.478 10 10 10h20c5.522 0 10-4.477 10-10s-4.478-10-10-10zM190 40h-20c-5.522 0-10 4.477-10 10s4.478 10 10 10h20c5.522 0 10-4.477 10-10s-4.478-10-10-10zM250 40h-20c-5.522 0-10 4.477-10 10s4.478 10 10 10h20c5.522 0 10-4.477 10-10s-4.478-10-10-10zM323.072 288.928l-20-20c-3.906-3.905-10.236-3.905-14.143 0-3.905 3.905-3.905 10.237 0 14.143L301.857 296l-12.929 12.929c-3.905 3.905-3.905 10.237.001 14.142s10.236 3.905 14.143 0l20-20c3.905-3.905 3.905-10.237 0-14.143zM210.143 296l12.929-12.929c3.905-3.905 3.905-10.237-.001-14.142-3.906-3.905-10.236-3.905-14.143 0l-20 20c-3.905 3.905-3.905 10.237 0 14.143l20 20c3.906 3.905 10.236 3.905 14.143 0 3.905-3.905 3.905-10.237 0-14.143L210.143 296zM268.426 246.298c-5.357-1.334-10.788 1.919-12.127 7.276l-20 80c-1.34 5.358 1.918 10.787 7.275 12.127 5.368 1.339 10.789-1.923 12.127-7.276l20-80c1.34-5.358-1.918-10.787-7.275-12.127z"/></svg>