<svg xmlns="http://www.w3.org/2000/svg" viewBox="0 0 512 512" fill="#4c5467"><path d="M428 0H84C67.458 0 54 13.458 54 30v226c0 5.522 4.478 10 10 10s10-4.478 10-10V122.828c11.897 11.582 28.125 18.736 46 18.736h86V216c0 27.57 22.43 50 50 50s50-22.43 50-50v-74.437h86c17.875 0 34.103-7.154 46-18.736V471.7l-18.966-25.605a20.083 20.083 0 0 0-16.071-8.096H109.037a20.075 20.075 0 0 0-16.07 8.096L74 471.701V332c0-5.522-4.478-10-10-10s-10 4.478-10 10v150c0 7.619 2.86 14.579 7.556 19.876l.023.026C67.078 508.091 75.089 512 84 512h344c8.911 0 16.922-3.909 22.421-10.098l.023-.026C455.14 496.579 458 489.619 458 482V30c0-16.542-13.458-30-30-30zm0 492H84c-.048 0-.095-.007-.143-.007L109.037 458h293.926l25.18 33.993c-.048 0-.095.007-.143.007zM256 246c-16.542 0-30-13.458-30-30s13.458-30 30-30 30 13.458 30 30-13.458 30-30 30zm30-69.973C277.637 169.735 267.248 166 256 166s-21.637 3.735-30 10.027v-44.491c8.363 6.292 18.752 10.027 30 10.027s21.637-3.735 30-10.027v44.491zm-30-54.464c-16.542 0-30-13.458-30-30s13.458-30 30-30 30 13.458 30 30-13.458 30-30 30zm182-46c0 25.365-20.636 46-46 46h-86v-30c0-27.57-22.43-50-50-50s-50 22.43-50 50v30h-86c-25.364 0-46-20.636-46-46V30c0-5.514 4.486-10 10-10h344c5.514 0 10 4.486 10 10v45.563z"/><path d="M71.069 287.96c-1.859-1.86-4.439-2.93-7.069-2.93s-5.21 1.069-7.07 2.93a10.072 10.072 0 0 0-2.93 7.07c0 2.64 1.069 5.21 2.93 7.069 1.86 1.861 4.44 2.931 7.07 2.931s5.21-1.07 7.069-2.931A10.068 10.068 0 0 0 74 295.03c0-2.631-1.07-5.2-2.931-7.07zM263.069 84.491C261.21 82.63 258.63 81.56 256 81.56s-5.21 1.07-7.07 2.931A10.072 10.072 0 0 0 246 91.56c0 2.641 1.069 5.21 2.93 7.07 1.86 1.87 4.44 2.93 7.07 2.93s5.21-1.06 7.069-2.93c1.86-1.86 2.931-4.44 2.931-7.07s-1.07-5.21-2.931-7.069zM263.069 208.93C261.21 207.069 258.63 206 256 206s-5.21 1.069-7.07 2.93c-1.86 1.861-2.93 4.44-2.93 7.07s1.069 5.21 2.93 7.069c1.86 1.86 4.44 2.931 7.07 2.931s5.21-1.07 7.069-2.931C264.93 221.21 266 218.63 266 216s-1.07-5.21-2.931-7.07zM408 185c-5.522 0-10 4.478-10 10v100.032c0 5.522 4.478 10 10 10s10-4.477 10-10V195c0-5.522-4.478-10-10-10zM415.069 324.93C413.21 323.07 410.63 322 408 322s-5.21 1.069-7.07 2.93c-1.86 1.861-2.93 4.44-2.93 7.07s1.069 5.21 2.93 7.069c1.86 1.86 4.44 2.931 7.07 2.931s5.21-1.07 7.069-2.931C416.93 337.21 418 334.63 418 332s-1.07-5.21-2.931-7.07z"/></svg>