<svg xmlns="http://www.w3.org/2000/svg" viewBox="0 0 512 512" fill="#4c5467"><path d="M492 246h-2.978v-30.264c0-44.235-33.958-80.672-77.171-84.653-.101-.028-.203-.049-.305-.074 9.36-10.451 15.065-24.24 15.065-39.34V10c0-5.522-4.478-10-10-10h-60.742c-26.099 0-47.332 21.233-47.332 47.332v44.337c0 15.1 5.706 28.889 15.065 39.34-.102.025-.204.046-.305.075-29.159 2.687-54.094 20.15-67.233 44.821-13.14-24.671-38.074-42.135-67.233-44.821-.101-.028-.204-.05-.305-.075 9.36-10.451 15.065-24.24 15.065-39.34V10c0-5.522-4.478-10-10-10h-60.742C106.75 0 85.517 21.233 85.517 47.332v44.337c0 15.1 5.706 28.889 15.065 39.34-.102.025-.204.046-.305.074-43.214 3.981-77.171 40.418-77.171 84.653V246H20c-11.028 0-20 8.972-20 20v36c0 11.028 8.972 20 20 20h8v29.577c0 5.522 4.478 10 10 10s10-4.478 10-10V322h416v28H354.333c-5.522 0-10 4.478-10 10s4.478 10 10 10H464v122H48v-56c0-5.522-4.478-10-10-10s-10 4.478-10 10v66c0 5.522 4.478 10 10 10h436c5.522 0 10-4.478 10-10V322h8c11.028 0 20-8.972 20-20v-36c0-11.028-8.972-20-20-20zM367.575 130.706c-21.525 0-39.037-17.512-39.037-39.037V78.453h59.764a38.08 38.08 0 0 0 18.31-4.667v17.883c0 21.525-17.512 39.037-39.037 39.037zm17.431 20l-17.432 17.432-17.432-17.432h34.864zm-56.47-103.374C328.537 32.261 340.798 20 355.869 20h50.742v20.144c0 10.096-8.214 18.31-18.31 18.31h-59.765V47.332zm-62.409 168.404c0-32.906 24.573-60.164 56.33-64.431l38.046 38.046c1.953 1.952 4.512 2.929 7.071 2.929s5.118-.977 7.071-2.929l38.047-38.047c31.756 4.267 56.33 31.525 56.33 64.431V246H266.127v-30.264zm-121.573-85.03c-21.525 0-39.037-17.512-39.037-39.037V78.453h59.764a38.08 38.08 0 0 0 18.31-4.667v17.883c0 21.525-17.512 39.037-39.037 39.037zm17.43 20l-17.432 17.432-17.432-17.432h34.864zM105.515 47.332C105.516 32.261 117.777 20 132.848 20h50.742v20.144c0 10.096-8.214 18.31-18.31 18.31h-59.765V47.332zM43.104 215.736c0-32.906 24.574-60.164 56.33-64.431l38.047 38.047c1.953 1.952 4.512 2.929 7.071 2.929s5.118-.977 7.071-2.929l38.046-38.046c31.756 4.267 56.33 31.525 56.33 64.431V246H43.104v-30.264zM492 302H20v-36h472l.013 35.999L492 302z"/><path d="M45.069 385.201c-1.859-1.87-4.439-2.931-7.069-2.931s-5.21 1.061-7.07 2.931A10.056 10.056 0 0 0 28 392.27c0 2.63 1.069 5.21 2.93 7.07 1.861 1.86 4.44 2.93 7.07 2.93s5.21-1.069 7.069-2.93A10.077 10.077 0 0 0 48 392.27c0-2.64-1.07-5.21-2.931-7.069zM315.069 352.93C313.21 351.07 310.63 350 308 350s-5.21 1.069-7.07 2.93c-1.86 1.861-2.93 4.44-2.93 7.07s1.069 5.21 2.93 7.069c1.86 1.86 4.44 2.931 7.07 2.931s5.21-1.07 7.069-2.931C316.93 365.21 318 362.63 318 360s-1.07-5.21-2.931-7.07z"/></svg>