<svg xmlns="http://www.w3.org/2000/svg" viewBox="0 0 512 512" fill="#4c5467"><path d="M62.74 494.93a10.071 10.071 0 0 0-7.07-2.93c-2.64 0-5.21 1.069-7.07 2.93-1.87 1.86-2.93 4.44-2.93 7.07s1.06 5.21 2.93 7.069A10.06 10.06 0 0 0 55.67 512c2.63 0 5.21-1.07 7.07-2.931 1.859-1.859 2.93-4.439 2.93-7.069s-1.07-5.21-2.93-7.07zM373.069 424.26c-1.859-1.861-4.439-2.93-7.069-2.93s-5.21 1.069-7.07 2.93a10.077 10.077 0 0 0-2.93 7.07c0 2.64 1.069 5.21 2.93 7.069 1.86 1.86 4.44 2.931 7.07 2.931s5.21-1.07 7.069-2.931A10.057 10.057 0 0 0 376 431.33c0-2.63-1.07-5.21-2.931-7.07z"/><path d="M479.747 161.62C487.314 154.02 492 143.547 492 132v-8c0-23.159-18.841-42-42-42s-42 18.841-42 42v8c0 11.549 4.687 22.022 12.256 29.623-16.413 9.014-28.333 25.234-31.45 44.377H343c-16.542 0-30 13.458-30 30 0 3.506.61 6.87 1.72 10H197.28a29.857 29.857 0 0 0 1.72-10c0-16.542-13.458-30-30-30h-45.806c-3.117-19.143-15.037-35.364-31.45-44.377C99.313 154.022 104 143.549 104 132v-8c0-23.159-18.841-42-42-42s-42 18.841-42 42v8c0 11.547 4.686 22.02 12.253 29.62C13.049 172.167 0 192.586 0 216v112.167C0 359.505 25.495 385 56.833 385H136v95.5c0 4.058.78 7.935 2.183 11.5H98.667c-5.522 0-10 4.478-10 10s4.478 10 10 10h357.666c5.522 0 10-4.478 10-10s-4.478-10-10-10h-82.516A31.332 31.332 0 0 0 376 480.5V469c0-5.522-4.478-10-10-10s-10 4.478-10 10v11.5c0 6.341-5.159 11.5-11.5 11.5s-11.5-5.159-11.5-11.5V354.25c0-15.577 12.673-28.25 28.25-28.25H492v2.167c0 20.31-16.523 36.833-36.833 36.833H366c-5.522 0-10 4.478-10 10v16c0 5.522 4.478 10 10 10s10-4.478 10-10v-6h79.167C486.505 385 512 359.505 512 328.167V216c0-23.414-13.049-43.833-32.253-54.38zM428 124c0-12.131 9.869-22 22-22s22 9.869 22 22v8c0 12.131-9.869 22-22 22s-22-9.869-22-22v-8zm-388 0c0-12.131 9.869-22 22-22s22 9.869 22 22v8c0 12.131-9.869 22-22 22s-22-9.869-22-22v-8zm-20 92c0-23.159 18.841-42 42-42s42 18.841 42 42c0 5.522 4.478 10 10 10h55c5.514 0 10 4.486 10 10s-4.486 10-10 10h-58.235a42.986 42.986 0 0 1-37.95-22.723c-2.607-4.868-8.669-6.701-13.537-4.092-4.868 2.607-6.7 8.668-4.092 13.537a62.943 62.943 0 0 0 49.373 32.974A9.986 9.986 0 0 0 104 269v37H20v-90zm123.382 90H124v-37a9.98 9.98 0 0 0-.458-3h19.84A39.742 39.742 0 0 0 138 286a39.732 39.732 0 0 0 5.382 20zM179 480.5c0 6.341-5.159 11.5-11.5 11.5s-11.5-5.159-11.5-11.5V375c0-5.522-4.478-10-10-10H56.833C36.523 365 20 348.477 20 328.167V326h130.75c15.577 0 28.25 12.673 28.25 28.25V480.5zm47 11.5h-29.183A31.311 31.311 0 0 0 199 480.5V354.25c0-10.544-3.409-20.302-9.171-28.25H226v166zm40 0h-20V326h20v166zm49.183 0H286V326h36.171c-5.761 7.948-9.171 17.706-9.171 28.25V480.5c0 4.058.78 7.935 2.183 11.5zM334 306H178c-11.028 0-20-8.972-20-20s8.972-20 20-20h156c11.028 0 20 8.972 20 20s-8.972 20-20 20zm54-37v37h-19.382A39.742 39.742 0 0 0 374 286a39.732 39.732 0 0 0-5.382-20h19.84a9.98 9.98 0 0 0-.458 3zm104 37h-84v-37c0-1.157-.197-2.27-.559-3.304a62.943 62.943 0 0 0 49.373-32.974c2.608-4.869.776-10.93-4.092-13.537-4.87-2.608-10.929-.774-13.537 4.092A42.986 42.986 0 0 1 401.235 246H343c-5.514 0-10-4.486-10-10s4.486-10 10-10h55c5.522 0 10-4.478 10-10 0-23.159 18.841-42 42-42s42 18.841 42 42v90z"/><path d="M328 0H184c-16.542 0-30 13.458-30 30v98c0 16.542 13.458 30 30 30h34.857l30.071 30.071C250.882 190.023 253.44 191 256 191s5.118-.977 7.071-2.929L293.143 158H328c16.542 0 30-13.458 30-30V30c0-16.542-13.458-30-30-30zm10 128c0 5.514-4.486 10-10 10h-39a10.003 10.003 0 0 0-7.071 2.929L256 166.857l-25.929-25.929A10.006 10.006 0 0 0 223 138h-39c-5.514 0-10-4.486-10-10V30c0-5.514 4.486-10 10-10h144c5.514 0 10 4.486 10 10v98z"/><path d="M216.069 68.1c-1.859-1.87-4.439-2.93-7.069-2.93s-5.21 1.06-7.07 2.93c-1.86 1.86-2.93 4.44-2.93 7.07s1.069 5.21 2.93 7.07c1.86 1.86 4.44 2.93 7.07 2.93s5.21-1.07 7.069-2.93c1.86-1.86 2.931-4.44 2.931-7.07s-1.07-5.21-2.931-7.07zM263.069 68.1c-1.859-1.859-4.439-2.93-7.069-2.93s-5.21 1.07-7.07 2.93c-1.86 1.86-2.93 4.44-2.93 7.07s1.069 5.21 2.93 7.07c1.86 1.86 4.44 2.93 7.07 2.93s5.21-1.07 7.069-2.93c1.86-1.86 2.931-4.44 2.931-7.07s-1.07-5.21-2.931-7.07zM310.069 68.1c-1.859-1.87-4.439-2.93-7.069-2.93s-5.21 1.06-7.07 2.93c-1.86 1.86-2.93 4.44-2.93 7.07s1.069 5.21 2.93 7.07c1.86 1.86 4.44 2.93 7.07 2.93s5.21-1.07 7.069-2.93c1.86-1.86 2.931-4.44 2.931-7.07s-1.07-5.21-2.931-7.07z"/></svg>