<svg xmlns="http://www.w3.org/2000/svg" viewBox="0 0 512 512" fill="#4c5467"><path d="M375.905 178.005h-11.606c23.92-18.089 39.406-46.77 39.406-79.003C403.705 44.412 359.293 0 304.703 0 250.113 0 205.7 44.412 205.7 99.002c0 32.233 15.487 60.914 39.407 79.003H233.5c-15.33 0-27.801 12.471-27.801 27.8v65.408c0 6.117 1.99 11.775 5.351 16.371a52.46 52.46 0 0 0-8.975 7.304L189.228 308h-28.663c-4.111-11.671-15.241-20.063-28.301-20.063H10c-5.523 0-10 4.477-10 10v168c0 5.523 4.477 10 10 10h122.264c15.164 0 27.728-11.311 29.717-25.938h31.242l10.785 10.714c7.286 7.238 16.954 11.224 27.223 11.224h22.258l.956 17.149c.717 12.85 11.359 22.914 24.227 22.914h52.061c12.868 0 23.51-10.064 24.226-22.913l.958-17.177c16.042-.572 28.919-13.793 28.919-29.973 0-7.678-2.902-14.688-7.664-20 4.761-5.312 7.664-12.322 7.664-20 0-7.678-2.902-14.688-7.664-20 4.761-5.312 7.664-12.322 7.664-20 0-7.678-2.902-14.688-7.664-20 4.761-5.312 7.664-12.322 7.664-20 0-9.185-4.154-17.415-10.677-22.923h1.746c15.329 0 27.8-12.471 27.8-27.801v-65.408c0-15.329-12.471-27.8-27.8-27.8zM142.264 445.938c0 5.514-4.486 10-10 10H20v-148h112.264c5.514 0 10 4.486 10 10v128zM225.7 99.002C225.7 55.44 261.14 20 304.703 20c43.562 0 79.002 35.44 79.002 79.002 0 43.563-35.44 79.003-79.002 79.003-43.563 0-79.003-35.44-79.003-79.003zm109.293 388.972a4.27 4.27 0 0 1-4.26 4.026h-52.061a4.266 4.266 0 0 1-4.257-4.026l-6.552-117.518c-.308-5.514-5.023-9.733-10.541-9.428-5.514.307-9.735 5.027-9.428 10.541l4.481 80.369h-21.143a18.51 18.51 0 0 1-13.128-5.413l-13.71-13.62a9.999 9.999 0 0 0-7.047-2.905h-35.082V328h31.166c2.688 0 5.262-1.082 7.143-3.001l15.788-16.112c6.148-6.274 14.713-9.873 23.498-9.873h28.477a27.33 27.33 0 0 1 21.249 10.082l20.41 24.996c3.189 3.905 2.816 9.677-.849 13.141a9.615 9.615 0 0 1-13.493-.208l-14.613-14.689c-6.218-6.25-14.841-9.835-23.658-9.835h-12.618c-5.523 0-10 4.477-10 10s4.477 10 10 10h12.618c3.533 0 6.987 1.437 9.479 3.941l14.613 14.689c5.834 5.865 13.425 8.81 21.028 8.81 2.416 0 4.831-.304 7.192-.9a29.942 29.942 0 0 0 6.807 12.897c-4.761 5.312-7.664 12.322-7.664 20 0 7.678 2.902 14.688 7.664 20-4.761 5.312-7.664 12.322-7.664 20 0 15.549 11.891 28.37 27.057 29.854l-.902 16.182zm-27.822-188.96h12.341a30.255 30.255 0 0 0-6.322 7.371l-6.019-7.371zm47.665 152.924h-16c-5.514 0-10-4.486-10-10s4.486-10 10-10h16c5.514 0 10 4.486 10 10s-4.486 10-10 10zm0-40h-16c-5.514 0-10-4.486-10-10s4.486-10 10-10h16c5.514 0 10 4.485 10 10 0 5.514-4.486 10-10 10zm0-40h-16c-5.514 0-10-4.486-10-10s4.486-10 10-10h16c5.514 0 10 4.485 10 10 0 5.514-4.486 10-10 10zm0-40h-16c-5.514 0-10-4.486-10-10s4.486-10 10-10h16c5.514 0 10 4.486 10 10s-4.486 10-10 10zm28.869-60.725c0 4.301-3.499 7.801-7.8 7.801H233.5c-4.301 0-7.801-3.5-7.801-7.801v-65.408c0-4.301 3.5-7.8 7.801-7.8h142.405c4.301 0 7.8 3.499 7.8 7.8v65.408z"/><path d="M304.831 37.606h-.128c-5.515 0-9.945 4.464-9.957 9.979-.012 5.515 4.486 9.998 10 10.021h.129c5.515 0 9.945-4.464 9.957-9.979.012-5.515-4.487-9.997-10.001-10.021zM344.291 52.072c-4.22-3.563-10.529-3.03-14.092 1.19-3.563 4.22-3.03 10.529 1.19 14.092a41.341 41.341 0 0 1 14.71 31.647c0 5.523 4.477 10 10 10s10-4.476 10-9.999c0-18.124-7.949-35.229-21.808-46.93zM134.083 149.922c-5.523 0-10 4.477-10 10v10.661c0 5.522 4.478 10 10 10 5.523 0 10-4.477 10-10v-10.661c0-5.523-4.477-10-10-10zM134.083 198.428c-5.523 0-10 4.477-10 10v10.661c0 5.523 4.477 10 10 10s10-4.477 10-10v-10.661c0-5.523-4.477-10-10-10zM163.667 179.505h-10.661c-5.523 0-10 4.477-10 10s4.477 10 10 10h10.661c5.523 0 10-4.477 10-10s-4.477-10-10-10zM115.161 179.505H104.5c-5.523 0-10 4.477-10 10s4.477 10 10 10h10.661c5.523 0 10-4.477 10-10s-4.477-10-10-10zM472.417 0c-5.523 0-10 4.477-10 10v10.661c0 5.523 4.477 10 10 10s10-4.477 10-10V10c0-5.523-4.477-10-10-10zM472.417 48.506c-5.523 0-10 4.477-10 10v10.661c0 5.523 4.477 10 10 10s10-4.477 10-10V58.506c0-5.523-4.478-10-10-10zM502 29.583h-10.661c-5.523 0-10 4.477-10 10s4.477 10 10 10H502c5.523 0 10-4.477 10-10s-4.477-10-10-10zM453.494 29.583h-10.661c-5.523 0-10 4.477-10 10s4.477 10 10 10h10.661c5.523 0 10-4.477 10-10s-4.477-10-10-10zM104 336.604c-5.523 0-10 4.477-10 10v44.063c0 5.523 4.477 10 10 10s10-4.477 10-10v-44.063c0-5.523-4.477-10-10-10zM111.07 418.24c-1.86-1.86-4.44-2.93-7.07-2.93s-5.21 1.07-7.07 2.93-2.93 4.44-2.93 7.07 1.07 5.21 2.93 7.07c1.86 1.86 4.44 2.93 7.07 2.93s5.21-1.07 7.07-2.93 2.93-4.44 2.93-7.07-1.07-5.21-2.93-7.07z"/></svg>