<svg xmlns="http://www.w3.org/2000/svg" viewBox="0 0 512 512" fill="#4c5467"><path d="M482 0H126c-16.542 0-30 13.458-30 30v34c0 5.522 4.477 10 10 10s10-4.478 10-10V30c0-5.514 4.486-10 10-10h356c5.514 0 10 4.486 10 10v452c0 5.514-4.486 10-10 10H126c-5.514 0-10-4.486-10-10v-32.335c0-5.522-4.477-10-10-10s-10 4.478-10 10V482c0 16.542 13.458 30 30 30h356c16.542 0 30-13.458 30-30V30c0-16.542-13.458-30-30-30z"/><path d="M433.893 386h-240c-5.523 0-10 4.478-10 10s4.477 10 10 10h240c5.523 0 10-4.478 10-10s-4.477-10-10-10zM440.96 440.93a10.054 10.054 0 0 0-7.07-2.93c-2.63 0-5.21 1.069-7.07 2.93-1.86 1.861-2.93 4.44-2.93 7.07s1.07 5.21 2.93 7.069a10.077 10.077 0 0 0 7.07 2.931c2.64 0 5.21-1.07 7.07-2.931 1.86-1.859 2.93-4.439 2.93-7.069s-1.07-5.21-2.93-7.07zM393 438H193.893c-5.523 0-10 4.478-10 10s4.477 10 10 10H393c5.523 0 10-4.478 10-10s-4.477-10-10-10zM263.977 87.767c-59.508 0-107.922 48.414-107.922 107.923-.002 30.888 13.046 58.784 33.915 78.475a9.82 9.82 0 0 0 1.155 1.075c19.212 17.609 44.797 28.371 72.851 28.371s53.638-10.763 72.851-28.371c.418-.328.8-.691 1.155-1.075 20.869-19.691 33.917-47.587 33.917-78.475 0-59.509-48.414-107.923-107.922-107.923zm-.001 195.844c-20.543 0-39.46-7.083-54.444-18.933 10.616-20.082 31.301-32.717 54.444-32.717s43.828 12.635 54.444 32.717c-14.984 11.85-33.901 18.933-54.444 18.933zm-21.049-92.698v-7.763c0-11.606 9.442-21.049 21.048-21.049 11.606 0 21.048 9.442 21.048 21.049v7.763c0 11.605-9.442 21.048-21.048 21.048s-21.048-9.442-21.048-21.048zm90.12 59.118c-9.153-14.599-22.546-25.733-38.221-32.084 6.341-7.227 10.198-16.686 10.198-27.033v-7.763c0-22.635-18.414-41.049-41.048-41.049s-41.048 18.414-41.048 41.049v7.763c0 10.347 3.857 19.806 10.198 27.033-15.675 6.352-29.068 17.485-38.221 32.084-11.801-14.967-18.851-33.846-18.851-54.341-.001-48.481 39.441-87.923 87.922-87.923 48.48 0 87.922 39.442 87.922 87.923 0 20.495-7.05 39.374-18.851 54.341z"/><path d="M263.976 40c-85.847 0-155.689 69.842-155.689 155.689 0 49.633 23.346 93.917 59.633 122.445L51.854 434.199c-7.275 7.275-19.113 7.275-26.389 0-3.524-3.524-5.465-8.21-5.465-13.194s1.941-9.67 5.466-13.194l59.36-59.36c3.905-3.905 3.905-10.237 0-14.143-3.905-3.904-10.237-3.904-14.142 0l-59.359 59.36C4.021 400.97 0 410.679 0 421.005s4.021 20.035 11.323 27.337c7.537 7.536 17.437 11.305 27.337 11.305 9.9 0 19.8-3.769 27.337-11.305l118.707-118.707c23.234 13.803 50.341 21.744 79.272 21.744 85.848 0 155.689-69.842 155.689-155.689S349.823 40 263.976 40zm0 291.378c-74.819 0-135.69-60.869-135.69-135.689C128.286 120.87 189.156 60 263.976 60s135.689 60.87 135.689 135.689-60.87 135.689-135.689 135.689z"/><path d="M116.3 302.831a10.059 10.059 0 0 0-7.07-2.931c-2.63 0-5.21 1.07-7.07 2.931a10.072 10.072 0 0 0-2.93 7.069c0 2.631 1.07 5.21 2.93 7.07 1.86 1.86 4.44 2.93 7.07 2.93 2.64-.001 5.21-1.07 7.07-2.93a10.031 10.031 0 0 0 2.93-7.07c0-2.63-1.06-5.21-2.93-7.069z"/></svg>