<svg xmlns="http://www.w3.org/2000/svg" viewBox="0 0 512.001 512.001" fill="#4c5467"><path d="M502 438h-16V217.667c0-5.523-4.478-10-10-10s-10 4.477-10 10V438H46V165.938c0-18.748 15.252-34 34-34h162.333c5.522 0 10-4.477 10-10s-4.478-10-10-10H80c-29.775 0-54 24.224-54 54V438H10c-5.522 0-10 4.478-10 10v13c0 28.121 22.879 51 51 51h410c28.121 0 51-22.879 51-51v-13c0-5.522-4.478-10-10-10zm-10 23c0 17.094-13.906 31-31 31H51c-17.094 0-31-13.906-31-31v-3h472v3z"/><path d="M424.685 0h-57.802c-48.146 0-87.314 39.169-87.314 87.315v6.366c0 26.054 10.771 50.732 29.715 68.435V187.5a9.999 9.999 0 0 0 14.254 9.05l26.019-12.23a93.679 93.679 0 0 0 23.693 3.042h51.436c48.146 0 87.315-39.169 87.315-87.315V87.315C512 39.169 472.83 0 424.685 0zM492 100.047c0 37.118-30.197 67.315-67.315 67.315h-51.436a73.693 73.693 0 0 1-21.632-3.243 10 10 0 0 0-7.187.511l-15.147 7.12v-14.121c0-2.944-1.298-5.739-3.547-7.639-16.63-14.048-26.168-34.572-26.168-56.309v-6.366c0-37.118 30.197-67.315 67.314-67.315h57.802C461.803 20 492 50.198 492 87.315v12.732z"/><path d="M395.784 88.75c-5.522 0-10 4.477-10 10v23.188c0 5.523 4.478 10 10 10s10-4.477 10-10V98.75c0-5.523-4.477-10-10-10zM402.849 53.53a10.056 10.056 0 0 0-7.069-2.93c-2.631 0-5.211 1.07-7.07 2.93a10.076 10.076 0 0 0-2.93 7.07c0 2.64 1.069 5.21 2.93 7.08a10.062 10.062 0 0 0 7.07 2.92c2.64 0 5.21-1.06 7.069-2.92a10.057 10.057 0 0 0 2.931-7.08c0-2.63-1.061-5.209-2.931-7.07zM137.043 196H98.385c-5.522 0-10 4.477-10 10s4.478 10 10 10h9.329v47.449c0 5.145-4.185 9.329-9.329 9.329s-9.328-4.185-9.328-9.329c0-5.522-4.478-10-10-10s-10 4.478-10 10c0 16.172 13.157 29.329 29.329 29.329s29.328-13.157 29.328-29.329V216h9.329c5.522 0 10-4.477 10-10s-4.478-10-10-10zM193.353 196c-26.682 0-48.389 21.708-48.389 48.389 0 26.682 21.707 48.389 48.389 48.389 26.683 0 48.39-21.707 48.39-48.389S220.036 196 193.353 196zm0 76.779c-15.653 0-28.389-12.735-28.389-28.389s12.735-28.389 28.389-28.389 28.39 12.735 28.39 28.389-12.735 28.389-28.39 28.389zM314.043 226c0-16.542-13.458-30-30-30h-18.658c-5.522 0-10 4.477-10 10v80c0 5.522 4.477 10 10 10h18.658c16.542 0 30-13.458 30-30 0-7.678-2.902-14.688-7.664-20 4.761-5.312 7.664-12.322 7.664-20zm-30 50h-8.658v-20h8.658c5.514 0 10 4.486 10 10s-4.486 10-10 10zm0-40h-8.658v-20h8.658c5.514 0 10 4.486 10 10s-4.486 10-10 10zM304.943 325.918H117.714c-5.522 0-10 4.478-10 10s4.478 10 10 10h187.229c5.522 0 10-4.478 10-10s-4.477-10-10-10zM86.129 328.85a10.033 10.033 0 0 0-7.07-2.93 10.056 10.056 0 0 0-7.08 2.93 10.054 10.054 0 0 0-2.92 7.07c0 2.63 1.061 5.21 2.92 7.07a10.103 10.103 0 0 0 7.08 2.93c2.63 0 5.21-1.07 7.07-2.93 1.86-1.87 2.93-4.44 2.93-7.07s-1.069-5.209-2.93-7.07zM432.944 325.918h-77.055c-5.522 0-10 4.478-10 10s4.477 10 10 10h77.055c5.522 0 10-4.478 10-10s-4.478-10-10-10zM304.944 374H79.057c-5.522 0-10 4.478-10 10s4.477 10 10 10h225.887c5.522 0 10-4.478 10-10s-4.478-10-10-10zM432.944 374h-77.055c-5.522 0-10 4.478-10 10s4.477 10 10 10h77.055c5.522 0 10-4.478 10-10s-4.478-10-10-10z"/></svg>