<svg xmlns="http://www.w3.org/2000/svg" viewBox="0 0 512.001 512.001" fill="#4c5467"><path d="M236.07 356.899a10.02 10.02 0 0 0-7.07-2.93c-2.63 0-5.21 1.061-7.07 2.93a10.06 10.06 0 0 0-2.93 7.07c0 2.63 1.07 5.21 2.93 7.07 1.86 1.859 4.44 2.93 7.07 2.93s5.21-1.07 7.07-2.93 2.93-4.44 2.93-7.07c0-2.639-1.07-5.209-2.93-7.07zM430.195 53.996H328.5c-5.523 0-10 4.478-10 10s4.477 10 10 10h101.695c4.304 0 7.805 3.479 7.805 7.754V157c0 5.522 4.477 10 10 10s10-4.478 10-10V81.75c0-15.304-12.472-27.754-27.805-27.754zM299.07 56.92C297.21 55.06 294.63 54 292 54s-5.21 1.06-7.07 2.92A10.097 10.097 0 0 0 282 64c0 2.63 1.07 5.21 2.93 7.069C286.791 72.93 289.37 74 292 74s5.21-1.07 7.07-2.931A10.072 10.072 0 0 0 302 64c0-2.641-1.07-5.21-2.93-7.08z"/><path d="M427.057 322.305c12.735-12.479 20.656-29.853 20.656-49.048V200c0-5.522-4.477-10-10-10h-72.726c-30.161 0-54.698 24.537-54.698 54.697v28.56c0 19.026 7.777 36.268 20.315 48.723H266v-20.376c0-38.026-28.594-69.479-65.405-74.04 7.275-8.978 11.645-20.401 11.645-32.83v-41.042c0-.399-.03-.79-.075-1.177.045-.717.075-1.437.075-2.165v-25.966c0-5.522-4.477-10-10-10h-52.322c-23.246 0-42.157 18.912-42.157 42.157v38.193c0 12.429 4.37 23.852 11.645 32.83C82.594 232.125 54 263.577 54 301.604v20.376H20V81.75c0-4.275 3.501-7.754 7.805-7.754h11.862c5.523 0 10-4.478 10-10s-4.477-10-10-10H27.805C12.474 53.996 0 66.446 0 81.75v296.476c0 15.304 12.473 27.754 27.805 27.754h152.174v46.215C154.753 454.75 135 476.112 135 502.001c0 5.522 4.477 10 10 10h357c5.523 0 10-4.478 10-10v-87.224c0-48.526-37.437-88.466-84.943-92.472zm-96.768-49.048v-28.56c0-19.132 15.565-34.697 34.698-34.697h62.726v63.257c0 26.859-21.852 48.712-48.712 48.712-26.86 0-48.712-21.853-48.712-48.712zM127.76 156.541c0-12.218 9.939-22.157 22.157-22.157h42.322v15.966c0 7.932-6.453 14.385-14.385 14.385H127.76v-8.194zm0 28.193h50.094a34.175 34.175 0 0 0 14.385-3.165v13.164h.001c0 17.776-14.463 32.239-32.24 32.239s-32.24-14.463-32.24-32.239v-9.999zm43.909 62.239L160 258.642l-11.669-11.669h23.338zM74 301.604c0-27.408 20.29-50.16 46.636-54.04l32.292 32.292c1.953 1.952 4.512 2.929 7.071 2.929s5.119-.977 7.071-2.929l32.292-32.292c26.346 3.88 46.636 26.632 46.636 54.04v20.376H74v-20.376zM246 492h-89.292c4.13-11.676 15.28-20.062 28.353-20.062H246V492zm0-77.224v37.161h-46.021v-45.958h46.441a93.379 93.379 0 0 0-.42 8.797zM27.805 385.98c-4.304-.001-7.805-3.479-7.805-7.754V341.98h261.307c-14.165 11.213-24.991 26.465-30.728 44H27.805zM492 451.937h-76.5c-5.523 0-10 4.478-10 10s4.477 10 10 10H492V492H266v-77.224c0-40.005 32.433-72.567 72.384-72.797H368c.072 0 .141-.009.213-.011h50.979c40.146 0 72.808 32.661 72.808 72.808v37.161zM160.203 0c-5.523 0-10 4.478-10 10v54c0 5.522 4.477 10 10 10s10-4.478 10-10V10c0-5.522-4.476-10-10-10zM244.979 39.226c-3.905-3.904-10.237-3.904-14.143 0L213.26 56.803c-3.905 3.905-3.905 10.237 0 14.143a9.976 9.976 0 0 0 7.072 2.928 9.97 9.97 0 0 0 7.071-2.929l17.576-17.576c3.906-3.905 3.906-10.237 0-14.143z"/><path d="M106.909 56.923L89.164 39.179c-3.906-3.903-10.237-3.904-14.142 0-3.905 3.905-3.906 10.237 0 14.143l17.744 17.744a9.972 9.972 0 0 0 7.071 2.929 9.97 9.97 0 0 0 7.071-2.929c3.905-3.905 3.907-10.237.001-14.143zM386.07 454.87c-1.86-1.87-4.44-2.931-7.07-2.931s-5.21 1.061-7.07 2.931a10.056 10.056 0 0 0-2.93 7.069c0 2.63 1.07 5.21 2.93 7.07s4.44 2.93 7.07 2.93 5.21-1.069 7.07-2.93a10.077 10.077 0 0 0 2.93-7.07c0-2.64-1.07-5.21-2.93-7.069z"/></svg>