<svg viewBox="0 0 54 44" fill="none" xmlns="http://www.w3.org/2000/svg"><path d="M53.3852 34.9699C53.709 35.2491 53.709 35.7509 53.3852 36.0301L47.6245 40.9974C47.1709 41.3886 46.4674 41.0663 46.4674 40.4673L46.4674 30.5327C46.4674 29.9337 47.1709 29.6114 47.6245 30.0026L53.3852 34.9699Z" fill="#FF7067"/><rect x="33" y="33" width="14" height="5" fill="#FF7067"/><path fill-rule="evenodd" clip-rule="evenodd" d="M40.4516 3.54839H38.3226V2.12903C38.3226 0.955015 37.3676 0 36.1935 0C35.0195 0 34.0645 0.955015 34.0645 2.12903V3.54839H24.129V2.12903C24.129 0.955015 23.174 0 22 0C20.826 0 19.871 0.955015 19.871 2.12903V3.54839H9.93548V2.12903C9.93548 0.955015 8.98047 0 7.80645 0C6.63243 0 5.67742 0.955015 5.67742 2.12903V3.54839H3.54839C1.59192 3.54839 0 5.14031 0 7.09677V40.4516C0 42.4081 1.59192 44 3.54839 44H40.4516C42.2216 44 43.6932 42.6971 43.9577 41H42.5091C42.2666 41.9091 41.4361 42.5806 40.4516 42.5806H3.54839C2.37437 42.5806 1.41935 41.6256 1.41935 40.4516V12.7742H42.5806V30H44V7.09677C44 5.14031 42.4081 3.54839 40.4516 3.54839ZM35.4839 2.12903C35.4839 1.73781 35.802 1.41935 36.1935 1.41935C36.5851 1.41935 36.9032 1.73781 36.9032 2.12903V6.3871C36.9032 6.77832 36.5851 7.09677 36.1935 7.09677C35.802 7.09677 35.4839 6.77832 35.4839 6.3871V2.12903ZM21.2903 2.12903C21.2903 1.73781 21.6084 1.41935 22 1.41935C22.3916 1.41935 22.7097 1.73781 22.7097 2.12903V6.3871C22.7097 6.77832 22.3916 7.09677 22 7.09677C21.6084 7.09677 21.2903 6.77832 21.2903 6.3871V2.12903ZM7.09677 2.12903C7.09677 1.73781 7.41488 1.41935 7.80645 1.41935C8.19802 1.41935 8.51613 1.73781 8.51613 2.12903V6.3871C8.51613 6.77832 8.19802 7.09677 7.80645 7.09677C7.41488 7.09677 7.09677 6.77832 7.09677 6.3871V2.12903ZM3.54839 4.96774H5.67742V6.3871C5.67742 7.56111 6.63243 8.51613 7.80645 8.51613C8.98047 8.51613 9.93548 7.56111 9.93548 6.3871V4.96774H19.871V6.3871C19.871 7.56111 20.826 8.51613 22 8.51613C23.174 8.51613 24.129 7.56111 24.129 6.3871V4.96774H34.0645V6.3871C34.0645 7.56111 35.0195 8.51613 36.1935 8.51613C37.3676 8.51613 38.3226 7.56111 38.3226 6.3871V4.96774H40.4516C41.6256 4.96774 42.5806 5.92276 42.5806 7.09677V11.3548H1.41935V7.09677C1.41935 5.92276 2.37437 4.96774 3.54839 4.96774ZM18.4516 17.0323C18.0593 17.0323 17.7419 17.35 17.7419 17.7419V24.8387C17.7419 25.2306 18.0593 25.5484 18.4516 25.5484H25.5484C25.9406 25.5484 26.2581 25.2306 26.2581 24.8387V17.7419C26.2581 17.35 25.9406 17.0323 25.5484 17.0323H18.4516ZM19.1613 24.129V18.4516H24.8387V24.129H19.1613ZM6.3871 17.0323C5.99483 17.0323 5.67742 17.35 5.67742 17.7419V24.8387C5.67742 25.2306 5.99483 25.5484 6.3871 25.5484H13.4839C13.8761 25.5484 14.1935 25.2306 14.1935 24.8387V17.7419C14.1935 17.35 13.8761 17.0323 13.4839 17.0323H6.3871ZM7.09677 24.129V18.4516H12.7742V24.129H7.09677ZM30.5161 17.0323C30.1239 17.0323 29.8064 17.35 29.8064 17.7419V24.8387C29.8064 25.2306 30.1239 25.5484 30.5161 25.5484H37.6129C38.0052 25.5484 38.3226 25.2306 38.3226 24.8387V17.7419C38.3226 17.35 38.0052 17.0323 37.6129 17.0323H30.5161ZM31.2258 24.129V18.4516H36.9032V24.129H31.2258ZM18.4516 29.8064C18.0593 29.8064 17.7419 30.1242 17.7419 30.5161V37.6129C17.7419 38.0048 18.0593 38.3226 18.4516 38.3226H25.5484C25.9406 38.3226 26.2581 38.0048 26.2581 37.6129V30.5161C26.2581 30.1242 25.9406 29.8064 25.5484 29.8064H18.4516ZM19.1613 36.9032V31.2258H24.8387V36.9032H19.1613ZM6.3871 29.8064C5.99483 29.8064 5.67742 30.1242 5.67742 30.5161V37.6129C5.67742 38.0048 5.99483 38.3226 6.3871 38.3226H13.4839C13.8761 38.3226 14.1935 38.0048 14.1935 37.6129V30.5161C14.1935 30.1242 13.8761 29.8064 13.4839 29.8064H6.3871ZM7.09677 36.9032V31.2258H12.7742V36.9032H7.09677ZM30.5161 29.8064C30.1239 29.8064 29.8064 30.1242 29.8064 30.5161V37.6129C29.8064 38.0048 30.1239 38.3226 30.5161 38.3226H32V36.9032H31.2258V31.2258H36.9032V32H38.3226V30.5161C38.3226 30.1242 38.0052 29.8064 37.6129 29.8064H30.5161Z" fill="#4E6896"/></svg>