<svg viewBox="0 0 95 90" fill="none" xmlns="http://www.w3.org/2000/svg"><path d="M65.5 8.77734H24.6826V14.7773H65.5V8.77734Z" fill="#4E6896"/><path d="M80.916 8.77734H70.5V14.7773H80.916C81.7337 14.7784 82.5176 15.1037 83.0957 15.682C83.6739 16.2602 83.9991 17.0441 84 17.8618V30H6V17.8618C6.00098 17.044 6.32634 16.2599 6.9047 15.6817C7.48305 15.1034 8.26716 14.7782 9.085 14.7773H19.5V8.77734H9.085C6.67639 8.77993 4.36717 9.73785 2.66398 11.4409C0.960782 13.144 0.00272376 15.4532 0 17.8618V80.9155C0.00272376 83.3241 0.960782 85.6333 2.66398 87.3364C4.36717 89.0395 6.67639 89.9974 9.085 90H80.916C83.3245 89.9972 85.6335 89.0392 87.3364 87.3361C89.0394 85.633 89.9973 83.324 90 80.9155V17.8618C89.9973 15.4534 89.0394 13.1443 87.3364 11.4412C85.6335 9.73816 83.3245 8.78014 80.916 8.77734ZM84 80.9155C83.9991 81.7332 83.6739 82.5171 83.0957 83.0954C82.5176 83.6736 81.7337 83.9989 80.916 84H9.085C8.26716 83.9992 7.48305 83.6739 6.9047 83.0957C6.32635 82.5174 6.00099 81.7334 6 80.9155V36H84V80.9155Z" fill="#4E6896"/><path d="M22 23.5557C22.7956 23.5557 23.5587 23.2396 24.1213 22.677C24.6839 22.1144 25 21.3513 25 20.5557V3C25 2.20435 24.6839 1.44129 24.1213 0.878679C23.5587 0.31607 22.7956 0 22 0C21.2044 0 20.4413 0.31607 19.8787 0.878679C19.3161 1.44129 19 2.20435 19 3V20.5557C19 21.3513 19.3161 22.1144 19.8787 22.677C20.4413 23.2396 21.2044 23.5557 22 23.5557V23.5557Z" fill="#FF7067"/><rect x="61" y="40" width="16" height="16" rx="2" fill="#4E6896"/><rect x="64" y="43" width="10" height="10" fill="#FFFFFE"/><rect x="37" y="40" width="16" height="16" rx="2" fill="#4E6896"/><rect x="40" y="43" width="10" height="10" fill="#FFFFFE"/><rect x="13" y="40" width="16" height="16" rx="2" fill="#4E6896"/><rect x="16" y="43" width="10" height="10" fill="#FFFFFE"/><rect x="37" y="64" width="16" height="16" rx="2" fill="#4E6896"/><rect x="40" y="67" width="10" height="10" fill="#FFFFFE"/><rect x="13" y="64" width="16" height="16" rx="2" fill="#4E6896"/><rect x="16" y="67" width="10" height="10" fill="#FFFFFE"/><path d="M68 23.5557C68.7956 23.5557 69.5587 23.2396 70.1213 22.677C70.6839 22.1144 71 21.3513 71 20.5557V3C71 2.20435 70.6839 1.44129 70.1213 0.878679C69.5587 0.31607 68.7956 0 68 0C67.2044 0 66.4413 0.31607 65.8787 0.878679C65.3161 1.44129 65 2.20435 65 3V20.5557C65 21.3513 65.3161 22.1144 65.8787 22.677C66.4413 23.2396 67.2044 23.5557 68 23.5557V23.5557Z" fill="#FF7067"/><rect x="84" y="62" width="6" height="24" fill="white"/><rect x="90" y="83" width="7" height="10" transform="rotate(90 90 83)" fill="white"/><path d="M93.9614 73.9912C94.2538 74.2674 94.2538 74.7326 93.9614 75.0088L83.3057 85.0759C82.8593 85.4976 82.125 85.1811 82.125 84.567L82.125 64.433C82.125 63.8189 82.8593 63.5024 83.3057 63.9241L93.9614 73.9912Z" fill="#FF7067"/><rect x="60" y="70" width="22.5" height="9" fill="#FF7067"/></svg>