<svg fill="none" xmlns="http://www.w3.org/2000/svg" viewBox="0 0 52 52"><path d="M7.662 14.738c-.13 0-.246-.02-.364-.035a2.09 2.09 0 01-1.298.74v28.593a3.804 3.804 0 003.8 3.801H27v-1.9H9.8c-1.048 0-1.9-.852-1.9-1.9V14.714c-.08.005-.153.024-.238.024zM37.2 4.918c1.047 0 1.9.851 1.9 1.9V30H41V6.819a3.805 3.805 0 00-3.8-3.801H16.763c-.023.742-.344 1.469-.963 1.9h21.398z" fill="#4E6896"/><path d="M7.356 16.42c.004 0 .011.002.019 0h9.67a.96.96 0 00.968-.95V3.95a.949.949 0 00-.64-.893.975.975 0 00-1.075.29l-9.57 11.4a.936.936 0 00-.338.724.954.954 0 00.966.95zm8.72-1.9H9.424l6.652-7.925v7.925z" fill="#4E6896"/><path fill-rule="evenodd" clip-rule="evenodd" d="M45 37.837v3.405l-1.663.87-.475 1.109.555 1.82-2.375 2.376-1.9-.555-1.109.475-.87 1.663h-3.405l-.87-1.663-1.109-.475-1.82.555-2.376-2.375.555-1.9-.476-1.109-1.662-.87v-3.405l1.663-.87.474-1.109-.554-1.82 2.375-2.376 1.9.555 1.109-.475.87-1.663h3.405l.87 1.663 1.109.475 1.82-.555 2.376 2.375-.555 1.9.475 1.109 1.663.87zm-3.8 5.305l.87-2.138 1.347-.712v-1.584l-1.267-.633-.87-2.138.395-1.424-1.108-1.109-1.425.396-2.138-.87-.712-1.347h-1.584l-.633 1.267-2.138.87-1.425-.395-1.108 1.108.396 1.425-.87 2.138-1.347.712v1.584l1.267.633.87 2.138-.395 1.424 1.108 1.109 1.425-.396 2.138.87.712 1.347h1.584l.633-1.267 2.138-.87 1.424.395 1.109-1.108-.396-1.425zM31.937 39.5a3.548 3.548 0 013.563-3.563 3.548 3.548 0 013.563 3.563 3.548 3.548 0 01-3.563 3.563 3.548 3.548 0 01-3.563-3.563zm1.584 0c0 1.108.87 1.98 1.979 1.98a1.96 1.96 0 001.98-1.98 1.96 1.96 0 00-1.98-1.98 1.96 1.96 0 00-1.98 1.98z" fill="#FF7067"/><path d="M30.906 19H16.094C15.49 19 15 19.56 15 20.25s.49 1.25 1.094 1.25h14.812c.604 0 1.094-.56 1.094-1.25S31.51 19 30.906 19zm0 6.5H16.094c-.604 0-1.094.56-1.094 1.25S15.49 28 16.094 28h14.812C31.51 28 32 27.44 32 26.75s-.49-1.25-1.094-1.25z" fill="#FF7067"/></svg>