<svg fill="none" xmlns="http://www.w3.org/2000/svg" viewBox="0 0 52 52"><path d="M34.851 2H4.15C1.86 2 0 3.792 0 5.995v40.353c0 2.203 1.861 3.995 4.149 3.995H34.85c2.288 0 4.149-1.792 4.149-3.995V5.995C39 3.792 37.139 2 34.851 2zm-7.675 45.147H11.824v-5.993c0-.66.558-1.198 1.244-1.198H25.93c.686 0 1.244.537 1.244 1.198v5.993zm8.505-.799c0 .441-.372.8-.83.8h-5.186v-5.994c0-1.982-1.675-3.596-3.734-3.596H13.069c-2.059 0-3.734 1.614-3.734 3.596v5.993H4.15c-.458 0-.83-.358-.83-.799V5.995c0-.44.372-.799.83-.799h30.7c.458 0 .83.358.83.8v40.352z" fill="#4E6896"/><path d="M13 10.702H9v3.868h4v-3.868zm8 0h-4v3.868h4v-3.868zm8 0h-4v3.868h4v-3.868zm-16 5.801H9v3.867h4v-3.867zm8 0h-4v3.867h4v-3.867zm8 0h-4v3.867h4v-3.867zm-16 6.768H9v2.901h4v-2.9zm8 0h-4v2.901h4v-2.9zm8 0h-4v2.901h4v-2.9zm-16 5.801H9v3.868h4v-3.868zm8 0h-4v3.868h4v-3.868zm8 0h-4v3.868h4v-3.868zm15.566 5.026a.751.751 0 00-.47-.191.615.615 0 00-.454.173.593.593 0 00-.177.444v3.68H30v4.94h13.467v3.68a.61.61 0 00.185.437.635.635 0 00.445.181.625.625 0 00.45-.183l6.277-6.143a.645.645 0 000-.885l-6.258-6.133z" fill="#FF7067"/></svg>