<svg width="39" height="48" viewBox="0 0 39 48" fill="none" xmlns="http://www.w3.org/2000/svg">
<path d="M35.9531 0H3.04687C1.36683 0 0 1.36683 0 3.04688V13C0 13.5609 0.454797 14 1.01562 14C1.57645 14 2.03125 13.5609 2.03125 13V3.04688C2.03125 2.48686 2.48686 2.03125 3.04687 2.03125H35.9531C36.5131 2.03125 36.9688 2.48686 36.9688 3.04688V44.9531C36.9688 45.5131 36.5131 45.9688 35.9531 45.9688H3.04687C2.48686 45.9688 2.03125 45.5131 2.03125 44.9531V21.9713C2.03125 21.4104 1.57645 20.9557 1.01562 20.9557C0.454797 20.9557 0 21.4104 0 21.9713V44.9531C0 46.6332 1.36683 48 3.04687 48H35.9531C37.6332 48 39 46.6332 39 44.9531V3.04688C39 1.36683 37.6332 0 35.9531 0Z" fill="#4E6896"/>
<path d="M1.06152 16C1.32863 16 1.59066 16.1077 1.77947 16.2966C1.96837 16.4865 2.07715 16.7475 2.07715 17.0146C2.07647 17.2841 1.9695 17.5425 1.77947 17.7337C1.59056 17.9226 1.32853 18.0312 1.06152 18.0312C0.794414 18.0312 0.532383 17.9226 0.343477 17.7337C0.153686 17.5424 0.0467923 17.2841 0.0458984 17.0146C0.0471348 16.7455 0.153997 16.4877 0.343477 16.2966C0.532383 16.1077 0.794414 16 1.06152 16Z" fill="#4E6896"/>
<path d="M14.1254 34.2974C13.7287 33.9009 13.0858 33.9008 12.689 34.2974L9.98916 36.9972L8.73385 35.7418C8.33725 35.3452 7.69436 35.3453 7.29745 35.7418C6.90085 36.1384 6.90085 36.7815 7.29745 37.1781L9.27101 39.1517C9.46152 39.3421 9.71986 39.4491 9.98921 39.4491C10.2586 39.4491 10.5169 39.3421 10.7074 39.1517L14.1254 35.7337C14.522 35.3371 14.522 34.694 14.1254 34.2974Z" fill="#4E6896"/>
<path d="M14.185 26.2974C13.7883 25.9009 13.1454 25.9008 12.7486 26.2974L10.0487 28.9972L8.79342 27.7418C8.39682 27.3452 7.75393 27.3453 7.35702 27.7418C6.96042 28.1384 6.96042 28.7815 7.35702 29.1781L9.33058 31.1517C9.52109 31.3421 9.77943 31.4491 10.0488 31.4491C10.3181 31.4491 10.5765 31.3421 10.767 31.1517L14.185 27.7337C14.5816 27.3371 14.5816 26.694 14.185 26.2974Z" fill="#4E6896"/>
<path d="M31.9756 27H20.0244C19.4587 27 19 27.4477 19 28C19 28.5523 19.4587 29 20.0244 29H31.9756C32.5413 29 33 28.5523 33 28C33 27.4477 32.5413 27 31.9756 27Z" fill="#FF7067"/>
<path d="M31.9756 36H20.0244C19.4587 36 19 36.4477 19 37C19 37.5523 19.4587 38 20.0244 38H31.9756C32.5413 38 33 37.5523 33 37C33 36.4477 32.5413 36 31.9756 36Z" fill="#FF7067"/>
<rect x="7" y="17" width="26" height="2" rx="1" fill="#FF7067"/>
<rect x="7" y="11" width="26" height="2" rx="1" fill="#FF7067"/>
<rect x="7" y="5" width="26" height="2" rx="1" fill="#FF7067"/>
</svg>
