<svg width="38" height="38" viewBox="0 0 38 38" fill="none" xmlns="http://www.w3.org/2000/svg">
    <path fill-rule="evenodd" clip-rule="evenodd" d="M11.875 19C11.875 15.0417 15.0417 11.875 19 11.875C22.9583 11.875 26.125 15.0417 26.125 19C26.125 22.9583 22.9583 26.125 19 26.125C15.0417 26.125 11.875 22.9583 11.875 19ZM16 19C16 20.68 17.32 22 19 22C20.68 22 22 20.68 22 19C22 17.32 20.68 16 19 16C17.32 16 16 17.32 16 19Z" fill="#FF7067"/>
    <path fill-rule="evenodd" clip-rule="evenodd" d="M38 15.675V22.4833L34.675 24.225L33.725 26.4417L34.8333 30.0833L30.0833 34.8333L26.2833 33.725L24.0667 34.675L22.325 38H15.5167L13.775 34.675L11.5583 33.725L7.91667 34.8333L3.16667 30.0833L4.275 26.2833L3.325 24.0667L0 22.325V15.5167L3.325 13.775L4.275 11.5583L3.16667 7.91667L7.91667 3.16667L11.7167 4.275L13.9333 3.325L15.675 0H22.4833L24.225 3.325L26.4417 4.275L30.0833 3.16667L34.8333 7.91667L33.725 11.7167L34.675 13.9333L38 15.675ZM29.8 25.9L31.45 21.85L34 20.5V17.5L31.6 16.3L29.95 12.25L30.7 9.55L28.6 7.45L25.9 8.2L21.85 6.55L20.5 4H17.5L16.3 6.4L12.25 8.05L9.55 7.3L7.45 9.4L8.2 12.1L6.55 16.15L4 17.5V20.5L6.4 21.7L8.05 25.75L7.3 28.45L9.4 30.55L12.1 29.8L16.15 31.45L17.5 34H20.5L21.7 31.6L25.75 29.95L28.45 30.7L30.55 28.6L29.8 25.9Z" fill="#4E6896"/>
</svg>
