<svg fill="none" xmlns="http://www.w3.org/2000/svg" viewBox="0 0 52 52"><path d="M5 21.65v9.307c0 2.52 2.12 4.568 4.725 4.568h6.737v6.515c0 2.519 2.12 4.569 4.725 4.569h9.625c2.605 0 4.725-2.05 4.725-4.569v-6.515h6.738c2.605 0 4.725-2.049 4.725-4.568V21.65c0-2.519-2.12-4.568-4.725-4.568h-6.738v-6.514c0-2.52-2.12-4.568-4.725-4.568h-9.625c-2.605 0-4.725 2.049-4.725 4.568v6.514H9.725C7.119 17.082 5 19.131 5 21.65zm2.45 0c0-1.213 1.02-2.2 2.275-2.2h20.913v-2.368H18.911v-6.514c0-1.213 1.02-2.2 2.275-2.2h9.625c1.254 0 2.275.987 2.275 2.2v20.22h2.45V19.451h6.738c1.254 0 2.274.987 2.274 2.2v9.306c0 1.213-1.02 2.2-2.274 2.2H21.362v2.368h11.725v6.515c0 1.213-1.02 2.2-2.275 2.2h-9.625c-1.255 0-2.276-.987-2.276-2.2V21.82h-2.45v11.337H9.726c-1.255 0-2.275-.987-2.275-2.2V21.65z" fill="#4E6896"/><path d="M16 42.04V21.82h2.568v20.22c0 1.213 1.07 2.2 2.386 2.2h10.092c1.316 0 2.386-.987 2.386-2.2v-6.515H36v6.515c0 2.519-2.222 4.569-4.954 4.569H20.955c-2.731 0-4.954-2.05-4.954-4.569zm20-31.472v20.22h-2.568v-20.22c0-1.213-1.07-2.2-2.386-2.2H20.955c-1.316 0-2.386.987-2.386 2.2v6.514H16v-6.514C16 8.048 18.223 6 20.954 6h10.092C33.778 6 36 8.049 36 10.568z" fill="#FF7067"/></svg>