<svg fill="none" xmlns="http://www.w3.org/2000/svg" viewBox="0 0 52 52"><path d="M48.847 9.44l-2.3-3.067a.794.794 0 00-1.227 0l-2.3 3.067a.766.766 0 00-.153.46v36.033a3.067 3.067 0 106.133 0V9.9a.767.767 0 00-.153-.46zm-1.38 36.493a1.533 1.533 0 11-3.067 0V44.4h3.067v1.533zm0-3.066H44.4v-1.534h3.067v1.534zm0-3.067H44.4V12.2h3.067v27.6zm0-29.133H44.4v-.512l1.533-2.044 1.534 2.044v.512zM40.57 3H6.833a.767.767 0 00-.766.767v13.11A3.84 3.84 0 003 20.633v24.534A3.838 3.838 0 006.833 49h27.6a.77.77 0 00.542-.225l6.134-6.133a.764.764 0 00.153-.225c.01-.023.017-.046.025-.07a.767.767 0 00.04-.2c0-.016.01-.03.01-.047V3.767A.767.767 0 0040.57 3zM26 45.167a2.3 2.3 0 01-2.3 2.3H6.833a2.3 2.3 0 01-2.3-2.3V20.633a2.3 2.3 0 012.3-2.3H23.7a2.3 2.3 0 012.3 2.3v24.534zM16.033 12.2v4.6h-5.366v-4.6h5.366zm-5.366-1.533V7.6h5.366v3.067h-5.366zM22.933 12.2v4.6h-5.366v-4.6h5.366zm-5.366-1.533V7.6h5.366v3.067h-5.366zm6.9 6.21V12.2h5.366v10.733h-2.3v-2.3a3.84 3.84 0 00-3.066-3.756zm0-6.21V7.6h5.366v3.067h-5.366zM35.2 46.383v-3.516h3.516L35.2 46.383zm4.6-5.05h-5.367a.767.767 0 00-.766.767v5.367h-6.92c.507-.66.784-1.468.786-2.3v-20.7H37.5a.767.767 0 00.767-.767V6.833a.767.767 0 00-.767-.766H9.9a.767.767 0 00-.767.766V16.8H7.6V4.533h32.2v36.8zM36.733 12.2v10.733h-5.366V12.2h5.366zm-5.366-1.533V7.6h5.366v3.067h-5.366z" fill="#4E6896"/><path d="M23.7 20.634H6.833a.767.767 0 00-.767.767V26c0 .423.344.766.767.766H23.7a.767.767 0 00.767-.767v-4.6a.767.767 0 00-.767-.766zm-.767 4.6H7.6v-3.067h15.333v3.067zm1.534 9.2h-4.6a.767.767 0 00-.767.767v9.2c0 .423.343.766.766.766h4.6a.767.767 0 00.767-.767v-9.2a.767.767 0 00-.767-.766zm-.767 9.2h-3.067v-7.667H23.7v7.667zm.767-15.334h-4.6a.767.767 0 00-.767.767v3.067c0 .423.343.767.766.767h4.6a.767.767 0 00.767-.767v-3.067a.767.767 0 00-.767-.767zm-.767 3.067h-3.067v-1.533H23.7v1.533zm-6.133 3.067h-4.6a.767.767 0 00-.767.767v3.066c0 .423.343.767.767.767h4.6a.767.767 0 00.766-.767V35.2a.767.767 0 00-.766-.766zM16.8 37.5h-3.067v-1.534H16.8V37.5zm.767-9.2h-4.6a.767.767 0 00-.767.766v3.067c0 .423.343.767.767.767h4.6a.767.767 0 00.766-.767v-3.067a.767.767 0 00-.766-.767zm-.767 3.066h-3.067v-1.533H16.8v1.533zm-6.134 3.067h-4.6a.767.767 0 00-.766.767v3.066c0 .423.343.767.766.767h4.6a.767.767 0 00.767-.767V35.2a.767.767 0 00-.767-.766zM9.9 37.5H6.833v-1.534H9.9V37.5zm.766-9.2h-4.6a.767.767 0 00-.766.766v3.067c0 .423.343.767.766.767h4.6a.767.767 0 00.767-.767v-3.067a.767.767 0 00-.767-.767zM9.9 31.366H6.833v-1.533H9.9v1.533zm7.667 9.2h-4.6a.767.767 0 00-.767.767V44.4c0 .424.343.767.767.767h4.6a.767.767 0 00.766-.767v-3.066a.767.767 0 00-.766-.767zm-.767 3.067h-3.067V42.1H16.8v1.534zm-6.134-3.067h-4.6a.767.767 0 00-.766.767V44.4c0 .424.343.767.766.767h4.6a.767.767 0 00.767-.767v-3.066a.767.767 0 00-.767-.767zM9.9 43.634H6.833V42.1H9.9v1.534z" fill="#FF7067"/></svg>