<svg viewBox="0 0 53 52" fill="none" xmlns="http://www.w3.org/2000/svg"><path fill-rule="evenodd" clip-rule="evenodd" d="M43.7595 15.6394L47.1603 7.67589C47.2497 7.46644 47.2599 7.2318 47.1888 7.01548C47.1177 6.79917 46.9703 6.61587 46.7738 6.49957L45.105 5.51189C43.7967 4.73739 42.1257 4.86133 40.9469 5.81986L40.6893 6.02929C40.0488 6.55035 39.1191 6.55035 38.4779 6.02891L38.4676 6.02054C37.1325 4.93487 35.1958 4.93647 33.8625 6.02468C33.2216 6.54781 32.2907 6.54838 31.6491 6.02656L31.3874 5.81366C30.2143 4.85945 28.5489 4.73222 27.2433 5.49712L25.5299 6.50089C25.3318 6.6169 25.183 6.80084 25.1114 7.01824C25.0398 7.23565 25.0502 7.47161 25.1407 7.68191L28.5628 15.6327C26.0874 16.5228 23.5267 18.9695 22.1409 21.2059C21.8669 21.6478 22.0047 22.2273 22.4485 22.5C22.8924 22.7726 23.4742 22.6354 23.7482 22.1934C24.9388 20.2737 27.2092 18.0799 29.3523 17.3471H42.9478C46.9089 18.698 49.5598 22.3838 49.5598 26.5646V29.0596C49.5598 29.5789 49.9826 30 50.5042 30C51.0258 30 51.4485 29.5789 51.4485 29.0596V26.5646C51.4485 21.6474 48.3743 17.3058 43.7595 15.6394ZM41.7809 15.4663H30.5458L27.2039 7.70204L28.2009 7.11815C28.8282 6.75046 29.6287 6.81168 30.1925 7.27031L30.4542 7.48312C31.7894 8.56916 33.7262 8.56756 35.0598 7.47926C35.7005 6.95622 36.6313 6.95556 37.2735 7.47776L37.2838 7.48612C38.6166 8.56992 40.5512 8.56992 41.8839 7.48594L42.1414 7.27651C42.7079 6.81591 43.5109 6.75639 44.1398 7.1285L45.0991 7.6963L41.7809 15.4663Z" fill="#FF7067"/><path d="M50.4485 34C51.0008 34 51.4485 33.5523 51.4485 33C51.4485 32.4477 51.0008 32 50.4485 32C49.8963 32 49.4485 32.4477 49.4485 33C49.4485 33.5523 49.8963 34 50.4485 34Z" fill="#FF7067"/><path d="M43.9439 24.583C43.3931 24.583 42.9419 24.7471 42.5904 25.0752C42.2427 25.4033 42.0103 25.8994 41.8931 26.5635H44.4485C44.4485 26.5635 45.015 26.5322 45.015 26.999C45.015 27.4658 44.4485 27.4658 44.4485 27.4658H41.8052L41.7935 27.7295V28.0518L41.8052 28.2803H44.1082C44.1082 28.2803 44.6743 28.2803 44.6743 28.7285C44.6743 29.1768 44.1082 29.1768 44.1082 29.1768H41.9048C42.1548 30.3955 42.8658 31.0049 44.0376 31.0049C44.3364 31.0049 44.5427 31.0129 44.723 31.0052C45.1199 30.9885 45.5284 31.2463 45.5284 31.6435C45.5284 31.8604 45.4055 32.0673 45.1969 32.1265C44.8801 32.2165 44.6078 32.1885 43.9673 32.1885C43.0259 32.1885 42.2603 31.9307 41.6705 31.415C41.0845 30.8994 40.7017 30.1533 40.522 29.1768H39.6314C39.6314 29.1768 39.228 29.1768 39.228 28.7285C39.228 28.2803 39.6314 28.2803 39.6314 28.2803H40.4283L40.4166 28.0635V27.8467L40.4283 27.4658H39.6314C39.6314 27.4658 39.1282 27.4658 39.1282 26.999C39.1282 26.5322 39.6314 26.5635 39.6314 26.5635H40.5103C40.6587 25.583 41.0318 24.8135 41.6294 24.2549C42.2271 23.6963 42.9986 23.417 43.9439 23.417C44.5099 23.417 44.98 23.4918 45.4308 23.6638C45.7288 23.7775 45.8404 24.1267 45.7097 24.4177C45.567 24.7353 45.1917 24.863 44.8632 24.7478C44.5349 24.6327 44.2466 24.583 43.9439 24.583Z" fill="#FF7067"/><path fill-rule="evenodd" clip-rule="evenodd" d="M1 23.3012C1 22.3935 1.90664 21.7652 2.75652 22.084L8.63196 24.2876C9.74783 24.7061 10.4684 25.7109 10.5812 26.8172L15.7204 26.5196C16.0213 26.5022 16.4233 26.5189 16.8274 26.6984C16.9993 26.7747 17.17 26.866 17.3406 26.9693L16.3045 28.68C16.1923 28.612 16.0969 28.5623 16.0156 28.5262C16.0184 28.5274 16.0087 28.5225 15.9784 28.5186C15.9471 28.5145 15.9011 28.5125 15.836 28.5163L10.1354 28.8464L7.36353 35.669L16.4243 42.8315C17.0527 43.3283 17.7638 43.7103 18.5249 43.9601L19.0311 44.1262L16.584 41.7169C16.1904 41.3295 16.1855 40.6963 16.573 40.3028C16.9604 39.9092 17.5936 39.9043 17.9871 40.2918L21.3499 43.6025C21.781 43.7156 22.2328 43.6293 22.5878 43.3833L19.3276 40.1735C18.934 39.786 18.9291 39.1528 19.3165 38.7593C19.704 38.3657 20.3371 38.3608 20.7307 38.7483L24.3582 42.3196H24.4222C24.9037 42.3196 25.3638 42.1462 25.7227 41.8391L21.6792 37.8582C21.2856 37.4707 21.2807 36.8376 21.6682 36.444C22.0556 36.0505 22.6888 36.0455 23.0823 36.433L27.4091 40.6929L27.804 40.6151C28.0416 40.5683 28.2278 40.3832 28.276 40.1459C28.3177 39.9407 28.2487 39.7274 28.0941 39.5851C26.7514 38.3502 25.5309 37.2331 24.4305 36.226C22.2579 34.2375 20.5535 32.6775 19.3015 31.4849L20.681 30.0368C21.9184 31.2156 23.5986 32.7533 25.7583 34.73C26.8615 35.7397 28.0897 36.8638 29.448 38.1131C30.1177 38.7291 30.4173 39.6516 30.236 40.544C30.0271 41.5726 29.2202 42.3747 28.1904 42.5775L27.6495 42.6839L27.6041 42.7435C26.8594 43.7212 25.7073 44.3013 24.4806 44.3192C23.6751 45.3406 22.3694 45.8263 21.1029 45.5951L21.0134 45.6832C20.6452 46.0458 20.1491 46.249 19.6324 46.249C19.27 46.249 18.9099 46.1914 18.5656 46.0784L17.9013 45.8604C16.9168 45.5373 15.9969 45.0431 15.184 44.4005L6.44911 37.4956C5.88929 38.1417 5.06734 38.5315 4.18124 38.5315H2.3C1.58203 38.5315 1 37.9495 1 37.2315V23.3012ZM8.52036 27.5082C8.73793 26.9727 8.47082 26.3632 7.92962 26.1602L3 24.3113V36.5315H4.18124C4.58818 36.5315 4.95452 36.2849 5.1077 35.9079L8.52036 27.5082Z" fill="#4E6896"/><path fill-rule="evenodd" clip-rule="evenodd" d="M35.4907 25.865L30.7616 27.6756C30.458 27.7918 30.2299 28.0483 30.1499 28.3634L30.0877 28.6084L33.0982 37.1297C33.417 37.711 34.0283 38.0745 34.6944 38.0745H35.4907V25.865ZM30.9754 37.1251L28.2981 29.5469L27.3539 29.392C26.7364 29.2907 26.1315 29.124 25.5493 28.8947L24.9348 28.6527C24.5071 28.4843 24.0935 28.2822 23.6977 28.0484L23.2386 27.7772C21.6729 26.8524 19.7581 26.7363 18.0921 27.4652C17.9147 27.5429 17.7498 27.6467 17.6031 27.7731L16.3082 28.8885C15.4391 29.6373 14.7606 30.582 14.3288 31.6448L14.3273 31.6499L14.2497 32.0319C14.1973 32.2898 14.3648 32.541 14.623 32.5918L14.6926 32.6055C14.8094 32.6285 14.9302 32.6211 15.0433 32.584L15.457 32.4482C15.5349 32.4227 15.6058 32.3794 15.6642 32.3219L16.3753 31.6219C16.8967 31.1085 17.5469 30.7453 18.2574 30.5704C18.6237 30.4802 18.9685 30.3184 19.272 30.0944L20.2192 29.395L21.4072 31.0039L20.46 31.7033C19.9442 32.0842 19.358 32.3592 18.7354 32.5124C18.3741 32.6013 18.0436 32.786 17.7784 33.047L17.0673 33.7471C16.7892 34.021 16.4515 34.2268 16.0806 34.3485L15.6669 34.4843C15.228 34.6283 14.7594 34.6571 14.3062 34.5678L14.2366 34.5541C12.89 34.289 12.0165 32.9787 12.2897 31.6338L12.3673 31.2517C12.3923 31.1287 12.4287 31.0083 12.4759 30.892C13.0272 29.5352 13.8933 28.3291 15.0029 27.3733L16.2977 26.2578C16.5956 26.0012 16.9302 25.7906 17.2904 25.633C19.5452 24.6464 22.1367 24.8035 24.2558 26.0552L24.7149 26.3264C25.0197 26.5065 25.3383 26.6621 25.6677 26.7918L26.2822 27.0338C26.7324 27.2111 27.2002 27.34 27.6777 27.4184L28.3223 27.5242C28.6267 26.7395 29.2501 26.1128 30.0465 25.8078L35.9974 23.5294C36.7176 23.2536 37.4907 23.7854 37.4907 24.5567V38.9745C37.4907 39.582 36.9982 40.0745 36.3907 40.0745H34.6944C33.6341 40.0745 32.64 39.6355 31.9297 38.8911L30.3765 39.9105L29.279 38.2385L30.9754 37.1251Z" fill="#4E6896"/></svg>