<svg fill="none" xmlns="http://www.w3.org/2000/svg" viewBox="0 0 52 52"><path d="M39.179 12.614l3.376-7.94a.938.938 0 00-.384-1.172l-1.656-.985a3.621 3.621 0 00-4.128.307l-.256.209a1.74 1.74 0 01-2.195 0l-.01-.009a3.621 3.621 0 00-4.572.004 1.74 1.74 0 01-2.197.002l-.26-.212a3.624 3.624 0 00-4.114-.316l-1.701 1.001a.937.937 0 00-.387 1.178l3.398 7.926a11.606 11.606 0 00-5.93 4.814.937.937 0 101.595.985 9.729 9.729 0 015.118-4.09h13.497a9.69 9.69 0 016.564 9.19v2.487a.938.938 0 001.875 0v-2.488a11.56 11.56 0 00-7.633-10.891zm-1.964-.173H26.06l-3.317-7.74.99-.582a1.741 1.741 0 011.976.151l.26.212a3.62 3.62 0 004.572-.003 1.74 1.74 0 012.198-.002l.01.008a3.622 3.622 0 004.567 0l.256-.209a1.74 1.74 0 011.983-.147l.953.566-3.294 7.746zm9.322 16.43a.945.945 0 00-.662-.274c-.247 0-.489.1-.663.275a.946.946 0 00-.275.663.942.942 0 00.938.938.942.942 0 00.937-.938c0-.247-.1-.489-.274-.663zM16.343 43.82a.944.944 0 00-.663-.274c-.247 0-.489.1-.663.274a.944.944 0 00-.275.663c0 .247.1.489.275.663a.945.945 0 00.663.275.94.94 0 00.662-.275.945.945 0 00.275-.663c0-.246-.1-.488-.274-.663z" fill="#FF7067"/><path d="M50 41.18a3.553 3.553 0 00-1.157-2.624A3.554 3.554 0 0050 35.93a3.567 3.567 0 00-3.563-3.563H36.313a3.567 3.567 0 00-3.563 3.563c0 1.038.446 1.973 1.157 2.625a3.554 3.554 0 000 5.25 3.554 3.554 0 00-.731 4.312h-3.818v-3.666c0-4.957-3.811-9.041-8.657-9.476a.94.94 0 00-.405-.028l-.047-.002a6.523 6.523 0 001.974-4.678V20.93a.938.938 0 00-.937-.938H14.34A5.211 5.211 0 009.135 25.2v5.069c0 1.831.758 3.489 1.975 4.678-.016 0-.032 0-.048.002a.942.942 0 00-.404.028C5.81 35.41 2 39.495 2 44.452v4.604c0 .517.42.937.938.937h43.5A3.567 3.567 0 0050 46.431a3.553 3.553 0 00-1.157-2.625A3.553 3.553 0 0050 41.18zM11.01 26.513V25.2a3.334 3.334 0 013.331-3.33h6.007v2.508a2.302 2.302 0 01-2.299 2.299H11.01v-.164zm0 3.756V28.55h7.039a4.15 4.15 0 002.3-.693v2.41a4.674 4.674 0 01-4.67 4.669 4.674 4.674 0 01-4.669-4.67zm7.159 6.544l-2.49 2.49-2.49-2.49h4.98zm9.314 11.306H3.875V45.42h7.65a.938.938 0 000-1.875H3.931a7.653 7.653 0 016.664-6.676l4.421 4.421a.936.936 0 001.326 0l4.421-4.42c3.78.455 6.72 3.681 6.72 7.582v3.666zm18.954 0H36.313a1.69 1.69 0 01-1.688-1.687c0-.93.757-1.688 1.688-1.688h10.124a1.69 1.69 0 011.688 1.688 1.69 1.69 0 01-1.688 1.687zm0-5.25H36.313a1.69 1.69 0 01-1.688-1.687c0-.93.757-1.688 1.688-1.688h10.124a1.69 1.69 0 011.688 1.688 1.69 1.69 0 01-1.688 1.687zm0-5.25H36.313a1.69 1.69 0 01-1.688-1.687c0-.93.757-1.688 1.688-1.688h10.124a1.69 1.69 0 011.688 1.688 1.69 1.69 0 01-1.688 1.687z" fill="#4E6896"/><path d="M37.062 23.375c-.75 0-1.36-.516-1.36-1.149s.61-1.148 1.36-1.148c.75 0 1.361.515 1.361 1.148a.938.938 0 001.875 0c0-1.363-.97-2.517-2.298-2.894v-.14a.938.938 0 00-1.875 0v.14c-1.329.377-2.299 1.531-2.299 2.894 0 1.667 1.452 3.024 3.236 3.024.75 0 1.361.515 1.361 1.148 0 .633-.61 1.149-1.36 1.149-.751 0-1.362-.516-1.362-1.149a.938.938 0 00-1.875 0c0 1.363.97 2.517 2.299 2.894v.06a.938.938 0 001.875 0v-.06c1.328-.377 2.298-1.531 2.298-2.894 0-1.667-1.451-3.023-3.236-3.023z" fill="#FF7067"/></svg>