<svg fill="none" xmlns="http://www.w3.org/2000/svg" viewBox="0 0 52 52"><path d="M44.385 7.615C39.474 2.705 32.945 0 26 0 19.055 0 12.526 2.704 7.615 7.615 2.705 12.526 0 19.055 0 26c0 6.945 2.705 13.474 7.615 18.385C12.526 49.295 19.055 52 26 52c6.945 0 13.474-2.704 18.385-7.615C49.295 39.474 52 32.945 52 26c0-6.945-2.705-13.474-7.615-18.385zM26 49.97C12.784 49.969 2.031 39.216 2.031 26S12.784 2.031 26 2.031c13.216 0 23.969 10.753 23.969 23.969 0 13.216-10.753 23.969-23.969 23.969z" fill="#4E6896"/><path d="M47.542 21.831A21.916 21.916 0 0034.71 5.861a1.016 1.016 0 00-.807 1.863 19.886 19.886 0 0111.644 14.491 1.016 1.016 0 001.995-.384zM30.715 4.571l-.026-.006a1.015 1.015 0 10-.428 1.986l.012.002a1.016 1.016 0 00.442-1.982zM18.326 44.374A19.853 19.853 0 016.453 29.785a1.015 1.015 0 10-1.995.384 21.938 21.938 0 004.564 9.724 22.062 22.062 0 008.52 6.355 1.012 1.012 0 001.33-.546 1.015 1.015 0 00-.546-1.328zm3.415 1.076l-.063-.014a1.016 1.016 0 00-.44 1.983l.07.016a1.016 1.016 0 10.432-1.985zm24.917-15.967a1.016 1.016 0 00-1.208.776 19.854 19.854 0 01-15.665 15.288 1.016 1.016 0 00.384 1.995 21.836 21.836 0 0011.16-5.85 21.849 21.849 0 006.105-11 1.016 1.016 0 00-.776-1.21zM23.02 5.263a1.015 1.015 0 00-1.189-.805 21.836 21.836 0 00-11.16 5.85 21.848 21.848 0 00-6.106 11 1.016 1.016 0 001.985.433A19.855 19.855 0 0122.215 6.453c.55-.106.911-.638.805-1.19zM26 22.548A3.457 3.457 0 0022.547 26 3.457 3.457 0 0026 29.453 3.457 3.457 0 0029.453 26 3.457 3.457 0 0026 22.547zm0 4.875A1.423 1.423 0 0124.578 26c0-.784.638-1.422 1.422-1.422.784 0 1.422.638 1.422 1.422 0 .784-.638 1.422-1.422 1.422zm.015-23.36c-.56 0-1.015.455-1.015 1.016v2.276a1.016 1.016 0 002.031 0V5.078c0-.56-.455-1.016-1.016-1.016zm-.03 38.845c-.561 0-1.016.454-1.016 1.015v3a1.016 1.016 0 002.031 0v-3c0-.56-.455-1.015-1.015-1.015zM46.922 25H44.18a1.016 1.016 0 000 2.031h2.742a1.016 1.016 0 000-2.031zm-38.899-.031H5.078a1.016 1.016 0 000 2.031h2.945a1.016 1.016 0 000-2.031z" fill="#FF7067"/><path d="M23.563 24.985h-4.638a1.016 1.016 0 000 2.031h4.638a1.016 1.016 0 000-2.031zM26 13.035c-.56 0-1.015.454-1.015 1.015v9.513a1.016 1.016 0 002.031 0V14.05c0-.561-.455-1.016-1.016-1.016z" fill="#FF7067"/></svg>