<svg xmlns="http://www.w3.org/2000/svg" width="512" height="512" viewBox="0 0 512 512">
  <g fill="#000000" transform="translate(81)">
    <path d="M329.974077,0 L21.0324955,0 C9.41623562,0 0,9.55167021 0,21.3350079 L0,433.705161 C0,445.488499 9.41623562,455.040169 21.0324955,455.040169 L53.7321852,455.040169 L53.7321852,501.335186 C53.7321852,507.226855 58.4378385,511.998523 64.2459685,511.998523 C67.3200876,511.998523 70.2397615,510.638523 72.2426216,508.268522 L95.3732733,480.956846 L118.503925,508.268522 C122.284549,512.741857 128.920769,513.268524 133.330676,509.440189 C135.665429,507.415189 137.014361,504.45352 137.014361,501.335186 L137.014361,455.040169 L329.974077,455.040169 C341.59198,455.040169 351,445.488499 351,433.705161 L351,21.3350079 C351,9.55167021 341.59198,0 329.974077,0 Z M103.447979,457.893051 C99.6938136,453.363158 93.0925619,452.835485 88.7009887,456.707895 C88.2923944,457.070354 87.9034125,457.464844 87.5520213,457.893051 L75,473 L75,432 C88.2155786,437.1368 102.784422,437.1368 116,432 L116,473 L103.447979,457.893051 Z M132.999998,374.999999 C133.006555,396.371296 116.018754,413.767541 94.9196531,414 L94.4967203,414 C73.2369704,414 56,396.540659 56,374.999999 C56,353.459341 73.2369704,336 94.4967203,336 C115.763027,336 132.999998,353.459341 132.999998,374.999999 Z M329.474128,433 L137.003797,433 L137.003797,417.54161 C160.575952,394.229937 161.037733,355.959552 138.037461,332.076581 C115.030617,308.185281 77.2780286,307.717249 53.705873,331.028921 C30.1353607,354.340594 29.6719371,392.609313 52.6722083,416.500612 C53.0123809,416.852053 53.359127,417.196831 53.705873,417.54161 L53.705873,433 L21,433 L21,21 L330,21 L329.474128,433 Z"/>
    <path d="M266.986471 85L93.0072724 85C87.4780902 85 83 88.8021248 83 93.4980079 83 98.192563 87.4780902 102 93.0072724 102L266.986471 102C272.515653 102 277 98.192563 277 93.4980079 277 88.8021248 272.515653 85 266.986471 85zM266.986471 147L93.0072724 147C87.4780902 147 83 150.803313 83 155.499336 83 160.196687 87.4780902 164 93.0072724 164L266.986471 164C272.515653 164 277 160.196687 277 155.499336 277 150.803313 272.515653 147 266.986471 147zM266.986471 210L93.0072724 210C87.4780902 210 83 213.807437 83 218.501992 83 223.196547 87.4780902 227 93.0072724 227L266.986471 227C272.515653 227 277 223.196547 277 218.501992 277 213.807437 272.515653 210 266.986471 210zM266.986471 262L93.0072724 262C87.4780902 262 83 265.807734 83 270.502656 83 275.192266 87.4780902 279 93.0072724 279L266.986471 279C272.515653 279 277 275.192266 277 270.502656 277 265.807734 272.515653 262 266.986471 262zM273.433485 326L189.559913 326C183.731989 326 179 329.808765 179 334.498008 179 339.192563 183.731989 343 189.559913 343L273.433485 343C279.268011 343 284 339.192563 284 334.498008 284 329.808765 279.268011 326 273.433485 326z"/>
  </g>
</svg>
