<svg xmlns="http://www.w3.org/2000/svg" width="512" height="512" viewBox="0 0 512 512">
  <g fill="#000000" transform="translate(44)">
    <path d="M324,0 L30,0 C13.458,0 0,13.458 0,30 L0,132 C0,137.523 4.478,142 10,142 C15.522,142 20,137.523 20,132 L20,30 C20,24.486 24.486,20 30,20 L324,20 C329.514,20 334,24.486 334,30 L334,402 C334,407.514 329.514,412 324,412 L30,412 C24.486,412 20,407.514 20,402 L20,216.333 C20,210.81 15.522,206.333 10,206.333 C4.478,206.333 0,210.81 0,216.333 L0,402 C0,418.542 13.458,432 30,432 L324,432 C340.542,432 354,418.542 354,402 L354,30 C354,13.458 340.542,0 324,0 Z"/>
    <path d="M17.0662711,169.637 C15.2075683,167.777 12.6279808,166.717 9.99840127,166.717 C7.36882174,166.717 4.78923421,167.777 2.92953157,169.637 C1.06418476,171.518495 0.0121715304,174.057376 0,176.707 C0.00879926597,179.360242 1.06112306,181.903465 2.92953157,183.787 C4.78923421,185.647 7.36882174,186.717 9.99840127,186.717 C12.626981,186.717 15.2065685,185.647 17.0662711,183.787 C18.9370613,181.904969 19.9901108,179.36086 19.9968025,176.707 C19.9968025,174.077 18.9259738,171.507 17.0662711,169.637 L17.0662711,169.637 Z M57.1198666,454.927 C55.2417798,453.056689 52.7013009,452.003677 50.0509969,451.997 C47.4214174,451.997 44.8418299,453.067 42.9831271,454.927 C41.1142175,456.806204 40.0612686,459.346477 40.0525957,461.997 C40.0525957,464.637 41.1234244,467.207 42.9831271,469.067 C44.8593069,470.939558 47.4004523,471.992995 50.0509969,471.997 C52.6915747,471.997 55.260164,470.937 57.1198666,469.067 C58.9900627,467.188736 60.042939,464.647771 60.0493982,461.997 C60.0493982,459.367 58.9795693,456.787 57.1198666,454.927 L57.1198666,454.927 Z M384.001599,40 C378.480482,40 374.003197,44.477 374.003197,50 L374.003197,442 C374.003197,447.514 369.517915,452 364.004796,452 L90.0486014,452 C84.5274842,452 80.0502001,456.477 80.0502001,462 C80.0502001,467.523 84.5274842,472 90.0486014,472 L364.004796,472 C380.544152,472 394,458.542 394,442 L394,50 C394,44.477 389.522716,40 384.001599,40 L384.001599,40 Z"/>
    <path d="M424.003332,80 C418.483172,80 414.006664,84.477 414.006664,90 L414.006664,482 C414.006664,487.514 409.522159,492 404.009997,492 L90.1146285,492 C84.5944685,492 80.1179607,496.477 80.1179607,502 C80.1179607,507.523 84.5944685,512 90.1146285,512 L404.009997,512 C420.546485,512 434,498.542 434,482 L434,90 C434,84.477 429.523492,80 424.003332,80 Z M161.964678,74 L65.9966678,74 C60.4765078,74 56,78.477 56,84 L56,180 C56,185.523 60.4765078,190 65.9966678,190 L161.964678,190 C167.484838,190 171.961346,185.523 171.961346,180 L171.961346,84 C171.961346,78.477 167.484838,74 161.964678,74 Z M151.968011,170 L75.9933356,170 L75.9933356,94 L151.968011,94 L151.968011,170 Z M129.7994,235.402 C125.894702,231.498 119.566811,231.497 115.661113,235.402 L89.086971,261.985 L76.7310896,249.624 C72.8273909,245.719 66.4995002,245.72 62.5928024,249.624 C58.6891036,253.529 58.6891036,259.861 62.5928024,263.766 L82.0183272,283.198 C85.9230534,287.102163 92.2518883,287.102163 96.1566145,283.198 L129.7994,249.544 C133.703099,245.639 133.703099,239.307 129.7994,235.402 L129.7994,235.402 Z"/>
    <path d="M293.000031,249.307472 L176.333389,249.307472 C170.811406,249.307472 166.33342,253.792338 166.33342,259.325042 C166.33342,264.857746 170.811406,269.342612 176.333389,269.342612 L293.000031,269.342612 C298.522014,269.342612 303,264.857746 303,259.325042 C303,253.792338 298.522014,249.307472 293.000031,249.307472 L293.000031,249.307472 Z M287.333048,74 L217.333263,74 C211.81128,74 207.333294,78.484866 207.333294,84.0175698 C207.333294,89.5502737 211.81128,94.0351397 217.333263,94.0351397 L287.333048,94.0351397 C292.855031,94.0351397 297.333017,89.5502737 297.333017,84.0175698 C297.333017,78.484866 292.855031,74 287.333048,74 Z M287.333048,122.084335 L217.333263,122.084335 C211.81128,122.084335 207.333294,126.569201 207.333294,132.101905 C207.333294,137.634609 211.81128,142.119475 217.333263,142.119475 L287.333048,142.119475 C292.855031,142.119475 297.333017,137.634609 297.333017,132.101905 C297.333017,126.569201 292.855031,122.084335 287.333048,122.084335 Z M287.333048,170.16867 L217.333263,170.16867 C211.81128,170.16867 207.333294,174.653537 207.333294,180.18624 C207.333294,185.718944 211.81128,190.20381 217.333263,190.20381 L287.333048,190.20381 C292.855031,190.20381 297.333017,185.718944 297.333017,180.18624 C297.333017,174.653537 292.855031,170.16867 287.333048,170.16867 Z M129.157534,312.186756 C125.251546,308.275897 118.921566,308.274895 115.014578,312.186756 L88.4316595,338.816462 L76.0716975,326.433744 C72.1667095,322.521883 65.836729,322.522885 61.928741,326.433744 C58.023753,330.345605 58.023753,336.68873 61.928741,340.600591 L81.3606813,360.066733 C85.266697,363.977756 91.597622,363.977756 95.5036378,360.066733 L129.157534,326.353604 C133.062522,322.441743 133.062522,316.098617 129.157534,312.186756 L129.157534,312.186756 Z M293.000031,325.441003 L176.333389,325.441003 C170.811406,325.441003 166.33342,329.925869 166.33342,335.458573 C166.33342,340.991277 170.811406,345.476143 176.333389,345.476143 L293.000031,345.476143 C298.522014,345.476143 303,340.991277 303,335.458573 C303,329.925869 298.522014,325.441003 293.000031,325.441003 L293.000031,325.441003 Z"/>
  </g>
</svg>
