<svg xmlns="http://www.w3.org/2000/svg" width="480" height="512" fill="#4c5467">
  <path fill="currentColor" d="M210 80c5.52 0 10-4.48 10-10s-4.48-10-10-10-10 4.48-10 10 4.48 10 10 10z"/>
  <path fill="currentColor" d="M310 60c5.523 0 10-4.478 10-10V40c0-22.097-17.898-40-40-40H110C82.43 0 60 22.43 60 50v30H30C13.458 80 0 93.458 0 110v372c0 16.542 13.458 30 30 30h260c16.542 0 30-13.458 30-30v-36h150c5.523 0 10-4.478 10-10V216c0-5.522-4.477-10-10-10H320v-96c0-16.542-13.458-30-30-30h-30V60h50zm-10-20h-40c0-11.271 9.167-20 20-20 11.045 0 20 8.954 20 20zM80 50c0-16.542 13.458-30.1 30-30.1h135.348C241.923 25.838 240 32.792 240 40v80H80V50zm380 256H320v-40h140v40zM320 426V326h140v100H320zm140-180H320v-20h140v20zM290 100c5.514 0 10 4.486 10 10v372c0 5.514-4.486 10-10 10H30c-5.514 0-10-4.486-10-10V110c0-5.514 4.486-10 10-10h30v30c0 5.522 4.477 10 10 10h180c5.523 0 10-4.478 10-10v-30h30z"/>
  <path fill="currentColor" d="M110 80h60c5.523 0 10-4.478 10-10s-4.477-10-10-10h-60c-5.523 0-10 4.478-10 10s4.477 10 10 10zM90 306H70c-5.523 0-10 4.478-10 10s4.477 10 10 10h20c5.523 0 10-4.478 10-10s-4.477-10-10-10zm80 0h-20c-5.523 0-10 4.478-10 10s4.477 10 10 10h20c5.523 0 10-4.478 10-10s-4.477-10-10-10zm80 0h-20c-5.523 0-10 4.478-10 10s4.477 10 10 10h20c5.523 0 10-4.478 10-10s-4.477-10-10-10zM90 366H70c-5.523 0-10 4.478-10 10s4.477 10 10 10h20c5.523 0 10-4.478 10-10s-4.477-10-10-10zm80 0h-20c-5.523 0-10 4.478-10 10s4.477 10 10 10h20c5.523 0 10-4.478 10-10s-4.477-10-10-10zm80 0h-20c-5.523 0-10 4.478-10 10s4.477 10 10 10h20c5.523 0 10-4.478 10-10s-4.477-10-10-10zM90 426H70c-5.523 0-10 4.478-10 10s4.477 10 10 10h20c5.523 0 10-4.478 10-10s-4.477-10-10-10zm80 0h-20c-5.523 0-10 4.478-10 10s4.477 10 10 10h20c5.523 0 10-4.478 10-10s-4.477-10-10-10zm80 0h-20c-5.523 0-10 4.478-10 10s4.477 10 10 10h20c5.523 0 10-4.478 10-10s-4.477-10-10-10zm180-60h-40c-5.523 0-10 4.478-10 10s4.477 10 10 10h40c5.523 0 10-4.478 10-10s-4.477-10-10-10zM250 186H70c-5.523 0-10 4.478-10 10v60c0 5.522 4.477 10 10 10h180c5.523 0 10-4.478 10-10v-60c0-5.522-4.477-10-10-10zm-10 60H80v-40h160v40z"/>
</svg>
