<svg xmlns="http://www.w3.org/2000/svg" viewBox="0 0 512 512" fill="#4c5467"><path d="M362.937 0h-294c-16.542 0-30 13.458-30 30v102c0 5.523 4.478 10 10 10s10-4.477 10-10V30c0-5.514 4.486-10 10-10h294c5.514 0 10 4.486 10 10v372c0 5.514-4.486 10-10 10h-294c-5.514 0-10-4.486-10-10V216.333c0-5.523-4.478-10-10-10s-10 4.477-10 10V402c0 16.542 13.458 30 30 30h294c16.542 0 30-13.458 30-30V30c0-16.542-13.458-30-30-30z"/><path d="M56.006 169.7c-1.859-1.86-4.439-2.92-7.069-2.92s-5.21 1.06-7.07 2.92a10.107 10.107 0 0 0-2.93 7.07 10.1 10.1 0 0 0 2.93 7.08c1.86 1.86 4.44 2.93 7.07 2.93 2.629 0 5.209-1.07 7.069-2.93a10.078 10.078 0 0 0 2.931-7.08c0-2.63-1.071-5.2-2.931-7.07zM96.066 454.99a10.056 10.056 0 0 0-7.07-2.93c-2.63 0-5.21 1.07-7.069 2.93a10.072 10.072 0 0 0-2.931 7.07c0 2.64 1.071 5.21 2.931 7.07a10.029 10.029 0 0 0 7.069 2.93c2.641 0 5.21-1.06 7.07-2.93a10.054 10.054 0 0 0 2.93-7.07c0-2.63-1.07-5.21-2.93-7.07zM423 40.063c-5.522 0-10 4.477-10 10v392c0 5.514-4.486 10-10 10H129c-5.522 0-10 4.477-10 10s4.478 10 10 10h274c16.542 0 30-13.458 30-30v-392c0-5.523-4.478-10-10-10z"/><path d="M463.063 80c-5.522 0-10 4.477-10 10v392c0 5.514-4.486 10-10 10h-314c-5.522 0-10 4.477-10 10s4.478 10 10 10h314c16.542 0 30-13.458 30-30V90c0-5.523-4.478-10-10-10zM200.937 74h-96c-5.522 0-10 4.477-10 10v96c0 5.523 4.478 10 10 10h96c5.522 0 10-4.477 10-10V84c0-5.523-4.478-10-10-10zm-10 96h-76V94h76v76zM168.761 235.402c-3.906-3.904-10.236-3.905-14.143 0l-26.583 26.583-12.36-12.361c-3.905-3.905-10.235-3.904-14.143 0-3.905 3.905-3.905 10.237 0 14.142l19.432 19.432a10.003 10.003 0 0 0 14.143 0l33.654-33.654c3.905-3.905 3.905-10.237 0-14.142z"/><path d="M332.604 249H215.937c-5.522 0-10 4.477-10 10s4.478 10 10 10h116.667c5.522 0 10-4.477 10-10s-4.478-10-10-10zM326.937 74h-70c-5.522 0-10 4.477-10 10s4.478 10 10 10h70c5.522 0 10-4.477 10-10s-4.478-10-10-10zM326.937 122h-70c-5.522 0-10 4.477-10 10s4.478 10 10 10h70c5.522 0 10-4.477 10-10s-4.478-10-10-10zM326.937 170h-70c-5.522 0-10 4.477-10 10s4.478 10 10 10h70c5.522 0 10-4.477 10-10s-4.478-10-10-10zM168.761 311.769c-3.906-3.904-10.236-3.905-14.143 0l-26.583 26.583-12.36-12.361c-3.905-3.905-10.235-3.904-14.143 0-3.905 3.905-3.905 10.237 0 14.142l19.432 19.432a10.003 10.003 0 0 0 14.143 0l33.654-33.654c3.905-3.905 3.905-10.237 0-14.142zM332.604 325H215.937c-5.522 0-10 4.477-10 10s4.478 10 10 10h116.667c5.522 0 10-4.477 10-10s-4.478-10-10-10z"/></svg>