<svg width="50" height="50" xmlns="http://www.w3.org/2000/svg"><g fill="none" fill-rule="evenodd"><path d="M24 .34L1 17.941V48h48V17.942L26 .34a1.643 1.643 0 0 0-2 0" fill="#F9F8F7"/><path fill="#D6D9D7" d="M33.727 7H16.273L1 17.5V19h48v-1.5L33.727 7"/><path fill="#FFF" d="M4 36h41V10H4z"/><path fill="#F9F8F7" d="M49 18L1 48h48V18"/><path fill="#D6D9D7" d="M27.867 32L1 49h48v-3.784L27.867 32"/><path fill="#F9F8F7" d="M1 18l48 30H1V18"/><path d="M3.34 19.191l-1.177-.721 1.177-.882v1.603zm1.566-8.957H22.97V8.687H15.22l9.245-6.927a.899.899 0 0 1 1.072 0l9.245 6.927h-11.81v1.547h22.123v9.917C32.055 28.255 25.536 32.45 25.536 32.734L4.906 20.151v-9.917zm41.754 7.354l1.177.882-1.177.721v-1.603zM26.484 33.38l21.95-13.457v26.914L26.484 33.38zM50 48.227a.77.77 0 0 1-.072.323.792.792 0 0 1-.713.45H38.36v-1.546h8.11L1.566 19.924v27.53H38.36V49H.783A.778.778 0 0 1 0 48.227V18.533c0-.239.117-.47.31-.616l3.03-2.27V9.46c0-.427.35-.773.783-.773h8.505l10.89-8.16a2.485 2.485 0 0 1 2.965 0l10.889 8.16h8.505c.432 0 .783.346.783.773v6.187l3.03 2.27c.193.145.31.377.31.616v29.694z" fill="#0A0B09"/><text font-family="VarelaRound-Regular, Varela Round" font-size="22" fill="#000" fill-opacity=".868"><tspan x="17.459" y="28.545">€</tspan></text></g></svg>