<svg xmlns="http://www.w3.org/2000/svg" viewBox="0 0 512 512" fill="#4c5467"><path d="M125 126c-5.52 0-10 4.48-10 10s4.48 10 10 10 10-4.48 10-10-4.48-10-10-10zM290 466h-10v-10c0-27.57-22.43-50-50-50H70c-27.57 0-50 22.43-50 50v10H10c-5.523 0-10 4.478-10 10s4.477 10 10 10h280c5.523 0 10-4.478 10-10s-4.477-10-10-10zm-30 0H40v-10c0-16.542 13.458-30 30-30h160c16.542 0 30 13.458 30 30v10zM138.854 175.433c-.215-5.518-4.837-9.855-10.381-9.605-5.519.214-9.819 4.86-9.605 10.38a252.46 252.46 0 0 1-4.433 57.883c-1.054 5.422 2.486 10.671 7.907 11.726 5.433 1.053 10.672-2.495 11.725-7.907a272.454 272.454 0 0 0 4.787-62.477z"/><path d="M472 146H223.816a211.136 211.136 0 0 1 12.142-40.596C249.656 102.633 260 90.502 260 76V36c0-5.522-4.477-10-10-10H50c-5.523 0-10 4.478-10 10v40c0 14.152 9.853 26.038 23.056 29.18 21.35 51.672 21.35 109.968 0 161.64C49.853 269.962 40 281.848 40 296v40c0 5.522 4.477 10 10 10h200c5.523 0 10-4.478 10-10v-40c0-14.502-10.344-26.633-24.042-29.404A211.115 211.115 0 0 1 223.816 226H472c22.097 0 40-17.898 40-40 0-22.056-17.944-40-40-40zM70 86c-5.514 0-10-4.486-10-10V46h180v30c0 5.514-4.486 10-10 10H70zm132.132 131.352a231.271 231.271 0 0 0 12.129 48.647H84.82c18.969-51.569 18.969-108.531 0-160.1h129.441a232.212 232.212 0 0 0-12.129 48.747 231.657 231.657 0 0 0 0 62.706zM230.001 286c5.514 0 10 4.486 10 10v30H60v-30c0-5.503 4.469-9.981 9.969-9.998l.026.001c.014 0 .027-.003.041-.003h159.965zM260 206h-39.045a211.611 211.611 0 0 1 0-40H260v40zm212 0H280v-40h192c11.028 0 20 8.972 20 20 0 11.045-8.954 20-20 20z"/></svg>