<svg xmlns="http://www.w3.org/2000/svg" viewBox="0 0 512 512" fill="#4c5467"><path d="M442 176c-5.52 0-10 4.48-10 10s4.48 10 10 10 10-4.48 10-10-4.48-10-10-10zM276 316c-5.52 0-10 4.48-10 10s4.48 10 10 10 10-4.48 10-10-4.48-10-10-10zM276 256H70c-5.522 0-10 4.478-10 10s4.478 10 10 10h206c5.522 0 10-4.478 10-10s-4.478-10-10-10zM236 316H70c-5.522 0-10 4.478-10 10s4.478 10 10 10h166c5.522 0 10-4.478 10-10s-4.478-10-10-10z"/><path d="M482 36H196c-16.542 0-30 13.458-30 30v110H30c-16.542 0-30 13.458-30 30v180c0 16.542 13.458 30 30 30h30v50a9.998 9.998 0 0 0 16.103 7.922L151.285 416H316c16.542 0 30-13.458 30-30V276h136c16.542 0 30-13.458 30-30V66c0-16.542-13.458-30-30-30zM326 386c0 5.514-4.486 10-10 10H147.88c-2.208 0-4.354.73-6.103 2.078L80 445.672V406c0-5.522-4.478-10-10-10H30c-5.514 0-10-4.486-10-10V206c0-5.514 4.486-10 10-10h286c5.514 0 10 4.486 10 10v180zm166-140c0 5.514-4.486 10-10 10H346v-50c0-3.506-.61-6.87-1.72-10H402c5.522 0 10-4.478 10-10s-4.478-10-10-10H186V66c0-5.514 4.486-10 10-10h286c5.514 0 10 4.486 10 10v180z"/><path d="M442 116H236c-5.522 0-10 4.478-10 10s4.478 10 10 10h206c5.522 0 10-4.478 10-10s-4.478-10-10-10z"/></svg>