<svg xmlns="http://www.w3.org/2000/svg" viewBox="0 0 512 512" fill="#4c5467"><path d="M416 306c-5.52 0-10 4.48-10 10s4.48 10 10 10 10-4.48 10-10-4.48-10-10-10zM96 306c-5.52 0-10 4.48-10 10s4.48 10 10 10 10-4.48 10-10-4.48-10-10-10z"/><path d="M481.581 261.732a10.006 10.006 0 0 0-9.353-.964C453.924 268.221 434.528 272 414.58 272h-29.33c-54.727 0-99.25 44.523-99.25 99.25v25.821c-7.646 6.13-14.234 11.953-20 17.692V259.619c67.028-5.123 120-61.301 120-129.619C386 58.318 327.683 0 256 0c-71.682 0-130 58.318-130 130 0 68.318 52.972 124.496 120 129.619v155.144c-5.766-5.739-12.354-11.561-20-17.692V371.25c0-54.727-44.523-99.25-99.25-99.25H97.42c-19.949 0-39.344-3.779-57.649-11.232A10.001 10.001 0 0 0 26 270.03v19.51C26 357.065 80.935 412 148.46 412h64.183c14.979 11.929 25.459 22.373 33.357 33.255V452h-30c-24.146 0-44.348 17.205-48.994 40H136c-5.523 0-10 4.477-10 10s4.477 10 10 10h240c5.522 0 10-4.477 10-10s-4.478-10-10-10h-31.006c-4.646-22.795-24.847-40-48.994-40h-30v-6.744c7.899-10.883 18.378-21.327 33.357-33.256h64.183C431.064 412 486 357.065 486 289.54v-19.51c0-3.329-1.657-6.44-4.419-8.298zM206 381.972c-8.281-5.969-17.038-12.038-26.105-18.318-14.448-10.005-29.387-20.352-45.445-32.33-4.427-3.302-10.692-2.391-13.995 2.037-3.302 4.427-2.391 10.692 2.037 13.995 16.34 12.189 32.106 23.107 46.017 32.74A2760.272 2760.272 0 0 1 185.603 392H148.46C91.963 392 46 346.037 46 289.54v-5.309C62.572 289.391 79.81 292 97.42 292h29.33c43.699 0 79.25 35.551 79.25 79.25v10.722zM296 472c13.036 0 24.152 8.361 28.28 20H187.72c4.128-11.639 15.243-20 28.28-20h80zm-40-232c-60.654 0-110-49.346-110-110S195.346 20 256 20s110 49.346 110 110-49.346 110-110 110zm210 49.54C466 346.037 420.037 392 363.54 392h-37.143c5.53-3.893 11.247-7.855 17.098-11.906 13.909-9.633 29.675-20.55 46.015-32.738 4.427-3.302 5.338-9.568 2.036-13.995s-9.567-5.34-13.995-2.037c-16.057 11.977-30.995 22.322-45.442 32.327-9.069 6.28-17.827 12.351-26.108 18.32V371.25C306 327.551 341.552 292 385.25 292h29.33c17.61 0 34.848-2.609 51.42-7.77v5.31z"/><path d="M260.678 121.875C245.771 113.996 236 108.266 236 100.71c0-11.028 8.972-20 20-20s20 8.972 20 20c0 5.523 4.478 10 10 10s10-4.477 10-10c0-18.604-12.767-34.282-30-38.734V50.71c0-5.523-4.478-10-10-10s-10 4.477-10 10v11.266c-17.233 4.452-30 20.13-30 38.734 0 20.171 18.77 30.093 35.331 38.847C266.232 147.434 276 153.161 276 160.71c0 11.028-8.972 20-20 20s-20-8.972-20-20c0-5.523-4.477-10-10-10s-10 4.477-10 10c0 18.604 12.767 34.282 30 38.734v11.266c0 5.523 4.478 10 10 10s10-4.477 10-10v-11.266c17.233-4.452 30-20.13 30-38.734 0-20.164-18.766-30.083-35.322-38.835z"/></svg>