<svg xmlns="http://www.w3.org/2000/svg" viewBox="0 0 512 512" fill="#4c5467"><path d="M256 339c-5.52 0-10 4.48-10 10s4.48 10 10 10 10-4.48 10-10-4.48-10-10-10z"/><path d="M386 452.999V399c0-56.092-35.858-107.759-87.203-125.645C291.022 270.65 286 263.838 286 256c0-7.899 5.176-14.701 12.8-17.356C350.957 220.475 386 171.188 386 116V59.001c22.603-4.569 40-24.597 40-49.001 0-5.522-4.478-10-10-10H96c-5.522 0-10 4.478-10 10 0 24.146 17.205 44.348 40 48.994V116c0 55.188 35.043 104.475 87.203 122.645C220.978 241.35 226 248.162 226 256c0 7.899-5.176 14.701-12.8 17.356C161.858 291.241 126 342.908 126 399v54.006c-22.795 4.646-40 24.847-40 48.994 0 5.522 4.478 10 10 10h320c5.522 0 10-4.478 10-10 0-13.349-5.202-25.903-14.649-35.352-7.042-7.042-15.813-11.721-25.351-13.649zM107.714 19.9h296.585C400.104 31.779 389.003 40 376 40H136c-13.037 0-24.159-8.459-28.286-20.1zM146 399c0-47.725 30.34-91.624 73.779-106.757C235.388 286.806 246 272.477 246 256c0-16.221-10.538-30.785-26.22-36.243C175.649 204.384 146 162.688 146 116V60h220v56c0 46.688-29.649 88.384-73.779 103.757C276.612 225.194 266 239.523 266 256c0 16.221 10.538 30.785 26.22 36.243C335.66 307.376 366 351.275 366 399v53h-20.624c-4.466-35.537-32.91-48.528-59.736-57.877a59.77 59.77 0 0 1-22.563-14.149 10.003 10.003 0 0 0-14.152 0c-6.398 6.407-13.988 11.169-22.563 14.153-26.821 9.344-55.27 22.334-59.736 57.873H146v-53zm179.141 53H186.858c3.731-20.3 19.643-29.776 46.079-38.985a80.058 80.058 0 0 0 23.062-12.631c6.929 5.444 14.77 9.748 23.07 12.63 26.433 9.211 42.342 18.687 46.072 38.986zm-217.427 40c4.127-11.641 15.249-20 28.286-20h240c8.008 0 15.54 3.122 21.209 8.79a29.92 29.92 0 0 1 7.089 11.21H107.714z"/><path d="M341.257 107.493a10.007 10.007 0 0 0-9.729-.438C308.207 118.717 282.09 124.88 256 124.88c-26.09 0-52.207-6.163-75.528-17.824A9.998 9.998 0 0 0 166 116c0 38.186 24.252 72.293 60.36 84.877a59.77 59.77 0 0 1 22.563 14.149 10.003 10.003 0 0 0 14.152 0c6.398-6.407 13.988-11.169 22.563-14.153 17.719-6.171 32.838-17.522 43.721-32.828C340.246 152.735 346 134.739 346 116c0-3.466-1.795-6.685-4.743-8.507zm-28.196 48.962c-8.465 11.904-20.223 20.732-33.998 25.53a80.082 80.082 0 0 0-23.062 12.631c-6.929-5.444-14.77-9.748-23.07-12.63-22.844-7.96-39.587-27.002-45.03-49.816 21.661 8.349 44.89 12.71 68.1 12.71 23.214 0 46.449-4.364 68.113-12.716-2.061 8.661-5.783 16.88-11.053 24.291zM256 276c-5.522 0-10 4.478-10 10v23c0 5.522 4.478 10 10 10s10-4.478 10-10v-23c0-5.522-4.478-10-10-10z"/></svg>