<svg xmlns="http://www.w3.org/2000/svg" viewBox="0 0 512 512" fill="#4c5467"><path d="M426 432c-5.52 0-10 4.48-10 10s4.48 10 10 10 10-4.48 10-10-4.48-10-10-10zM266 260c-5.52 0-10 4.48-10 10s4.48 10 10 10 10-4.48 10-10-4.48-10-10-10zM106 340c-5.52 0-10 4.48-10 10s4.48 10 10 10 10-4.48 10-10-4.48-10-10-10z"/><path d="M466 340H366c-5.523 0-10 4.477-10 10v142h-40V190c0-5.523-4.477-10-10-10H206c-5.523 0-10 4.477-10 10v302h-40V270c0-5.523-4.477-10-10-10H46c-5.523 0-10 4.477-10 10v232c0 5.523 4.477 10 10 10h420c5.523 0 10-4.477 10-10V350c0-5.523-4.477-10-10-10zM136 492h-20V390c0-5.523-4.477-10-10-10s-10 4.477-10 10v102H56V280h80v212zm160 0h-20V310c0-5.523-4.477-10-10-10s-10 4.477-10 10v182h-40V200h80v292zm160 0h-20v-10c0-5.523-4.477-10-10-10s-10 4.477-10 10v10h-40V360h80v132z"/><path d="M125.006 147.5C131.812 140.326 136 130.646 136 120c0-22.056-17.944-40-40-40s-40 17.944-40 40c0 10.646 4.188 20.326 10.994 27.5C48.53 157.742 36 177.432 36 200v10c0 5.523 4.477 10 10 10h100c5.523 0 10-4.477 10-10v-10c0-22.568-12.53-42.258-30.994-52.5zM96 100c11.028 0 20 8.972 20 20s-8.972 20-20 20-20-8.972-20-20 8.972-20 20-20zM56 200c0-22.056 17.944-40 40-40s40 17.944 40 40H56zM285.006 67.5C291.812 60.326 296 50.646 296 40c0-22.056-17.944-40-40-40s-40 17.944-40 40c0 10.646 4.188 20.326 10.994 27.5C208.53 77.742 196 97.432 196 120v10c0 5.523 4.477 10 10 10h100c5.523 0 10-4.477 10-10v-10c0-22.568-12.53-42.258-30.994-52.5zM256 20c11.028 0 20 8.972 20 20s-8.972 20-20 20-20-8.972-20-20 8.972-20 20-20zm-40 100c0-22.056 17.944-40 40-40s40 17.944 40 40h-80zM445.006 227.5C451.812 220.326 456 210.646 456 200c0-22.056-17.944-40-40-40s-40 17.944-40 40c0 10.646 4.188 20.326 10.994 27.5C368.53 237.742 356 257.432 356 280v10c0 5.523 4.477 10 10 10h100c5.523 0 10-4.477 10-10v-10c0-22.568-12.53-42.258-30.994-52.5zM416 180c11.028 0 20 8.972 20 20s-8.972 20-20 20-20-8.972-20-20 8.972-20 20-20zm-40 100c0-22.056 17.944-40 40-40s40 17.944 40 40h-80z"/></svg>