<svg xmlns="http://www.w3.org/2000/svg" viewBox="0 0 512 512" fill="#4c5467"><path d="M255.978 40.002c-5.52 0-10 4.48-10 10s4.48 10 10 10 10-4.48 10-10-4.48-10-10-10z"/><path d="M236.527 1.095C161.868 9.439 99.81 68.458 88.13 142.669c-8.967 57.027 11.017 114.149 53.455 152.805 15.502 14.119 24.394 33.993 24.394 54.527v72c0 24.445 17.638 44.835 40.853 49.147 4.31 23.214 24.7 40.852 49.146 40.852 24.921 0 44.96-18.046 49.158-40.855 23.21-4.316 40.842-24.703 40.842-49.145v-72-.005-.005c0-20.588 8.787-40.367 24.106-54.261 35.521-32.198 55.894-78.024 55.894-125.728-.001-99.587-86.53-180.416-189.451-168.906zM255.978 492c-13.038 0-24.159-8.459-28.287-20.1h56.585c-4.027 11.407-15.002 20.1-28.298 20.1zm70-106h-30c-5.523 0-10 4.477-10 10s4.477 10 10 10h30v16c0 16.542-13.458 30-30 30h-80c-16.542 0-30-13.458-30-30v-16h30c5.523 0 10-4.477 10-10s-4.477-10-10-10h-30v-26h139.999v26zm30.672-105.086c-17.001 15.42-27.675 36.544-30.127 59.087H185.426c-2.478-22.506-13.24-43.708-30.374-59.313-37.452-34.114-55.084-84.549-47.165-134.911C118.116 80.791 173.152 28.302 238.749 20.97c92.033-10.287 167.228 62.242 167.228 149.031 0 42.071-17.979 82.496-49.327 110.913z"/><path d="M298.728 47.159c-5.213-1.817-10.916.937-12.734 6.152-1.817 5.215.937 10.916 6.152 12.734 42.896 14.952 73.831 56.272 73.831 103.956 0 5.523 4.477 10 10 10s10-4.477 10-10c-.001-56.381-36.502-105.155-87.249-122.842zM260.655 181.876c-14.906-7.879-24.677-13.609-24.677-21.165 0-11.028 8.972-20 20-20s20 8.972 20 20c0 5.523 4.477 10 10 10s10-4.477 10-10c0-18.604-12.767-34.282-30-38.734v-11.266c0-5.523-4.477-10-10-10s-10 4.477-10 10v11.266c-17.233 4.452-30 20.13-30 38.734 0 20.171 18.77 30.093 35.331 38.847 14.901 7.877 24.669 13.604 24.669 21.153 0 11.028-8.973 20-20 20-11.028 0-20-8.972-20-20 0-5.523-4.477-10-10-10s-10 4.477-10 10c0 18.604 12.767 34.282 30 38.734v11.266c0 5.523 4.477 10 10 10s10-4.477 10-10v-11.266c17.233-4.452 30-20.13 30-38.734 0-20.164-18.766-30.083-35.323-38.835z"/></svg>