<svg xmlns="http://www.w3.org/2000/svg" viewBox="0 0 512 512" fill="#4c5467"><path d="M216.001 380.001c-5.52 0-10 4.48-10 10s4.48 10 10 10 10-4.48 10-10-4.48-10-10-10zM175.601 180.003c-5.52 0-10 4.48-10 10s4.48 10 10 10 10-4.48 10-10-4.48-10-10-10z"/><path d="M465.283 286.289c-28.917-72.293-37.043-92.608-39.454-98.551C419.127 79.848 339.305 6.287 248.627.415 136.579-6.848 46.003 82.164 46.003 190.003c0 61.708 29.796 119.194 79.972 154.85.027 56.95.027 157.147.027 157.147 0 5.522 4.477 10 10 10H316c5.523 0 10-4.478 10-10v-77.305l43.799 10.262c.107.025.215.049.323.07C388.703 438.734 406 424.51 406 405.6v-33.239l18.944-37.888a9.997 9.997 0 0 0 0-8.944l-12.764-25.528H456a10 10 0 0 0 9.283-13.712zm-69.284-6.288a10.001 10.001 0 0 0-8.944 14.473l17.764 35.527-17.764 35.528a10 10 0 0 0-1.056 4.472v35.6c0 6.263-5.695 10.981-11.827 9.84L257.51 388.115c-5.372-1.258-10.758 2.078-12.017 7.456s2.08 10.758 7.457 12.017L306 420.01V492H146.002c-.001-27.803-.005-106.962-.03-152.404a10.003 10.003 0 0 0-4.438-8.306c-47.295-31.651-75.531-84.469-75.531-141.288 0-97.964 82.396-176.064 181.332-169.629C334.1 25.99 400.809 97.516 405.954 190.444c.063 1.131.317 2.239.749 3.28.766 1.889 20.559 51.36 34.526 86.276h-45.23z"/><path d="M359.161 170.917l-16.614-5.535c-2.663-11.744-7.096-22.71-13.231-32.73l7.838-15.676a10 10 0 0 0-1.876-11.545l-14.15-14.14a10.002 10.002 0 0 0-11.541-1.871l-15.45 7.725c-10.168-6.442-21.155-11.101-32.789-13.9l-5.461-16.399a10 10 0 0 0-9.488-6.841h-20a10 10 0 0 0-9.487 6.838l-5.373 16.119c-12.019 2.657-23.229 7.164-33.453 13.45l-15.114-7.561a9.997 9.997 0 0 0-11.544 1.872l-14.14 14.14a10 10 0 0 0-1.874 11.543l7.448 14.896a108.253 108.253 0 0 0-14.118 33.516l-15.906 5.299a10 10 0 0 0-6.839 9.487v20a9.998 9.998 0 0 0 6.836 9.486l15.771 5.26c2.71 12.059 7.319 23.339 13.752 33.661l-7.513 15.02a9.999 9.999 0 0 0 1.873 11.545l14.14 14.14a9.996 9.996 0 0 0 11.541 1.874l14.985-7.488c10.253 6.432 21.412 11.058 33.306 13.808l5.422 16.259a10 10 0 0 0 9.486 6.837h20a9.999 9.999 0 0 0 9.486-6.837l5.421-16.257c11.775-2.717 22.814-7.257 32.94-13.55l15.577 7.796a9.995 9.995 0 0 0 11.549-1.874l14.14-14.15a10 10 0 0 0 1.871-11.541l-7.771-15.541a108.193 108.193 0 0 0 13.597-32.575l16.752-5.583a10.001 10.001 0 0 0 6.838-9.487v-20a9.999 9.999 0 0 0-6.837-9.49zm-28.523 27.398a10 10 0 0 0-6.678 7.705c-2.343 12.938-7.341 24.902-14.854 35.562a10 10 0 0 0-.771 10.233l7.138 14.275-3.949 3.951-14.29-7.151a10.002 10.002 0 0 0-10.218.755c-10.685 7.494-22.762 12.463-35.896 14.768a10 10 0 0 0-7.758 6.687l-4.97 14.903h-5.587l-4.97-14.903a10.003 10.003 0 0 0-7.756-6.687c-13.216-2.321-25.398-7.373-36.207-15.016a9.996 9.996 0 0 0-10.244-.78l-13.724 6.858-3.947-3.946 6.875-13.743a10.002 10.002 0 0 0-.765-10.229c-7.626-10.837-12.646-23.127-14.919-36.527a9.998 9.998 0 0 0-6.695-7.813l-14.454-4.82v-5.585l14.531-4.841a10 10 0 0 0 6.684-7.73c2.359-13.216 7.519-25.451 15.335-36.364a9.998 9.998 0 0 0 .814-10.295l-6.837-13.674 3.946-3.945 13.803 6.904a10.005 10.005 0 0 0 10.184-.734c10.719-7.456 22.954-12.37 36.363-14.604a10 10 0 0 0 7.843-6.702l4.94-14.822h5.583l4.992 14.989a10 10 0 0 0 7.679 6.676c12.914 2.376 24.938 7.479 35.738 15.171a10.004 10.004 0 0 0 10.273.799l14.216-7.108 3.953 3.95-7.175 14.352a9.998 9.998 0 0 0 .724 10.165c7.309 10.554 12.166 22.577 14.436 35.737a10 10 0 0 0 6.693 7.787l15.281 5.092v5.58H346l-15.362 5.12z"/><path d="M235.601 120.004c-21.23 0-41.074 9.473-54.443 25.988-3.475 4.293-2.812 10.59 1.481 14.064 4.292 3.474 10.588 2.811 14.064-1.48 9.553-11.803 23.731-18.572 38.897-18.572 27.57 0 49.999 22.43 49.999 50s-22.43 50-50 50c-5.523 0-10 4.478-10 10s4.477 10 10 10c38.598 0 69.999-31.402 69.999-69.999.001-38.599-31.4-70.001-69.997-70.001z"/><path d="M235.601 160.004c-16.542 0-30 13.458-30 30s13.458 30 30 30 30-13.458 30-30c-.001-16.542-13.458-30-30-30zm0 39.999c-5.514 0-10-4.486-10-10s4.486-10 10-10 10 4.486 10 10-4.486 10-10 10z"/></svg>