<svg xmlns="http://www.w3.org/2000/svg" viewBox="0 0 512 512" fill="#4c5467"><path d="M362 126.018c-5.52 0-10 4.48-10 10s4.48 10 10 10 10-4.48 10-10-4.48-10-10-10zM50 216.018c-5.52 0-10 4.48-10 10s4.48 10 10 10 10-4.48 10-10-4.48-10-10-10z"/><path d="M472 159.443V56.018c0-10.681-4.162-20.725-11.719-28.281C452.723 20.18 442.68 16.018 432 16.018c-22.056 0-40 17.944-40 40v4.936c-86.065 62.104-196.293 73.331-202.829 75.064H90c-49.534 0-90 40.074-90 90 0 46.63 35.648 85.089 81.122 89.562 5.241 96.309 19.958 149.463 20.064 150.104 8.171 32.812 46.306 38.98 67.553 18.47 9.925-9.581 13.613-23.251 10.139-37.541-1.755-8.368-9.125-35.234-14.514-90.595H190c5.523 0 10-4.478 10-10v-28.195c2.689.733 109.207 13.514 192 73.259v4.936c0 22.097 17.898 40 40 40 22.056 0 40-17.944 40-40V272.593c23.6-8.351 40-30.959 40-56.575 0-25.616-16.4-48.223-40-56.575zM154.849 469.764c-9.616 9.279-29.674 9.488-34.257-8.922-.155-.931-14.142-50.544-19.415-144.824h40.07a1084.05 1084.05 0 0 0 2.19 30.867c4.03 46.83 9.513 76.646 15.835 103.693l.135.607c2.353 9.448-1.179 15.318-4.558 18.579zM180 336.018h-17.377c-.505-6.587-.954-13.267-1.345-20H180v20zm0-40H90c-38.598 0-70-31.401-70-70 0-38.525 31.168-70 70-70h90v140zm212 70.822c-87.383-57.155-187.188-68.031-192-69.294V154.49c5.049-1.325 104.58-12.115 192-69.292V366.84zm60 29.178c0 11.028-8.972 20-20 20-11.043 0-20-8.952-20-20v-340c0-11.028 8.972-20 20-20 5.338 0 10.359 2.082 14.139 5.861A19.867 19.867 0 0 1 452 56.018v340zm20-145.362V181.38c12.068 7.001 20 20.089 20 34.638s-7.932 27.636-20 34.638z"/><path d="M335.747 150.631c-2.093-5.111-7.934-7.561-13.043-5.467-25.951 10.617-64.199 18.804-94.622 24.75-5.42 1.06-8.956 6.313-7.896 11.732.933 4.773 5.117 8.084 9.804 8.084a10.1 10.1 0 0 0 1.929-.188c31.318-6.121 70.8-14.593 98.359-25.869 5.112-2.091 7.56-7.93 5.469-13.042zM150 176.018H90c-5.523 0-10 4.478-10 10s4.477 10 10 10h60c5.523 0 10-4.478 10-10s-4.477-10-10-10zM150 216.018H90c-5.523 0-10 4.478-10 10s4.477 10 10 10h60c5.523 0 10-4.478 10-10s-4.477-10-10-10zM150 256.018H90c-5.523 0-10 4.478-10 10s4.477 10 10 10h60c5.523 0 10-4.478 10-10s-4.477-10-10-10z"/></svg>