<svg xmlns="http://www.w3.org/2000/svg" viewBox="0 0 512 512" fill="#4c5467"><path d="M416 352c-5.52 0-10 4.48-10 10s4.48 10 10 10 10-4.48 10-10-4.48-10-10-10zM256 352c-5.52 0-10 4.48-10 10s4.48 10 10 10 10-4.48 10-10-4.48-10-10-10zM76 106c-5.52 0-10 4.48-10 10s4.48 10 10 10 10-4.48 10-10-4.48-10-10-10z"/><path d="M454.743 301.362c-16.373-27.55-36.631-49.257-58.584-63.149.357-.325.708-.658 1.052-1.001C402.879 231.543 406 224.01 406 216a29.83 29.83 0 0 0-2.121-11.057C416.61 201.473 426 189.815 426 176c0-7.457-2.708-14.499-7.655-20.009C423.101 150.68 426 143.673 426 136c0-7.453-2.705-14.491-7.647-20 4.942-5.509 7.647-12.547 7.647-20 0-16.542-13.458-30-30-30h-22.473l12.224-53.784A9.998 9.998 0 0 0 376 0h-80a9.999 9.999 0 0 0-9.751 12.218l3.567 15.694-23.467 11.734a111.897 111.897 0 0 0-29.139 21.003c-13.968 13.966-31.873 22.549-51.21 24.76V76c0-5.523-4.477-10-10-10H36c-5.523 0-10 4.477-10 10v160c0 5.523 4.477 10 10 10h140c5.523 0 10-4.477 10-10v-10h3.68c16.385 0 32.578 2.627 48.125 7.806a237.056 237.056 0 0 0 32.234 8.29c-19.715 13.911-37.862 34.161-52.781 59.266C197.685 334.296 186 371.918 186 402c0 33.631 14.455 61.732 41.802 81.267C254.117 502.064 291.531 512 336 512s81.883-9.936 108.197-28.733C471.545 463.732 486 435.631 486 402c0-30.083-11.685-67.704-31.257-100.638zM166 106h-50c-5.523 0-10 4.477-10 10s4.477 10 10 10h50v100H46V86h120v20zm197.473-86l-10.455 46h-34.035l-10.454-46h54.944zM244.131 214.833A171.977 171.977 0 0 0 189.68 206H186V105.534c24.69-2.282 47.601-12.993 65.352-30.743a91.962 91.962 0 0 1 23.94-17.257l19.087-9.543L298.472 66H296c-5.522 0-10 4.477-10 10s4.478 10 10 10h100c5.514 0 10 4.486 10 10a9.93 9.93 0 0 1-2.931 7.068A9.93 9.93 0 0 1 396 106h-40c-5.522 0-10 4.477-10 10s4.478 10 10 10h40c5.521 0 10 4.479 10 10 0 5.514-4.486 10-10 10h-40c-5.522 0-10 4.477-10 10s4.478 10 10 10h40c5.521 0 10 4.479 10 10 0 5.514-4.486 10-10 10h-40c-5.522 0-10 4.477-10 10s4.478 10 10 10h20c5.514 0 10 4.486 10 10 0 5.522-4.479 10-10 10h-63.08c-3.141 0-6.402-.074-9.697-.22a216.955 216.955 0 0 1-59.092-10.947zm188.441 252.16C409.67 483.353 376.275 492 336 492c-40.275 0-73.67-8.647-96.573-25.007C217.559 451.372 206 428.898 206 402c0-26.642 10.636-60.443 28.45-90.42 19.44-32.71 44.446-55.995 70.53-65.731 2.687.09 5.354.151 7.939.151h54.503c25.94 9.825 50.788 33.038 70.128 65.58C455.364 341.556 466 375.358 466 402c0 26.898-11.559 49.372-33.428 64.993z"/><path d="M341.178 353.875c-14.907-7.879-24.678-13.609-24.678-21.165 0-11.028 8.972-20 20-20s20 8.972 20 20c0 5.523 4.478 10 10 10s10-4.477 10-10c0-18.604-12.767-34.282-30-38.734V282.71c0-5.523-4.478-10-10-10s-10 4.477-10 10v11.266c-17.233 4.452-30 20.13-30 38.734 0 20.171 18.771 30.093 35.331 38.847 14.901 7.877 24.669 13.604 24.669 21.153 0 11.028-8.972 20-20 20s-20-8.972-20-20c0-5.523-4.478-10-10-10s-10 4.477-10 10c0 18.604 12.767 34.282 30 38.734v11.266c0 5.523 4.478 10 10 10s10-4.477 10-10v-11.266c17.233-4.452 30-20.13 30-38.734 0-20.164-18.766-30.083-35.322-38.835z"/></svg>