<svg xmlns="http://www.w3.org/2000/svg" viewBox="0 0 512 512" fill="#4c5467"><path d="M256 236c-5.52 0-10 4.48-10 10s4.48 10 10 10 10-4.48 10-10-4.48-10-10-10z"/><path d="M502 76h-30V46c0-5.523-4.478-10-10-10H304.28c-17.729 0-34.558 5.855-48.28 16.649C242.277 41.855 225.448 36 207.72 36H50c-5.522 0-10 4.477-10 10v30H10C4.478 76 0 80.477 0 86v340c0 5.523 4.478 10 10 10h181.28c11.436 0 21.718 6.354 26.835 16.582A42.368 42.368 0 0 0 256 476c15.84 0 30.632-8.912 37.882-23.413a30.074 30.074 0 0 1 11.058-12.105 30.046 30.046 0 0 1 15.78-4.481H502c5.522 0 10-4.477 10-10V86c0-5.523-4.478-10-10-10zM60 56h147.72c14.227 0 27.667 5.078 38.28 14.354V206c0 5.523 4.478 10 10 10s10-4.477 10-10V70.354C276.613 61.078 290.053 56 304.28 56H452v320H304.28c-13.628 0-26.718 3.472-38.28 9.976V286c0-5.523-4.478-10-10-10s-10 4.477-10 10v99.976c-11.563-6.503-24.652-9.976-38.28-9.976H60V56zm432 360H320.72a50.045 50.045 0 0 0-26.295 7.469 50.092 50.092 0 0 0-18.429 20.168C272.268 451.094 264.584 456 256 456a22.371 22.371 0 0 1-19.997-12.365C227.474 426.589 210.338 416 191.28 416H20V96h20v290c0 5.523 4.478 10 10 10h157.72c15.566 0 30.201 6.063 41.209 17.071a10.001 10.001 0 0 0 14.142 0C274.079 402.063 288.714 396 304.28 396H462c5.522 0 10-4.477 10-10V96h20v320z"/><path d="M216 96H90c-5.522 0-10 4.477-10 10v60c0 5.523 4.478 10 10 10h126c5.522 0 10-4.477 10-10v-60c0-5.523-4.478-10-10-10zm-10 60H100v-40h106v40zM422 96H296c-5.522 0-10 4.477-10 10v60c0 5.523 4.478 10 10 10h126c5.522 0 10-4.477 10-10v-60c0-5.523-4.478-10-10-10zm-10 60H306v-40h106v40zM216 196H90c-5.522 0-10 4.477-10 10s4.478 10 10 10h126c5.522 0 10-4.477 10-10s-4.478-10-10-10zM422 196H296c-5.522 0-10 4.477-10 10s4.478 10 10 10h126c5.522 0 10-4.477 10-10s-4.478-10-10-10zM216 236H90c-5.522 0-10 4.477-10 10s4.478 10 10 10h126c5.522 0 10-4.477 10-10s-4.478-10-10-10zM216 276H90c-5.522 0-10 4.477-10 10s4.478 10 10 10h126c5.522 0 10-4.477 10-10s-4.478-10-10-10zM216 316H90c-5.522 0-10 4.477-10 10s4.478 10 10 10h126c5.522 0 10-4.477 10-10s-4.478-10-10-10zM422 236H296c-5.522 0-10 4.477-10 10s4.478 10 10 10h126c5.522 0 10-4.477 10-10s-4.478-10-10-10zM422 276H296c-5.522 0-10 4.477-10 10s4.478 10 10 10h126c5.522 0 10-4.477 10-10s-4.478-10-10-10zM422 316H296c-5.522 0-10 4.477-10 10s4.478 10 10 10h126c5.522 0 10-4.477 10-10s-4.478-10-10-10z"/></svg>