<svg xmlns="http://www.w3.org/2000/svg" viewBox="0 0 512 512" fill="#4c5467"><path d="M155.999 370.002c-5.52 0-10 4.48-10 10s4.48 10 10 10 10-4.48 10-10-4.48-10-10-10z"/><path d="M450.143 190.001l58.929-58.929a10 10 0 0 0-4.122-16.626l-143.5-44.29C348.514 28.575 310.066.002 265.999.002c-40.964 0-77.6 24.965-92.763 62.625L7.022 114.455a10 10 0 0 0-4.094 16.618l60.479 60.479-38.144 63.575a10.001 10.001 0 0 0 5.413 14.632l55.323 18.44v153.802a10 10 0 0 0 6.489 9.363c33.827 12.684 159.512 59.822 160.187 60.061a9.962 9.962 0 0 0 6.398.089c.029-.01.059-.016.088-.026l180-60a10.001 10.001 0 0 0 6.838-9.487v-157.92l58.998-18.54a10 10 0 0 0 4.074-16.611l-58.928-58.929zm-84.144-89.999c0-2.541-.107-5.076-.298-7.603l117.494 36.265-49.897 49.896-81.528-27.173c9.232-15.431 14.229-33.237 14.229-51.385zM190.326 73.974c11.101-32.282 41.512-53.972 75.673-53.972 36.801 0 68.719 24.892 77.618 60.532a80.446 80.446 0 0 1 2.382 19.468c0 18.574-6.164 35.983-17.828 50.352-15.277 18.842-37.938 29.648-62.172 29.648-26.196 0-50.767-12.858-65.733-34.404-9.333-13.406-14.267-29.174-14.267-45.596 0-8.931 1.455-17.688 4.327-26.028zM28.764 128.625l138.3-43.124a100.825 100.825 0 0 0-1.065 14.5c0 16.101 3.814 31.696 11.084 45.767L78.7 178.56l-49.936-49.935zm20.063 126.102l31.62-52.702 160.563 53.521-31.619 52.702-160.564-53.521zm197.172 232.845l-140-52.5V294.866c110.15 36.522 104.771 35.407 107.838 35.407 3.438 0 6.73-1.779 8.577-4.856l23.585-39.311v201.466zm10-248.111l-148.376-49.458 80.794-26.93c18.91 23.247 47.377 36.929 77.582 36.929 27.942 0 54.203-11.499 73.092-31.759l65.284 21.759-148.376 49.459zm170 195.333l-160 53.333v-209.62l35.451 44.31a10.002 10.002 0 0 0 10.807 3.293l113.742-35.743v144.427zM312.791 304.979l-40.024-50.026 160.531-53.51 49.964 49.964-170.471 53.572z"/><path d="M219.511 392.198l-22.24-8.34c-5.171-1.938-10.935.681-12.875 5.852-1.939 5.172.681 10.936 5.852 12.875l22.24 8.34c5.182 1.942 10.939-.69 12.875-5.852 1.939-5.171-.681-10.936-5.852-12.875zM219.51 434.918l-60-22.5c-5.171-1.939-10.935.681-12.875 5.852-1.94 5.171.681 10.936 5.852 12.875l60 22.5a9.975 9.975 0 0 0 3.51.64c4.049 0 7.859-2.477 9.365-6.492 1.94-5.172-.68-10.936-5.852-12.875zM323.071 62.93c-3.905-3.906-10.237-3.905-14.143 0l-52.929 52.93-12.929-12.929c-3.905-3.905-10.237-3.905-14.143 0-3.906 3.905-3.905 10.237 0 14.143l20.001 19.999c3.905 3.905 10.237 3.905 14.143 0l60-60c3.905-3.905 3.905-10.237 0-14.143z"/></svg>