<svg xmlns="http://www.w3.org/2000/svg" viewBox="0 0 512 512" fill="#4c5467"><path d="M316 60c-5.52 0-10 4.48-10 10s4.48 10 10 10 10-4.48 10-10-4.48-10-10-10zM316 260c-5.52 0-10 4.48-10 10s4.48 10 10 10 10-4.48 10-10-4.48-10-10-10zM196 160c-5.52 0-10 4.48-10 10s4.48 10 10 10 10-4.48 10-10-4.48-10-10-10zM416 260h-60c-5.522 0-10 4.478-10 10s4.478 10 10 10h60c5.522 0 10-4.478 10-10s-4.478-10-10-10z"/><path d="M453.071 222.928A10.006 10.006 0 0 0 446 220H286v-80h160c2.652 0 5.195-1.054 7.071-2.929l50-50c3.905-3.905 3.905-10.237 0-14.143l-50-50A10.006 10.006 0 0 0 446 20H286V10c0-5.522-4.478-10-10-10h-40c-5.522 0-10 4.478-10 10v110H66a10.003 10.003 0 0 0-7.071 2.929l-50 50c-3.905 3.905-3.905 10.237 0 14.143l50 50A10.006 10.006 0 0 0 66 240h160v212h-10c-24.146 0-44.348 17.205-48.994 40H136c-5.522 0-10 4.478-10 10s4.478 10 10 10h240c5.522 0 10-4.478 10-10s-4.478-10-10-10h-31.006c-4.646-22.795-24.847-40-48.994-40h-10V340h160c2.652 0 5.195-1.054 7.071-2.929l50-50c3.905-3.905 3.905-10.237 0-14.143l-50-50zM286 40h155.857l40 40-40 40H286V40zm-40-20h20v432h-20V20zM70.143 220l-40-40 40-40H226v80H70.143zM296 472c13.036 0 24.152 8.361 28.28 20H187.72c4.128-11.639 15.243-20 28.28-20h80zm145.857-152H286v-80h155.857l40 40-40 40z"/><path d="M416 60h-60c-5.522 0-10 4.478-10 10s4.478 10 10 10h60c5.522 0 10-4.478 10-10s-4.478-10-10-10zM156 160H96c-5.522 0-10 4.478-10 10s4.478 10 10 10h60c5.522 0 10-4.478 10-10s-4.478-10-10-10z"/></svg>