<svg xmlns="http://www.w3.org/2000/svg" viewBox="0 0 512.001 512.001" fill="#4c5467"><path d="M480.88 247.271l-440-246a10.001 10.001 0 0 0-14.201 12.35l76.703 197.509-71.853 35.926a10 10 0 0 0-.001 17.889l71.853 35.926L26.679 498.38a10 10 0 0 0 14.201 12.349l440-246a10.001 10.001 0 0 0 0-17.458zM55.386 32.296l370.813 207.318c-95.578-9.452-207.479-22.26-303.071-32.883L55.386 32.296zm0 447.409l67.742-174.435 54.117-6.011c5.488-.61 9.444-5.554 8.834-11.043-.608-5.49-5.571-9.437-11.042-8.835l-57.205 6.354L58.361 256l59.471-29.735c2.986.332 237.605 26.273 259.24 28.502-35.794 3.517-78.166 8.461-120.26 15.541-5.447.916-9.119 6.074-8.203 11.52s6.08 9.124 11.52 8.203c64.25-10.806 129.396-16.597 170.147-19.924L55.386 479.705z"/><path d="M225.75 283.801c-1-4.46-4.99-7.8-9.75-7.8-5.52 0-10 4.48-10 10s4.48 10 10 10 10-4.48 10-10c0-.76-.08-1.49-.25-2.2z"/></svg>