<svg xmlns="http://www.w3.org/2000/svg" viewBox="0 0 512 512" fill="#4c5467"><path d="M209.5 326c-5.52 0-10 4.48-10 10s4.48 10 10 10 10-4.48 10-10-4.48-10-10-10z"/><path d="M482 0H262c-16.542 0-30 13.458-30 30v76H30c-16.542 0-30 13.458-30 30v220c0 16.542 13.458 30 30 30h202v96c0 16.542 13.458 30 30 30h220c16.542 0 30-13.458 30-30V30c0-16.542-13.458-30-30-30zM20 136c0-5.514 4.486-10 10-10h320c5.514 0 10 4.486 10 10v30H20v-30zm0 50h340v40H20v-40zm10 180c-5.514 0-10-4.486-10-10V246h340v110c0 5.514-4.486 10-10 10H30zm462 116c0 5.514-4.486 10-10 10H262c-5.514 0-10-4.486-10-10v-50h240v50zm0-70H252v-26h98c16.542 0 30-13.458 30-30V136c0-16.542-13.458-30-30-30h-98V80h240v332zm0-352H252V30c0-5.514 4.486-10 10-10h220c5.514 0 10 4.486 10 10v30z"/><path d="M382 452h-20c-5.522 0-10 4.478-10 10s4.478 10 10 10h20c5.522 0 10-4.478 10-10s-4.478-10-10-10zM330 286h-40c-5.522 0-10 4.478-10 10s4.478 10 10 10h40c5.522 0 10-4.478 10-10s-4.478-10-10-10zM250 286h-40c-5.522 0-10 4.478-10 10s4.478 10 10 10h40c5.522 0 10-4.478 10-10s-4.478-10-10-10zM170 286h-40c-5.522 0-10 4.478-10 10s4.478 10 10 10h40c5.522 0 10-4.478 10-10s-4.478-10-10-10zM90 286H50c-5.522 0-10 4.478-10 10s4.478 10 10 10h40c5.522 0 10-4.478 10-10s-4.478-10-10-10zM330 326h-80c-5.522 0-10 4.478-10 10s4.478 10 10 10h80c5.522 0 10-4.478 10-10s-4.478-10-10-10z"/></svg>