<svg xmlns="http://www.w3.org/2000/svg" viewBox="0 0 512 512" fill="#4c5467"><path d="M116 256c-5.52 0-10 4.48-10 10s4.48 10 10 10 10-4.48 10-10-4.48-10-10-10z"/><path d="M482 236h-20.626c-4.577-20.146-12.581-39.209-23.866-56.835l27.777-69.451A10.002 10.002 0 0 0 456 96c-26.531 0-51.441 11.646-68.461 31.597a178.867 178.867 0 0 0-42.177-21.481c.424-3.352.638-6.732.638-10.116 0-44.112-35.888-80-80-80s-80 35.888-80 80c0 3.863.285 7.702.83 11.491-66.437 24.173-115.741 83.981-120.439 156.543a184.86 184.86 0 0 0-.381 11.115c-12.35-2.005-24.922-7.35-31.366-13.788C25.201 251.91 20 239.352 20 226c0-13.124 5.1-25.819 14.641-35.358 3.905-3.905 3.905-10.237 0-14.143-3.905-3.904-10.237-3.904-14.143 0C7.701 189.298 0 206.864 0 226c0 18.69 7.279 36.269 20.502 49.504 11.753 11.742 30.774 18.148 46.541 19.955 2.84 26.425 11.471 51.798 25.531 74.648 17.824 28.968 43.121 52.06 73.427 67.105V466c0 16.542 13.458 30 30 30h20c16.542 0 30-13.458 30-30v-10h40c6.586 0 13.277-.385 20-1.148V466c0 16.542 13.458 30 30 30h20c16.542 0 30-13.458 30-30v-40.373c32.368-21.673 56.826-53.128 69.727-89.627H482c16.542 0 30-13.458 30-30v-40c0-16.542-13.458-30-30-30zM266 36c33.084 0 60 26.916 60 60 0 33.378-27.022 60-60 60-33.035 0-60-26.793-60-60 0-33.084 26.916-60 60-60zm226 270c0 5.514-4.486 10-10 10h-33.5a10 10 0 0 0-9.559 7.063c-11.271 36.676-35.508 68.159-68.247 88.651a10.001 10.001 0 0 0-4.694 8.477V466c0 5.514-4.486 10-10 10h-20c-5.514 0-10-4.486-10-10v-22.71a9.998 9.998 0 0 0-11.757-9.845C304.747 435.141 295.244 436 286 436c-43.262-.143-38.279.261-46.325-.3-1.035-.072-2.069-.145-3.107-.203a9.959 9.959 0 0 0-7.435 2.714c-2 1.89-3.133 4.519-3.133 7.27V466c0 5.514-4.486 10-10 10h-20c-5.514 0-10-4.486-10-10v-35.11a9.998 9.998 0 0 0-5.875-9.109c-61.321-27.765-98.13-89.177-93.775-156.454 4.03-62.251 45.278-115.875 105.821-138.49 4.738 11.356 11.98 21.268 20.953 29.164H196c-5.523 0-10 4.478-10 10s4.477 10 10 10h140c5.523 0 10-4.478 10-10s-4.477-10-10-10h-17.073c9.287-8.184 16.715-18.533 21.434-30.426 15.447 5.625 29.911 13.603 43.082 23.788a10.009 10.009 0 0 0 7.713 1.961 10.003 10.003 0 0 0 6.702-4.292c10.12-15.05 25.442-25.401 42.682-29.305l-23.545 58.87a10.001 10.001 0 0 0 1.021 9.346c12.861 18.869 21.387 39.667 25.339 61.815a10 10 0 0 0 9.844 8.243H482c5.514 0 10 4.486 10 10V306z"/><path d="M196.616 385.331c-34.426-15.591-59.016-45.382-67.465-81.734-1.25-5.379-6.625-8.725-12.004-7.477-5.379 1.25-8.727 6.625-7.477 12.004 9.869 42.465 38.553 77.246 78.695 95.426 5.031 2.28 10.957.047 13.235-4.984 2.278-5.031.046-10.957-4.984-13.235zM376 216c-16.542 0-30 13.458-30 30s13.458 30 30 30 30-13.458 30-30-13.458-30-30-30zm0 40c-5.514 0-10-4.486-10-10s4.486-10 10-10 10 4.486 10 10-4.486 10-10 10zM266 66c-5.523 0-10 4.478-10 10v40c0 5.522 4.477 10 10 10s10-4.478 10-10V76c0-5.522-4.477-10-10-10z"/></svg>