<svg xmlns="http://www.w3.org/2000/svg" viewBox="0 0 512 512" fill="#4c5467"><path d="M236 452c-5.52 0-10 4.48-10 10s4.48 10 10 10 10-4.48 10-10-4.479-10-10-10z"/><path d="M511.992 269.834c-.09-5.691 1.547.424-74.278-114.29C446.279 150.254 452 140.784 452 130c0-49.626-40.374-90-90-90h-77.72A29.857 29.857 0 0 0 286 30c0-16.542-13.458-30-30-30s-30 13.458-30 30c0 3.506.61 6.87 1.72 10H150c-46.859 0-86.283 36.58-89.753 83.278a10.01 10.01 0 0 0 .09 2.23A30.131 30.131 0 0 0 60 130c0 10.784 5.722 20.254 14.287 25.542C.878 266.819 0 263.876 0 270v.021l.003.105C.073 297.638 22.472 320 50 320h80c27.467 0 49.931-22.201 49.997-49.878l.002-.1v-.021c0-6.585-3.694-7.06-74.287-114.458C114.279 150.254 120 140.784 120 130c0-16.542 13.458-30 30-30h76v246.226c-10.849 1.268-20.172 8.284-24.313 18.626-.028.07-.056.141-.082.212L169.065 452H116c-16.542 0-30 13.458-30 30v20c0 5.522 4.478 10 10 10h320c5.522 0 10-4.478 10-10v-20c0-16.542-13.458-30-30-30h-53.065l-32.539-86.936a7.737 7.737 0 0 0-.082-.212c-4.142-10.342-13.464-17.358-24.313-18.626V100h76c16.542 0 30 13.458 30 30 0 10.784 5.722 20.254 14.287 25.542C336.477 261.393 332 263.5 332 270v.021l.003.105C332.073 297.638 354.472 320 382 320h80c27.467 0 49.931-22.201 49.997-49.878l.002-.1v-.021c.001-.057-.007-.111-.007-.167zM432 130c0 5.514-4.486 10-10 10s-10-4.486-10-10 4.486-10 10-10c5.515 0 10 4.486 10 10zM256 20c5.514 0 10 4.486 10 10s-4.486 10-10 10-10-4.486-10-10 4.487-10 10-10zm-10 50c0-5.514 4.486-10 10-10s10 4.486 10 10v276h-20V70zM80.445 127.032C81.74 122.892 85.669 120 90 120c5.514 0 10 4.486 10 10s-4.486 10-10 10-10-4.486-10-10c0-1.012.154-2.021.445-2.968zM130 300H50c-13.037 0-24.159-8.459-28.286-20.1h136.584C154.096 291.81 142.974 300 130 300zm21.315-40H28.685L90 168.027 151.315 260zM150 80c-18.499 0-34.671 10.106-43.319 25.079A29.826 29.826 0 0 0 90 100a30.42 30.42 0 0 0-3.294.2C98.001 76.408 122.328 59.9 150 59.9h77.72a29.857 29.857 0 0 0-1.72 10V80h-76zm141.711 292.2L321.58 452H276c-5.522 0-10 4.478-10 10s4.478 10 10 10h120c5.514 0 10 4.486 10 10v10H106v-10c0-5.514 4.486-10 10-10h80c5.522 0 10-4.478 10-10s-4.478-10-10-10h-5.58l29.869-79.8a9.957 9.957 0 0 1 9.251-6.2h52.92a9.957 9.957 0 0 1 9.251 6.2zM405.32 105.079C396.672 90.106 380.5 80 362 80h-76V70c0-3.506-.61-6.87-1.72-10H362c27.941 0 52.1 16.46 63.317 40.188a29.825 29.825 0 0 0-19.997 4.891zM422 168.027L483.315 260h-122.63L422 168.027zM462 300h-80c-13.037 0-24.159-8.459-28.286-20.1h136.584C486.096 291.81 474.974 300 462 300z"/></svg>