<svg xmlns="http://www.w3.org/2000/svg" viewBox="0 0 512.001 512.001" fill="#4c5467"><path d="M322.005 0C217.242 0 132.01 85.232 132.01 189.995c0 39.969 12.773 79.196 36.119 111.445l-33.405 33.405c-11.148-5.309-24.917-3.362-34.134 5.855l-85.925 85.936c-19.543 19.531-19.559 51.159-.005 70.7 19.539 19.551 51.161 19.555 70.702.003l85.939-85.929c9.216-9.217 11.164-22.986 5.854-34.134l33.395-33.402c32.521 23.655 70.861 36.116 111.455 36.116C426.769 379.99 512 294.758 512 189.995S426.768 0 322.005 0zM157.158 397.268l-85.941 85.93c-11.719 11.728-30.683 11.737-42.416-.005-11.728-11.719-11.735-30.685.002-42.414l85.927-85.938c3.897-3.897 10.24-3.899 14.138 0l28.289 28.289c3.899 3.898 3.899 10.24.001 14.138zm7.07-35.351l-14.147-14.147 30.695-30.695a191.6 191.6 0 0 0 14.143 14.144l-30.691 30.698zm157.777-1.927c-54.698 0-102.084-25.486-132.826-63.893C164.862 265.69 152.01 229 152.01 189.996 152.01 96.26 228.27 20 322.005 20S492 96.26 492 189.996 415.74 359.99 322.005 359.99z"/><path d="M322.005 39.999c-82.708 0-149.996 67.288-149.996 149.996s67.288 149.996 149.996 149.996 149.996-67.288 149.996-149.996S404.713 39.999 322.005 39.999zm0 279.992c-71.681 0-129.996-58.316-129.996-129.996S250.324 59.998 322.005 59.998s129.996 58.316 129.996 129.996-58.316 129.997-129.996 129.997z"/><path d="M327.183 181.87c-14.907-7.879-24.677-13.609-24.677-21.164 0-11.028 8.971-19.999 19.999-19.999 11.028 0 19.999 8.972 19.999 19.999 0 5.523 4.478 10 10 10s10-4.477 10-10c0-18.604-12.767-34.281-29.999-38.733v-11.266c0-5.523-4.478-10-10-10s-10 4.477-10 10v11.266c-17.233 4.452-29.999 20.129-29.999 38.733 0 20.17 18.771 30.092 35.33 38.846 14.901 7.877 24.668 13.604 24.668 21.152 0 11.028-8.972 19.999-19.999 19.999-11.028 0-19.999-8.972-19.999-19.999 0-5.523-4.478-10-10-10s-10 4.477-10 10c0 18.603 12.767 34.281 29.999 38.733v11.266c0 5.523 4.478 10 10 10s10-4.477 10-10v-11.266c17.233-4.452 29.999-20.129 29.999-38.733 0-20.163-18.766-30.082-35.321-38.834z"/></svg>