<svg xmlns="http://www.w3.org/2000/svg" viewBox="0 0 512.001 512.001" fill="#4c5467"><path d="M356 145.993c-5.52 0-10 4.48-10 10s4.48 10 10 10 10-4.48 10-10-4.48-10-10-10zM156 345.993c-5.52 0-10 4.48-10 10s4.48 10 10 10 10-4.48 10-10-4.48-10-10-10z"/><path d="M508.532 214.332a10.001 10.001 0 0 0-9.862-8.34h-38.684c-5.079-20.77-13.275-40.497-24.447-58.838l29.082-29.081a10.002 10.002 0 0 0 1.073-12.875 251.076 251.076 0 0 0-58.9-58.9 10.002 10.002 0 0 0-12.875 1.073l-29.081 29.082C346.497 65.282 326.77 57.084 306 52.006V13.323a10 10 0 0 0-8.34-9.861c-27.347-4.604-55.973-4.604-83.319 0A10 10 0 0 0 206 13.323v38.683c-20.778 5.08-40.508 13.278-58.839 24.446l-29.08-29.081a10 10 0 0 0-12.875-1.073 251.076 251.076 0 0 0-58.9 58.9 10.002 10.002 0 0 0 1.073 12.875l29.082 29.081c-11.172 18.341-19.368 38.068-24.447 58.838H13.33a10 10 0 0 0-9.861 8.34A251.685 251.685 0 0 0 0 255.993c0 13.97 1.167 27.986 3.469 41.66a10 10 0 0 0 9.861 8.34h38.683c5.08 20.778 13.278 40.508 24.446 58.839l-29.081 29.08a10.002 10.002 0 0 0-1.073 12.875 251.076 251.076 0 0 0 58.9 58.9 10.001 10.001 0 0 0 12.875-1.073l29.081-29.082C165.503 446.704 185.23 454.9 206 459.978v38.684a10 10 0 0 0 8.34 9.861c13.671 2.302 27.688 3.469 41.66 3.469s27.989-1.167 41.66-3.469a10 10 0 0 0 8.34-9.861V459.98c20.778-5.08 40.508-13.278 58.839-24.446l29.08 29.081a10.003 10.003 0 0 0 12.875 1.073 251.076 251.076 0 0 0 58.9-58.9 10.002 10.002 0 0 0-1.073-12.875L435.54 364.83c11.172-18.341 19.368-38.068 24.447-58.838h38.684a10 10 0 0 0 9.861-8.34 251.664 251.664 0 0 0 3.469-41.66c0-13.97-1.167-27.985-3.469-41.66zm-18.478 71.661H451.98a10 10 0 0 0-9.799 8.006c-4.855 23.854-14.18 46.298-27.715 66.708a10.001 10.001 0 0 0 1.263 12.598l28.658 28.658a230.923 230.923 0 0 1-42.417 42.417l-28.658-28.658a9.998 9.998 0 0 0-12.6-1.261c-20.395 13.532-42.837 22.856-66.706 27.714a10 10 0 0 0-8.006 9.799v38.074a232.988 232.988 0 0 1-60 0v-38.074a10 10 0 0 0-8.006-9.799c-23.854-4.855-46.298-14.18-66.708-27.715a9.998 9.998 0 0 0-12.598 1.263l-28.658 28.658a230.923 230.923 0 0 1-42.417-42.417l28.658-28.658a10 10 0 0 0 1.261-12.6C84 340.311 74.676 317.868 69.818 294a10 10 0 0 0-9.799-8.006H21.946a232.307 232.307 0 0 1 0-60H60.02a10 10 0 0 0 9.799-8.006c4.855-23.854 14.18-46.298 27.715-66.708a10.001 10.001 0 0 0-1.263-12.598l-28.658-28.658a230.928 230.928 0 0 1 42.418-42.417l28.658 28.658a10 10 0 0 0 12.6 1.261c20.395-13.532 42.837-22.856 66.706-27.714a10 10 0 0 0 8.006-9.799V21.939a232.988 232.988 0 0 1 60 0v38.074a10 10 0 0 0 8.006 9.799c23.854 4.855 46.298 14.18 66.708 27.715a10.001 10.001 0 0 0 12.598-1.263l28.658-28.658a230.923 230.923 0 0 1 42.417 42.417l-28.658 28.658a10.001 10.001 0 0 0-1.263 12.598c13.535 20.41 22.86 42.853 27.715 66.708a10 10 0 0 0 9.799 8.006h38.074a232.307 232.307 0 0 1 1.946 30 232.32 232.32 0 0 1-1.947 30z"/><path d="M327.972 124.405c-21.947-12.047-46.835-18.414-71.972-18.414-82.71 0-150 67.29-150 150 0 25.137 6.367 50.024 18.414 71.972 2.665 4.857 8.751 6.604 13.578 3.955 4.842-2.657 6.612-8.736 3.955-13.578C131.514 299.335 126 277.775 126 255.993c0-71.682 58.318-130 130-130 21.782 0 43.342 5.514 62.349 15.946 4.84 2.657 10.921.888 13.578-3.955 2.658-4.842.887-10.92-3.955-13.579zM387.586 184.022c-2.657-4.843-8.736-6.613-13.578-3.955-4.842 2.657-6.612 8.736-3.955 13.578C380.486 212.65 386 234.211 386 255.993c0 71.682-58.318 130-130 130-21.782 0-43.342-5.514-62.349-15.946-4.839-2.656-10.92-.887-13.578 3.955-2.658 4.841-.887 10.92 3.955 13.578 21.947 12.047 46.835 18.414 71.972 18.414 82.71 0 150-67.29 150-150 0-25.138-6.367-50.024-18.414-71.972z"/><path d="M256 145.993c-60.654 0-110 49.346-110 110s49.346 110 110 110 110-49.346 110-110-49.346-110-110-110zm0 200c-49.626 0-90-40.374-90-90s40.374-90 90-90 90 40.374 90 90c0 49.625-40.374 90-90 90z"/></svg>