<svg xmlns="http://www.w3.org/2000/svg" viewBox="0 0 512 512" fill="#4c5467"><path d="M466 89.94c0-5.522-4.478-10-10-10-.265 0-.525.02-.785.04C416.979 79.556 386 48.334 386 10c0-5.522-4.478-10-10-10H136c-5.522 0-10 4.478-10 10 0 38.598-31.402 70-70 70-5.522 0-10 4.478-10 10v165.39c0 125.726 79.21 174.786 149.097 218.071 19.606 12.145 38.126 23.614 54.801 36.461 1.798 1.386 3.95 2.078 6.103 2.078s4.305-.692 6.103-2.078c16.8-12.941 35.379-24.466 55.049-36.666C388.89 428.759 466 380.338 466 255.39V90l-.001-.03.001-.03zm-20 165.45c0 114.413-70.862 158.365-139.391 200.87-17.037 10.567-34.587 21.453-50.61 33.229-15.918-11.691-33.4-22.52-50.371-33.031C136.982 413.941 66 369.978 66 255.39V99.448c41.652-4.626 74.822-37.796 79.448-79.448h221.104c4.626 41.652 37.796 74.822 79.448 79.448V255.39z"/><path d="M256 86c-82.71 0-150 67.29-150 150s67.29 150 150 150 150-67.29 150-150S338.71 86 256 86zm0 280c-71.683 0-130-58.317-130-130s58.317-130 130-130 130 58.317 130 130-58.317 130-130 130z"/><path d="M260.677 227.875C245.771 219.995 236 214.266 236 206.71c0-11.028 8.972-20 20-20s20 8.972 20 20c0 5.522 4.478 10 10 10s10-4.478 10-10c0-18.604-12.767-34.282-30-38.734V156.71c0-5.522-4.478-10-10-10s-10 4.478-10 10v11.266c-17.233 4.452-30 20.13-30 38.734 0 20.172 18.771 30.093 35.331 38.847C266.232 253.434 276 259.161 276 266.71c0 11.028-8.972 20-20 20s-20-8.972-20-20c0-5.522-4.478-10-10-10s-10 4.478-10 10c0 18.604 12.767 34.282 30 38.734v11.266c0 5.522 4.478 10 10 10s10-4.478 10-10v-11.266c17.233-4.452 30-20.13 30-38.734 0-20.164-18.766-30.084-35.323-38.835z"/></svg>