<svg xmlns="http://www.w3.org/2000/svg" viewBox="0 0 512 512" fill="#4c5467"><path d="M416 426c-5.52 0-10 4.48-10 10s4.48 10 10 10 10-4.48 10-10-4.48-10-10-10z"/><path d="M446 47.432V30c0-16.542-13.458-30-30-30H96C79.458 0 66 13.458 66 30v17.432C.773 167.896.003 164.319 0 169.989V190c0 17.333 10.022 33.453 26 42.62V502c0 5.522 4.478 10 10 10h440c5.522 0 10-4.478 10-10V232.62c15.817-9.159 26-25.469 26-42.62v-20-.011c-.003-5.731-1.409-3.268-66-122.557zM485.088 160h-61.88L389.875 60h40.213l55 100zM346 180h60v10c0 16.542-13.458 30-30 30s-30-13.458-30-30v-10zm-1.529-20L327.805 60h40.987l33.333 100h-57.654zM86 30c0-5.514 4.486-10 10-10h320c5.514 0 10 4.486 10 10v10H86V30zm240 150v10c0 16.542-13.458 30-30 30s-30-13.458-30-30v-10h60zm-60-20V60h41.529l16.667 100H266zm-78.195 0l16.667-100H246v100h-58.195zM246 180v10c0 16.542-13.458 30-30 30s-30-13.458-30-30v-10h60zm-136.126-20l33.333-100h40.988l-16.667 100h-57.654zM166 180v10c0 16.542-13.458 30-30 30s-30-13.458-30-30v-10h60zM81.912 60h40.213L88.792 160h-61.88l55-100zM20 190v-10h66v10c0 15.701-15.729 30-33 30-4.354 0-8.866-.945-13.066-2.742C28.011 212.187 20 201.232 20 190zm186 302H106v-86h100v86zm0-106H106v-86h100v86zm260 106H226V290c0-5.522-4.478-10-10-10H96c-5.522 0-10 4.478-10 10v202H46V239.511c2.318.315 4.653.489 7 .489 13.161 0 26.465-5.214 36.498-14.306a54.065 54.065 0 0 0 6.01-6.413C104.602 231.822 119.36 240 136 240c16.339 0 30.87-7.878 40-20.035C185.13 232.122 199.661 240 216 240s30.87-7.878 40-20.035C265.13 232.122 279.661 240 296 240s30.87-7.878 40-20.035C345.13 232.122 359.661 240 376 240c16.64 0 31.398-8.178 40.492-20.719a54.142 54.142 0 0 0 6.01 6.413C432.535 234.786 445.839 240 459 240c2.342 0 4.677-.168 7-.485V492zm26-302c0 11.548-8.309 22.629-20.674 27.575-4.044 1.61-8.19 2.425-12.326 2.425-17.271 0-33-14.299-33-30v-10h66v10z"/><path d="M436 386h-10v-96c0-5.522-4.478-10-10-10H296c-5.522 0-10 4.478-10 10v96h-10c-5.522 0-10 4.478-10 10s4.478 10 10 10h160c5.522 0 10-4.478 10-10s-4.478-10-10-10zm-30 0H306v-86h100v86zM376 426h-80c-5.522 0-10 4.478-10 10s4.478 10 10 10h80c5.522 0 10-4.478 10-10s-4.478-10-10-10z"/></svg>