<svg xmlns="http://www.w3.org/2000/svg" viewBox="0 0 512 512" fill="#4c5467"><path d="M299.359 266.002c-5.52 0-10 4.48-10 10s4.48 10 10 10 10-4.48 10-10-4.481-10-10-10zM239.359 123.002c-5.52 0-10 4.48-10 10s4.48 10 10 10 10-4.48 10-10-4.481-10-10-10z"/><path d="M411.646 178.251c-15.378-46.131-46.09-86.391-86.495-113.402-9.031-29.961-31.399-53.916-59.541-63.301l-3.08-1.03a10.002 10.002 0 0 0-12.114 13.96c3.857 7.706 6.463 16.506 7.643 25.681l-5.772 5.772c-11.008 11.008-25.643 17.071-41.209 17.071h-11.72a10.032 10.032 0 0 0-8.878 5.409c-.021.04-.046.076-.066.116l-7.062 14.114c-6.275 12.559-18.896 20.36-32.936 20.36-4.406 0-8.801.511-13.056 1.517-8.673 2.046-13.957 5.405-16.584 6.598-19.381 9.684-31.42 29.159-31.42 50.825 0 15.685 5.791 25.013 12.143 37.695 6.706 13.215 20.078 21.425 34.897 21.425 6.105 0 11.983-1.392 17.477-4.138 15.345-7.682 34.263-8.317 50.859-.054l.034.018c.076.04.151.08.229.118 5.408 2.704 11.27 4.506 17.265 5.379-11.195 7.753-22.887 13.305-34.44 16.195-50.817 12.705-83.713 66.415-64.521 123.862l6.57 19.72a10 10 0 0 0 9.487 6.839h10v23h-10c-16.575 0-30 13.424-30 30a29.828 29.828 0 0 0 5.079 16.681C99.461 467.328 89.356 483.5 89.356 502c0 5.523 4.478 10 10 10h280c5.522 0 10-4.477 10-10 0-18.401-9.914-34.583-25.049-43.333 3.284-4.893 5.049-10.645 5.049-16.667 0-16.542-13.458-30-30-30h-10v-23h10.003v.002a9.998 9.998 0 0 0 9.486-6.837l4.191-12.57c2.502-7.507 4.764-15.412 6.757-23.592h39.565a10 10 0 0 0 9.806-8.038l9.341-46.683c7.339-36.737 4.839-77.936-6.859-113.031zm-43.99 313.751H111.073c4.127-11.641 15.249-20 28.286-20h200c13.289 0 24.269 8.585 28.297 20zm-28.297-60c5.513 0 10 4.485 10 10 0 5.521-4.478 10-10 10h-200c-5.514 0-10-4.486-10-10 0-5.521 4.478-10 10-10h200zm-170-20v-23h140v23h-140zm173.313-81.041a9.933 9.933 0 0 0-1.317 6.09c-4.031 17.633-8.06 28.284-9.203 31.949h-59.806c15.475-10.639 28.137-29.405 33.95-50.424 1.473-5.323-1.649-10.832-6.972-12.304-5.326-1.472-10.833 1.649-12.304 6.972-4.593 16.603-14.744 31.788-26.488 39.625L236.332 369h-89.764l-4.295-12.887c-15.364-45.99 10.526-88.161 50.402-98.13 24.835-6.213 49.858-22.344 70.578-45.465a56.805 56.805 0 0 0 17.989-20.931l7.06-14.11c2.471-4.939.471-10.946-4.469-13.417-4.939-2.471-10.946-.47-13.418 4.468l-7.061 14.112c-9.04 18.076-31.053 25.582-49.306 16.532l-.03-.016c-.074-.04-.149-.078-.224-.116-22.078-11.051-47.68-10.609-68.868-.002a18.915 18.915 0 0 1-8.528 2.024c-7.246 0-13.784-4.014-17.039-10.429l-.182-.363 23.343-7.781c5.239-1.747 8.071-7.41 6.325-12.649-1.747-5.24-7.408-8.072-12.649-6.325l-25.432 8.477c-4.745-16.717 2.718-34.872 18.972-42.994 2.86-1.319 6.306-3.619 12.224-5.015 2.754-.651 5.6-.981 8.458-.981 21.666 0 41.142-12.04 50.824-31.416l4.295-8.584h5.541c16.834 0 32.853-5.287 46.175-15.062-1.383 7.297-3.68 14.274-6.838 20.587-2.471 4.939-.471 10.946 4.469 13.417 4.939 2.471 10.946.471 13.418-4.468 9.995-19.978 13.117-44.913 8.174-68.286 15.031 10.463 26.267 26.969 30.81 46.203 1.376 5.845 2.073 11.769 2.073 17.608 0 1.075.173 2.143.514 3.163l24.189 72.569c9.864 29.593 15.297 64.137 15.297 97.268 0 20.904-2.159 42.911-6.687 64.96zm56.221-43.602l-7.731 38.642h-27.179c.45-2.531.883-5.068 1.278-7.609 2.72-17.549 4.099-35.176 4.099-52.391 0-35.224-5.797-72.014-16.323-103.592l-23.01-69.032c28.84 23.81 50.771 55.578 62.645 91.197 10.631 31.894 12.898 69.359 6.221 102.785z"/></svg>