<svg xmlns="http://www.w3.org/2000/svg" viewBox="0 0 512 512" fill="#4c5467"><path d="M256 246c-5.52 0-10 4.48-10 10s4.48 10 10 10 10-4.48 10-10-4.48-10-10-10z"/><path d="M462 412c-9.954 0-19.463 2.896-27.575 8.283l-37.253-37.253C427.512 349.364 446 304.853 446 256c0-46.368-16.808-91.455-48.829-127.029l37.254-37.254C442.536 97.104 452.046 100 462 100c27.57 0 50-22.43 50-50S489.57 0 462 0s-50 22.43-50 50c0 9.954 2.896 19.463 8.283 27.574l-37.25 37.25c-34.606-31.213-78.827-48.469-125.616-48.811h-.005c-.063 0-.125-.003-.188-.003h-.064c-.128 0-.252.014-.379.019l-.141.003c-.213-.013-.424-.032-.64-.032s-.427.019-.64.032l-.138-.003c-.127-.005-.252-.019-.381-.019h-.064c-.063 0-.125.003-.188.003h-.005c-46.789.342-91.009 17.598-125.617 48.811l-37.25-37.25C97.104 69.464 100 59.954 100 50c0-27.57-22.43-50-50-50S0 22.43 0 50s22.43 50 50 50c9.954 0 19.464-2.896 27.575-8.283l37.254 37.254C83.746 163.503 66 208.233 66 256c0 29.651 6.672 58.068 19.828 84.456a189.963 189.963 0 0 0 29 42.574l-37.253 37.253C69.464 414.896 59.954 412 50 412c-27.57 0-50 22.43-50 50s22.43 50 50 50 50-22.43 50-50c0-9.954-2.896-19.464-8.283-27.575l37.25-37.25c34.605 31.212 78.825 48.468 125.613 48.811H254.606c.057 0 .113.003.17.003h.068c.164 0 .323-.016.485-.024.223.015.444.034.67.034s.448-.019.67-.034c.162.008.321.024.485.024h.068c.057 0 .113-.003.17-.003H257.418c46.787-.343 91.007-17.599 125.613-48.811l37.25 37.25C414.896 442.537 412 452.046 412 462c0 27.57 22.43 50 50 50s50-22.43 50-50-22.43-50-50-50zm0-392c16.542 0 30 13.458 30 30s-13.458 30-30 30c-16.546 0-30-13.432-30-30 0-16.542 13.458-30 30-30zM50 80c-16.542 0-30-13.458-30-30s13.458-30 30-30 30 13.458 30 30c0 16.545-13.432 30-30 30zm0 412c-16.542 0-30-13.458-30-30s13.458-30 30-30c8.006 0 15.537 3.121 21.205 8.788l.003.003.004.003C76.879 446.463 80 453.994 80 462c0 16.542-13.458 30-30 30zm360.896-166h-61.751c3.92-19.137 6.175-39.332 6.72-60.1h69.849c-1.198 20.879-6.172 41.094-14.818 60.1zm-10.737-160c15.15 24.173 23.885 51.558 25.545 80h-69.853c-.753-28.171-4.676-55.42-11.512-80h55.82zm-14.665-20h-47.582c-7.58-20.583-17.311-38.19-28.457-51.416 30.019 9.941 56.115 27.989 76.039 51.416zM266 87.404c19.324 5.422 37.377 26.348 50.485 58.596H266V87.404zm-20 0V146h-50.485c13.107-32.248 31.161-53.174 50.485-58.596zm-110.153 48.451l.004-.004.003-.004c19.06-19.053 41.847-33.036 66.69-41.263-11.146 13.226-20.878 30.833-28.457 51.416h-47.581a170.99 170.99 0 0 1 9.341-10.145zM111.84 166h55.821c-6.837 24.582-10.76 51.83-11.512 80H86.295c1.661-28.443 10.396-55.829 25.545-80zM86.287 266h69.848c.545 20.768 2.8 40.863 6.72 60h-61.751c-8.645-19.003-13.619-39.119-14.817-60zm25.548 80h55.819c8.295 29.871 20.426 54.248 35.01 71.454-38.899-12.849-70.591-39.128-90.829-71.454zM246 424.557c-23.179-6.608-44.608-35.771-57.516-78.557H246v78.557zM256 286c-5.522 0-10 4.477-10 10v30h-62.702c-4.177-19.02-6.581-39.128-7.159-60H216c5.523 0 10-4.477 10-10s-4.477-10-10-10h-39.845c.801-28.444 5.01-55.785 12.328-80H246v50c0 5.523 4.478 10 10 10s10-4.477 10-10v-50h57.517c7.318 24.214 11.527 51.555 12.328 80H296c-5.522 0-10 4.477-10 10s4.478 9.9 10 9.9h39.861c-.579 20.872-2.983 41.08-7.16 60.1H266v-30c0-5.523-4.478-10-10-10zm10 138.557V345.9h57.515c-12.907 42.786-34.336 72.05-57.515 78.657zm110.149-48.409c-19.091 19.086-41.922 33.084-66.813 41.306 14.584-17.207 26.715-41.684 35.01-71.554h55.819c-6.815 10.885-14.851 21.084-24.016 30.248zM462 492c-16.542 0-30-13.458-30-30 0-16.568 13.429-30 30-30 16.542 0 30 13.458 30 30s-13.458 30-30 30z"/></svg>