<svg fill="none" xmlns="http://www.w3.org/2000/svg" viewBox="0 0 32 32"><path fill-rule="evenodd" clip-rule="evenodd" d="M20.946 7.601h1.601a2.672 2.672 0 012.669 2.669v12.811a2.672 2.672 0 01-2.669 2.669H8.669A2.672 2.672 0 016 23.081V10.27a2.672 2.672 0 012.669-2.669h1.601V6h1.068v1.601h8.54V6h1.068v1.601zm1.602 17.081c.883 0 1.601-.718 1.601-1.601V12.939H7.068v10.142c0 .883.718 1.601 1.601 1.601h13.879zM7.067 11.872h17.082V10.27c0-.883-.718-1.601-1.601-1.601h-1.601v1.068h-1.068V8.669h-8.541v1.068h-1.069V8.669H8.668c-.883 0-1.601.718-1.601 1.601v1.602zm9.608 6.405H14.54a1.07 1.07 0 01-1.068-1.068v-2.135a1.07 1.07 0 011.068-1.068h2.135a1.07 1.07 0 011.068 1.068v2.135a1.07 1.07 0 01-1.068 1.068zm0-3.203H14.54v2.135h2.136v-2.135zm3.203 3.203h2.135a1.07 1.07 0 001.068-1.068v-2.135a1.07 1.07 0 00-1.068-1.068h-2.135a1.07 1.07 0 00-1.068 1.068v2.135a1.07 1.07 0 001.068 1.068zm0-3.203h2.135l.001 2.135h-2.136v-2.135zm-8.54 8.54H9.203a1.069 1.069 0 01-1.068-1.067v-2.135a1.07 1.07 0 011.068-1.068h2.135a1.07 1.07 0 011.068 1.068v2.135a1.07 1.07 0 01-1.068 1.068zm0-3.202H9.203v2.135h2.136l-.001-2.135zm3.202 3.203h2.135c.59 0 1.068-.48 1.068-1.068v-2.135a1.07 1.07 0 00-1.068-1.068H14.54a1.07 1.07 0 00-1.068 1.068v2.135a1.07 1.07 0 001.068 1.068zm0-3.203h2.135l.001 2.135H14.54v-2.135zm7.473 3.203h-2.135a1.07 1.07 0 01-1.068-1.068v-2.135a1.07 1.07 0 011.068-1.068h2.135a1.07 1.07 0 011.068 1.068v2.135a1.07 1.07 0 01-1.068 1.068zm0-3.203h-2.135v2.135h2.136v-2.135z" fill="currentColor"/></svg>