<svg fill="none" xmlns="http://www.w3.org/2000/svg" viewBox="0 0 32 32"><path d="M10.95 18.925a.737.737 0 011.02 0l3.299 3.313V4.718c0-.41.34-.718.714-.718a.72.72 0 01.714.717v17.52l3.298-3.312a.737.737 0 011.02 0 .745.745 0 010 1.024l-4.522 4.543a.748.748 0 01-.51.205.748.748 0 01-.51-.205l-4.523-4.543a.687.687 0 010-1.024zm15.336 3.483a.72.72 0 00-.714.718v4.44H6.428v-4.44a.72.72 0 00-.714-.718.72.72 0 00-.714.718v5.157c0 .41.34.717.714.717h20.572a.72.72 0 00.714-.717v-5.157a.72.72 0 00-.714-.718z" fill="currentColor"/></svg>