<svg viewBox="0 0 16 16" fill="none" xmlns="http://www.w3.org/2000/svg"><path d="M12 5.2c1.105 0 2-.94 2-2.1 0-1.16-.895-2.1-2-2.1s-2 .94-2 2.1c0 1.16.895 2.1 2 2.1zM4 10.099c1.105 0 2-.94 2-2.1 0-1.16-.895-2.1-2-2.1s-2 .94-2 2.1c0 1.16.895 2.1 2 2.1zM12 15c1.105 0 2-.94 2-2.1 0-1.16-.895-2.1-2-2.1s-2 .94-2 2.1c0 1.16.895 2.1 2 2.1z" fill="currentColor" stroke="currentColor" stroke-linecap="round" stroke-linejoin="round"/><path d="M5.727 9.057l4.553 2.786M10.274 4.156L5.727 6.942" stroke="currentColor" stroke-width="1.5" stroke-linecap="round" stroke-linejoin="round"/></svg>