<svg xmlns="http://www.w3.org/2000/svg" viewBox="0 0 512 512" fill="#4c5467"><path d="M211.67 316.199c13.614-13.042 22.116-31.378 22.116-51.675V225.41c6.185-8.131 9.867-18.266 9.867-29.248v-40.899c0-5.523-4.477-10-10-10h-82.415c-33.443 0-60.652 27.208-60.652 60.652v58.609c0 20.296 8.503 38.633 22.116 51.675-55.747 1.979-100.489 47.939-100.489 104.16V502c0 5.523 4.477 10 10 10h279.946c5.523 0 10-4.477 10-10v-81.641c0-56.22-44.742-102.18-100.489-104.16zm-60.431-150.935h72.415v30.899c0 15.666-12.745 28.411-28.41 28.411h-84.656v-18.658h-.001c0-22.416 18.236-40.652 40.652-40.652zm-40.652 99.261v-19.952h84.656c6.566 0 12.829-1.32 18.543-3.699v23.651c0 28.453-23.147 51.6-51.6 51.6-28.453 0-51.599-23.147-51.599-51.6zm92.16 71.6l-39.094 66.26-39.094-66.26h78.188zM292.16 492h-22.507v-69.936c0-5.523-4.477-10-10-10s-10 4.477-10 10V492h-172v-69.936c0-5.523-4.477-10-10-10s-10 4.477-10 10V492H32.214v-71.641c0-41.546 30.242-76.139 69.862-82.982l52.964 89.769a10 10 0 0 0 17.226 0l52.683-89.29c38.314 7.894 67.211 41.888 67.211 82.504V492z"/><path d="M449.786 0h-56.549c-5.523 0-10 4.477-10 10s4.477 10 10 10h56.549c16.542 0 30 13.458 30 30v133.973c0 16.542-13.458 30-30 30h-36.455a10 10 0 0 0-7.069 2.927l-47.239 47.216v-40.144c0-5.523-4.477-10-10-10h-85.237c-5.523 0-10 4.477-10 10s4.477 10 10 10h75.237v54.277a10 10 0 0 0 17.07 7.072l61.38-61.35h32.314c27.57 0 50-22.43 50-50V50c-.001-27.57-22.43-50-50.001-50zM363.856 2.93c-1.86-1.86-4.44-2.93-7.07-2.93s-5.21 1.07-7.07 2.93c-1.86 1.86-2.93 4.44-2.93 7.07s1.07 5.21 2.93 7.07 4.44 2.93 7.07 2.93 5.21-1.07 7.07-2.93 2.93-4.44 2.93-7.07-1.07-5.21-2.93-7.07zM320.236 0h-56.45c-27.57 0-50 22.43-50 50v55.477c0 5.523 4.477 10 10 10s10-4.477 10-10V50c0-16.542 13.458-30 30-30h56.45c5.523 0 10-4.477 10-10s-4.477-10-10-10zM226.153 427.086h-14c-5.523 0-10 4.477-10 10s4.477 10 10 10h14c5.523 0 10-4.477 10-10s-4.477-10-10-10zM145.586 261.57a10.058 10.058 0 0 0-7.07-2.93c-2.63 0-5.21 1.07-7.07 2.93-1.86 1.86-2.93 4.44-2.93 7.07s1.07 5.21 2.93 7.07c1.86 1.86 4.44 2.93 7.07 2.93 2.64 0 5.21-1.07 7.07-2.93 1.87-1.86 2.93-4.44 2.93-7.07s-1.06-5.21-2.93-7.07zM192.926 261.57a10.076 10.076 0 0 0-7.07-2.93c-2.64 0-5.21 1.07-7.07 2.93a10.016 10.016 0 0 0-2.93 7.07c0 2.63 1.06 5.21 2.93 7.07 1.86 1.86 4.44 2.93 7.07 2.93s5.21-1.07 7.07-2.93 2.93-4.44 2.93-7.07-1.07-5.21-2.93-7.07z"/><path d="M393.709 89.494c-1.262-18.304-16.017-33.058-34.321-34.32-10.376-.718-20.274 2.787-27.854 9.862-7.473 6.976-11.76 16.84-11.76 27.061 0 5.523 4.477 10 10 10s10-4.477 10-10c0-4.767 1.92-9.186 5.408-12.441 3.483-3.251 8.033-4.856 12.831-4.53 8.396.579 15.165 7.347 15.744 15.744.585 8.485-4.979 15.983-13.231 17.829-8.09 1.811-13.74 8.843-13.74 17.102v20.07c0 5.523 4.477 10 10 10s10-4.477 10-10v-18.129c16.918-4.705 28.147-20.484 26.923-38.248zM363.856 171.84c-1.86-1.86-4.44-2.92-7.07-2.92s-5.21 1.06-7.07 2.92a10.1 10.1 0 0 0-2.93 7.08c0 2.63 1.07 5.21 2.93 7.07s4.44 2.93 7.07 2.93 5.21-1.07 7.07-2.93 2.93-4.44 2.93-7.07a10.1 10.1 0 0 0-2.93-7.08z"/></svg>