<svg xmlns="http://www.w3.org/2000/svg" viewBox="0 0 512 512" fill="#4c5467"><path d="M61.069 169.93C59.21 168.069 56.63 167 54 167s-5.209 1.07-7.07 2.93C45.069 171.79 44 174.37 44 177s1.069 5.21 2.93 7.069C48.79 185.93 51.37 187 54 187s5.21-1.07 7.069-2.931C62.93 182.21 64 179.63 64 177s-1.07-5.21-2.931-7.07zM438 0H235.667c-5.522 0-10 4.478-10 10s4.478 10 10 10H438c5.514 0 10 4.486 10 10v452c0 5.514-4.486 10-10 10H74c-5.514 0-10-4.486-10-10V214.333c0-5.522-4.478-10-10-10s-10 4.478-10 10V482c0 16.542 13.458 30 30 30h364c16.542 0 30-13.458 30-30V30c0-16.542-13.458-30-30-30z"/><path d="M256 40c-6.804 0-13.642.52-20.324 1.544-5.459.838-9.206 5.941-8.369 11.4.837 5.459 5.943 9.201 11.4 8.369A114.385 114.385 0 0 1 256 60c62.309 0 113.001 50.692 113.001 113.001 0 27.67-10.002 53.043-26.574 72.71-7.333-12.61-17.349-23.487-29.506-31.924a99.605 99.605 0 0 0-22.698-11.763c9.108-8.903 14.777-21.31 14.777-35.022v-9.75c0-27.02-21.981-49.001-49-49.001s-49 21.981-49 49.001v9.75c0 13.712 5.668 26.119 14.777 35.022a99.646 99.646 0 0 0-22.698 11.763c-12.215 8.478-22.271 19.416-29.613 32.102-12.627-15.005-21.453-33.461-24.906-54.05-.913-5.445-6.074-9.119-11.516-8.208-5.447.913-9.122 6.069-8.209 11.516 5.142 30.66 21.059 58.724 44.82 79.021 24.031 20.529 54.696 31.835 86.344 31.835 73.337 0 133.001-59.664 133.001-133.001S329.337 40 256 40zm-29 117.251c0-15.991 13.01-29.001 29-29.001s29 13.01 29 29.001v9.75c0 15.99-13.01 29-29 29s-29-13.01-29-29v-9.75zm29 128.751c-27.074 0-52.104-9.454-71.694-25.482 13.428-27.252 40.879-44.519 71.694-44.519 30.751 0 58.15 17.196 71.608 44.349-19.507 16.021-44.454 25.652-71.608 25.652zM348.357 398.002h-142c-5.522 0-10 4.478-10 10s4.478 10 10 10h142c5.523 0 10-4.478 10-10s-4.478-10-10-10zM170.71 344.93c-1.86-1.861-4.44-2.93-7.07-2.93s-5.21 1.07-7.07 2.93-2.93 4.44-2.93 7.07a10.06 10.06 0 0 0 2.93 7.069c1.86 1.861 4.44 2.931 7.07 2.931s5.21-1.07 7.07-2.931c1.87-1.859 2.93-4.439 2.93-7.069s-1.06-5.21-2.93-7.07zM170.71 400.93a10.054 10.054 0 0 0-7.07-2.93c-2.63 0-5.21 1.07-7.07 2.93s-2.93 4.44-2.93 7.07a10.06 10.06 0 0 0 2.93 7.069c1.86 1.861 4.44 2.931 7.07 2.931s5.21-1.07 7.07-2.931a10.011 10.011 0 0 0 2.93-7.069c0-2.63-1.06-5.21-2.93-7.07zM348.357 342.002h-142c-5.522 0-10 4.478-10 10s4.478 10 10 10h142c5.523 0 10-4.478 10-10s-4.478-10-10-10zM161.626 57.629c-3.907-3.904-10.237-3.904-14.143 0l-32.566 32.566-11.129-11.129c-3.907-3.904-10.237-3.904-14.143 0-3.905 3.906-3.905 10.238 0 14.143l18.2 18.2a9.97 9.97 0 0 0 7.071 2.929c2.56 0 5.118-.977 7.072-2.928l39.638-39.638c3.905-3.906 3.905-10.238 0-14.143z"/><path d="M126 0C80.785 0 44 36.785 44 82s36.785 82 82 82 82-36.785 82-82-36.785-82-82-82zm0 144c-34.187 0-62-27.813-62-62s27.813-62 62-62 62 27.813 62 62-27.813 62-62 62z"/></svg>