<svg xmlns="http://www.w3.org/2000/svg" viewBox="0 0 512 512" fill="#4c5467"><path d="M451.463 201.635l-.082-.336c-1.327-5.361-6.748-8.63-12.108-7.304-5.36 1.327-8.631 6.747-7.304 12.109l.06.243c1.109 4.576 5.2 7.645 9.709 7.645.78 0 1.573-.092 2.364-.284 5.366-1.302 8.663-6.707 7.361-12.073zM186.688 326.253c-24.86-15-39.702-41.266-39.702-70.26 0-8.962 1.435-17.768 4.264-26.172 1.762-5.233-1.053-10.905-6.286-12.666-5.233-1.76-10.904 1.054-12.666 6.287-3.522 10.464-5.308 21.416-5.308 32.552 0 36.063 18.456 68.73 49.368 87.383a9.995 9.995 0 0 0 13.726-3.397c2.853-4.728 1.333-10.873-3.396-13.727zM298.883 181.727c-18.987-17.877-43.813-27.723-69.904-27.723-12.219 0-24.175 2.142-35.535 6.364-5.176 1.925-7.812 7.68-5.888 12.857 1.924 5.177 7.679 7.813 12.857 5.888 9.124-3.392 18.734-5.112 28.567-5.112 20.975 0 40.932 7.914 56.194 22.285a9.96 9.96 0 0 0 6.852 2.72 9.971 9.971 0 0 0 7.282-3.145c3.785-4.02 3.594-10.349-.425-14.134z"/><path d="M502.001 259.006h-75.226V238.32c0-10.055-8.181-18.236-18.236-18.236h-13.423c-6.874-31.95-22.705-61.05-45.94-84.286-39.427-39.427-95.76-57.01-150.693-47.043-5.433.986-9.039 6.19-8.053 11.624.986 5.434 6.191 9.036 11.624 8.053 48.479-8.798 98.193 6.718 132.981 41.508 19.479 19.479 33.065 43.621 39.574 70.145h-54.586c-10.055 0-18.236 8.181-18.236 18.236v20.686h-75.226c-5.522 0-9.999 4.478-9.999 9.999v61.339c0 9.386 3.655 17.929 9.608 24.299v51.314c-39.008-.666-75.437-16.097-103.246-43.907-35.695-35.695-50.987-86.578-40.906-136.114 1.101-5.411-2.393-10.691-7.804-11.792-5.413-1.102-10.691 2.393-11.792 7.804C51 278.078 68.33 335.738 108.782 376.191c31.126 31.126 73.519 48.994 117.387 49.749v36.233c0 .938.063 1.86.174 2.768-114.021-1.418-206.346-94.595-206.346-208.946 0-35.757 9.095-70.709 26.37-101.683l33.737 33.897a10 10 0 0 0 7.087 2.946h62.89l61.653 61.653a9.967 9.967 0 0 0 7.07 2.929 9.962 9.962 0 0 0 7.07-2.929c3.905-3.905 3.905-10.236 0-14.142l-61.654-61.653v-62.89a9.998 9.998 0 0 0-2.938-7.079l-33.831-33.748c30.934-17.217 65.828-26.281 101.524-26.281 81.116 0 155.58 47.573 189.709 121.199a9.999 9.999 0 0 0 9.078 5.796 9.96 9.96 0 0 0 4.199-.93c5.01-2.323 7.189-8.267 4.867-13.277-18.119-39.088-46.821-72.211-83.006-95.787-37.147-24.205-80.319-36.998-124.846-36.998-41.022 0-81.088 10.929-116.198 31.641l-28.777-28.71a9.998 9.998 0 0 0-17.06 7.078v56.667H10.099a9.997 9.997 0 0 0-7.087 17.052l28.733 28.869C10.965 174.772 0 214.901 0 255.994c0 61.162 23.818 118.664 67.066 161.912 43.248 43.249 100.75 67.066 161.912 67.066l250.603.011c12.578 0 22.811-10.232 22.811-22.811V354.648c6.2-6.62 9.608-15.207 9.608-24.322v-61.322c0-5.521-4.477-9.998-9.999-9.998zM86.938 61.126l57.286 57.144v38.704L86.938 99.559V61.126zm-14.147 52.567l57.292 57.46H91.347l-57.189-57.46h38.633zm248.993 126.389h84.991v18.924h-84.991v-18.924zm160.609 176.9h-65.618c-5.522 0-9.999 4.478-9.999 9.999 0 5.521 4.477 9.999 9.999 9.999h65.618v25.191a2.816 2.816 0 0 1-2.812 2.814H261.237c-.072-.001-.141-.011-.213-.011h-12.152a2.81 2.81 0 0 1-2.706-2.802v-96.726c1.957.334 3.965.518 6.015.518h82.464c1.773 14.782 14.383 26.28 29.635 26.28 15.275 0 27.901-11.534 29.643-26.349l82.432.052h.023c2.037 0 4.046-.18 6.014-.513v51.548zm-127.97-54.594v-17.577h19.716v17.577c0 5.436-4.423 9.858-9.858 9.858-5.435 0-9.858-4.422-9.858-9.858zm137.579-32.062c0 4.176-1.626 8.1-4.58 11.051a15.52 15.52 0 0 1-11.044 4.573h-.01l-82.232-.052v-9.164c0-6.573-5.347-11.921-11.921-11.921h-35.871c-6.573 0-11.921 5.347-11.921 11.921v9.232h-82.242c-8.615 0-15.623-7.009-15.623-15.623v-51.339h255.443v51.322z"/><path d="M374.854 419.912a10.075 10.075 0 0 0-7.069-2.93c-2.64 0-5.209 1.069-7.079 2.93a10.065 10.065 0 0 0-2.92 7.069c0 2.63 1.06 5.209 2.92 7.068a10.1 10.1 0 0 0 7.079 2.931c2.63 0 5.2-1.07 7.069-2.931a10.071 10.071 0 0 0 2.93-7.068c0-2.629-1.07-5.209-2.93-7.069z"/></svg>