<svg xmlns="http://www.w3.org/2000/svg" viewBox="0 0 512 512" fill="#4c5467"><path d="M448 258.102c5.523 0 10-4.477 10-10V90c0-27.57-22.43-50-50-50h-67.779c-4.992-6.384-12.757-10.5-21.471-10.5h-16.266C294.525 11.806 276.742 0 256.877 0h-1.755c-19.865 0-37.647 11.806-45.606 29.5H193.25c-8.714 0-16.479 4.116-21.471 10.5H104c-27.57 0-50 22.43-50 50v372c0 27.57 22.43 50 50 50h304c27.57 0 50-22.43 50-50V331.937c0-5.523-4.477-10-10-10s-10 4.477-10 10V462c0 16.542-13.458 30-30 30H104c-16.542 0-30-13.458-30-30V90c0-16.542 13.458-30 30-30h62v20h-52c-11.028 0-20 8.972-20 20v352c0 11.028 8.972 20 20 20h284c11.028 0 20-8.972 20-20V100c0-11.028-8.972-20-20-20h-52V60h62c16.542 0 30 13.458 30 30v158.102c0 5.523 4.477 10 10 10zM186 56.75c0-3.998 3.252-7.25 7.25-7.25h23.275a10 10 0 0 0 9.651-7.38C229.711 29.096 241.614 20 255.123 20h1.755c13.508 0 25.412 9.096 28.947 22.12a10 10 0 0 0 9.651 7.38h23.275c3.998 0 7.25 3.252 7.25 7.25V80H186V56.75zM398 100l.013 352H114V100h284z"/><path d="M455.07 283.83c-1.86-1.86-4.44-2.93-7.07-2.93s-5.21 1.07-7.07 2.93a10.076 10.076 0 0 0-2.93 7.07c0 2.64 1.07 5.21 2.93 7.07 1.86 1.87 4.44 2.93 7.07 2.93s5.21-1.06 7.07-2.93c1.86-1.86 2.93-4.43 2.93-7.07 0-2.63-1.07-5.2-2.93-7.07zM270.07 178.93c-1.86-1.86-4.44-2.93-7.07-2.93s-5.21 1.07-7.07 2.93c-1.86 1.86-2.93 4.44-2.93 7.07s1.07 5.21 2.93 7.07c1.86 1.86 4.44 2.93 7.07 2.93s5.21-1.07 7.07-2.93c1.86-1.86 2.93-4.44 2.93-7.07s-1.07-5.21-2.93-7.07zM366.484 176H307c-5.523 0-10 4.477-10 10s4.477 10 10 10h59.484c5.523 0 10-4.477 10-10s-4.477-10-10-10zM366.484 284H263c-5.523 0-10 4.477-10 10s4.477 10 10 10h103.484c5.523 0 10-4.477 10-10s-4.477-10-10-10zM366.484 392H263c-5.523 0-10 4.477-10 10s4.477 10 10 10h103.484c5.523 0 10-4.477 10-10s-4.477-10-10-10zM200 176h-38v-38c0-5.523-4.477-10-10-10s-10 4.477-10 10v48c0 5.523 4.477 10 10 10h48c5.523 0 10-4.477 10-10s-4.477-10-10-10z"/><path d="M221.025 127.714c-3.904-3.905-10.236-3.905-14.141 0l-13.788 13.788-1.169-1.169c-3.905-3.905-10.237-3.905-14.143 0-3.906 3.905-3.905 10.237 0 14.143l8.24 8.24a9.968 9.968 0 0 0 7.071 2.929 9.966 9.966 0 0 0 7.071-2.929l20.859-20.859c3.905-3.905 3.905-10.237 0-14.143zM200 283.709h-38v-38c0-5.523-4.477-10-10-10s-10 4.477-10 10v48c0 5.523 4.477 10 10 10h48c5.523 0 10-4.477 10-10s-4.477-10-10-10z"/><path d="M221.025 235.423c-3.904-3.905-10.236-3.905-14.141 0l-13.788 13.788-1.169-1.169c-3.905-3.905-10.237-3.905-14.143 0-3.906 3.905-3.905 10.237 0 14.143l8.24 8.24a9.968 9.968 0 0 0 7.071 2.929 9.966 9.966 0 0 0 7.071-2.929l20.859-20.859c3.905-3.905 3.905-10.237 0-14.143zM200 392h-38v-38c0-5.523-4.477-10-10-10s-10 4.477-10 10v48c0 5.523 4.477 10 10 10h48c5.523 0 10-4.477 10-10s-4.477-10-10-10z"/><path d="M221.025 343.714c-3.904-3.905-10.236-3.905-14.141 0l-13.788 13.788-1.169-1.169c-3.905-3.905-10.237-3.905-14.143 0-3.906 3.905-3.905 10.237 0 14.143l8.24 8.24a9.968 9.968 0 0 0 7.071 2.929 9.966 9.966 0 0 0 7.071-2.929l20.859-20.859c3.905-3.905 3.905-10.237 0-14.143z"/></svg>