<svg xmlns="http://www.w3.org/2000/svg" viewBox="0 0 511.999 511.999" fill="#4c5467"><path d="M331.999 94.064h-66V82.802c19.946-4.86 33.32-23.13 31.898-43.757-1.432-20.77-18.173-37.511-38.942-38.942-11.79-.813-23.01 3.162-31.61 11.19C218.865 19.211 214 30.403 214 42.002c0 5.522 4.477 10 10 10s10-4.478 10-10c0-6.165 2.483-11.878 6.993-16.088 4.504-4.204 10.399-6.291 16.588-5.857 10.861.748 19.616 9.503 20.364 20.364.756 10.969-6.44 20.663-17.111 23.051C252.1 65.425 246 73.015 246 81.929v12.136h-66c-69.477 0-125.999 56.523-125.999 125.999v102.437c0 5.522 4.477 10 10 10s10-4.478 10-10V220.064c0-51.902 37.498-95.206 86.823-104.257l85.302 142.951V492H84c-5.514 0-10-4.486-10-10v-72.943c0-5.522-4.477-10-10-10s-10 4.478-10 10V482c0 16.542 13.458 30 30 30h343.998c16.542 0 30-13.458 30-30V220.064c0-69.477-56.522-126-125.999-126zm-37.784 20h34.963l-35.717 59.856-7.918-28.678 8.672-31.178zm-20.759 0l-5.888 21.168H244.43l-5.888-21.168h34.914zm-54.847 59.55l-35.534-59.55h34.709l8.671 31.176-7.846 28.374zm14.18 23.763l11.654-42.145h23.111l11.723 42.459-23.15 38.796-23.338-39.11zM427.999 492H266.126V258.758l85.275-142.907c49.214 9.142 86.596 52.392 86.596 104.213V482c.001 5.514-4.484 10-9.998 10z"/><path d="M71.071 355.681a10.076 10.076 0 0 0-7.07-2.93c-2.63 0-5.21 1.069-7.07 2.93a10.076 10.076 0 0 0-2.93 7.07c0 2.63 1.07 5.21 2.93 7.069a10.077 10.077 0 0 0 7.07 2.931c2.63 0 5.21-1.07 7.07-2.931a10.072 10.072 0 0 0 2.93-7.069c0-2.63-1.07-5.21-2.93-7.07zM304.739 248.932a10.09 10.09 0 0 0-7.07-2.93c-2.64 0-5.21 1.069-7.07 2.93a10.033 10.033 0 0 0-2.93 7.07c0 2.63 1.06 5.21 2.93 7.069a10.059 10.059 0 0 0 7.07 2.931c2.63 0 5.21-1.07 7.07-2.931a10.072 10.072 0 0 0 2.93-7.069c0-2.63-1.07-5.211-2.93-7.07zM304.739 317.57a10.066 10.066 0 0 0-7.07-2.92c-2.64 0-5.21 1.061-7.08 2.92a10.09 10.09 0 0 0-2.92 7.08c0 2.631 1.06 5.2 2.92 7.07a10.1 10.1 0 0 0 7.08 2.93c2.63 0 5.21-1.069 7.07-2.93a10.092 10.092 0 0 0 2.93-7.07 10.1 10.1 0 0 0-2.93-7.08zM304.739 386.221a10.076 10.076 0 0 0-7.07-2.93c-2.64 0-5.21 1.069-7.07 2.93-1.87 1.86-2.93 4.44-2.93 7.07s1.06 5.21 2.93 7.069c1.86 1.87 4.44 2.931 7.07 2.931s5.21-1.061 7.07-2.931a10.056 10.056 0 0 0 2.93-7.069c0-2.63-1.07-5.21-2.93-7.07zM304.739 454.87a10.052 10.052 0 0 0-7.07-2.931c-2.64 0-5.21 1.061-7.07 2.931a10.029 10.029 0 0 0-2.93 7.069c0 2.63 1.06 5.21 2.93 7.07 1.86 1.86 4.43 2.93 7.07 2.93 2.63 0 5.21-1.069 7.07-2.93a10.077 10.077 0 0 0 2.93-7.07c0-2.64-1.07-5.21-2.93-7.069zM393.999 246.002h-51c-5.523 0-10 4.478-10 10s4.477 10 10 10h51c5.523 0 10-4.478 10-10s-4.477-10-10-10z"/></svg>