<svg xmlns="http://www.w3.org/2000/svg" viewBox="0 0 512 512" fill="#4c5467"><path d="M438 0H74C57.458 0 44 13.458 44 30v452c0 16.542 13.458 30 30 30h364c16.542 0 30-13.458 30-30V30c0-16.542-13.458-30-30-30zm-61 35.436l55.691 55.691H387c-5.514 0-10-4.486-10-10V35.436zM448 482c0 5.514-4.486 10-10 10H74c-5.514 0-10-4.486-10-10V30c0-5.514 4.486-10 10-10h283v61.127c0 16.542 13.458 30 30 30h61V482zm0-403.849L389.849 20H438c5.514 0 10 4.486 10 10v48.151z"/><path d="M384.941 438H128c-5.523 0-10 4.477-10 10s4.477 10 10 10h256.941c5.523 0 10-4.477 10-10s-4.477-10-10-10zM384.941 382H169c-5.523 0-10 4.477-10 10s4.477 10 10 10h215.941c5.523 0 10-4.477 10-10s-4.477-10-10-10zM384.941 326H127.059c-5.523 0-10 4.477-10 10s4.477 10 10 10h257.883c5.523 0 10-4.477 10-10s-4.478-10-10.001-10zM134.13 272.93c-1.86-1.86-4.44-2.93-7.07-2.93s-5.21 1.07-7.07 2.93c-1.86 1.86-2.93 4.44-2.93 7.07s1.07 5.21 2.93 7.07c1.86 1.86 4.44 2.93 7.07 2.93s5.21-1.07 7.07-2.93 2.93-4.44 2.93-7.07-1.07-5.21-2.93-7.07zM134.13 384.93c-1.86-1.86-4.44-2.93-7.07-2.93s-5.21 1.07-7.07 2.93c-1.86 1.86-2.93 4.44-2.93 7.07s1.07 5.21 2.93 7.07c1.86 1.86 4.44 2.93 7.07 2.93s5.21-1.07 7.07-2.93 2.93-4.44 2.93-7.07-1.07-5.21-2.93-7.07zM384.941 270H169c-5.523 0-10 4.477-10 10s4.477 10 10 10h215.941c5.523 0 10-4.477 10-10s-4.477-10-10-10zM200.247 120h-42.523c-5.523 0-10 4.477-10 10s4.477 10 10 10h11.262v53.195c0 6.21-5.052 11.262-11.262 11.262-6.21 0-11.262-5.052-11.262-11.262 0-5.523-4.477-10-10-10s-10 4.477-10 10c-.001 17.238 14.023 31.262 31.261 31.262s31.262-14.024 31.262-31.262V140h11.262c5.523 0 10-4.477 10-10s-4.477-10-10-10zM258.533 120c-28.799 0-52.228 23.429-52.228 52.228 0 28.799 23.429 52.229 52.228 52.229s52.228-23.43 52.228-52.229S287.332 120 258.533 120zm0 84.457c-17.77 0-32.228-14.458-32.228-32.229 0-17.77 14.458-32.228 32.228-32.228 17.771 0 32.228 14.458 32.228 32.228 0 17.771-14.458 32.229-32.228 32.229zM385.523 152c0-17.645-14.355-32-32-32H333c-5.523 0-10 4.477-10 10v88c0 5.523 4.477 10 10 10h20.523c17.645 0 32-14.355 32-32 0-8.517-3.351-16.26-8.795-22 5.444-5.74 8.795-13.483 8.795-22zm-32 56H343v-24h10.523c6.617 0 12 5.383 12 12s-5.383 12-12 12zm0-44H343v-24h10.523c6.617 0 12 5.383 12 12s-5.383 12-12 12z"/></svg>