<svg xmlns="http://www.w3.org/2000/svg" viewBox="0 0 512.002 512.002" fill="#4c5467"><path d="M501.979 246.312c5.523 0 9.999-4.478 9.999-9.999v-63.888c.001-5.521-4.475-9.998-9.996-9.999l-166.107-.04h-.021c-20.152 0-39.833 8.222-53.995 22.558l-15.627 15.817-23.958-23.963c-9.282-9.282-21.624-14.396-34.752-14.397l-197.5-.015a9.999 9.999 0 0 0-9.999 9.999v198.191c0 5.522 4.477 9.999 9.999 9.999h89.186a34.736 34.736 0 0 0 8.923 15.287c6.815 6.816 15.768 10.226 24.722 10.226.114 0 .227-.007.34-.008-.001.121-.009.241-.009.363-.001 9.336 3.633 18.115 10.234 24.718 6.601 6.603 15.379 10.241 24.716 10.243h.005c.114 0 .227-.007.341-.008-.001.116-.008.23-.008.346-.002 9.337 3.633 18.115 10.234 24.719s15.378 10.241 24.715 10.242h.006c.114 0 .227-.007.341-.008-.001.116-.008.231-.008.347-.001 9.337 3.633 18.115 10.234 24.718 6.601 6.603 15.378 10.241 24.715 10.243h.007c7.813 0 15.231-2.556 21.314-7.256a34.878 34.878 0 0 0 21.244 7.189c8.949 0 17.898-3.405 24.713-10.217 6.903-6.901 10.305-15.996 10.218-25.062.121.001.241.009.363.009h.007c9.334 0 18.11-3.634 24.712-10.233 6.903-6.901 10.305-15.996 10.217-25.063.121.001.242.009.363.009h.005c9.334 0 18.111-3.636 24.713-10.234 6.903-6.901 10.305-15.995 10.217-25.062.121.001.242.009.363.009h.005c9.334 0 18.111-3.636 24.713-10.234a34.763 34.763 0 0 0 8.949-15.281h81.146c5.523 0 9.999-4.478 9.999-9.999v-57.604c0-5.521-4.477-9.999-9.999-9.999s-9.999 4.478-9.999 9.999v47.602h-33.997V184.984c0-.89-.128-1.749-.346-2.571l34.343.008v53.891c.001 5.522 4.477 10 10 10zM132.854 386.104h-.003a14.862 14.862 0 0 1-10.576-4.384 14.853 14.853 0 0 1-4.379-10.576 14.859 14.859 0 0 1 4.383-10.575l21.18-21.172a14.908 14.908 0 0 1 10.574-4.372c3.831 0 7.662 1.459 10.578 4.375 5.83 5.833 5.828 15.322-.004 21.152l-21.179 21.173a14.86 14.86 0 0 1-10.574 4.379zm35.286 35.299h-.002a14.858 14.858 0 0 1-10.575-4.384 14.851 14.851 0 0 1-4.379-10.576 14.863 14.863 0 0 1 4.383-10.575l21.179-21.173a14.858 14.858 0 0 1 10.574-4.379h.003a14.865 14.865 0 0 1 10.576 4.383v.001c5.831 5.833 5.829 15.321-.003 21.151l-21.18 21.172a14.862 14.862 0 0 1-10.576 4.38zm24.709 30.917c-5.831-5.833-5.83-15.323.004-21.153l21.18-21.172a14.858 14.858 0 0 1 10.574-4.379h.003c3.995 0 7.75 1.557 10.575 4.382 5.83 5.833 5.829 15.323-.003 21.153l-21.18 21.172c-5.832 5.831-15.321 5.829-21.153-.003zm60.119 31.625l-.007.006-.007.007-3.666 3.665a14.856 14.856 0 0 1-10.573 4.379h-.003a14.862 14.862 0 0 1-10.576-4.384 14.853 14.853 0 0 1-4.379-10.576 14.859 14.859 0 0 1 4.383-10.575l21.18-21.172a14.86 14.86 0 0 1 10.575-4.38h.001a14.862 14.862 0 0 1 10.576 4.383v.001a14.851 14.851 0 0 1 4.379 10.576 14.863 14.863 0 0 1-4.383 10.575l-17.5 17.495zm38.881 3.628c-4.619 4.617-11.524 5.562-17.094 2.869l9.851-9.848c3.75-3.749 6.54-8.2 8.254-13.056 4.799 5.87 4.462 14.564-1.011 20.035zm105.897-105.861a14.86 14.86 0 0 1-10.574 4.379h-.002a14.864 14.864 0 0 1-10.577-4.384l-63.228-63.236c-3.905-3.906-10.235-3.905-14.141-.001a9.964 9.964 0 0 0-2.929 7.07c0 2.559.976 5.118 2.929 7.07l63.227 63.235c5.831 5.833 5.829 15.322-.003 21.152a14.86 14.86 0 0 1-10.575 4.38h-.002a14.862 14.862 0 0 1-10.576-4.384l-63.229-63.236c-3.905-3.905-10.235-3.904-14.141-.001-3.905 3.905-3.906 10.235 0 14.141l63.228 63.235c5.831 5.833 5.83 15.323-.003 21.153a14.857 14.857 0 0 1-10.574 4.379h-.002a14.863 14.863 0 0 1-10.576-4.383l-20.1-20.107a10.013 10.013 0 0 0-1.533-1.256c-6.571-6.447-15.242-9.999-24.462-10.001h-.005c-.12 0-.238.007-.357.009.091-9.066-3.308-18.161-10.209-25.065v-.001c-6.601-6.603-15.379-10.24-24.715-10.241h-.006c-.119 0-.237.008-.356.009.091-9.066-3.308-18.161-10.209-25.065-6.601-6.603-15.378-10.241-24.715-10.243h-.007c-.119 0-.237.008-.356.009.091-9.066-3.308-18.161-10.209-25.065v-.001c-13.627-13.63-35.803-13.636-49.434-.008l-21.18 21.172a34.738 34.738 0 0 0-8.591 14.15H74.017V248.479c0-5.522-4.477-9.999-9.999-9.999s-9.999 4.478-9.999 9.999v112.096H20.021V182.383l187.5.014c7.786.001 15.107 3.034 20.612 8.539l24.044 24.049-20.132 20.377c-14.022 14.192-13.887 37.151.3 51.179a36.163 36.163 0 0 0 25.457 10.46 36.123 36.123 0 0 0 18.587-5.146l32.939-19.725 88.421 88.429a14.832 14.832 0 0 1 4.278 8.894c-.041.368-.067.742-.067 1.121 0 .507.05 1.001.123 1.488a14.834 14.834 0 0 1-4.337 9.65zm40.239-196.728v175.591h-17.481a34.794 34.794 0 0 0-8.612-14.155l-84.875-84.882 12.921-7.737h64.512c5.523 0 9.999-4.478 9.999-9.999 0-5.522-4.477-9.999-9.999-9.999h-67.277c-1.81 0-3.585.491-5.138 1.421L266.114 274.7a16.19 16.19 0 0 1-19.709-2.379c-6.348-6.276-6.409-16.551-.134-22.901l49.815-50.421c10.432-10.56 24.926-16.615 39.769-16.615h.015l102.462.025a9.987 9.987 0 0 0-.347 2.575z"/><path d="M509.049 264.407a10.075 10.075 0 0 0-7.069-2.93c-2.63 0-5.21 1.069-7.069 2.93a10.075 10.075 0 0 0-2.93 7.069c0 2.64 1.07 5.21 2.93 7.068a10.033 10.033 0 0 0 7.069 2.931c2.63 0 5.21-1.061 7.069-2.931a10.055 10.055 0 0 0 2.93-7.068c0-2.629-1.07-5.209-2.93-7.069zM71.087 203.912a10.075 10.075 0 0 0-7.069-2.93c-2.63 0-5.21 1.069-7.069 2.93-1.86 1.86-2.93 4.44-2.93 7.069s1.07 5.21 2.93 7.068a10.076 10.076 0 0 0 7.069 2.931c2.63 0 5.21-1.07 7.069-2.931 1.86-1.859 2.93-4.439 2.93-7.068s-1.07-5.209-2.93-7.069zM327.995 0H184.007c-16.541 0-29.997 13.457-29.997 29.997v73.994c0 16.541 13.457 29.997 29.997 29.997h34.855l30.068 30.068c1.953 1.952 4.512 2.929 7.07 2.929s5.119-.977 7.07-2.929l30.068-30.068h34.855c16.541 0 29.997-13.457 29.997-29.997V29.997C357.992 13.457 344.535 0 327.995 0zm9.999 103.991c0 5.513-4.486 9.999-9.999 9.999h-38.997a9.997 9.997 0 0 0-7.07 2.929l-25.927 25.927-25.927-25.927a10 10 0 0 0-7.07-2.929h-38.997c-5.514 0-9.999-4.486-9.999-9.999V29.997c0-5.514 4.486-9.999 9.999-9.999h143.988c5.513 0 9.999 4.486 9.999 9.999v73.994z"/><path d="M216.074 59.845a10.033 10.033 0 0 0-7.069-2.93c-2.64 0-5.21 1.06-7.069 2.93a10.06 10.06 0 0 0-2.93 7.069c0 2.63 1.07 5.21 2.93 7.069 1.86 1.86 4.44 2.93 7.069 2.93s5.21-1.07 7.069-2.93c1.86-1.86 2.93-4.44 2.93-7.069 0-2.64-1.07-5.209-2.93-7.069zM263.07 59.845c-1.86-1.87-4.44-2.93-7.069-2.93s-5.21 1.06-7.069 2.93a10.06 10.06 0 0 0-2.93 7.069c0 2.63 1.07 5.21 2.93 7.069 1.86 1.86 4.44 2.93 7.069 2.93s5.21-1.07 7.069-2.93c1.86-1.86 2.93-4.44 2.93-7.069 0-2.64-1.07-5.209-2.93-7.069zM310.066 59.845a10.033 10.033 0 0 0-7.069-2.93c-2.63 0-5.21 1.06-7.069 2.93a10.06 10.06 0 0 0-2.93 7.069c0 2.63 1.07 5.21 2.93 7.069s4.44 2.93 7.069 2.93c2.63 0 5.21-1.07 7.069-2.93 1.86-1.86 2.93-4.44 2.93-7.069 0-2.64-1.07-5.209-2.93-7.069z"/></svg>