<svg xmlns="http://www.w3.org/2000/svg" viewBox="0 0 512 512" fill="#4c5467"><path d="M457.345 408.036c5.488-7.584 8.735-16.891 8.735-26.946V321c0-5.523-4.478-10-10-10h-44.692c-20.66 0-37.468 16.808-37.468 37.468v32.622c0 10.049 3.243 19.349 8.724 26.931a64.387 64.387 0 0 0-19.547 6.505c-13.894-20.732-36.657-35.03-62.815-37.442-.102-.029-.206-.05-.309-.075 9.359-10.451 15.064-24.239 15.064-39.339V256c0-5.523-4.478-10-10-10h-60.742c-26.099 0-47.332 21.233-47.332 47.332v44.337c0 15.1 5.705 28.888 15.064 39.339-.103.025-.207.047-.309.075-26.161 2.412-48.925 16.712-62.818 37.447a64.462 64.462 0 0 0-19.547-6.506c5.482-7.582 8.727-16.884 8.727-26.934V321c0-5.523-4.478-10-10-10H83.388c-20.66 0-37.468 16.808-37.468 37.468v32.622c0 10.056 3.247 19.362 8.735 26.946C23.702 413.095 0 440.014 0 472.375V502c0 5.523 4.478 10 10 10h492c5.522 0 10-4.477 10-10v-29.625c0-32.361-23.702-59.28-54.655-64.339zM65.92 348.468c0-9.632 7.836-17.468 17.468-17.468h34.692v12.179c0 5.972-4.858 10.83-10.829 10.83H65.92v-5.541zm0 25.54h41.331c3.81 0 7.458-.699 10.829-1.969v9.051c0 14.38-11.699 26.08-26.08 26.08s-26.08-11.7-26.08-26.08v-7.082zm32.527 53.162L92 433.617l-6.447-6.447h12.894zm36.105 34.566V492H20v-19.625c0-22.429 16.423-41.087 37.873-44.601l27.056 27.056a10.003 10.003 0 0 0 14.142 0l27.064-27.065a44.72 44.72 0 0 1 13.661 4.573 84.626 84.626 0 0 0-5.244 29.398zm121.449-85.029c-21.525 0-39.037-17.512-39.037-39.037v-13.217h59.764a38.078 38.078 0 0 0 18.31-4.667v17.884c0 21.525-17.512 39.037-39.037 39.037zm17.431 19.999L256 414.138l-17.432-17.432h34.864zm-56.47-103.374h.001c0-15.071 12.261-27.332 27.332-27.332h50.742v20.144c0 10.096-8.214 18.31-18.31 18.31h-59.765v-11.122zM357.447 492H154.553v-20h65.114c5.522 0 10-4.477 10-10s-4.478-10-10-10h-64.383c4.286-28.421 27.036-50.856 55.599-54.695l38.046 38.046c1.953 1.953 4.512 2.929 7.071 2.929s5.118-.976 7.071-2.929l38.046-38.046c31.756 4.268 56.33 31.525 56.33 64.431V492zm36.473-143.532c0-9.632 7.836-17.468 17.468-17.468h34.692v12.179c0 5.972-4.858 10.83-10.829 10.83H393.92v-5.541zm0 25.54h41.331c3.81 0 7.458-.699 10.829-1.969v9.051c0 14.38-11.699 26.08-26.08 26.08s-26.08-11.7-26.08-26.08v-7.082zm32.527 53.162L420 433.617l-6.447-6.447h12.894zm-49 64.83v-30.264a84.615 84.615 0 0 0-5.245-29.4 44.6 44.6 0 0 1 13.659-4.573l27.067 27.067a10.003 10.003 0 0 0 14.142 0l27.056-27.056c21.45 3.515 37.873 22.172 37.873 44.601V492H377.447zM305.284 65.338c-3.906-3.905-10.236-3.905-14.143 0l-49.07 49.071-21.213-21.213a10 10 0 0 0-14.142-.001c-3.905 3.905-3.905 10.237 0 14.143L235 135.622a10.003 10.003 0 0 0 14.142 0l56.142-56.142c3.905-3.905 3.905-10.237 0-14.142z"/><path d="M296.888 8.672c-5.043-2.249-10.956.016-13.206 5.06s.016 10.957 5.06 13.206c28.999 12.933 47.737 41.8 47.737 73.542 0 44.376-36.103 80.479-80.479 80.479s-80.479-36.103-80.479-80.479c0-31.578 18.603-60.385 47.393-73.388 5.033-2.273 7.271-8.197 4.997-13.23-2.273-5.034-8.2-7.271-13.229-4.998-35.938 16.232-59.16 52.193-59.16 91.615-.001 55.405 45.074 100.48 100.478 100.48s100.479-45.075 100.479-100.479c0-39.627-23.391-75.664-59.591-91.808z"/><path d="M256.358 0H256c-5.522 0-10 4.477-10 10s4.478 10 10 10h.312c5.501 0 9.973-4.446 9.999-9.953.026-5.523-4.43-10.021-9.953-10.047zM263.069 454.93C261.21 453.07 258.63 452 256 452s-5.21 1.07-7.07 2.93S246 459.37 246 462s1.069 5.21 2.93 7.07c1.861 1.86 4.44 2.93 7.07 2.93s5.21-1.07 7.069-2.93c1.86-1.86 2.931-4.44 2.931-7.07s-1.07-5.21-2.931-7.07z"/></svg>