<svg xmlns="http://www.w3.org/2000/svg" viewBox="0 0 512 512" fill="#4c5467"><path d="M174.018 377.083c-.101-.028-.203-.049-.305-.074 9.36-10.451 15.065-24.24 15.065-39.34v-44.337c0-26.099-21.233-47.332-47.332-47.332H80.705c-5.522 0-10 4.477-10 10v81.669c0 15.1 5.706 28.889 15.065 39.34-.102.025-.204.046-.305.075-43.213 3.981-77.17 40.419-77.17 84.653V502c0 5.522 4.478 10 10 10H241.19c5.522 0 10-4.478 10-10v-40.264c-.001-44.235-33.959-80.672-77.172-84.653zm-44.276-.377c-21.525 0-39.037-17.512-39.037-39.037v-17.883a38.071 38.071 0 0 0 18.309 4.667h59.765v13.216c.001 21.525-17.512 39.037-39.037 39.037zm17.431 20l-17.432 17.432-17.432-17.432h34.864zM90.704 266h50.743c15.071 0 27.332 12.261 27.332 27.332v11.121h-59.765c-10.096 0-18.31-8.214-18.31-18.31V266zM28.293 492v-30.264c0-32.906 24.573-60.164 56.33-64.431l38.046 38.046a9.972 9.972 0 0 0 7.071 2.929 9.972 9.972 0 0 0 7.071-2.929l38.047-38.047c31.756 4.267 56.33 31.525 56.33 64.431V492H28.293zM454.364 384.493c7.691-7.627 12.463-18.193 12.463-29.854V313.98c0-23.074-11.566-43.488-29.194-55.782.16-.712.245-1.448.245-2.198v-23.774c23.378-2.931 41.521-22.932 41.521-47.092V84.924c0-26.17-21.291-47.462-47.462-47.462H276.468c-26.171 0-47.462 21.292-47.462 47.462v100.21c0 26.17 21.291 47.462 47.462 47.462h113.863l13.615 13.615a68.314 68.314 0 0 0-5.1-.211c-37.485 0-67.981 30.496-67.981 67.98v40.658c0 11.662 4.772 22.227 12.463 29.854-29.094 13.443-49.341 42.883-49.341 76.98V502c0 5.522 4.478 10 10 10h189.718c5.522 0 10-4.478 10-10v-40.526c0-34.098-20.248-63.538-49.341-76.981zm-52.818-168.968a10.003 10.003 0 0 0-7.071-2.929H276.468c-15.143 0-27.462-12.319-27.462-27.462V84.924c0-15.143 12.319-27.462 27.462-27.462h155.468c15.143 0 27.462 12.319 27.462 27.462v.538H395.96c-5.522 0-10 4.477-10 10s4.478 10 10 10h63.438v79.672c0 15.143-12.319 27.462-27.462 27.462h-4.059c-5.522 0-10 4.477-10 10v9.261l-16.331-16.332zm-50.68 98.455c0-26.456 21.524-47.98 47.981-47.98 26.456 0 47.98 21.524 47.98 47.98v40.658c0 12.168-9.899 22.067-22.067 22.067h-51.827v.001c-12.168 0-22.067-9.899-22.067-22.067V313.98zM483.707 492H313.988v-30.526c0-35.713 29.055-64.768 64.768-64.768h40.184c35.713 0 64.767 29.055 64.767 64.768V492zM212.962 0H96.651c-26.17 0-47.462 21.292-47.462 47.462v100.21c0 24.16 18.143 44.161 41.52 47.092v23.774a10.002 10.002 0 0 0 9.998 10.001 9.998 9.998 0 0 0 7.073-2.93l30.475-30.475h51.967c5.522 0 10-4.477 10-10s-4.478-10-10-10h-56.109a10.003 10.003 0 0 0-7.071 2.929l-16.332 16.332v-9.261c0-5.523-4.478-10-10-10h-4.059c-15.143 0-27.462-12.319-27.462-27.462V47.462C69.189 32.319 81.509 20 96.651 20h116.31c5.522 0 10-4.477 10-10s-4.478-10-9.999-10zM259.194 2.93A10.091 10.091 0 0 0 252.125 0c-2.641 0-5.221 1.07-7.07 2.93-1.87 1.86-2.94 4.44-2.94 7.07s1.07 5.21 2.94 7.07a10.037 10.037 0 0 0 7.07 2.93c2.63 0 5.2-1.07 7.069-2.93 1.86-1.86 2.931-4.44 2.931-7.07s-1.071-5.21-2.931-7.07z"/><path d="M361.273 88.39a10.073 10.073 0 0 0-7.069-2.93c-2.63 0-5.21 1.07-7.07 2.93a10.076 10.076 0 0 0-2.93 7.07c0 2.63 1.069 5.21 2.93 7.07 1.861 1.86 4.44 2.93 7.07 2.93s5.21-1.07 7.069-2.93a10.077 10.077 0 0 0 2.931-7.07c0-2.63-1.07-5.21-2.931-7.07z"/></svg>