<svg xmlns="http://www.w3.org/2000/svg" viewBox="0 0 512 512" fill="#4c5467"><path d="M306.74 446.93a10.076 10.076 0 0 0-7.07-2.93c-2.63 0-5.21 1.07-7.07 2.93-1.859 1.86-2.93 4.44-2.93 7.07s1.07 5.21 2.93 7.07c1.86 1.86 4.44 2.93 7.07 2.93s5.21-1.07 7.07-2.93c1.859-1.86 2.93-4.44 2.93-7.07s-1.07-5.21-2.93-7.07z"/><path d="M511.976 186.475a9.943 9.943 0 0 0-2.23-5.8 9.994 9.994 0 0 0-1.731-1.653c-.052-.041-.096-.083-.153-.125L458 142.82V30c0-16.542-13.458-30-30-30H84C67.458 0 54 13.458 54 30v112.819l-49.862 36.08c-2.701 1.955-4.126 5.008-4.128 8.105L0 187v275c0 27.57 22.43 50 50 50h412c27.57 0 50-22.43 50-50V187.053 187a5.51 5.51 0 0 0-.024-.525zM458 167.506l27.603 19.973L458 210.015v-42.509zM74 30c0-5.514 4.486-10 10-10h344c5.514 0 10 4.486 10 10v196.344l-122.067 99.664-30.622-22.157a49.906 49.906 0 0 0-58.621 0l-30.623 22.158L74 226.345V30zM54 167.506v42.509l-27.603-22.537L54 167.506zm-34 40.568L179.302 338.14 20 453.407V208.074zM462 492H50c-11.611 0-21.695-6.635-26.68-16.309l215.094-155.637a29.944 29.944 0 0 1 35.172 0L444.882 444H345c-5.522 0-10 4.477-10 10s4.478 10 10 10h127.522l16.158 11.691C483.695 485.365 473.611 492 462 492zm30-38.593L332.698 338.139 492 208.074v245.333z"/><path d="M200.254 54H157.73c-5.522 0-10 4.477-10 10s4.478 10 10 10h11.262v53.195c0 6.21-5.052 11.262-11.262 11.262-6.21 0-11.262-5.052-11.262-11.262 0-5.523-4.478-10-10-10s-10 4.477-10 10c.001 17.238 14.025 31.262 31.262 31.262s31.262-14.024 31.262-31.262V74h11.262c5.522 0 10-4.477 10-10s-4.478-10-10-10zM258.541 54c-28.799 0-52.229 23.429-52.229 52.228 0 28.799 23.43 52.229 52.229 52.229s52.229-23.43 52.229-52.229S287.34 54 258.541 54zm0 84.457c-17.771 0-32.229-14.458-32.229-32.229C226.313 88.458 240.771 74 258.541 74c17.771 0 32.229 14.458 32.229 32.228 0 17.771-14.458 32.229-32.229 32.229zM385.531 86c0-17.645-14.355-32-32-32h-20.523c-5.522 0-10 4.477-10 10v88c0 5.523 4.477 10 10 10h20.523c17.645 0 32-14.355 32-32 0-8.517-3.351-16.26-8.795-22 5.444-5.74 8.795-13.483 8.795-22zm-32 56h-10.523v-24h10.523c6.617 0 12 5.383 12 12s-5.383 12-12 12zm0-44h-10.523V74h10.523c6.617 0 12 5.383 12 12s-5.383 12-12 12zM348.357 246h-142c-5.522 0-10 4.477-10 10s4.478 10 10 10h142c5.522 0 10-4.477 10-10s-4.477-10-10-10zM170.71 192.93a10.06 10.06 0 0 0-7.07-2.93c-2.63 0-5.21 1.07-7.07 2.93a10.08 10.08 0 0 0-2.93 7.07c0 2.64 1.07 5.21 2.93 7.07s4.44 2.93 7.07 2.93 5.21-1.07 7.07-2.93c1.87-1.86 2.93-4.44 2.93-7.07s-1.06-5.21-2.93-7.07zM170.71 248.93c-1.86-1.86-4.44-2.93-7.07-2.93s-5.21 1.07-7.07 2.93c-1.859 1.86-2.93 4.44-2.93 7.07s1.07 5.21 2.93 7.07c1.86 1.86 4.44 2.93 7.07 2.93s5.21-1.07 7.07-2.93c1.87-1.86 2.93-4.44 2.93-7.07s-1.06-5.21-2.93-7.07zM348.357 190h-142c-5.522 0-10 4.477-10 10s4.478 10 10 10h142c5.522 0 10-4.477 10-10s-4.477-10-10-10z"/></svg>