<svg xmlns="http://www.w3.org/2000/svg" viewBox="0 0 512 512" fill="#4c5467"><path d="M503.601 437.516l-99.534-99.534c-3.906-3.905-10.236-3.905-14.143 0l-4.383 4.383-27.617-27.617c16.114-22.065 27.644-47.346 33.52-74.145 1.184-5.395-2.23-10.727-7.625-11.91-5.398-1.179-10.728 2.231-11.91 7.626-17.751 80.942-90.874 139.69-173.872 139.69-98.151 0-178.005-79.853-178.005-178.005S99.884 20 198.036 20c85.396 0 158.938 60.786 174.864 144.535 1.032 5.425 6.265 8.988 11.692 7.956 5.426-1.032 8.987-6.267 7.956-11.692C374.829 67.626 293.024 0 198.036 0 88.855 0 .031 88.824.031 198.005S88.855 396.01 198.036 396.01c41.935 0 82.974-13.45 116.694-38.045l27.606 27.606-4.383 4.383c-3.905 3.905-3.905 10.237 0 14.143l99.534 99.534c5.58 5.579 12.909 8.369 20.239 8.369 7.328 0 14.657-2.79 20.237-8.369l25.638-25.638c11.158-11.159 11.158-29.317 0-40.477zm-173.253-92.218a198.291 198.291 0 0 0 14.91-14.928l26.14 26.14-14.919 14.919-26.131-26.131zm159.109 118.553l-25.638 25.638c-3.362 3.362-8.83 3.36-12.19 0l-92.462-92.462 37.828-37.829 92.462 92.461c3.361 3.362 3.361 8.831 0 12.192z"/><path d="M141.927 144.004H99.402c-5.522 0-10 4.477-10 10s4.478 10 10 10h11.262V217.2c0 6.21-5.052 11.262-11.262 11.262S88.14 223.41 88.14 217.2c0-5.523-4.478-10-10-10s-10 4.477-10 10c0 17.238 14.024 31.263 31.263 31.263s31.263-14.024 31.263-31.263v-53.196h11.262c5.522 0 10-4.477 10-10s-4.478-10-10.001-10zM200.569 144.004c-28.8 0-52.229 23.43-52.229 52.229s23.431 52.23 52.23 52.23 52.23-23.431 52.23-52.23-23.431-52.229-52.231-52.229zm0 84.459c-17.771 0-32.23-14.458-32.23-32.23 0-17.771 14.458-32.229 32.23-32.229s32.23 14.458 32.23 32.229-14.459 32.23-32.23 32.23zM327.931 176.004c.001-17.645-14.355-32.001-32-32.001h-20.525c-5.522 0-10 4.477-10 10v88.002c0 5.523 4.478 10 10 10h20.524c17.645 0 32.001-14.355 32.001-32.001 0-8.517-3.351-16.26-8.795-22.001 5.444-5.738 8.795-13.481 8.795-21.999zm-32 56.002h-10.524v-24.001h10.523c6.617 0 12 5.383 12 12 .001 6.618-5.382 12.001-11.999 12.001zm-.001-44.001h-10.523v-24.001h10.523c6.617 0 12 5.383 12 12s-5.383 12.001-12 12.001zM386.041 188.004c-5.522 0-10 4.478-10 10.001l-.002.711c-.021 5.523 4.438 10.018 9.961 10.039h.04c5.504 0 9.978-4.452 9.999-9.961l.002-.79c0-5.523-4.478-10-10-10zM302.607 93.434c-57.661-57.659-151.481-57.659-209.142 0-3.905 3.905-3.905 10.237 0 14.142 3.905 3.906 10.235 3.906 14.143 0 49.862-49.861 130.993-49.861 180.857 0a9.968 9.968 0 0 0 7.071 2.929 9.97 9.97 0 0 0 7.071-2.929c3.905-3.904 3.905-10.237 0-14.142zM107.808 288.632l-.198-.199c-3.908-3.905-10.238-3.905-14.144 0-3.905 3.905-3.905 10.237 0 14.143l.092.091.046.045a9.981 9.981 0 0 0 7.1 2.952 9.965 9.965 0 0 0 7.042-2.9c3.918-3.888 3.948-10.212.062-14.132zM302.607 288.433c-3.905-3.904-10.235-3.905-14.143 0-40.698 40.698-103.97 49.19-153.862 20.655a10 10 0 0 0-13.646 3.716c-2.742 4.794-1.078 10.903 3.716 13.645 22.827 13.055 48.071 19.409 73.164 19.409 38.342 0 76.326-14.838 104.772-43.282 3.905-3.904 3.905-10.237-.001-14.143z"/></svg>