<svg xmlns="http://www.w3.org/2000/svg" viewBox="0 0 512 512" fill="#4c5467"><path d="M350.066 295.735a9.998 9.998 0 0 0-2.548-.097c-1.169-.031-39.518-.049-39.518-.049v-23.667c29.912-17.8 50-50.454 50-87.716v-79.7a67.688 67.688 0 0 0 8.338-32.623V10c0-5.522-4.477-10-10-10H212.833C174.327 0 143 31.327 143 69.833v20.334c0 11.793 4.126 22.636 11 31.179v62.86c0 37.262 20.088 69.916 50 87.716v23.667s-38.344.018-39.51.049a9.964 9.964 0 0 0-2.561.098C93.054 298.918 38 355.942 38 425.589V502c0 5.522 4.477 10 10 10h416c5.523 0 10-4.478 10-10v-76.411c0-69.649-55.058-126.674-123.934-129.854zM163 90.167V69.833C163 42.355 185.355 20 212.833 20h133.504v20H270.5c-5.523 0-10 4.478-10 10s4.477 10 10 10h75.838v11.883c0 26.532-21.585 48.117-48.117 48.117H192.833C176.383 120 163 106.617 163 90.167zm11 94.039v-47.913A49.545 49.545 0 0 0 192.833 140H298.22c14.841 0 28.578-4.785 39.779-12.874v57.08c0 45.215-36.785 82-82 82S174 229.421 174 184.206zm114 96.853v15.197c0 17.645-14.355 32-32 32s-32-14.355-32-32v-15.197c10.069 3.335 20.826 5.147 32 5.147s21.931-1.812 32-5.147zm-80.258 34.53c7.689 19.124 26.416 32.667 48.258 32.667 21.842 0 40.569-13.543 48.258-32.667h26.843L256 445.667l-75.101-130.078h26.843zM454 492h-36v-48c0-5.522-4.477-10-10-10s-10 4.478-10 10v48H114v-79.818c0-5.522-4.477-10-10-10s-10 4.478-10 10V492H58v-66.411c0-57.306 44.051-104.509 100.067-109.547l89.272 154.625a9.999 9.999 0 0 0 17.32 0l89.272-154.625C409.949 321.08 454 368.283 454 425.589V492z"/><path d="M229.28 174.56c-1.86-1.86-4.44-2.93-7.07-2.93s-5.21 1.07-7.07 2.93-2.93 4.44-2.93 7.07 1.07 5.21 2.93 7.07c1.86 1.859 4.44 2.93 7.07 2.93s5.21-1.07 7.07-2.93 2.93-4.44 2.93-7.07-1.07-5.21-2.93-7.07zM297.13 174.56a10.062 10.062 0 0 0-7.07-2.93c-2.63 0-5.21 1.07-7.07 2.93-1.86 1.86-2.93 4.44-2.93 7.07s1.07 5.21 2.93 7.07c1.87 1.86 4.44 2.93 7.07 2.93 2.64 0 5.21-1.07 7.07-2.93 1.87-1.86 2.93-4.44 2.93-7.07s-1.06-5.21-2.93-7.07zM238.82 42.93c-1.86-1.86-4.44-2.93-7.07-2.93s-5.21 1.069-7.07 2.93c-1.86 1.86-2.93 4.44-2.93 7.07s1.07 5.21 2.93 7.069c1.86 1.861 4.44 2.931 7.07 2.931s5.21-1.07 7.07-2.931c1.86-1.859 2.93-4.439 2.93-7.069s-1.07-5.21-2.93-7.07zM271.28 214.164c-3.905-3.904-10.237-3.904-14.143 0a3.473 3.473 0 0 1-2.468 1.022c-.54 0-1.579-.133-2.468-1.022-3.905-3.904-10.237-3.904-14.143 0-3.905 3.905-3.905 10.237 0 14.143 4.58 4.579 10.595 6.869 16.611 6.869s12.031-2.29 16.611-6.869c3.905-3.906 3.905-10.238 0-14.143zM415.07 399.11c-1.86-1.86-4.44-2.93-7.07-2.93s-5.21 1.07-7.07 2.93c-1.86 1.86-2.93 4.44-2.93 7.07s1.07 5.21 2.93 7.07c1.86 1.859 4.44 2.93 7.07 2.93s5.21-1.07 7.07-2.93 2.93-4.44 2.93-7.07-1.07-5.21-2.93-7.07z"/></svg>