<svg xmlns="http://www.w3.org/2000/svg" viewBox="0 0 512 512" fill="#4c5467"><path d="M438 0H74C57.458 0 44 13.458 44 30v452c0 16.542 13.458 30 30 30h364c16.542 0 30-13.458 30-30V30c0-16.542-13.458-30-30-30zm-61 35.436l55.691 55.691H387c-5.514 0-10-4.486-10-10V35.436zM448 482c0 5.514-4.486 10-10 10H74c-5.514 0-10-4.486-10-10V30c0-5.514 4.486-10 10-10h283v61.127c0 16.542 13.458 30 30 30h61V482zm0-403.849L389.849 20H438c5.514 0 10 4.486 10 10v48.151z"/><path d="M407.699 188H296.282c-5.523 0-10 4.477-10 10s4.477 10 10 10h111.417c5.523 0 10-4.477 10-10s-4.477-10-10-10zM303.35 142.93c-1.86-1.86-4.44-2.93-7.07-2.93s-5.21 1.07-7.07 2.93-2.93 4.44-2.93 7.07 1.07 5.21 2.93 7.07 4.44 2.93 7.07 2.93 5.21-1.07 7.07-2.93c1.86-1.86 2.93-4.44 2.93-7.07s-1.07-5.21-2.93-7.07zM407.699 140h-71.493c-5.523 0-10 4.477-10 10s4.477 10 10 10h71.493c5.523 0 10-4.477 10-10s-4.477-10-10-10zM407.699 236H299.365c-5.523 0-10 4.477-10 10s4.477 10 10 10h108.333c5.523 0 10-4.477 10-10s-4.476-10-9.999-10zM410.269 284H104.301c-5.523 0-10 4.477-10 10s4.477 10 10 10h305.968c5.523 0 10-4.477 10-10s-4.477-10-10-10zM407.698 332H104.301c-5.523 0-10 4.477-10 10s4.477 10 10 10h303.397c5.523 0 10-4.477 10-10s-4.477-10-10-10zM410.269 380H104.301c-5.523 0-10 4.477-10 10s4.477 10 10 10h305.968c5.523 0 10-4.477 10-10s-4.477-10-10-10zM417.34 430.93c-1.86-1.86-4.44-2.93-7.07-2.93s-5.21 1.07-7.07 2.93-2.93 4.44-2.93 7.07 1.07 5.21 2.93 7.07c1.86 1.86 4.44 2.93 7.07 2.93s5.21-1.07 7.07-2.93c1.86-1.86 2.93-4.44 2.93-7.07s-1.07-5.21-2.93-7.07zM370.006 428H104.301c-5.523 0-10 4.477-10 10s4.477 10 10 10h265.705c5.523 0 10-4.477 10-10s-4.477-10-10-10zM248.172 64H101.731c-5.523 0-10 4.477-10 10l-.129 172c0 5.523 4.477 10 10 10h146.57c5.523 0 10-4.477 10-10V74c0-5.523-4.477-10-10-10zm-10 172h-126.57l.129-12.731C113.35 201.346 131.692 184 154.021 184h41.732c23.39 0 42.419 19.029 42.419 42.419V236zm-79.285-88v-6.5c0-8.822 7.178-16 16-16s16 7.178 16 16v6.5c0 8.822-7.178 16-16 16s-16-7.178-16-16zm79.285 32.685c-8.618-7.999-19.489-13.589-31.545-15.717a35.78 35.78 0 0 0 4.26-16.968v-6.5c0-19.851-16.149-36-36-36s-36 16.149-36 36v6.5a35.78 35.78 0 0 0 4.26 16.968c-11.995 2.117-22.819 7.659-31.416 15.593V84h126.441v96.685z"/></svg>