<svg xmlns="http://www.w3.org/2000/svg" viewBox="0 0 512 512" fill="#4c5467"><path d="M337.816 31.499l-.218-.197c-4.116-3.672-10.402-3.294-14.081.817-3.677 4.107-3.31 10.436.784 14.123a9.964 9.964 0 0 0 6.746 2.62 9.977 9.977 0 0 0 7.366-3.233c3.737-4.067 3.47-10.393-.597-14.13z"/><path d="M428 170.127h-40c-3.506 0-6.87.61-10 1.72V122c0-21.392-5.62-42.442-16.25-60.874-2.759-4.784-8.875-6.426-13.659-3.666-4.784 2.759-6.426 8.874-3.667 13.658C353.306 86.517 358 104.11 358 122v92.667C358 231.944 343.944 246 326.667 246H185.333C168.056 246 154 231.944 154 214.667V122c0-56.243 45.757-102 102-102 13.979 0 27.519 2.773 40.243 8.243 5.076 2.18 10.956-.164 13.136-5.238 2.181-5.074-.164-10.955-5.238-13.137C288.908 3.32 272.711 0 256 0c-67.271 0-122 54.729-122 122v49.847a29.857 29.857 0 0 0-10-1.72H84c-16.542 0-30 13.458-30 30s13.458 30 30 30h10v14c0 24.543 17.779 44.997 41.132 49.197 4.123 16.523 19.086 28.803 36.868 28.803h54.127V404H197c-24.595 0-45.085 17.855-49.223 41.282C133.498 449.313 123 462.449 123 478c0 18.748 15.252 34 34 34s34-15.252 34-34c0-14.852-9.576-27.501-22.874-32.121C171.677 433.272 183.272 424 197 424h49v21.503c-13.882 4.281-24 17.228-24 32.497 0 18.748 15.252 34 34 34s34-15.252 34-34c0-15.269-10.118-28.217-24-32.497V424h49c13.728 0 25.323 9.272 28.874 21.879C330.576 450.499 321 463.148 321 478c0 18.748 15.252 34 34 34s34-15.252 34-34c0-15.551-10.498-28.687-24.777-32.718C360.085 421.855 339.595 404 315 404h-28.873v-81.873H340c17.782 0 32.745-12.28 36.868-28.803 23.353-4.2 41.132-24.654 41.132-49.197v-14h10c16.542 0 30-13.458 30-30s-13.458-30-30-30zM171 478c0 7.72-6.28 14-14 14s-14-6.28-14-14 6.28-14 14-14 14 6.28 14 14zm184-14c7.72 0 14 6.28 14 14s-6.28 14-14 14-14-6.28-14-14 6.28-14 14-14zM84 210.127c-5.514 0-10-4.486-10-10s4.486-10 10-10h40c5.514 0 10 4.486 10 10s-4.486 10-10 10H84zm51.681 62.818C123.175 269.328 114 257.783 114 244.127v-14h10c4.147 0 8.1-.847 11.696-2.375 2.56 9.702 7.891 18.291 15.098 24.857-7.119 4.805-12.528 11.957-15.113 20.336zM270 478c0 7.72-6.28 14-14 14s-14-6.28-14-14 6.28-14 14-14 14 6.28 14 14zm-3.873-74h-20v-81.873h20V404zM340 302.127H172c-9.925 0-18-8.075-18-18s8.075-18 18-18h168c9.925 0 18 8.075 18 18s-8.075 18-18 18zm58-58c0 13.656-9.175 25.201-21.681 28.818-2.585-8.379-7.994-15.531-15.113-20.336 7.207-6.566 12.538-15.155 15.098-24.857A29.838 29.838 0 0 0 388 230.127h10v14zm30-34h-40c-5.514 0-10-4.486-10-10s4.486-10 10-10h40c5.514 0 10 4.486 10 10s-4.486 10-10 10z"/><path d="M290.587 113.305c-1.182-17.148-15.004-30.97-32.15-32.151-9.728-.664-18.991 2.609-26.091 9.238a34.795 34.795 0 0 0-11.017 25.349c0 5.522 4.477 10 10 10s10-4.478 10-10c0-4.111 1.656-7.921 4.664-10.729 3.003-2.803 6.931-4.189 11.069-3.905 7.239.498 13.074 6.334 13.572 13.573.505 7.319-4.293 13.787-11.406 15.379C251.44 131.8 246 138.571 246 146.524v18.012c0 5.522 4.477 10 10 10s10-4.478 10-10V148.95c15.494-4.622 25.719-19.229 24.587-35.645zM263.07 193.06c-1.86-1.871-4.44-2.93-7.07-2.93s-5.21 1.06-7.07 2.93a10.06 10.06 0 0 0-2.93 7.07c0 2.63 1.07 5.21 2.93 7.07 1.86 1.859 4.44 2.93 7.07 2.93s5.21-1.07 7.07-2.93 2.93-4.44 2.93-7.07c0-2.64-1.07-5.21-2.93-7.07z"/></svg>