<svg xmlns="http://www.w3.org/2000/svg" viewBox="0 0 511.999 511.999" fill="#4c5467"><path d="M150.447 312.003c7.476-3.772 16.448-.955 20.427 6.413l28.239 52.29a10 10 0 1 0 18.799-4.752v-76.351c-.001-5.522-4.478-9.999-10.001-9.999s-10 4.478-10 10v36.79l-9.44-17.48c-9.162-16.963-29.823-23.452-47.033-14.766-14.729 7.431-22.314 23.821-18.445 39.858l18.307 75.881c4.279 17.738 11.908 34.202 22.674 48.935l35.864 49.077A9.985 9.985 0 0 0 207.92 512a9.957 9.957 0 0 0 5.892-1.927c4.459-3.259 5.433-9.516 2.174-13.975l-35.864-49.077a117.042 117.042 0 0 1-19.379-41.824l-18.307-75.882a15.296 15.296 0 0 1 8.011-17.312zM376.225 269.38a33.835 33.835 0 0 0-16.3 4.164c-4.907-12.782-17.302-21.883-31.791-21.883-6.249 0-12.105 1.7-17.144 4.65-5.386-11.718-17.227-19.88-30.946-19.88-5.007 0-9.76 1.095-14.045 3.044v-47.811c0-18.772-15.272-34.045-34.045-34.045-18.773 0-34.045 15.272-34.045 34.045v17.334c0 5.522 4.477 10 10 10s10-4.478 10-10v-17.333c0-7.744 6.301-14.045 14.045-14.045s14.045 6.301 14.045 14.045v141.107c0 5.522 4.477 10 10 10s10-4.478 10-10v-62.297c0-7.744 6.3-14.045 14.045-14.045s14.045 6.301 14.045 14.045v62.297c0 5.522 4.477 10 10 10s10-4.478 10-10v-47.066c0-7.745 6.3-14.046 14.045-14.046s14.045 6.301 14.045 14.046v47.066c0 5.522 4.477 10 10 10s10-4.478 10-10v-29.349c0-7.744 6.301-14.045 14.045-14.045s14.045 6.301 14.045 14.045v84.379c0 22.484-3.412 44.764-10.14 66.218l-14.106 44.982c-1.652 5.27 1.28 10.882 6.55 12.534a9.97 9.97 0 0 0 2.995.461c4.254-.001 8.199-2.737 9.539-7.011l14.106-44.982a241.038 241.038 0 0 0 11.056-72.202v-84.379c.001-18.77-15.271-34.043-34.044-34.043zM511.161 53.029c-1.996-6.139-7.205-10.528-13.594-11.455l-30.629-4.441-13.705-27.752C450.376 3.594 444.592 0 438.139 0h-.004c-6.456.001-12.24 3.599-15.095 9.389l-13.69 27.758-30.627 4.459c-6.388.93-11.595 5.322-13.587 11.463-1.993 6.14-.358 12.752 4.265 17.256l22.169 21.598-5.224 30.506c-1.089 6.363 1.479 12.672 6.702 16.464a16.768 16.768 0 0 0 9.875 3.23c2.677 0 5.368-.646 7.854-1.953l27.391-14.41 27.399 14.396c5.714 3.004 12.508 2.51 17.729-1.287 5.221-3.796 7.786-10.105 6.692-16.468l-5.24-30.503 22.157-21.609c4.621-4.508 6.252-11.122 4.256-17.26zm-41.567 25.712a16.827 16.827 0 0 0-4.838 14.903l4.436 25.823-23.194-12.186a16.83 16.83 0 0 0-15.67.003l-23.188 12.199 4.423-25.827a16.835 16.835 0 0 0-4.847-14.899l-18.768-18.284 25.93-3.774a16.833 16.833 0 0 0 12.672-9.214l11.59-23.498 11.602 23.491a16.835 16.835 0 0 0 12.679 9.208l25.93 3.761-18.757 18.294zM329.01 53.029c-1.996-6.139-7.204-10.529-13.593-11.455l-30.629-4.441-13.705-27.752C268.225 3.594 262.442 0 255.988 0h-.005c-6.455.001-12.239 3.599-15.094 9.389l-13.69 27.758-30.627 4.459c-6.388.93-11.595 5.322-13.587 11.463-1.993 6.14-.358 12.752 4.265 17.256l22.168 21.597-5.224 30.506c-1.089 6.363 1.479 12.672 6.702 16.464a16.768 16.768 0 0 0 9.875 3.23c2.677 0 5.368-.646 7.854-1.953l27.392-14.409 27.399 14.395c5.714 3.004 12.508 2.51 17.729-1.287 5.221-3.796 7.786-10.105 6.692-16.468l-5.24-30.503 22.157-21.609c4.621-4.507 6.252-11.12 4.256-17.259zm-41.566 25.712a16.83 16.83 0 0 0-4.838 14.903l4.436 25.823-23.194-12.186a16.83 16.83 0 0 0-15.67.003l-23.189 12.199 4.423-25.827a16.833 16.833 0 0 0-4.847-14.899l-18.767-18.284 25.929-3.774a16.836 16.836 0 0 0 12.673-9.214l11.59-23.499 11.602 23.492a16.834 16.834 0 0 0 12.679 9.208l25.93 3.761-18.757 18.294zM146.86 53.029c-1.996-6.139-7.205-10.528-13.594-11.455l-30.629-4.441L88.933 9.381C86.075 3.594 80.292 0 73.838 0h-.005c-6.455.001-12.239 3.599-15.094 9.389l-13.69 27.758-30.627 4.459c-6.388.93-11.594 5.322-13.587 11.462S.475 65.82 5.099 70.325l22.169 21.598-5.224 30.506c-1.089 6.363 1.479 12.672 6.702 16.465 2.951 2.142 6.401 3.23 9.876 3.229 2.677 0 5.368-.646 7.854-1.953l27.392-14.409 27.399 14.395c5.715 3.002 12.508 2.509 17.729-1.286 5.221-3.797 7.785-10.108 6.692-16.47l-5.24-30.503 22.157-21.609c4.62-4.507 6.251-11.12 4.255-17.259zM105.294 78.74a16.827 16.827 0 0 0-4.839 14.904l4.436 25.823-23.193-12.186a16.83 16.83 0 0 0-15.67.003l-23.19 12.2 4.422-25.825a16.83 16.83 0 0 0-4.846-14.901L23.648 60.473l25.929-3.774a16.833 16.833 0 0 0 12.672-9.214l11.59-23.499 11.602 23.492a16.834 16.834 0 0 0 12.679 9.208l25.931 3.761-18.757 18.293z"/><path d="M214.981 243.13a10.07 10.07 0 0 0-7.07-2.93c-2.63 0-5.21 1.069-7.07 2.93s-2.93 4.439-2.93 7.07c0 2.63 1.07 5.21 2.93 7.069a10.077 10.077 0 0 0 7.07 2.931c2.63 0 5.21-1.07 7.07-2.931a10.072 10.072 0 0 0 2.93-7.069 10.07 10.07 0 0 0-2.93-7.07z"/></svg>