<svg xmlns="http://www.w3.org/2000/svg" viewBox="0 0 512 512" fill="#4c5467"><path d="M460.934 268.491a41.835 41.835 0 0 0 7.168-23.466v-8.021c0-23.203-18.878-42.081-42.081-42.081-11.577 0-22.077 4.701-29.693 12.293C376.622 148.609 321.163 106.275 256 106.275s-120.622 42.333-140.328 100.941c-7.616-7.592-18.115-12.293-29.693-12.293-23.203 0-42.081 18.878-42.081 42.081v8.021a41.835 41.835 0 0 0 7.168 23.466C21.937 274.629 0 300.524 0 331.452v20.134c0 5.522 4.478 10 10 10h52c5.522 0 10-4.478 10-10s-4.478-10-10-10H20v-10.134c0-24.453 19.894-44.347 44.347-44.347h47.329a147.167 147.167 0 0 0 19.641 46.831L17.218 448.035c-14.61 14.611-14.61 38.386.001 52.998 7.306 7.306 16.901 10.958 26.498 10.958 9.597 0 19.194-3.653 26.5-10.958l62.903-62.904c3.905-3.905 3.905-10.237 0-14.143-3.906-3.904-10.236-3.904-14.143 0L56.075 486.89c-6.815 6.814-17.901 6.813-24.715.001-6.813-6.814-6.813-17.901 0-24.715L143.367 350.17c27.167 31.862 67.578 52.105 112.633 52.105 70.328 0 129.35-49.31 144.324-115.17h47.329c24.453 0 44.347 19.894 44.347 44.347v10.134h-94c-5.522 0-10 4.478-10 10s4.478 10 10 10h104c5.522 0 10-4.478 10-10v-20.134c0-30.928-21.937-56.823-51.066-62.961zM108.06 245.026c0 12.175-9.905 22.08-22.081 22.08s-22.081-9.905-22.081-22.08v-8.021c0-12.176 9.905-22.081 22.081-22.081s22.081 9.905 22.081 22.081v8.021zM256 382.275c-70.579 0-128-57.421-128-128s57.421-128 128-128 128 57.421 128 128-57.421 128-128 128zm192.101-137.249c0 12.175-9.905 22.08-22.081 22.08s-22.081-9.905-22.081-22.08v-8.021c0-12.176 9.905-22.081 22.081-22.081s22.081 9.905 22.081 22.081v8.021z"/><path d="M256 146.275c-59.552 0-108 48.448-108 108 0 30.91 13.056 58.825 33.938 78.53.357.386.74.75 1.16 1.08 19.226 17.621 44.829 28.39 72.902 28.39s53.676-10.77 72.902-28.39c.42-.329.803-.694 1.16-1.08C350.944 313.1 364 285.185 364 254.275c0-59.551-48.448-108-108-108zm0 196c-20.563 0-39.499-7.091-54.497-18.954 10.625-20.104 31.331-32.753 54.497-32.753s43.872 12.649 54.497 32.753c-14.998 11.863-33.934 18.954-54.497 18.954zm-21.073-92.78v-7.769c0-11.62 9.453-21.073 21.073-21.073s21.073 9.453 21.073 21.073v7.769c0 11.62-9.453 21.073-21.073 21.073s-21.073-9.453-21.073-21.073zm90.198 59.179c-9.161-14.617-22.57-25.764-38.264-32.12 6.349-7.233 10.212-16.7 10.212-27.058v-7.769c0-22.647-18.426-41.073-41.073-41.073-22.647 0-41.073 18.426-41.073 41.073v7.769c0 10.358 3.862 19.825 10.212 27.058-15.694 6.357-29.102 17.503-38.264 32.12C175.059 293.692 168 274.793 168 254.275c0-48.523 39.477-88 88-88s88 39.477 88 88c0 20.518-7.059 39.417-18.875 54.399zM159.87 397.239c-1.86-1.86-4.44-2.93-7.07-2.93s-5.21 1.07-7.07 2.93c-1.859 1.86-2.93 4.44-2.93 7.07s1.07 5.21 2.93 7.07c1.86 1.859 4.44 2.93 7.07 2.93s5.21-1.07 7.07-2.93c1.859-1.86 2.93-4.44 2.93-7.07s-1.07-5.21-2.93-7.07zM256.203.009c-5.522 0-10 4.478-10 10v34.024c0 5.523 4.478 10 10 10s10-4.478 10-10V10.009c0-5.522-4.478-10-10-10zM263.269 69.939a10.056 10.056 0 0 0-7.069-2.93 10.07 10.07 0 0 0-7.07 2.93 10.077 10.077 0 0 0-2.93 7.07c0 2.63 1.069 5.21 2.93 7.069a10.075 10.075 0 0 0 7.07 2.931c2.64 0 5.21-1.07 7.069-2.931a10.073 10.073 0 0 0 2.931-7.069c0-2.63-1.07-5.21-2.931-7.07zM340.979 39.235c-3.906-3.904-10.236-3.904-14.143 0L309.26 56.811c-3.905 3.905-3.905 10.237 0 14.143 1.954 1.952 4.512 2.929 7.072 2.929s5.118-.977 7.071-2.929l17.576-17.576c3.905-3.905 3.905-10.237 0-14.143zM202.908 56.932l-17.745-17.745c-3.906-3.904-10.236-3.904-14.143 0-3.905 3.905-3.905 10.237 0 14.143l17.746 17.745a9.972 9.972 0 0 0 7.071 2.929 9.972 9.972 0 0 0 7.071-2.929c3.905-3.905 3.905-10.237 0-14.143z"/></svg>