<svg xmlns="http://www.w3.org/2000/svg" viewBox="0 0 512 512" fill="#4c5467"><path d="M456.725 390.649a10.076 10.076 0 0 0-7.07-2.93c-2.63 0-5.21 1.07-7.07 2.93s-2.93 4.44-2.93 7.07 1.07 5.21 2.93 7.07c1.86 1.86 4.43 2.93 7.07 2.93 2.63 0 5.21-1.07 7.07-2.93 1.86-1.86 2.93-4.44 2.93-7.07s-1.07-5.21-2.93-7.07z"/><path d="M503.592 437.515l-21.057-21.057c-3.905-3.905-10.237-3.905-14.142 0s-3.905 10.237 0 14.142l21.057 21.057a8.565 8.565 0 0 1 2.525 6.096 8.568 8.568 0 0 1-2.525 6.096l-25.637 25.637c-3.362 3.36-8.831 3.362-12.191 0l-92.462-92.462 37.829-37.829 19.438 19.438c3.905 3.905 10.237 3.905 14.142 0 3.905-3.905 3.905-10.237 0-14.142l-26.509-26.508c-3.905-3.905-10.237-3.904-14.142 0l-4.383 4.383-27.655-27.655c23.976-32.75 38.155-73.1 38.155-116.706C396.034 88.824 307.21 0 198.029 0S.024 88.824.024 198.005 88.848 396.01 198.029 396.01c43.574 0 83.898-14.159 116.635-38.104l27.665 27.665-4.383 4.383c-3.905 3.905-3.905 10.237 0 14.143l99.534 99.534c5.58 5.58 12.908 8.37 20.239 8.369 7.328-.001 14.659-2.791 20.239-8.37l25.637-25.637c5.406-5.406 8.383-12.593 8.383-20.239s-2.98-14.832-8.386-20.239zm-305.564-61.507c-98.151 0-178.004-79.853-178.004-178.005S99.877 19.999 198.028 19.999s178.004 79.853 178.004 178.005-79.853 178.004-178.004 178.004zm132.248-30.774a199.994 199.994 0 0 0 14.923-14.915l26.19 26.19-14.919 14.919-26.194-26.194z"/><path d="M198.558 50.058l-.529-.001c-5.523 0-10 4.477-10 10s4.476 10 9.999 10l.471.001h.03c5.509 0 9.983-4.458 10-9.971.016-5.523-4.448-10.013-9.971-10.029z"/><path d="M315.585 108.167c-19.241-25.144-46.516-43.76-76.8-52.421-5.31-1.519-10.845 1.555-12.364 6.865-1.519 5.31 1.555 10.845 6.865 12.364 54.574 15.607 92.689 66.2 92.689 123.029 0 34.789-13.962 66.373-36.571 89.46a9.963 9.963 0 0 0 .627-3.458v-21.495c0-32.362-23.703-59.281-54.656-64.341 5.488-7.584 8.735-16.891 8.735-26.947v-60.091c0-5.523-4.477-10-10-10h-44.693c-20.661 0-37.469 16.808-37.469 37.469v32.623c0 10.056 3.247 19.362 8.735 26.947-30.954 5.059-54.656 31.978-54.656 64.341v21.495c0 1.217.228 2.379.627 3.458-22.608-23.088-36.571-54.671-36.571-89.46 0-56.364 36.126-105.471 89.893-122.195 5.273-1.641 8.219-7.246 6.579-12.519-1.641-5.273-7.245-8.221-12.519-6.579-29.491 9.173-55.968 27.914-74.557 52.769-19.232 25.716-29.398 56.327-29.398 88.524 0 81.578 66.369 147.947 147.947 147.947s147.947-66.369 147.947-147.947c0-32.794-10.509-63.859-30.39-89.838zm-117.556 89.137c-14.38 0-26.082-11.698-26.082-26.08v-7.082h41.332c3.81 0 7.458-.699 10.83-1.969v9.05c.001 14.381-11.7 26.081-26.08 26.081zm15.881 20.001l-15.882 15.882-15.882-15.882h31.764zm-41.964-78.703c.001-9.632 7.837-17.468 17.469-17.468h34.693v12.179c0 5.972-4.858 10.83-10.83 10.83h-41.332v-5.541zm-45.922 123.91h.002c0-19.724 12.702-36.528 30.353-42.687l34.577 34.577a9.972 9.972 0 0 0 7.071 2.929 9.97 9.97 0 0 0 7.071-2.929l34.577-34.577c17.65 6.159 30.353 22.963 30.353 42.687v11.494H126.024v-11.494zm72.004 63.438c-32.596 0-62.378-12.259-84.994-32.4.945.296 1.95.456 2.992.456H280.03c1.042 0 2.047-.16 2.992-.456-22.616 20.142-52.398 32.4-84.994 32.4z"/></svg>