<svg xmlns="http://www.w3.org/2000/svg" viewBox="0 0 512.001 512.001" fill="#4c5467"><path d="M263.07 356.915c-1.859-1.86-4.439-2.93-7.069-2.93s-5.21 1.07-7.07 2.93c-1.86 1.86-2.93 4.44-2.93 7.07s1.069 5.2 2.93 7.07c1.86 1.859 4.44 2.93 7.07 2.93s5.21-1.07 7.069-2.93a10.077 10.077 0 0 0 2.931-7.07c0-2.64-1.07-5.21-2.931-7.07z"/><path d="M457.204 53.998h-59.197V20.001C398.007 8.972 389.034 0 378.006 0h-244.01c-11.028 0-20.001 8.972-20.001 20.001v33.997H54.797c-15.332 0-27.806 12.451-27.806 27.755v296.488c0 15.305 12.474 27.755 27.806 27.755h152.181v46.196c-25.228 2.555-44.982 23.918-44.982 49.808 0 5.522 4.478 10 10 10h168.007c5.522 0 10-4.478 10-10 0-25.889-19.754-47.252-44.981-49.808v-46.196h152.181c15.332 0 27.806-12.451 27.806-27.755V81.753c.001-15.304-12.473-27.755-27.805-27.755zM46.991 81.753c.001-4.275 3.502-7.754 7.805-7.754h59.197v67.007c0 5.523 4.478 10 10 10s10-4.477 10-10V20.001h244.01v301.991h-244.01V213.373c0-5.523-4.478-10-10-10s-10 4.477-10 10v108.619H46.991V81.753zm281.302 410.246H183.707c4.13-11.677 15.28-20.064 28.354-20.064h87.878c13.074.001 24.224 8.389 28.354 20.064zm-101.314-40.063v-45.94h58.043v45.94h-58.043zm238.03-73.695c.001 4.276-3.5 7.754-7.804 7.754H54.797c-4.304 0-7.805-3.479-7.805-7.754v-36.247h418.017v36.247zm.001-56.249h-67.003V73.999h59.197c4.304 0 7.805 3.479 7.805 7.754v240.239z"/><path d="M256.001 40.002c-40.806 0-74.003 33.197-74.003 74.003 0 21.05 8.848 40.061 23.005 53.548.361.401.75.781 1.178 1.123 13.159 12.002 30.648 19.332 49.82 19.332s36.661-7.33 49.82-19.332c.428-.342.816-.722 1.178-1.123 14.156-13.488 23.005-32.498 23.005-53.548 0-40.806-33.197-74.003-74.003-74.003zm0 128.005c-11.536 0-22.231-3.648-31.015-9.835 6.672-10.497 18.204-16.995 31.015-16.995s24.343 6.498 31.015 16.995c-8.784 6.187-19.479 9.835-31.015 9.835zm-10.293-57.124v-5.073c0-5.675 4.617-10.292 10.293-10.292 5.676 0 10.293 4.617 10.293 10.292v5.073c0 5.676-4.617 10.293-10.293 10.293-5.676 0-10.293-4.617-10.293-10.293zm55.487 32.628a56.305 56.305 0 0 0-19.673-16.338 30.103 30.103 0 0 0 4.773-16.291v-5.073c0-16.704-13.591-30.293-30.294-30.293s-30.294 13.59-30.294 30.293v5.073a30.108 30.108 0 0 0 4.773 16.291 56.285 56.285 0 0 0-19.673 16.338 53.67 53.67 0 0 1-8.808-29.506c0-29.777 24.225-54.002 54.002-54.002 29.776 0 54.002 24.225 54.002 54.002a53.67 53.67 0 0 1-8.808 29.506zM131.065 167.937a10.072 10.072 0 0 0-7.069-2.93c-2.63 0-5.21 1.07-7.07 2.93a10.076 10.076 0 0 0-2.93 7.07c0 2.63 1.069 5.21 2.93 7.07a10.077 10.077 0 0 0 7.07 2.93c2.63 0 5.21-1.07 7.069-2.93a10.077 10.077 0 0 0 2.931-7.07c0-2.63-1.07-5.21-2.931-7.07zM318.004 212.009H201.999c-5.522 0-10 4.477-10 10s4.478 10 10 10h116.005c5.522 0 10-4.477 10-10s-4.478-10-10-10zM325.073 258.941a10.067 10.067 0 0 0-7.069-2.93c-2.63 0-5.21 1.069-7.07 2.93s-2.93 4.44-2.93 7.07 1.069 5.21 2.93 7.069a10.077 10.077 0 0 0 7.07 2.931c2.63 0 5.21-1.07 7.069-2.931a10.073 10.073 0 0 0 2.931-7.069c0-2.63-1.07-5.21-2.931-7.07zM279.673 256.01h-77.674c-5.522 0-10 4.478-10 10s4.478 10 10 10h77.674c5.522 0 10-4.478 10-10s-4.478-10-10-10z"/></svg>