<svg xmlns="http://www.w3.org/2000/svg" viewBox="0 0 512 512" fill="#4c5467"><path d="M422.877 89.123C378.303 44.548 319.038 20 256 20S133.697 44.548 89.123 89.123C44.548 133.697 20 192.962 20 256s24.548 122.303 69.123 166.877C133.697 467.452 192.962 492 256 492s122.303-24.548 166.877-69.123C467.452 378.303 492 319.038 492 256s-24.548-122.303-69.123-166.877zM256 472c-119.103 0-216-96.897-216-216S136.897 40 256 40s216 96.897 216 216-96.897 216-216 216z"/><path d="M448.191 217.365c-12.346-61.741-54.076-114.113-111.628-140.093-5.035-2.273-10.957-.034-13.229 5-2.272 5.034-.034 10.957 5 13.229 51.686 23.332 89.161 70.355 100.246 125.786.951 4.754 5.126 8.041 9.795 8.041.649 0 1.31-.064 1.971-.196 5.416-1.083 8.928-6.351 7.845-11.767zM302.395 65.525l-.359-.087c-5.371-1.292-10.77 2.016-12.061 7.386-1.29 5.371 2.016 10.77 7.386 12.061l.25.06c.803.198 1.608.293 2.4.293 4.493 0 8.578-3.051 9.701-7.611 1.322-5.363-1.954-10.781-7.317-12.102zM224.67 72.354c-1.214-5.389-6.57-8.77-11.954-7.556-35.595 8.025-68.217 25.884-94.339 51.646-26.099 25.74-44.404 58.077-52.937 93.517-1.293 5.369 2.011 10.77 7.381 12.063.786.189 1.574.28 2.349.28 4.515 0 8.611-3.079 9.714-7.661 15.547-64.57 67.45-115.729 132.23-130.334 5.388-1.215 8.771-6.568 7.556-11.955zM180.308 414.94c-49.87-23.795-86.09-70.235-96.887-124.227-1.083-5.415-6.352-8.93-11.767-7.845-5.416 1.083-8.928 6.351-7.845 11.767 12.026 60.138 52.357 111.86 107.886 138.355a9.942 9.942 0 0 0 4.299.977c3.734 0 7.317-2.101 9.033-5.695 2.379-4.985.266-10.954-4.719-13.332zM214.588 427.103c-5.364-1.326-10.782 1.952-12.103 7.314-1.322 5.363 1.953 10.782 7.315 12.104l.138.034c.793.192 1.585.285 2.365.285 4.499 0 8.564-3.074 9.677-7.647 1.305-5.367-2.026-10.785-7.392-12.09zM439.178 289.977c-5.368-1.295-10.77 2.011-12.063 7.381-15.547 64.569-67.45 115.729-132.23 130.334-5.388 1.215-8.771 6.566-7.556 11.954 1.048 4.648 5.174 7.803 9.746 7.803.729 0 1.468-.08 2.208-.247 35.595-8.025 68.217-25.883 94.339-51.646 26.099-25.739 44.404-58.077 52.937-93.516 1.293-5.37-2.011-10.771-7.381-12.063zM256 0c-5.523 0-10 4.477-10 10v75c0 5.523 4.477 10 10 10s10-4.477 10-10V10c0-5.523-4.477-10-10-10zM256 417c-5.523 0-10 4.478-10 10v75c0 5.522 4.477 10 10 10s10-4.478 10-10v-75c0-5.522-4.477-10-10-10zM502 246h-75c-5.523 0-10 4.477-10 10 0 5.522 4.477 10 10 10h75c5.523 0 10-4.478 10-10 0-5.523-4.477-10-10-10zM85 246H10c-5.523 0-10 4.477-10 10 0 5.522 4.477 10 10 10h75c5.523 0 10-4.478 10-10 0-5.523-4.477-10-10-10z"/><path d="M300.281 245.583c-.102-.029-.206-.05-.309-.075 9.359-10.451 15.064-24.239 15.064-39.339V124.5c0-5.523-4.477-10-10-10h-60.742c-26.099 0-47.332 21.233-47.332 47.332v44.337c0 15.1 5.705 28.888 15.064 39.339-.103.025-.207.047-.309.075-43.211 3.983-77.166 40.42-77.166 84.653V365.5c0 5.522 4.477 10 10 10h222.896c5.523 0 10-4.478 10-10v-35.264c.001-44.233-33.954-80.669-77.166-84.653zm-44.28-.376c-21.525 0-39.037-17.512-39.037-39.037v-13.217h59.764a38.078 38.078 0 0 0 18.31-4.667v17.884c0 21.525-17.512 39.037-39.037 39.037zm17.431 19.999L256 282.638l-17.432-17.432h34.864zm-56.47-103.374h.001c0-15.071 12.261-27.332 27.332-27.332h50.742v20.144c0 10.096-8.214 18.31-18.31 18.31h-59.765v-11.122zM357.448 355.5H154.552v-25.264c0-32.906 24.573-60.164 56.33-64.431l38.047 38.047c1.953 1.952 4.512 2.929 7.071 2.929s5.119-.977 7.071-2.929l38.047-38.047c31.757 4.267 56.33 31.525 56.33 64.431V355.5z"/></svg>