<svg xmlns="http://www.w3.org/2000/svg" viewBox="0 0 512 512" fill="#4c5467"><path d="M67.13 421.93c-1.86-1.86-4.44-2.93-7.07-2.93s-5.21 1.069-7.069 2.93c-1.86 1.86-2.931 4.44-2.931 7.07s1.07 5.21 2.931 7.069C54.859 437.93 57.43 439 60.06 439s5.21-1.07 7.07-2.931c1.87-1.859 2.93-4.439 2.93-7.069s-1.06-5.21-2.93-7.07z"/><path d="M445.909 192.743C450.991 185.798 454 177.246 454 168v-8c0-23.159-18.841-42-42-42s-42 18.841-42 42v8c0 9.246 3.009 17.798 8.091 24.743-13.223 3.7-24.957 10.981-34.091 20.737V210c0-33.906-22.93-62.539-54.091-71.257C294.991 131.798 298 123.246 298 114v-8c0-23.159-18.841-42-42-42s-42 18.841-42 42v8c0 9.246 3.009 17.798 8.091 24.743C190.93 147.461 168 176.094 168 210v3.48c-9.134-9.757-20.868-17.038-34.091-20.737C138.991 185.798 142 177.246 142 168v-8c0-23.159-18.841-42-42-42s-42 18.841-42 42v8c0 9.246 3.009 17.798 8.091 24.743C34.93 201.461 12 230.094 12 264v76c0 16.542 13.458 30 30 30h8.063v22c0 5.522 4.478 10 10 10s10-4.478 10-10v-64.5h60v154.528c0 5.498-4.474 9.972-9.972 9.972s-9.972-4.474-9.972-9.972V384.5a10 10 0 0 0-.113-1.426v-8.947c0-5.522-4.478-10-10-10s-10 4.478-10 10v107.901c0 5.498-4.474 9.972-9.972 9.972s-9.972-4.474-9.972-9.972V463c0-5.522-4.478-10-10-10s-10 4.478-10 10v19.028c0 16.526 13.445 29.972 29.972 29.972 7.693 0 14.716-2.916 20.028-7.697 5.313 4.781 12.335 7.697 20.028 7.697 16.526 0 29.972-13.445 29.972-29.972V370H158c16.542 0 30-13.458 30-30v-25.72a29.857 29.857 0 0 0 10 1.72h8.063v112.028c0 16.526 13.445 29.972 29.972 29.972 7.693 0 14.716-2.916 20.028-7.697 5.313 4.781 12.335 7.697 20.028 7.697 16.526 0 29.972-13.445 29.972-29.972V316H314c3.506 0 6.87-.61 10-1.72V340c0 16.542 13.458 30 30 30h8.063v112.028c0 16.526 13.445 29.972 29.972 29.972 7.693 0 14.716-2.916 20.028-7.697 5.313 4.781 12.335 7.697 20.028 7.697 16.526 0 29.972-13.445 29.972-29.972v-29.965c0-5.522-4.478-10-10-10s-10 4.478-10 10v29.965c0 5.498-4.474 9.972-9.972 9.972s-9.972-4.474-9.972-9.972V384.5a10 10 0 0 0-.113-1.426v-8.947c0-5.522-4.478-10-10-10s-10 4.478-10 10v107.901c0 5.498-4.474 9.972-9.972 9.972-5.498 0-9.972-4.474-9.972-9.972V327.5h60V385c0 5.522 4.478 10 10 10s10-4.478 10-10v-15H470c16.542 0 30-13.458 30-30v-76c0-33.906-22.93-62.539-54.091-71.257zM78 160c0-12.131 9.869-22 22-22s22 9.869 22 22v8c0 12.131-9.869 22-22 22s-22-9.869-22-22v-8zm90 126v54c0 5.514-4.486 10-10 10h-7.937v-82c0-5.522-4.478-10-10-10s-10 4.478-10 10v39.5h-60V268c0-5.522-4.478-10-10-10s-10 4.478-10 10v82H42c-5.514 0-10-4.486-10-10v-76c0-29.775 24.225-54 54-54h28c29.775 0 54 24.225 54 54v22zm66-180c0-12.131 9.869-22 22-22s22 9.869 22 22v8c0 12.131-9.869 22-22 22s-22-9.869-22-22v-8zm52.063 322.028c0 5.498-4.473 9.972-9.971 9.972s-9.972-4.474-9.972-9.972V330.5a10 10 0 0 0-.113-1.426v-8.947c0-5.522-4.478-10-10-10s-10 4.478-10 10v107.901c0 5.498-4.474 9.972-9.972 9.972-5.498 0-9.972-4.474-9.972-9.972V273.5h60v154.528zM324 264v22c0 5.514-4.486 10-10 10h-7.937v-82c0-5.522-4.478-10-10-10s-10 4.478-10 10v39.5h-60V214c0-5.522-4.478-10-10-10s-10 4.478-10 10v82H198c-5.514 0-10-4.486-10-10v-76c0-29.775 24.225-54 54-54h28c29.775 0 54 24.225 54 54v54zm66-104c0-12.131 9.869-22 22-22s22 9.869 22 22v8c0 12.131-9.869 22-22 22s-22-9.869-22-22v-8zm90 180c0 5.514-4.486 10-10 10h-7.937v-82c0-5.522-4.478-10-10-10s-10 4.478-10 10v39.5h-60V268c0-5.522-4.478-10-10-10s-10 4.478-10 10v82H354c-5.514 0-10-4.486-10-10v-76c0-29.775 24.225-54 54-54h28c29.775 0 54 24.225 54 54v76z"/><path d="M459.13 409.6a10.011 10.011 0 0 0-7.07-2.93c-2.63 0-5.21 1.06-7.069 2.93a10.06 10.06 0 0 0-2.931 7.07c0 2.63 1.07 5.21 2.931 7.07a10.076 10.076 0 0 0 7.069 2.93c2.641 0 5.21-1.07 7.07-2.93 1.87-1.86 2.93-4.44 2.93-7.07 0-2.64-1.06-5.21-2.93-7.07zM301.089 36.745L266 22.019V10c0-5.522-4.478-10-10-10s-10 4.478-10 10v12.072l-34.962 14.673A26.914 26.914 0 0 0 194.5 61.62V75c0 5.522 4.478 10 10 10s10-4.478 10-10V61.62a6.963 6.963 0 0 1 4.277-6.434l37.286-15.648 37.287 15.648a6.96 6.96 0 0 1 4.276 6.434V75c0 5.522 4.478 10 10 10s10-4.478 10-10V61.62a26.914 26.914 0 0 0-16.537-24.875z"/></svg>