<svg xmlns="http://www.w3.org/2000/svg" viewBox="0 0 512 512" fill="#4c5467"><path d="M139.079 29.937a10.058 10.058 0 0 0-7.07-2.93c-2.63 0-5.21 1.069-7.07 2.93-1.86 1.86-2.93 4.44-2.93 7.07s1.07 5.21 2.93 7.069a10.077 10.077 0 0 0 7.07 2.931c2.64 0 5.21-1.07 7.07-2.931 1.87-1.859 2.93-4.439 2.93-7.069s-1.06-5.21-2.93-7.07z"/><path d="M442.002 27.007H173.009c-5.523 0-10 4.478-10 10s4.477 10 10 10h268.993c27.569 0 49.999 22.429 49.999 49.999V335c0 27.569-22.429 49.999-49.999 49.999h-74.011c-5.523 0-10 4.478-10 10v55.856l-62.927-62.927a10.001 10.001 0 0 0-7.071-2.929H65.998C40.635 384.997 20 364.361 20 338.998V93.004c0-25.363 20.635-45.999 45.999-45.999h24.012c5.523 0 10-4.478 10-10s-4.477-10-10-10H65.998C29.606 27.006 0 56.612 0 93.004v245.994c0 36.392 29.606 65.998 65.998 65.998H283.85l77.069 77.069a9.996 9.996 0 0 0 10.898 2.168 10 10 0 0 0 6.173-9.239v-69.998h64.011c38.597 0 69.998-31.401 69.998-69.998V97.004c.001-38.596-31.4-69.997-69.997-69.997z"/><path d="M262.963 103.479h-2.339c-3.134 0-6.276.271-9.338.805-5.441.949-9.083 6.129-8.134 11.569.848 4.859 5.07 8.284 9.84 8.284.57 0 1.148-.049 1.729-.15a34.44 34.44 0 0 1 5.903-.508h2.339c5.523 0 10-4.478 10-10s-4.477-10-10-10zM232.336 122.314c-4.323-3.435-10.615-2.715-14.05 1.61a54.17 54.17 0 0 0-6.483 10.383c-2.375 4.986-.259 10.953 4.727 13.328a9.953 9.953 0 0 0 4.294.975c3.736 0 7.32-2.104 9.035-5.7a34.14 34.14 0 0 1 4.088-6.546c3.435-4.324 2.714-10.615-1.611-14.05zM256.922 191.386a33.933 33.933 0 0 1-7.518-1.691c-5.215-1.814-10.916.937-12.734 6.153-1.818 5.216.937 10.917 6.152 12.734a53.959 53.959 0 0 0 11.954 2.689c.365.039.727.059 1.085.059 5.041 0 9.376-3.802 9.93-8.928.592-5.491-3.379-10.423-8.869-11.016zM266 292.474h-10c-5.523 0-10 4.478-10 10s4.477 10 10 10h10c5.523 0 10-4.478 10-10s-4.477-10-10-10zM230.879 174.127a33.86 33.86 0 0 1-2.971-7.104c-1.536-5.305-7.083-8.36-12.387-6.824-5.304 1.535-8.36 7.081-6.824 12.386a53.9 53.9 0 0 0 4.726 11.303 9.998 9.998 0 0 0 13.609 3.847c4.82-2.695 6.542-8.788 3.847-13.608zM339.834 191.586h-10c-5.523 0-10 4.478-10 10s4.477 10 10 10h10c5.523 0 10-4.478 10-10s-4.477-10-10-10zM401.929 301.149c-.578-5.493-5.5-9.481-10.991-8.899a41.206 41.206 0 0 1-4.295.225h-4.646c-5.523 0-10 4.478-10 10s4.477 9.999 10 9.999h4.646c2.13 0 4.279-.112 6.387-.334 5.493-.578 9.477-5.499 8.899-10.991zM349.998 292.474h-10c-5.523 0-10 4.478-10 10s4.477 10 10 10h10c5.523 0 10-4.478 10-10s-4.477-10-10-10zM381.833 191.586h-10c-5.523 0-10 4.478-10 10s4.477 10 10 10h10c5.523 0 10-4.478 10-10s-4.477-10-10-10zM427.265 207.27a60.772 60.772 0 0 0-9.596-7.125c-4.735-2.836-10.879-1.299-13.718 3.438-2.839 4.737-1.3 10.88 3.438 13.719a40.789 40.789 0 0 1 6.432 4.774 9.965 9.965 0 0 0 6.719 2.597 9.974 9.974 0 0 0 7.406-3.277c3.713-4.089 3.408-10.414-.681-14.126zM433.252 273.79c-4.454-3.269-10.71-2.308-13.979 2.145a40.918 40.918 0 0 1-5.354 5.961c-4.077 3.726-4.362 10.051-.636 14.128a9.977 9.977 0 0 0 7.385 3.254 9.964 9.964 0 0 0 6.743-2.618 60.704 60.704 0 0 0 7.986-8.891c3.267-4.454 2.307-10.712-2.145-13.979zM304.962 103.479h-10c-5.523 0-10 4.478-10 10s4.477 10 10 10h10c5.523 0 10-4.478 10-10s-4.477-10-10-10zM445.898 240.042c-1.09-5.414-6.369-8.918-11.777-7.83-5.415 1.091-8.92 6.363-7.83 11.777a40.91 40.91 0 0 1 .797 7.973c.009 5.518 4.484 9.984 10 9.984h.016c5.523-.008 9.993-4.492 9.984-10.015a60.877 60.877 0 0 0-1.19-11.889zM307.999 292.474h-10c-5.523 0-10 4.478-10 10s4.477 10 10 10h10c5.523 0 10-4.478 10-10s-4.477-10-10-10zM297.835 191.586h-10c-5.523 0-10 4.477-10 10 0 5.522 4.477 10 10 10h10c5.523 0 10-4.478 10-10s-4.477-10-10-10zM210.013 228.337h-32.867v-18.865c0-9.863-8.024-17.888-17.888-17.888h-54.491c-9.864.001-17.889 8.025-17.889 17.888v18.865H54.012c-5.523 0-10 4.478-10 10v34.74a24.394 24.394 0 0 0 5.442 15.377v59.289c0 9.515 7.741 17.256 17.256 17.256h130.606c9.515 0 17.256-7.741 17.256-17.256v-59.275c3.524-4.347 5.442-9.725 5.442-15.4v-34.731c-.002-5.522-4.478-10-10.001-10zm-103.135-16.752h50.269v16.753h-50.269v-16.753zm93.136 61.484a4.496 4.496 0 0 1-1.322 3.191 4.49 4.49 0 0 1-3.184 1.32h-.003l-24.483-.031h-.013c-5.517 0-9.993 4.469-10 9.987-.007 5.522 4.464 10.006 9.987 10.013l23.575.03v47.42H69.453V297.59h24.224c5.523 0 10-4.478 10-10s-4.477-10-10-10H68.523a4.517 4.517 0 0 1-4.512-4.513v-24.74h136.003v24.732z"/><path d="M139.079 280.519a10.062 10.062 0 0 0-7.07-2.93c-2.63 0-5.21 1.07-7.07 2.93-1.86 1.86-2.93 4.44-2.93 7.07s1.07 5.21 2.93 7.07c1.86 1.86 4.44 2.93 7.07 2.93 2.64 0 5.21-1.07 7.07-2.93 1.87-1.86 2.93-4.44 2.93-7.07s-1.06-5.21-2.93-7.07zM412.503 67.006h-56.999c-5.523 0-10 4.478-10 10v76.605c0 5.522 4.477 10 10 10s10-4.478 10-10v-19.547h46.999c5.523 0 10-4.478 10-10V77.005c-.001-5.522-4.478-9.999-10-9.999zm-10 47.058h-36.999v-27.06h36.999v27.06z"/></svg>