<svg xmlns="http://www.w3.org/2000/svg" viewBox="0 0 512 512" fill="#4c5467"><path d="M475.038 494.93c-1.86-1.861-4.44-2.93-7.07-2.93s-5.21 1.07-7.07 2.93-2.93 4.44-2.93 7.07 1.071 5.21 2.93 7.069c1.86 1.861 4.44 2.931 7.07 2.931s5.21-1.07 7.07-2.931c1.86-1.859 2.93-4.439 2.93-7.069s-1.071-5.21-2.93-7.07zM284.257 0C177.844 0 91.197 86.258 90.553 192.523L34.838 322.685a10 10 0 0 0 9.194 13.934h64.934v47.173c0 32.675 26.583 59.258 59.258 59.258h33.854c10.476 0 18.998 8.522 18.998 18.998V502c0 5.522 4.478 10 10 10s10-4.478 9.999-10v-39.952c0-21.504-17.494-38.998-38.998-38.998h-33.854c-21.647 0-39.258-17.612-39.258-39.258v-57.173c0-5.522-4.478-10-10-10H59.19l50.552-118.102a9.988 9.988 0 0 0 .807-3.935v-.874C110.549 97.925 188.473 20 284.257 20s173.708 77.925 173.708 173.708v268.209c0 5.522 4.478 10 10 10s10-4.478 10-10V193.708C477.965 86.897 391.068 0 284.257 0z"/><path d="M324.764 96.61l-.6-.043c-5.526-.394-10.288 3.769-10.673 9.278-.385 5.509 3.768 10.288 9.278 10.673l.492.036c.256.02.51.029.762.029 5.182 0 9.566-3.999 9.962-9.251.415-5.507-3.714-10.307-9.221-10.722z"/><path d="M405.941 178.354c-2.123-30.797-20.681-58.624-48.43-72.622-4.931-2.489-10.946-.507-13.433 4.424s-.506 10.945 4.425 13.432c21.481 10.836 35.844 32.348 37.484 56.141 1.14 16.532-3.711 32.86-13.657 45.979-9.181 12.107-22.293 20.903-36.92 24.769a10 10 0 0 0-7.445 9.668v40.233c0 5.514-4.486 10-10 10s-10-4.486-10-10v-43.233c0-12.349 8.462-22.867 20.578-25.577 23.379-5.23 39.146-26.453 37.492-50.464-1.642-23.803-20.83-42.99-44.635-44.632-13.555-.931-26.443 3.626-36.31 12.835-9.876 9.219-15.314 21.733-15.314 35.235 0 5.514-4.486 10-10 10s-10-4.486-10-10c0-18.829 7.898-37.001 21.669-49.855 6.184-5.773 13.207-10.28 20.875-13.394 5.117-2.078 7.58-7.911 5.502-13.028-2.077-5.117-7.91-7.581-13.027-5.502-9.939 4.037-19.022 9.859-26.997 17.304-17.808 16.622-28.021 40.123-28.021 64.475 0 16.542 13.458 30 30 30s30-13.458 30-30c0-7.898 3.183-15.219 8.962-20.614 5.77-5.386 13.318-8.054 21.288-7.503 13.896.958 25.098 12.159 26.056 26.055.971 14.078-8.242 26.514-21.905 29.571-21.321 4.768-36.212 23.312-36.212 45.094v43.233c0 16.542 13.458 30 30 30s30-13.458 29.999-30v-32.896c15.904-5.773 30.016-16.125 40.302-29.69 12.869-16.973 19.146-38.082 17.674-59.438zM317.966 343.99c-16.542 0-30 13.458-30 30s13.458 30 30 30 30-13.458 30-30-13.458-30-30-30zm0 40c-5.514 0-10-4.486-10-10s4.486-10 10-10 10 4.486 10 10-4.486 10-10 10z"/></svg>