<svg xmlns="http://www.w3.org/2000/svg" viewBox="0 0 512 512" fill="#4c5467"><path d="M437.02 74.981C388.667 26.628 324.38 0 256 0S123.333 26.628 74.98 74.981C26.629 123.333 0 187.62 0 256s26.629 132.667 74.98 181.019C123.333 485.372 187.62 512 256 512s132.667-26.628 181.02-74.981C485.371 388.667 512 324.38 512 256s-26.629-132.667-74.98-181.019zM256 492C125.869 492 20 386.131 20 256S125.869 20 256 20s236 105.869 236 236-105.869 236-236 236z"/><path d="M468.102 214.954c-13.48-70.045-60.708-128.831-126.339-157.253-5.067-2.195-10.955.135-13.15 5.202-2.194 5.068.135 10.956 5.203 13.15 59.559 25.793 102.417 79.131 114.646 142.68.921 4.785 5.111 8.112 9.81 8.112.626 0 1.262-.059 1.899-.182 5.423-1.043 8.974-6.286 7.931-11.709zM302.43 45.005l-.262-.057c-5.396-1.164-10.719 2.27-11.881 7.67-1.163 5.399 2.271 10.718 7.67 11.881l.117.026a10.02 10.02 0 0 0 2.188.242c4.58 0 8.712-3.168 9.75-7.824 1.203-5.391-2.192-10.735-7.582-11.938zM180.443 436.91c-60.787-25.419-104.49-79.117-116.907-143.642-1.043-5.423-6.279-8.979-11.709-7.93-5.424 1.043-8.974 6.286-7.931 11.709 6.731 34.972 22.268 68.082 44.935 95.749 22.405 27.348 51.416 48.982 83.896 62.565a9.97 9.97 0 0 0 3.854.777c3.911 0 7.626-2.31 9.229-6.145 2.131-5.095-.272-10.953-5.367-13.083zM214.065 447.507l-.618-.136c-5.387-1.197-10.733 2.201-11.931 7.592s2.201 10.733 7.593 11.931l.7.154a10.05 10.05 0 0 0 2.138.231c4.601 0 8.742-3.195 9.761-7.873 1.175-5.397-2.247-10.724-7.643-11.899zM459.404 290.293c-5.39-1.177-10.722 2.246-11.899 7.642a195.49 195.49 0 0 1-154.238 150.529c-5.424 1.043-8.974 6.286-7.931 11.709.921 4.785 5.111 8.112 9.81 8.112.626 0 1.263-.059 1.9-.182 41.502-7.986 79.502-27.901 109.891-57.591 30.342-29.645 51.128-67.101 60.109-108.32 1.175-5.396-2.246-10.723-7.642-11.899zM226.662 51.828c-1.044-5.423-6.286-8.979-11.71-7.93-41.502 7.986-79.502 27.901-109.891 57.591-30.342 29.645-51.128 67.101-60.109 108.32-1.175 5.396 2.246 10.723 7.642 11.899.717.156 1.434.231 2.139.231 4.601 0 8.742-3.194 9.761-7.873A195.49 195.49 0 0 1 218.731 63.537c5.424-1.043 8.974-6.286 7.931-11.709zM256 222c-18.748 0-34 15.252-34 34s15.252 34 34 34 34-15.252 34-34-15.252-34-34-34zm0 48c-7.72 0-14-6.28-14-14s6.28-14 14-14 14 6.28 14 14-6.28 14-14 14zM256.152 40c-5.522 0-10 4.477-10 10v22.408c0 5.523 4.478 10 10 10 5.523 0 10-4.477 10-10V50c0-5.523-4.478-10-10-10zM255.848 422.464c-5.522 0-10 4.477-10 10V462c0 5.523 4.478 10 10 10s10-4.477 10-10v-29.536c0-5.523-4.478-10-10-10zM462 246.152h-27c-5.522 0-10 4.477-10 10s4.478 10 10 10h27c5.522 0 10-4.477 10-10s-4.478-10-10-10zM79 245.848H50c-5.522 0-10 4.477-10 10s4.478 10 10 10h29c5.522 0 10-4.477 10-10s-4.478-10-10-10z"/><path d="M232 246h-45.667c-5.522 0-10 4.477-10 10s4.478 10 10 10H232c5.522 0 10-4.477 10-10s-4.478-10-10-10zM256 128.333c-5.522 0-10 4.477-10 10V232c0 5.523 4.478 10 10 10s10-4.477 10-10v-93.667c0-5.523-4.478-10-10-10z"/></svg>