<svg xmlns="http://www.w3.org/2000/svg" viewBox="0 0 512 512" fill="#4c5467"><path d="M131.069 192.99c-1.859-1.86-4.439-2.931-7.069-2.931s-5.21 1.07-7.07 2.931a10.095 10.095 0 0 0-2.93 7.079c0 2.631 1.069 5.2 2.93 7.07 1.86 1.861 4.44 2.93 7.07 2.93s5.21-1.069 7.069-2.93a10.073 10.073 0 0 0 2.931-7.07c0-2.64-1.07-5.22-2.931-7.079z"/><path d="M365.877 322.468C384.763 314.216 398 295.365 398 273.473V142C398 63.701 334.299 0 256 0S114 63.701 114 142v15c0 5.522 4.478 10 10 10s10-4.478 10-10v-15c0-67.271 54.729-122 122-122s122 54.729 122 122v131.473c0 18.442-15.004 33.447-33.447 33.447h-41.026c.304-2.18.473-4.402.473-6.664v-26.47c0-.153-.016-.302-.023-.454C332.662 256.712 352 225.676 352 190.206v-34.281c0-23.159-18.841-42-42-42H202c-23.159 0-42 18.841-42 42v34.281c0 35.47 19.338 66.506 48.023 83.126-.007.151-.023.301-.023.454v26.47c0 2.262.169 4.484.473 6.664h-41.026c-18.443 0-33.447-15.004-33.447-33.447V240c0-5.522-4.478-10-10-10s-10 4.478-10 10v33.473c0 21.893 13.237 40.744 32.123 48.996C89.401 348.975 50 406.568 50 473.199V502c0 5.522 4.478 10 10 10h392c5.522 0 10-4.478 10-10v-28.801c0-66.631-39.401-124.224-96.123-150.731zM180 190.206v-34.281c0-12.131 9.869-22 22-22h108c12.131 0 22 9.869 22 22v34.281c0 41.906-34.094 76-76 76s-76-34.094-76-76zm104 91.831v18.219c0 15.439-12.561 28-28 28s-28-12.561-28-28v-18.219c8.862 2.707 18.263 4.169 28 4.169s19.138-1.462 28-4.169zm-67.889 44.885c8.621 12.854 23.282 21.334 39.889 21.334s31.268-8.479 39.889-21.334c9.671.011 19.122.972 28.272 2.782L256 447.763l-68.161-118.058a146.35 146.35 0 0 1 28.272-2.783zM442 492h-40.308v-35c0-5.522-4.478-10-10-10s-10 4.478-10 10v35H130.308v-64.442c0-5.522-4.478-10-10-10s-10 4.478-10 10V492H70v-18.801c0-63.707 40.942-118.023 97.892-138.044l79.448 137.607a10 10 0 0 0 17.32 0l79.448-137.607C401.058 355.176 442 409.492 442 473.199V492z"/><path d="M226.939 180.73c-1.859-1.86-4.439-2.93-7.069-2.93s-5.2 1.07-7.07 2.93a10.05 10.05 0 0 0-2.92 7.07c0 2.63 1.06 5.21 2.92 7.07a10.098 10.098 0 0 0 7.07 2.93c2.64 0 5.21-1.07 7.069-2.93 1.87-1.86 2.94-4.44 2.94-7.07s-1.07-5.21-2.94-7.07zM299.45 180.73c-1.86-1.859-4.44-2.93-7.07-2.93s-5.21 1.07-7.07 2.93c-1.859 1.86-2.93 4.44-2.93 7.07s1.07 5.21 2.93 7.07c1.86 1.859 4.44 2.93 7.07 2.93s5.21-1.07 7.07-2.93c1.859-1.86 2.93-4.44 2.93-7.07s-1.07-5.21-2.93-7.07zM270.744 217.749c-3.906-3.904-10.236-3.904-14.143 0a2.615 2.615 0 0 1-3.693 0c-3.905-3.906-10.238-3.905-14.142.001-3.905 3.905-3.904 10.237.001 14.142 4.408 4.408 10.198 6.611 15.988 6.611 5.79 0 11.58-2.204 15.988-6.611 3.906-3.906 3.906-10.238.001-14.143zM398.759 410.491a10.053 10.053 0 0 0-7.07-2.931c-2.63 0-5.21 1.07-7.069 2.931a10.057 10.057 0 0 0-2.931 7.069c0 2.63 1.07 5.21 2.931 7.07 1.87 1.86 4.439 2.93 7.069 2.93s5.21-1.069 7.07-2.93c1.86-1.861 2.93-4.44 2.93-7.07s-1.069-5.21-2.93-7.069z"/></svg>