<svg width="52" height="52" viewBox="0 0 52 52" fill="none" xmlns="http://www.w3.org/2000/svg">
  <path fill-rule="evenodd" clip-rule="evenodd"
    d="M26.5665 3.88983L32.545 8H42C42.5523 8 43 8.44772 43 9V15.1878L49.5665 19.7023C49.8379 19.8889 50 20.1971 50 20.5264V47.0003C50 47.5526 49.5523 48.0003 49 48.0003H3C2.44771 48.0003 2 47.5526 2 47.0003V20.5264C2 20.1971 2.16212 19.8889 2.43347 19.7023L9 15.1878V9C9 8.44772 9.44772 8 10 8H19.455L25.4335 3.88983C25.7747 3.65521 26.2253 3.65521 26.5665 3.88983ZM22.9853 8H29.0147L26 5.9274L22.9853 8ZM9 17.6149L4 21.0524V21.3751L9 24.8126V17.6149ZM11 26.1876L21.5366 33.4315L24.41 31.6356C25.3828 31.0276 26.6172 31.0276 27.59 31.6356L30.4634 33.4315L41 26.1876V10H11V26.1876ZM43 24.8126L48 21.3751V21.0524L43 17.6149V24.8126ZM48 23.8022L32.3128 34.5871L48 44.3916V23.8022ZM4 44.3916L19.6872 34.5871L4 23.8022V44.3916ZM25.47 33.3316L5.2 46.0003H46.8L26.53 33.3316C26.2057 33.1289 25.7943 33.1289 25.47 33.3316Z"
    fill="#3558A2" />
  <path
    d="M16 17C16 16.4477 16.4713 16 17.0526 16H34.9474C35.5287 16 36 16.4477 36 17C36 17.5523 35.5287 18 34.9474 18H17.0526C16.4713 18 16 17.5523 16 17Z"
    fill="#E1000F" />
  <path
    d="M17.0526 22C16.4713 22 16 22.4477 16 23C16 23.5523 16.4713 24 17.0526 24H34.9474C35.5287 24 36 23.5523 36 23C36 22.4477 35.5287 22 34.9474 22H17.0526Z"
    fill="#E1000F" />
</svg>
  