<svg width="52" height="52" viewBox="0 0 52 52" fill="none" xmlns="http://www.w3.org/2000/svg">
  <path
    d="M24.9998 5.07812C24.9998 4.5172 25.4546 4.0625 26.0154 4.0625C26.5763 4.0625 27.0311 4.5172 27.0311 5.07812V7.35394C27.0311 7.91487 26.5764 8.36956 26.0154 8.36956C25.4546 8.36956 24.9998 7.91487 24.9998 7.35394V5.07812Z"
    fill="#E1000F" />
  <path
    d="M21.8311 4.45839C22.3819 4.35185 22.9143 4.71301 23.0204 5.26378C23.1263 5.81455 22.7657 6.34705 22.2149 6.45298C18.3929 7.18564 14.8705 9.02533 12.0855 11.7434C9.30045 14.4615 7.37561 17.9381 6.55017 21.7411C6.44668 22.2163 6.02611 22.5407 5.55882 22.5407C5.48722 22.5407 5.4144 22.5331 5.34158 22.5172C4.79355 22.3978 4.4461 21.8568 4.56544 21.3087C5.47757 17.1224 7.58865 13.3183 10.6703 10.3075C13.7566 7.29209 17.616 5.26947 21.8311 4.45839Z"
    fill="#E1000F" />
  <path
    d="M30.7155 4.57082L30.6889 4.56503C30.1409 4.44681 29.6003 4.79558 29.4823 5.34402C29.3642 5.89235 29.7129 6.43256 30.2613 6.55068L30.2731 6.55332C30.3461 6.56965 30.4206 6.57789 30.4954 6.5779C30.9605 6.5779 31.3802 6.25615 31.4856 5.78327C31.6078 5.23575 31.263 4.693 30.7155 4.57082Z"
    fill="#E1000F" />
  <path
    d="M47.5416 21.8313C46.1725 14.7173 41.376 8.74687 34.7103 5.86026C34.1957 5.63733 33.5977 5.87397 33.3748 6.38859C33.1519 6.9033 33.3885 7.5013 33.9032 7.72413C39.9521 10.3437 44.3049 15.7609 45.5469 22.2151C45.6405 22.701 46.066 23.0389 46.5433 23.0389C46.6068 23.0389 46.6714 23.033 46.7361 23.0205C47.2869 22.9145 47.6475 22.382 47.5416 21.8313Z"
    fill="#E1000F" />
  <path
    d="M6.45287 29.785C7.71398 36.3384 12.1526 41.7921 18.3262 44.3737C18.8437 44.59 19.0878 45.185 18.8713 45.7024C18.7085 46.0919 18.3312 46.3265 17.934 46.3265C17.7996 46.3265 17.6665 46.2996 17.5426 46.2476C14.2438 44.8681 11.2974 42.6709 9.0219 39.8933C6.71978 37.0834 5.1418 33.7207 4.45819 30.1688C4.35226 29.6181 4.7128 29.0856 5.26368 28.9796C5.81516 28.8731 6.34695 29.2343 6.45287 29.785Z"
    fill="#E1000F" />
  <path
    d="M21.741 45.4499L21.6782 45.4361C21.1311 45.3145 20.5881 45.6597 20.4665 46.2072C20.3448 46.7547 20.69 47.2972 21.2376 47.4189L21.3087 47.4346C21.3801 47.4501 21.4529 47.458 21.5259 47.458C21.9932 47.458 22.4137 47.1335 22.5172 46.6584C22.6366 46.1103 22.289 45.5693 21.741 45.4499Z"
    fill="#E1000F" />
  <path fill-rule="evenodd" clip-rule="evenodd"
    d="M27.016 14.0498V22.6994C28.4258 23.1342 29.4531 24.4494 29.4531 26C29.4531 27.9041 27.9041 29.4531 26 29.4531C24.4494 29.4531 23.1342 28.4258 22.6994 27.016H18.9248C18.364 27.016 17.9092 26.5613 17.9092 26.0004C17.9092 25.4394 18.364 24.9847 18.9248 24.9847H22.6991C23.0348 23.8957 23.8957 23.0348 24.9847 22.6991V14.0498C24.9847 13.4889 25.4395 13.0342 26.0004 13.0342C26.5612 13.0342 27.016 13.4889 27.016 14.0498ZM26.0004 24.5785L25.9791 24.5783C25.2116 24.5894 24.5894 25.2116 24.5783 25.9791L24.5785 26.0004L24.5783 26.0213C24.5897 26.7956 25.2231 27.4219 26 27.4219C26.7841 27.4219 27.4219 26.7841 27.4219 26C27.4219 25.2231 26.7956 24.5897 26.0213 24.5783L26.0004 24.5785Z"
    fill="#E1000F" />
  <path
    d="M25.9846 42.9065C25.4237 42.9065 24.9689 43.3612 24.9689 43.9221V46.9219C24.9689 47.4828 25.4237 47.9375 25.9846 47.9375C26.5454 47.9375 27.0002 47.4828 27.0002 46.9219V43.9221C27.0002 43.3612 26.5454 42.9065 25.9846 42.9065Z"
    fill="#E1000F" />
  <path
    d="M44.1797 24.9998H46.9219C47.4827 24.9998 47.9375 25.4545 47.9375 26.0154C47.9375 26.5764 47.4827 27.0311 46.9219 27.0311H44.1797C43.6189 27.0311 43.1641 26.5764 43.1641 26.0154C43.1641 25.4545 43.6189 24.9998 44.1797 24.9998Z"
    fill="#E1000F" />
  <path
    d="M8.02344 24.9689H5.07812C4.5173 24.9689 4.0625 25.4236 4.0625 25.9846C4.0625 26.5455 4.5173 27.0002 5.07812 27.0002H8.02344C8.58427 27.0002 9.03906 26.5455 9.03906 25.9846C9.03906 25.4236 8.58427 24.9689 8.02344 24.9689Z"
    fill="#E1000F" />
  <path
    d="M26 0C32.9448 0 39.474 2.70441 44.3848 7.61526C49.2955 12.526 52 19.0552 52 26C52 29.6398 51.914 31.7617 50.5 35L49.0874 33.0478C50.0814 30.4183 49.9688 28.9734 49.9688 26C49.9688 12.7836 39.2164 2.03125 26 2.03125C12.7836 2.03125 2.03125 12.7836 2.03125 26C2.03125 39.2164 12.7836 49.9688 26 49.9688C28.4071 49.9688 29.3065 50.1632 31.5 49.5L32.4434 51.3451C29.9312 52.1393 28.7102 52 26 52C19.0552 52 12.526 49.2956 7.61516 44.3847C2.70451 39.474 0 32.9448 0 26C0 19.0552 2.70451 12.526 7.61516 7.61526C12.526 2.70441 19.0552 0 26 0Z"
    fill="#3558A2" />
</svg>
  