<svg width="52" height="52" viewBox="0 0 52 52" fill="none" xmlns="http://www.w3.org/2000/svg">
  <path fill-rule="evenodd" clip-rule="evenodd"
    d="M17 2L6 13.0001L6.00006 15C6 16 6.3976 16 7.07646 16H16.7692C18.5535 16 20 14.6569 20 13.0001V4.00039L39 4C39.5523 4 40 4.44772 40 5V32H42V5C42 3.34315 40.6569 2 39 2H17ZM16.7692 14.0001H8L18 4.00039V13.0001C18 13.5524 17.364 14.0001 16.7692 14.0001Z"
    fill="#3558A2" />
  <path
    d="M27 50V48H9C8.44772 48 8 47.5523 8 47V24C8 24 8 23 7 23C6 23 6 24 6 24V47C6 48.6569 7.34315 50 9 50H27Z"
    fill="#3558A2" />
  <path
    d="M7 20C7.55228 20 8 19.5523 8 19C8 18.4477 7.55228 18 7 18C6.44772 18 6 18.4477 6 19C6 19.5523 6.44772 20 7 20Z"
    fill="#3558A2" />
  <path
    d="M15.0526 20C14.4713 20 14 20.4477 14 21C14 21.5523 14.4713 22 15.0526 22H32.9474C33.5287 22 34 21.5523 34 21C34 20.4477 33.5287 20 32.9474 20H15.0526Z"
    fill="#E1000F" />
  <path
    d="M14 27C14 26.4477 14.4713 26 15.0526 26H32.9474C33.5287 26 34 26.4477 34 27C34 27.5523 33.5287 28 32.9474 28H15.0526C14.4713 28 14 27.5523 14 27Z"
    fill="#E1000F" />
  <path fill-rule="evenodd" clip-rule="evenodd"
    d="M36.5 37.9375C34.5208 37.9375 32.9375 39.5208 32.9375 41.5C32.9375 43.4792 34.5208 45.0625 36.5 45.0625C38.4792 45.0625 40.0625 43.4792 40.0625 41.5C40.0625 39.5208 38.4792 37.9375 36.5 37.9375ZM36.5 43C35.66 43 35 42.34 35 41.5C35 40.66 35.66 40 36.5 40C37.34 40 38 40.66 38 41.5C38 42.34 37.34 43 36.5 43Z"
    fill="#E1000F" />
  <path fill-rule="evenodd" clip-rule="evenodd"
    d="M46 43.2417V39.8375L44.3375 38.9667L43.8625 37.8583L44.4167 35.9583L42.0417 33.5833L40.2208 34.1375L39.1125 33.6625L38.2417 32H34.8375L33.9667 33.6625L32.8583 34.1375L30.9583 33.5833L28.5833 35.9583L29.1375 37.7792L28.6625 38.8875L27 39.7583V43.1625L28.6625 44.0333L29.1375 45.1417L28.5833 47.0417L30.9583 49.4167L32.7792 48.8625L33.8875 49.3375L34.7583 51H38.1625L39.0333 49.3375L40.1417 48.8625L42.0417 49.4167L44.4167 47.0417L43.8625 45.2208L44.3375 44.1125L46 43.2417ZM42.725 42.925L41.9 44.95L42.275 46.3L41.225 47.35L39.875 46.975L37.85 47.8L37.25 49H35.75L35.075 47.725L33.05 46.9L31.7 47.275L30.65 46.225L31.025 44.875L30.2 42.85L29 42.25V40.75L30.275 40.075L31.1 38.05L30.725 36.7L31.775 35.65L33.125 36.025L35.15 35.2L35.75 34H37.25L37.925 35.275L39.95 36.1L41.3 35.725L42.35 36.775L41.975 38.125L42.8 40.15L44 40.75V42.25L42.725 42.925Z"
    fill="#E1000F" />
  <path fill-rule="evenodd" clip-rule="evenodd"
    d="M17 2L6 13.0001L6.00006 15C6 16 6.3976 16 7.07646 16H16.7692C18.5535 16 20 14.6569 20 13.0001V4.00039L39 4C39.5523 4 40 4.44772 40 5V32H42V5C42 3.34315 40.6569 2 39 2H17ZM16.7692 14.0001H8L18 4.00039V13.0001C18 13.5524 17.364 14.0001 16.7692 14.0001Z"
    fill="#3558A2" />
  <path
    d="M27 50V48H9C8.44772 48 8 47.5523 8 47V24C8 24 8 23 7 23C6 23 6 24 6 24V47C6 48.6569 7.34315 50 9 50H27Z"
    fill="#3558A2" />
  <path
    d="M7 20C7.55228 20 8 19.5523 8 19C8 18.4477 7.55228 18 7 18C6.44772 18 6 18.4477 6 19C6 19.5523 6.44772 20 7 20Z"
    fill="#3558A2" />
  <path
    d="M15.0526 20C14.4713 20 14 20.4477 14 21C14 21.5523 14.4713 22 15.0526 22H32.9474C33.5287 22 34 21.5523 34 21C34 20.4477 33.5287 20 32.9474 20H15.0526Z"
    fill="#E1000F" />
  <path
    d="M14 27C14 26.4477 14.4713 26 15.0526 26H32.9474C33.5287 26 34 26.4477 34 27C34 27.5523 33.5287 28 32.9474 28H15.0526C14.4713 28 14 27.5523 14 27Z"
    fill="#E1000F" />
  <path fill-rule="evenodd" clip-rule="evenodd"
    d="M36.5 37.9375C34.5208 37.9375 32.9375 39.5208 32.9375 41.5C32.9375 43.4792 34.5208 45.0625 36.5 45.0625C38.4792 45.0625 40.0625 43.4792 40.0625 41.5C40.0625 39.5208 38.4792 37.9375 36.5 37.9375ZM36.5 43C35.66 43 35 42.34 35 41.5C35 40.66 35.66 40 36.5 40C37.34 40 38 40.66 38 41.5C38 42.34 37.34 43 36.5 43Z"
    fill="#E1000F" />
  <path fill-rule="evenodd" clip-rule="evenodd"
    d="M46 43.2417V39.8375L44.3375 38.9667L43.8625 37.8583L44.4167 35.9583L42.0417 33.5833L40.2208 34.1375L39.1125 33.6625L38.2417 32H34.8375L33.9667 33.6625L32.8583 34.1375L30.9583 33.5833L28.5833 35.9583L29.1375 37.7792L28.6625 38.8875L27 39.7583V43.1625L28.6625 44.0333L29.1375 45.1417L28.5833 47.0417L30.9583 49.4167L32.7792 48.8625L33.8875 49.3375L34.7583 51H38.1625L39.0333 49.3375L40.1417 48.8625L42.0417 49.4167L44.4167 47.0417L43.8625 45.2208L44.3375 44.1125L46 43.2417ZM42.725 42.925L41.9 44.95L42.275 46.3L41.225 47.35L39.875 46.975L37.85 47.8L37.25 49H35.75L35.075 47.725L33.05 46.9L31.7 47.275L30.65 46.225L31.025 44.875L30.2 42.85L29 42.25V40.75L30.275 40.075L31.1 38.05L30.725 36.7L31.775 35.65L33.125 36.025L35.15 35.2L35.75 34H37.25L37.925 35.275L39.95 36.1L41.3 35.725L42.35 36.775L41.975 38.125L42.8 40.15L44 40.75V42.25L42.725 42.925Z"
    fill="#E1000F" />
</svg>
  