<svg width="54" height="45" viewBox="0 0 54 45" fill="none" xmlns="http://www.w3.org/2000/svg">
  <path fill-rule="evenodd" clip-rule="evenodd"
    d="M53.7353 36.5489C54.0591 36.2696 54.0591 35.7679 53.7353 35.4886L47.9746 30.5213C47.521 30.1301 46.8175 30.4524 46.8175 31.0515V33.5188H33.3501V38.5188H46.8175V40.9861C46.8175 41.5851 47.521 41.9074 47.9746 41.5162L53.7353 36.5489Z"
    fill="#E1000F" />
  <path fill-rule="evenodd" clip-rule="evenodd"
    d="M5.67742 2.47903C5.67742 1.11172 6.78913 0 8.15645 0C9.52377 0 10.6355 1.11172 10.6355 2.47903V3.54839H19.871V2.47903C19.871 1.11172 20.9827 0 22.35 0C23.7173 0 24.829 1.11172 24.829 2.47903V3.54839H34.0645V2.47903C34.0645 1.11172 35.1762 0 36.5435 0C37.9109 0 39.0226 1.11172 39.0226 2.47903V3.54839H40.8016C42.9514 3.54839 44.7 5.29701 44.7 7.44677V32.35H42.5806V13.4742H2.11935V40.8016C2.11935 41.7823 2.91767 42.5806 3.89839 42.5806H40.8016C41.7823 42.5806 42.5806 41.7823 42.5806 40.8016V39.35H44.7V40.8016C44.7 42.9514 42.9514 44.7 40.8016 44.7H3.89839C1.74862 44.7 0 42.9514 0 40.8016V7.44677C0 5.29701 1.74862 3.54839 3.89839 3.54839H5.67742V2.47903ZM39.0226 32.35V30.8661C39.0226 30.281 38.5486 29.8064 37.9629 29.8064H30.8661C30.2805 29.8064 29.8064 30.281 29.8064 30.8661V37.9629C29.8064 38.548 30.2805 39.0226 30.8661 39.0226H32.35V36.9032H31.9258V31.9258H36.9032V32.35H39.0226ZM8.15645 2.11935C7.95829 2.11935 7.79677 2.281 7.79677 2.47903V6.7371C7.79677 6.93513 7.95829 7.09677 8.15645 7.09677C8.35461 7.09677 8.51613 6.93513 8.51613 6.7371V2.47903C8.51613 2.281 8.35461 2.11935 8.15645 2.11935ZM22.35 2.11935C22.1518 2.11935 21.9903 2.281 21.9903 2.47903V6.7371C21.9903 6.93513 22.1518 7.09677 22.35 7.09677C22.5482 7.09677 22.7097 6.93513 22.7097 6.7371V2.47903C22.7097 2.281 22.5482 2.11935 22.35 2.11935ZM36.5435 2.11935C36.3454 2.11935 36.1839 2.281 36.1839 2.47903V6.7371C36.1839 6.93513 36.3454 7.09677 36.5435 7.09677C36.7417 7.09677 36.9032 6.93513 36.9032 6.7371V2.47903C36.9032 2.281 36.7417 2.11935 36.5435 2.11935ZM3.89839 5.66774C2.91767 5.66774 2.11935 6.46606 2.11935 7.44677V11.3548H42.5806V7.44677C42.5806 6.46606 41.7823 5.66774 40.8016 5.66774H39.0226V6.7371C39.0226 8.10441 37.9109 9.21613 36.5435 9.21613C35.1762 9.21613 34.0645 8.10441 34.0645 6.7371V5.66774H24.829V6.7371C24.829 8.10441 23.7173 9.21613 22.35 9.21613C20.9827 9.21613 19.871 8.10441 19.871 6.7371V5.66774H10.6355V6.7371C10.6355 8.10441 9.52377 9.21613 8.15645 9.21613C6.78913 9.21613 5.67742 8.10441 5.67742 6.7371V5.66774H3.89839ZM6.7371 17.0323C6.15142 17.0323 5.67742 17.5068 5.67742 18.0919V25.1887C5.67742 25.7738 6.15142 26.2484 6.7371 26.2484H13.8339C14.4195 26.2484 14.8935 25.7738 14.8935 25.1887V18.0919C14.8935 17.5068 14.4195 17.0323 13.8339 17.0323H6.7371ZM7.79677 24.129V19.1516H12.7742V24.129H7.79677ZM18.8016 17.0323C18.2159 17.0323 17.7419 17.5068 17.7419 18.0919V25.1887C17.7419 25.7738 18.2159 26.2484 18.8016 26.2484H25.8984C26.4841 26.2484 26.9581 25.7738 26.9581 25.1887V18.0919C26.9581 17.5068 26.4841 17.0323 25.8984 17.0323H18.8016ZM19.8613 24.129V19.1516H24.8387V24.129H19.8613ZM29.8064 18.0919C29.8064 17.5068 30.2805 17.0323 30.8661 17.0323H37.9629C38.5486 17.0323 39.0226 17.5068 39.0226 18.0919V25.1887C39.0226 25.7738 38.5486 26.2484 37.9629 26.2484H30.8661C30.2805 26.2484 29.8064 25.7738 29.8064 25.1887V18.0919ZM31.9258 19.1516V24.129H36.9032V19.1516H31.9258ZM6.7371 29.8064C6.15142 29.8064 5.67742 30.281 5.67742 30.8661V37.9629C5.67742 38.548 6.15142 39.0226 6.7371 39.0226H13.8339C14.4195 39.0226 14.8935 38.548 14.8935 37.9629V30.8661C14.8935 30.281 14.4195 29.8064 13.8339 29.8064H6.7371ZM7.79677 36.9032V31.9258H12.7742V36.9032H7.79677ZM17.7419 30.8661C17.7419 30.281 18.2159 29.8064 18.8016 29.8064H25.8984C26.4841 29.8064 26.9581 30.281 26.9581 30.8661V37.9629C26.9581 38.548 26.4841 39.0226 25.8984 39.0226H18.8016C18.2159 39.0226 17.7419 38.548 17.7419 37.9629V30.8661ZM19.8613 31.9258V36.9032H24.8387V31.9258H19.8613Z"
    fill="#3558A2" />
</svg>
  