<svg xmlns="http://www.w3.org/2000/svg" viewBox="0 0 512 512" fill="#4c5467"><path d="M432 256c0 5.52 4.48 10 10 10s10-4.48 10-10-4.48-10-10-10-10 4.48-10 10z"/><path d="M502 0H90c-5.522 0-10 4.478-10 10v96H10c-5.522 0-10 4.478-10 10v346c0 27.57 22.43 50 50 50h412c27.57 0 50-22.43 50-50V10c0-5.522-4.478-10-10-10zM20 462V126h60v336c0 16.542-13.458 30-30 30s-30-13.458-30-30zm472 0c0 16.542-13.458 30-30 30H89.973C96.265 483.637 100 473.248 100 462V20h392v442z"/><path d="M423 165.29c-4.272 0-8.885-2.687-12.985-7.564-3.553-4.229-9.863-4.773-14.089-1.22-4.228 3.554-4.773 9.861-1.22 14.089 5.346 6.36 11.632 10.791 18.294 13.025v11.67c0 5.522 4.478 10 10 10s10-4.478 10-10v-11.72c11.639-4.128 20-15.243 20-28.28 0-16.542-13.458-30-30-30-5.514 0-10-4.486-10-10s4.486-10 10-10c3.542 0 7.282 1.808 10.815 5.227 3.97 3.84 10.3 3.736 14.141-.232 3.84-3.969 3.736-10.3-.232-14.141-5.075-4.911-10.153-7.689-14.724-9.205V75.29c0-5.522-4.478-10-10-10s-10 4.478-10 10v11.72c-11.639 4.128-20 15.243-20 28.28 0 16.542 13.458 30 30 30 5.514 0 10 4.486 10 10s-4.486 10-10 10zM170 392c5.761 0 11.33-1.695 16.075-4.705l35.274 45.864A29.972 29.972 0 0 0 220 442c0 16.542 13.458 30 30 30 14.999 0 27.461-11.064 29.656-25.458l56.442-9.433C341.309 446.007 350.965 452 362 452c16.542 0 30-13.458 30-30a29.81 29.81 0 0 0-3.817-14.649l22.931-37.389A29.964 29.964 0 0 0 422 372c16.542 0 30-13.458 30-30s-13.458-30-30-30-30 13.458-30 30a29.81 29.81 0 0 0 3.817 14.649l-22.931 37.389A29.964 29.964 0 0 0 362 392c-14.999 0-27.461 11.064-29.656 25.458l-56.442 9.433C270.691 417.993 261.035 412 250 412c-5.761 0-11.33 1.695-16.075 4.705l-35.274-45.864A29.972 29.972 0 0 0 200 362c0-16.542-13.458-30-30-30s-30 13.458-30 30 13.458 30 30 30zm252-60c5.514 0 10 4.486 10 10s-4.486 10-10 10c-5.52 0-10-4.479-10-10 0-5.514 4.486-10 10-10zm-60 80c5.52 0 10 4.479 10 10 0 5.514-4.486 10-10 10s-10-4.486-10-10 4.486-10 10-10zm-112 20c5.514 0 10 4.486 10 10s-4.486 10-10 10-10-4.486-10-10c0-5.376 4.304-10 10-10zm-80-80c5.514 0 10 4.486 10 10 0 5.376-4.304 10-10 10-5.514 0-10-4.486-10-10s4.486-10 10-10zM150 86h192c5.522 0 10-4.478 10-10s-4.478-10-10-10H150c-5.522 0-10 4.478-10 10s4.478 10 10 10zM150 146h192c5.522 0 10-4.478 10-10s-4.478-10-10-10H150c-5.522 0-10 4.478-10 10s4.478 10 10 10zM150 206h192c5.522 0 10-4.478 10-10s-4.478-10-10-10H150c-5.522 0-10 4.478-10 10s4.478 10 10 10zM150 266h252c5.522 0 10-4.478 10-10s-4.478-10-10-10H150c-5.522 0-10 4.478-10 10s4.478 10 10 10z"/></svg>