<svg xmlns="http://www.w3.org/2000/svg" viewBox="0 0 512 512" fill="#4c5467"><path d="M226 146c5.52 0 10-4.48 10-10s-4.48-10-10-10-10 4.48-10 10 4.48 10 10 10zM226 106c5.523 0 10-4.477 10-10V50c0-5.523-4.477-10-10-10s-10 4.477-10 10v46c0 5.523 4.477 10 10 10zM186 146c5.523 0 10-4.477 10-10V50c0-5.523-4.477-10-10-10s-10 4.477-10 10v86c0 5.523 4.477 10 10 10z"/><path d="M76.499 229.929C63.28 243.148 56 260.728 56 279.43V502c0 5.523 4.477 10 10 10h180c5.523 0 10-4.477 10-10v-59.076c36.172-15.11 60-50.479 60-90.174V346h70c5.523 0 10-4.477 10-10V80h20c22.098 0 40-17.899 40-40 0-22.056-17.944-40-40-40H116C93.902 0 76 17.899 76 40c0 22.056 17.944 40 40 40h20v90.427l-59.501 59.502zM296 352.75a77.646 77.646 0 0 1-53.162 73.763A10 10 0 0 0 236 436v56H76V279.43c0-13.36 5.2-25.918 14.641-35.359L136 198.712v56.585l-5.351 5.352c-3.905 3.905-3.905 10.237 0 14.142s10.237 3.905 14.142 0l70.197-70.208c11.164-11.155 28.37-13.233 40.029-4.828 15.772 11.354 16.597 33.055 3.911 45.733 0 0-40.305 40.305-59.036 59.077-7.904 7.919-10.699 19.36-7.288 29.88C194.819 341.226 196 348.571 196 356c0 20.048-8.659 39.184-23.755 52.501-4.142 3.653-4.538 9.973-.884 14.114 3.642 4.128 9.96 4.548 14.114.884C204.874 406.387 216 381.785 216 356c0-3.347-.197-6.686-.565-10H296v6.75zm0-26.75V20h40v306h-40zm-84.787 0c-.156-2.644.836-5.303 2.836-7.307 18.728-18.768 59.021-59.062 59.02-59.06a49.689 49.689 0 0 0 2.931-3.222V326h-64.787zM276 192.178a50.99 50.99 0 0 0-9.292-8.65c-19.522-14.074-47.833-11.103-65.86 6.911L156 235.294v-60.719V20h120v172.178zM376 326h-20V20h20v306zm60-286c0 11.046-8.954 20-20 20h-20V20h20c11.028 0 20 8.972 20 20zM116 60c-11.028 0-20-8.972-20-20 0-11.046 8.954-20 20-20h20v40h-20z"/></svg>