<svg xmlns="http://www.w3.org/2000/svg" viewBox="0 0 512 512" fill="#4c5467"><path d="M256 160c-5.52 0-10 4.48-10 10s4.48 10 10 10 10-4.48 10-10-4.48-10-10-10z"/><path d="M10 512h492c5.522 0 10-4.477 10-10v-40c0-5.523-4.478-10-10-10h-10v-30c0-5.523-4.478-10-10-10h-10v-30c0-5.523-4.478-10-10-10h-10V260h10c5.522 0 10-4.477 10-10v-30h30c5.522 0 10-4.477 10-10v-40c0-.047-.006-.091-.007-.138a9.968 9.968 0 0 0-4.479-8.201c-.021-.014-.04-.03-.062-.044l-246-160a10 10 0 0 0-10.904 0l-246 160C1.833 163.38 0 166.527 0 170v40c0 5.523 4.478 10 10 10h30v30c0 5.523 4.478 10 10 10h10v112H50c-5.522 0-10 4.477-10 10v30H30c-5.522 0-10 4.477-10 10v30H10c-5.522 0-10 4.477-10 10v40c0 5.523 4.478 10 10 10zm342-60v-20h120v20H352zm-172 0v-20h152v20H180zm-30-80h-10V260h10c5.522 0 10-4.477 10-10v-30h192v30c0 5.523 4.478 10 10 10h10v112h-10c-5.522 0-10 4.477-10 10v30h-20V250c0-5.523-4.478-10-10-10H190c-5.522 0-10 4.477-10 10v162h-20v-30c0-5.523-4.478-10-10-10zm116 40V260h46v152h-46zm-66 0V260h46v152h-46zm172 0v-20h80v20h-80zm60-40h-40V260h40v112zm20-132h-80v-20h80v20zM20 180h196c5.522 0 10-4.477 10-10s-4.478-10-10-10H43.716L256 21.929 468.284 160H296c-5.522 0-10 4.477-10 10s4.478 10 10 10h196v20H20v-20zm120 40v20H60v-20h80zm-20 40v112H80V260h40zM60 392h80v20H60v-20zm-20 40h120v20H40v-20zm-20 40h472v20H20v-20z"/><path d="M256 140c22.056 0 40-17.944 40-40 0-.704-.015-1.395-.055-2.086C294.851 76.65 277.313 60 256 60c-22.056 0-40 17.944-40 40s17.944 40 40 40zm0-60c10.663 0 19.437 8.33 19.973 18.963l.005.089c.018.314.022.628.022.948 0 11.028-8.972 20-20 20s-20-8.972-20-20 8.972-20 20-20z"/></svg>