<svg xmlns="http://www.w3.org/2000/svg" viewBox="0 0 512 512" fill="#4c5467"><path d="M10 400c-5.522 0-10 4.478-10 10s4.478 10 10 10h10v62c0 5.522 4.478 10 10 10h62v10c0 5.522 4.478 10 10 10s10-4.478 10-10v-10h20v10c0 5.522 4.478 10 10 10s10-4.478 10-10v-10h20v10c0 5.522 4.478 10 10 10s10-4.478 10-10v-10h20v10c0 5.522 4.478 10 10 10s10-4.478 10-10v-10h20v10c0 5.522 4.478 10 10 10s10-4.478 10-10v-10h20v10c0 5.522 4.478 10 10 10s10-4.478 10-10v-10h20v10c0 5.522 4.478 10 10 10s10-4.478 10-10v-10h20v10c0 5.522 4.478 10 10 10s10-4.478 10-10v-10h20v10c0 5.522 4.478 10 10 10s10-4.478 10-10v-10h20v10c0 5.522 4.478 10 10 10s10-4.478 10-10v-10h20v10c0 5.522 4.478 10 10 10s10-4.478 10-10v-20c0-5.522-4.478-10-10-10h-30V170c0-5.522-4.478-10-10-10h-60c-5.522 0-10 4.478-10 10v302h-20V230c0-5.522-4.478-10-10-10h-60c-5.522 0-10 4.478-10 10v242h-20V290c0-5.522-4.478-10-10-10h-60c-5.522 0-10 4.478-10 10v182h-20V350c0-5.522-4.478-10-10-10h-60c-5.522 0-10 4.478-10 10v122H40V10c0-5.522-4.478-10-10-10H10C4.478 0 0 4.478 0 10s4.478 10 10 10h10v20H10C4.478 40 0 44.478 0 50s4.478 10 10 10h10v20H10C4.478 80 0 84.478 0 90s4.478 10 10 10h10v20H10c-5.522 0-10 4.478-10 10s4.478 10 10 10h10v20H10c-5.522 0-10 4.478-10 10s4.478 10 10 10h10v20H10c-5.522 0-10 4.478-10 10s4.478 10 10 10h10v20H10c-5.522 0-10 4.478-10 10s4.478 10 10 10h10v20H10c-5.522 0-10 4.478-10 10s4.478 10 10 10h10v20H10c-5.522 0-10 4.478-10 10s4.478 10 10 10h10v20H10c-5.522 0-10 4.478-10 10s4.478 10 10 10h10v20H10zm402-220h40v292h-40V180zm-60 60v232h-40V240h40zm-140 60h40v172h-40V300zm-60 60v112h-40V360h40zM433 40c3.542 0 7.282 1.808 10.815 5.227 3.971 3.841 10.3 3.736 14.141-.232 3.84-3.969 3.736-10.3-.232-14.141-5.075-4.911-10.153-7.689-14.724-9.205V10c0-5.522-4.478-10-10-10s-10 4.478-10 10v11.72c-11.639 4.128-20 15.243-20 28.28 0 16.542 13.458 30 30 30 5.514 0 10 4.486 10 10s-4.486 10-10 10c-4.272 0-8.885-2.687-12.985-7.564-3.554-4.229-9.862-4.773-14.089-1.22-4.228 3.554-4.773 9.861-1.22 14.089 5.346 6.36 11.632 10.791 18.294 13.025V130c0 5.522 4.478 10 10 10s10-4.478 10-10v-11.72c11.639-4.128 20-15.243 20-28.28 0-16.542-13.458-30-30-30-5.514 0-10-4.486-10-10s4.486-10 10-10z"/></svg>