<svg xmlns="http://www.w3.org/2000/svg" viewBox="0 0 512 512" fill="#4c5467"><path d="M256 81c5.38 0 9.77-4.26 9.99-9.59.01-.13.01-.27.01-.41 0-5.52-4.48-10-10-10s-10 4.48-10 10c0 .14 0 .28.01.41.22 5.33 4.61 9.59 9.99 9.59z"/><path d="M256 0C118.122 0 0 118.12 0 256c0 137.521 117.73 256 256 256 137.515 0 256-117.721 256-256C512 118.193 393.944 0 256 0zm0 492C130.28 492 20 381.72 20 256S130.28 20 256 20s236 110.28 236 236-110.28 236-236 236z"/><path d="M298.139 64.968c-5.373-1.276-10.764 2.045-12.04 7.419-1.275 5.374 2.046 10.764 7.419 12.04C372.466 103.172 432 176.933 432 256c0 93.757-82.243 176-176 176S80 349.757 80 256c0-79.067 59.534-152.827 138.481-171.573 5.374-1.276 8.695-6.666 7.419-12.04s-6.667-8.695-12.04-7.419C126.912 85.614 60 166.892 60 256c0 104.2 91.099 196 196 196 104.2 0 196-91.099 196-196 0-89.035-66.843-170.37-153.861-191.032z"/><path d="M196 166c-5.523 0-10 4.477-10 10s4.477 10 10 10h10v140h-10c-5.523 0-10 4.477-10 10s4.477 10 10 10h50v30c0 5.523 4.478 10 10 10s10-4.477 10-10v-30h10c27.57 0 50-22.43 50-50 0-16.339-7.777-30.807-20.013-40.014C318.132 246.855 326 232.33 326 216c0-27.624-22.375-50-50-50h-10v-30c0-5.523-4.478-10-10-10s-10 4.477-10 10v30h-50zm110 130c0 16.542-13.458 30-30 30h-50v-60h50c16.57 0 30 13.429 30 30zm0-80c0 16.542-13.458 30-30 30h-50v-60h50c16.57 0 30 13.429 30 30z"/></svg>