<svg xmlns="http://www.w3.org/2000/svg" viewBox="0 0 512 512" fill="#4c5467"><path d="M256 452c-5.52 0-10 4.48-10 10s4.48 10 10 10 10-4.48 10-10-4.48-10-10-10z"/><path d="M482 106H366V70c0-38.599-31.401-70-70-70h-80c-38.598 0-70 31.401-70 70v36H30c-16.542 0-30 13.458-30 30v346c0 16.542 13.458 30 30 30h452c16.542 0 30-13.458 30-30V136c0-16.542-13.458-30-30-30zM166 70c0-27.57 22.43-50 50-50h80c27.57 0 50 22.43 50 50v36h-20V70c0-16.542-13.458-30-30-30h-80c-16.542 0-30 13.458-30 30v36h-20V70zm40 36V70c0-5.514 4.486-10 10-10h80c5.514 0 10 4.486 10 10v36H206zM30 126h452c5.514 0 10 4.486 10 10v70h-66v-30c0-5.522-4.478-10-10-10h-60c-5.522 0-10 4.478-10 10v30H166v-30c0-5.522-4.477-10-10-10H96c-5.523 0-10 4.478-10 10v30H20v-70c0-5.514 4.486-10 10-10zm376 140h-40v-80h40v80zm-40 20h40v24.527l-21.019 13.452L366 310.774V286zm-220-20h-40v-80h40v80zm-40 20h40v24.527l-21.019 13.452L106 310.774V286zm376 206H30c-5.514 0-10-4.486-10-10v-10h196c5.523 0 10-4.478 10-10s-4.477-10-10-10H20V226h66v40H76c-5.523 0-10 4.478-10 10s4.477 10 10 10h10v30a9.999 9.999 0 0 0 4.29 8.209l28.75 20a9.99 9.99 0 0 0 5.711 1.791 9.988 9.988 0 0 0 5.39-1.577l31.25-20A10 10 0 0 0 166 316v-30h10c5.523 0 10-4.478 10-10s-4.477-10-10-10h-10v-40h180v40h-10c-5.522 0-10 4.478-10 10s4.478 10 10 10h10v30c0 3.273 1.603 6.34 4.289 8.209l28.75 20A9.992 9.992 0 0 0 384.75 346a9.991 9.991 0 0 0 5.391-1.577l31.25-20A10 10 0 0 0 426 316v-30h10c5.522 0 10-4.478 10-10s-4.478-10-10-10h-10v-40h66v226H296c-5.522 0-10 4.478-10 10s4.478 10 10 10h196v10c0 5.514-4.486 10-10 10z"/><path d="M287 355.29c0-16.542-13.458-30-30-30-5.514 0-10-4.486-10-10s4.486-10 10-10c3.542 0 7.282 1.808 10.815 5.227 3.971 3.841 10.3 3.737 14.141-.232 3.84-3.969 3.736-10.3-.232-14.141-5.075-4.911-10.153-7.689-14.724-9.205V275.29c0-5.522-4.478-10-10-10s-10 4.478-10 10v11.72c-11.639 4.128-20 15.243-20 28.28 0 16.542 13.458 30 30 30 5.514 0 10 4.486 10 10s-4.486 10-10 10c-4.272 0-8.885-2.687-12.985-7.564-3.555-4.229-9.863-4.773-14.09-1.22-4.228 3.554-4.773 9.862-1.219 14.089 5.346 6.36 11.632 10.791 18.294 13.025v11.671c0 5.522 4.478 10 10 10s10-4.478 10-10v-11.72c11.639-4.129 20-15.245 20-28.281z"/></svg>