<svg xmlns="http://www.w3.org/2000/svg" viewBox="0 0 512 512" fill="#4c5467"><path d="M276 416c-5.52 0-10 4.48-10 10s4.48 10 10 10 10-4.48 10-10-4.48-10-10-10z"/><path d="M482 16H30C13.458 16 0 29.458 0 46v420c0 16.542 13.458 30 30 30h452c16.542 0 30-13.458 30-30V46c0-16.542-13.458-30-30-30zM30 36h452c5.514 0 10 4.486 10 10v50H20V46c0-5.514 4.486-10 10-10zm452 440H30c-5.514 0-10-4.486-10-10V116h472v350c0 5.514-4.486 10-10 10z"/><path d="M302 76h20c5.522 0 10-4.478 10-10s-4.478-10-10-10h-20c-5.522 0-10 4.478-10 10s4.478 10 10 10zM362 76h20c5.522 0 10-4.478 10-10s-4.478-10-10-10h-20c-5.522 0-10 4.478-10 10s4.478 10 10 10zM422 76h20c5.522 0 10-4.478 10-10s-4.478-10-10-10h-20c-5.522 0-10 4.478-10 10s4.478 10 10 10zM176 156c-60.654 0-110 49.346-110 110s49.346 110 110 110 110-49.346 110-110-49.346-110-110-110zm0 200c-49.626 0-90-40.374-90-90s40.374-90 90-90 90 40.374 90 90-40.374 90-90 90z"/><path d="M177 255.29c-5.514 0-10-4.486-10-10s4.486-10 10-10c3.542 0 7.283 1.808 10.816 5.227 3.97 3.842 10.3 3.735 14.14-.232 3.84-3.97 3.736-10.3-.233-14.141-5.075-4.911-10.153-7.688-14.724-9.205V205.29c0-5.522-4.477-10-10-10s-10 4.478-10 10v11.72c-11.639 4.128-20 15.243-20 28.28 0 16.542 13.458 30 30 30 5.514 0 10 4.486 10 10s-4.486 10-10 10c-4.273 0-8.885-2.687-12.986-7.564-3.555-4.229-9.862-4.773-14.089-1.22-4.228 3.554-4.773 9.862-1.219 14.089 5.346 6.36 11.632 10.791 18.294 13.025v11.67c0 5.522 4.477 10 10 10s10-4.478 10-10v-11.72c11.639-4.128 20-15.243 20-28.28.001-16.542-13.457-30-29.999-30zM442 336H336c-5.522 0-10 4.478-10 10v80c0 5.522 4.478 10 10 10h106c5.522 0 10-4.478 10-10v-80c0-5.522-4.478-10-10-10zm-10 80h-86v-60h86v60zM442 276H336c-5.522 0-10 4.478-10 10s4.478 10 10 10h106c5.522 0 10-4.478 10-10s-4.478-10-10-10zM442 216H336c-5.522 0-10 4.478-10 10s4.478 10 10 10h106c5.522 0 10-4.478 10-10s-4.478-10-10-10zM442 156H336c-5.522 0-10 4.478-10 10s4.478 10 10 10h106c5.522 0 10-4.478 10-10s-4.478-10-10-10zM236 416H90c-5.523 0-10 4.478-10 10s4.477 10 10 10h146c5.522 0 10-4.478 10-10s-4.478-10-10-10z"/></svg>