<svg xmlns="http://www.w3.org/2000/svg" viewBox="0 0 512 512" fill="#4c5467"><path d="M256 126c5.52 0 10-4.48 10-10s-4.48-10-10-10-10 4.48-10 10 4.48 10 10 10z"/><path d="M482 0H30C13.458 0 0 13.458 0 30v452c0 16.542 13.458 30 30 30h452c16.542 0 30-13.458 30-30V30c0-16.542-13.458-30-30-30zm10 482c0 5.514-4.486 10-10 10H30c-5.514 0-10-4.486-10-10V30c0-5.514 4.486-10 10-10h452c5.514 0 10 4.486 10 10v452z"/><path d="M436 66H76c-5.522 0-10 4.477-10 10v360c0 5.523 4.478 10 10 10h360c5.522 0 10-4.477 10-10V76c0-5.523-4.478-10-10-10zm-10 20v160H265.936l-.036-90.004c-.002-5.521-4.379-9.996-9.9-9.996h-.004c-5.522.002-9.998 4.481-9.996 10.004l.036 89.996H86V86h340zM86 266h160.043l.053 160H86V266zm179.996 160l-.053-160H426v160H265.996z"/><path d="M126 176h30v30c0 5.523 4.478 10 10 10s10-4.477 10-10v-30h30c5.522 0 10-4.477 10-10s-4.478-10-10-10h-30v-30c0-5.523-4.478-10-10-10s-10 4.477-10 10v30h-30c-5.522 0-10 4.477-10 10s4.478 10 10 10zM306.1 176h80c5.522 0 10-4.477 10-10s-4.478-10-10-10h-80c-5.522 0-10 4.477-10 10s4.477 10 10 10zM386.1 316h-80c-5.522 0-10 4.477-10 10s4.478 10 10 10h80c5.522 0 10-4.477 10-10s-4.478-10-10-10zM386.1 356h-80c-5.522 0-10 4.477-10 10s4.478 10 10 10h80c5.522 0 10-4.477 10-10s-4.478-10-10-10zM201.451 367.299l-21.21-21.214 21.211-21.215c3.904-3.906 3.903-10.237-.002-14.142-3.906-3.905-10.238-3.903-14.143.002L166.1 331.941l-21.208-21.211c-3.905-3.906-10.236-3.908-14.142-.002-3.906 3.904-3.907 10.236-.003 14.142l21.211 21.215-21.21 21.214c-3.905 3.905-3.905 10.237 0 14.142 3.906 3.905 10.236 3.905 14.143 0l21.208-21.212 21.209 21.213c3.906 3.905 10.236 3.905 14.143 0 3.905-3.906 3.905-10.238 0-14.143z"/></svg>