<svg xmlns="http://www.w3.org/2000/svg" viewBox="0 0 512 512" fill="#4c5467"><path d="M442 114.335c-5.52 0-10 4.48-10 10s4.48 10 10 10 10-4.48 10-10-4.48-10-10-10zM402 114.335H236c-5.523 0-10 4.478-10 10s4.477 10 10 10h166c5.523 0 10-4.478 10-10 0-5.523-4.477-10-10-10z"/><path d="M442 34.335H236c-38.598 0-70 31.402-70 70v50H70c-38.598 0-70 31.401-70 70v120c0 35.203 26.122 64.421 60 69.288v54.042a10.001 10.001 0 0 0 17.071 7.071l60.401-60.401H276c38.598 0 70-31.402 70-70v-50h31.858l57.071 57.071A10 10 0 1 0 452 344.335v-50.712c33.878-4.867 60-34.085 60-69.288v-120c0-38.598-31.402-70-70-70zm-116 310c0 27.57-22.43 50-50 50H133.33a10.001 10.001 0 0 0-7.071 2.929L80 443.522v-39.188c0-5.522-4.477-10-10-10-27.57 0-50-22.43-50-50v-120c0-27.57 22.43-50 50-50h206c21.161 0 40.114 13.396 47.16 33.329a49.949 49.949 0 0 1 2.84 16.671v120.001zm166-120c0 27.57-22.43 50-50 50-5.523 0-10 4.478-10 10v35.857l-42.929-42.929a10.001 10.001 0 0 0-7.071-2.929h-36v-50c0-3.366-.252-6.703-.723-10H442c5.523 0 10-4.478 10-10s-4.477-10-10-10H339.253a69.79 69.79 0 0 0-14.284-20H442c5.523 0 10-4.478 10-10s-4.477-10-10-10H186v-50c0-27.57 22.43-50 50-50h206c27.57 0 50 22.43 50 50v120.001z"/><path d="M171 273.625c-5.514 0-10-4.486-10-10s4.486-10 10-10c3.542 0 7.283 1.808 10.816 5.227 3.969 3.841 10.3 3.735 14.14-.232 3.84-3.97 3.736-10.3-.233-14.141-5.075-4.911-10.153-7.688-14.724-9.205v-11.649c0-5.522-4.477-10-10-10s-10 4.478-10 10v11.72c-11.639 4.128-20 15.243-20 28.28 0 16.542 13.458 30 30 30 5.514 0 10 4.486 10 10s-4.486 10-10 10c-4.273 0-8.885-2.687-12.986-7.564-3.554-4.229-9.862-4.774-14.089-1.22-4.228 3.554-4.773 9.862-1.219 14.089 5.346 6.36 11.632 10.791 18.294 13.025v11.67c0 5.522 4.477 10 10 10s10-4.478 10-10v-11.72c11.639-4.128 20-15.243 20-28.28.001-16.542-13.457-30-29.999-30z"/></svg>