<svg xmlns="http://www.w3.org/2000/svg" viewBox="0 0 512 512" fill="#4c5467"><path d="M396 398.9c-5.52 0-10 4.48-10 10s4.48 10 10 10 10-4.48 10-10-4.48-10-10-10z"/><path d="M482 178.9h-59.43l48.707-48.714.005-.005 28.79-28.791c15.635-15.634 15.638-40.923 0-56.561-15.635-15.637-40.924-15.639-56.563-.001L421.79 66.546l-7.468-7.468c-11.789-11.789-30.898-11.713-42.578.146l-61.85 62.65c-3.88 3.931-3.839 10.262.091 14.142 3.928 3.878 10.259 3.842 14.142-.091l61.858-62.658c3.82-3.878 10.169-4.072 14.194-.046l7.468 7.468-98.218 98.211H30c-16.542 0-30 13.458-30 30v240c0 16.542 13.458 30 30 30h452c16.542 0 30-13.458 30-30v-240c0-16.542-13.458-30-30-30zM457.651 58.971c7.819-7.819 20.457-7.821 28.277 0 7.819 7.82 7.823 20.456 0 28.278l-21.719 21.719-28.278-28.278 21.72-21.719zm-7.583 64.14L271.35 301.828l-28.279-28.279L421.789 94.832l28.279 28.279zM223.62 293.003l5.31-5.31 28.278 28.278-5.31 5.31-40.803 12.526 12.525-40.804zM492 448.9c0 5.514-4.486 10-10 10H30c-5.514 0-10-4.486-10-10v-240c0-5.514 4.486-10 10-10h259.43l-81.711 81.719a9.995 9.995 0 0 0-2.489 4.137l-18.06 58.831-18.242 18.242c-.033.033-.06.069-.092.102-6.202 6.373-1.579 16.97 7.163 16.97h266c5.523 0 10-4.478 10-10s-4.477-10-10-10H200.143l1.171-1.171 58.831-18.06a10 10 0 0 0 4.136-2.488l138.281-138.281H482c5.514 0 10 4.486 10 10V448.9z"/><path d="M111 318.191c-5.514 0-10-4.486-10-10s4.486-10 10-10c3.542 0 7.283 1.808 10.816 5.227 3.97 3.841 10.3 3.736 14.14-.232 3.84-3.97 3.736-10.3-.233-14.141-5.075-4.911-10.153-7.688-14.724-9.205v-11.649c0-5.522-4.477-10-10-10s-10 4.478-10 10v11.72c-11.639 4.128-20 15.243-20 28.28 0 16.542 13.458 30 30 30 5.514 0 10 4.486 10 10s-4.486 10-10 10c-4.273 0-8.885-2.687-12.986-7.564-3.554-4.229-9.862-4.773-14.089-1.22-4.228 3.554-4.773 9.862-1.219 14.089 5.346 6.36 11.632 10.791 18.294 13.025v11.67c0 5.522 4.477 10 10 10s10-4.478 10-10v-11.72c11.639-4.128 20-15.243 20-28.28.001-16.542-13.457-30-29.999-30zM356 398.9H236c-5.523 0-10 4.478-10 10s4.477 10 10 10h120c5.523 0 10-4.478 10-10s-4.477-10-10-10z"/></svg>