<svg xmlns="http://www.w3.org/2000/svg" viewBox="0 0 512 512" fill="#4c5467"><path d="M296 186c-5.52 0-10 4.48-10 10s4.48 10 10 10 10-4.48 10-10-4.48-10-10-10z"/><path d="M397.455 126.018C376.949 68.186 321.874 26 256 26c-65.857 0-120.943 42.169-141.455 100.018C55.197 126.807 0 175.047 0 236c0 61.493 56.197 109.9 116 109.9h34.143C147.395 355.6 146 365.74 146 376c0 60.654 49.346 110 110 110s110-49.346 110-110c0-10.26-1.395-20.3-4.143-30H396c59.736 0 116-48.425 116-110 0-60.842-55.104-109.192-114.545-109.982zM256 466c-49.626 0-90-40.374-90-90 0-50.11 40.687-90 90-90 49.339 0 90 39.918 90 90 0 49.626-40.374 90-90 90zm140-140h-42.013c-18.711-36.653-56.467-60-97.987-60s-79.276 23.347-97.987 60H116c-51.141 0-96-42.056-96-90 0-75.353 101.033-122.151 159.61-63.606 3.908 3.904 10.238 3.901 14.143-.004 3.904-3.906 3.902-10.238-.004-14.143-16.059-16.049-36.474-26.64-58.456-30.546C154.828 79.059 202.852 46 256 46c53.15 0 101.175 33.061 120.709 81.705-22.006 3.914-42.408 14.502-58.458 30.542-3.906 3.904-3.908 10.236-.004 14.143 3.903 3.905 10.235 3.908 14.143.004 15.687-15.678 36.436-24.996 58.491-26.243C442.171 142.888 492 185.128 492 236c0 47.944-44.859 90-96 90z"/><path d="M257 365.29c-5.514 0-10-4.486-10-10s4.486-10 10-10c3.542 0 7.282 1.808 10.815 5.227a10.001 10.001 0 0 0 13.909-14.373c-5.075-4.911-10.153-7.689-14.724-9.205V315.29c0-5.522-4.478-10-10-10s-10 4.478-10 10v11.72c-11.639 4.128-20 15.243-20 28.28 0 16.542 13.458 30 30 30 5.514 0 10 4.486 10 10s-4.486 10-10 10c-4.272 0-8.885-2.687-12.985-7.564-3.553-4.229-9.863-4.774-14.089-1.22-4.228 3.554-4.773 9.861-1.22 14.089 5.346 6.36 11.632 10.791 18.294 13.025v11.67c0 5.522 4.478 10 10 10s10-4.478 10-10v-11.72c11.639-4.128 20-15.243 20-28.28 0-16.542-13.458-30-30-30z"/></svg>