<svg xmlns="http://www.w3.org/2000/svg" viewBox="0 0 512 512" fill="#4c5467"><path d="M178.22 213.64c-3.91 3.9-3.91 10.24 0 14.14 3.855 3.865 10.371 4.095 14.52-.4 3.53-3.92 3.4-9.97-.38-13.74a9.983 9.983 0 0 0-14.14 0z"/><path d="M476 406c5.522 0 10-4.478 10-10V110c0-5.522-4.478-10-10-10h-78.552C376.723 41.57 321.231 0 256 0c-66.193 0-121.048 42.491-141.451 100H36c-5.522 0-10 4.478-10 10v286c0 5.522 4.478 10 10 10h170v46h-10c-24.146 0-44.348 17.205-48.994 40H116c-5.522 0-10 4.478-10 10s4.478 10 10 10h280c5.522 0 10-4.478 10-10s-4.478-10-10-10h-31.006c-4.646-22.795-24.847-40-48.994-40h-10v-46h170zM256 20c56.111 0 106.54 36.881 123.712 90.033a9.94 9.94 0 0 0 1.63 5.432A130.318 130.318 0 0 1 386 150c0 71.683-58.317 130-130 130s-130-58.317-130-130c0-73.205 60.148-130 130-130zM109.026 120A150.765 150.765 0 0 0 106 150c0 82.71 67.29 150 150 150s150-67.29 150-150c0-10.122-1.032-20.163-3.03-30H466v226H46V120h63.026zM46 366h420v20H46v-20zm298.28 126H167.72c4.128-11.639 15.243-20 28.28-20h120c13.036 0 24.152 8.361 28.28 20zM286 452h-60v-46h60v46z"/><path d="M153.953 191.072c2.062 5.124 7.888 7.604 13.01 5.545 5.124-2.062 7.606-7.887 5.545-13.01C168.466 173.54 166 161.967 166 150c0-49.626 40.374-90 90-90 49.558 0 90 40.336 90 90 0 49.626-40.374 90-90 90-11.774 0-24.288-2.748-33.362-6.417-.099-.04-.248-.099-.372-.145-5.058-1.952-10.77.486-12.843 5.523-2.103 5.107.333 10.951 5.439 13.055.106.043.22.088.338.132 13.425 5.42 27.054 7.852 40.8 7.852 60.654 0 110-49.346 110-110 0-60.809-49.483-110-110-110-60.654 0-110 49.346-110 110 0 14.844 2.729 28.033 7.953 41.072z"/><path d="M256 179.29c-4.272 0-8.885-2.687-12.985-7.564-3.554-4.229-9.863-4.774-14.089-1.22-4.228 3.554-4.774 9.861-1.22 14.089 5.346 6.36 11.632 10.791 18.294 13.025v11.67c0 5.522 4.478 10 10 10s10-4.478 10-10v-11.72c11.639-4.128 20-15.243 20-28.28 0-16.542-13.458-30-30-30-5.514 0-10-4.486-10-10s4.486-10 10-10c3.542 0 7.282 1.808 10.815 5.227a10 10 0 1 0 13.909-14.373c-5.075-4.911-10.153-7.689-14.724-9.205V89.29c0-5.522-4.478-10-10-10s-10 4.478-10 10v11.72c-11.639 4.128-20 15.243-20 28.28 0 16.542 13.458 30 30 30 5.514 0 10 4.486 10 10s-4.486 10-10 10z"/></svg>