<svg xmlns="http://www.w3.org/2000/svg" viewBox="0 0 512 512" fill="#4c5467"><circle cx="336" cy="176" r="10"/><circle cx="336" cy="336" r="10"/><circle cx="176" cy="176" r="10"/><circle cx="176" cy="336" r="10"/><path d="M502 146c5.523 0 10-4.478 10-10s-4.477-10-10-10h-56V96c0-16.542-13.458-30-30-30h-30V10c0-5.522-4.477-10-10-10s-10 4.478-10 10v56h-60V10c0-5.522-4.477-10-10-10s-10 4.478-10 10v56h-60V10c0-5.522-4.477-10-10-10s-10 4.478-10 10v56h-60V10c0-5.522-4.477-10-10-10s-10 4.478-10 10v56H96c-16.542 0-30 13.458-30 30v30H10c-5.523 0-10 4.478-10 10s4.477 10 10 10h56v60H10c-5.523 0-10 4.478-10 10s4.477 10 10 10h56v60H10c-5.523 0-10 4.478-10 10s4.477 10 10 10h56v60H10c-5.523 0-10 4.478-10 10s4.477 10 10 10h56v30c0 16.542 13.458 30 30 30h30v56c0 5.522 4.477 10 10 10s10-4.478 10-10v-56h60v56c0 5.522 4.477 10 10 10s10-4.478 10-10v-56h60v56c0 5.522 4.477 10 10 10s10-4.478 10-10v-56h60v56c0 5.522 4.477 10 10 10s10-4.478 10-10v-56h30c16.542 0 30-13.458 30-30v-30h56c5.523 0 10-4.478 10-10s-4.477-10-10-10h-56v-60h56c5.523 0 10-4.478 10-10s-4.477-10-10-10h-56v-60h56c5.523 0 10-4.478 10-10s-4.477-10-10-10h-56v-60h56zm-76 270c0 5.514-4.486 10-10 10H96c-5.514 0-10-4.486-10-10V96c0-5.514 4.486-10 10-10h320c5.514 0 10 4.486 10 10v320z"/><path d="M376 126H136c-5.523 0-10 4.478-10 10v240c0 5.522 4.477 10 10 10h240c5.523 0 10-4.478 10-10V136c0-5.522-4.477-10-10-10zm-10 240H146V146h220v220z"/><path d="M257 285.29c-4.273 0-8.885-2.687-12.986-7.564-3.554-4.229-9.862-4.774-14.089-1.22-4.228 3.554-4.773 9.862-1.219 14.089 5.346 6.36 11.632 10.791 18.294 13.025v11.67c0 5.522 4.477 10 10 10s10-4.478 10-10v-11.72c11.639-4.128 20-15.243 20-28.28 0-16.542-13.458-30-30-30-5.514 0-10-4.486-10-10s4.486-10 10-10c3.542 0 7.283 1.808 10.816 5.227 3.97 3.841 10.3 3.736 14.14-.232 3.84-3.97 3.736-10.3-.233-14.141-5.075-4.911-10.153-7.688-14.724-9.205V195.29c0-5.522-4.477-10-10-10s-10 4.478-10 10v11.72c-11.639 4.128-20 15.243-20 28.28 0 16.542 13.458 30 30 30 5.514 0 10 4.486 10 10s-4.485 10-9.999 10z"/></svg>