<svg xmlns="http://www.w3.org/2000/svg" viewBox="0 0 512 512" fill="#4c5467"><path d="M261.996 86.003c-5.52 0-10 4.48-10 10s4.48 10 10 10 10-4.48 10-10-4.48-10-10-10z"/><path d="M511.382 272.587a49.79 49.79 0 0 0-10.69-23.969l-48.229-58.949c-.032-.039-.068-.073-.101-.111l-26.626-32.545a29.88 29.88 0 0 0-23.223-11.012h-70.518V76.003c0-16.542-13.458-30-30-30H30c-16.542 0-30 13.458-30 30v319.996c0 5.522 4.477 10 10 10h49.999c0 33.084 26.916 59.999 59.999 59.999s59.999-26.916 59.999-59.999h171.998c0 33.084 26.916 59.999 59.999 59.999s59.999-26.916 59.999-59.999h10c16.542 0 30-13.458 30-30-.038-100.906.088-95.653-.097-98.681a9.705 9.705 0 0 0-.514-4.731zm-23.025-6.586H371.995v-59.999h67.99l45.227 55.28a29.868 29.868 0 0 1 3.145 4.719zM119.998 445.998c-22.056 0-39.999-17.944-39.999-39.999 0-22.357 18.269-39.999 39.999-39.999 21.741 0 39.999 17.654 39.999 39.999.001 22.055-17.943 39.999-39.999 39.999zm56.565-59.999C168.212 362.401 145.609 346 119.998 346c-25.622 0-48.233 16.414-56.569 39.999H20V76.003c0-5.514 4.486-10 10-10h271.996c5.514 0 10 4.486 10 10v309.996H176.563zm235.431 59.999c-22.056 0-39.999-17.944-39.999-39.999 0-22.357 18.269-39.999 39.999-39.999 21.741 0 39.999 17.654 39.999 39.999.001 22.055-17.943 39.999-39.999 39.999zm69.999-59.999h-13.435C460.208 362.401 437.605 346 411.994 346c-25.622 0-48.233 16.414-56.569 39.999h-23.43V166.002h70.519a9.956 9.956 0 0 1 7.74 3.672l13.359 16.328h-61.618c-5.523 0-10 4.478-10 10v79.999c0 5.522 4.477 10 10 10h129.998v20h-30c-5.523 0-10 4.478-10 10s4.477 10 10 10h30V376c0 5.512-4.486 9.999-10 9.999z"/><path d="M119.998 385.999c-11.028 0-20 8.972-20 20s8.972 20 20 20 20-8.972 20-20-8.972-20-20-20zM411.994 385.999c-11.028 0-20 8.972-20 20s8.972 20 20 20 20-8.972 20-20-8.972-20-20-20zM170.998 225.291c-5.514 0-10-4.486-10-10s4.486-10 10-10c3.542 0 7.283 1.808 10.816 5.227 3.969 3.841 10.3 3.735 14.14-.232 3.84-3.97 3.736-10.3-.233-14.141-5.075-4.911-10.153-7.688-14.724-9.205v-11.649c0-5.522-4.477-10-10-10s-10 4.478-10 10v11.72c-11.639 4.128-20 15.243-20 28.28 0 16.542 13.458 30 30 30 5.514 0 10 4.486 10 10s-4.486 10-10 10c-4.273 0-8.885-2.687-12.986-7.564-3.554-4.229-9.862-4.774-14.089-1.22-4.228 3.554-4.773 9.862-1.219 14.089 5.346 6.36 11.632 10.791 18.294 13.025v11.67c0 5.522 4.477 10 10 10s10-4.478 10-10v-11.72c11.639-4.128 20-15.243 20-28.28 0-16.542-13.458-30-29.999-30zM221.997 86.003H89.999c-5.523 0-10 4.478-10 10s4.477 10 10 10h131.998c5.523 0 10-4.478 10-10s-4.477-10-10-10z"/></svg>