<svg xmlns="http://www.w3.org/2000/svg" viewBox="0 0 512 512" fill="#4c5467"><path d="M315.998 260c-5.52 0-10 4.48-10 10s4.48 10 10 10 10-4.48 10-10-4.48-10-10-10z"/><path d="M2.492 236.598c.027.031.051.066.079.096l.011.014 246 272c1.833 2.027 4.611 3.292 7.417 3.292 2.797 0 5.57-1.251 7.417-3.292l246-272 .011-.014c.028-.031.051-.065.079-.096a9.992 9.992 0 0 0 .38-12.732c-.028-.036-.049-.077-.078-.113l-80-100a10 10 0 0 0-7.809-3.753h-332a10.001 10.001 0 0 0-7.809 3.753l-80 100c-.029.036-.049.076-.078.113a9.997 9.997 0 0 0 .38 12.732zM201.66 140h108.677l48 80H153.66l48-80zm-50.32 100h209.316L255.998 477.226 151.34 240zm231.177 0h96.955L290.179 449.298 382.517 240zm-253.037 0l92.337 209.298L32.525 240h96.955zm351.712-20H381.66l-48-80h83.532l64 80zM94.804 140h83.532l-48 80H30.804l64-80z"/><path d="M275.998 260h-74.22c-5.523 0-10 4.477-10 10s4.477 10 10 10h74.22c5.523 0 10-4.477 10-10s-4.477-10-10-10zM255.998 80c5.523 0 10-4.477 10-10V10c0-5.523-4.477-10-10-10s-10 4.477-10 10v60c0 5.523 4.477 10 10 10zM323.07 77.071l40-40c3.905-3.905 3.905-10.237 0-14.143s-10.237-3.905-14.143 0l-40 40c-3.905 3.905-3.905 10.237 0 14.143 3.905 3.905 10.237 3.906 14.143 0zM188.927 77.071c3.905 3.905 10.237 3.905 14.143 0 3.905-3.905 3.905-10.237 0-14.143l-40-40c-3.905-3.905-10.237-3.905-14.143 0s-3.905 10.237 0 14.143l40 40z"/></svg>