<svg xmlns="http://www.w3.org/2000/svg" viewBox="0 0 512 512" fill="#4c5467"><path d="M206 216c0 27.57 22.43 50 50 50 16.542 0 30 13.458 30 30s-13.458 30-30 30-30-13.458-30-30c0-5.523-4.477-10-10-10s-10 4.477-10 10c0 24.146 17.205 44.348 40 48.994V366c0 5.523 4.478 10 10 10s10-4.477 10-10v-21.006c22.795-4.646 40-24.847 40-48.994 0-27.57-22.43-50-50-50-16.542 0-30-13.458-30-30s13.458-30 30-30 30 13.458 30 30c0 5.523 4.478 10 10 10s10-4.477 10-10c0-24.146-17.205-44.348-40-48.994V146c0-5.523-4.478-10-10-10s-10 4.477-10 10v21.006c-22.795 4.646-40 24.848-40 48.994z"/><path d="M256 0C118.122 0 0 118.12 0 256c0 137.878 118.12 256 256 256 137.852 0 256-118.096 256-256C512 118.359 394.114 0 256 0zm0 492C130.28 492 20 381.72 20 256S130.28 20 256 20s236 110.28 236 236-110.28 236-236 236z"/><path d="M298.141 64.969c-5.371-1.274-10.764 2.045-12.04 7.419-1.276 5.373 2.046 10.764 7.419 12.04C372.467 103.173 432 176.934 432 256c0 93.757-82.243 176-176 176S80 349.757 80 256c0-79.066 59.533-152.826 138.479-171.572 5.374-1.276 8.695-6.667 7.419-12.04-1.276-5.374-6.665-8.696-12.04-7.419C126.91 85.615 60 166.892 60 256c0 104.2 91.099 196 196 196 104.2 0 196-91.099 196-196 0-89.031-66.838-170.368-153.859-191.031z"/><circle cx="256" cy="71" r="10"/></svg>