<svg xmlns="http://www.w3.org/2000/svg" viewBox="0 0 512 512" fill="#4c5467"><path d="M156 345.992c-5.52 0-10 4.48-10 10s4.48 10 10 10 10-4.48 10-10-4.48-10-10-10z"/><path d="M498.67 205.992h-38.683c-5.08-20.777-13.278-40.507-24.446-58.838l23.08-23.08a10 10 0 0 0 1.073-12.874 251.062 251.062 0 0 0-58.9-58.901 10.002 10.002 0 0 0-12.874 1.071l-23.083 23.075C346.491 65.277 326.763 57.083 306 52.006V13.322a9.998 9.998 0 0 0-8.341-9.861c-27.354-4.604-55.966-4.604-83.319 0a10 10 0 0 0-8.34 9.861v38.684c-20.779 5.08-40.505 13.275-58.839 24.445l-23.08-23.08a9.999 9.999 0 0 0-12.875-1.072 251.08 251.08 0 0 0-58.9 58.901 10 10 0 0 0 1.073 12.874l23.08 23.08c-11.168 18.33-19.366 38.06-24.446 58.838H13.33a10 10 0 0 0-9.861 8.34A251.691 251.691 0 0 0 0 255.992c0 13.97 1.167 27.986 3.469 41.66a10 10 0 0 0 9.861 8.34h38.684c5.079 20.77 13.275 40.497 24.447 58.838l-23.082 23.081a10 10 0 0 0-1.073 12.874 251.062 251.062 0 0 0 58.9 58.901 10 10 0 0 0 12.875-1.072l23.081-23.082c18.327 11.161 38.055 19.357 58.838 24.444v38.686a10 10 0 0 0 8.34 9.861 251.628 251.628 0 0 0 41.66 3.469c13.972 0 27.989-1.167 41.66-3.469a10 10 0 0 0 8.34-9.861v-38.686a207.643 207.643 0 0 0 58.839-24.443l23.08 23.081a10 10 0 0 0 12.875 1.072 251.062 251.062 0 0 0 58.9-58.901 10 10 0 0 0-1.073-12.874L435.54 364.83c11.171-18.342 19.368-38.068 24.447-58.838h38.683a10 10 0 0 0 9.861-8.34c2.302-13.671 3.469-27.688 3.469-41.66s-1.167-27.988-3.469-41.66a10 10 0 0 0-9.861-8.34zm-8.616 80H451.98a10 10 0 0 0-9.799 8.006c-4.855 23.854-14.181 46.297-27.716 66.708a9.999 9.999 0 0 0 1.263 12.598l22.658 22.657a230.934 230.934 0 0 1-42.418 42.418l-22.657-22.657a10.005 10.005 0 0 0-12.6-1.262c-20.374 13.518-42.818 22.842-66.71 27.714a10 10 0 0 0-8.002 9.799v38.073a232.988 232.988 0 0 1-60 0v-38.073a10 10 0 0 0-8.002-9.799c-23.877-4.869-46.322-14.193-66.711-27.715a9.997 9.997 0 0 0-12.598 1.263l-22.658 22.657a230.928 230.928 0 0 1-42.417-42.418l22.658-22.657a10.002 10.002 0 0 0 1.263-12.599c-13.535-20.409-22.86-42.853-27.715-66.707a10 10 0 0 0-9.799-8.006H21.946a232.296 232.296 0 0 1 0-60H60.02a10 10 0 0 0 9.799-8.006c4.858-23.868 14.183-46.312 27.714-66.704a10.001 10.001 0 0 0-1.261-12.601l-22.658-22.657a230.96 230.96 0 0 1 42.417-42.418l22.658 22.657a10 10 0 0 0 12.599 1.262c20.396-13.532 42.839-22.856 66.706-27.714A10 10 0 0 0 226 60.012V21.938a232.988 232.988 0 0 1 60 0v38.074a10 10 0 0 0 8.006 9.799c23.847 4.854 46.291 14.175 66.71 27.707a10.002 10.002 0 0 0 12.595-1.264l22.657-22.649a230.908 230.908 0 0 1 42.418 42.419l-22.657 22.657a10.001 10.001 0 0 0-1.262 12.6c13.532 20.395 22.856 42.838 27.715 66.705a10 10 0 0 0 9.799 8.006h38.073a232.273 232.273 0 0 1 0 60z"/><path d="M256 105.992c-82.71 0-150 67.29-150 150 0 25.137 6.367 50.024 18.414 71.972 2.658 4.842 8.737 6.613 13.578 3.955 4.842-2.657 6.612-8.736 3.955-13.578C131.514 299.334 126 277.774 126 255.992c0-71.683 58.318-130 130-130 71.683 0 130 58.317 130 130s-58.317 130-130 130c-21.788 0-43.347-5.517-62.345-15.954-4.84-2.657-10.92-.891-13.58 3.95-2.659 4.84-.891 10.92 3.95 13.579 21.941 12.054 46.83 18.425 71.975 18.425 82.71 0 150-67.29 150-150s-67.29-150-150-150z"/><path d="M366.5 256.102c0-60.654-49.346-110-110-110s-110 49.346-110 110 49.346 110 110 110 110-49.345 110-110zm-200 0c0-49.626 40.374-90 90-90s90 40.374 90 90-40.374 90-90 90-90-40.374-90-90z"/><path d="M267 315.392v-11.72c11.639-4.128 20-15.243 20-28.28 0-16.542-13.458-30-30-30-5.514 0-10-4.486-10-10s4.486-10 10-10c3.542 0 7.282 1.808 10.815 5.227 3.971 3.841 10.3 3.736 14.141-.232 3.84-3.969 3.736-10.3-.232-14.141-5.075-4.911-10.153-7.689-14.724-9.205v-11.648c0-5.522-4.478-10-10-10s-10 4.478-10 10v11.72c-11.639 4.128-20 15.243-20 28.28 0 16.542 13.458 30 30 30 5.514 0 10 4.486 10 10s-4.486 10-10 10c-4.272 0-8.885-2.687-12.985-7.564-3.555-4.229-9.863-4.774-14.09-1.22-4.228 3.554-4.773 9.862-1.219 14.089 5.346 6.36 11.632 10.791 18.294 13.025v11.671c0 5.522 4.478 10 10 10s10-4.479 10-10.002z"/></svg>