<svg xmlns="http://www.w3.org/2000/svg" viewBox="0 0 512 512" fill="#4c5467"><path d="M316 100c5.52 0 10-4.48 10-10s-4.48-10-10-10-10 4.48-10 10 4.48 10 10 10z"/><path d="M396 320c22.056 0 40-17.944 40-40V40c0-22.056-17.944-40-40-40s-40 17.944-40 40v6.852c-17.665-6.241-36.649-8.278-55.713-5.852-42.626 5.427-80.071 34.839-96.026 75.177L96.499 223.929C83.28 237.148 76 254.728 76 273.43V502c0 5.523 4.477 10 10 10h180c5.523 0 10-4.477 10-10v-65.073c16.649-6.943 30.913-18.254 41.553-33.021C329.621 387.158 336 367.394 336 346.75v-68.402a115.392 115.392 0 0 0 20-5.162V280c0 22.056 17.944 40 40 40zm0-20c-11.028 0-20-8.972-20-20v-16.12c16.264-9.451 29.88-22.34 40-37.492V280c0 11.028-8.972 20-20 20zm0-280c11.028 0 20 8.972 20 20v53.531c-10.076-15.152-23.655-28.026-40-37.461V40c0-11.028 8.972-20 20-20zm-93.188 40.84c20.411-2.596 40.688.881 58.635 10.053C395.096 88.105 416 122.252 416 160.01c0 39.231-22.967 72.772-54.601 89.086-22.837 11.802-48.78 13.588-71.319 7.527l2.989-2.99c21.803-21.79 18.921-57.905-6.361-76.105-19.521-14.073-47.833-11.103-65.859 6.911l-1.443 1.443c-3.414-12.817-4.28-26.339-2.466-39.804a95.892 95.892 0 0 1 5.071-20.362c.127-.294.24-.593.338-.896 13.015-34.315 44.541-59.406 80.463-63.98zm-1.485 331.374c-9.6 13.322-22.908 23.108-38.487 28.298A10.002 10.002 0 0 0 256 430v62H96V273.43c0-13.36 5.2-25.918 14.641-35.359l85.604-85.597c-1.021 16.884 1.451 33.674 7.258 49.32l-52.854 52.854c-3.905 3.905-3.905 10.237 0 14.143s10.237 3.905 14.143 0l57.52-57.52c.089-.09.177-.181.263-.274l12.414-12.414c11.163-11.155 28.369-13.233 40.029-4.828 15.772 11.354 16.597 33.055 3.911 45.733l-13.985 13.989-.06.06c-.151.151-29.927 29.937-44.992 45.028-7.904 7.919-10.699 19.36-7.291 29.871A69.533 69.533 0 0 1 216 350c0 20.048-8.659 39.184-23.755 52.501-4.142 3.653-4.538 9.973-.884 14.114 3.642 4.128 9.96 4.548 14.114.884C224.874 400.387 236 375.785 236 350c0-9.49-1.474-18.829-4.377-27.744-1.077-3.32-.147-6.984 2.425-9.561a99719.026 99719.026 0 0 1 40.154-40.188c13.291 4.928 27.478 7.468 41.799 7.484v66.76c-.001 16.419-5.075 32.141-14.674 45.463z"/><path d="M340.306 236.308c29.091-9.27 51.199-35.655 55.014-65.654 3.194-25.069-5.102-49.569-22.759-67.216a80.477 80.477 0 0 0-12.738-10.38c-4.617-3.029-10.816-1.739-13.846 2.878-3.029 4.619-1.74 10.818 2.879 13.846a60.505 60.505 0 0 1 9.565 7.801c13.247 13.239 19.464 31.661 17.059 50.546-2.852 22.429-19.428 42.17-41.246 49.123-5.262 1.677-8.168 7.302-6.492 12.564 1.68 5.273 7.314 8.165 12.564 6.492zM249.043 149.292c4.268 0 8.22-2.753 9.549-7.043 4.084-13.186 12.812-24.722 24.575-32.482 4.61-3.042 5.882-9.244 2.84-13.854-3.041-4.609-9.243-5.881-13.854-2.84-15.615 10.301-27.216 25.664-32.666 43.258-1.992 6.433 2.828 12.961 9.556 12.961z"/></svg>