<svg xmlns="http://www.w3.org/2000/svg" viewBox="0 0 512 512" fill="#4c5467"><path d="M256 81c5.38 0 9.77-4.26 9.99-9.59.01-.13.01-.27.01-.41 0-5.52-4.48-10-10-10s-10 4.48-10 10c0 .14 0 .28.01.41.22 5.33 4.61 9.59 9.99 9.59zM256 146c23.688 0 46.072 11.205 63.027 31.552 3.537 4.244 9.843 4.815 14.084 1.28 4.243-3.536 4.816-9.841 1.281-14.084C313.569 139.761 285.729 126 256 126c-54.779 0-96.28 45.738-107.047 100H136c-5.522 0-10 4.477-10 10s4.478 9.9 10 9.9h10.333A158.485 158.485 0 0 0 146 256c0 10.229 1 20.28 2.932 30H136c-5.522 0-10 4.477-10 10s4.478 10 10 10h18.391c15.96 45.371 54.278 80 101.609 80 29.729 0 57.569-13.761 78.393-38.748 3.535-4.243 2.962-10.548-1.281-14.084-4.239-3.534-10.547-2.963-14.084 1.28C302.072 354.795 279.688 366 256 366c-36.594 0-66.018-26.278-80.167-60H256c5.522 0 10-4.477 10-10s-4.478-10-10-10h-86.598A133.312 133.312 0 0 1 166 256c0-3.351.133-6.69.378-10H256c5.522 0 10-4.477 10-10s-4.478-10-10-10h-86.594c10.035-43.509 43.408-80 86.594-80z"/><path d="M256 512c137.515 0 256-117.721 256-256C512 118.479 394.266 0 256 0 118.203 0 0 118.051 0 256c0 137.521 117.734 256 256 256zm0-492c125.72 0 236 110.28 236 236S381.72 492 256 492 20 381.72 20 256 130.28 20 256 20z"/><path d="M256 452c104.2 0 196-91.099 196-196 0-89.035-66.843-170.37-153.861-191.032-5.374-1.276-10.764 2.045-12.04 7.419-1.275 5.374 2.046 10.764 7.419 12.04C372.466 103.172 432 176.933 432 256c0 93.757-82.243 176-176 176S80 349.757 80 256c0-79.067 59.534-152.828 138.482-171.573 5.373-1.276 8.694-6.666 7.419-12.04-1.276-5.375-6.668-8.696-12.04-7.419C126.911 85.614 60 166.893 60 256c0 104.2 91.099 196 196 196z"/></svg>