<svg xmlns="http://www.w3.org/2000/svg" viewBox="0 0 512 512" fill="#4c5467"><path d="M259.898 129.949C259.898 58.294 201.604 0 129.949 0S0 58.294 0 129.949s58.294 129.949 129.949 129.949 129.949-58.294 129.949-129.949zM129.949 239.906c-60.63 0-109.957-49.327-109.957-109.957S69.319 19.992 129.949 19.992s109.957 49.327 109.957 109.957-49.326 109.957-109.957 109.957zM382.051 252.102c-71.655 0-129.949 58.294-129.949 129.949S310.396 512 382.051 512 512 453.706 512 382.051s-58.294-129.949-129.949-129.949zm0 239.906c-60.63 0-109.957-49.327-109.957-109.957s49.327-109.957 109.957-109.957 109.957 49.327 109.957 109.957-49.327 109.957-109.957 109.957z"/><path d="M392.047 332.07c10.329 0 20.156 4.961 27.67 13.971 3.538 4.24 9.842 4.81 14.079 1.273 4.239-3.537 4.81-9.84 1.273-14.079-11.381-13.643-26.66-21.157-43.023-21.157-16.364 0-31.643 7.514-43.03 21.165-4.571 5.493-8.37 11.904-11.183 18.82h-15.76c-5.52 0-9.996 4.476-9.996 9.996 0 5.52 4.476 9.896 9.996 9.896h10.613a83.903 83.903 0 0 0-.617 10.096c0 3.369.215 6.704.617 9.996h-10.613c-5.52 0-9.996 4.476-9.996 9.996s4.476 9.996 9.996 9.996h15.761c2.815 6.92 6.613 13.331 11.189 18.828 11.381 13.643 26.66 21.157 43.023 21.157 16.364 0 31.643-7.514 43.023-21.157 3.536-4.239 2.966-10.543-1.273-14.079-4.238-3.535-10.541-2.967-14.079 1.273-7.514 9.009-17.341 13.971-27.67 13.971s-20.156-4.961-27.663-13.963a48.66 48.66 0 0 1-4.262-6.03h31.926c5.52 0 9.996-4.476 9.996-9.996s-4.476-9.996-9.996-9.996h-39.172a61.905 61.905 0 0 1 0-19.992h39.172c5.52 0 9.996-4.476 9.996-9.996 0-5.52-4.476-9.996-9.996-9.996H360.12a48.816 48.816 0 0 1 4.256-6.022c7.515-9.01 17.342-13.971 27.671-13.971zM131.149 119.443c-5.512 0-9.996-4.484-9.996-9.996 0-5.512 4.484-9.996 9.996-9.996 3.541 0 7.279 1.807 10.811 5.225 3.969 3.84 10.296 3.736 14.135-.232 3.839-3.967 3.735-10.296-.232-14.135-5.073-4.909-10.149-7.686-14.718-9.201V69.463c0-5.52-4.476-9.996-9.996-9.996-5.52 0-9.996 4.476-9.996 9.996v11.715c-11.634 4.126-19.992 15.237-19.992 28.269 0 16.536 13.453 29.988 29.988 29.988 5.512 0 9.996 4.484 9.996 9.996 0 5.512-4.484 9.996-9.996 9.996-4.27 0-8.882-2.686-12.98-7.561-3.553-4.227-9.859-4.772-14.083-1.22-4.226 3.553-4.771 9.857-1.22 14.084 5.344 6.358 11.627 10.787 18.287 13.02v11.665c0 5.52 4.476 9.996 9.996 9.996 5.52 0 9.996-4.476 9.996-9.996V177.7c11.634-4.126 19.992-15.237 19.992-28.269 0-16.535-13.453-29.988-29.988-29.988zM159.083 386.521a9.998 9.998 0 0 0-.944-10.468l-59.977-79.969a9.997 9.997 0 0 0-15.994 0l-59.977 79.969a9.996 9.996 0 0 0 7.997 15.994h30.369C65.679 459.048 121.836 512 190.127 512c5.52 0 9.996-4.476 9.996-9.996V462.02c0-5.52-4.476-9.996-9.996-9.996-35.189 0-64.396-26.112-69.261-59.977h29.276a9.995 9.995 0 0 0 8.941-5.526zm-48.926-14.466c-5.52 0-9.996 4.476-9.996 9.996 0 46.228 35.049 84.424 79.969 89.413v20.094c-55.966-5.064-99.961-52.245-99.961-109.507 0-5.52-4.476-9.996-9.996-9.996H50.18l39.984-53.312 39.984 53.312h-19.991zM353.118 125.68a9.998 9.998 0 0 0 .944 10.468l59.977 79.969a9.997 9.997 0 0 0 15.994 0l59.977-79.969a9.996 9.996 0 0 0-7.997-15.994h-30.369C446.522 53.153 390.365.201 322.074.201c-5.52 0-9.996 4.476-9.996 9.996v39.984c0 5.52 4.476 9.996 9.996 9.996 35.189 0 64.396 26.112 69.261 59.977h-29.277a9.99 9.99 0 0 0-8.94 5.526zm48.925 14.465c5.52 0 9.996-4.476 9.996-9.996 0-46.228-35.049-84.424-79.969-89.413V20.642c55.966 5.064 99.961 52.245 99.961 109.507 0 5.52 4.476 9.996 9.996 9.996h19.992l-39.984 53.312-39.984-53.312h19.992z"/></svg>