<svg xmlns="http://www.w3.org/2000/svg" viewBox="0 0 512 512" fill="#4c5467"><path d="M235.901 180.154c5.52 0 10-4.48 10-10s-4.48-10-10-10-10 4.48-10 10 4.48 10 10 10z"/><path d="M25.976 387.851L.255 499.601A9.997 9.997 0 0 0 10 511.844h492a10 10 0 0 0 9.745-12.243l-25.72-111.75a9.212 9.212 0 0 0-.168-.633c-3.838-12.785-15.387-21.375-28.737-21.375h-33.16L400.026 261.85c-2.667-11.628-14.339-22.007-28.905-22.007h-27.26c-3.539-14.552-20.306-83.572-23.863-98.112-2.853-11.711-14.4-21.888-28.877-21.888h-70.239c-14.409 0-26.003 10.125-28.877 21.887l-23.863 98.113h-27.26c-14.778 0-26.288 10.62-28.905 22.007L88.04 365.844H54.881c-14.778 0-26.288 10.62-28.905 22.007zm-3.412 103.993l22.816-99.135c1.356-4.118 5.141-6.865 9.501-6.865h76.239c4.36 0 8.145 2.748 9.501 6.866l22.816 99.134H22.564zM176 457.26l-15.975-69.409c-.174-.758-.4-1.322-.641-2.007h33.233c-.245.695-.467 1.249-.641 2.007L176 457.26zm12.564 34.584l22.816-99.135c1.356-4.118 5.141-6.865 9.501-6.865h70.239c4.36 0 8.145 2.748 9.501 6.866l22.816 99.134H188.564zM336 457.26l-15.975-69.409c-.174-.758-.4-1.322-.641-2.007h33.233c-.245.695-.467 1.249-.641 2.007L336 457.26zm130.621-64.55l22.816 99.134H348.564l22.816-99.135c1.356-4.118 5.141-6.865 9.501-6.865h76.239c4.361 0 8.145 2.748 9.501 6.866zm-86-126.001l22.816 99.135H268.563l22.817-99.134c1.355-4.118 5.14-6.866 9.501-6.866h70.239c4.361 0 8.145 2.748 9.501 6.865zM256 331.26l-15.975-69.409c-.174-.758-.4-1.322-.641-2.007h33.233c-.245.695-.467 1.249-.641 2.007L256 331.26zm-44.636-184.501c1.342-4.145 5.139-6.915 9.517-6.915h70.239c4.378 0 8.175 2.769 9.517 6.914l3.183 13.086h-27.919c-5.522 0-10 4.477-10 10s4.478 10 10 10h32.783l14.593 60H188.724l22.64-93.085zM131.38 266.71c1.356-4.118 5.141-6.866 9.501-6.866h70.239c4.361 0 8.146 2.748 9.501 6.866l22.816 99.134H108.563l22.817-99.134zM235.123 69.243l12.104 22.122a9.999 9.999 0 0 0 17.544 0l12.105-22.122 22.131-12.105a10 10 0 0 0 0-17.546l-22.13-12.105-12.105-22.13a10 10 0 0 0-17.546 0l-12.104 22.13-22.131 12.105a10 10 0 0 0 0 17.546l22.132 12.105zm12.166-25.616a9.996 9.996 0 0 0 3.975-3.975l4.736-8.66 4.737 8.66a10.002 10.002 0 0 0 3.975 3.975l8.66 4.737-8.66 4.736a10.001 10.001 0 0 0-3.974 3.973L256 65.732l-4.737-8.658a9.995 9.995 0 0 0-3.974-3.973l-8.66-4.736 8.66-4.738zM355.122 130.722l12.104 22.131a10 10 0 0 0 17.546 0l12.105-22.131 22.13-12.104a10 10 0 0 0 0-17.546l-22.13-12.104-12.105-22.131a10 10 0 0 0-17.546 0l-12.104 22.131-22.131 12.104a10 10 0 0 0 0 17.546l22.131 12.104zm12.167-25.614a9.996 9.996 0 0 0 3.975-3.975l4.736-8.66 4.737 8.66a10.002 10.002 0 0 0 3.975 3.975l8.659 4.736-8.659 4.736a9.996 9.996 0 0 0-3.975 3.975l-4.737 8.66-4.736-8.66a10.002 10.002 0 0 0-3.975-3.975l-8.66-4.736 8.66-4.736zM115.122 130.722l12.104 22.131a10 10 0 0 0 17.546 0l12.105-22.131 22.13-12.104a10 10 0 0 0 0-17.546l-22.13-12.104-12.105-22.131a10 10 0 0 0-17.546 0l-12.104 22.131-22.131 12.104a10 10 0 0 0 0 17.546l22.131 12.104zm12.167-25.614a9.996 9.996 0 0 0 3.975-3.975l4.736-8.66 4.737 8.66a10.002 10.002 0 0 0 3.975 3.975l8.659 4.736-8.659 4.736a9.996 9.996 0 0 0-3.975 3.975l-4.737 8.66-4.736-8.66a10.002 10.002 0 0 0-3.975-3.975l-8.66-4.736 8.66-4.736z"/></svg>