<svg xmlns="http://www.w3.org/2000/svg" viewBox="0 0 512 512" fill="#4c5467"><path d="M315.235 242.647l-.002-.002C346.672 222.734 366 187.378 366 150c0-44.492-26.844-84.351-66.917-101.215-5.087-2.147-10.954.242-13.098 5.332-2.146 5.089.242 10.953 5.332 13.098 3.698 1.561 8.209 3.916 11.222 5.776C302.738 73.205 346 96.482 346 150c0 50.076-41.126 90-90 90-49.626 0-90-40.374-90-90 0-33.913 19.898-67.755 54.662-82.775l.101-.043c5.07-2.188 7.407-8.073 5.219-13.145-2.189-5.07-8.071-7.405-13.145-5.219l-.098.043c-31.042 13.367-52.953 39.63-61.792 68.504h-.002C147.689 127.674 146 138.878 146 150c0 60.654 49.346 110 110 110 21.836 0 42.389-6.492 59.235-17.353z"/><path d="M257 159.29c5.514 0 10 4.486 10 10s-4.486 10-10 10c-4.272 0-8.885-2.687-12.985-7.564-3.553-4.229-9.863-4.774-14.089-1.22-4.228 3.554-4.774 9.861-1.22 14.089 5.346 6.36 11.632 10.791 18.294 13.025v11.67c0 5.522 4.478 10 10 10s10-4.478 10-10v-11.72c11.639-4.128 20-15.243 20-28.28 0-16.542-13.458-30-30-30-5.514 0-10-4.486-10-10s4.486-10 10-10c3.542 0 7.282 1.808 10.815 5.227a10.001 10.001 0 0 0 13.909-14.373c-5.075-4.911-10.153-7.689-14.724-9.205V89.29c0-5.522-4.478-10-10-10s-10 4.478-10 10v11.72c-11.639 4.128-20 15.243-20 28.28 0 16.542 13.458 30 30 30z"/><path d="M502 312h-60c-51.092 0-100.38 20.314-137.191 55.492-16.116 15.411-29.142 32.906-38.809 51.797v-119.63c78.065-5.164 140-70.31 140-149.659C406 67.29 338.71 0 256 0S106 67.29 106 150c0 79.349 61.935 144.494 140 149.659v119.649c-6.116-11.919-13.594-23.327-22.393-34.08-26.503-32.39-63.41-56.102-103.916-66.767A194.875 194.875 0 0 0 70 312H10c-5.576 0-10 4.581-10 10 0 62.84 31.024 121.538 82.991 157.019C114.596 500.595 151.599 512 190 512h132c51.123 0 98.906-20.253 134.353-55.649C492.237 420.453 512 372.74 512 322c0-.056-.008-.111-.008-.167-.086-5.5-4.61-9.833-9.992-9.833zm-30.601 20l-75.714 55.401 8.062-51.136A174.655 174.655 0 0 1 442 332h29.399zm-152.77 49.949a181.43 181.43 0 0 1 63.896-39.506l-9.73 61.706-105.455 77.162c4.823-37.231 22.607-71.934 51.289-99.362zM126 150c0-71.683 58.317-130 130-130s130 58.317 130 130-58.317 130-130 130-130-58.317-130-130zm118.661 331.314l-105.789-77.407-9.468-61.528c62.578 22.223 107.136 76.205 115.257 138.935zM108.228 336.26l7.842 50.962L40.601 332H70c12.831 0 25.658 1.439 38.228 4.26zm-86.965 6.373l134.285 98.257-65.094 18.925C51.866 431.9 26.968 389.362 21.263 342.633zm92.343 131.279l62.313-18.117L225.399 492H190c-26.795 0-52.825-6.204-76.394-18.088zM286.601 492l48.635-35.587 62.867 17.642C374.611 485.844 348.685 492 322 492h-35.399zm155.613-49.796a172.253 172.253 0 0 1-20.718 17.643l-65.739-18.448 135.006-98.785c-4.52 37.597-21.357 72.39-48.549 99.59z"/><circle cx="256" cy="50" r="10"/></svg>