<svg xmlns="http://www.w3.org/2000/svg" viewBox="0 0 512 512" fill="#4c5467"><path d="M180 80c-5.52 0-10 4.48-10 10 0 5.02 3.71 9.19 8.54 9.89.47.07.96.11 1.46.11 5.52 0 10-4.48 10-10 0-4.43-2.89-8.2-6.89-9.5-.98-.33-2.02-.5-3.11-.5z"/><path d="M502 0H10C4.477 0 0 4.477 0 10v240c0 5.523 4.477 9.9 10 9.9h51.303A70.987 70.987 0 0 0 60 273.43V502c0 5.523 4.477 10 10 10h186c5.522 0 10-4.477 10-10v-65.076c36.172-15.11 60-50.479 60-90.174V260h176c5.522 0 10-4.477 10-10V10c0-5.523-4.478-10-10-10zm-10 58.994C472.438 55.007 456.993 39.563 453.006 20H492v38.994zM432.726 20c4.399 30.609 28.666 54.875 59.274 59.274v101.451c-30.608 4.399-54.875 28.666-59.274 59.274H304.16C329.657 216.694 346 175.527 346 130c0-34.006-8.918-66.11-25.111-90.4-5.044-7.566-10.62-14.116-16.61-19.6h128.447zM189.854 61.535c4.818 2.702 10.913.985 13.613-3.833C216.899 33.742 236.047 20 256 20c17.918 0 35.053 10.901 48.248 30.694C318.275 71.734 326 99.899 326 130c0 25.213-5.665 49.897-15.951 69.504-3.644 6.945-7.806 13.154-12.356 18.499a50.141 50.141 0 0 0-.185-4.237c-1.306-14.45-8.888-27.659-20.8-36.238a47.345 47.345 0 0 0-4.354-2.791c8.644-5.406 14.146-14.991 14.146-25.446 0-16.542-13.458-30-30-30-5.514 0-10-4.486-10-10 0-4.486 3.041-8.338 7.173-9.573.748.177 1.524.282 2.327.282 1.008 0 1.98-.153 2.898-.43 2.794.618 5.669 2.284 8.415 4.943 3.966 3.842 10.298 3.742 14.14-.226 3.843-3.967 3.742-10.298-.226-14.141-5.251-5.086-10.505-7.901-15.227-9.384V70c0-5.523-4.478-10-10-10s-10 4.477-10 10v11.219c-11.349 4.304-19.5 15.349-19.5 28.071 0 16.542 13.458 30 30 30 5.514 0 10 4.486 10 10 0 4.19-2.643 7.968-6.576 9.401-5.141 1.871-11.118-.667-16.406-6.962-3.553-4.229-9.861-4.779-14.089-1.226-4.229 3.552-4.778 9.859-1.226 14.089a48.824 48.824 0 0 0 6.099 6.103c-8.707 2.492-16.88 7.171-23.455 13.745l-10.942 10.944C190.892 176.494 186 153.758 186 130v-.199c0-5.523-4.477-10-10-10s-10 4.477-10 10V130c0 29.321 6.735 57.47 19.044 80.248L155.296 240H79.274C74.875 209.391 50.609 185.125 20 180.726V79.274C50.609 74.875 74.875 50.509 79.274 19.9h128.49c-8.157 7.436-15.513 16.91-21.743 28.022-2.701 4.818-.985 10.912 3.833 13.613zM58.994 20C55.007 39.563 39.563 55.007 20 58.994V20h38.994zM20 201.006c19.563 3.987 35.007 19.431 38.994 38.994H20v-38.994zM306 346.75a77.646 77.646 0 0 1-53.161 73.763A10 10 0 0 0 246 430v62H80V273.43c0-4.577.63-9.171 1.848-13.53h56.028c-.538 3.098.381 6.499 2.774 8.892 3.905 3.905 10.237 3.905 14.142 0l70.199-70.21c10.703-10.703 27.943-13.536 40.026-4.826 15.099 10.873 16.53 31.261 5.357 44.17-.871.575 8.253-8.227-60.481 60.64-7.904 7.919-10.699 19.36-7.291 29.871A69.55 69.55 0 0 1 206 350c0 20.048-8.659 39.184-23.755 52.5-4.142 3.654-4.538 9.973-.884 14.115 3.642 4.129 9.961 4.548 14.114.884C214.874 400.387 226 375.785 226 350c0-9.49-1.474-18.829-4.377-27.744-1.077-3.32-.147-6.984 2.426-9.562A98836.93 98836.93 0 0 1 276.703 260H306v86.75zM453.006 240c3.987-19.563 19.431-35.007 38.994-38.994V240h-38.994z"/></svg>