<svg xmlns="http://www.w3.org/2000/svg" viewBox="0 0 512 512" fill="#4c5467"><path d="M256 120c-5.52 0-10 4.48-10 10s4.48 10 10 10 10-4.48 10-10-4.48-10-10-10z"/><path d="M4.929 238.619a9.995 9.995 0 0 0 10.63-.308c32.352-21.64 81.023-21.948 113.858-.906a9.951 9.951 0 0 0 6.692 2.584c.036 0 .072-.005.108-.005a9.965 9.965 0 0 0 5.752-1.673c31.487-21.063 71.764-21.98 104.03-2.783V462c0 27.624 22.377 50 50 50 27.57 0 50-22.43 50-50v-40c0-5.522-4.478-10-10-10s-10 4.478-10 10v40c0 16.542-13.458 30-30 30-16.571 0-30-13.429-30-30V235.528c32.265-19.198 72.543-18.279 104.029 2.784a9.988 9.988 0 0 0 5.561 1.688c.068 0 .135-.013.203-.015.033 0 .064.005.097.005a9.952 9.952 0 0 0 6.69-2.583c32.835-21.042 81.507-20.734 113.861.904a9.999 9.999 0 0 0 15.526-9.133C501.413 101.224 387.572 0 256 0 124.499 0 10.594 101.146.034 229.178a10.001 10.001 0 0 0 4.895 9.441zM266 212.903V170c0-5.522-4.478-10-10-10s-10 4.478-10 10v42.902a117.025 117.025 0 0 0-99.138-.219C153.32 111.541 195.338 30.488 246 20.952V90c0 5.522 4.478 10 10 10s10-4.478 10-10V20.952c50.662 9.536 92.68 90.59 99.137 191.731-31.478-14.619-67.704-14.54-99.137.22zm223.619-.896c-15.418-6.596-32.821-10.136-50.622-10.162h-.195c-18.941 0-37.439 3.992-53.585 11.404C381.51 150.45 362.32 72.314 318.085 28.46c86.734 23.945 156.272 96.169 171.534 183.547zM193.915 28.459c-44.244 43.863-63.424 121.981-67.133 184.789-32.288-14.821-71.886-15.152-104.402-1.241 15.263-87.378 84.802-159.602 171.535-183.548z"/><path d="M111 431.29c-4.273 0-8.885-2.687-12.986-7.564-3.554-4.229-9.863-4.774-14.089-1.22-4.228 3.554-4.773 9.862-1.219 14.089 5.346 6.36 11.632 10.791 18.294 13.025v11.67c0 5.522 4.477 10 10 10s10-4.478 10-10v-11.72c11.639-4.128 20-15.243 20-28.28 0-16.542-13.458-30-30-30-5.514 0-10-4.486-10-10s4.486-10 10-10c3.542 0 7.283 1.808 10.816 5.227 3.969 3.841 10.301 3.736 14.14-.232 3.84-3.97 3.736-10.3-.233-14.141-5.075-4.911-10.153-7.688-14.724-9.205V341.29c0-5.522-4.477-10-10-10s-10 4.478-10 10v11.72c-11.639 4.128-20 15.243-20 28.28 0 16.542 13.458 30 30 30 5.514 0 10 4.486 10 10s-4.485 10-9.999 10z"/><path d="M110 512c60.654 0 110-49.346 110-110s-49.346-110-110-110S0 341.346 0 402s49.346 110 110 110zm0-200c49.626 0 90 40.374 90 90s-40.374 90-90 90-90-40.374-90-90 40.374-90 90-90z"/></svg>