<svg xmlns="http://www.w3.org/2000/svg" viewBox="0 0 512 512" fill="#4c5467"><path d="M336 100c-5.52 0-10 4.48-10 10s4.48 10 10 10 10-4.48 10-10-4.48-10-10-10z"/><path d="M462 0H50C22.43 0 0 22.43 0 50s22.43 50 50 50h56v332H56c-5.523 0-10 4.478-10 10v20c0 27.57 22.43 50 50 50h260c27.57 0 50-22.43 50-50V100h56c27.57 0 50-22.43 50-50S489.57 0 462 0zM96 492c-16.542 0-30-13.458-30-30v-10h240v10a49.75 49.75 0 0 0 10.023 30H96zm290-30c0 16.542-13.458 30-30 30s-30-13.458-30-30v-20c0-5.522-4.477-10-10-10H126V60h260v402zm76-382h-56V60h36c5.523 0 10-4.478 10-10s-4.477-10-10-10H70c-5.523 0-10 4.478-10 10s4.477 10 10 10h36v20H50c-16.542 0-30-13.458-30-30s13.458-30 30-30h412c16.542 0 30 13.458 30 30s-13.458 30-30 30z"/><path d="M176 120h120c5.523 0 10-4.478 10-10s-4.477-10-10-10H176c-5.523 0-10 4.478-10 10s4.477 10 10 10zM336 160H176c-5.523 0-10 4.478-10 10s4.477 10 10 10h160c5.523 0 10-4.478 10-10s-4.477-10-10-10zM257 285.29c-5.514 0-10-4.486-10-10s4.486-10 10-10c3.542 0 7.283 1.808 10.816 5.227 3.97 3.841 10.3 3.736 14.14-.232 3.84-3.97 3.736-10.3-.233-14.141-5.075-4.911-10.153-7.688-14.724-9.205V235.29c0-5.522-4.477-10-10-10s-10 4.478-10 10v11.72c-11.639 4.128-20 15.243-20 28.28 0 16.542 13.458 30 30 30 5.514 0 10 4.486 10 10s-4.486 10-10 10c-4.273 0-8.885-2.687-12.986-7.564-3.554-4.229-9.862-4.773-14.089-1.22-4.228 3.554-4.773 9.862-1.219 14.089 5.346 6.36 11.632 10.791 18.294 13.025v11.67c0 5.522 4.477 10 10 10s10-4.478 10-10v-11.72c11.639-4.128 20-15.243 20-28.28.001-16.542-13.457-30-29.999-30z"/></svg>