<svg xmlns="http://www.w3.org/2000/svg" viewBox="0 0 512 512" fill="#4c5467"><path d="M336 452c-5.52 0-10 4.48-10 10s4.48 10 10 10 10-4.48 10-10-4.48-10-10-10z"/><path d="M508.255 202.206c-.026-.021-.048-.045-.075-.066L406 121.812V70.001c0-5.522-4.478-10-10-10h-64.379l-69.22-57.683a10 10 0 0 0-12.803 0L180.38 60H116c-5.522 0-10 4.478-10 10v51.811L3.819 202.14c-.026.021-.049.045-.075.066A10.076 10.076 0 0 0 0 210.001v272c0 8.226 3.437 16.185 9.436 21.841.048.045.098.086.146.131l.103.093A29.891 29.891 0 0 0 30 512h452c16.519 0 30-13.407 30-30V210a10.04 10.04 0 0 0-3.745-7.794zM492 479.766L338.763 341.833 492 229.708v250.058zM20 229.708l153.237 112.125L20 479.766V229.708zm169.728 124.191l60.367 44.171a9.993 9.993 0 0 0 11.81 0l60.367-44.171L475.697 492H36.303l153.425-138.101zm295.728-144.184L406 267.853V147.252l79.456 62.463zM256 23.017L300.38 60h-88.76L256 23.017zm130 56.984v202.487L256 377.61l-130-95.122V80.001h260zm-280 67.251v120.601l-79.456-58.139L106 147.252z"/><path d="M296 452H176c-5.522 0-10 4.478-10 10s4.478 10 10 10h120c5.522 0 10-4.478 10-10s-4.478-10-10-10zM256 239.29c-4.272 0-8.885-2.687-12.985-7.564-3.553-4.229-9.862-4.773-14.089-1.22-4.228 3.554-4.773 9.861-1.22 14.089 5.346 6.36 11.632 10.791 18.294 13.025v11.67c0 5.522 4.478 10 10 10s10-4.478 10-10v-11.72c11.639-4.128 20-15.243 20-28.28 0-16.542-13.458-30-30-30-5.514 0-10-4.486-10-10s4.486-10 10-10c3.542 0 7.282 1.808 10.815 5.227 3.971 3.84 10.3 3.737 14.141-.232 3.84-3.969 3.736-10.3-.232-14.141-5.075-4.911-10.153-7.689-14.724-9.205V149.29c0-5.522-4.478-10-10-10s-10 4.478-10 10v11.72c-11.639 4.128-20 15.243-20 28.28 0 16.542 13.458 30 30 30 5.514 0 10 4.486 10 10s-4.486 10-10 10z"/></svg>