<svg xmlns="http://www.w3.org/2000/svg" viewBox="0 0 512 512" fill="#4c5467"><path d="M210 220c5.52 0 10-4.48 10-10s-4.48-10-10-10-10 4.48-10 10 4.48 10 10 10z"/><path d="M502 292h-98.654C414.262 266.207 420 238.169 420 210 420 93.89 325.803 0 210 0 94.042 0 0 94.031 0 210c0 101.165 72.124 188.208 172 206.546V502c0 5.522 4.477 10 10 10h320c5.523 0 10-4.478 10-10V302c0-5.523-4.477-10-10-10zm-69.274 200h-50.072c3.702-4.123 7.169-8.844 10.349-14.144C405.253 457.438 412 430.498 412 402s-6.747-55.438-18.998-75.856c-3.18-5.3-6.647-10.021-10.349-14.144h50.072c4.399 30.609 28.666 54.875 59.274 59.274v61.451c-30.608 4.4-54.874 28.666-59.273 59.275zM192 432.726v-61.451c30.609-4.399 54.875-28.766 59.274-59.374h50.072c-3.702 4.123-7.169 8.944-10.349 14.244C278.747 346.562 272 373.502 272 402s6.747 55.438 18.998 75.856c3.18 5.3 6.647 10.021 10.349 14.144h-50.072c-4.4-30.609-28.666-54.875-59.275-59.274zM42.637 300c-13.249-24.605-20.876-51.979-22.35-80h59.875c.81 27.8 4.978 55.05 12.234 80H42.637zm0-180.1h49.759c-7.256 24.946-11.424 52.295-12.233 80.1H20.287c1.473-28.028 9.101-55.502 22.35-80.1zM100.169 220H170c5.523 0 10-4.477 10-10s-4.477-10-10-10h-69.831c.864-28.024 5.343-55.366 13.122-80H200v50c0 5.523 4.477 10 10 10s10-4.477 10-10v-50h86.709c7.779 24.632 12.258 51.975 13.122 80H250c-5.523 0-10 4.477-10 10s4.477 9.9 10 9.9h69.834c-.776 24.946-4.44 49.625-10.739 72.1H220v-42c0-5.523-4.477-10-10-10s-10 4.477-10 10v42h-18c-4.838 0-8.872 3.436-9.799 8h-58.909c-7.779-24.639-12.258-51.982-13.123-80zM299.42 100H220V20.828c31.518 5.123 60.708 34.2 79.42 79.172zM200 20.828V100h-79.42c18.711-44.971 47.901-74.049 79.42-79.172zM377.364 120c13.249 24.597 20.876 51.971 22.349 80h-59.875c-.809-27.806-4.977-55.055-12.233-80h49.759zm-146.37 192c-3.987 19.563-19.431 35.007-38.994 38.994V312h38.994zM172 320v68.085c-20.503-13.29-38.544-37.133-51.428-68.085H172zm120 82c0-48.785 22.897-90 50-90s50 41.215 50 90-22.897 90-50 90-50-41.215-50-90zm200-51.006c-19.563-3.987-35.007-19.431-38.994-38.994H492v38.994zM329.822 292c5.96-22.847 9.319-47.073 10.025-72.1h59.884c-1.281 25.178-7.407 49.433-18.288 72.1h-51.621zm35.09-192H320.94c-10.007-26.456-23.568-49.074-39.595-65.991 33.214 13.508 62.393 36.265 83.567 65.991zM138.655 34.009C122.627 50.926 109.066 73.545 99.06 100H55.088c21.173-29.726 50.353-52.483 83.567-65.991zM55.057 320h44.005c10.154 26.825 23.964 49.507 40.134 66.427-33.676-13.438-62.827-36.33-84.139-66.427zM192 453.006c19.563 3.987 35.007 19.431 38.994 38.994H192v-38.994zM453.006 492c3.987-19.563 19.431-35.007 38.994-38.994V492h-38.994z"/><path d="M373 421.29c0-16.542-13.458-30-30-30-5.514 0-10-4.486-10-10s4.486-10 10-10c3.542 0 7.283 1.807 10.816 5.227 3.969 3.84 10.3 3.736 14.14-.233 3.84-3.969 3.736-10.3-.233-14.14-5.075-4.911-10.153-7.688-14.724-9.205V341.29c0-5.523-4.477-10-10-10s-10 4.477-10 10v11.72c-11.639 4.128-20 15.243-20 28.28 0 16.542 13.458 30 30 30 5.514 0 10 4.486 10 10s-4.486 10-10 10c-4.272 0-8.884-2.687-12.986-7.565-3.554-4.227-9.861-4.774-14.089-1.219-4.228 3.554-4.773 9.862-1.219 14.089 5.346 6.359 11.632 10.79 18.294 13.024v11.671c0 5.523 4.477 10 10 10s10-4.477 10-10v-11.72c11.64-4.128 20.001-15.244 20.001-28.28z"/></svg>