<svg xmlns="http://www.w3.org/2000/svg" viewBox="0 0 512 512" fill="#4c5467"><path d="M257 155.29c-5.514 0-10-4.486-10-10s4.486-10 10-10c3.542 0 7.283 1.807 10.816 5.227 3.97 3.841 10.3 3.737 14.14-.233 3.84-3.969 3.736-10.3-.233-14.14-5.075-4.911-10.153-7.688-14.724-9.205V105.29c0-5.523-4.477-10-10-10s-10 4.477-10 10v11.72c-11.639 4.128-20 15.243-20 28.28 0 16.542 13.458 30 30 30 5.514 0 10 4.486 10 10s-4.486 10-10 10c-4.272 0-8.884-2.687-12.986-7.565-3.553-4.228-9.862-4.774-14.089-1.219-4.228 3.554-4.773 9.862-1.219 14.089 5.346 6.359 11.632 10.79 18.294 13.024v11.671c0 5.523 4.477 10 10 10s10-4.477 10-10v-11.72c11.639-4.128 20-15.243 20-28.28.001-16.542-13.457-30-29.999-30z"/><path d="M502 36H10C4.477 36 0 40.477 0 46v420c0 5.523 4.477 10 10 10h492c5.523 0 10-4.477 10-10V46c0-5.523-4.477-10-10-10zM206 296v40H20v-40h186zM20 276v-39.005c9.541 1.926 18.313 6.607 25.355 13.643 7.041 7.048 11.723 15.821 13.65 25.363H20V276zm0 80h186v40H20v-40zm187.753-110.696C193.725 224.263 186 196.099 186 166s7.725-58.263 21.753-79.304C220.949 66.901 238.083 56 256 56s35.051 10.901 48.247 30.696C318.275 107.737 326 135.901 326 166s-7.725 58.263-21.753 79.304C291.051 265.099 273.917 276 256 276s-35.051-10.901-48.247-30.696zM306 356h30c5.523 0 10-4.477 10-10s-4.477-10-10-10h-30v-40h186v40h-76c-5.523 0-10 4.477-10 10s4.477 10 10 10h76v40H306v-40zm186-80h-38.996c3.987-19.561 19.435-35.008 38.996-38.996V276zm0-220v38.996C472.439 91.008 456.992 75.561 453.004 56H492zm-59.274 0c4.399 30.609 28.666 54.875 59.274 59.274v101.451c-30.609 4.399-54.875 28.666-59.274 59.274H304.277c5.991-5.485 11.567-12.035 16.611-19.602 14.595-21.893 23.255-50.141 24.828-80.398H376c5.523 0 10-4.477 10-10s-4.477-10-10-10h-30.284c-1.572-30.258-10.233-58.505-24.828-80.398-5.044-7.567-10.621-14.117-16.611-19.602h128.449V56zm-353.439-.1h128.436c-5.991 5.485-11.567 12.135-16.611 19.702-14.595 21.893-23.255 50.141-24.828 80.398H136c-5.523 0-10 4.477-10 10s4.477 10 10 10h30.284c1.572 30.258 10.233 58.505 24.828 80.398 5.044 7.567 10.621 14.117 16.611 19.602H79.287c-2.119-14.898-8.955-28.66-19.789-39.505-10.839-10.829-24.6-17.663-39.498-19.782V115.287c14.898-2.119 28.66-8.955 39.505-19.79A69.798 69.798 0 0 0 79.287 55.9zM20 55.9h39.005a49.975 49.975 0 0 1-13.643 25.455C38.315 88.396 29.542 93.079 20 95.005V55.9zM20 416h186v40H20v-40zm206-120h60v160h-60V296zm80 160v-40h186v40H306z"/><path d="M376 336c5.52 0 10 4.48 10 10s-4.48 10-10 10-10-4.48-10-10 4.48-10 10-10z"/></svg>