<svg xmlns="http://www.w3.org/2000/svg" viewBox="0 0 512 512" fill="#4c5467"><path d="M396 372c-5.52 0-10 4.48-10 10s4.48 10 10 10 10-4.48 10-10-4.48-10-10-10z"/><path d="M507.905 181.929L446 136.633V30c0-5.522-4.477-10-10-10h-80c-5.523 0-10 4.478-10 10v33.463L261.905 1.929a10.003 10.003 0 0 0-11.81 0l-246 180A10 10 0 0 0 0 190v80c0 5.522 4.477 10 10 10h56v222c0 5.522 4.477 10 10 10h360c5.523 0 10-4.478 10-10V280h56c5.523 0 10-4.478 10-10v-80a10 10 0 0 0-4.095-8.071zM366 40h60v81.999l-60-43.902V40zm-40 452H186V312h140v180zm100 0h-80V302c0-5.522-4.477-10-10-10H176c-5.523 0-10 4.478-10 10v190H86V225L256 97.5 426 225v267zm66-232h-46v-40c0-3.147-1.482-6.111-4-8L262 77a10.002 10.002 0 0 0-12 0L70 212a10.002 10.002 0 0 0-4 8v40H20v-64.926L256 22.39l236 172.684V260z"/><path d="M256 160c-22.056 0-40 17.944-40 40s17.944 40 40 40 40-17.944 40-40-17.944-40-40-40zm0 60c-11.028 0-20-8.972-20-20s8.972-20 20-20 20 8.972 20 20-8.972 20-20 20zM257 431.29c-4.273 0-8.885-2.687-12.986-7.564-3.554-4.229-9.862-4.774-14.089-1.22-4.228 3.554-4.773 9.862-1.219 14.089 5.346 6.36 11.632 10.791 18.294 13.025v11.67c0 5.522 4.477 10 10 10s10-4.478 10-10v-11.72c11.639-4.128 20-15.243 20-28.28 0-16.542-13.458-30-30-30-5.514 0-10-4.486-10-10s4.486-10 10-10c3.542 0 7.283 1.808 10.816 5.227 3.97 3.841 10.3 3.736 14.14-.232 3.84-3.97 3.736-10.3-.233-14.141-5.075-4.911-10.153-7.688-14.724-9.205V341.29c0-5.522-4.477-10-10-10s-10 4.478-10 10v11.72c-11.639 4.128-20 15.243-20 28.28 0 16.542 13.458 30 30 30 5.514 0 10 4.486 10 10s-4.485 10-9.999 10zM396 412c-5.523 0-10 4.478-10 10v40c0 5.522 4.477 10 10 10s10-4.478 10-10v-40c0-5.523-4.477-10-10-10z"/></svg>