<svg xmlns="http://www.w3.org/2000/svg" viewBox="0 0 512 512" fill="#4c5467"><path d="M168.93 374.93c-3.91 3.9-3.91 10.24 0 14.14 3.9 3.91 10.24 3.91 14.14 0 3.91-3.9 3.91-10.24 0-14.14-3.9-3.91-10.24-3.91-14.14 0z"/><path d="M376 512c16.542 0 30-13.458 30-30V30c0-16.542-13.458-30-30-30H136c-16.542 0-30 13.458-30 30v452c0 16.542 13.458 30 30 30h240zM126 80h260v332H126V80zm10-60h240c5.514 0 10 4.486 10 10v30H126V30c0-5.514 4.486-10 10-10zm-10 462v-50h260v50c0 5.514-4.486 10-10 10H136c-5.514 0-10-4.486-10-10zM465.401 155.113c-4.24 3.539-4.808 9.845-1.269 14.085C482.104 190.726 492 218.001 492 246s-9.896 55.274-27.867 76.802c-3.539 4.24-2.972 10.546 1.269 14.085 4.238 3.539 10.546 2.971 14.085-1.269C500.453 310.502 512 278.675 512 246s-11.547-64.502-32.514-89.618c-3.538-4.24-9.845-4.808-14.085-1.269z"/><path d="M236 472h40c5.522 0 10-4.477 10-10s-4.478-10-10-10h-40c-5.522 0-10 4.477-10 10s4.478 10 10 10zM431.536 314.236c4.058 3.726 10.384 3.476 14.13-.602C462.647 295.14 472 271.12 472 246s-9.353-49.14-26.334-67.634c-3.736-4.067-10.063-4.338-14.13-.602-4.067 3.735-4.338 10.062-.603 14.129C444.519 206.688 452 225.903 452 246s-7.481 39.313-21.066 54.106c-3.736 4.068-3.465 10.394.602 14.13zM46.599 155.113c-4.238-3.539-10.546-2.973-14.085 1.269C11.547 181.498 0 213.325 0 246s11.547 64.502 32.514 89.618c3.539 4.24 9.847 4.807 14.085 1.269 4.24-3.539 4.808-9.845 1.269-14.085C29.896 301.274 20 273.999 20 246s9.896-55.274 27.867-76.802c3.539-4.24 2.972-10.546-1.268-14.085z"/><path d="M80.464 177.764c-4.07-3.737-10.395-3.466-14.13.602C49.353 196.86 40 220.88 40 246s9.353 49.14 26.334 67.634c3.74 4.072 10.067 4.334 14.13.602 4.067-3.735 4.338-10.062.603-14.129C67.481 285.313 60 266.097 60 246s7.481-39.313 21.066-54.106c3.736-4.068 3.465-10.394-.602-14.13zM257 245.29c-4.272 0-8.884-2.687-12.985-7.565-3.554-4.228-9.863-4.774-14.089-1.219-4.228 3.554-4.773 9.862-1.22 14.089 5.346 6.359 11.632 10.79 18.294 13.024v11.671c0 5.523 4.478 10 10 10s10-4.477 10-10v-11.72c11.639-4.128 20-15.243 20-28.28 0-16.542-13.458-30-30-30-5.514 0-10-4.486-10-10s4.486-10 10-10c3.542 0 7.282 1.807 10.815 5.227 3.97 3.841 10.3 3.736 14.141-.232 3.84-3.969 3.736-10.3-.232-14.141-5.075-4.911-10.153-7.689-14.724-9.205V155.29c0-5.523-4.478-10-10-10s-10 4.477-10 10v11.72c-11.639 4.128-20 15.243-20 28.28 0 16.542 13.458 30 30 30 5.514 0 10 4.486 10 10s-4.486 10-10 10zM336 372H216c-5.522 0-10 4.477-10 10s4.478 10 10 10h120c5.522 0 10-4.477 10-10s-4.478-10-10-10z"/><path d="M256 326c60.654 0 110-49.346 110-110s-49.346-110-110-110-110 49.346-110 110 49.346 110 110 110zm0-200c49.626 0 90 40.374 90 90s-40.374 90-90 90-90-40.374-90-90 40.374-90 90-90z"/></svg>