<svg xmlns="http://www.w3.org/2000/svg" viewBox="0 0 512 512" fill="#4c5467"><path d="M126 265.846c0-5.52-4.48-10-10-10s-10 4.48-10 10 4.48 10 10 10 10-4.48 10-10z"/><path d="M34.642 190.487c3.905-3.905 3.905-10.237 0-14.143-3.905-3.905-10.237-3.905-14.143 0C7.702 189.143 0 206.708 0 225.846c0 18.69 7.279 36.269 20.502 49.504 11.753 11.742 30.774 18.148 46.54 19.954 2.84 26.425 11.471 51.798 25.531 74.648 17.824 28.968 43.121 52.06 73.427 67.105v28.788c0 16.542 13.458 30 30 30h20c16.542 0 30-13.458 30-30v-10h40c6.584 0 13.276-.385 20-1.149v11.149c0 16.542 13.458 30 30 30h20c16.542 0 30-13.458 30-30v-40.373c32.362-21.666 56.824-53.124 69.727-89.627H482c16.542 0 30-13.458 30-30v-40c0-16.542-13.458-30-30-30h-20.626c-4.577-20.146-12.581-39.209-23.866-56.835l27.777-69.452A9.999 9.999 0 0 0 456 95.844c-26.531 0-51.441 11.647-68.461 31.597a178.854 178.854 0 0 0-42.044-21.433c.401-3.26.605-6.552.605-9.853 0-44.112-35.888-80-80-80s-80 35.888-80 80c0 3.74.27 7.47.787 11.161-66.198 24.062-115.78 83.717-120.496 156.563a184.86 184.86 0 0 0-.381 11.115c-12.349-2.005-24.921-7.35-31.365-13.787C25.201 251.756 20 239.197 20 225.846c0-13.177 5.138-25.856 14.642-35.359zM266.1 36.156c33.084 0 60 26.916 60 60 0 4.871-.583 9.71-1.73 14.381-6.058 24.621-27.002 42.778-52.215 45.309h-12.117c-24.743-2.476-45.593-20.24-51.949-44.322a60.23 60.23 0 0 1-1.989-15.368c0-33.084 26.916-60 60-60zM86.349 265.172c4.029-62.246 45.272-115.867 105.807-138.485 4.669 11.289 11.827 21.217 20.74 29.159H196c-5.523 0-10 4.477-10 10s4.477 10 10 10h140c5.523 0 10-4.477 10-10s-4.477-10-10-10h-16.631a79.891 79.891 0 0 0 21.171-30.36c15.379 5.621 29.782 13.576 42.904 23.721a9.99 9.99 0 0 0 7.713 1.96 9.994 9.994 0 0 0 6.702-4.292c10.121-15.05 25.441-25.403 42.682-29.305l-23.545 58.871a10.002 10.002 0 0 0 1.022 9.346c12.861 18.869 21.386 39.666 25.339 61.814a10 10 0 0 0 9.844 8.243H482c5.514 0 10 4.486 10 10v40c0 5.514-4.486 10-10 10h-33.5a10 10 0 0 0-9.559 7.063c-11.273 36.684-35.51 68.167-68.245 88.65a10 10 0 0 0-4.696 8.477v45.81c0 5.514-4.486 10-10 10h-20c-5.514 0-10-4.486-10-10v-22.71c0-6.217-5.626-10.938-11.757-9.845-9.499 1.695-19.001 2.555-28.243 2.555h-40c-2.946 0-6.095-.314-9.431-.504-5.764-.327-10.569 4.266-10.569 9.984v20.52c0 5.514-4.486 10-10 10h-20c-5.514 0-10-4.486-10-10v-35.11a10 10 0 0 0-5.875-9.11c-61.322-27.762-98.131-89.175-93.776-156.452z"/><path d="M188.365 403.395c5.037 2.282 10.96.04 13.235-4.984 2.278-5.031.047-10.957-4.984-13.235-34.426-15.59-59.016-45.381-67.465-81.734-1.25-5.379-6.625-8.729-12.004-7.477-5.379 1.25-8.727 6.625-7.477 12.004 9.869 42.466 38.553 77.248 78.695 95.426zM376 275.846c16.542 0 30-13.458 30-30s-13.458-30-30-30-30 13.458-30 30 13.458 30 30 30zm0-40c5.514 0 10 4.486 10 10s-4.486 10-10 10-10-4.486-10-10 4.486-10 10-10zM266 125.846c5.523 0 10-4.477 10-10v-40c0-5.523-4.477-10-10-10s-10 4.477-10 10v40c0 5.523 4.477 10 10 10z"/></svg>