<svg xmlns="http://www.w3.org/2000/svg" viewBox="0 0 512 512" fill="#4c5467"><path d="M303.492 355.053c-3.907 3.897-3.907 10.232 0 14.129 3.897 3.907 10.232 3.907 14.129 0 3.907-3.897 3.907-10.232 0-14.129-3.897-3.907-10.231-3.907-14.129 0z"/><path d="M103.941 303.547l133.056 188.469h-81.318c-5.518 0-9.992 4.475-9.992 9.992 0 5.518 4.475 9.992 9.992 9.992h199.844c5.518 0 9.992-4.475 9.992-9.992 0-5.518-4.474-9.992-9.992-9.992h-80.519L408.06 303.545c24.726-33.022 37.792-72.332 37.792-113.693C445.852 85.166 360.685 0 256 0S66.148 85.166 66.148 189.852c0 41.362 13.068 80.674 37.793 113.695zM256 19.984c93.665 0 169.867 76.202 169.867 169.867 0 37.052-11.718 72.262-33.884 101.82a9.113 9.113 0 0 0-.169.232L256 484.283 120.184 291.904a9.113 9.113 0 0 0-.169-.232c-22.166-29.559-33.883-64.767-33.883-101.82C86.133 96.187 162.335 19.984 256 19.984z"/><path d="M292.63 386.158c-4.414-3.311-10.678-2.416-13.989 1.998l-30.635 40.848c-3.31 4.415-2.416 10.679 1.998 13.989 4.389 3.291 10.658 2.443 13.989-1.998l30.635-40.848c3.312-4.414 2.417-10.678-1.998-13.989zM255.6 219.518c-4.269 0-8.877-2.685-12.975-7.559-3.55-4.225-9.854-4.769-14.078-1.218-4.225 3.551-4.769 9.854-1.219 14.078 5.342 6.354 11.623 10.782 18.28 13.014v11.662c0 5.519 4.475 9.992 9.992 9.992 5.518 0 9.992-4.474 9.992-9.992v-11.711c11.63-4.125 19.984-15.231 19.984-28.258 0-16.529-13.448-29.977-29.977-29.977-5.51 0-9.992-4.482-9.992-9.992s4.482-9.992 9.992-9.992c3.539 0 7.276 1.806 10.807 5.223 3.968 3.837 10.292 3.732 14.13-.232 3.837-3.966 3.733-10.292-.232-14.13-5.071-4.907-10.145-7.683-14.713-9.198v-11.64c0-5.519-4.474-9.992-9.992-9.992-5.518 0-9.992 4.474-9.992 9.992V141.3c-11.63 4.125-19.984 15.231-19.984 28.258 0 16.529 13.448 29.977 29.977 29.977 5.51 0 9.992 4.482 9.992 9.992 0 5.509-4.483 9.991-9.992 9.991z"/><path d="M255.6 320.15c71.627 0 129.898-58.272 129.898-129.899S327.227 60.353 255.6 60.353s-129.898 58.272-129.898 129.898S183.973 320.15 255.6 320.15zm0-239.813c60.607 0 109.914 49.307 109.914 109.914S316.207 300.165 255.6 300.165s-109.914-49.307-109.914-109.914S194.993 80.337 255.6 80.337z"/></svg>