<svg xmlns="http://www.w3.org/2000/svg" viewBox="0 0 512 512" fill="#4c5467"><path d="M226 80c5.52 0 10-4.48 10-10s-4.48-10-10-10-10 4.48-10 10 4.48 10 10 10z"/><path d="M326 60c5.523 0 10-4.478 10-10V40c0-22.097-17.898-40-40-40H126C98.43 0 76 22.43 76 50v30H46c-16.542 0-30 13.458-30 30v372c0 16.542 13.458 30 30 30h260c16.542 0 30-13.458 30-30v-36h150c5.523 0 10-4.478 10-10V216c0-5.522-4.477-10-10-10H336v-96c0-16.542-13.458-30-30-30h-30V60h50zm-10-20h-40c0-11.271 9.167-20 20-20 11.045 0 20 8.954 20 20zM96 50c0-16.542 13.458-30.1 30-30.1h135.348C257.923 25.838 256 32.792 256 40v80H96V50zm380 256H336v-40h140v40zM336 426V326h140v100H336zm140-180H336v-20h140v20zM306 100c5.514 0 10 4.486 10 10v372c0 5.514-4.486 10-10 10H46c-5.514 0-10-4.486-10-10V110c0-5.514 4.486-10 10-10h30v30c0 5.522 4.477 10 10 10h180c5.523 0 10-4.478 10-10v-30h30z"/><path d="M126 80h60c5.523 0 10-4.478 10-10s-4.477-10-10-10h-60c-5.523 0-10 4.478-10 10s4.477 10 10 10zM106 306H86c-5.523 0-10 4.478-10 10s4.477 10 10 10h20c5.523 0 10-4.478 10-10s-4.477-10-10-10zM186 306h-20c-5.523 0-10 4.478-10 10s4.477 10 10 10h20c5.523 0 10-4.478 10-10s-4.477-10-10-10zM266 306h-20c-5.523 0-10 4.478-10 10s4.477 10 10 10h20c5.523 0 10-4.478 10-10s-4.477-10-10-10zM106 366H86c-5.523 0-10 4.478-10 10s4.477 10 10 10h20c5.523 0 10-4.478 10-10s-4.477-10-10-10zM186 366h-20c-5.523 0-10 4.478-10 10s4.477 10 10 10h20c5.523 0 10-4.478 10-10s-4.477-10-10-10zM266 366h-20c-5.523 0-10 4.478-10 10s4.477 10 10 10h20c5.523 0 10-4.478 10-10s-4.477-10-10-10zM106 426H86c-5.523 0-10 4.478-10 10s4.477 10 10 10h20c5.523 0 10-4.478 10-10s-4.477-10-10-10zM186 426h-20c-5.523 0-10 4.478-10 10s4.477 10 10 10h20c5.523 0 10-4.478 10-10s-4.477-10-10-10zM266 426h-20c-5.523 0-10 4.478-10 10s4.477 10 10 10h20c5.523 0 10-4.478 10-10s-4.477-10-10-10zM446 366h-40c-5.523 0-10 4.478-10 10s4.477 10 10 10h40c5.523 0 10-4.478 10-10s-4.477-10-10-10zM266 186H86c-5.523 0-10 4.478-10 10v60c0 5.522 4.477 10 10 10h180c5.523 0 10-4.478 10-10v-60c0-5.522-4.477-10-10-10zm-10 60H96v-40h160v40z"/></svg>