<svg xmlns="http://www.w3.org/2000/svg" viewBox="0 0 512 512" fill="#4c5467"><path d="M212 90c0 5.52 4.48 10 10 10s10-4.48 10-10-4.48-10-10-10-10 4.48-10 10zM402 292c-60.654 0-110 49.346-110 110s49.346 110 110 110 110-49.346 110-110-49.346-110-110-110zm0 200c-49.626 0-90-40.374-90-90s40.374-90 90-90 90 40.374 90 90-40.374 90-90 90z"/><path d="M403 391.29c-5.514 0-10-4.486-10-10s4.486-10 10-10c3.542 0 7.282 1.808 10.815 5.227 3.97 3.84 10.3 3.737 14.141-.232 3.84-3.969 3.736-10.3-.232-14.141-5.075-4.911-10.153-7.689-14.724-9.205V341.29c0-5.522-4.478-10-10-10s-10 4.478-10 10v11.72c-11.639 4.128-20 15.243-20 28.28 0 16.542 13.458 30 30 30 5.514 0 10 4.486 10 10s-4.486 10-10 10c-4.272 0-8.885-2.687-12.985-7.564-3.554-4.229-9.862-4.773-14.089-1.22-4.228 3.554-4.773 9.861-1.22 14.089 5.346 6.36 11.632 10.791 18.294 13.025v11.67c0 5.522 4.478 10 10 10s10-4.478 10-10v-11.72c11.639-4.128 20-15.243 20-28.28 0-16.542-13.458-30-30-30zM310.816 134.719a10 10 0 0 0-.496-10.266l-80-120a9.998 9.998 0 0 0-16.64 0l-80 120A10 10 0 0 0 142 140h30v112H96c-5.522 0-10 4.478-10 10v50H10c-5.522 0-10 4.478-10 10v180c0 5.522 4.478 10 10 10h252c5.522 0 10-4.478 10-10V140h30a10 10 0 0 0 8.816-5.281zM20 332h66v160H20V332zm86-60h66v220h-66V272zm156-152c-5.522 0-10 4.478-10 10v362h-60V130c0-5.522-4.478-10-10-10h-21.314L222 28.027 283.314 120H262z"/><path d="M222 120c-5.522 0-10 4.478-10 10v60c0 5.522 4.478 10 10 10s10-4.478 10-10v-60c0-5.522-4.478-10-10-10z"/></svg>