<svg xmlns="http://www.w3.org/2000/svg" viewBox="0 0 512.001 512.001" fill="#4c5467"><path d="M250.974 20.067L221.3 1.52A9.999 9.999 0 0 0 206 10v15.5c-49.093 11.018-94.634 39.038-128.984 79.563C40.249 148.439 20 202.043 20 256c0 128.771 112.146 238.801 241.03 235.936l29.67 18.544A10 10 0 0 0 306 502v-15.48C409.874 463.195 492 364.992 492 256c0-127.359-110.794-238.7-241.026-235.933zM40 256c0-100.781 78.101-194.129 177.804-212.516.059-.011.115-.029.173-.041.068-.014.133-.033.2-.047A10.007 10.007 0 0 0 226 33.641v-5.598L277.132 60 242.49 81.651l-.091.057-16.809 10.506c-1.524-5.141-6.904-8.178-12.09-6.835C139.597 104.473 80 177.566 80 256c0 85.663 68.659 161.7 152.024 174.193L210.7 443.52a9.999 9.999 0 0 0 0 16.96l14.573 9.108C123.549 453.664 40 360.686 40 256zm372 0c0 63.342-45.64 125.626-106 147.394V402a9.998 9.998 0 1 0-15.3-8.48l-29.406 18.378c-1.758.06-3.526.101-5.294.101-83.103 0-156-72.897-156-156 0-63.343 45.638-125.625 106-147.391V110a9.998 9.998 0 1 0 15.3 8.48l29.403-18.377C335.863 97.33 412 171.439 412 256zM294.186 468.526A10 10 0 0 0 286 478.36v5.597L234.869 452l51.544-32.215a10.001 10.001 0 0 0 12.089 6.837C372.404 407.527 432 334.435 432 256c0-84.761-67.301-161.174-152.179-174.096L301.3 68.48a9.999 9.999 0 0 0 0-16.96l-14.464-9.04C391.604 58.982 472 152.825 472 256c0 100.778-78.105 194.131-177.814 212.526z"/><path d="M257 285.29c-4.272 0-8.884-2.687-12.986-7.565-3.553-4.228-9.862-4.774-14.089-1.219-4.228 3.554-4.773 9.862-1.219 14.089 5.346 6.359 11.632 10.79 18.294 13.024v11.671c0 5.523 4.477 10 10 10s10-4.477 10-10v-11.72c11.639-4.128 20-15.243 20-28.28 0-16.542-13.458-30-30-30-5.514 0-10-4.486-10-10s4.486-10 10-10c3.542 0 7.283 1.807 10.816 5.227 3.97 3.841 10.3 3.737 14.14-.233 3.84-3.969 3.736-10.3-.233-14.14-5.075-4.911-10.153-7.688-14.724-9.205V195.29c0-5.523-4.477-10-10-10s-10 4.477-10 10v11.72c-11.639 4.128-20 15.243-20 28.28 0 16.542 13.458 30 30 30 5.514 0 10 4.486 10 10s-4.485 10-9.999 10z"/><path d="M146 256c0 60.654 49.346 110 110 110s110-49.346 110-110-49.346-110-110-110-110 49.346-110 110zm110-90c49.626 0 90 40.374 90 90s-40.374 90-90 90-90-40.374-90-90 40.374-90 90-90z"/></svg>