<svg xmlns="http://www.w3.org/2000/svg" viewBox="0 0 512.001 512.001" fill="#4c5467"><path d="M256 60c5.38 0 9.77-4.25 9.99-9.58.01-.14.01-.28.01-.42 0-5.52-4.48-10-10-10s-10 4.48-10 10c0 .14 0 .28.01.42.22 5.33 4.61 9.58 9.99 9.58z"/><path d="M151.668 511.013a9.997 9.997 0 0 0 10.579-1.204L256 434.807l93.753 75.002A10 10 0 0 0 366 502V299.519c38.194-32.448 60-79.377 60-129.519C426 76.262 349.739 0 256 0S86 76.262 86 170c0 50.142 21.806 97.071 60 129.518V502a10 10 0 0 0 5.668 9.013zM166 314.152a169.46 169.46 0 0 0 20 10.753v140.289l-20 16V314.152zm83.753 100.039L206 449.194V332.489c16.141 4.982 32.899 7.511 50 7.511s33.859-2.53 50-7.511v116.705l-43.753-35.002a10 10 0 0 0-12.494-.001zM326 465.193V324.905a169.46 169.46 0 0 0 20-10.753v167.042l-20-16.001zM106 170c0-82.71 67.29-150 150-150s150 67.29 150 150c0 45.66-20.506 88.309-56.261 117.013C323.439 308.132 290.717 320 256 320c-82.228 0-150-66.75-150-150z"/><path d="M256 300c71.502 0 130-58.097 130-130 0-55.223-35.065-104.564-87.256-122.781-5.215-1.822-10.917.932-12.737 6.146-1.82 5.215.932 10.917 6.146 12.737C336.324 81.519 366 123.272 366 170c0 60.45-49.15 110-110 110-60.406 0-110-49.125-110-110 0-46.728 29.677-88.481 73.847-103.898 5.214-1.82 7.966-7.522 6.146-12.737-1.82-5.214-7.521-7.967-12.737-6.146C161.066 65.436 126 114.777 126 170c0 72.121 58.75 130 130 130z"/><path d="M257 179.29c5.514 0 10 4.486 10 10s-4.486 10-10 10c-4.273 0-8.885-2.687-12.986-7.564-3.553-4.228-9.862-4.774-14.089-1.22-4.228 3.554-4.773 9.861-1.219 14.089 5.346 6.36 11.632 10.791 18.294 13.025v11.67c0 5.522 4.477 10 10 10s10-4.478 10-10v-11.72c11.639-4.128 20-15.243 20-28.28 0-16.542-13.458-30-30-30-5.514 0-10-4.486-10-10s4.486-10 10-10c3.542 0 7.283 1.808 10.816 5.227 3.97 3.841 10.3 3.736 14.14-.232 3.84-3.97 3.736-10.301-.233-14.141-5.075-4.911-10.153-7.688-14.724-9.205V109.29c0-5.522-4.477-10-10-10s-10 4.478-10 10v11.72c-11.639 4.128-20 15.243-20 28.28.001 16.542 13.459 30 30.001 30z"/></svg>