<svg xmlns="http://www.w3.org/2000/svg" viewBox="0 0 512 512" fill="#4c5467"><path d="M256 81c5.38 0 9.77-4.26 9.99-9.59.01-.13.01-.27.01-.41 0-5.52-4.48-10-10-10s-10 4.48-10 10c0 .14 0 .28.01.41.22 5.33 4.61 9.59 9.99 9.59zM286 266c33.146 0 60-26.849 60-60 0-33.084-26.916-60-60-60h-90c-5.522 0-10 4.477-10 10v90h-10c-5.522 0-10 4.477-10 10s4.478 10 10 10h10v40h-10c-5.522 0-10 4.477-10 10s4.478 10 10 10h10v50c0 5.523 4.478 10 10 10s10-4.477 10-10v-50h70c5.522 0 10-4.477 10-10s-4.478-10-10-10h-70v-40h80zm-80-100h80c22.056 0 40 17.944 40 40 0 22.091-17.904 40-40 40h-80v-80z"/><path d="M256 512c137.852 0 256-118.096 256-256C512 118.359 394.114 0 256 0 118.148 0 0 118.096 0 256c0 137.839 118.096 256 256 256zm0-492c125.72 0 236 110.28 236 236S381.72 492 256 492 20 381.72 20 256 130.28 20 256 20z"/><path d="M256 452c104.2 0 196-91.099 196-196 0-89.035-66.843-170.37-153.861-191.032-5.374-1.277-10.764 2.045-12.04 7.419-1.275 5.374 2.046 10.764 7.419 12.04C372.466 103.172 432 176.933 432 256c0 93.757-82.243 176-176 176S80 349.757 80 256c0-79.067 59.534-152.828 138.482-171.573 5.373-1.276 8.694-6.666 7.419-12.04-1.276-5.375-6.668-8.697-12.04-7.419C126.911 85.614 60 166.893 60 256c0 104.2 91.099 196 196 196z"/></svg>