<svg xmlns="http://www.w3.org/2000/svg" viewBox="0 0 512 512" fill="#4c5467"><path d="M236 292c-5.52 0-10 4.48-10 10s4.48 10 10 10 10-4.48 10-10-4.48-10-10-10z"/><path d="M482 0H30C13.458 0 0 13.458 0 30v412c0 16.542 13.458 30 30 30h10v30c0 5.523 4.477 10 10 10h60a10 10 0 0 0 8.944-5.528L136.18 472h239.639l17.236 34.472A10.002 10.002 0 0 0 402 512h60c5.523 0 10-4.477 10-10v-30h10c16.542 0 30-13.458 30-30V30c0-16.542-13.458-30-30-30zM326 80h106v312H326V80zm-20 372h-20V20h20v432zM70 120c5.521 0 10 4.478 10 10v20c0 5.514-4.486 10-10 10s-10-4.486-10-10v-20c0-5.514 4.486-10 10-10zm0 192c5.521 0 10 4.478 10 10v20c0 5.514-4.486 10-10 10s-10-4.486-10-10v-20c0-5.514 4.486-10 10-10zm10 58.28c11.639-4.128 20-15.243 20-28.28v-20c0-13.327-8.608-24.278-20-28.297V178.28c11.639-4.128 20-15.243 20-28.28v-20c0-13.327-8.608-24.278-20-28.297v-24.2l186-54.175v425.344L80 394.497V370.28zM103.82 492H60v-20h53.82l-10 20zM30 452c-5.514 0-10-4.486-10-10V30c0-5.514 4.486-10 10-10h175.907L67.204 60.399A10 10 0 0 0 60 70v31.72c-11.639 4.128-20 15.243-20 28.28v20c0 13.036 8.361 24.152 20 28.28v115.44c-11.639 4.128-20 15.243-20 28.28v20c0 13.036 8.361 24.152 20 28.28V402a10 10 0 0 0 7.204 9.601L205.907 452H30zm422 40h-43.82l-10-20H452v20zm40-50c0 5.514-4.486 10-10 10H326v-40h116c5.523 0 10-4.477 10-10V70c0-5.523-4.477-10-10-10H326V20h156c5.514 0 10 4.486 10 10v412z"/><path d="M236 140c-5.523 0-10 4.477-10 10v112c0 5.523 4.477 10 10 10s10-4.477 10-10V150c0-5.523-4.477-10-10-10z"/></svg>