<svg xmlns="http://www.w3.org/2000/svg" viewBox="0 0 512 512" fill="#4c5467"><path d="M176 472c5.52 0 10-4.48 10-10s-4.48-10-10-10-10 4.48-10 10 4.48 10 10 10z"/><path d="M66 482c0 16.542 13.458 30 30 30h320c16.542 0 30-13.458 30-30V222c0-16.542-13.458-30-30-30h-10v-42C406 67.29 338.71 0 256 0S106 67.29 106 150v42H96c-16.542 0-30 13.458-30 30v260zm60-110H86v-40h40v40zm-40 20h40v40H86v-40zm40-80H86v-40h40v40zm260 20h40v40h-40v-40zm40-20h-40v-40h40v40zm-40 80h40v40h-40v-40zM126 150c0-71.682 58.318-130 130-130s130 58.318 130 130v42h-40v-42c0-49.626-40.374-90-90-90s-90 40.374-90 90v42h-40v-42zm60 42v-42c0-38.598 31.402-70 70-70s70 31.402 70 70v42H186zm-90 20h320c5.514 0 10 4.486 10 10v30h-50c-5.523 0-10 4.477-10 10v180c0 5.523 4.477 10 10 10h50v30c0 5.514-4.486 10-10 10H96c-5.514 0-10-4.486-10-10v-30h50c5.523 0 10-4.477 10-10V262c0-5.523-4.477-10-10-10H86v-30c0-5.514 4.486-10 10-10z"/><path d="M215.99 471H336c5.523 0 10-4.477 10-10s-4.477-10-10-10H215.99c-5.523 0-10 4.477-10 10s4.477 10 10 10zM256 371.29c-4.272 0-8.884-2.687-12.986-7.565-3.554-4.227-9.862-4.774-14.089-1.219-4.228 3.554-4.773 9.862-1.219 14.089 5.346 6.359 11.632 10.79 18.294 13.024v11.671c0 5.523 4.477 10 10 10s10-4.477 10-10v-11.72c11.639-4.128 20-15.243 20-28.28 0-16.542-13.458-30-30-30-5.514 0-10-4.486-10-10s4.486-10 10-10c3.542 0 7.283 1.807 10.816 5.227 3.97 3.841 10.3 3.737 14.14-.233 3.84-3.969 3.736-10.3-.233-14.14-5.075-4.911-10.153-7.688-14.724-9.205V281.29c0-5.523-4.477-10-10-10s-10 4.477-10 10v11.72c-11.639 4.128-20 15.243-20 28.28 0 16.542 13.458 30 30 30 5.514 0 10 4.486 10 10s-4.485 10-9.999 10z"/></svg>