<svg xmlns="http://www.w3.org/2000/svg" viewBox="0 0 512 512" fill="#4c5467"><path d="M112.035 252.795c-3.897 3.887-3.897 10.206 0 14.093 3.887 3.897 10.206 3.897 14.093 0 3.897-3.887 3.897-10.206 0-14.093-3.887-3.897-10.206-3.897-14.093 0z"/><path d="M158.521 43.016l-.104.021C89.636 57.751 40.056 118.919 40.056 189.367c0 82.435 67.066 149.5 149.5 149.5s149.5-67.066 149.5-149.5c0-94.566-86.547-165.421-180.535-146.351zm31.035 275.918c-71.444 0-129.567-58.124-129.567-129.567 0-60.759 43.127-114.089 102.549-126.826 82.538-16.712 156.585 45.856 156.585 126.826 0 71.443-58.124 129.567-129.567 129.567z"/><path d="M399.485 328.83c-3.891-3.892-10.203-3.892-14.095 0l-7.044 7.045-35.486-35.487c23.311-32.154 36.064-71.231 36.064-111.021C378.923 84.95 293.974 0 189.556 0S.189 84.95.189 189.367s84.949 189.367 189.367 189.367c39.791 0 78.868-12.753 111.02-36.065l35.487 35.487-7.045 7.045c-3.892 3.892-3.892 10.203 0 14.095l98.11 98.11c21.582 21.594 57.601 19.01 75.852-6.34 14.025-19.456 11.065-47.674-6.889-65.64l-96.606-96.596zM20.122 189.367c0-93.426 76.008-169.434 169.434-169.434S358.99 95.941 358.99 189.367c0 93.313-75.892 169.434-169.434 169.434-93.426 0-169.434-76.008-169.434-169.434zM316.158 330.06a190.555 190.555 0 0 0 14.091-14.09l34.001 34.001-14.091 14.091-34.001-34.002zm170.65 149.356a29.9 29.9 0 0 1-45.581 3.898l-91.066-91.065 42.278-42.277 89.557 89.548c11.118 11.126 13.188 28.275 4.812 39.896z"/><path d="M99.856 189.367c0-49.461 40.24-89.7 89.7-89.7 5.504 0 9.967-4.462 9.967-9.967s-4.463-9.967-9.967-9.967c-60.452 0-109.634 49.182-109.634 109.634 0 14.138 2.669 27.915 7.931 40.947a9.969 9.969 0 0 0 9.244 6.237 9.913 9.913 0 0 0 3.729-.728c5.104-2.061 7.572-7.87 5.51-12.974-4.3-10.648-6.48-21.913-6.48-33.482zM189.556 178.693c-5.496 0-9.967-4.471-9.967-9.967s4.471-9.967 9.967-9.967c3.53 0 7.258 1.801 10.779 5.21 3.958 3.827 10.266 3.723 14.094-.231 3.827-3.956 3.724-10.266-.231-14.094-5.058-4.895-10.119-7.663-14.675-9.174v-11.61c0-5.505-4.463-9.967-9.967-9.967-5.504 0-9.967 4.462-9.967 9.967v11.681c-11.6 4.114-19.933 15.192-19.933 28.186 0 16.487 13.413 29.9 29.9 29.9 5.496 0 9.967 4.471 9.967 9.967s-4.471 9.967-9.967 9.967c-4.258 0-8.854-2.678-12.942-7.54-3.541-4.214-9.83-4.757-14.042-1.215-4.214 3.542-4.757 9.829-1.216 14.042 5.328 6.338 11.593 10.754 18.233 12.981v11.632c0 5.505 4.463 9.967 9.967 9.967 5.504 0 9.967-4.462 9.967-9.967V236.78c11.6-4.114 19.933-15.192 19.933-28.186 0-16.488-13.413-29.901-29.9-29.901z"/></svg>