<svg xmlns="http://www.w3.org/2000/svg" viewBox="0 0 511.999 511.999" fill="#4c5467"><path d="M115.9 205.71h.1c5.47-.05 9.9-4.51 9.9-10s-4.43-9.95-9.9-10h-.1c-5.52 0-10 4.48-10 10s4.48 10 10 10z"/><path d="M217.108 487.23c10.982 7.489 22.338 15.234 33.079 22.907a9.99 9.99 0 0 0 5.813 1.862 9.988 9.988 0 0 0 5.812-1.862c11.347-8.105 22.745-15.999 33.769-23.633 44.896-31.09 87.302-60.456 118.562-98.553C449.522 344.835 466 296.356 466 235.39V70c0-5.2-3.985-9.532-9.168-9.966l-25.99-2.17c-59.938-4.996-118.565-24.48-169.541-56.344a10.002 10.002 0 0 0-10.602 0 379.552 379.552 0 0 1-81.401 38.299 380.441 380.441 0 0 1-88.14 18.046l-25.99 2.169A10.002 10.002 0 0 0 46 70v165.39c0 129.765 80.314 189.917 171.108 251.84zM65.9 79.2l16.922-1.405a400.459 400.459 0 0 0 92.782-18.996A399.77 399.77 0 0 0 256 21.736c52.41 31.616 112.15 50.972 173.178 56.06L446 79.2v156.19c0 122.624-71.404 172.071-161.805 234.673-9.212 6.379-18.685 12.938-28.204 19.675-9.123-6.419-18.497-12.813-27.614-19.03C148.548 416.262 65.9 359.963 65.9 235.39V79.2z"/><path d="M250.585 436.769a9.98 9.98 0 0 0 5.395 1.581 9.99 9.99 0 0 0 5.806-1.857c57.049-40.665 92.008-68.052 113.343-96.273 23.168-30.647 28.947-61.002 30.762-100.045.007-.151.011-.304.011-.455l.1-115.47a10 10 0 0 0-8.518-9.898c-47.797-7.163-93.856-22.054-136.897-44.258a10 10 0 0 0-9.17 0c-43.044 22.206-89.104 37.097-136.896 44.258a10 10 0 0 0-8.518 9.89v31.47c0 5.522 4.477 10 10 10s9.9-4.478 9.9-10v-22.938a460.8 460.8 0 0 0 130.1-42.572 460.788 460.788 0 0 0 130.092 42.57L386 239.473c-3.485 74.289-20.908 98.443-130.312 176.796-73.272-47.41-126.436-92.936-129.575-180.914-.196-5.52-4.813-9.813-10.349-9.639-5.52.197-9.834 4.83-9.638 10.35.042 1.178.078 1.985.127 3.037h-.001c4.838 100.223 71.033 150.689 144.333 197.666z"/><path d="M256.9 265c-4.272 0-8.885-2.687-12.985-7.564-3.555-4.229-9.862-4.774-14.09-1.22s-4.773 9.861-1.219 14.089c5.346 6.36 11.632 10.791 18.294 13.025V295c0 5.522 4.478 10 10 10s10-4.478 10-10v-11.72c11.639-4.128 20-15.243 20-28.28 0-16.542-13.458-30-30-30-5.514 0-10-4.486-10-10s4.486-10 10-10c3.542 0 7.282 1.808 10.815 5.227 3.971 3.841 10.3 3.736 14.141-.232 3.84-3.969 3.736-10.3-.232-14.141-5.075-4.911-10.153-7.689-14.724-9.205V175c0-5.522-4.478-10-10-10s-10 4.478-10 10v11.72c-11.639 4.128-20 15.243-20 28.28 0 16.542 13.458 30 30 30 5.514 0 10 4.486 10 10s-4.486 10-10 10z"/></svg>