<svg xmlns="http://www.w3.org/2000/svg" viewBox="0 0 512 512" fill="#4c5467"><path d="M285.997 360.001c-5.52 0-10 4.48-10 10s4.48 10 10 10 10-4.48 10-10-4.48-10-10-10z"/><path d="M415.976 187.199C414.468 81.606 327.042-2.937 220.505.078 121.514 2.883 34.651 92.932 36.02 192.639c.361 26.663 6.181 52.403 17.299 76.504 25.53 55.324 42.68 159.619 42.68 222.317V502c0 5.522 4.477 10 10 10h179.999c5.523 0 10-4.478 10-10v-71.999c0-5.514 4.486-10 10-10h79.999c16.542 0 30-13.458 30-30v-89.999h50a10 10 0 0 0 8.575-15.144l-58.596-97.659zm-9.98 92.803c-5.523 0-10 4.478-10 10v99.999c0 5.514-4.486 10-10 10h-79.999c-16.542 0-30 13.458-30 30v62H115.999v-.54c0-64.819-17.889-172.988-44.52-230.696-9.937-21.54-15.138-44.553-15.461-68.398-1.225-89.26 75.903-169.771 165.052-172.297 96.019-2.705 174.927 74.109 174.927 169.933 0 1.813.493 3.591 1.425 5.145l50.913 84.854h-42.339z"/><path d="M225.998 80.004c-60.654 0-109.999 49.346-109.999 109.999s49.346 109.999 109.999 109.999 109.999-49.346 109.999-109.999S286.652 80.004 225.998 80.004zm0 199.998c-49.626 0-89.999-40.374-89.999-89.999s40.374-89.999 89.999-89.999 89.999 40.374 89.999 89.999-40.374 89.999-89.999 89.999z"/><path d="M226.998 179.293c-5.514 0-10-4.486-10-10s4.486-10 10-10c3.542 0 7.283 1.808 10.816 5.227 3.969 3.841 10.3 3.736 14.14-.232 3.84-3.97 3.736-10.3-.233-14.141-5.075-4.911-10.153-7.688-14.724-9.205v-11.648c0-5.522-4.477-10-10-10s-10 4.478-10 10v11.72c-11.639 4.128-20 15.243-20 28.28 0 16.542 13.458 30 30 30 5.514 0 10 4.486 10 10s-4.486 10-10 10c-4.273 0-8.885-2.687-12.986-7.564-3.554-4.229-9.863-4.774-14.089-1.22-4.228 3.554-4.773 9.862-1.219 14.089 5.346 6.36 11.632 10.791 18.294 13.025v11.67c0 5.522 4.477 10 10 10s10-4.478 10-10v-11.72c11.639-4.128 20-15.243 20-28.28 0-16.543-13.457-30.001-29.999-30.001zM365.997 360.001h-40c-5.523 0-10 4.478-10 10s4.477 10 10 10h40c5.523 0 10-4.478 10-10s-4.477-10-10-10z"/></svg>