<svg xmlns="http://www.w3.org/2000/svg" viewBox="0 0 512 512" fill="#4c5467"><path d="M256 246c-5.52 0-10 4.48-10 10s4.48 10 10 10 10-4.48 10-10-4.48-10-10-10z"/><path d="M66 482v20c0 5.522 4.478 10 10 10h360c5.522 0 10-4.478 10-10v-20c0-13.036-8.361-24.152-20-28.28V284.28c11.639-4.128 20-15.243 20-28.28s-8.361-24.152-20-28.28V58.28c11.639-4.128 20-15.243 20-28.28V10c0-5.522-4.478-10-10-10H76c-5.522 0-10 4.478-10 10v20c0 13.036 8.361 24.152 20 28.28v169.44c-11.639 4.128-20 15.243-20 28.28s8.361 24.152 20 28.28v169.44c-11.639 4.128-20 15.244-20 28.28zm360 10H86v-10c0-5.514 4.486-10 10-10h320c5.514 0 10 4.486 10 10v10zM126 256c0-13.036-8.361-24.152-20-28.28V60h20.887l7.222 77.595c4.542 45.437 30.667 93.178 69.321 118.018-16.22 8.827-29.728 19.447-40.31 31.709-16.189 18.762-25.59 41.399-27.944 67.333L126.821 452H106V284.28c11.639-4.128 20-15.244 20-28.28zm260 0c0 13.036 8.361 24.152 20 28.28V452h-20.821l-8.36-97.395c-2.351-25.885-11.751-48.522-27.94-67.284-10.582-12.262-24.09-22.882-40.31-31.709 38.763-24.909 64.791-72.694 69.328-118.086L385.113 60H406v167.72c-11.639 4.128-20 15.244-20 28.28zm-138.031 98.521l8.03-6.021 15.481 11.611c27.684 20.763 52.384 53.755 69.103 91.89H176.435c16.443-40.327 42.038-75.356 71.534-97.48zM357.99 135.604c-4.845 48.461-36.612 95.225-75.536 111.193a10 10 0 0 0-.035 18.489c45.651 18.935 70.711 49.595 74.479 91.078L365.104 452h-2.825c-18.022-44.592-46.484-83.652-78.799-107.89L266 331v-35c0-5.522-4.478-10-10-10s-10 4.478-10 10v34.999l-10.03 7.521c-34.171 25.631-63.426 66.717-81.004 113.48h-8.07l8.203-95.586c3.771-41.532 28.831-72.192 74.482-91.127a10.001 10.001 0 0 0-.035-18.489c-38.924-15.969-70.691-62.732-75.529-111.125L146.974 60h218.052l-7.036 75.604zM416 266c-5.514 0-10-4.486-10-10s4.486-10 10-10 10 4.486 10 10-4.486 10-10 10zM86 20h340v10c0 5.514-4.486 10-10 10H96c-5.514 0-10-4.486-10-10V20zm10 226c5.514 0 10 4.486 10 10s-4.486 10-10 10-10-4.486-10-10 4.486-10 10-10z"/><path d="M259.924 184.69c-5.142 1.873-11.119-.666-16.406-6.962-3.551-4.229-9.86-4.779-14.089-1.226-4.229 3.552-4.777 9.859-1.226 14.089 5.269 6.273 11.381 10.622 17.797 12.896V216c0 5.522 4.478 10 10 10s10-4.478 10-10v-12.255c.256-.086.513-.168.769-.261 11.802-4.299 19.731-15.629 19.731-28.193 0-16.542-13.458-30-30-30-5.514 0-10-4.486-10-10a9.994 9.994 0 0 1 6.108-9.219c4.478-1.896 9.835-.277 14.701 4.439 3.965 3.844 10.297 3.745 14.141-.221s3.745-10.297-.221-14.141c-4.369-4.234-9.213-7.25-14.229-9.023V95.29c0-5.522-4.478-10-10-10s-10 4.478-10 10v11.537a30.4 30.4 0 0 0-2.188.827A29.957 29.957 0 0 0 226.5 135.29c0 16.542 13.458 30 30 30 5.514 0 10 4.486 10 10 0 4.19-2.643 7.968-6.576 9.4z"/></svg>