<svg xmlns="http://www.w3.org/2000/svg" viewBox="0 0 511.999 511.999" fill="#4c5467"><path d="M156.49 295.99c5.29-.26 9.51-4.64 9.51-9.99s-4.21-9.72-9.5-9.99c-.16-.01-.33-.01-.5-.01-5.52 0-10 4.48-10 10s4.48 10 10 10c.17 0 .33 0 .49-.01z"/><path d="M329.258 204.012l.002-.001c-18.335-16.371-40.234-25.693-65.161-27.714-47.948-3.539-91.588 24.602-109.313 66.616-2.146 5.089.238 10.954 5.327 13.101 5.087 2.144 10.953-.237 13.101-5.327 14.433-34.215 50.192-57.355 89.338-54.449 58.701 4.757 100.016 62.519 77.077 122.122-11.048 28.705-39.27 58.913-85.487 57.614a8.818 8.818 0 0 0-.281-.004h-.153a8.412 8.412 0 0 0-.477-.019c-34.121-.48-66.284-22.453-80.033-54.676-2.167-5.079-8.038-7.439-13.122-5.273-5.079 2.168-7.44 8.043-5.272 13.123 16.272 38.138 54.586 66.888 102.096 66.888 47.224 0 85.282-28.603 101.396-70.47 16.203-42.107 7.367-89.875-29.038-121.531z"/><path d="M257 315.29c-4.272 0-8.885-2.687-12.985-7.564-3.554-4.229-9.863-4.774-14.089-1.22-4.228 3.554-4.774 9.861-1.22 14.089 5.346 6.36 11.632 10.791 18.294 13.025v11.67c0 5.522 4.478 10 10 10s10-4.478 10-10v-11.72c11.639-4.128 20-15.243 20-28.28 0-16.542-13.458-30-30-30-5.514 0-10-4.486-10-10s4.486-10 10-10c3.542 0 7.282 1.808 10.815 5.227 3.97 3.84 10.3 3.736 14.141-.232 3.84-3.969 3.736-10.3-.232-14.141-5.075-4.911-10.153-7.689-14.724-9.205V225.29c0-5.522-4.478-10-10-10s-10 4.478-10 10v11.72c-11.639 4.128-20 15.243-20 28.28 0 16.542 13.458 30 30 30 5.514 0 10 4.486 10 10s-4.486 10-10 10zM17.314 197.619C43.913 169.089 139.736 76 256 76s212.087 93.089 238.686 121.619a9.976 9.976 0 0 0 7.316 3.181c2.442 0 4.89-.889 6.817-2.686 4.039-3.767 4.261-10.094.495-14.134C444.498 114.46 351.553 56 256 56 160.478 56 67.532 114.427 2.686 183.98c-3.766 4.04-3.544 10.367.495 14.134a9.997 9.997 0 0 0 14.133-.495z"/><path d="M435.355 198.531C385.523 154.166 322.688 116 256 116c-66.706 0-129.545 38.186-179.355 82.531-45.261 40.293-73.617 80.014-74.802 81.685a9.999 9.999 0 0 0 0 11.568c1.185 1.671 29.541 41.392 74.802 81.685C126.477 417.834 189.312 456 256 456c66.706 0 129.545-38.186 179.355-82.531 45.261-40.293 73.617-80.014 74.802-81.685a9.999 9.999 0 0 0 0-11.568c-1.184-1.671-29.541-41.392-74.802-81.685zm-13.61 160.277C382.121 394.022 321.2 436 256 436s-126.121-41.978-165.745-77.192c-33.789-30.028-58.3-60.424-67.78-72.808 9.482-12.388 33.993-42.782 67.78-72.808C129.879 177.978 190.8 136 256 136s126.121 41.978 165.745 77.192c33.787 30.025 58.298 60.42 67.78 72.808-9.482 12.388-33.993 42.782-67.78 72.808z"/></svg>