<svg xmlns="http://www.w3.org/2000/svg" viewBox="0 0 512 512" fill="#4c5467"><path d="M340 50c0 5.52 4.48 10 10 10s10-4.48 10-10-4.48-10-10-10-10 4.48-10 10z"/><path d="M502 266h-22v-70c0-16.542-13.458-30-30-30h-10v-50c0-5.523-4.478-10-10-10h-30V10c0-5.523-4.478-10-10-10H70c-5.523 0-10 4.477-10 10v96H40c-22.056 0-40 17.944-40 40v296c0 38.598 31.402 70 70 70h380c16.542 0 30-13.458 30-30v-76h22c5.522 0 10-4.477 10-10V276c0-5.523-4.478-10-10-10zm-82-140v40h-20v-40h20zm-40 40h-20V90c0-5.523-4.478-10-10-10s-10 4.477-10 10v76h-20V20h60v146zm-300 0V79.274c30.609-4.399 54.875-28.666 59.274-59.274h101.451c4.399 30.609 28.666 54.875 59.274 59.274V166H80zM300 58.994C280.437 55.007 264.993 39.563 261.006 20H300v38.994zM118.994 20C115.007 39.563 99.563 55.007 80 58.994V20h38.994zM40 126h20v40H40c-11.028 0-20-8.972-20-20s8.972-20 20-20zm420 356c0 5.514-4.486 10-10 10H70c-27.57 0-50-22.43-50-50V180.619A39.741 39.741 0 0 0 40 186h410c5.514 0 10 4.486 10 10v70h-50c-18.69 0-36.269 7.279-49.504 20.502C347.279 299.731 340 317.31 340 336c0 38.598 31.402 70 70 70h50v76zm32-96h-82c-27.57 0-50-22.43-50-50 0-13.352 5.201-25.91 14.638-35.356C384.09 291.201 396.648 286 410 286h82v100z"/><path d="M410 306c-16.542 0-30 13.458-30 30s13.458 30 30 30 30-13.458 30-30-13.458-30-30-30zm0 40c-5.514 0-10-4.486-10-10s4.486-10 10-10 10 4.486 10 10-4.486 10-10 10zM231 325.29c-5.514 0-10-4.486-10-10s4.486-10 10-10c3.542 0 7.282 1.807 10.815 5.227 3.971 3.841 10.3 3.736 14.141-.232 3.84-3.969 3.736-10.3-.232-14.141-5.075-4.911-10.153-7.689-14.724-9.205V275.29c0-5.523-4.477-10-10-10s-10 4.477-10 10v11.72c-11.639 4.128-20 15.243-20 28.28 0 16.542 13.458 30 30 30 5.514 0 10 4.486 10 10s-4.486 10-10 10c-4.272 0-8.884-2.687-12.986-7.565-3.554-4.228-9.861-4.774-14.089-1.219-4.228 3.554-4.773 9.862-1.219 14.089 5.346 6.359 11.632 10.79 18.294 13.024v11.671c0 5.523 4.477 10 10 10s10-4.477 10-10v-11.72c11.639-4.128 20-15.243 20-28.28 0-16.542-13.458-30-30-30zM130 452h-20c-5.523 0-10 4.477-10 10s4.477 10 10 10h20c5.523 0 10-4.477 10-10s-4.477-10-10-10zM70 452c-5.514 0-10-4.486-10-10 0-5.523-4.477-10-10-10s-10 4.477-10 10c0 16.542 13.458 30 30 30 5.523 0 10-4.477 10-10s-4.477-10-10-10zM190 452h-20c-5.523 0-10 4.477-10 10s4.477 10 10 10h20c5.523 0 10-4.477 10-10s-4.477-10-10-10zM250 452h-20c-5.523 0-10 4.477-10 10s4.477 10 10 10h20c5.522 0 10-4.477 10-10s-4.478-10-10-10zM310 452h-20c-5.522 0-10 4.477-10 10s4.478 10 10 10h20c5.522 0 10-4.477 10-10s-4.478-10-10-10zM370 452h-20c-5.522 0-10 4.477-10 10s4.478 10 10 10h20c5.522 0 10-4.477 10-10s-4.478-10-10-10zM400 462c0 5.523 4.478 10 10 10h20c5.522 0 10-4.477 10-10v-20c0-5.523-4.478-10-10-10s-10 4.477-10 10v10h-10c-5.522 0-10 4.477-10 10zM130 206h-20c-5.523 0-10 4.477-10 10s4.477 10 10 10h20c5.523 0 10-4.477 10-10s-4.477-10-10-10zM70 206H50c-5.523 0-10 4.477-10 10s4.477 10 10 10h20c5.523 0 10-4.477 10-10s-4.477-10-10-10zM190 206h-20c-5.523 0-10 4.477-10 10s4.477 10 10 10h20c5.523 0 10-4.477 10-10s-4.477-10-10-10zM230 226h20c5.522 0 10-4.477 10-10s-4.478-10-10-10h-20c-5.523 0-10 4.477-10 10s4.477 10 10 10zM310 206h-20c-5.522 0-10 4.477-10 10s4.478 10 10 10h20c5.522 0 10-4.477 10-10s-4.478-10-10-10zM350 226h20c5.522 0 10-4.477 10-10s-4.478-10-10-10h-20c-5.522 0-10 4.477-10 10s4.478 10 10 10zM410 226h10v10c0 5.523 4.478 10 10 10s10-4.477 10-10v-20c0-5.523-4.478-10-10-10h-20c-5.522 0-10 4.477-10 10s4.478 10 10 10z"/></svg>