<svg xmlns="http://www.w3.org/2000/svg" viewBox="0 0 512 512" fill="#4c5467"><path d="M256 81c5.38 0 9.77-4.26 9.99-9.59.01-.13.01-.27.01-.41 0-5.52-4.48-10-10-10s-10 4.48-10 10c0 .14 0 .28.01.41.22 5.33 4.61 9.59 9.99 9.59zM342.247 148.191c-4.313-3.451-10.605-2.75-14.056 1.562L256 239.992l-72.191-90.239c-3.45-4.311-9.741-5.012-14.056-1.562-4.313 3.45-5.012 9.743-1.562 14.056L235.194 246H176c-5.522 0-10 4.477-10 10s4.478 10 10 10h70v40h-70c-5.522 0-10 4.477-10 10s4.478 10 10 10h70v50c0 5.523 4.478 10 10 10s10-4.477 10-10v-50h70c5.522 0 10-4.477 10-10s-4.478-10-10-10h-70v-40h70c5.522 0 10-4.477 10-10s-4.478-10-10-10h-59.194l67.002-83.753c3.451-4.313 2.752-10.605-1.561-14.056z"/><path d="M256 0C118.485 0 0 117.721 0 256c0 137.641 117.886 256 256 256 137.852 0 256-118.096 256-256C512 118.412 394.168 0 256 0zm0 492C130.28 492 20 381.72 20 256S130.28 20 256 20s236 110.28 236 236-110.28 236-236 236z"/><path d="M298.139 64.968c-5.375-1.277-10.764 2.045-12.04 7.419-1.275 5.374 2.046 10.764 7.419 12.04C372.466 103.172 432 176.933 432 256c0 93.757-82.243 176-176 176S80 349.757 80 256c0-79.067 59.534-152.828 138.482-171.573 5.373-1.276 8.694-6.666 7.419-12.04-1.276-5.375-6.668-8.697-12.04-7.419C126.911 85.614 60 166.893 60 256c0 104.2 91.099 196 196 196 104.2 0 196-91.099 196-196 0-89.035-66.843-170.37-153.861-191.032z"/></svg>