<svg xmlns="http://www.w3.org/2000/svg" viewBox="0 0 511.996 511.996" fill="#4c5467"><path d="M452.499 149.389c-3.9-3.91-10.23-3.91-14.14 0-3.9 3.9-3.9 10.23 0 14.14 3.91 3.9 10.24 3.9 14.14 0 3.91-3.91 3.91-10.24 0-14.14zM73.638 161.249c-3.91-3.91-10.24-3.91-14.14 0-3.91 3.9-3.91 10.24 0 14.14 3.9 3.91 10.23 3.91 14.14 0 3.9-3.9 3.9-10.24 0-14.14z"/><path d="M509.068 149.392L395.931 36.248c-3.904-3.904-10.234-3.904-14.143 0l-69.296 69.297-48.365 19.922-65.984-9.425L130.21 48.11c-3.198-3.2-6.964-2.908-7.072-2.93a10.003 10.003 0 0 0-7.071 2.929L2.927 161.248c-3.902 3.903-3.905 10.238.001 14.143l68.148 68.138 7.788 38.932-16.243 16.243c-13.68 13.665-13.699 35.814-.008 49.492 6.615 6.622 15.496 10.352 25.131 10.251-.094 9.086 3.31 18.2 10.226 25.116 6.826 6.82 15.788 10.229 24.751 10.229.128 0 .255-.008.383-.009-.098 9.09 3.305 18.212 10.223 25.137 6.609 6.609 15.397 10.25 24.746 10.25.127 0 .253-.008.379-.009-.093 9.083 3.311 18.197 10.228 25.113 13.647 13.635 35.852 13.642 49.499-.003l3.537-3.537 17.67 17.678c13.679 13.678 35.824 13.693 49.503 0 6.919-6.919 10.323-16.039 10.224-25.128.126.001.252.009.378.009 8.964 0 17.931-3.411 24.76-10.234 6.908-6.915 10.309-16.026 10.215-25.109 9.621.105 18.512-3.621 25.132-10.247 6.919-6.919 10.323-16.039 10.224-25.128.126.001.252.009.378.009 8.964 0 17.931-3.411 24.76-10.234 13.641-13.653 13.639-35.858-.003-49.499l-4.85-4.85 48.972-74.479 69.988-69.988c3.905-3.905 3.905-10.237.001-14.142zM24.142 168.318l98.996-98.996 14.143 14.143-49.503 49.503c-3.905 3.905-3.905 10.237 0 14.143 3.906 3.905 10.236 3.905 14.143 0l49.503-49.503 27.862 27.862-98.997 98.987-56.147-56.139zM77.1 312.51l-.017.017.017-.017zm20.863 21.552c-5.829 5.834-15.31 5.895-21.207-.008-5.864-5.859-5.867-15.339.002-21.203l.049-.049.059-.059.031-.031 21.077-21.076c5.857-5.864 15.344-5.867 21.213.004 5.871 5.87 5.849 15.36 0 21.208l-.005.005-21.219 21.209zm14.146 35.355c-5.846-5.846-5.846-15.365-.003-21.214l.007-.007.005-.005 21.206-21.197.005-.005.003-.004c5.857-5.855 15.344-5.857 21.205.004 5.859 5.859 5.858 15.359 0 21.217l-21.21 21.21c-5.846 5.849-15.369 5.847-21.218.001zm56.567 35.361c-5.854 5.855-15.346 5.861-21.204.003-5.849-5.854-5.851-15.374-.003-21.221l21.214-21.214c5.857-5.864 15.344-5.867 21.213.004 5.848 5.847 5.872 15.336 0 21.208l-21.22 21.22zm56.572 14.138l-21.21 21.21c-5.847 5.849-15.369 5.846-21.218.001-5.847-5.847-5.847-15.361 0-21.208l21.22-21.22c5.826-5.826 15.34-5.868 21.201-.008 5.816 5.829 5.937 15.284.007 21.225zm155.572-70.711c-5.855 5.847-15.37 5.85-21.217.006l-.003-.003-10.61-10.61c-3.906-3.905-10.238-3.905-14.143 0-3.905 3.905-3.905 10.237 0 14.142l10.61 10.609c5.847 5.847 5.847 15.361-.003 21.211-5.859 5.864-15.34 5.866-21.201.001l-.007-.007-10.609-10.6c-3.909-3.904-10.239-3.901-14.143.006-3.903 3.907-3.9 10.238.006 14.142l10.604 10.594c5.846 5.852 5.846 15.373.007 21.218-5.854 5.848-15.372 5.851-21.221.003l-10.61-10.61c-3.906-3.905-10.238-3.905-14.143 0-3.905 3.905-3.905 10.237 0 14.142l10.61 10.609c5.847 5.847 5.847 15.361-.003 21.211-5.861 5.866-15.347 5.865-21.214-.002l-17.672-17.679 3.538-3.538c13.642-13.669 13.716-35.743-.007-49.495-6.916-6.915-16.028-10.318-25.111-10.225.096-9.777-3.722-18.607-10.24-25.125-6.624-6.624-15.502-10.344-25.12-10.248.097-9.589-3.604-18.477-10.239-25.112-6.621-6.619-15.498-10.337-25.111-10.24.106-9.688-3.683-18.553-10.24-25.109-9.929-9.929-24.33-12.655-36.696-8.171l-5.489-27.442 105.819-105.81 30.745 4.392-9.799 4.038a10.018 10.018 0 0 0-3.262 2.175l-67.18 67.18c-13.645 13.645-13.645 35.847 0 49.492 13.688 13.686 35.809 13.692 49.504-.002l24.733-24.744c3.907-3.901 10.257-3.902 14.152-.004 18.863 18.861 46.483 22.176 68.3 11.729l66.029 66.029.055.055 10.578 10.578c5.847 5.847 5.846 15.366.003 21.214zm-5.152-54.649l-54.957-54.957 7.069-7.068c3.905-3.905 3.905-10.237 0-14.142-3.905-3.905-10.235-3.905-14.143 0-6.217 6.015-8.228 8.795-13.18 12.09-15.306 10.24-36.543 8.894-50.458-5.02-11.689-11.691-30.723-11.694-42.434.001l-24.737 24.748a14.98 14.98 0 0 1-21.219 0c-5.847-5.847-5.847-15.361 0-21.208l65.766-65.767 88.417-36.419L418.458 228.48l-42.79 65.076zm55.622-80.53l-98.997-98.998 28.286-28.287 49.499 49.499c3.906 3.905 10.236 3.905 14.143 0 3.905-3.905 3.905-10.237 0-14.143l-49.499-49.499L388.86 57.46l98.997 98.998-56.567 56.568z"/></svg>