<svg xmlns="http://www.w3.org/2000/svg" width="512" height="512" viewBox="0 0 512 512">
  <g fill="#000000" transform="translate(16 10)">
    <path d="M480,479.618287 L480,176.568999 C480,173.447894 476.074649,169.521341 472.249948,166.601597 L393.038373,109.112846 L393.038373,45.5832441 C393.038373,39.3410329 387.804571,35.1124382 382.57077,35.1124382 L292.287691,35.1124382 L246.290627,1.58572302 C243.170476,-0.528574338 237.936674,-0.528574338 234.715873,1.58572302 L188.718809,35.1124382 L98.4357308,35.1124382 C92.1954288,35.1124382 87.9681275,40.3478412 87.9681275,45.5832441 L87.9681275,108.40808 L7.75005242,166.702278 C3.01950094,169.622022 0,173.447894 0,176.66968 L0,481.732584 C0,487.672753 4.73055148,491.800667 9.66240302,492.20339 L10.4676033,492.20339 L469.431747,492.20339 C476.175299,492.102709 480,486.867306 480,479.618287 L480,479.618287 Z M460.071294,195.396314 L460.071294,460.790972 L286.85259,322.052793 L460.071294,195.396314 Z M452.321241,176.971723 L393.038373,220.163797 L393.038373,133.376925 L452.321241,176.971723 Z M240.050325,21.4198458 L258.469281,35.0117574 L221.530719,35.0117574 L240.050325,21.4198458 Z M372.103166,56.0540501 L372.103166,235.467283 L240.050325,331.718153 L107.997484,235.467283 L107.997484,56.0540501 L372.103166,56.0540501 Z M20.0293563,195.396314 L193.24806,322.052793 L20.0293563,461.596419 L20.0293563,195.396314 L20.0293563,195.396314 Z M88.0687775,220.969244 L27.2761585,176.66968 L88.0687775,132.470797 L88.0687775,220.969244 Z M38.8509121,472.167905 L210.056616,334.335854 L233.709373,351.652956 C238.238624,355.076104 241.660726,355.076104 246.290627,351.652956 L269.943384,334.335854 L442.155588,472.167905 L38.8509121,472.167905 L38.8509121,472.167905 Z"/>
    <rect width="141.356" height="20.339" x="169.831" y="106.78"/>
    <rect width="141.356" height="20.339" x="169.831" y="170.847"/>
    <rect width="141.356" height="20.339" x="169.831" y="234.915"/>
  </g>
</svg>
