<svg xmlns="http://www.w3.org/2000/svg" width="512" height="512" viewBox="0 0 512 512">
  <g fill="#000000" transform="translate(16 16)">
    <path d="M478.4 67.2L454.4 35.2C451.492 31.665 446.269 31.158 442.734 34.066 442.32 34.406 441.94 34.786 441.6 35.2L417.6 67.2C416.561 68.585 416 70.269 416 72L416 448C416 465.673 430.327 480 448 480 465.673 480 480 465.673 480 448L480 72C480 70.269 479.439 68.585 478.4 67.2zM464 448C464 456.837 456.837 464 448 464 439.163 464 432 456.837 432 448L432 432 464 432 464 448zM464 416L432 416 432 400 464 400 464 416zM464 384L432 384 432 96 464 96 464 384zM464 80L432 80 432 74.664 448 53.336 464 74.664 464 80zM392.032 0L392 0 40 0C35.582 0 32 3.582 32 8L32 144.8C13.389 148.628.024 164.999 0 184L0 440C.026 462.08 17.92 479.974 40 480L328 480C330.121 479.995 332.154 479.153 333.656 477.656L397.656 413.656C398.325 412.976 398.867 412.182 399.256 411.312 399.368 411.064 399.432 410.824 399.52 410.568 399.75 409.896 399.89 409.197 399.936 408.488 399.936 408.32 400.032 408.168 400.032 408L400.032 8C400.032 3.582 396.45 0 392.032 0zM240 440C240 453.255 229.255 464 216 464L40 464C26.745 464 16 453.255 16 440L16 184C16 170.745 26.745 160 40 160L216 160C229.255 160 240 170.745 240 184L240 440zM136 96L136 144 80 144 80 96 136 96zM80 80L80 48 136 48 136 80 80 80zM208 96L208 144 152 144 152 96 208 96zM152 80L152 48 208 48 208 80 152 80zM224 144.8L224 96 280 96 280 208 256 208 256 184C255.976 164.999 242.611 148.628 224 144.8zM224 80L224 48 280 48 280 80 224 80zM336 452.688L336 416 372.688 416 336 452.688zM384 400L328 400C323.582 400 320 403.582 320 408L320 464 247.792 464C253.086 457.117 255.971 448.684 256 440L256 224 360 224C364.418 224 368 220.418 368 216L368 40C368 35.582 364.418 32 360 32L72 32C67.582 32 64 35.582 64 40L64 144 48 144 48 16 384 16 384 400zM352 96L352 208 296 208 296 96 352 96zM296 80L296 48 352 48 352 80 296 80z"/>
    <path d="M216 184L40 184C35.582 184 32 187.582 32 192L32 240C32 244.418 35.582 248 40 248L216 248C220.418 248 224 244.418 224 240L224 192C224 187.582 220.418 184 216 184zM208 232L48 232 48 200 208 200 208 232zM224 328L176 328C171.582 328 168 331.582 168 336L168 432C168 436.418 171.582 440 176 440L224 440C228.418 440 232 436.418 232 432L232 336C232 331.582 228.418 328 224 328zM216 424L184 424 184 344 216 344 216 424zM224 264L176 264C171.582 264 168 267.582 168 272L168 304C168 308.418 171.582 312 176 312L224 312C228.418 312 232 308.418 232 304L232 272C232 267.582 228.418 264 224 264zM216 296L184 296 184 280 216 280 216 296zM152 328L104 328C99.582 328 96 331.582 96 336L96 368C96 372.418 99.582 376 104 376L152 376C156.418 376 160 372.418 160 368L160 336C160 331.582 156.418 328 152 328zM144 360L112 360 112 344 144 344 144 360zM152 264L104 264C99.582 264 96 267.582 96 272L96 304C96 308.418 99.582 312 104 312L152 312C156.418 312 160 308.418 160 304L160 272C160 267.582 156.418 264 152 264zM144 296L112 296 112 280 144 280 144 296zM80 328L32 328C27.582 328 24 331.582 24 336L24 368C24 372.418 27.582 376 32 376L80 376C84.418 376 88 372.418 88 368L88 336C88 331.582 84.418 328 80 328zM72 360L40 360 40 344 72 344 72 360zM80 264L32 264C27.582 264 24 267.582 24 272L24 304C24 308.418 27.582 312 32 312L80 312C84.418 312 88 308.418 88 304L88 272C88 267.582 84.418 264 80 264zM72 296L40 296 40 280 72 280 72 296zM152 392L104 392C99.582 392 96 395.582 96 400L96 432C96 436.418 99.582 440 104 440L152 440C156.418 440 160 436.418 160 432L160 400C160 395.582 156.418 392 152 392zM144 424L112 424 112 408 144 408 144 424zM80 392L32 392C27.582 392 24 395.582 24 400L24 432C24 436.418 27.582 440 32 440L80 440C84.418 440 88 436.418 88 432L88 400C88 395.582 84.418 392 80 392zM72 424L40 424 40 408 72 408 72 424z"/>
  </g>
</svg>
