<svg xmlns="http://www.w3.org/2000/svg" width="512" height="512" viewBox="0 0 512 512">
  <g fill="#000000">
    <path d="M346,319 C340.478,319 336,323.477 336,329 L336,398 C336,425.57 313.57,448 286,448 L178.032,448 C172.511,448 168.036,452.473 168.032,457.993 L168.018,477.875 L144.15,454.008 C142.605,450.461 139.069,448 134.979,448 L70,448 C42.43,448 20,425.57 20,398 L20,244 C20,216.43 42.43,194 70,194 L171,194 C176.522,194 181,189.523 181,184 C181,178.477 176.522,174 171,174 L70,174 C31.402,174 0,205.402 0,244 L0,398 C0,436.598 31.402,468 70,468 L129.858,468 L170.929,509.071 C172.842,510.984 175.399,512 178.002,512 C179.289,512 180.588,511.751 181.823,511.24 C185.56,509.694 187.997,506.05 188,502.007 L188.024,468 L286,468 C324.598,468 356,436.598 356,398 L356,329 C356,323.477 351.522,319 346,319 Z"/>
    <path d="M366.655,0 L341.346,0 C261.202,0 196,65.202 196,145.346 C196,225.49 261.202,290.691 341.345,290.691 L366.654,290.691 C379.163,290.691 391.544,289.102 403.544,285.962 L440.931,323.328 C442.844,325.239 445.4,326.255 448.002,326.255 C449.291,326.255 450.591,326.006 451.828,325.493 C455.564,323.945 458,320.299 458,316.255 L458,258.399 C473.829,245.58 486.978,229.387 496.206,211.297 C506.687,190.751 512,168.562 512,145.346 C512,65.202 446.798,0 366.655,0 Z M441.983,245.535 C439.476,247.424 438,250.382 438,253.523 L438,292.123 L413.529,267.665 C411.625,265.763 409.071,264.738 406.459,264.738 C405.479,264.738 404.489,264.883 403.523,265.18 C391.62,268.838 379.216,270.692 366.655,270.692 L341.346,270.692 C272.229,270.692 216,214.462 216,145.346 C216,76.23 272.23,20 341.346,20 L366.655,20 C435.771,20 492,76.23 492,145.346 C492,185.077 473.77,221.595 441.983,245.535 Z"/>
    <path d="M399.033 109.421C397.59 88.486 380.714 71.61 359.778 70.167 347.91 69.352 336.584 73.355 327.915 81.448 319.365 89.429 314.462 100.711 314.462 112.402 314.462 117.925 318.94 122.402 324.462 122.402 329.984 122.402 334.462 117.925 334.462 112.402 334.462 106.143 336.984 100.342 341.562 96.069 346.136 91.8 352.114 89.687 358.404 90.121 369.432 90.881 378.321 99.77 379.081 110.797 379.849 121.934 372.542 131.776 361.708 134.2 352.93 136.164 346.8 143.792 346.8 152.749L346.8 176.774C346.8 182.297 351.278 186.774 356.8 186.774 362.323 186.774 366.8 182.297 366.799 176.774L366.799 153.548C386.949 148.68 400.468 130.242 399.033 109.421zM363.87 209.26C362.01 207.4 359.43 206.33 356.8 206.33 354.17 206.33 351.59 207.4 349.73 209.26 347.87 211.12 346.8 213.7 346.8 216.33 346.8 218.97 347.871 221.55 349.73 223.41 351.59 225.27 354.17 226.33 356.8 226.33 359.43 226.33 362.01 225.27 363.87 223.41 365.73 221.54 366.8 218.97 366.8 216.33 366.8 213.7 365.729 211.12 363.87 209.26zM275 310L64 310C58.478 310 54 314.477 54 320 54 325.523 58.478 330 64 330L275 330C280.523 330 285 325.523 285 320 285 314.477 280.522 310 275 310zM282.069 368.93C280.21 367.07 277.63 366 275 366 272.37 366 269.79 367.07 267.93 368.93 266.069 370.79 265 373.37 265 376 265 378.63 266.07 381.21 267.93 383.07 269.79 384.93 272.37 386 275 386 277.63 386 280.21 384.93 282.069 383.07 283.93 381.21 285 378.64 285 376 285 373.37 283.929 370.79 282.069 368.93zM235.667 366L64 366C58.478 366 54 370.477 54 376 54 381.523 58.478 386 64 386L235.667 386C241.19 386 245.667 381.523 245.667 376 245.667 370.477 241.189 366 235.667 366zM210 254L64 254C58.478 254 54 258.477 54 264 54 269.523 58.478 274 64 274L210 274C215.523 274 220 269.523 220 264 220 258.477 215.522 254 210 254z"/>
  </g>
</svg>
