<svg width="34" height="40" viewBox="0 0 34 40" fill="none" xmlns="http://www.w3.org/2000/svg">
<path fill-rule="evenodd" clip-rule="evenodd" d="M8.46154 0L0 8.46161L4.88119e-05 10C0 10.7692 0.305847 10.7692 0.828048 10.7692H8.28402C9.65657 10.7692 10.7692 9.73608 10.7692 8.46161V1.53876L25.3846 1.53846C25.8094 1.53846 26.1538 1.88286 26.1538 2.30769V23.0769H27.6923V2.30769C27.6923 1.03319 26.6591 0 25.3846 0H8.46154ZM8.28402 9.23082H1.53846L9.23077 1.53876V8.46161C9.23077 8.88643 8.74154 9.23082 8.28402 9.23082Z" fill="#3558A2"/>
<path d="M16.1538 36.9231V35.3846H2.30769C1.88286 35.3846 1.53846 35.0402 1.53846 34.6154V16.9231C1.53846 16.9231 1.53846 16.1538 0.769231 16.1538C0 16.1538 0 16.9231 0 16.9231V34.6154C0 35.8899 1.03319 36.9231 2.30769 36.9231H16.1538Z" fill="#3558A2"/>
<path d="M0.769231 13.8462C1.19407 13.8462 1.53846 13.5018 1.53846 13.0769C1.53846 12.6521 1.19407 12.3077 0.769231 12.3077C0.344396 12.3077 0 12.6521 0 13.0769C0 13.5018 0.344396 13.8462 0.769231 13.8462Z" fill="#3558A2"/>
<path d="M6.15381 14.6149C6.15381 14.1901 6.51633 13.8457 6.96353 13.8457H20.7287C21.1759 13.8457 21.5384 14.1901 21.5384 14.6149C21.5384 15.0398 21.1759 15.3842 20.7287 15.3842H6.96352C6.51633 15.3842 6.15381 15.0398 6.15381 14.6149Z" fill="#E1000F"/>
<path d="M6.96353 18.4611C6.51633 18.4611 6.15381 18.8055 6.15381 19.2303C6.15381 19.6552 6.51633 19.9995 6.96352 19.9995H20.7287C21.1759 19.9995 21.5384 19.6552 21.5384 19.2303C21.5384 18.8055 21.1759 18.4611 20.7287 18.4611H6.96353Z" fill="#E1000F"/>
<path d="M6.15381 23.8457C6.15381 23.4209 6.38945 23.0765 6.68012 23.0765H15.6275C15.9182 23.0765 16.1538 23.4209 16.1538 23.8457C16.1538 24.2705 15.9182 24.6149 15.6275 24.6149H6.68012C6.38945 24.6149 6.15381 24.2705 6.15381 23.8457Z" fill="#E1000F"/>
<path d="M32.5877 38.6297C32.8546 38.8874 32.8533 39.3155 32.5849 39.5717C32.3337 39.8115 31.9386 39.8127 31.686 39.5743L27.2656 35.4042C26.0932 36.3135 24.5983 36.8585 22.97 36.8585C19.2055 36.8585 16.1538 33.9455 16.1538 30.3521C16.1538 26.7587 19.2055 23.8457 22.97 23.8457C26.7346 23.8457 29.7863 26.7587 29.7863 30.3521C29.7863 31.9064 29.2154 33.3333 28.2628 34.4524L32.5877 38.6297ZM22.97 35.5124C25.9557 35.5124 28.376 33.202 28.376 30.3521C28.376 27.5022 25.9557 25.1919 22.97 25.1919C19.9844 25.1919 17.5641 27.5022 17.5641 30.3521C17.5641 33.202 19.9844 35.5124 22.97 35.5124Z" fill="#E1000F"/>
</svg>
