<svg xmlns="http://www.w3.org/2000/svg" viewBox="0 0 512.001 512.001" fill="#4c5467"><path d="M269.402 201.258c-36.341 0-65.908 29.567-65.908 65.908 0 36.343 29.567 65.909 65.908 65.909 36.344 0 65.911-29.567 65.911-65.909-.001-36.341-29.567-65.908-65.911-65.908zm0 106.878c-22.591 0-40.969-18.379-40.969-40.97s18.379-40.969 40.969-40.969c22.591 0 40.971 18.379 40.971 40.969s-18.379 40.97-40.971 40.97z"/><path d="M510.298 153.212c4.854-35.67-.718-66.01-16.116-88.421a44.047 44.047 0 0 0 3.935-18.223c0-24.443-19.885-44.329-44.329-44.329-16.518 0-30.946 9.089-38.571 22.521-41.761-2.087-92.892 13.258-145.817 43.833C179.038 16.37 97.225 10.097 54.785 52.552 36.34 70.997 26.787 97.389 26.831 129.274 11.065 136.075 0 151.765 0 169.996c0 24.443 19.886 44.329 44.329 44.329.257 0 .51-.015.766-.02 6.818 17.34 15.442 35.057 25.73 52.862-52.223 90.361-58.495 172.174-16.042 214.614 18.729 18.734 45.116 27.982 76.527 27.981 39.774-.001 87.601-14.843 138.089-44.02 50.492 29.18 98.314 44.02 138.092 44.02 31.41 0 57.805-9.247 76.536-27.978 42.45-42.451 36.167-124.268-16.07-214.624 22.976-39.774 37.591-79.04 42.341-113.948zm-56.51-126.034c10.691 0 19.39 8.699 19.39 19.39s-8.699 19.39-19.39 19.39-19.39-8.699-19.39-19.39 8.698-19.39 19.39-19.39zm-44.221 22.333c1.521 23.075 20.767 41.387 44.221 41.387a44.059 44.059 0 0 0 23.177-6.56c9.231 16.76 12.215 39.108 8.622 65.513-3.856 28.343-15.083 60.193-32.658 93.024-20.036-30.388-44.115-59.724-71.812-87.423-27.696-27.696-57.041-51.781-87.445-71.834 42.572-22.828 82.776-34.668 115.895-34.107zM44.329 189.386c-10.691 0-19.39-8.698-19.39-19.39 0-10.691 8.699-19.39 19.39-19.39s19.39 8.699 19.39 19.39c.001 10.691-8.698 19.39-19.39 19.39zm24.647 17.436c11.861-7.964 19.683-21.498 19.683-36.826 0-21.903-15.974-40.137-36.881-43.691.505-23.761 7.542-43.018 20.642-56.119 31.886-31.895 98.414-26.287 172.688 13.445-30.398 20.05-59.734 44.131-87.424 71.821-27.694 27.694-51.776 57.033-71.826 87.432-6.513-12.166-12.15-24.22-16.882-36.062zm3.441 257.325c-31.895-31.885-26.287-98.414 13.445-172.686 20.049 30.397 44.13 59.733 71.821 87.424 27.691 27.69 57.027 51.771 87.424 71.821-74.274 39.729-140.801 45.337-172.69 13.441zm102.902-102.898c-29.709-29.708-55.052-61.328-75.421-94.082 20.367-32.753 45.711-64.372 75.421-94.082 29.709-29.709 61.328-55.053 94.082-75.421 32.753 20.369 64.373 45.712 94.082 75.421 29.718 29.719 55.058 61.337 75.409 94.082-20.35 32.743-45.69 64.363-75.409 94.082-29.709 29.709-61.329 55.053-94.082 75.421-32.753-20.368-64.374-45.712-94.082-75.421zm291.073 102.899c-31.896 31.893-98.427 26.287-172.7-13.443 30.397-20.049 59.733-44.13 87.424-71.821 27.699-27.699 51.776-57.035 71.811-87.421 39.741 74.268 45.356 140.796 13.465 172.685z"/></svg>