<svg xmlns="http://www.w3.org/2000/svg" viewBox="0 0 512 512" fill="#4c5467"><path d="M489.657 196.469h-26.229v-40.023c0-18.48-15.035-33.515-33.515-33.515H33.515C15.035 122.931 0 137.966 0 156.445v199.109c0 18.48 15.035 33.515 33.515 33.515h396.399c18.48 0 33.515-15.035 33.515-33.515v-40.023h26.229c12.32 0 22.343-10.023 22.343-22.343v-74.376c-.001-12.321-10.025-22.343-22.344-22.343zM352.741 366.726H33.515c-6.16-.001-11.172-5.013-11.172-11.173V156.445c0-6.16 5.012-11.172 11.172-11.172h319.226v221.453zm77.173-.001h-54.83V145.274h54.829c6.16 0 11.172 5.012 11.172 11.172V355.555h.001c-.001 6.158-5.012 11.17-11.172 11.17zm59.743-73.538h-26.229v-74.376h26.229l.015 74.374a.036.036 0 0 1-.015.002z"/></svg>