<svg xmlns="http://www.w3.org/2000/svg" viewBox="0 0 512 512" fill="#4c5467"><path d="M489.657 196.47h-26.229v-40.024c0-18.48-15.035-33.515-33.515-33.515H33.515C15.035 122.931 0 137.965 0 156.445v199.109c0 18.48 15.035 33.515 33.515 33.515h396.399c18.48 0 33.515-15.035 33.515-33.515V315.53h26.229c12.32 0 22.343-10.023 22.343-22.343v-74.375c-.001-12.319-10.024-22.342-22.344-22.342zm-376.28 170.256H33.515c-6.16 0-11.172-5.012-11.172-11.172V156.445c0-6.16 5.012-11.172 11.172-11.172h79.862v221.453zm327.708-11.171c0 6.16-5.012 11.172-11.172 11.172H135.72V145.274h294.194c6.16 0 11.172 5.012 11.172 11.172v199.109zm48.572-62.368h-26.229v-74.375h26.229l.015 74.375h-.015z"/><path d="M363.722 241.226c-3.3-5.21-10.202-6.761-15.416-3.459l-48.733 30.871v-45.581c0-4.073-2.216-7.823-5.786-9.787a11.177 11.177 0 0 0-11.365.35l-65.883 41.737c-5.212 3.302-6.761 10.204-3.459 15.416 3.3 5.21 10.202 6.761 15.416 3.459l48.733-30.873v45.581a11.169 11.169 0 0 0 11.172 11.171c2.08 0 4.158-.581 5.979-1.734l65.883-41.736c5.212-3.302 6.762-10.203 3.459-15.415z"/></svg>