<svg xmlns="http://www.w3.org/2000/svg" viewBox="0 0 512 512" fill="#4c5467"><path d="M397.736 78.378c6.824 0 12.358-5.533 12.358-12.358V27.027C410.094 12.125 397.977 0 383.08 0H121.641c-3.277 0-6.42 1.303-8.739 3.62L10.527 105.995a12.36 12.36 0 0 0-3.62 8.738v370.239C6.908 499.875 19.032 512 33.935 512h349.144c14.897 0 27.014-12.125 27.014-27.027V296.289c.001-6.824-5.532-12.358-12.357-12.358-6.824 0-12.358 5.533-12.358 12.358v188.684a2.307 2.307 0 0 1-2.297 2.311H33.936a2.314 2.314 0 0 1-2.311-2.311v-357.88h75.36c14.898 0 27.016-12.12 27.016-27.017v-75.36H383.08a2.307 2.307 0 0 1 2.297 2.311V66.02c0 6.825 5.534 12.358 12.359 12.358zm-288.451 21.697a2.303 2.303 0 0 1-2.3 2.301H49.107l60.178-60.18v57.879z"/><path d="M492.865 100.396l-14.541-14.539c-16.304-16.304-42.832-16.302-59.138 0L303.763 201.28H103.559c-6.825 0-12.358 5.533-12.358 12.358s5.533 12.358 12.358 12.358h175.488l-74.379 74.379H103.559c-6.825 0-12.358 5.533-12.358 12.358s5.533 12.358 12.358 12.358h76.392l-.199.199a12.363 12.363 0 0 0-3.169 5.433l-19.088 68.747h-53.936c-6.825 0-12.358 5.533-12.358 12.358s5.533 12.358 12.358 12.358h63.332c.001 0 2.709-.306 3.107-.41l77.997-21.642a12.357 12.357 0 0 0 5.433-3.169L492.866 159.53c16.302-16.302 16.302-42.83-.001-59.134zM184.644 394.073l10.087-36.326 26.24 26.24-36.327 10.086zm60.046-21.321l-38.721-38.721 197.648-197.648 38.722 38.721L244.69 372.752zm230.697-230.698l-15.571 15.571-38.722-38.722 15.571-15.571c6.669-6.668 17.517-6.667 24.181 0l14.541 14.541c6.667 6.667 6.667 17.515 0 24.181z"/></svg>