<svg xmlns="http://www.w3.org/2000/svg" viewBox="0 0 512.001 512.001" fill="#4c5467"><path d="M60.197 418.646H27.571c-6.978 0-12.634 5.657-12.634 12.634s5.656 12.634 12.634 12.634h32.627c6.978 0 12.634-5.657 12.634-12.634-.001-6.976-5.658-12.634-12.635-12.634zM114.205 467.363c-4.934-4.932-12.933-4.934-17.867 0l-23.07 23.07c-4.934 4.934-4.935 12.933 0 17.868a12.598 12.598 0 0 0 8.933 3.701c3.233 0 6.467-1.234 8.933-3.701l23.07-23.07c4.935-4.934 4.936-12.933.001-17.868zM484.431 424.963H262.965l226.699-226.688c9.851-9.852 9.852-25.881.001-35.733L334.522 7.388c-9.853-9.851-25.882-9.851-35.735 0l-247.99 247.99c-14.318 14.318-22.203 33.354-22.203 53.602 0 20.247 7.885 39.284 22.203 53.602l74.701 74.699c8.351 8.351 19.455 12.951 31.266 12.951H484.43c6.978 0 12.634-5.657 12.634-12.634.001-6.977-5.655-12.635-12.633-12.635zm-327.666 0c-5.062 0-9.82-1.972-13.401-5.551l-74.699-74.699c-19.704-19.704-19.704-51.765 0-71.468l40.557-40.557 133.335 133.336c2.467 2.466 5.7 3.7 8.933 3.7s6.467-1.234 8.933-3.7c4.934-4.934 4.935-12.933.001-17.868L127.09 214.821 316.655 25.254l155.142 155.155L227.23 424.963h-70.465z"/></svg>