<svg xmlns="http://www.w3.org/2000/svg" viewBox="0 0 511.999 511.999" fill="#4c5467"><path d="M509.273 298.297l-32.658-116.62c-6.306-22.534-21.891-41.531-42.76-52.122-20.87-10.592-45.406-11.956-67.32-3.739-16.022 6.013-29.628 16.583-39.338 30.558 0 0-.046.037-.14.037H185.45c-.085 0-.13-.03-.134-.03-9.707-13.981-23.309-24.551-39.341-30.567-21.915-8.211-46.453-6.85-67.321 3.742-20.864 10.59-36.448 29.587-42.754 52.119L3.242 298.296c-10.789 38.513 6.053 75.722 40.048 88.478 8.556 3.208 17.548 4.722 26.513 4.722 29.164-.001 58.001-16.026 70.304-41.855l15.67-32.794c9.656 12.936 25.042 20.962 41.742 20.962 22.775 0 42.735-14.858 49.559-36.094h18.302c6.823 21.236 26.777 36.094 49.548 36.094 16.709 0 32.102-8.035 41.756-20.98l15.708 32.8a73.182 73.182 0 0 0 38.764 36.476 73.2 73.2 0 0 0 53.232.668 73.188 73.188 0 0 0 39.663-35.506 73.212 73.212 0 0 0 5.222-52.97zm-24.014 43.439a52.176 52.176 0 0 1-28.27 25.309 52.19 52.19 0 0 1-37.944-.477 52.182 52.182 0 0 1-27.641-26.02L369.5 294.809c-2.412-5.037-7.578-8.087-13.16-7.805a13.684 13.684 0 0 0-12.212 9.115c-4.37 12.334-16.105 20.621-29.199 20.621-14.772 0-27.553-10.5-30.388-24.968-1.264-6.447-6.942-11.127-13.501-11.127h-29.617c-6.56 0-12.238 4.68-13.503 11.129-2.835 14.466-15.621 24.966-30.4 24.966-13.091 0-24.824-8.284-29.197-20.614a13.685 13.685 0 0 0-12.218-9.113 13.738 13.738 0 0 0-13.157 7.816l-21.856 45.738c-11.385 23.899-44.281 36.271-70.401 26.478-23.884-8.961-35.05-34.895-27.159-63.067l32.659-116.624c4.79-17.115 16.154-30.969 32.001-39.012 8.977-4.556 18.61-6.851 28.3-6.851 7.418 0 14.871 1.344 22.086 4.049 12 4.504 22.178 12.407 29.432 22.856 3.95 5.687 10.47 9.082 17.44 9.082h141.606c6.969 0 13.487-3.392 17.435-9.075 7.265-10.455 17.448-18.361 29.443-22.863 16.64-6.238 34.534-5.244 50.386 2.8 15.849 8.043 27.215 21.898 32.005 39.014l32.657 116.62a52.183 52.183 0 0 1-3.723 37.762z"/><circle cx="396.962" cy="187.214" r="13.31"/><circle cx="396.962" cy="250.064" r="13.311"/><circle cx="365.537" cy="218.639" r="13.311"/><circle cx="428.388" cy="218.639" r="13.311"/><path d="M147.177 208.102h-18.653v-18.653c0-5.818-4.716-10.535-10.535-10.535-5.818 0-10.535 4.716-10.535 10.535v18.653H88.801c-5.818 0-10.535 4.716-10.535 10.535 0 5.818 4.716 10.535 10.535 10.535h18.653v18.653c0 5.818 4.716 10.535 10.535 10.535 5.818 0 10.535-4.716 10.535-10.535v-18.653h18.653c5.818 0 10.535-4.716 10.535-10.535-.001-5.819-4.717-10.535-10.535-10.535zM232.033 208.102h-11.524c-5.818 0-10.535 4.716-10.535 10.535 0 5.818 4.716 10.535 10.535 10.535h11.524c5.818 0 10.535-4.716 10.535-10.535-.001-5.819-4.717-10.535-10.535-10.535zM291.993 208.102h-11.524c-5.818 0-10.535 4.716-10.535 10.535 0 5.818 4.716 10.535 10.535 10.535h11.524c5.818 0 10.535-4.716 10.535-10.535s-4.717-10.535-10.535-10.535zM197.52 264.538c-11.696 0-21.211 9.515-21.211 21.211 0 11.697 9.515 21.212 21.211 21.212 11.697 0 21.212-9.515 21.212-21.212-.001-11.696-9.516-21.211-21.212-21.211zm0 26.621a5.415 5.415 0 0 1-5.409-5.41 5.415 5.415 0 0 1 5.409-5.409 5.415 5.415 0 0 1 5.41 5.409 5.417 5.417 0 0 1-5.41 5.41zM314.927 264.538c-11.696 0-21.211 9.515-21.211 21.211 0 11.697 9.515 21.212 21.211 21.212 11.696 0 21.211-9.515 21.211-21.212 0-11.696-9.515-21.211-21.211-21.211zm0 26.621a5.415 5.415 0 0 1-5.409-5.41c0-2.982 2.426-5.409 5.409-5.409s5.409 2.426 5.409 5.409a5.415 5.415 0 0 1-5.409 5.41z"/></svg>