<svg xmlns="http://www.w3.org/2000/svg" viewBox="0 0 512 512" fill="#4c5467"><path d="M312.461 332.734H199.539c-8.511 0-15.434 6.923-15.434 15.434v34.634c0 8.511 6.923 15.435 15.434 15.435h112.923c8.511 0 15.435-6.923 15.435-15.435v-34.634c-.002-8.51-6.925-15.434-15.436-15.434zm-4.41 45.659H203.948v-25.814h104.103v25.814z"/><path d="M506.976 246.958l.159-.08L432.73 99.774c-6.015-11.89-18.025-19.275-31.346-19.275h-14.141V66.824c0-5.48-4.442-9.922-9.922-9.922H134.68c-5.48 0-9.922 4.442-9.922 9.922v13.675h-14.141c-13.321 0-25.331 7.385-31.346 19.275L4.865 246.878l.159.08A34.54 34.54 0 0 0 0 264.939v155.409c0 19.162 15.59 34.751 34.752 34.751h442.497c19.162 0 34.751-15.59 34.751-34.751V264.939a34.54 34.54 0 0 0-5.024-17.981zm-119.734-144.41h14.141a13.02 13.02 0 0 1 11.671 7.179l60.93 120.462h-41.431v-37.066c0-5.48-4.442-9.922-9.922-9.922h-12.275v-53.227c0-5.48-4.442-9.922-9.922-9.922h-13.192v-17.504zm25.468 100.496v27.144h-52.359a22.925 22.925 0 0 0-20.865 13.482l-14.296 31.71a.841.841 0 0 1-.764.493H187.575a.84.84 0 0 1-.764-.494l-14.295-31.708a22.926 22.926 0 0 0-20.866-13.483H99.291v-27.144H412.71zM144.602 76.746h222.796v43.305H144.602V76.746zm245.91 63.149V183.2H121.488v-43.305h269.024zM98.946 109.727a13.017 13.017 0 0 1 11.671-7.179h14.141v17.503h-13.192c-5.48 0-9.922 4.442-9.922 9.922V183.2H89.369c-5.48 0-9.922 4.442-9.922 9.922v37.066H38.016l60.93-120.461zm378.303 323.322H34.752c-7.004 0-12.703-5.699-12.703-12.701V264.939c0-7.003 5.698-12.701 12.703-12.701H151.65c.328 0 .629.194.765.495l14.295 31.708a22.923 22.923 0 0 0 20.865 13.481h136.85a22.924 22.924 0 0 0 20.865-13.48l14.296-31.709v-.001a.84.84 0 0 1 .764-.494h116.898c7.004 0 12.701 5.699 12.701 12.701v155.409h.001c.001 7.004-5.697 12.701-12.701 12.701z"/></svg>