<svg xmlns="http://www.w3.org/2000/svg" viewBox="0 0 512 512" fill="#4c5467"><path d="M511.609 197.601c-.001-.77-.173-1.933-.472-2.603a13.069 13.069 0 0 0-5.154-7.281l-73.292-50.948V82.153c0-7.24-5.872-13.112-13.112-13.112H335.26l-71.743-49.878a13.104 13.104 0 0 0-14.935-.026l-72.206 49.904h-83.95c-7.242 0-13.112 5.872-13.112 13.112v53.973L5.666 187.027c-3.623 2.504-5.583 6.507-5.645 10.6-.004.077-.021.15-.021.23l.391 284.235a13.118 13.118 0 0 0 3.852 9.266 13.114 13.114 0 0 0 9.26 3.827h.018l485.385-.667c7.24-.01 13.104-5.889 13.094-13.13l-.391-283.787zm-78.919-28.893l41.898 29.118-41.898 29.128v-58.246zM256.015 45.884l33.31 23.156h-66.812l33.502-23.156zM105.538 95.265h300.928v149.921L305.43 315.428l-41.194-31.954c-.064-.05-.119-.081-.181-.126-4.604-3.454-11.116-3.581-15.894.126l-41.493 32.185-101.13-69.893V95.265zm-26.224 72.738v59.64l-43.146-29.819 43.146-29.821zm-53.056 54.864l158.669 109.655L26.578 455.346l-.32-232.479zm25.617 246.042l204.324-158.484L459.79 468.348l-407.915.561zm275.269-136.638L485.42 222.235l.32 233.059-158.596-123.023z"/><path d="M344.77 147.713H167.234c-7.24 0-13.112 5.872-13.112 13.112s5.872 13.112 13.112 13.112H344.77c7.242 0 13.112-5.872 13.112-13.112s-5.87-13.112-13.112-13.112zM344.77 215.895H167.234c-7.24 0-13.112 5.872-13.112 13.112s5.872 13.112 13.112 13.112H344.77c7.242 0 13.112-5.872 13.112-13.112s-5.87-13.112-13.112-13.112z"/></svg>