<svg xmlns="http://www.w3.org/2000/svg" viewBox="0 0 512 512" fill="#4c5467"><path d="M511.639 205.054c-.018-12.676-10.337-22.978-23.011-22.978h-.031l-465.618.64C10.29 182.734-.018 193.071 0 205.757l.361 263.124c.018 12.677 10.337 22.978 23.01 22.978h.031l465.618-.64a22.86 22.86 0 0 0 16.263-6.762 22.86 22.86 0 0 0 6.717-16.28l-.361-263.123zm-48.299.067L256.02 349.25 48.286 205.692l415.054-.571zM342.455 372.34l123.65 95.902-420.548.578 124.385-96.479c5.021-3.894 5.934-11.122 2.04-16.143-3.896-5.022-11.123-5.932-16.143-2.04L23.355 456.919l-.33-240.714 226.473 156.508a11.489 11.489 0 0 0 6.541 2.04c2.298 0 4.594-.687 6.567-2.058l226.037-157.14.345 241.315-132.431-102.713c-5.02-3.893-12.247-2.982-16.142 2.04-3.894 5.022-2.981 12.248 2.04 16.143zM310.508 62.362l-41.851-37.388c-7.215-6.445-18.099-6.444-25.315.001l-41.85 37.387c-4.739 4.233-5.148 11.506-.916 16.245s11.505 5.148 16.245.915L244.495 54.8v88.673c0 6.354 5.151 11.505 11.505 11.505s11.505-5.151 11.505-11.505V54.801l27.673 24.722a11.459 11.459 0 0 0 7.661 2.925 11.47 11.47 0 0 0 8.584-3.84c4.234-4.739 3.824-12.012-.915-16.246z"/></svg>