<svg xmlns="http://www.w3.org/2000/svg" viewBox="0 0 512 512" fill="#4c5467"><path d="M510.576 264.536l-58.431-157.94a22.747 22.747 0 0 0-11.913-12.863 22.754 22.754 0 0 0-17.519-.672L137.796 198.467a22.76 22.76 0 0 0-12.864 11.912 22.759 22.759 0 0 0-.672 17.519l58.431 157.94a22.752 22.752 0 0 0 11.913 12.864 22.83 22.83 0 0 0 9.559 2.107c2.682 0 5.37-.476 7.961-1.435l284.918-105.406h.001c11.843-4.383 17.915-17.586 13.533-29.432zM407.052 123.279l-88.377 126.344-149.327-38.405 237.704-87.939zM200.044 366.731l-50.683-137 117.382 30.192-66.699 106.808zm24.819 3.506l65.152-104.33 30.642 7.882c.951.241 1.913.367 2.852.367 3.688 0 7.216-1.787 9.392-4.891l18.133-25.944 117.369 36.818-243.54 90.098zm139.951-146.599l69.463-99.324 50.703 137.019-120.166-37.695zM133.44 388.976c-2.194-5.933-8.786-8.961-14.715-6.768l-43.162 15.968c-5.933 2.196-8.962 8.784-6.768 14.716 1.71 4.623 6.086 7.482 10.743 7.482 1.319 0 2.663-.23 3.973-.715l43.16-15.968c5.935-2.193 8.964-8.782 6.769-14.715zM75.023 282.646c-2.196-5.933-8.785-8.96-14.716-6.768l-26.643 9.857c-5.933 2.196-8.962 8.783-6.768 14.716 1.71 4.622 6.087 7.482 10.743 7.482 1.319 0 2.663-.23 3.973-.715l26.643-9.857c5.933-2.193 8.963-8.782 6.768-14.715zM41.995 369.408c-2.196-5.933-8.785-8.962-14.716-6.768l-19.797 7.324C1.549 372.16-1.48 378.748.714 384.68c1.71 4.622 6.086 7.482 10.743 7.482 1.319 0 2.663-.23 3.973-.715l19.797-7.324c5.934-2.194 8.963-8.782 6.768-14.715z"/></svg>