<svg xmlns="http://www.w3.org/2000/svg" viewBox="0 0 512 512" fill="#4c5467"><path d="M477.606 128.055C443.431 68.863 388.251 26.52 322.229 8.83 256.208-8.862 187.25.217 128.055 34.394 68.861 68.57 26.52 123.75 8.83 189.772-8.86 255.793.219 324.753 34.394 383.945 68.568 443.137 123.75 485.48 189.771 503.17c22.046 5.908 44.417 8.83 66.646 8.83 44.339 0 88.101-11.629 127.529-34.393 59.192-34.175 101.535-89.355 119.225-155.377 17.691-66.023 8.61-134.981-25.565-194.175zm-.177 187.278c-15.848 59.146-53.78 108.581-106.81 139.197-53.028 30.617-114.806 38.749-173.952 22.903-59.147-15.848-108.581-53.78-139.198-106.81-30.616-53.028-38.749-114.807-22.9-173.954C50.418 137.523 88.35 88.09 141.379 57.472c35.325-20.395 74.524-30.812 114.249-30.812 19.91 0 39.959 2.618 59.702 7.909 59.146 15.848 108.581 53.78 139.197 106.81 30.617 53.029 38.751 114.807 22.902 173.954z"/><path d="M378.778 231.852l-164.526-94.99c-8.731-5.041-19.155-5.039-27.886-.001-8.731 5.04-13.944 14.069-13.944 24.15v189.98c0 10.081 5.212 19.109 13.944 24.15 4.365 2.521 9.152 3.78 13.941 3.78 4.79 0 9.579-1.262 13.944-3.781l164.528-94.989c8.73-5.042 13.941-14.07 13.941-24.151 0-10.08-5.212-19.108-13.942-24.148zm-13.326 25.222l-164.527 94.989c-.201.117-.62.358-1.236 0-.618-.357-.618-.839-.618-1.071v-189.98c0-.232 0-.714.618-1.071.242-.14.453-.188.633-.188.28 0 .482.117.605.188l164.526 94.99c.201.116.618.357.618 1.071s-.419.956-.619 1.072zM413.303 134.44c-31.689-40.938-79.326-68.442-130.698-75.461-7.283-.997-14.009 4.106-15.006 11.399-.995 7.291 4.108 14.009 11.399 15.006 44.512 6.081 85.783 29.909 113.232 65.369a13.302 13.302 0 0 0 10.546 5.168c2.849 0 5.72-.909 8.146-2.789 5.819-4.504 6.885-12.873 2.381-18.692z"/></svg>