<svg xmlns="http://www.w3.org/2000/svg" viewBox="0 0 512 512" fill="#4c5467"><path d="M71.934 368.142c-39.663 0-71.93 32.267-71.93 71.929S32.272 512 71.934 512c39.662 0 71.929-32.267 71.929-71.929s-32.268-71.929-71.929-71.929zm0 113.677c-23.022 0-41.75-18.728-41.75-41.749 0-23.02 18.73-41.749 41.75-41.749 23.019 0 41.749 18.728 41.749 41.749-.001 23.021-18.729 41.749-41.749 41.749z"/><path d="M345.696 466.878c-14.677-73.983-50.727-141.496-104.252-195.237-53.907-54.122-121.79-90.547-196.31-105.334-11.144-2.211-22.567.652-31.344 7.857C5.03 181.354.007 191.978.007 203.311v37.255c0 17.793 12.137 32.93 29.516 36.808 50.059 11.182 95.796 36.367 132.266 72.837 36.479 36.481 61.666 82.216 72.837 132.261 3.881 17.382 19.018 29.521 36.811 29.521h37.252a37.588 37.588 0 0 0 29.148-13.782c7.204-8.773 10.068-20.191 7.859-31.333zm-31.183 12.181c-.845 1.029-2.724 2.755-5.825 2.755h-37.252c-3.552 0-6.578-2.433-7.355-5.915-12.421-55.647-40.415-106.489-80.953-147.027-40.528-40.528-91.37-68.52-147.03-80.951-3.481-.777-5.912-3.801-5.912-7.355v-37.255c0-3.098 1.726-4.977 2.754-5.822.856-.7 2.5-1.734 4.775-1.734.486 0 1 .047 1.544.155 68.62 13.617 131.138 47.169 180.8 97.029 49.31 49.509 82.519 111.687 96.034 179.812.608 3.073-.729 5.272-1.58 6.308z"/><path d="M511.673 469.397c-7.85-59.36-25.317-116.628-51.919-170.213-25.931-52.239-59.946-99.825-101.095-141.434-41.88-42.355-90.001-77.373-143.027-104.08C161.25 26.276 103.044 8.329 42.633.324a37.669 37.669 0 0 0-29.747 9.012A37.767 37.767 0 0 0 .006 37.739v36.85c0 18.609 13.961 34.643 32.476 37.297 91.877 13.175 175.612 54.7 242.151 120.08 33.399 32.826 61.118 70.524 82.389 112.051 21.795 42.548 36.287 88.124 43.073 135.457 2.656 18.538 18.718 32.519 37.36 32.519h36.797a37.77 37.77 0 0 0 28.403-12.875 37.612 37.612 0 0 0 9.018-29.721zm-31.712 9.825c-.847.967-2.716 2.589-5.707 2.589h-36.797c-3.788 0-6.937-2.784-7.486-6.62-7.26-50.647-22.767-99.41-46.085-144.935-22.747-44.407-52.387-84.719-88.097-119.816C224.625 140.517 135.056 96.106 36.763 82.01c-3.81-.546-6.576-3.668-6.576-7.423v-36.85c0-2.988 1.621-4.856 2.588-5.703.838-.733 2.511-1.861 4.877-1.861.326 0 .665.023 1.017.068 57.055 7.562 112.027 24.511 163.385 50.377 50.098 25.234 95.565 58.324 135.142 98.347 38.886 39.321 71.025 84.282 95.524 133.634 25.122 50.603 41.619 104.688 49.031 160.747.383 2.897-.957 4.926-1.79 5.876z"/></svg>