<svg xmlns="http://www.w3.org/2000/svg" viewBox="0 0 512.001 512.001" fill="#4c5467"><path d="M270.948 302.936c-10.562-14.943-27.525-24.074-45.713-24.765a10.536 10.536 0 0 0-1.171-.067c-23.135 0-42.252-17.484-44.859-39.93 6.661-4.851 12.807-11.007 18.254-18.381 11.015-14.913 18.165-33.547 20.816-53.698a10.612 10.612 0 0 0 1.987-3.081c4.664-11.106 7.029-22.963 7.029-35.242 0-47.221-35.702-85.637-79.584-85.637-11.349 0-22.36 2.578-32.768 7.665a58.587 58.587 0 0 0-11.365 2.088c-36.686 10.599-57.421 54.957-46.22 98.88a97.99 97.99 0 0 0 4.262 12.916 10.62 10.62 0 0 0 1.88 3c4.225 31.022 18.908 56.833 38.989 71.434-2.581 22.474-21.712 39.988-44.867 39.988-.356 0-.708.019-1.056.053C25.185 279.268 0 305.121 0 336.763v63.14c0 5.891 4.775 10.666 10.666 10.666h188.451c5.89 0 10.666-4.775 10.666-10.666s-4.776-10.666-10.666-10.666H21.331v-52.475c0-20.585 16.746-37.33 37.33-37.33.356 0 .708-.019 1.056-.053a66.076 66.076 0 0 0 21.858-4.429l50.497 72.883a10.667 10.667 0 0 0 17.534 0l50.498-72.883a66.08 66.08 0 0 0 21.858 4.429c.348.034.7.053 1.056.053 12.105 0 23.511 5.912 30.51 15.815a10.652 10.652 0 0 0 8.719 4.51c2.128 0 4.277-.636 6.147-1.957 4.811-3.398 5.953-10.054 2.554-14.864zM109.492 72.377a37.888 37.888 0 0 1 8.796-1.425 10.656 10.656 0 0 0 4.482-1.213c7.926-4.164 16.314-6.276 24.933-6.276 31.47 0 57.174 27.694 58.204 62.162a38.069 38.069 0 0 0-23.035-7.733h-55.779c-2.778 0-5.416-.872-7.625-2.521a12.77 12.77 0 0 1-4.224-5.482 12.478 12.478 0 0 0-12.383-7.806 12.523 12.523 0 0 0-11.338 9.361c-2.721 10.453-7.801 20.188-14.708 28.455-5.532-30.926 8.398-60.507 32.677-67.522zm-25.013 90.328a95.275 95.275 0 0 0 22.119-30.32l.11.081c5.925 4.422 12.973 6.758 20.384 6.758h55.779c6.7 0 12.487 3.92 15.234 9.577-.071 22.157-6.384 42.854-17.806 58.315-10.771 14.58-24.785 22.61-39.462 22.61-13.583 0-26.807-7.017-37.236-19.757-10.118-12.359-16.813-28.995-19.122-47.264zm56.359 180.326l-40.817-58.912c10.95-9.086 18.932-21.616 22.307-35.908a61.783 61.783 0 0 0 18.509 2.848c6.334 0 12.537-.961 18.52-2.817 3.379 14.278 11.358 26.796 22.3 35.876l-40.819 58.913z"/><path d="M455.441 337.455c-.348-.034-.7-.053-1.056-.053-23.167 0-42.305-17.531-44.871-40.023 13.062-9.512 23.832-23.774 30.931-41.119a10.666 10.666 0 0 0 10.196 7.548c3.232 0 6.36-1.473 8.417-4.114 14.881-19.112 22.616-43.986 21.784-70.041-.818-25.56-9.803-49.555-25.303-67.563-15.869-18.438-36.819-28.699-59.012-28.911-1.177-.048-4.104.053-4.577.082-11.402-5.172-23.45-7.588-35.858-7.194-25.625.819-49.196 13.591-66.369 35.963-16.688 21.741-25.355 50.098-24.404 79.85.161 5.041.559 9.683 1.203 14.103 1.737 12.679 5.23 24.822 10.381 36.091a10.664 10.664 0 0 0 18.799 1.13c.858-1.403 1.961-3.152 3.178-4.866 4.755 14.445 12.024 27.423 21.253 37.669a80.97 80.97 0 0 0 12.667 11.416c-2.586 22.469-21.715 39.977-44.866 39.977-.356 0-.708.019-1.056.053-31.374 1.112-56.558 26.967-56.558 58.607v63.14c0 5.891 4.776 10.666 10.666 10.666h260.346c5.89 0 10.666-4.775 10.666-10.666v-63.14c.002-31.638-25.183-57.492-56.557-58.605zm-165.329-111.83a112.623 112.623 0 0 1-2.467-12.626c-.54-3.708-.868-7.568-1.003-11.799-.794-24.837 6.31-48.341 20.004-66.18 13.208-17.208 31.01-27.02 50.128-27.631.639-.021 14.387-.795 28.421 6.277 1.569.79 3.377 1.157 5.138 1.107.202-.006 5.677-.265 5.836-.263 16.02.106 31.362 7.741 43.203 21.497 12.331 14.328 19.487 33.622 20.149 54.329.359 11.247-1.221 22.18-4.567 32.239a101.5 101.5 0 0 0-3.369-7.932c-10.298-21.91-27.633-38.881-48.812-47.788a10.664 10.664 0 0 0-14.137 6.132 79.006 79.006 0 0 1-5.116 11.106c-5.584 9.986-16.842 15.927-29.361 15.489a86.322 86.322 0 0 0-5.666-.007c-9.223.295-18.217 2.053-26.78 5.242-8.458 3.192-22.672 11.201-31.601 20.808zm26.239 5.805a63.306 63.306 0 0 1 12.853-6.643c6.344-2.362 13.063-3.672 19.97-3.893a63.274 63.274 0 0 1 4.246.005c20.594.705 39.217-9.405 48.718-26.396a100.381 100.381 0 0 0 1.701-3.177c9.728 5.993 18.043 14.44 24.295 24.692-.054.316-.1.633-.126.959-1.636 20.237-8.617 38.809-19.658 52.295-10.429 12.741-23.653 19.757-37.236 19.757-25.11-.002-47.448-23.871-54.763-57.599zm36.303 76.062c6.003 1.876 12.194 2.866 18.46 2.866 6.384 0 12.597-.994 18.555-2.864 4.284 18.163 16.029 33.466 31.818 42.495-6.159 22.255-26.627 38.258-50.324 38.258-23.699 0-44.166-16.004-50.324-38.26 15.787-9.027 27.532-24.331 31.815-42.495zm138.015 141.045H251.654v-52.475c0-20.583 16.746-37.33 37.33-37.33.356 0 .708-.019 1.056-.053a66.46 66.46 0 0 0 10.775-1.209c9.265 30.416 37.613 52.11 70.347 52.11 32.734 0 61.081-21.694 70.348-52.109 3.5.69 7.101 1.094 10.773 1.208.348.034.7.053 1.056.053 20.584 0 37.33 16.746 37.33 37.33v52.475z"/></svg>