<svg xmlns="http://www.w3.org/2000/svg" viewBox="0 0 512 512" fill="#4c5467"><path d="M302 220c-5.52 0-10 4.48-10 10s4.48 10 10 10 10-4.48 10-10-4.48-10-10-10zM302 392c-5.52 0-10 4.48-10 10s4.48 10 10 10 10-4.48 10-10-4.48-10-10-10zM196 40c-5.52 0-10 4.48-10 10s4.48 10 10 10 10-4.48 10-10-4.48-10-10-10zM130 452c-5.52 0-10 4.48-10 10s4.48 10 10 10 10-4.48 10-10-4.48-10-10-10z"/><path d="M362 60h-86.013a50.276 50.276 0 0 0-30.817-19.145c-1.815-9.869-6.566-18.953-13.818-26.206C221.904 5.203 209.35 0 196 0c-24.44 0-44.841 17.625-49.157 40.833-12.022 2.214-23.053 8.838-30.821 19.167H30C13.458 60 0 73.458 0 90v392c0 16.542 13.458 30 30 30h332c16.542 0 30-13.458 30-30V90c0-16.542-13.458-30-30-30zM126 90c0-16.467 13.337-30 30-30 5.522 0 10-4.477 10-10 0-16.542 13.458-30 30-30 8.008 0 15.54 3.122 21.209 8.791S226 41.993 226 50c0 5.523 4.478 10 10 10 16.252 0 30 13.151 30 30v10H126V90zm246 392c0 5.514-4.486 10-10 10H30c-5.514 0-10-4.486-10-10V90c0-5.514 4.486-10.1 10-10.1h77.017A51.039 51.039 0 0 0 106 90v10H50c-5.522 0-10 4.477-10 10v352c0 5.523 4.478 10 10 10h40c5.522 0 10-4.477 10-10s-4.478-10-10-10H60V120h272v332H170c-5.522 0-10 4.477-10 10s4.478 10 10 10h172c5.522 0 10-4.477 10-10V110c0-5.523-4.478-10-10-10h-56V90c0-3.37-.348-6.72-1.017-10H362c5.514 0 10 4.486 10 10v392z"/><path d="M302 140H90c-5.522 0-10 4.477-10 10s4.478 10 10 10h212c5.522 0 10-4.477 10-10s-4.478-10-10-10zM302 180H90c-5.522 0-10 4.477-10 10s4.478 10 10 10h212c5.522 0 10-4.477 10-10s-4.478-10-10-10zM262 220H90c-5.522 0-10 4.477-10 10s4.478 10 10 10h172c5.522 0 10-4.477 10-10s-4.478-10-10-10zM302 312H190c-5.522 0-10 4.477-10 10s4.478 10 10 10h112c5.522 0 10-4.477 10-10s-4.478-10-10-10zM302 352H190c-5.522 0-10 4.477-10 10s4.478 10 10 10h112c5.522 0 10-4.477 10-10s-4.478-10-10-10zM262 392h-72c-5.522 0-10 4.477-10 10s4.478 10 10 10h72c5.522 0 10-4.477 10-10s-4.478-10-10-10zM472 60c-22.097 0-40 17.898-40 40v322c0 1.23.258 2.501.637 3.511l30 80a10 10 0 0 0 18.726 0l30-80c.375-.999.637-2.297.637-3.511V100c0-22.255-18.078-40-40-40zm0 413.52L456.43 432h31.14L472 473.52zM492 412h-40V180h40v232zm0-252h-40v-20h40v20zm0-40h-40v-20c0-5.338 2.082-10.359 5.861-14.139C461.641 82.082 466.662 80 472 80c10.976 0 20 8.89 20 20v20zM160 332c0-22.056-17.944-40-40-40s-40 17.944-40 40c0 .22.012.432.018.648-.004.118-.018.233-.018.352v89a10 10 0 0 0 15.547 8.32L120 414.019l24.453 16.301A10.002 10.002 0 0 0 160 422v-89c0-.119-.014-.234-.018-.352.006-.216.018-.428.018-.648zm-20 71.315l-14.453-9.635a10.001 10.001 0 0 0-11.094 0L100 403.315v-36.614c5.877 3.373 12.701 5.299 20 5.299s14.123-1.926 20-5.299v36.614zm-.011-70.935a9.742 9.742 0 0 0-.015.298C139.626 343.513 130.852 352 120 352s-19.626-8.487-19.975-19.322a9.742 9.742 0 0 0-.015-.298 5.94 5.94 0 0 1-.011-.38c.001-11.028 8.973-20 20.001-20s20 8.972 20 20c0 .129-.003.254-.011.38z"/></svg>