<svg xmlns="http://www.w3.org/2000/svg" viewBox="0 0 512 512" fill="#4c5467"><path d="M462 246c-5.52 0-10 4.48-10 10s4.48 10 10 10 10-4.48 10-10-4.48-10-10-10zM256 40c-5.52 0-10 4.48-10 10s4.48 10 10 10 10-4.48 10-10-4.48-10-10-10zM256 452c-5.52 0-10 4.48-10 10s4.48 10 10 10 10-4.48 10-10-4.48-10-10-10zM50 246c-5.52 0-10 4.48-10 10s4.48 10 10 10 10-4.48 10-10-4.48-10-10-10z"/><path d="M502.045 324.917l.031-.103C508.661 302.345 512 279.193 512 256s-3.339-46.345-9.924-68.813v-.003l-.033-.109-.024-.08a258.964 258.964 0 0 0-1.242-4.084C508.22 166.218 512 148.42 512 130 512 58.317 453.682 0 382 0c-18.419 0-36.216 3.78-52.91 11.223a246.118 246.118 0 0 0-4.086-1.243l-.078-.023-.113-.034C302.344 3.339 279.192 0 256 0s-46.344 3.339-68.817 9.925l-.094.028a244.914 244.914 0 0 0-4.178 1.271C166.216 3.78 148.419 0 130 0 58.318 0 0 58.317 0 130c0 18.42 3.78 36.218 11.223 52.911a251.08 251.08 0 0 0-1.24 4.078l-.028.094-.031.103C3.339 209.655 0 232.807 0 256s3.339 46.345 9.924 68.815l.033.109.024.08a255.79 255.79 0 0 0 1.242 4.084C3.78 345.782 0 363.58 0 382c0 71.683 58.318 130 130 130 18.419 0 36.216-3.78 52.91-11.223 1.331.417 2.684.832 4.092 1.248C209.539 508.644 232.753 512 256 512c23.192 0 46.344-3.339 68.817-9.925l.094-.028.102-.031c1.373-.404 2.732-.819 4.076-1.24C345.784 508.22 363.581 512 382 512c71.682 0 130-58.317 130-130 0-18.42-3.78-36.218-11.223-52.911a251.08 251.08 0 0 0 1.24-4.078l.028-.094zM332 33.316C399.947 57.591 454.395 112.034 478.684 180H366.826A148.385 148.385 0 0 0 332 145.174V33.316zm-132-6.175C218.372 22.403 237.175 20 256 20c18.826 0 37.63 2.404 56 7.141v106.141c-14.729-7.192-30.289-11.553-46-12.855V90c0-5.522-4.477-10-10-10s-10 4.478-10 10v30.427c-15.712 1.303-31.272 5.664-46 12.855V27.141zM130 20a110.4 110.4 0 0 1 23.514 2.51C97.814 47.911 49.789 93.693 22.509 153.513A110.448 110.448 0 0 1 20 130C20 69.346 69.346 20 130 20zm50 13.316v111.858A148.385 148.385 0 0 0 145.174 180H33.316C57.591 112.053 112.035 57.604 180 33.316zM27.141 200h106.141c-7.192 14.729-11.553 30.289-12.855 46H90c-5.523 0-10 4.478-10 10s4.477 10 10 10h30.427c1.303 15.712 5.664 31.272 12.855 46H27.141C22.403 293.628 20 274.825 20 256c0-18.826 2.403-37.629 7.141-56zM130 492c-60.654 0-110-49.346-110-110 0-7.998.843-15.854 2.51-23.516C47.909 414.182 93.691 462.21 153.512 489.49A110.39 110.39 0 0 1 130 492zm50-13.316C112.053 454.409 57.605 399.966 33.316 332h111.858A148.385 148.385 0 0 0 180 366.826v111.858zm132 6.173a224.617 224.617 0 0 1-112 .002V378.718c14.729 7.192 30.289 11.553 46 12.855V422c0 5.522 4.477 10 10 10s10-4.478 10-10v-30.427c15.712-1.303 31.272-5.664 46-12.855v106.139zM256 372c-60.575 0-116-55.294-116-116 0-37.839 21.583-73.788 52.837-95.415a10 10 0 0 0 4.809-3.148C215.863 146.032 235.982 140 256 140c60.575 0 116 55.294 116 116 0 60.588-55.306 116-116 116zm76-5.174c13.406-9.526 25.302-21.522 34.826-34.926h111.858C454.409 399.847 399.965 454.396 332 478.684V366.826zM382 492a110.4 110.4 0 0 1-23.514-2.51c55.699-25.401 103.725-71.183 131.005-131.004A110.465 110.465 0 0 1 492 382c0 60.654-49.346 110-110 110zm102.859-180H378.718c7.192-14.729 11.553-30.289 12.855-46H422c5.523 0 10-4.478 10-10s-4.477-10-10-10h-30.427c-1.303-15.712-5.664-31.272-12.855-46h106.141c4.738 18.372 7.141 37.175 7.141 56 0 18.826-2.403 37.629-7.141 56zm4.631-158.484C464.091 97.818 418.309 49.79 358.488 22.509A110.446 110.446 0 0 1 382 20c60.654 0 110 49.346 110 110 0 7.998-.843 15.854-2.51 23.516z"/></svg>