<svg xmlns="http://www.w3.org/2000/svg" viewBox="0 0 512 512" fill="#4c5467"><path d="M256 0C151.233 0 66 85.552 66 190.71c0 72.511 34.494 118.173 97.113 201.066 24.446 32.361 52.153 69.039 84.67 115.923a9.997 9.997 0 0 0 16.434 0c32.446-46.778 60.129-83.416 84.553-115.741C411.465 308.984 446 263.278 446 190.71 446 85.552 360.767 0 256 0zm76.813 379.901c-22.456 29.72-47.655 63.07-76.813 104.621-29.223-41.648-54.45-75.043-76.93-104.802C117.104 297.69 86 256.516 86 190.71 86 96.58 162.262 20 256 20s170 76.58 170 170.71c0 65.862-31.143 107.078-93.187 189.191z"/><path d="M255.5 60c-71.682 0-130 58.317-130 130s58.318 130 130 130 130-58.317 130-130-58.318-130-130-130zm0 240c-60.654 0-110-49.346-110-110s49.346-110 110-110 110 49.346 110 110-49.346 110-110 110z"/><path d="M260.677 181.875C245.771 173.995 236 168.266 236 160.71c0-11.028 8.972-20 20-20s20 8.972 20 20c0 5.522 4.477 10 10 10s10-4.478 10-10c0-18.604-12.767-34.282-30-38.734V110.71c0-5.522-4.477-10-10-10s-10 4.478-10 10v11.266c-17.233 4.452-30 20.13-30 38.734 0 20.172 18.77 30.093 35.331 38.847C266.232 207.434 276 213.161 276 220.71c0 11.028-8.972 20-20 20s-20-8.972-20-20c0-5.522-4.477-10-10-10s-10 4.478-10 10c0 18.604 12.767 34.282 30 38.734v11.266c0 5.522 4.477 10 10 10s10-4.478 10-10v-11.266c17.233-4.452 30-20.13 30-38.734 0-20.164-18.766-30.084-35.323-38.835z"/></svg>