<svg xmlns="http://www.w3.org/2000/svg" viewBox="0 0 512 512" fill="#4c5467"><path d="M462 143c-5.52 0-10 4.48-10 10s4.48 10 10 10 10-4.48 10-10-4.48-10-10-10zM359 452c-5.52 0-10 4.48-10 10s4.48 10 10 10 10-4.48 10-10-4.48-10-10-10zM153 40c-5.52 0-10 4.48-10 10s4.48 10 10 10 10-4.48 10-10-4.48-10-10-10zM50 349c-5.52 0-10 4.48-10 10s4.48 10 10 10 10-4.48 10-10-4.48-10-10-10z"/><path d="M482 0H30C13.458 0 0 13.458 0 30v452c0 16.542 13.458 30 30 30h452c16.542 0 30-13.458 30-30V30c0-16.542-13.458-30-30-30zM20 30c0-5.514 4.486-10 10-10h216v78.35c0 .035.005.069.005.104.072 7.653 8.352 12.299 14.904 8.602.032-.018.064-.031.096-.049A29.996 29.996 0 0 1 276 103c18.423 0 33.39 16.739 29.335 36.474-3.947 19.178-26.366 29.912-44.327 19.521-6.585-3.816-15.008.903-15.008 8.656V246h-64.022c1.436-7.091 1.348-14.519-.347-21.83-4.263-18.371-19.584-33.278-38.128-37.095C111.705 180.545 83 204.603 83 236c0 3.372.348 6.722 1.015 10H20V30zm226 462H30c-5.514 0-10-4.486-10-10V266h78.337l.023.001c.047 0 .095-.009.143-.009 7.466-.113 12.332-8.214 8.555-14.9-.018-.032-.032-.066-.05-.098A29.977 29.977 0 0 1 103 236c0-18.45 16.772-33.386 36.475-29.335 10.859 2.235 20.184 11.292 22.674 22.023 2.305 9.944-.443 17.618-3.154 22.304-3.849 6.663.979 14.928 8.546 15.002.037 0 .073.006.11.006H246v64.022c-27.753-5.62-53.589 12.555-58.926 38.475C180.542 400.298 204.607 429 236 429a50.16 50.16 0 0 0 10-1.015V492zm246-10c0 5.514-4.486 10-10 10H266v-78.35c0-.035-.005-.069-.005-.104-.066-7.437-8.166-12.404-14.904-8.602-.032.018-.064.031-.096.049A29.996 29.996 0 0 1 236 409c-18.423 0-33.39-16.739-29.335-36.474 3.947-19.178 26.365-29.911 44.327-19.521.032.019.066.032.099.051 6.603 3.732 14.909-1.025 14.909-8.706V265.9h64.008A51.151 51.151 0 0 0 329 276c0 31.512 28.821 55.433 60.506 48.925 18.541-3.816 33.862-18.724 38.125-37.097 1.695-7.31 1.783-14.737.347-21.828H492v216zm0-236h-78.35c-7.692 0-12.431 8.315-8.708 14.907.019.033.032.068.052.1 2.711 4.687 5.459 12.36 3.154 22.302-2.49 10.733-11.814 19.791-22.671 22.025C365.739 309.392 349 294.421 349 276a29.993 29.993 0 0 1 4.007-14.995c3.846-6.651-.959-15.005-8.657-15.005H266v-64.022c27.753 5.62 53.589-12.555 58.926-38.476C331.458 111.702 307.393 83 276 83a50.16 50.16 0 0 0-10 1.015V20h216c5.514 0 10 4.486 10 10v216z"/><path d="M153 452H70c-5.514 0-10-4.486-10-10v-43c0-5.523-4.478-10-10-10s-10 4.477-10 10v43c0 16.542 13.458 30 30 30h83c5.522 0 10-4.477 10-10s-4.478-10-10-10zM462 349c-5.522 0-10 4.477-10 10v83c0 5.514-4.486 10-10 10h-43c-5.522 0-10 4.477-10 10s4.478 10 10 10h43c16.542 0 30-13.458 30-30v-83c0-5.523-4.478-10-10-10zM442 40h-83c-5.522 0-10 4.477-10 10s4.478 10 10 10h83c5.514 0 10 4.486 10 10v43c0 5.523 4.478 10 10 10s10-4.477 10-10V70c0-16.542-13.458-30-30-30zM113 40H70c-16.542 0-30 13.458-30 30v83c0 5.523 4.478 10 10 10s10-4.477 10-10V70c0-5.514 4.486-10 10-10h43c5.522 0 10-4.477 10-10s-4.478-10-10-10z"/></svg>