<svg xmlns="http://www.w3.org/2000/svg" viewBox="0 0 512 512" fill="#4c5467"><path d="M156.585 214.35a9.946 9.946 0 0 0-6.44-2.35c-5.52 0-10 4.48-10 10 0 3.46 1.76 6.51 4.43 8.3a9.878 9.878 0 0 0 5.57 1.7c5.52 0 10-4.48 10-10 0-3.07-1.38-5.81-3.56-7.65z"/><path d="M511.287 77.389a10 10 0 0 0-8.328-6.618l-55.688-6.187-6.187-55.688a10 10 0 0 0-17.027-5.951L344.74 82.552C309.979 62.54 270.572 52 230.145 52c-127.113 0-230 102.871-230 230 0 127.112 102.871 230 230 230 127.113 0 230-102.871 230-230 0-40.427-10.54-79.833-30.551-114.595l79.339-79.631.01-.01a10 10 0 0 0 2.344-10.375zM423.51 31.845l-.119.12.119-.12zm0 0l4.236 38.128-65.479 65.571-4.22-38.013 65.463-65.686zM171.349 200.373c2.708 4.813 8.805 6.521 13.619 3.813 14.78-8.314 29.135-12.186 45.177-12.186 20.616 0 40.188 6.937 56.09 19.681l-28.55 28.59c-8.102-5.379-17.6-8.27-27.539-8.27-27.57 0-50 22.43-50 50s22.43 50 50 50 50-22.43 50-50c0-9.968-2.906-19.488-8.308-27.6l28.548-28.589c12.795 15.92 19.76 35.527 19.76 56.189 0 49.626-40.374 90-90 90s-90-40.374-90-90c0-8.6 1.043-14.849 2.61-21.585 1.251-5.379-2.096-10.754-7.475-12.005-5.377-1.251-10.753 2.096-12.005 7.475-2.223 9.559-3.13 17.125-3.13 26.115 0 60.654 49.346 110 110 110s110-49.346 110-110c0-26.015-9.01-50.665-25.549-70.421l28.321-28.362c28.332 32.274 41.409 74.717 36.009 117.952C369.371 375.755 305.41 432 230.145 432c-82.71 0-150-67.29-150-150s67.29-150 150-150c36.617 0 71.267 13.104 98.628 37.083l-28.327 28.366C280.711 180.975 256.103 172 230.145 172c-19.348 0-37.333 4.826-54.983 14.754-4.813 2.708-6.521 8.805-3.813 13.619zm51.729 88.703c3.888 3.883 10.22 3.917 14.142-.01l19.988-20.017A29.786 29.786 0 0 1 260.145 282c0 16.542-13.458 30-30 30s-30-13.458-30-30 13.458-30 30-30c4.541 0 8.929 1.009 12.912 2.918l-19.989 20.016c-3.902 3.908-3.898 10.239.01 14.142zM440.145 282c0 115.794-94.206 210-210 210s-210-94.206-210-210 94.205-210 210-210c38.34 0 75.669 10.375 108.277 30.038l5.735 51.64-1.226 1.227C311.77 127.171 272.099 112 230.145 112c-93.738 0-170 76.262-170 170s76.262 170 170 170c85.299 0 157.789-63.75 168.623-148.321 6.174-49.442-8.964-97.959-41.684-134.65l1.076-1.077 51.945 5.768c19.664 32.609 30.04 69.938 30.04 108.28zm-25.529-127.902l-38.365-4.261 22.477-22.505 43.165-43.223 38.242 4.248c-1.456 1.462 11.349-11.386-65.519 65.741z"/></svg>