<svg xmlns="http://www.w3.org/2000/svg" viewBox="0 0 512 512" fill="#4c5467"><path d="M184.319 2.93A10.072 10.072 0 0 0 177.25 0c-2.641 0-5.21 1.07-7.07 2.93s-2.93 4.44-2.93 7.07c0 2.64 1.069 5.21 2.93 7.07 1.861 1.86 4.44 2.93 7.07 2.93s5.21-1.07 7.069-2.93c1.86-1.86 2.931-4.44 2.931-7.07s-1.07-5.21-2.931-7.07z"/><path d="M511.982 186.504a9.973 9.973 0 0 0-4.12-7.605L458 142.82V30c0-16.542-13.458-30-30-30H216.5c-5.522 0-10 4.477-10 10s4.478 10 10 10H428c5.514 0 10 4.486 10 10v196.344l-122.067 99.664-30.622-22.157a49.904 49.904 0 0 0-58.621 0l-30.623 22.158L74 226.345V30c0-5.514 4.486-10 10-10h54.5c5.522 0 10-4.477 10-10s-4.478-10-10-10H84C67.458 0 54 13.458 54 30v112.819l-49.862 36.08.01.005C1.638 180.721 0 183.666 0 187v275c0 27.57 22.43 50 50 50h412c27.57 0 50-22.43 50-50V187c0-.181-.006-.345-.018-.496zM458 167.506l27.603 19.972L458 210.015v-42.509zm-404 0v42.509l-27.603-22.537L54 167.506zm-34 40.568L179.302 338.14 20 453.407V208.074zM462 492H50c-11.611 0-21.695-6.635-26.68-16.309l215.094-155.637a29.944 29.944 0 0 1 35.172 0L444.882 444H345c-5.522 0-10 4.477-10 10s4.478 10 10 10h127.522l16.158 11.691C483.695 485.365 473.611 492 462 492zm30-38.593L332.698 338.139 492 208.074v245.333z"/><path d="M305.284 119.338c-3.906-3.905-10.236-3.905-14.143 0l-49.07 49.071-21.213-21.213c-3.906-3.905-10.236-3.905-14.143 0-3.905 3.905-3.905 10.237 0 14.143L235 189.622a10.003 10.003 0 0 0 14.142 0l56.142-56.142c3.905-3.905 3.905-10.237 0-14.142z"/><path d="M256 54c-55.404 0-100.479 45.075-100.479 100.479S200.596 254.959 256 254.959s100.479-45.075 100.479-100.479S311.404 54 256 54zm0 180.959c-44.377 0-80.479-36.103-80.479-80.479S211.623 74 256 74s80.479 36.103 80.479 80.479-36.102 80.48-80.479 80.48zM306.74 446.93a10.076 10.076 0 0 0-7.07-2.93c-2.64 0-5.21 1.07-7.07 2.93-1.87 1.86-2.93 4.44-2.93 7.07s1.06 5.21 2.93 7.07a10.06 10.06 0 0 0 7.07 2.93c2.63 0 5.21-1.07 7.07-2.93 1.859-1.86 2.93-4.44 2.93-7.07s-1.07-5.21-2.93-7.07z"/></svg>