<svg xmlns="http://www.w3.org/2000/svg" viewBox="0 0 512 512" fill="#4c5467"><path d="M502 226H314.142l-67.072-67.071A9.999 9.999 0 0 0 240 156H94c-5.523 0-10 4.477-10 10v294c0 17.645-14.355 32-32 32s-32-14.355-32-32V176h29c5.523 0 10-4.477 10-10s-4.477-10-10-10H10c-5.523 0-10 4.477-10 10v294c0 28.673 23.327 52 52 52h410c27.57 0 50-22.43 50-50V236c0-5.523-4.477-10-10-10zm-10 236c0 16.542-13.458 30-30 30H92.961C99.875 483.17 104 472.058 104 460V176h131.857l67.072 67.071A10 10 0 0 0 310 246h182v216zM486.05 101.603L387.376 2.929A10 10 0 0 0 380.305 0H146.174C128.433 0 114 14.433 114 32.174V122c0 5.523 4.477 10 10 10s10-4.477 10-10V32.174C134 25.461 139.461 20 146.174 20h224.131v66.5c0 17.741 14.433 32.174 32.174 32.174h66.5v70.689c0 5.523 4.477 10 10 10s10-4.477 10-10v-80.689c0-2.652-1.054-5.196-2.929-7.071zm-83.571-2.929c-6.713 0-12.174-5.461-12.174-12.174V34.142l64.532 64.532h-52.358z"/><path d="M330.515 112H188c-5.523 0-10 4.477-10 10s4.477 10 10 10h142.515c5.523 0 10-4.477 10-10s-4.477-10-10-10zM330.515 64H228c-5.523 0-10 4.477-10 10s4.477 10 10 10h102.515c5.523 0 10-4.477 10-10s-4.477-10-10-10zM195.07 66.93C193.21 65.07 190.63 64 188 64s-5.21 1.07-7.07 2.93S178 71.37 178 74s1.07 5.21 2.93 7.07S185.37 84 188 84s5.21-1.07 7.07-2.93S198 76.63 198 74s-1.07-5.21-2.93-7.07zM340.07 433.93c-1.86-1.86-4.44-2.93-7.07-2.93s-5.21 1.07-7.07 2.93c-1.86 1.86-2.93 4.44-2.93 7.07s1.07 5.21 2.93 7.07c1.86 1.86 4.44 2.93 7.07 2.93s5.21-1.07 7.07-2.93c1.86-1.86 2.93-4.44 2.93-7.07s-1.07-5.21-2.93-7.07z"/><path d="M418 287H178c-16.542 0-30 13.458-30 30v104c0 16.542 13.458 30 30 30h115.5c5.523 0 10-4.477 10-10s-4.477-10-10-10H178c-5.514 0-10-4.486-10-10V317c0-5.514 4.486-10 10-10h240c5.514 0 10 4.486 10 10v104c0 5.514-4.486 10-10 10h-44.5c-5.523 0-10 4.477-10 10s4.477 10 10 10H418c16.542 0 30-13.458 30-30V317c0-16.542-13.458-30-30-30z"/><path d="M364.776 323.51c-5.239-1.739-10.902 1.095-12.644 6.335l-14.442 43.451-14.442-43.451c-1.743-5.241-7.401-8.079-12.644-6.335-5.241 1.742-8.077 7.402-6.335 12.644l23.932 72a10.001 10.001 0 0 0 18.98 0l23.932-72c1.74-5.241-1.096-10.902-6.337-12.644zM279.932 379.189c-5.523 0-10 4.477-10 10a5.817 5.817 0 0 1-5.811 5.811h-16.242a5.818 5.818 0 0 1-5.811-5.811v-39.378a5.818 5.818 0 0 1 5.811-5.811h16.242a5.818 5.818 0 0 1 5.811 5.811c0 5.523 4.477 10 10 10s10-4.477 10-10c0-14.232-11.579-25.811-25.811-25.811h-16.242c-14.232 0-25.811 11.579-25.811 25.811v39.378c0 14.232 11.579 25.811 25.811 25.811h16.242c14.232 0 25.811-11.579 25.811-25.811 0-5.523-4.477-10-10-10z"/></svg>