<svg xmlns="http://www.w3.org/2000/svg" viewBox="0 0 512.001 512.001" fill="#4c5467"><path d="M386 40c-40.804 0-74 33.196-74 74 0 21.048 8.848 40.057 23.003 53.545.362.402.751.783 1.18 1.125C349.341 180.671 366.83 188 386 188s36.659-7.329 49.818-19.33a9.979 9.979 0 0 0 1.18-1.125C451.152 154.057 460 135.048 460 114c0-40.804-33.196-74-74-74zm0 128c-11.536 0-22.23-3.648-31.014-9.835 6.672-10.497 18.203-16.994 31.014-16.994s24.342 6.498 31.014 16.994C408.23 164.352 397.536 168 386 168zm-10.292-57.122v-5.073c0-5.675 4.617-10.292 10.292-10.292s10.292 4.617 10.292 10.292v5.073c0 5.676-4.617 10.293-10.292 10.293s-10.292-4.617-10.292-10.293zm55.485 32.627a56.305 56.305 0 0 0-19.673-16.338 30.1 30.1 0 0 0 4.772-16.289v-5.073c0-16.703-13.589-30.292-30.292-30.292s-30.292 13.589-30.292 30.292v5.073a30.106 30.106 0 0 0 4.772 16.289 56.294 56.294 0 0 0-19.673 16.338A53.674 53.674 0 0 1 332 114c0-29.776 24.224-54 54-54s54 24.224 54 54a53.674 53.674 0 0 1-8.807 29.505z"/><path d="M501.331 387.51c-13.195-13.195-33.922-15.084-49.284-4.489a10.06 10.06 0 0 0-.333.24l-56.056 42.156c-4.414 3.319-5.301 9.589-1.982 14.003 3.319 4.413 9.588 5.302 14.002 1.981l55.876-42.021a18.653 18.653 0 0 1 23.635 2.271c3.335 3.335 5.036 7.766 4.79 12.476-.246 4.71-2.401 8.94-6.066 11.909l-51.167 41.442C415.223 483.291 390.635 492 365.511 492H217.506a109.988 109.988 0 0 1-56.984-15.911l-40.271-24.391V325.135h77.116c10.684 0 20.729 4.161 28.268 11.7l53.2 53.449c7.555 7.555 17.6 11.716 28.284 11.716h39.236c8.26 0 14.979 6.72 14.979 14.979s-6.72 14.979-14.979 14.979H271a35.522 35.522 0 0 1-19.417-5.759l-32.091-20.872-.117-.076c-4.625-3.017-10.821-1.717-13.84 2.908s-1.717 10.821 2.908 13.84l32.235 20.966A55.475 55.475 0 0 0 271 451.958h75.354c19.288 0 34.979-15.691 34.979-34.979 0-19.288-15.692-34.979-34.979-34.979h-38.6l83.138-48H492c11.028 0 20-8.972 20-20V20c0-11.028-8.972-20-20-20H280c-11.028 0-20 8.972-20 20v294c0 11.028 8.972 20 20 20h70.892l-63.416 36.613-.002.001-47.682-47.906c-11.333-11.333-26.4-17.574-42.427-17.574H120.25V287.5c0-11.028-8.972-20-20-20H10c-5.523 0-10 4.478-10 10V502c0 5.522 4.477 10 10 10h90.25c11.028 0 20-8.972 20-20v-16.919l29.91 18.115A129.988 129.988 0 0 0 217.506 512h148.005c29.692 0 58.751-10.292 81.823-28.98l51.167-41.442a36.484 36.484 0 0 0 13.45-26.405 36.483 36.483 0 0 0-10.62-27.663zM280 314V20h212l.013 293.999L492 314H280zM100.25 492H20V287.5h80.25l.002 27.601-.002.034.002.034.009 141.676a10.03 10.03 0 0 0 0 .756l.002 34.398-.013.001z"/><path d="M234.16 50.366c-2.761-4.783-8.878-6.422-13.66-3.66l-90.024 51.975c-9.55 5.515-12.833 17.771-7.32 27.32l87.369 151.328a9.995 9.995 0 0 0 13.66 3.66c4.783-2.762 6.422-8.877 3.66-13.66l-87.369-151.328L230.5 64.026c4.783-2.761 6.422-8.877 3.66-13.66zM448 212H332c-5.523 0-10 4.477-10 10s4.477 10 10 10h116c5.523 0 10-4.477 10-10s-4.477-10-10-10zM455.07 258.93c-1.86-1.86-4.44-2.93-7.07-2.93s-5.21 1.069-7.07 2.93c-1.86 1.86-2.93 4.44-2.93 7.07s1.07 5.21 2.93 7.069c1.86 1.86 4.44 2.931 7.07 2.931s5.21-1.07 7.07-2.931c1.86-1.859 2.93-4.439 2.93-7.069s-1.07-5.21-2.93-7.07zM406.292 256H332c-5.523 0-10 4.478-10 10s4.477 10 10 10h74.292c5.523 0 10-4.478 10-10s-4.477-10-10-10zM60.125 368.547c-5.523 0-10 4.478-10 10v39.12c0 5.522 4.477 10 10 10s10-4.478 10-10v-39.12c0-5.523-4.477-10-10-10zM67.2 445.02a10.1 10.1 0 0 0-7.08-2.93c-2.63 0-5.2 1.07-7.07 2.93a10.066 10.066 0 0 0-2.92 7.07c0 2.64 1.06 5.21 2.92 7.07a10.08 10.08 0 0 0 7.07 2.93 10.1 10.1 0 0 0 7.08-2.93 10.05 10.05 0 0 0 2.92-7.07c0-2.63-1.06-5.21-2.92-7.07z"/></svg>