<svg xmlns="http://www.w3.org/2000/svg" viewBox="0 0 512 512" fill="#4c5467"><path d="M309.561 324.814a10.032 10.032 0 0 0-4.315-.299c-.168-.008-.337-.012-.505-.019 12.981-12.682 21.061-30.361 21.061-49.899V175c0-5.522-4.478-10-10-10h-74.075c-30.617 0-55.526 24.909-55.526 55.526v54.07c0 19.538 8.08 37.217 21.061 49.899-.168.007-.337.011-.505.019a10.048 10.048 0 0 0-4.315.299c-51.696 4.641-92.352 48.2-92.352 101.084V475c0 5.522 4.478 10 10 10h271.824c5.522 0 10-4.478 10-10v-49.102c-.002-52.883-40.657-96.443-92.353-101.084zm-103.362-90.281v-14.007c0-19.589 15.938-35.526 35.526-35.526H305.8v26.761c0 13.522-11.001 24.523-24.523 24.523h-75.078v-1.751zm0 40.064v-18.313h75.078a44.256 44.256 0 0 0 24.523-7.388v25.7c0 27.46-22.341 49.801-49.801 49.801s-49.8-22.34-49.8-49.8zm76.359 69.8L256 370.955l-26.558-26.558h53.116zM381.912 465H130.088v-28.78h81.604c5.522 0 10-4.478 10-10s-4.478-10-10-10h-81.009c4.42-37.167 33.939-66.726 71.087-71.21l47.159 47.159c1.953 1.952 4.512 2.929 7.071 2.929s5.118-.977 7.071-2.929l47.159-47.159c40.323 4.867 71.682 39.274 71.682 80.888V465z"/><path d="M263.069 419.15c-1.859-1.86-4.439-2.93-7.069-2.93s-5.21 1.07-7.07 2.93-2.93 4.44-2.93 7.07 1.069 5.21 2.93 7.07c1.86 1.859 4.44 2.93 7.07 2.93s5.21-1.07 7.069-2.93c1.86-1.86 2.931-4.44 2.931-7.07s-1.07-5.21-2.931-7.07zM256.127 27c-20.953 0-38 17.047-38 38 0 17.492 11.884 32.253 28 36.655v24.423c0 5.522 4.478 10 10 10s10-4.478 10-10v-24.423c16.116-4.402 28-19.163 28-36.655 0-20.953-17.047-38-38-38zm0 56c-9.925 0-18-8.075-18-18s8.075-18 18-18 18 8.075 18 18-8.075 18-18 18zM456.883 105.001c-7.178-7.177-16.72-11.13-26.87-11.13-10.15 0-19.692 3.953-26.87 11.131-12.368 12.369-14.402 31.209-6.12 45.718l-17.27 17.27c-3.905 3.905-3.905 10.237 0 14.143a9.98 9.98 0 0 0 7.072 2.928 9.97 9.97 0 0 0 7.071-2.929l17.262-17.262c5.68 3.257 12.131 5.002 18.855 5.002 10.15 0 19.692-3.953 26.869-11.13 7.179-7.177 11.132-16.72 11.132-26.87 0-10.15-3.953-19.693-11.131-26.871zm-14.141 39.6c-7.018 7.018-18.438 7.018-25.455 0-7.019-7.019-7.019-18.439-.001-25.457 3.509-3.51 8.118-5.264 12.728-5.264s9.219 1.754 12.728 5.264c3.4 3.4 5.273 7.92 5.273 12.729 0 4.808-1.873 9.328-5.273 12.728zM474 267.833c-17.492 0-32.253 11.884-36.655 28h-24.423c-5.522 0-10 4.478-10 10s4.478 10 10 10h24.423c4.402 16.116 19.163 28 36.655 28 20.953 0 38-17.047 38-38s-17.047-38-38-38zm0 56c-9.925 0-18-8.075-18-18s8.075-18 18-18 18 8.075 18 18-8.075 18-18 18zM382.069 298.76c-1.859-1.86-4.439-2.93-7.069-2.93s-5.21 1.069-7.07 2.93a10.077 10.077 0 0 0-2.93 7.07c0 2.64 1.069 5.21 2.93 7.069 1.86 1.871 4.44 2.931 7.07 2.931s5.21-1.061 7.069-2.931c1.86-1.859 2.931-4.439 2.931-7.069s-1.07-5.2-2.931-7.07zM99.078 295.579H74.655c-4.402-16.116-19.163-28-36.655-28-20.953 0-38 17.047-38 38s17.047 38 38 38c17.492 0 32.253-11.884 36.655-28h24.423c5.522 0 10-4.478 10-10s-4.477-10-10-10zm-61.078 28c-9.925 0-18-8.075-18-18s8.075-18 18-18 18 8.075 18 18-8.075 18-18 18zM131.641 167.025l-17.262-17.261c3.258-5.68 5.002-12.132 5.002-18.856 0-10.15-3.953-19.693-11.131-26.871-7.178-7.177-16.72-11.13-26.87-11.13s-19.692 3.953-26.87 11.131c-14.815 14.816-14.815 38.924 0 53.74 7.178 7.177 16.72 11.13 26.871 11.13 6.724 0 13.176-1.745 18.856-5.002l17.262 17.262c1.953 1.952 4.512 2.929 7.071 2.929s5.118-.977 7.071-2.929c3.905-3.905 3.905-10.237 0-14.143zm-37.527-23.393l-.005.005c-7.018 7.02-18.438 7.02-25.455 0-7.019-7.019-7.019-18.439-.001-25.457a17.944 17.944 0 0 1 12.728-5.264c4.61 0 9.219 1.755 12.728 5.264 3.4 3.4 5.273 7.92 5.273 12.729 0 4.805-1.872 9.324-5.268 12.723z"/></svg>