<svg xmlns="http://www.w3.org/2000/svg" viewBox="0 0 512 512" fill="#4c5467"><path d="M236.069 356.91c-1.859-1.87-4.439-2.93-7.069-2.93s-5.21 1.06-7.07 2.93a10.058 10.058 0 0 0-2.93 7.07c0 2.63 1.069 5.21 2.93 7.07 1.86 1.86 4.44 2.93 7.07 2.93s5.21-1.07 7.069-2.93c1.86-1.86 2.931-4.44 2.931-7.07s-1.07-5.21-2.931-7.07z"/><path d="M448 268.01c-5.522 0-10 4.477-10 10v43.979H266v-24.683c0-38.026-28.594-69.478-65.405-74.04 7.275-8.978 11.646-20.401 11.646-32.831v-70.35c0-5.523-4.478-10-10-10h-52.322c-23.246 0-42.158 18.912-42.158 42.158v38.192c0 12.429 4.37 23.852 11.646 32.831C82.594 227.829 54 259.281 54 297.307v24.683H20V81.744c0-4.276 3.501-7.754 7.805-7.754h207.862c5.522 0 10-4.477 10-10s-4.478-10-10-10H27.805C12.474 53.99 0 66.44 0 81.744v296.492c0 15.304 12.474 27.754 27.805 27.754H179.98v46.194C154.753 454.739 135 476.101 135 501.99c0 5.523 4.478 10 10 10h168c5.522 0 10-4.477 10-10 0-25.888-19.753-47.25-44.979-49.806V405.99h152.175c15.331 0 27.805-12.45 27.805-27.754V278.01c-.001-5.522-4.479-10-10.001-10zM127.76 152.245c0-12.218 9.94-22.158 22.158-22.158h42.322v15.966c0 7.932-6.453 14.385-14.386 14.385H127.76v-8.193zm0 28.193h50.095a34.161 34.161 0 0 0 14.386-3.166v13.165h-.001c0 17.777-14.463 32.24-32.24 32.24s-32.24-14.463-32.24-32.24v-9.999zm43.909 62.239L160 254.346l-11.669-11.669h23.338zM74 297.307c0-27.407 20.29-50.159 46.636-54.04l32.292 32.292c1.953 1.953 4.512 2.929 7.071 2.929s5.118-.976 7.071-2.929l32.292-32.292C225.71 247.148 246 269.9 246 297.307v24.683H74v-24.683zM301.289 491.99h-144.58c4.13-11.676 15.279-20.063 28.353-20.063h87.875c13.073 0 24.222 8.386 28.352 20.063zM199.98 451.927V405.99h58.041v45.937H199.98zM438 378.236c0 4.275-3.501 7.754-7.805 7.754H27.805c-4.304 0-7.805-3.479-7.805-7.754V341.99h418v36.246zM455.069 233.27c-1.859-1.86-4.439-2.93-7.069-2.93s-5.21 1.07-7.07 2.93a10.093 10.093 0 0 0-2.93 7.07c0 2.64 1.069 5.21 2.93 7.07 1.86 1.87 4.44 2.93 7.07 2.93s5.21-1.06 7.069-2.93a10.059 10.059 0 0 0 2.931-7.07c0-2.63-1.07-5.21-2.931-7.07zM448 47.01h-75c-5.522 0-10 4.477-10 10s4.478 10 10 10h75c5.522 0 10-4.477 10-10s-4.478-10-10-10zM339.069 49.94c-1.859-1.86-4.439-2.93-7.069-2.93s-5.21 1.07-7.07 2.93c-1.86 1.86-2.93 4.44-2.93 7.07s1.069 5.21 2.93 7.07c1.861 1.86 4.44 2.93 7.07 2.93s5.21-1.07 7.069-2.93c1.86-1.86 2.931-4.44 2.931-7.07s-1.07-5.21-2.931-7.07zM448 91.01H332c-5.522 0-10 4.477-10 10s4.478 10 10 10h116c5.522 0 10-4.477 10-10s-4.478-10-10-10z"/><path d="M448 135.01H332c-5.522 0-10 4.477-10 10s4.478 10 10 10h116c5.522 0 10-4.477 10-10s-4.478-10-10-10z"/><path d="M462 .01H318c-27.57 0-50 22.43-50 50v107c0 25.655 19.42 46.859 44.333 49.681v25.985a10.002 10.002 0 0 0 17.071 7.072l32.737-32.738H462c27.57 0 50-22.43 50-50v-107c0-27.57-22.43-50-50-50zm30 157c0 16.542-13.458 30-30 30H358a10.003 10.003 0 0 0-7.071 2.929l-18.596 18.596V197.01c0-5.523-4.478-10-10-10H318c-16.542 0-30-13.458-30-30v-107c0-16.542 13.458-30 30-30h144c16.542 0 30 13.458 30 30v107z"/></svg>