<svg xmlns="http://www.w3.org/2000/svg" viewBox="0 0 512 512" fill="#4c5467"><path d="M362.087 164.017H149.915c-6.62 0-11.988 5.367-11.988 11.988 0 6.621 5.367 11.988 11.988 11.988h212.172c6.621 0 11.988-5.368 11.988-11.988 0-6.621-5.367-11.988-11.988-11.988zM362.087 236.355H149.915c-6.62 0-11.988 5.368-11.988 11.988 0 6.621 5.367 11.988 11.988 11.988h212.172c6.621 0 11.988-5.368 11.988-11.988s-5.367-11.988-11.988-11.988z"/><path d="M447.937 103.439a11.977 11.977 0 0 0-3.489-8.158l-91.69-91.69a11.95 11.95 0 0 0-8.55-3.592H89.285c-13.92 0-25.247 11.325-25.247 25.248l.005 299.353c0 .106.013.207.016.313.164 6.065 3.303 11.562 8.484 14.779l41.352 25.667c13.649 8.469 30.605 8.469 44.252-.001l28.381-17.614c5.849-3.631 13.116-3.63 18.965-.001l28.381 17.615c6.824 4.237 14.474 6.355 22.126 6.354 7.651 0 15.304-2.118 22.126-6.354l28.381-17.615c5.849-3.629 13.116-3.629 18.965 0l28.381 17.615c13.645 8.472 30.6 8.472 44.252 0l41.355-25.667c5.179-3.215 8.317-8.713 8.482-14.777.002-.104.016-.207.016-.313l.005-220.845c.001-.116-.017-.213-.026-.317zm-91.744-62.504h.001l50.834 50.834h-49.573a1.265 1.265 0 0 1-1.262-1.262V40.935zm67.79 280.145l-38.52 23.908c-5.849 3.631-13.116 3.63-18.965.001l-28.381-17.616c-13.649-8.469-30.605-8.468-44.252.001l-28.381 17.615c-5.849 3.629-13.116 3.629-18.965 0l-28.381-17.615c-13.646-8.472-30.602-8.472-44.252 0l-28.381 17.615c-5.849 3.629-13.116 3.629-18.965 0L88.02 321.08l-.006-295.832c0-.701.571-1.272 1.271-1.272h242.933v66.532c0 13.916 11.321 25.238 25.238 25.238h66.532l-.005 205.334zM447.958 395.948c.001-.031-.004-.061-.004-.092s.005-.061.005-.092a17.992 17.992 0 0 0-9.242-15.714 17.998 17.998 0 0 0-18.223.436l-35.44 21.994c-5.598 3.473-12.554 3.473-18.15.001l-29.197-18.121c-13.397-8.317-30.042-8.317-43.437 0l-29.197 18.12c-5.598 3.473-12.553 3.473-18.151.001l-29.197-18.121c-13.396-8.315-30.042-8.315-43.437 0l-29.195 18.12c-5.598 3.473-12.554 3.474-18.15 0l-35.439-21.994a17.992 17.992 0 0 0-18.224-.436 17.994 17.994 0 0 0-9.242 15.714c0 .031.005.061.005.092s-.005.061-.005.092l-.005 90.804C64.033 500.674 75.358 512 89.28 512h333.434c13.92 0 25.247-11.325 25.247-25.249l-.003-90.803zm-25.241 92.076H89.285c-.7 0-1.271-.571-1.271-1.271l.004-80.215 26.285 16.314c13.398 8.312 30.042 8.312 43.436-.001l29.195-18.121c5.597-3.474 12.551-3.473 18.151 0l29.195 18.122c6.699 4.156 14.209 6.235 21.719 6.235 7.509 0 15.02-2.079 21.719-6.236l29.195-18.121c5.597-3.474 12.551-3.475 18.151 0l29.197 18.122c13.4 8.314 30.042 8.312 43.436 0l26.285-16.314.004 80.214a1.27 1.27 0 0 1-1.269 1.272z"/></svg>