<?xml version="1.0" encoding="UTF-8"?>
<svg width="50px" height="50px" viewBox="0 0 50 50" version="1.1" xmlns="http://www.w3.org/2000/svg" xmlns:xlink="http://www.w3.org/1999/xlink">
    <!-- Generator: Sketch 50.2 (55047) - http://www.bohemiancoding.com/sketch -->
    <title>like</title>
    <desc>Created with Sketch.</desc>
    <defs></defs>
    <g id="like" stroke="none" stroke-width="1" fill="none" fill-rule="evenodd">
        <g id="Group" transform="translate(0.000000, 1.000000)" fill="#0A090B">
            <path d="M35.8333333,31.4229061 L38.7,31.4229061 C39.4902444,31.4229061 40.1333333,32.0654637 40.1333333,32.8550553 C40.1333333,33.6446468 39.4902444,34.2872044 38.7,34.2872044 L35.8333333,34.2872044 C35.0421333,34.2872044 34.4,34.9288072 34.4,35.7193535 C34.4,36.5098998 35.0421333,37.1515026 35.8333333,37.1515026 L38.7,37.1515026 C39.4902444,37.1515026 40.1333333,37.7940602 40.1333333,38.5836518 C40.1333333,39.3732433 39.4902444,40.0158009 38.7,40.0158009 L35.8333333,40.0158009 C35.0421333,40.0158009 34.4,40.6574037 34.4,41.44795 C34.4,42.2384963 35.0421333,42.8800991 35.8333333,42.8800991 C36.6235778,42.8800991 37.2666667,43.5226567 37.2666667,44.3122483 C37.2666667,45.1018398 36.6235778,45.7443974 35.8333333,45.7443974 L23.8258222,45.7443974 C22.4364444,45.7443974 21.0633111,45.5219369 19.7456,45.0827445 L14.3333333,43.2801461 L14.3333333,25.5587328 C16.5817556,25.1319524 18.7824,23.7093509 20.769,21.3806764 C22.7087778,19.1064236 24.2816222,16.0912723 24.9763111,13.3138578 L25.4856222,11.2773417 L25.8,11.2773417 C27.3804889,11.2773417 28.6666667,12.5624569 28.6666667,14.14164 L28.6666667,15.5728343 C28.6666667,17.4957332 28.0646667,21.1839946 27.2944889,22.8300114 L24.3666667,22.8300114 C23.5754667,22.8300114 22.9333333,23.4716142 22.9333333,24.2621605 C22.9333333,25.0527068 23.5754667,25.6943096 24.3666667,25.6943096 L38.7,25.6943096 C39.4902444,25.6943096 40.1333333,26.3368672 40.1333333,27.1264587 C40.1333333,27.9160503 39.4902444,28.5586079 38.7,28.5586079 L35.8333333,28.5586079 C35.0421333,28.5586079 34.4,29.2002107 34.4,29.990757 C34.4,30.7813033 35.0421333,31.4229061 35.8333333,31.4229061 Z M11.4666667,44.3122483 C11.4666667,45.1018398 10.8235778,45.7443974 10.0333333,45.7443974 L2.86666667,45.7443974 L2.86666667,22.8300114 L10.0333333,22.8300114 C10.8235778,22.8300114 11.4666667,23.4725689 11.4666667,24.2621605 L11.4666667,44.3122483 Z M41.9020667,29.990757 C42.5843333,29.2298084 43,28.2253945 43,27.1264587 C43,24.7576841 41.0707333,22.8300114 38.7,22.8300114 L30.3541778,22.8300114 C31.1807333,20.3237504 31.5333333,16.9983001 31.5333333,15.5728343 L31.5333333,14.14164 C31.5333333,10.9832738 28.9609778,8.41304348 25.8,8.41304348 L24.3666667,8.41304348 C23.7092444,8.41304348 23.1359111,8.85987401 22.9763333,9.49765775 L22.1956444,12.6187881 C21.1015333,16.9897072 17.6280889,21.8122307 14.0332889,22.688706 C13.4035778,21.0961561 11.8488889,19.9657131 10.0333333,19.9657131 L1.43333333,19.9657131 C0.642133333,19.9657131 0,20.6073159 0,21.3978622 L0,47.1765465 C0,47.9670928 0.642133333,48.6086957 1.43333333,48.6086957 L10.0333333,48.6086957 C11.7428222,48.6086957 13.2220222,47.607146 13.9148,46.1597206 L18.8397333,47.8000088 C20.4498444,48.3365873 22.1278,48.6086957 23.8258222,48.6086957 L35.8333333,48.6086957 C38.2040667,48.6086957 40.1333333,46.6810229 40.1333333,44.3122483 C40.1333333,43.7537101 40.0263111,43.2190411 39.8313778,42.7292461 C41.6545778,42.231813 43,40.5619271 43,38.5836518 C43,37.484716 42.5843333,36.4803021 41.9020667,35.7193535 C42.5843333,34.9584049 43,33.953991 43,32.8550553 C43,31.7561195 42.5843333,30.7517056 41.9020667,29.990757 Z" id="Fill-1"></path>
            <path d="M7.01086957,40.1956522 C7.78524348,40.1956522 8.41304348,40.8234522 8.41304348,41.5978261 C8.41304348,42.3722 7.78524348,43 7.01086957,43 C6.23649565,43 5.60869565,42.3722 5.60869565,41.5978261 C5.60869565,40.8234522 6.23649565,40.1956522 7.01086957,40.1956522" id="Fill-2"></path>
            <path d="M28.9782609,4.2295082 L28.9782609,1.37918746 C28.9782609,0.617508197 28.3504609,0 27.576087,0 C26.801713,0 26.173913,0.617508197 26.173913,1.37918746 L26.173913,4.2295082 C26.173913,4.99118746 26.801713,5.60869565 27.576087,5.60869565 C28.3504609,5.60869565 28.9782609,4.99118746 28.9782609,4.2295082" id="Fill-3"></path>
            <path d="M21.9536195,8.86670056 C22.5951703,8.2251451 22.5951703,7.18505425 21.9536195,6.5434988 L19.6304348,4.22029703 C18.9889935,3.57874157 17.9488008,3.57874157 17.30725,4.22029703 C16.6656993,4.86185249 16.6656993,5.90194334 17.30725,6.5434988 L19.6304348,8.86670056 C20.271876,9.5081465 21.3121783,9.50825602 21.9536195,8.86670056" id="Fill-4"></path>
            <path d="M35.5217391,8.86671307 L37.8449239,6.54350564 C38.4864746,5.90194861 38.4864746,4.86185523 37.8449239,4.2202982 C37.2034826,3.57874118 36.1632899,3.57874118 35.5217391,4.2202982 L33.1985544,6.54339612 C32.5570036,7.18495314 32.5570036,8.22504653 33.1985544,8.86660356 C33.8399956,9.50816058 34.8801884,9.5082701 35.5217391,8.86671307" id="Fill-5"></path>
        </g>
    </g>
</svg>