<svg xmlns="http://www.w3.org/2000/svg" viewBox="0 0 512 512" fill="#4c5467"><path d="M482 26H30C13.458 26 0 39.458 0 56v300c0 16.542 13.458 30 30 30h176v41.006c-19.563 3.987-35.007 19.431-38.994 38.994H136c-5.522 0-10 4.477-10 10s4.478 10 10 10h240c5.522 0 10-4.477 10-10s-4.478-10-10-10h-31.006c-3.987-19.563-19.431-35.007-38.994-38.994V386h176c16.542 0 30-13.458 30-30V56c0-16.542-13.458-30-30-30zM324.28 466H187.72c4.128-11.639 15.243-20 28.28-20h80c13.036 0 24.152 8.361 28.28 20zM226 426v-40h60v40h-60zm266-70c0 5.514-4.486 10-10 10H30c-5.514 0-10-4.486-10-10v-51h472v51zm0-71H20V56c0-5.514 4.486-10 10-10h452c5.514 0 10 4.486 10 10v229z"/><path d="M277 326h-40c-5.522 0-10 4.477-10 10s4.478 10 10 10h40c5.522 0 10-4.477 10-10s-4.478-10-10-10zM395.5 65.291c-16.542 0-30 13.458-30 30 0 4.552 1.01 8.948 2.921 12.937l-79.985 79.984a29.877 29.877 0 0 0-12.936-2.921c-4.553 0-8.95 1.011-12.937 2.92l-19.983-19.983a29.878 29.878 0 0 0 2.921-12.937c0-16.542-13.458-30-30-30s-30 13.458-30 30c0 4.552 1.01 8.948 2.921 12.937l-39.984 39.983a29.877 29.877 0 0 0-12.937-2.92c-16.542 0-30 13.458-30 30s13.457 29.999 29.999 29.999 30-13.458 30-30c0-4.557-1.01-8.955-2.917-12.94l39.981-39.98c3.989 1.91 8.385 2.921 12.936 2.921s8.948-1.01 12.936-2.921l19.982 19.981a29.88 29.88 0 0 0-2.918 12.94c0 16.542 13.458 30 30 30s30-13.458 30-30c0-4.556-1.01-8.953-2.918-12.94l79.982-79.981a29.877 29.877 0 0 0 12.936 2.921c16.542 0 30-13.458 30-30s-13.458-30-30-30zm-260 179.999c-5.514 0-10-4.486-10-10s4.486-10 10-10c5.427 0 10 4.381 10 10 0 5.514-4.486 10-10 10zm80-80c-5.521 0-10-4.479-10-10 0-5.514 4.486-10 10-10s10 4.486 10 10c0 5.522-4.479 10-10 10zm60 60c-5.514 0-10-4.486-10-10 0-5.584 4.54-10 10-10 5.466 0 10 4.424 10 10 0 5.514-4.486 10-10 10zm120-120c-5.521 0-10-4.479-10-10 0-5.514 4.486-10 10-10s10 4.486 10 10-4.486 10-10 10z"/></svg>