<?xml version="1.0" encoding="UTF-8"?>
<svg width="50px" height="50px" viewBox="0 0 50 50" version="1.1" xmlns="http://www.w3.org/2000/svg" xmlns:xlink="http://www.w3.org/1999/xlink">
    <!-- Generator: Sketch 50.2 (55047) - http://www.bohemiancoding.com/sketch -->
    <title>unlike</title>
    <desc>Created with Sketch.</desc>
    <defs></defs>
    <g id="unlike" stroke="none" stroke-width="1" fill="none" fill-rule="evenodd">
        <g id="Group" transform="translate(21.500000, 21.500000) rotate(-180.000000) translate(-21.500000, -21.500000) translate(0.000000, 1.000000)" fill="#0A090B">
            <path d="M35.8333333,23.4229061 L38.7,23.4229061 C39.4902444,23.4229061 40.1333333,24.0654637 40.1333333,24.8550553 C40.1333333,25.6446468 39.4902444,26.2872044 38.7,26.2872044 L35.8333333,26.2872044 C35.0421333,26.2872044 34.4,26.9288072 34.4,27.7193535 C34.4,28.5098998 35.0421333,29.1515026 35.8333333,29.1515026 L38.7,29.1515026 C39.4902444,29.1515026 40.1333333,29.7940602 40.1333333,30.5836518 C40.1333333,31.3732433 39.4902444,32.0158009 38.7,32.0158009 L35.8333333,32.0158009 C35.0421333,32.0158009 34.4,32.6574037 34.4,33.44795 C34.4,34.2384963 35.0421333,34.8800991 35.8333333,34.8800991 C36.6235778,34.8800991 37.2666667,35.5226567 37.2666667,36.3122483 C37.2666667,37.1018398 36.6235778,37.7443974 35.8333333,37.7443974 L23.8258222,37.7443974 C22.4364444,37.7443974 21.0633111,37.5219369 19.7456,37.0827445 L14.3333333,35.2801461 L14.3333333,17.5587328 C16.5817556,17.1319524 18.7824,15.7093509 20.769,13.3806764 C22.7087778,11.1064236 24.2816222,8.09127233 24.9763111,5.31385779 L25.4856222,3.27734173 L25.8,3.27734173 C27.3804889,3.27734173 28.6666667,4.56245688 28.6666667,6.14163999 L28.6666667,7.57283435 C28.6666667,9.49573324 28.0646667,13.1839946 27.2944889,14.8300114 L24.3666667,14.8300114 C23.5754667,14.8300114 22.9333333,15.4716142 22.9333333,16.2621605 C22.9333333,17.0527068 23.5754667,17.6943096 24.3666667,17.6943096 L38.7,17.6943096 C39.4902444,17.6943096 40.1333333,18.3368672 40.1333333,19.1264587 C40.1333333,19.9160503 39.4902444,20.5586079 38.7,20.5586079 L35.8333333,20.5586079 C35.0421333,20.5586079 34.4,21.2002107 34.4,21.990757 C34.4,22.7813033 35.0421333,23.4229061 35.8333333,23.4229061 Z M11.4666667,36.3122483 C11.4666667,37.1018398 10.8235778,37.7443974 10.0333333,37.7443974 L2.86666667,37.7443974 L2.86666667,14.8300114 L10.0333333,14.8300114 C10.8235778,14.8300114 11.4666667,15.4725689 11.4666667,16.2621605 L11.4666667,36.3122483 Z M41.9020667,21.990757 C42.5843333,21.2298084 43,20.2253945 43,19.1264587 C43,16.7576841 41.0707333,14.8300114 38.7,14.8300114 L30.3541778,14.8300114 C31.1807333,12.3237504 31.5333333,8.99830011 31.5333333,7.57283435 L31.5333333,6.14163999 C31.5333333,2.98327378 28.9609778,0.413043478 25.8,0.413043478 L24.3666667,0.413043478 C23.7092444,0.413043478 23.1359111,0.859874006 22.9763333,1.49765775 L22.1956444,4.61878808 C21.1015333,8.98970722 17.6280889,13.8122307 14.0332889,14.688706 C13.4035778,13.0961561 11.8488889,11.9657131 10.0333333,11.9657131 L1.43333333,11.9657131 C0.642133333,11.9657131 0,12.6073159 0,13.3978622 L0,39.1765465 C0,39.9670928 0.642133333,40.6086957 1.43333333,40.6086957 L10.0333333,40.6086957 C11.7428222,40.6086957 13.2220222,39.607146 13.9148,38.1597206 L18.8397333,39.8000088 C20.4498444,40.3365873 22.1278,40.6086957 23.8258222,40.6086957 L35.8333333,40.6086957 C38.2040667,40.6086957 40.1333333,38.6810229 40.1333333,36.3122483 C40.1333333,35.7537101 40.0263111,35.2190411 39.8313778,34.7292461 C41.6545778,34.231813 43,32.5619271 43,30.5836518 C43,29.484716 42.5843333,28.4803021 41.9020667,27.7193535 C42.5843333,26.9584049 43,25.953991 43,24.8550553 C43,23.7561195 42.5843333,22.7517056 41.9020667,21.990757 Z" id="Fill-1"></path>
            <path d="M7.01086957,32.1956522 C7.78524348,32.1956522 8.41304348,32.8234522 8.41304348,33.5978261 C8.41304348,34.3722 7.78524348,35 7.01086957,35 C6.23649565,35 5.60869565,34.3722 5.60869565,33.5978261 C5.60869565,32.8234522 6.23649565,32.1956522 7.01086957,32.1956522" id="Fill-2"></path>
        </g>
    </g>
</svg>