<svg width="52" height="52" viewBox="0 0 52 52" fill="none" xmlns="http://www.w3.org/2000/svg">
  <path
    d="M41.9531 2H9.04687C7.36683 2 6 3.36683 6 5.04688V15C6 15.5609 6.4548 16 7.01562 16C7.57645 16 8.03125 15.5609 8.03125 15V5.04688C8.03125 4.48686 8.48686 4.03125 9.04687 4.03125H41.9531C42.5131 4.03125 42.9688 4.48686 42.9688 5.04688V46.9531C42.9688 47.5131 42.5131 47.9688 41.9531 47.9688H9.04687C8.48686 47.9688 8.03125 47.5131 8.03125 46.9531V23.9713C8.03125 23.4104 7.57645 22.9557 7.01562 22.9557C6.4548 22.9557 6 23.4104 6 23.9713V46.9531C6 48.6332 7.36683 50 9.04687 50H41.9531C43.6332 50 45 48.6332 45 46.9531V5.04688C45 3.36683 43.6332 2 41.9531 2Z"
    fill="#3558A2" />
  <path
    d="M7.06152 18C7.32863 18 7.59066 18.1077 7.77947 18.2966C7.96837 18.4865 8.07715 18.7475 8.07715 19.0146C8.07647 19.2841 7.9695 19.5425 7.77947 19.7337C7.59056 19.9226 7.32853 20.0312 7.06152 20.0312C6.79441 20.0312 6.53238 19.9226 6.34348 19.7337C6.15369 19.5424 6.04679 19.2841 6.0459 19.0146C6.04713 18.7455 6.154 18.4877 6.34348 18.2966C6.53238 18.1077 6.79441 18 7.06152 18Z"
    fill="#3558A2" />
  <path
    d="M20.1254 36.2974C19.7287 35.9009 19.0858 35.9008 18.689 36.2974L15.9892 38.9972L14.7338 37.7418C14.3372 37.3452 13.6944 37.3453 13.2975 37.7418C12.9008 38.1384 12.9008 38.7815 13.2975 39.1781L15.271 41.1517C15.4615 41.3421 15.7199 41.4491 15.9892 41.4491C16.2586 41.4491 16.5169 41.3421 16.7074 41.1517L20.1254 37.7337C20.522 37.3371 20.522 36.694 20.1254 36.2974Z"
    fill="#3558A2" />
  <path
    d="M20.185 28.2974C19.7883 27.9009 19.1454 27.9008 18.7486 28.2974L16.0487 30.9972L14.7934 29.7418C14.3968 29.3452 13.7539 29.3453 13.357 29.7418C12.9604 30.1384 12.9604 30.7815 13.357 31.1781L15.3306 33.1517C15.5211 33.3421 15.7794 33.4491 16.0488 33.4491C16.3181 33.4491 16.5765 33.3421 16.767 33.1517L20.185 29.7337C20.5816 29.3371 20.5816 28.694 20.185 28.2974Z"
    fill="#3558A2" />
  <path fill-rule="evenodd" clip-rule="evenodd"
    d="M12.0156 10H22.0156C22.5765 10 23.0312 10.4547 23.0312 11.0156V20.9844C23.0312 21.5453 22.5765 22 22.0156 22H12.0156C11.4548 22 11 21.5453 11 20.9844V11.0156C11 10.4547 11.4548 10 12.0156 10ZM21 19.9688H13.0312V12.0312H21V19.9688Z"
    fill="#3558A2" />
  <path
    d="M29.0156 11H38.125C38.6858 11 39.1406 11.4547 39.1406 12.0156C39.1406 12.5766 38.6858 13.0312 38.125 13.0312H29.0156C28.4548 13.0312 28 12.5766 28 12.0156C28 11.4547 28.4548 11 29.0156 11Z"
    fill="#E1000F" />
  <path
    d="M29.0156 19H38.125C38.6858 19 39.1406 19.4547 39.1406 20.0156C39.1406 20.5766 38.6858 21.0312 38.125 21.0312H29.0156C28.4548 21.0312 28 20.5766 28 20.0156C28 19.4547 28.4548 19 29.0156 19Z"
    fill="#E1000F" />
  <path
    d="M37.9756 29H26.0244C25.4587 29 25 29.4477 25 30C25 30.5523 25.4587 31 26.0244 31H37.9756C38.5413 31 39 30.5523 39 30C39 29.4477 38.5413 29 37.9756 29Z"
    fill="#E1000F" />
  <path
    d="M37.9756 38H26.0244C25.4587 38 25 38.4477 25 39C25 39.5523 25.4587 40 26.0244 40H37.9756C38.5413 40 39 39.5523 39 39C39 38.4477 38.5413 38 37.9756 38Z"
    fill="#E1000F" />
  <path
    d="M38.125 15H29.0156C28.4548 15 28 15.4547 28 16.0156C28 16.5766 28.4548 17.0312 29.0156 17.0312H38.125C38.6858 17.0312 39.1406 16.5766 39.1406 16.0156C39.1406 15.4547 38.6858 15 38.125 15Z"
    fill="#E1000F" />
</svg>
  