<svg width="52" height="52" viewBox="0 0 52 52" fill="none" xmlns="http://www.w3.org/2000/svg">
  <path
    d="M43.5655 34.1919C43.4366 34.0758 43.27 34.0081 43.0951 34.0005C43.0114 33.997 42.9279 34.0106 42.8499 34.0404C42.7718 34.0702 42.7009 34.1156 42.6417 34.1736C42.5825 34.2316 42.5362 34.3011 42.5058 34.3776C42.4754 34.4541 42.4616 34.5359 42.4651 34.6179V38.2976H29V43.2368H42.4672V46.9186C42.4672 47.0823 42.5336 47.2393 42.6518 47.3551C42.7699 47.4709 42.9301 47.536 43.0972 47.536C43.1809 47.5371 43.264 47.5214 43.3413 47.4899C43.4185 47.4584 43.4884 47.4118 43.5466 47.3528L49.8235 41.2097C49.937 41.0892 50 40.9312 50 40.7672C50 40.6032 49.937 40.4453 49.8235 40.3247L43.5655 34.1919Z"
    fill="#E1000F" />
  <path
    d="M29.1122 4.00009C28.7996 3.98502 28.6171 4.13114 28.4142 4.36097C28.213 4.58896 28.1987 4.92441 28.2 5.23209L28.1954 26.9998L17.8 16.9993C17.6168 16.8907 17.4089 16.8338 17.1973 16.8343C16.9858 16.8348 16.7781 16.8927 16.5954 17.0022C16.4126 17.1116 16.2613 17.2687 16.1568 17.4575C16.0522 17.6463 15.9981 17.8601 16 18.0773V26.9998L4.80005 16.9993C4.61683 16.8907 4.40891 16.8338 4.19736 16.8343C3.98581 16.8348 3.77815 16.8927 3.59541 17.0022C3.41268 17.1116 3.26137 17.2687 3.15682 17.4575C3.05226 17.6463 2.99818 17.8601 3.00005 18.0773L3.15111 48.7303C3.15114 49.057 3.27758 49.3704 3.50262 49.6014C3.72766 49.8324 4.03286 49.9622 4.35111 49.9623H39.7778C40.096 49.9622 40.4012 49.8324 40.6263 49.6014C40.8513 49.3704 40.9777 49.057 40.9778 48.7303V46H39V47.9993H4.99969V19.9993L16.1565 29.6024C16.3397 29.7109 16.5476 29.7679 16.7592 29.7674C16.9707 29.7669 17.1784 29.709 17.3611 29.5995C17.5439 29.4901 17.6952 29.333 17.7997 29.1442C17.9043 28.9554 17.9584 28.7415 17.9565 28.5244L18 20.4998L28.2 29.6024C28.3832 29.7109 28.5911 29.7679 28.8027 29.7674C29.0142 29.7669 29.2219 29.709 29.4046 29.5995C29.5874 29.4901 29.7387 29.333 29.8432 29.1442C29.9478 28.9554 30.0019 28.7416 30 28.5244V5.99978H39V35.0002H40.9778V5.23209C40.9777 4.90535 40.8513 4.59201 40.6263 4.36097C40.4012 4.12993 40.096 4.00012 39.7778 4.00009H29.1122Z"
    fill="#3558A2" />
  <path
    d="M35 37V34.1912C35 33.8644 34.8735 33.5511 34.6485 33.32C34.4235 33.089 34.1183 32.9592 33.8 32.9592L25.2 32.9592C25.1625 32.9574 25.125 32.9574 25.0875 32.9592C24.7891 32.988 24.5121 33.1305 24.3108 33.3584C24.1096 33.5864 23.9987 33.8835 24 34.1912V42.8152C24 43.1419 24.1265 43.4552 24.3515 43.6863C24.5765 43.9173 24.8817 44.0471 25.2 44.0472L27 44.0472V41.9998L26 41.9998V34.9998L33 35.0002V37H35Z"
    fill="#3558A2" />
  <path fill-rule="evenodd" clip-rule="evenodd"
    d="M10.2875 32.9592C9.9891 32.988 9.71205 33.1305 9.5108 33.3585C9.30956 33.5864 9.19868 33.8835 9.19997 34.1912V42.8152C9.2 43.1419 9.32644 43.4552 9.55148 43.6863C9.77651 43.9173 10.0817 44.0471 10.4 44.0472H18.8C19.1183 44.0471 19.4235 43.9173 19.6485 43.6863C19.8735 43.4552 20 43.1419 20 42.8152V34.1912C20 33.8644 19.8735 33.5511 19.6485 33.32C19.4235 33.089 19.1183 32.9592 18.8 32.9592H10.4C10.3625 32.9574 10.3249 32.9574 10.2875 32.9592ZM11 34.9998L18 35.0002V42.0002L11 41.9998V34.9998Z"
    fill="#3558A2" />
</svg>
  