<svg width="52" height="52" viewBox="0 0 52 52" fill="none" xmlns="http://www.w3.org/2000/svg">
  <path fill-rule="evenodd" clip-rule="evenodd"
    d="M12.9677 1.29004V5.7997C12.4258 5.63728 11.8522 5.54752 11.2581 5.54752C7.95924 5.54752 5.27419 8.23175 5.27419 11.5314C5.27419 13.4437 6.17861 15.1439 7.57884 16.2407C3.76968 17.4426 1 21.0081 1 25.2088V31.1927C1 33.0785 2.53358 34.6121 4.41935 34.6121H5.27419V46.5799C5.27419 48.4656 6.80777 49.9992 8.69355 49.9992C9.72021 49.9992 10.6306 49.5359 11.2581 48.8178C11.8855 49.5359 12.7959 49.9992 13.8226 49.9992C15.7084 49.9992 17.2419 48.4656 17.2419 46.5799V25.4353C17.2419 25.0652 17.2898 24.7027 17.3804 24.3539H49.7097V1.29004H12.9677ZM6.98387 11.5314C6.98387 9.17463 8.90127 7.25721 11.2581 7.25721C13.6149 7.25721 15.5323 9.17463 15.5323 11.5314C15.5323 13.8882 13.6149 15.8056 11.2581 15.8056C8.90127 15.8056 6.98387 13.8882 6.98387 11.5314ZM12.083 24.03L11.2581 24.8549L10.4331 24.03L10.976 17.5152H11.5402L12.083 24.03ZM15.5323 25.4353V46.5799C15.5323 47.5228 14.7655 48.2896 13.8226 48.2896C12.8797 48.2896 12.1129 47.5228 12.1129 46.5799V31.1927H10.4032V46.5799C10.4032 47.5228 9.63643 48.2896 8.69355 48.2896C7.75066 48.2896 6.98387 47.5228 6.98387 46.5799V23.4991H5.27419V32.9025H4.41935C3.47647 32.9025 2.70968 32.1356 2.70968 31.1927V25.2088C2.70968 21.3586 5.55544 18.1692 9.25261 17.611L8.66277 24.6779L11.2581 27.2724L13.8525 24.6779L13.255 17.5152H15.7896C16.8983 17.5152 17.9822 17.2084 18.926 16.6271L28.0464 11.296C28.2277 11.1849 28.4345 11.1267 28.6465 11.1267C29.2766 11.1267 29.7903 11.6405 29.7903 12.2705C29.7903 12.777 29.7374 13.2588 29.268 13.5647L18.2652 20.4114C16.5538 21.5184 15.5323 23.3965 15.5323 25.4353ZM28.6465 9.41706C28.1183 9.41706 27.6002 9.56324 27.1506 9.84021L18.0301 15.1713C17.3565 15.5868 16.582 15.8056 15.7904 15.8056H15.4382C16.5495 14.7182 17.2419 13.2052 17.2419 11.5314C17.2419 9.50289 16.2255 7.71027 14.6774 6.62805V2.99972H48V22.6443H18.2848C18.5464 22.3417 18.8482 22.0698 19.1935 21.8458C19.1935 21.8458 30.1102 15.0558 30.1964 15C31.1615 14.3754 31.5 13.3642 31.5 12.2705C31.5 10.6976 30.2203 9.41706 28.6465 9.41706Z"
    fill="#3558A2" />
  <path fill-rule="evenodd" clip-rule="evenodd"
    d="M48.1376 32.5307C48.1376 34.4135 47.1859 36.0783 45.7385 37.0778C48.9933 38.3403 51.31 41.4881 51.31 45.1723V49.1229H18V45.1723C18 41.4881 20.3166 38.3403 23.5715 37.0778C22.1241 36.0783 21.1724 34.4135 21.1724 32.5307C21.1724 29.4817 23.6635 27 26.724 27C29.7846 27 32.2757 29.4817 32.2757 32.5307C32.2757 34.4135 31.324 36.0783 29.8766 37.0778C31.9965 37.8995 33.7128 39.5215 34.655 41.5726C35.5972 39.5215 37.3134 37.9002 39.4334 37.0778C37.986 36.0783 37.0343 34.4135 37.0343 32.5307C37.0343 29.4817 39.5254 27 42.5859 27C45.6465 27 48.1376 29.4817 48.1376 32.5307ZM42.5859 28.5802C40.3994 28.5802 38.6205 30.3524 38.6205 32.5307C38.6205 34.709 40.3994 36.4812 42.5859 36.4812C44.7725 36.4812 46.5514 34.709 46.5514 32.5307C46.5514 30.3524 44.7725 28.5802 42.5859 28.5802ZM26.724 28.5802C24.5375 28.5802 22.7586 30.3524 22.7586 32.5307C22.7586 34.709 24.5375 36.4812 26.724 36.4812C28.9106 36.4812 30.6895 34.709 30.6895 32.5307C30.6895 30.3524 28.9106 28.5802 26.724 28.5802ZM19.5862 45.1723V47.5427H33.8619V45.1723C33.8619 41.2511 30.6602 38.0614 26.724 38.0614C22.7879 38.0614 19.5862 41.2511 19.5862 45.1723ZM35.4481 45.1723V47.5427H49.7238V45.1723C49.7238 41.2511 46.5221 38.0614 42.5859 38.0614C38.6498 38.0614 35.4481 41.2511 35.4481 45.1723Z"
    fill="#3558A2" />
  <path fill-rule="evenodd" clip-rule="evenodd"
    d="M27.5004 16.6783C28.7189 18.4554 30.7619 19.6667 32.9998 19.6667C34.5978 19.6667 36.0658 19.1 37.2158 18.1587L32.3331 13.276V6.36733C30.0763 6.5923 28.1471 7.9473 27.1217 9.85699L25.2686 10.9402C26.1795 7.52383 29.3004 5 32.9998 5C37.4111 5 40.9998 8.58867 40.9998 13C40.9998 17.4113 37.4111 21 32.9998 21C30.4291 21 27.9362 19.4933 26.4347 17.3413C26.8041 17.1114 27.1619 16.8888 27.5004 16.6783ZM38.1585 17.216L34.6091 13.6667H39.6325C39.4991 15.0053 38.9671 16.2287 38.1585 17.216ZM33.6665 12.3333V6.36733C36.8111 6.68133 39.3191 9.18867 39.6325 12.3333H33.6665Z"
    fill="#E1000F" />
</svg>
  