<svg width="52" height="52" viewBox="0 0 52 52" fill="none" xmlns="http://www.w3.org/2000/svg">
  <path
    d="M30 17H10C7.23857 17 5 19.2386 5 22V31C5 33.7614 7.23857 36 10 36H16V34H10C8.34315 34 7 32.6569 7 31L7 22C7 20.3431 8.34315 19 10 19L30 19V17Z"
    fill="#3558A2"/>
  <path
    d="M35 19L41 19C42.6569 19 44 20.3431 44 22V31C44 32.6569 42.6569 34 41 34L21 34V36L41 36C43.7614 36 46 33.7614 46 31V22C46 19.2386 43.7614 17 41 17H35V19Z"
    fill="#3558A2"/>
  <path
    d="M16 11C16 8.23858 18.2386 6 21 6H30C32.7614 6 35 8.23858 35 11V31H33V11C33 9.34315 31.6569 8 30 8H21C19.3431 8 18 9.34315 18 11V17H16V11Z"
    fill="#E1000F"/>
  <path
    d="M33 36V42C33 43.6569 31.6569 45 30 45H21C19.3431 45 18 43.6569 18 42V22H16L16 42C16 44.7614 18.2386 47 21 47H30C32.7614 47 35 44.7614 35 42V36H33Z"
    fill="#E1000F"/>
</svg>
