<svg width="52" height="52" viewBox="0 0 52 52" fill="none" xmlns="http://www.w3.org/2000/svg">
  <path
    d="M29.4586 7.91319L29.8899 5.63634C29.9786 5.1662 29.6545 4.71509 29.1669 4.6303C28.6793 4.54492 28.2108 4.85642 28.1222 5.32656V5.32599L27.6915 7.60053C26.4293 7.4194 25.1731 7.32537 23.9325 7.32537C18.3087 7.32595 12.9993 9.13151 8.76231 12.2546C4.52469 15.376 1.35515 19.8224 0.0252774 25.0897C-0.0717675 25.4756 0.116931 25.8771 0.482946 26.0611C0.848961 26.2451 1.29884 26.1649 1.57201 25.8673C2.87492 24.4476 4.80144 23.5766 6.88072 23.5772C7.31203 23.5772 7.74873 23.6135 8.18903 23.6914L8.35137 22.8405L8.18963 23.692C11.0447 24.1921 13.1797 26.229 13.8254 28.7008C13.9117 29.029 14.1896 29.28 14.5371 29.3405C14.8833 29.4011 15.2356 29.2604 15.4356 28.9823C17.192 26.5399 20.1693 24.9985 23.4167 24.9997C23.7384 24.9997 24.0625 25.0176 24.3883 25.0481L23.5425 29.5142L20.1525 47.425C16.0419 47.4475 12.2338 47.7382 9.07801 48.2303C7.43304 48.4864 5.96478 48.7956 4.71159 49.1538C3.45839 49.5132 2.42324 49.9136 1.62292 50.3912C1.2012 50.6439 1.0718 51.1763 1.33359 51.5824C1.59537 51.9885 2.14948 52.1137 2.57061 51.861C3.15527 51.5097 4.06762 51.1411 5.22317 50.8129C8.69822 49.8172 14.3376 49.1487 20.6671 49.1515C24.8897 49.1515 28.7985 49.4452 31.9704 49.9389C33.5555 50.1858 34.956 50.4829 36.1122 50.8135C37.2677 51.1417 38.1795 51.5103 38.7642 51.8622C39.1859 52.1143 39.7394 51.9897 40.0012 51.5841C40.263 51.1786 40.1348 50.6444 39.713 50.3924C38.9121 49.9147 37.8776 49.5138 36.6238 49.1544C33.1284 48.1588 27.9071 47.5167 21.979 47.4319L25.3115 29.8257L26.1549 25.3723C29.6102 26.3109 32.1627 28.9292 32.9774 32.0627C33.0631 32.3915 33.3404 32.643 33.6879 32.7036C34.0341 32.7642 34.3864 32.6246 34.5876 32.346C35.8624 30.5767 38.0237 29.4588 40.3828 29.46C40.8153 29.46 41.2532 29.4963 41.6941 29.5747H41.6959C44.2646 30.0247 46.2468 31.7201 47.0908 33.8585C47.237 34.2306 47.6294 34.4578 48.0391 34.4105C48.4489 34.3627 48.773 34.0506 48.8233 33.6566C48.9419 32.7227 49 31.7922 49 30.8704C48.997 20.0335 40.974 10.3608 29.4586 7.91319ZM8.51251 21.9891C7.96319 21.8922 7.41746 21.846 6.88012 21.846C5.35136 21.8466 3.89449 22.2296 2.61494 22.9011C4.10715 19.1654 6.6453 15.9938 9.85317 13.6287C13.6978 10.7957 18.4997 9.13267 23.597 9.06344C23.503 9.1292 23.4083 9.19266 23.3149 9.26246C21.2973 10.7779 19.4432 13.2139 17.8414 16.2995C16.4468 18.994 15.2535 22.1887 14.3819 25.7058C13.091 23.8258 11.0201 22.4304 8.51251 21.9891ZM25.5433 23.456H25.5451C24.8298 23.3291 24.1176 23.2691 23.4167 23.2691C20.7474 23.2703 18.2326 24.1488 16.2426 25.6613C17.4065 21.1509 19.1156 17.2323 21.0337 14.3792C22.1264 12.7513 23.2873 11.4736 24.4177 10.6279C25.5523 9.77875 26.6306 9.37552 27.5986 9.37783C27.8005 9.37783 28 9.39456 28.1988 9.42975C28.971 9.56646 29.6833 9.95757 30.3608 10.6411C31.3738 11.6628 32.252 13.3518 32.848 15.5312C33.4471 17.7088 33.7747 20.3658 33.7735 23.3089C33.7741 25.0141 33.6627 26.8168 33.4357 28.6795C31.7847 26.0386 28.9788 24.0588 25.5433 23.456ZM42.0164 27.8713H42.0182C41.467 27.7738 40.9195 27.7276 40.3816 27.7282C38.4545 27.7282 36.6376 28.331 35.1549 29.3665C35.4317 27.2685 35.5713 25.2339 35.5719 23.3089C35.5695 19.2196 34.9752 15.6188 33.8316 12.8753C33.4854 12.0481 33.0804 11.308 32.627 10.6469C41.3347 13.9413 47.1328 21.925 47.1975 30.7169C45.9119 29.2834 44.1184 28.2399 42.0164 27.8713Z"
    fill="#3558A2"/>
  <path
    d="M23.5425 29.5144L24.3883 25.0483L26.1549 25.3725L25.3114 29.8259L21.979 47.4321C27.9071 47.5169 33.1283 48.1589 36.6237 49.1546C37.8775 49.5139 38.9121 49.9149 39.713 50.3925C40.1347 50.6446 40.2629 51.1787 40.0012 51.5843C39.7394 51.9898 39.1859 52.1144 38.7641 51.8623C38.1795 51.5104 37.2677 51.1418 36.1122 50.8136C34.956 50.4831 33.5555 50.186 31.9704 49.9391C28.7985 49.4453 24.8897 49.1517 20.6671 49.1517C14.3376 49.1488 8.69822 49.8174 5.22317 50.813C4.06762 51.1412 3.15528 51.5099 2.57062 51.8612C2.14949 52.1138 1.59538 51.9886 1.33359 51.5825C1.07181 51.1764 1.20121 50.644 1.62293 50.3913C2.42325 49.9137 3.4584 49.5134 4.71159 49.154C5.96479 48.7957 7.43304 48.4866 9.07801 48.2304C12.2338 47.7384 16.0419 47.4476 20.1525 47.4251L23.5425 29.5144Z"
    fill="#E1000F"/>
</svg>
