<svg width="52" height="52" viewBox="0 0 52 52" fill="none" xmlns="http://www.w3.org/2000/svg">
  <path fill-rule="evenodd" clip-rule="evenodd"
    d="M43.0377 33.6754C46.3666 33.6754 49.0754 31.0568 49.0754 27.8377C49.0754 24.6186 46.3671 22 43.0377 22C39.7083 22 37 24.6186 37 27.8377C37 31.0568 39.7089 33.6754 43.0377 33.6754ZM43.0377 24.0167C45.2168 24.0167 46.9897 25.7308 46.9897 27.8377C46.9897 29.9446 45.2168 31.6588 43.0377 31.6588C40.8586 31.6588 39.0857 29.9446 39.0857 27.8377C39.0857 25.7308 40.8586 24.0167 43.0377 24.0167Z"
    fill="#3558A2" />
  <path fill-rule="evenodd" clip-rule="evenodd"
    d="M45.5025 35.001L42.259 35C40.8049 35 39.4224 35.5903 38.4661 36.6181L35.7889 39.4974C35.4312 39.8821 34.9323 40.1117 34.3977 40.1655V38.7069C34.3977 36.6656 32.6267 35.0053 30.4494 35.0053H29.8111C29.4502 35.0053 29.4293 35.0053 26.2006 37.6089L22.859 35.1993C22.6592 35.0548 22.4128 34.987 22.1705 35.0029C22.0461 35.0057 21.614 35.0053 21.5899 35.0053L21.5889 35.0053C19.4172 35.0053 17.6503 36.6656 17.6503 38.7069V40.1708C17.0968 40.1271 16.5785 39.8942 16.2095 39.497L13.5329 36.6181C12.5766 35.5898 11.194 35 9.73995 35L6.49698 35.001C4.56909 35.001 3 36.473 3 38.2828V47.0389C3 47.5692 3.45795 47.9995 4.02221 47.9995C4.58647 47.9995 5.04442 47.5692 5.04442 47.0389V38.2828C5.04442 37.5321 5.69608 36.9221 6.49749 36.9221L9.74046 36.9212C10.6042 36.9212 11.4256 37.2713 11.9939 37.8827L14.6706 40.7611C15.4674 41.6184 16.6189 42.1102 17.8297 42.1102H18.6684L18.6706 42.1104L18.6736 42.1107L18.6787 42.1102H20.3439C20.7737 42.1102 21.1233 42.4387 21.1233 42.8422C21.1233 43.2456 20.7737 43.5746 20.3439 43.5746H16.0296C15.7419 43.5746 15.4654 43.4747 15.2517 43.2932L12.249 40.7471C11.8304 40.3922 11.1838 40.4234 10.8051 40.8173C10.4269 41.2111 10.4601 41.8187 10.8792 42.1741L11.769 42.9286V47.0389C11.769 47.5692 12.227 47.9995 12.7912 47.9995C13.3555 47.9995 13.8135 47.5692 13.8135 47.0389V44.6625L13.8819 44.7206C14.2106 44.9991 14.596 45.1994 15.0074 45.3301V47.0394C15.0074 47.5697 15.4654 48 16.0296 48C16.5939 48 17.0518 47.5697 17.0518 47.0394V45.4963H20.3439C20.3874 45.4963 20.4301 45.4934 20.4728 45.4906L20.5115 45.4881C20.5258 45.4889 20.5399 45.4901 20.5542 45.4912C20.5816 45.4935 20.6097 45.4958 20.6403 45.4958H31.4093C31.4394 45.4958 31.4699 45.4941 31.5002 45.4925L31.5386 45.4905C31.5543 45.4911 31.5699 45.4921 31.5856 45.4931C31.6091 45.4947 31.6327 45.4963 31.6567 45.4963H34.9487V47.0394C34.9487 47.5697 35.4066 48 35.9709 48C36.5352 48 36.9931 47.5697 36.9931 47.0394V45.3301C37.4046 45.1994 37.7894 44.9991 38.1186 44.7206L38.1871 44.6625V47.0394C38.1871 47.5697 38.645 48 39.2093 48C39.7735 48 40.2315 47.5697 40.2315 47.0394V42.9286L41.1213 42.1741C41.5404 41.8187 41.5736 41.2111 41.1954 40.8173C40.8172 40.4239 40.1712 40.3922 39.7515 40.7471L36.7483 43.2936C36.5346 43.4752 36.2581 43.5751 35.9704 43.5751H31.6561C31.2263 43.5751 30.8767 43.2461 30.8767 42.8427C30.8767 42.4392 31.2263 42.1107 31.6561 42.1107H33.3709C33.3724 42.1107 33.374 42.1112 33.376 42.1112L33.3811 42.1107H34.1703C35.3811 42.1107 36.5326 41.6194 37.3289 40.762L40.0056 37.8832C40.5739 37.2722 41.3953 36.9216 42.259 36.9216L45.5025 36.9226C46.3034 36.9226 46.9556 37.533 46.9556 38.2833V47.0394C46.9556 47.5697 47.4135 48 47.9778 48C48.542 48 49 47.5697 49 47.0394V38.2828C48.9995 36.473 47.4304 35.001 45.5025 35.001ZM28.8323 42.8422C28.8323 43.0962 28.8727 43.3417 28.9442 43.5741H23.0553C23.1268 43.3412 23.1672 43.0962 23.1672 42.8422C23.1672 41.3792 21.9002 40.189 20.3433 40.189H19.6953V38.7069C19.6953 37.7252 20.5452 36.9264 21.5894 36.9264C21.6865 36.9264 21.7887 36.9264 21.8925 36.924L25.6149 39.6079C25.9977 39.8841 26.5359 39.8701 26.9029 39.5748C26.9029 39.5748 29.3485 37.6017 30.1883 36.9264H30.4499C31.4998 36.9264 32.3538 37.7252 32.3538 38.7069V40.189H31.6567C30.0993 40.189 28.8323 41.3792 28.8323 42.8422Z"
    fill="#3558A2" />
  <path fill-rule="evenodd" clip-rule="evenodd"
    d="M15.0774 28.1912C15.0774 31.4103 12.3685 34.0289 9.03966 34.0289C5.71081 34.0289 3.00195 31.4103 3.00195 28.1912C3.00195 24.9721 5.71029 22.3535 9.03966 22.3535C12.369 22.3535 15.0774 24.9721 15.0774 28.1912ZM12.9916 28.1912C12.9916 26.0843 11.2187 24.3702 9.03966 24.3702C6.86058 24.3702 5.0877 26.0843 5.0877 28.1912C5.0877 30.2981 6.86058 32.0123 9.03966 32.0123C11.2187 32.0123 12.9916 30.2981 12.9916 28.1912Z"
    fill="#3558A2" />
  <path
    d="M19.7585 15.4755C19.4832 15.4755 19.2172 15.3701 19.0212 15.18L16.0427 12.3008C15.6355 11.907 15.6355 11.2687 16.0427 10.875C16.4495 10.4812 17.1101 10.4812 17.5174 10.875L19.625 12.9123L22.691 8.76255C23.0263 8.30881 23.6771 8.20394 24.1459 8.52812C24.6146 8.85179 24.7231 9.48149 24.3883 9.93423L20.6069 15.053C20.4291 15.294 20.1501 15.4472 19.8445 15.4719C19.8158 15.4745 19.7872 15.4755 19.7585 15.4755Z"
    fill="#E1000F" />
  <path fill-rule="evenodd" clip-rule="evenodd"
    d="M14.1018 22.3891C14.2921 22.5409 14.5268 22.6185 14.764 22.6185C14.9241 22.6185 15.0858 22.5827 15.2344 22.5096L20.7423 19.8154H22.585C27.0934 19.8154 30.7612 16.2692 30.7612 11.9052C30.7612 7.54624 27.0934 4 22.585 4H17.7357C13.2274 4 9.55957 7.54624 9.55957 11.9102C9.55957 15.0814 11.4696 17.8674 14.3995 19.1272L13.7592 21.338C13.6476 21.7236 13.7822 22.1355 14.1018 22.3891ZM11.6453 11.9052C11.6453 8.65841 14.3771 6.01663 17.7357 6.01663H22.585C25.9431 6.01663 28.6754 8.65791 28.6754 11.9102C28.6754 15.157 25.9431 17.7988 22.585 17.7988H20.4941C20.4883 17.7988 20.4826 17.7996 20.477 17.8003C20.4715 17.8011 20.4661 17.8018 20.4607 17.8018C20.4237 17.8028 20.3872 17.8074 20.3502 17.8124L20.3394 17.8138C20.3098 17.8178 20.2805 17.8218 20.2516 17.8285C20.2229 17.8352 20.1947 17.8446 20.1661 17.8542L20.1614 17.8558C20.1244 17.8679 20.0879 17.8805 20.0524 17.8966C20.0475 17.8989 20.0425 17.9005 20.0376 17.9021C20.0326 17.9038 20.0277 17.9054 20.0227 17.9077L16.406 19.6763L16.6636 18.7864C16.669 18.7681 16.6716 18.7497 16.6742 18.7314C16.6755 18.7215 16.6769 18.7116 16.6787 18.7017C16.6807 18.6914 16.683 18.681 16.6852 18.6706C16.6905 18.6457 16.6958 18.6208 16.698 18.5959C16.6999 18.5732 16.6991 18.551 16.6983 18.5288C16.698 18.5199 16.6977 18.511 16.6975 18.5021L16.6974 18.4743C16.6974 18.4488 16.6974 18.4234 16.6944 18.3982C16.6917 18.3745 16.686 18.3519 16.6803 18.329L16.6746 18.3055C16.6725 18.2964 16.6707 18.2873 16.6688 18.2782C16.664 18.2546 16.6592 18.2311 16.6516 18.2082C16.6445 18.1864 16.6347 18.1655 16.6249 18.1446C16.6211 18.1364 16.6172 18.1282 16.6136 18.1199C16.609 18.11 16.6048 18.1 16.6006 18.09C16.5921 18.0699 16.5837 18.0499 16.5729 18.0307C16.5611 18.01 16.5473 17.991 16.5334 17.9718L16.5181 17.9505L16.5028 17.9282C16.4895 17.9087 16.4762 17.8891 16.4608 17.8709C16.4448 17.852 16.4264 17.8351 16.4079 17.8181L16.3893 17.8008L16.371 17.7827C16.3541 17.7658 16.3371 17.749 16.3179 17.7337C16.2995 17.7194 16.2794 17.7069 16.2593 17.6943C16.2498 17.6884 16.2402 17.6824 16.2308 17.6763C16.223 17.6713 16.2153 17.6662 16.2076 17.661C16.1881 17.6481 16.1687 17.6352 16.1474 17.6243C16.1243 17.6125 16.0996 17.6033 16.0746 17.5941L16.0478 17.584C16.0371 17.5799 16.0268 17.5753 16.0165 17.5707C15.9992 17.5629 15.9818 17.5551 15.9628 17.5497C13.4213 16.8011 11.6453 14.4819 11.6453 11.9052Z"
    fill="#E1000F" />
  <path fill-rule="evenodd" clip-rule="evenodd"
    d="M26.4879 34.0289C29.8167 34.0289 32.5256 31.4103 32.5256 28.1912C32.5256 24.9721 29.8173 22.3535 26.4879 22.3535C23.1585 22.3535 20.4502 24.9721 20.4502 28.1912C20.4502 31.4103 23.1591 34.0289 26.4879 34.0289ZM26.4879 24.3702C28.667 24.3702 30.4399 26.0843 30.4399 28.1912C30.4399 30.2981 28.667 32.0123 26.4879 32.0123C24.3088 32.0123 22.5359 30.2981 22.5359 28.1912C22.5359 26.0843 24.3093 24.3702 26.4879 24.3702Z"
    fill="#E1000F" />
</svg>
  