<svg width="52" height="52" viewBox="0 0 52 52" fill="none" xmlns="http://www.w3.org/2000/svg">
  <path
    d="M43.8475 0H13.448C9.8925 0 7 2.8927 7 6.4482V45.5518C7 49.1074 9.8926 52 13.4482 52H43.8476C44.4859 52 45.0033 51.4826 45.0033 50.8443C45.0033 50.8198 45.0011 50.7959 44.9997 50.7717C45.0012 50.7475 45.0033 50.7237 45.0033 50.6991V1.15568C45.0032 0.517359 44.4857 0 43.8475 0ZM12 50C10.2797 49.4984 9 47.4318 9 45.5519L8.9999 11C9.5 12 10.5901 12.7079 12 12.908V50ZM13.448 11C11.167 11 8.9999 8.72909 8.9999 6.4482C8.9999 4.16731 11.1671 2 13.448 2H40.5C39 2 37 4.5 37 6.5C37 8.5 39.5 11 41 11H13.448ZM35 13.0137V19.6768L33.6896 18.632C33.49 18.4833 33.2478 18.4031 32.9989 18.4032C32.7501 18.4033 32.5079 18.4837 32.3085 18.6325L30.9646 19.6754V13L35 13.0137ZM43 49.9863L14 50V13.0137H29V21.9925C29 22.2069 29.0596 22.4171 29.1721 22.5996C29.2847 22.782 29.4458 22.9296 29.6374 23.0257C29.8291 23.1218 30.0437 23.1627 30.2572 23.1439C30.4708 23.125 30.6749 23.0471 30.8467 22.9189L33 21L35.154 22.8915C35.3259 23.0195 35.5299 23.0973 35.7435 23.116C35.957 23.1347 36.1715 23.0937 36.363 22.9975C36.5545 22.9013 36.7155 22.7538 36.828 22.5714C36.9405 22.389 37.0001 22.1788 37 21.9645V13H43V49.9863ZM43 10.4059C42 10.4059 38.5 9.39631 38.5 6.4482C38.5 3.5001 42 2.5 42.9999 2.46309L43 10.4059Z"
    fill="#3558A2"/>
  <path
    d="M20 32C20 31.4477 20.4477 31 21 31H36C36.5523 31 37 31.4477 37 32C37 32.5523 36.5523 33 36 33H21C20.4477 33 20 32.5523 20 32Z"
    fill="#E1000F"/>
  <path
    d="M18 37C18 36.4477 18.4477 36 19 36H38C38.5523 36 39 36.4477 39 37C39 37.5523 38.5523 38 38 38H19C18.4477 38 18 37.5523 18 37Z"
    fill="#E1000F"/>
</svg>
