<svg width="52" height="52" viewBox="0 0 52 52" fill="none" xmlns="http://www.w3.org/2000/svg">
  <path fill-rule="evenodd" clip-rule="evenodd"
        d="M17.709 34.4565C20.2298 33.3976 22 30.9055 22 28C22 24.134 18.866 21 15 21C11.134 21 8 24.134 8 28C8 30.9032 9.76743 33.3937 12.285 34.454C10.9557 34.4533 9.98561 34.4528 9.96664 34.4536L9.54988 34.4826C4.55691 34.9323 1 39.152 1 44.2751V49.0318C1 49.5668 1.4324 50.0006 1.96583 50.0006H36.5427H46.3298C48.3535 50.0006 50 48.3492 50 46.3193C50 45.2468 49.5402 44.2803 48.8081 43.6068C49.5402 42.9334 50 41.9668 50 40.8943C50 39.8218 49.5402 38.8553 48.8081 38.1818C49.5401 37.5084 50 36.5418 50 35.4693C50 33.4395 48.3535 31.7881 46.3298 31.7881H36.5427C34.519 31.7881 32.8725 33.4395 32.8725 35.4693C32.8725 36.5418 33.3324 37.5084 34.0645 38.1818C33.3325 38.8553 32.8725 39.8218 32.8725 40.8943C32.8725 41.9668 33.3324 42.9334 34.0645 43.6068C33.3325 44.2803 32.8725 45.2468 32.8725 46.3193C32.8718 46.9282 33.0227 47.5275 33.3113 48.0631H29V44.2751C29 39.1519 25.3823 34.9322 20.3893 34.4826C20.3893 34.4826 19.9818 34.454 19.9726 34.4536C20.0461 34.4561 19.0736 34.4567 17.709 34.4565ZM20 28C20 30.7614 17.7614 33 15 33C12.2386 33 10 30.7614 10 28C10 25.2386 12.2386 23 15 23C17.7614 23 20 25.2386 20 28ZM17.6301 35.9996L15 38.9996L12.5 35.9996H17.6301ZM27 48.0631H3V45.275L3.05747 43.3375C3.48437 39.737 6.35114 36.4934 9.93912 36.059L14.3171 41.0076C14.4067 41.0977 14.5131 41.1691 14.6303 41.2178C14.7475 41.2665 14.8731 41.2915 15 41.2913C15.1269 41.2915 15.2525 41.2665 15.3697 41.2178C15.4869 41.1691 15.5934 41.0977 15.6829 41.0076L19.9987 36.059C23.8933 36.5305 27 40.2436 27 44.2751V48.0631ZM46.3298 48.0631H36.5427C35.5841 48.0631 34.8042 47.2808 34.8042 46.3193C34.8042 45.3578 35.5841 44.5756 36.5427 44.5756H46.3298C47.2884 44.5756 48.0683 45.3578 48.0683 46.3193C48.0683 47.2808 47.2884 48.0631 46.3298 48.0631ZM46.3298 42.6381H36.5427C35.5841 42.6381 34.8042 41.8558 34.8042 40.8943C34.8042 39.9329 35.5841 39.1506 36.5427 39.1506H46.3298C47.2884 39.1506 48.0683 39.9329 48.0683 40.8943C48.0683 41.8558 47.2884 42.6381 46.3298 42.6381ZM46.3298 37.2131H36.5427C35.5841 37.2131 34.8042 36.4308 34.8042 35.4693C34.8042 34.5079 35.5841 33.7256 36.5427 33.7256H46.3298C47.2884 33.7256 48.0683 34.5079 48.0683 35.4693C48.0683 36.4308 47.2884 37.2131 46.3298 37.2131Z"
        fill="#3558A2"/>
  <path fill-rule="evenodd" clip-rule="evenodd"
        d="M38.311 11.6394L41.7118 3.67589C41.8013 3.46644 41.8114 3.2318 41.7403 3.01548C41.6692 2.79917 41.5218 2.61587 41.3253 2.49957L39.6565 1.51189C38.3482 0.737388 36.6772 0.86133 35.4984 1.81986L35.2408 2.02929C34.6003 2.55035 33.6706 2.55035 33.0294 2.02891L33.0191 2.02054C31.684 0.934868 29.7473 0.936467 28.414 2.02468C27.7731 2.54781 26.8422 2.54838 26.2006 2.02656L25.939 1.81366C24.7658 0.85945 23.1004 0.732216 21.7948 1.49712L20.0814 2.50089C19.8833 2.6169 19.7346 2.80084 19.6629 3.01824C19.5913 3.23565 19.6017 3.47161 19.6922 3.68191L23.1143 11.6327C20.6389 12.5228 18.0782 14.9695 16.6924 17.2059C16.4184 17.6478 16.5562 18.2273 17.0001 18.5C17.4439 18.7726 18.0257 18.6354 18.2997 18.1934C19.4903 16.2737 21.7607 14.0799 23.9038 13.3471H37.4993C41.4604 14.698 44.1113 18.3838 44.1113 22.5646V25.0596C44.1113 25.5789 44.5341 26 45.0557 26C45.5773 26 46.0001 25.5789 46.0001 25.0596V22.5646C46.0001 17.6474 42.9258 13.3058 38.311 11.6394ZM36.3324 11.4663H25.0973L21.7555 3.70204L22.7524 3.11815C23.3797 2.75046 24.1802 2.81168 24.7441 3.27031L25.0057 3.48312C26.3409 4.56916 28.2778 4.56756 29.6113 3.47926C30.252 2.95622 31.1828 2.95556 31.8251 3.47776L31.8353 3.48612C33.1681 4.56992 35.1027 4.56992 36.4354 3.48594L36.6929 3.27651C37.2595 2.81591 38.0624 2.75639 38.6913 3.1285L39.6506 3.6963L36.3324 11.4663Z"
        fill="#E1000F"/>
  <path
    d="M45.0001 30C45.5523 30 46.0001 29.5523 46.0001 29C46.0001 28.4477 45.5523 28 45.0001 28C44.4478 28 44.0001 28.4477 44.0001 29C44.0001 29.5523 44.4478 30 45.0001 30Z"
    fill="#E1000F"/>
  <path
    d="M38.4954 20.583C37.9446 20.583 37.4935 20.7471 37.1419 21.0752C36.7942 21.4033 36.5618 21.8994 36.4446 22.5635H39.0001C39.0001 22.5635 39.5665 22.5322 39.5665 22.999C39.5665 23.4658 39.0001 23.4658 39.0001 23.4658H36.3567L36.345 23.7295V24.0518L36.3567 24.2803H38.6597C38.6597 24.2803 39.2258 24.2803 39.2258 24.7285C39.2258 25.1768 38.6597 25.1768 38.6597 25.1768H36.4564C36.7064 26.3955 37.4173 27.0049 38.5892 27.0049C38.8879 27.0049 39.0942 27.0129 39.2745 27.0052C39.6714 26.9885 40.08 27.2463 40.08 27.6435C40.08 27.8604 39.957 28.0673 39.7484 28.1265C39.4316 28.2165 39.1593 28.1885 38.5188 28.1885C37.5774 28.1885 36.8118 27.9307 36.222 27.415C35.636 26.8994 35.2532 26.1533 35.0735 25.1768H34.1829C34.1829 25.1768 33.7795 25.1768 33.7795 24.7285C33.7795 24.2803 34.1829 24.2803 34.1829 24.2803H34.9798L34.9681 24.0635V23.8467L34.9798 23.4658H34.1829C34.1829 23.4658 33.6797 23.4658 33.6797 22.999C33.6797 22.5322 34.1829 22.5635 34.1829 22.5635H35.0618C35.2103 21.583 35.5833 20.8135 36.181 20.2549C36.7786 19.6963 37.5501 19.417 38.4954 19.417C39.0615 19.417 39.5315 19.4918 39.9823 19.6638C40.2803 19.7775 40.3919 20.1267 40.2612 20.4177C40.1185 20.7353 39.7432 20.863 39.4147 20.7478C39.0864 20.6327 38.7981 20.583 38.4954 20.583Z"
    fill="#E1000F"/>
</svg>
