<svg width="52" height="52" viewBox="0 0 52 52" fill="none" xmlns="http://www.w3.org/2000/svg">
  <g clip-path="url(#clip0_852_18587)">
    <path
      d="M44.3848 7.61526C39.474 2.70441 32.9448 0 26 0C19.0552 0 12.526 2.70441 7.61516 7.61526C2.70451 12.526 0 19.0552 0 26C0 32.9448 2.70451 39.474 7.61516 44.3847C12.526 49.2956 19.0552 52 26 52C32.9448 52 39.474 49.2956 44.3848 44.3847C49.2955 39.474 52 32.9448 52 26C52 19.0552 49.2955 12.526 44.3848 7.61526ZM26 49.9688C12.7836 49.9688 2.03125 39.2164 2.03125 26C2.03125 12.7836 12.7836 2.03125 26 2.03125C39.2164 2.03125 49.9688 12.7836 49.9688 26C49.9688 39.2164 39.2164 49.9688 26 49.9688Z"
      fill="#3558A2" />
    <path
      d="M34.7103 5.86026C41.376 8.74687 46.1725 14.7173 47.5416 21.8313C47.6475 22.382 47.2869 22.9145 46.7361 23.0205C46.6714 23.033 46.6068 23.0389 46.5433 23.0389C46.066 23.0389 45.6405 22.701 45.5469 22.2151C44.3049 15.7609 39.9521 10.3437 33.9032 7.72413C33.3885 7.5013 33.1519 6.9033 33.3748 6.38859C33.5977 5.87397 34.1957 5.63733 34.7103 5.86026Z"
      fill="#E1000F" />
    <path
      d="M30.6889 4.56503L30.7155 4.57082C31.263 4.693 31.6078 5.23575 31.4856 5.78327C31.3802 6.25615 30.9605 6.5779 30.4954 6.5779C30.4206 6.57789 30.3461 6.56965 30.2731 6.55332L30.2613 6.55068C29.7129 6.43256 29.3642 5.89235 29.4823 5.34402C29.6003 4.79558 30.1409 4.44681 30.6889 4.56503Z"
      fill="#E1000F" />
    <path
      d="M6.45287 29.785C7.71398 36.3384 12.1526 41.7921 18.3262 44.3737C18.8437 44.59 19.0878 45.185 18.8713 45.7024C18.7085 46.0919 18.3312 46.3265 17.934 46.3265C17.7996 46.3265 17.6665 46.2996 17.5426 46.2476C14.2438 44.8681 11.2974 42.6709 9.0219 39.8933C6.71978 37.0834 5.1418 33.7207 4.45819 30.1688C4.35226 29.6181 4.7128 29.0856 5.26368 28.9796C5.81516 28.8731 6.34695 29.2343 6.45287 29.785Z"
      fill="#E1000F" />
    <path
      d="M21.6782 45.4361L21.741 45.4499C22.289 45.5693 22.6366 46.1103 22.5172 46.6584C22.4137 47.1335 21.9932 47.458 21.5259 47.458C21.4529 47.458 21.3801 47.4501 21.3087 47.4346L21.2376 47.4189C20.69 47.2972 20.3448 46.7547 20.4665 46.2072C20.5881 45.6597 21.1311 45.3145 21.6782 45.4361Z"
      fill="#E1000F" />
    <path
      d="M45.4497 30.259C45.5693 29.711 46.1108 29.3633 46.6582 29.4829C47.2062 29.6023 47.5537 30.1433 47.4344 30.6914C46.5222 34.8777 44.4111 38.6818 41.3295 41.6926C38.2432 44.708 34.3838 46.7306 30.1687 47.5417C30.104 47.5542 30.0393 47.5602 29.9758 47.5602C29.4985 47.5602 29.073 47.2223 28.9794 46.7363C28.8735 46.1855 29.2341 45.6531 29.7849 45.5471C33.6069 44.8145 37.1293 42.9748 39.9144 40.2567C42.6994 37.5387 44.6243 34.0621 45.4497 30.259Z"
      fill="#E1000F" />
    <path
      d="M21.8311 4.45839C22.3819 4.35185 22.9143 4.71301 23.0204 5.26378C23.1263 5.81455 22.7657 6.34705 22.2149 6.45298C18.3929 7.18564 14.8705 9.02533 12.0855 11.7434C9.30045 14.4615 7.37561 17.9381 6.55017 21.7411C6.44668 22.2163 6.02611 22.5407 5.55882 22.5407C5.48722 22.5407 5.4144 22.5331 5.34158 22.5172C4.79355 22.3978 4.4461 21.8568 4.56544 21.3087C5.47757 17.1224 7.58865 13.3183 10.6703 10.3075C13.7566 7.29209 17.616 5.26947 21.8311 4.45839Z"
      fill="#E1000F" />
    <path fill-rule="evenodd" clip-rule="evenodd"
      d="M27.016 22.6994V14.0498C27.016 13.4889 26.5612 13.0342 26.0004 13.0342C25.4395 13.0342 24.9847 13.4889 24.9847 14.0498V22.6991C23.8957 23.0348 23.0348 23.8957 22.6991 24.9847H18.9248C18.364 24.9847 17.9092 25.4394 17.9092 26.0004C17.9092 26.5613 18.364 27.016 18.9248 27.016H22.6994C23.1342 28.4258 24.4494 29.4531 26 29.4531C27.9041 29.4531 29.4531 27.9041 29.4531 26C29.4531 24.4494 28.4258 23.1342 27.016 22.6994ZM25.9791 24.5783C25.9862 24.5784 25.9933 24.5785 26.0004 24.5785C26.0074 24.5785 26.0144 24.5784 26.0213 24.5783C26.7956 24.5897 27.4219 25.2231 27.4219 26C27.4219 26.7841 26.7841 27.4219 26 27.4219C25.2231 27.4219 24.5897 26.7956 24.5783 26.0213C24.5784 26.0144 24.5785 26.0074 24.5785 26.0004C24.5785 25.9933 24.5784 25.9862 24.5783 25.9791C24.5894 25.2116 25.2116 24.5894 25.9791 24.5783Z"
      fill="#E1000F" />
    <path
      d="M24.9998 5.07812C24.9998 4.5172 25.4546 4.0625 26.0154 4.0625C26.5763 4.0625 27.0311 4.5172 27.0311 5.07812V7.35394C27.0311 7.91487 26.5764 8.36956 26.0154 8.36956C25.4546 8.36956 24.9998 7.91487 24.9998 7.35394V5.07812Z"
      fill="#E1000F" />
    <path
      d="M24.9689 43.9221C24.9689 43.3612 25.4237 42.9065 25.9846 42.9065C26.5454 42.9065 27.0002 43.3612 27.0002 43.9221V46.9219C27.0002 47.4828 26.5454 47.9375 25.9846 47.9375C25.4237 47.9375 24.9689 47.4828 24.9689 46.9219V43.9221Z"
      fill="#E1000F" />
    <path
      d="M44.1797 24.9998H46.9219C47.4827 24.9998 47.9375 25.4545 47.9375 26.0154C47.9375 26.5764 47.4827 27.0311 46.9219 27.0311H44.1797C43.6189 27.0311 43.1641 26.5764 43.1641 26.0154C43.1641 25.4545 43.6189 24.9998 44.1797 24.9998Z"
      fill="#E1000F" />
    <path
      d="M5.07812 24.9689H8.02344C8.58427 24.9689 9.03906 25.4236 9.03906 25.9846C9.03906 26.5455 8.58427 27.0002 8.02344 27.0002H5.07812C4.5173 27.0002 4.0625 26.5455 4.0625 25.9846C4.0625 25.4236 4.5173 24.9689 5.07812 24.9689Z"
      fill="#E1000F" />
  </g>
  <defs>
    <clipPath id="clip0_852_18587">
      <rect width="52" height="52" fill="white" />
    </clipPath>
  </defs>
</svg>
  