<svg width="2048" height="1792" xmlns="http://www.w3.org/2000/svg"><path d="M512 448q0-53-37.5-90.5T384 320t-90.5 37.5T256 448t37.5 90.5T384 576t90.5-37.5T512 448zm1067 576q0 53-37 90l-491 492q-39 37-91 37-53 0-90-37L155 890q-38-37-64.5-101T64 672V256q0-52 38-90t90-38h416q53 0 117 26.5T827 219l715 714q37 39 37 91zm384 0q0 53-37 90l-491 492q-39 37-91 37-36 0-59-14t-53-45l470-470q37-37 37-90 0-52-37-91L987 219q-38-38-102-64.5T768 128h224q53 0 117 26.5t102 64.5l715 714q37 39 37 91z" fill="#fff"/></svg>