<svg width="1792" height="1792" xmlns="http://www.w3.org/2000/svg"><path d="M711 1128l484-250-484-253v503zm185-862q168 0 324.5 4.5T1450 280l73 4q1 0 17 1.5t23 3 23.5 4.5 28.5 8 28 13 31 19.5 29 26.5q6 6 15.5 18.5t29 58.5 26.5 101q8 64 12.5 136.5T1792 788v176q1 145-18 290-7 55-25 99.5t-32 61.5l-14 17q-14 15-29 26.5t-31 19-28 12.5-28.5 8-24 4.5-23 3-16.5 1.5q-251 19-627 19-207-2-359.5-6.5T336 1512l-49-4-36-4q-36-5-54.5-10t-51-21-56.5-41q-6-6-15.5-18.5t-29-58.5T18 1254q-8-64-12.5-136.5T0 1004V828q-1-145 18-290 7-55 25-99.5T75 377l14-17q14-15 29-26.5t31-19.5 28-13 28.5-8 23.5-4.5 23-3 17-1.5q251-18 627-18z" fill="#fff"/></svg>