<svg xmlns="http://www.w3.org/2000/svg" viewBox="0 0 512 512" fill="#4c5467"><path d="M349.299 329.582l-87.852-74.903 87.619-72.185a14.268 14.268 0 0 0 5.213-10.995 14.27 14.27 0 0 0-5.131-11.032l-92.464-77.319c-4.311-3.606-10.151-4.371-15.243-1.99-5.091 2.378-8.255 7.347-8.255 12.967v136.457l-59.23-50.5c-4.627-3.945-11.577-3.391-15.522 1.234-3.945 4.628-3.392 11.578 1.235 15.523l67.497 57.55-67.355 55.49c-4.694 3.867-5.364 10.805-1.497 15.499 3.867 4.692 10.806 5.362 15.5 1.496l59.373-48.914v139.914c0 5.62 3.162 10.589 8.255 12.967a14.369 14.369 0 0 0 6.096 1.368c3.275 0 6.501-1.142 9.149-3.356l92.512-77.402a14.292 14.292 0 0 0 5.128-10.913 14.287 14.287 0 0 0-5.028-10.956zM255.208 110.62l72.689 60.782-72.689 59.885V110.62zm0 290.756V278.297l72.859 62.12-72.859 60.959z"/><path d="M437.019 74.981C388.667 26.63 324.38 0 256 0S123.333 26.63 74.981 74.981C26.628 123.333 0 187.62 0 256s26.628 132.667 74.981 181.019C123.333 485.37 187.62 512 256 512s132.667-26.63 181.019-74.981C485.372 388.667 512 324.381 512 256s-26.628-132.667-74.981-181.019zM256 489.979C126.984 489.979 22.021 385.016 22.021 256S126.984 22.021 256 22.021 489.979 126.984 489.979 256 385.016 489.979 256 489.979z"/></svg>