<svg xmlns="http://www.w3.org/2000/svg" viewBox="0 0 512 512" fill="#4c5467"><path d="M489.335 52.421H22.665C10.168 52.421 0 62.588 0 75.086v50.758c0 12.498 10.168 22.665 22.665 22.665h4.919v288.406c0 12.498 10.168 22.665 22.665 22.665h411.5c12.498 0 22.665-10.168 22.665-22.665V148.509h4.919c12.498 0 22.665-10.168 22.665-22.665V75.086c.002-12.498-10.166-22.665-22.663-22.665zM461.75 436.915H50.25V148.509h411.501l.014 288.404c0 .001-.005.002-.015.002zm27.585-311.072H22.665V75.086h466.67l.015 50.756-.015.001z"/><path d="M293.775 297.637V272.96c0-20.83-16.946-37.776-37.775-37.776s-37.776 16.946-37.776 37.776v24.677c-14.406 3.484-25.141 16.479-25.141 31.94v38.95c0 18.121 14.743 32.865 32.865 32.865h60.105c18.122 0 32.865-14.744 32.865-32.865v-38.95c-.001-15.462-10.736-28.456-25.143-31.94zm-55.152-24.677c0-9.582 7.795-17.377 17.377-17.377 9.582 0 17.376 7.796 17.376 17.377v23.752h-34.754V272.96zm59.896 95.566c0 6.874-5.593 12.466-12.466 12.466h-60.105c-6.873 0-12.466-5.591-12.466-12.466v-38.95c0-6.873 5.593-12.466 12.466-12.466h60.105c6.873 0 12.466 5.593 12.466 12.466v38.95zM190.606 182.688H92.018c-5.633 0-10.199 4.566-10.199 10.199s4.566 10.199 10.199 10.199h98.589c5.632 0 10.198-4.567 10.198-10.199.001-5.633-4.565-10.199-10.199-10.199zM141.312 227.308H92.018c-5.633 0-10.199 4.566-10.199 10.199s4.566 10.199 10.199 10.199h49.293c5.633 0 10.199-4.566 10.199-10.199s-4.565-10.199-10.198-10.199z"/></svg>