<svg xmlns="http://www.w3.org/2000/svg" viewBox="0 0 512 512" fill="#4c5467"><path d="M449.393 0H62.607C45.894 0 32.298 13.597 32.298 30.309V481.69c0 16.713 13.597 30.309 30.309 30.309h386.786c16.713 0 30.309-13.597 30.309-30.309V30.309C479.702 13.597 466.106 0 449.393 0zM56.545 30.309a6.069 6.069 0 0 1 6.062-6.062h386.786a6.069 6.069 0 0 1 6.062 6.062v105.1H56.545v-105.1zM173.35 487.751H62.607a6.068 6.068 0 0 1-6.062-6.061V335.796H173.35v151.955zm0-176.202H56.545V159.657H173.35v151.892zm141.052 176.204H197.597V335.796h116.805v151.957zm0-176.204H197.597V159.657h116.805v151.892zM455.455 481.69a6.071 6.071 0 0 1-6.062 6.063H338.649V159.657h116.806V481.69z"/><path d="M144.921 223.48h-17.85v-17.85c0-6.696-5.428-12.124-12.124-12.124s-12.124 5.428-12.124 12.124v17.85h-17.85c-6.696 0-12.124 5.429-12.124 12.124s5.428 12.124 12.124 12.124h17.85v17.851c0 6.696 5.428 12.124 12.124 12.124s12.124-5.428 12.124-12.124v-17.851h17.85c6.696 0 12.124-5.429 12.124-12.124s-5.428-12.124-12.124-12.124zM286.573 223.48h-61.147c-6.696 0-12.124 5.429-12.124 12.124s5.428 12.124 12.124 12.124h61.147c6.695 0 12.124-5.429 12.124-12.124s-5.429-12.124-12.124-12.124zM132.093 411.806l14.635-14.635c4.734-4.734 4.734-12.411 0-17.147-4.734-4.733-12.411-4.733-17.147 0l-14.635 14.635-14.635-14.635c-4.734-4.733-12.411-4.733-17.147 0-4.734 4.734-4.734 12.411 0 17.147L97.8 411.806l-14.635 14.635c-4.734 4.734-4.734 12.411 0 17.145a12.088 12.088 0 0 0 8.573 3.551c3.102 0 6.206-1.184 8.573-3.551l14.635-14.635 14.635 14.635c2.368 2.367 5.47 3.551 8.573 3.551s6.206-1.184 8.573-3.551c4.734-4.734 4.734-12.411 0-17.145l-14.634-14.635zM287.776 380.025c-4.736-4.733-12.41-4.733-17.147 0l-46.416 46.416c-4.733 4.734-4.733 12.411.001 17.147 2.368 2.367 5.47 3.551 8.573 3.551s6.206-1.185 8.573-3.551l46.416-46.416c4.734-4.735 4.734-12.412 0-17.147z"/><circle cx="232.787" cy="388.601" r="10.342"/><circle cx="279.209" cy="435.011" r="10.34"/><path d="M427.684 290.423h-61.971c-6.695 0-12.124 5.428-12.124 12.124 0 6.695 5.429 12.124 12.124 12.124h61.971c6.695 0 12.124-5.429 12.124-12.124 0-6.696-5.428-12.124-12.124-12.124zM427.684 332.739h-61.971c-6.695 0-12.124 5.429-12.124 12.124s5.429 12.124 12.124 12.124h61.971c6.695 0 12.124-5.429 12.124-12.124s-5.428-12.124-12.124-12.124z"/></svg>