<svg xmlns="http://www.w3.org/2000/svg" viewBox="0 0 512 512" fill="#4c5467"><circle cx="414.09" cy="199.328" r="12.308"/><circle cx="335.046" cy="199.328" r="12.308"/><circle cx="256.001" cy="199.328" r="12.308"/><circle cx="176.957" cy="199.328" r="12.308"/><circle cx="97.912" cy="199.328" r="12.308"/><circle cx="414.09" cy="278.373" r="12.308"/><circle cx="335.046" cy="278.373" r="12.308"/><circle cx="256.001" cy="278.373" r="12.308"/><circle cx="97.912" cy="278.373" r="12.308"/><circle cx="414.09" cy="357.417" r="12.308"/><circle cx="335.046" cy="357.417" r="12.308"/><circle cx="256.001" cy="357.417" r="12.308"/><circle cx="176.957" cy="357.417" r="12.308"/><circle cx="97.912" cy="357.417" r="12.308"/><path d="M214.1 230.65h-74.29c-5.844 0-10.58 4.736-10.58 10.58v74.291c0 5.844 4.736 10.58 10.58 10.58h74.29c5.844 0 10.58-4.736 10.58-10.58v-74.289c0-5.845-4.737-10.582-10.58-10.582zm-10.58 74.29h-53.13v-53.129h53.129v53.129z"/><path d="M476.733 89.114h-77.709V75.535c0-6.493-5.263-11.756-11.756-11.756-6.491 0-11.756 5.264-11.756 11.756v13.579h-64.001V75.535c0-6.493-5.264-11.756-11.756-11.756-6.493 0-11.756 5.264-11.756 11.756v13.579H224V75.535c0-6.493-5.263-11.756-11.756-11.756s-11.756 5.264-11.756 11.756v13.579h-64.001V75.535c0-6.493-5.263-11.756-11.756-11.756s-11.756 5.264-11.756 11.756v13.579h-77.71C15.821 89.114 0 104.934 0 124.38v288.573c0 19.446 15.821 35.267 35.267 35.267h441.467c19.446 0 35.267-15.821 35.267-35.267V124.38c-.001-19.446-15.823-35.266-35.268-35.266zm0 335.596H35.267c-6.482 0-11.756-5.274-11.756-11.756V124.38c0-6.482 5.274-11.756 11.756-11.756h77.709v13.578c0 6.491 5.263 11.756 11.756 11.756s11.756-5.264 11.756-11.756v-13.578h64.001v13.578c0 6.491 5.263 11.756 11.756 11.756s11.756-5.264 11.756-11.756v-13.578H288v13.578c0 6.491 5.263 11.756 11.756 11.756 6.491 0 11.756-5.264 11.756-11.756v-13.578h64.001v13.578c0 6.491 5.264 11.756 11.756 11.756 6.493 0 11.756-5.264 11.756-11.756v-13.578h77.709c6.482 0 11.756 5.274 11.756 11.756v288.573h.001c-.002 6.483-5.276 11.757-11.758 11.757z"/></svg>