<svg xmlns="http://www.w3.org/2000/svg" viewBox="0 0 512.001 512.001" fill="#4c5467"><path d="M405.967 195.112c-1.069-78.061-64.902-141.239-143.213-141.239-34.835 0-68.396 12.672-94.498 35.682-23.296 20.535-39.232 47.977-45.543 78.106-.461-.005-.918-.009-1.374-.009C54.434 167.652 0 222.085 0 288.991S54.434 410.33 121.34 410.33h84.743c6.029 0 10.919-4.888 10.919-10.919 0-6.031-4.89-10.919-10.919-10.919H121.34c-54.866 0-99.502-44.636-99.502-99.501s44.636-99.501 99.502-99.501c2.923 0 6.013.157 9.448.48 5.822.545 11.049-3.596 11.842-9.396 3.932-28.82 18.161-55.327 40.067-74.638 22.111-19.492 50.542-30.226 80.056-30.226 66.935 0 121.389 54.455 121.389 121.389 0 2.41-.179 4.894-.368 7.524l-.081 1.118a10.915 10.915 0 0 0 3.287 8.604 10.914 10.914 0 0 0 8.697 3.03 87.102 87.102 0 0 1 8.708-.44c47.297 0 85.778 38.48 85.778 85.778 0 47.297-38.48 85.777-85.778 85.777h-89.111c-6.029 0-10.919 4.888-10.919 10.919 0 6.031 4.89 10.919 10.919 10.919h89.111c59.339 0 107.616-48.275 107.616-107.615-.001-58.807-47.421-106.752-106.034-107.601z"/><path d="M262.755 105.192c-45.658 0-84.742 34.121-90.914 79.367-.815 5.975 3.369 11.48 9.343 12.295.501.068.998.102 1.489.102 5.375 0 10.059-3.97 10.804-9.444 4.703-34.48 34.486-60.482 69.277-60.482 6.031 0 10.919-4.888 10.919-10.919.001-6.03-4.888-10.919-10.918-10.919zM312.41 320.052l-39.718-35.48c-6.847-6.12-17.177-6.119-24.027-.001l-39.718 35.482c-4.498 4.017-4.886 10.92-.869 15.418 4.017 4.496 10.919 4.887 15.418.869l26.264-23.462v134.331c0 6.031 4.888 10.919 10.919 10.919 6.03 0 10.919-4.888 10.919-10.919V312.876l26.265 23.463a10.873 10.873 0 0 0 7.27 2.776 10.89 10.89 0 0 0 8.148-3.645c4.015-4.498 3.626-11.4-.871-15.418z"/></svg>