<svg xmlns="http://www.w3.org/2000/svg" viewBox="0 0 512.001 512.001" fill="#4c5467"><path d="M405.967 187.467c-1.069-78.061-64.902-141.239-143.213-141.239-34.835 0-68.396 12.672-94.498 35.682-23.296 20.535-39.232 47.977-45.543 78.106-.461-.005-.918-.009-1.374-.009C54.434 160.008 0 214.441 0 281.347s54.434 121.339 121.34 121.339h44.534c6.029 0 10.919-4.888 10.919-10.919 0-6.031-4.89-10.919-10.919-10.919H121.34c-54.866 0-99.502-44.636-99.502-99.501s44.636-99.501 99.502-99.501c2.923 0 6.013.157 9.448.48 5.822.54 11.049-3.596 11.842-9.396 3.932-28.82 18.161-55.327 40.067-74.638 22.111-19.492 50.542-30.226 80.056-30.226 66.935 0 121.389 54.455 121.389 121.389 0 2.41-.449 8.642-.449 8.642a10.92 10.92 0 0 0 11.984 11.634 87.102 87.102 0 0 1 8.708-.44c47.297 0 85.778 38.48 85.778 85.778 0 47.297-38.48 85.777-85.778 85.777h-48.902c-6.029 0-10.919 4.888-10.919 10.919s4.89 10.919 10.919 10.919h48.902c59.339 0 107.616-48.275 107.616-107.615-.001-58.808-47.421-106.752-106.034-107.602z"/><path d="M262.755 97.548c-45.658 0-84.742 34.121-90.914 79.367-.815 5.975 3.371 11.462 9.343 12.295 6.368.888 11.548-3.869 12.295-9.343 4.702-34.479 34.484-60.48 69.276-60.48 6.031 0 10.919-4.888 10.919-10.919 0-6.032-4.889-10.92-10.919-10.92zM313.279 410.283c-4.017-4.496-10.92-4.887-15.418-.868l-26.265 23.463V298.547c0-6.031-4.89-10.919-10.919-10.919-6.031 0-10.919 4.888-10.919 10.919v134.33l-26.264-23.463c-4.496-4.018-11.401-3.627-15.417.868-4.018 4.498-3.63 11.399.868 15.418l39.717 35.483a17.983 17.983 0 0 0 12.014 4.59 17.99 17.99 0 0 0 12.013-4.589l39.719-35.483c4.499-4.017 4.888-10.92.871-15.418z"/></svg>