<svg xmlns="http://www.w3.org/2000/svg" viewBox="0 0 512.001 512.001" fill="#4c5467"><path d="M405.968 219.011c-1.07-78.063-64.904-141.239-143.214-141.239-34.836 0-68.396 12.673-94.498 35.682-23.296 20.534-39.232 47.976-45.543 78.105-.461-.005-.918-.009-1.374-.009C54.433 191.551 0 245.983 0 312.89s54.433 121.339 121.339 121.339h283.046c59.34 0 107.615-48.275 107.616-107.614 0-58.81-47.42-106.754-106.033-107.604zm-1.583 193.38H121.339c-54.865 0-99.501-44.636-99.501-99.501s44.636-99.501 99.501-99.501c2.925 0 6.015.156 9.446.48 5.822.56 11.053-3.596 11.844-9.396 3.931-28.82 18.161-55.327 40.067-74.638 22.111-19.492 50.542-30.226 80.056-30.226 66.934 0 121.389 54.454 121.389 121.389 0 2.41-.179 4.894-.368 7.524l-.08 1.119a10.918 10.918 0 0 0 11.985 11.634 87.316 87.316 0 0 1 8.706-.44c47.297 0 85.777 38.48 85.777 85.778s-38.479 85.778-85.776 85.778z"/><path d="M262.754 129.09c-45.658 0-84.742 34.12-90.913 79.367-.815 5.976 3.369 11.48 9.343 12.295.5.069.998.102 1.489.102 5.374 0 10.059-3.97 10.805-9.445 4.703-34.479 34.485-60.481 69.275-60.481 6.031 0 10.919-4.89 10.919-10.919.001-6.03-4.887-10.919-10.918-10.919z"/></svg>