<svg xmlns="http://www.w3.org/2000/svg" viewBox="0 0 512 512" fill="#4c5467"><path d="M255.999 132.895c-88.362 0-160.25 71.888-160.25 160.25s71.888 160.25 160.25 160.25 160.25-71.888 160.25-160.25-71.888-160.25-160.25-160.25zm10.38 299.356v-13.375c0-5.733-4.647-10.38-10.38-10.38-5.733 0-10.38 4.647-10.38 10.38v13.375c-68.659-5.075-123.651-60.066-128.726-128.725h13.375c5.733 0 10.38-4.648 10.38-10.38 0-5.733-4.647-10.38-10.38-10.38h-13.375c5.075-68.66 60.066-123.651 128.726-128.726v13.375c0 5.732 4.647 10.38 10.38 10.38 5.733 0 10.38-4.648 10.38-10.38V154.04c68.659 5.075 123.651 60.066 128.725 128.726H381.73c-5.733 0-10.38 4.647-10.38 10.38 0 5.732 4.647 10.38 10.38 10.38h13.375c-5.076 68.658-60.067 123.65-128.726 128.725z"/><path d="M266.379 74.544V61.059h16.675c5.733 0 10.38-4.647 10.38-10.38v-40.3c0-5.733-4.647-10.38-10.38-10.38h-54.115c-5.733 0-10.38 4.647-10.38 10.38v40.3c0 5.733 4.647 10.38 10.38 10.38h16.682v13.485C129.745 79.982 37.145 175.949 37.145 293.145 37.145 413.822 135.322 512 256 512s218.855-98.178 218.855-218.855c0-117.196-92.601-213.163-208.476-218.601zM239.318 40.3V20.759h33.356V40.3h-33.356zm16.681 449.848c-108.628 0-197.003-88.375-197.003-197.003S147.371 96.143 255.999 96.143s197.003 88.375 197.003 197.003c.001 108.628-88.374 197.002-197.003 197.002z"/><path d="M332.41 216.738a10.382 10.382 0 0 0-11.636-2.111l-94.97 43.168c-.079.036-.153.08-.232.118a9.931 9.931 0 0 0-.471.24c-.14.076-.274.159-.41.243-.139.085-.279.168-.415.261-.161.109-.315.227-.47.345-.103.079-.209.153-.309.236a10.48 10.48 0 0 0-1.405 1.405c-.084.103-.159.21-.239.314-.117.153-.234.305-.341.464-.094.138-.179.28-.266.422-.081.132-.162.264-.237.401-.087.158-.166.318-.245.48-.037.076-.08.149-.115.226l-43.168 94.97a10.378 10.378 0 0 0 9.452 14.675c1.451 0 2.914-.305 4.293-.931l94.97-43.168c.079-.036.152-.08.229-.117.159-.078.318-.156.474-.241.139-.076.272-.158.406-.24.14-.085.281-.169.417-.263.159-.108.313-.225.465-.342.105-.08.212-.155.314-.239a10.45 10.45 0 0 0 1.403-1.403c.087-.105.165-.216.247-.323.114-.15.228-.298.334-.454.095-.14.181-.283.269-.426.08-.131.161-.261.235-.397.087-.158.167-.32.246-.482.037-.075.08-.148.115-.225l43.168-94.97a10.375 10.375 0 0 0-2.108-11.636zM207.832 341.312l25.517-56.137 30.62 30.62-56.137 25.517zm70.817-40.195l-30.62-30.62 56.137-25.517-25.517 56.137z"/></svg>