<svg xmlns="http://www.w3.org/2000/svg" viewBox="0 0 512 512" fill="#4c5467"><path d="M469.256 175.503h-52.1v-73.542c0-23.569-19.175-42.744-42.744-42.744H42.744C19.175 59.218 0 78.393 0 101.962v191.786c0 23.569 19.175 42.744 42.744 42.744h52.102v73.546c0 23.569 19.175 42.744 42.744 42.744h331.666c23.569 0 42.744-19.175 42.744-42.744V218.247c0-23.569-19.175-42.744-42.744-42.744zM24.425 101.962c0-10.101 8.218-18.319 18.319-18.319h331.668c10.101 0 18.319 8.218 18.319 18.319v17.051H24.425v-17.051zm70.421 116.285v93.819H42.744c-10.101 0-18.319-8.218-18.319-18.319v-93.743h74.52a42.471 42.471 0 0 0-4.099 18.243zm-70.421-42.668v-32.14h368.306v32.064H137.59c-.826 0-1.644.029-2.458.076H24.425zm444.831 252.778H137.59c-10.101 0-18.319-8.218-18.319-18.319V218.247c0-9.597 7.422-17.479 16.824-18.243H404.94c.451 0 .894-.028 1.331-.076h62.984c10.101 0 18.319 8.218 18.319 18.319v191.791h.001c0 10.101-8.218 18.319-18.319 18.319z"/><path d="M340.211 255.272c-13.892 0-26.666 4.847-36.745 12.924-10.333-8.324-23.209-12.931-36.829-12.931-32.465 0-58.877 26.412-58.877 58.877s26.412 58.877 58.877 58.877c13.621 0 26.496-4.607 36.829-12.929 10.079 8.077 22.853 12.925 36.745 12.925 32.462 0 58.871-26.41 58.871-58.872s-26.409-58.871-58.871-58.871zm-52.258 85.929c-6.009 4.758-13.451 7.392-21.317 7.392-18.997.001-34.452-15.454-34.452-34.45 0-18.997 15.455-34.452 34.452-34.452 7.866 0 15.307 2.635 21.317 7.392a58.48 58.48 0 0 0-6.613 27.058 58.501 58.501 0 0 0 6.613 27.06zm52.258 7.388c-18.993 0-34.445-15.453-34.445-34.447 0-18.993 15.453-34.445 34.445-34.445 18.993 0 34.445 15.453 34.445 34.445 0 18.995-15.452 34.447-34.445 34.447z"/></svg>