<svg xmlns="http://www.w3.org/2000/svg" viewBox="0 0 512.001 512.001" fill="#4c5467"><path d="M141.247 31.99C125.777 11.362 104.892.003 82.44.003c-22.451 0-43.335 11.36-58.806 31.986C8.921 51.606.819 77.505.819 104.916c0 27.412 8.102 53.31 22.816 72.927 8.605 11.473 18.888 20.068 30.18 25.446L36.546 462.948c-.842 12.653 3.645 25.221 12.309 34.48 8.665 9.261 20.909 14.573 33.591 14.573 12.679 0 24.917-5.309 33.579-14.565 8.664-9.26 13.151-21.83 12.307-34.486l-17.269-259.656c11.294-5.379 21.578-13.974 30.184-25.449 14.712-19.617 22.816-45.517 22.816-72.927s-8.102-53.311-22.816-72.928zM98.874 481.389c-4.3 4.596-10.135 7.127-16.429 7.127-6.299 0-12.138-2.533-16.442-7.132-4.302-4.6-6.442-10.592-6.025-16.875l16.954-254.934c1.826.153 3.659.258 5.508.258 1.848 0 3.68-.106 5.505-.258l16.954 254.934c.417 6.286-1.721 12.281-6.025 16.88zM82.44 186.346c-4.207 0-8.308-.645-12.264-1.839-.328-.121-.66-.232-1-.324-25.683-8.431-44.872-40.759-44.872-79.266 0-44.899 26.08-81.429 58.136-81.429 32.057 0 58.138 36.529 58.138 81.429s-26.08 81.429-58.138 81.429zM511.18 305.92V13.222l-.099.043a11.697 11.697 0 0 0-1.653-7.696c-3.41-5.516-10.645-7.223-16.164-3.813-47.905 29.617-76.509 80.916-76.518 137.229l-.001.022v153.781c0 13.493 10.783 24.483 24.169 24.891V476.7c0 19.373 15.761 35.134 35.134 35.134s35.135-15.761 35.135-35.134V305.979c-.001-.02-.003-.039-.003-.059zm-69.505-11.685a1.444 1.444 0 0 1-1.444-1.445V139.028l.001-.014c0-40.621 17.413-78.189 47.462-104.139v259.36h-46.019zm46.022 182.467c0 6.423-5.225 11.649-11.65 11.649-6.423 0-11.649-5.225-11.649-11.649V317.721h23.299v158.981zM332.799.003c-6.485 0-11.743 5.257-11.743 11.743v133.4h-29.92v-133.4c0-6.485-5.258-11.743-11.743-11.743S267.65 5.26 267.65 11.746v133.4h-29.92v-133.4c0-6.485-5.258-11.743-11.743-11.743s-11.743 5.257-11.743 11.743V181.73c0 19.14 15.573 34.714 34.714 34.714h2.089l-16.475 247.65c-.827 12.352 3.551 24.624 12.013 33.67 8.463 9.049 20.42 14.238 32.807 14.238 12.385 0 24.342-5.189 32.806-14.237 8.461-9.045 12.839-21.318 12.013-33.666l-16.476-247.655h2.093c19.142 0 34.715-15.573 34.715-34.714V11.745C344.541 5.26 339.283.003 332.799.003zM295.045 481.72c-4.098 4.382-9.658 6.795-15.654 6.795s-11.556-2.413-15.654-6.795c-4.096-4.379-6.132-10.082-5.732-16.063l16.578-249.215h9.615l16.579 249.218c.4 5.978-1.635 11.681-5.732 16.06zm26.01-299.991c.001 6.192-5.036 11.228-11.228 11.228H248.959c-6.192 0-11.228-5.036-11.228-11.228v-13.1h83.324v13.1z"/></svg>