<svg xmlns="http://www.w3.org/2000/svg" viewBox="0 0 512 512" fill="#4c5467"><path d="M498.966 339.946c-7.197 0-13.034 5.837-13.034 13.034v49.804c0 28.747-23.388 52.135-52.135 52.135H78.203c-28.747 0-52.135-23.388-52.135-52.135V352.98c0-7.197-5.835-13.034-13.034-13.034C5.835 339.946 0 345.782 0 352.98v49.804c0 43.121 35.082 78.203 78.203 78.203h355.594c43.121 0 78.203-35.082 78.203-78.203V352.98c0-7.198-5.835-13.034-13.034-13.034z"/><path d="M419.833 391.3H92.167c-7.197 0-13.034 5.837-13.034 13.034s5.835 13.034 13.034 13.034h327.665c7.199 0 13.034-5.835 13.034-13.034 0-7.197-5.835-13.034-13.033-13.034zM387.919 207.93c-4.795-5.367-13.034-5.834-18.404-1.038l-100.482 89.765V44.048c0-7.197-5.835-13.034-13.034-13.034-7.197 0-13.034 5.835-13.034 13.034v252.609l-100.482-89.764c-5.367-4.796-13.607-4.328-18.404 1.038-4.794 5.369-4.331 13.609 1.037 18.404l109.174 97.527a32.496 32.496 0 0 0 21.708 8.292 32.517 32.517 0 0 0 21.708-8.289l109.174-97.53c5.37-4.798 5.834-13.038 1.039-18.405z"/></svg>