<svg xmlns="http://www.w3.org/2000/svg" viewBox="0 0 512 512" fill="#4c5467"><path d="M477.606 128.055C443.431 68.862 388.251 26.52 322.229 8.83 256.207-8.862 187.248.217 128.055 34.394 68.863 68.57 26.52 123.75 8.83 189.772-8.86 255.793.219 324.751 34.394 383.945c34.175 59.194 89.355 101.535 155.377 119.225 22.046 5.908 44.417 8.83 66.646 8.83 44.339-.001 88.101-11.629 127.529-34.393C443.138 443.432 485.48 388.25 503.17 322.23c17.692-66.023 8.611-134.981-25.564-194.175zm-.175 187.278c-15.849 59.146-53.78 108.579-106.81 139.197s-114.808 38.748-173.954 22.903c-59.146-15.849-108.579-53.78-139.197-106.81-30.616-53.028-38.75-114.807-22.901-173.954 15.849-59.146 53.78-108.579 106.81-139.197s114.809-38.749 173.954-22.901c59.146 15.849 108.579 53.78 139.197 106.81 30.615 53.027 38.75 114.805 22.901 173.952z"/><path d="M425.587 235.058l-122.681-70.829c-7.571-4.372-16.612-4.372-24.182 0-7.571 4.37-12.09 12.2-12.09 20.941v52.802a24.777 24.777 0 0 0-4.041-2.913L139.911 164.23c-7.571-4.372-16.612-4.372-24.182 0-7.571 4.37-12.09 12.2-12.09 20.941v141.661c0 8.742 4.521 16.571 12.09 20.941 3.787 2.186 7.938 3.279 12.092 3.279 4.152 0 8.305-1.093 12.09-3.279l122.681-70.829a24.59 24.59 0 0 0 4.041-2.913v52.802c0 8.742 4.521 16.571 12.09 20.941 3.787 2.186 7.938 3.279 12.092 3.279 4.152 0 8.305-1.093 12.09-3.279l122.681-70.829c7.572-4.37 12.09-12.2 12.09-20.943.001-8.742-4.517-16.574-12.089-20.944zM130.284 322.56V189.442l115.284 66.559-115.284 66.559zm162.996 0V189.442l115.284 66.559L293.28 322.56z"/></svg>