<svg xmlns="http://www.w3.org/2000/svg" viewBox="0 0 512 512" fill="#4c5467"><path d="M472.208 201.712c9.271-9.037 12.544-22.3 8.544-34.613-4.001-12.313-14.445-21.118-27.257-22.979l-112.03-16.279a6.75 6.75 0 0 1-5.084-3.694L286.28 22.632c-5.729-11.61-17.331-18.822-30.278-18.822s-24.549 7.212-30.278 18.822l-50.101 101.516a6.756 6.756 0 0 1-5.085 3.694L58.51 144.12c-12.812 1.861-23.255 10.666-27.257 22.979-4.002 12.313-.728 25.576 8.544 34.613l81.065 79.019a6.755 6.755 0 0 1 1.942 5.978l-19.137 111.576c-2.188 12.761 2.958 25.414 13.432 33.024 10.474 7.612 24.102 8.595 35.56 2.572l100.201-52.679a6.751 6.751 0 0 1 6.286 0l100.202 52.679c4.984 2.62 10.377 3.915 15.744 3.914 6.97 0 13.896-2.184 19.813-6.487 10.474-7.611 15.621-20.265 13.432-33.024L389.2 286.708a6.758 6.758 0 0 1 1.942-5.978l81.066-79.018zm-109.629 89.564l19.137 111.578c.64 3.734-1.665 5.863-2.686 6.604-1.022.74-3.76 2.277-7.112.513l-100.202-52.679a33.76 33.76 0 0 0-31.424-.001l-100.201 52.678c-3.354 1.763-6.091.228-7.112-.513s-3.327-2.87-2.686-6.604l19.137-111.576a33.755 33.755 0 0 0-9.711-29.886l-81.065-79.019c-2.713-2.646-2.099-5.723-1.708-6.923.389-1.201 1.702-4.052 5.451-4.596l112.027-16.279a33.76 33.76 0 0 0 25.424-18.471l50.101-101.516c1.677-3.397 4.793-3.764 6.056-3.764 1.261 0 4.377.366 6.055 3.764v.001l50.101 101.516a33.754 33.754 0 0 0 25.422 18.471l112.029 16.279c3.749.544 5.061 3.395 5.451 4.596.39 1.201 1.005 4.279-1.709 6.923l-81.065 79.019a33.754 33.754 0 0 0-9.71 29.885zM413.783 22.625c-6.036-4.384-14.481-3.046-18.865 2.988l-14.337 19.732c-4.384 6.034-3.047 14.481 2.988 18.865a13.456 13.456 0 0 0 7.928 2.58c4.177 0 8.295-1.931 10.937-5.567l14.337-19.732c4.384-6.035 3.047-14.482-2.988-18.866zM131.36 45.265l-14.337-19.732c-4.383-6.032-12.829-7.37-18.865-2.988-6.034 4.384-7.372 12.831-2.988 18.865l14.337 19.732a13.485 13.485 0 0 0 10.939 5.569c2.753 0 5.531-.839 7.927-2.581 6.034-4.383 7.372-12.83 2.987-18.865zM49.552 306.829c-2.305-7.093-9.924-10.976-17.019-8.671l-23.197 7.538c-7.095 2.305-10.976 9.926-8.671 17.019 1.854 5.709 7.149 9.337 12.842 9.337 1.383 0 2.79-.215 4.177-.666l23.197-7.538c7.094-2.305 10.976-9.924 8.671-17.019zM256.005 456.786c-7.459 0-13.506 6.047-13.506 13.506v24.392c0 7.459 6.047 13.506 13.506 13.506 7.459 0 13.506-6.047 13.506-13.506v-24.392c0-7.46-6.046-13.506-13.506-13.506zM502.664 305.715l-23.197-7.538c-7.092-2.303-14.714 1.577-17.019 8.672-2.305 7.095 1.576 14.714 8.671 17.019l23.197 7.538a13.51 13.51 0 0 0 4.176.664c5.694 0 10.989-3.629 12.843-9.337 2.305-7.094-1.577-14.713-8.671-17.018z"/></svg>