<svg xmlns="http://www.w3.org/2000/svg" viewBox="0 0 512 512" fill="#4c5467"><path d="M423.079 0H149.785c-18.102 0-32.827 14.726-32.827 32.828v28.039H79.52c-12.918 0-23.427 10.51-23.427 23.427v404.28c0 12.918 10.51 23.426 23.427 23.426h292.085c12.918 0 23.427-10.509 23.427-23.426v-37.441h28.046c18.102 0 32.829-14.727 32.829-32.829V32.828C455.907 14.726 441.18 0 423.079 0zM371.39 488.358H79.735V84.507h188.234v76.666c0 14.753 12.002 26.755 26.755 26.755h76.666v300.43zm-79.777-387.132l63.061 63.061h-59.949a3.115 3.115 0 0 1-3.112-3.112v-59.949zM423.079 427.49h-28.046V176.109c0-.096-.015-.182-.022-.273a11.806 11.806 0 0 0-3.44-8.086L288.149 64.329c-.005-.005-.011-.008-.015-.013a11.781 11.781 0 0 0-8.343-3.448H140.599v-28.04c0-5.064 4.12-9.185 9.185-9.185h273.293c5.065 0 9.186 4.12 9.186 9.185v385.476h.001c.001 5.065-4.119 9.186-9.185 9.186z"/></svg>