<svg xmlns="http://www.w3.org/2000/svg" viewBox="0 0 512 512" fill="#4c5467"><path d="M447.933 103.629c-.034-3.076-1.224-6.09-3.485-8.352L352.683 3.511l-.011-.008A11.942 11.942 0 0 0 344.206 0H89.278C75.361 0 64.04 11.32 64.04 25.237v461.525c0 13.916 11.32 25.237 25.237 25.237h333.444c13.916 0 25.237-11.32 25.237-25.237V103.753c.002-.044-.021-.081-.025-.124zm-91.739-62.698l50.834 50.834h-49.572a1.265 1.265 0 0 1-1.262-1.262V40.931zm67.789 445.832c0 .695-.566 1.261-1.261 1.261H89.278a1.263 1.263 0 0 1-1.261-1.261V25.237c0-.695.566-1.261 1.261-1.261h242.94v66.527c0 13.916 11.322 25.239 25.239 25.239h66.527v371.021z"/><path d="M362.088 164.014H149.912c-6.62 0-11.988 5.367-11.988 11.988 0 6.62 5.368 11.988 11.988 11.988h212.175c6.62 0 11.988-5.368 11.988-11.988.001-6.621-5.368-11.988-11.987-11.988zM362.088 236.353H149.912c-6.62 0-11.988 5.368-11.988 11.988 0 6.62 5.368 11.988 11.988 11.988h212.175c6.62 0 11.988-5.368 11.988-11.988.001-6.62-5.368-11.988-11.987-11.988zM362.088 308.691H149.912c-6.62 0-11.988 5.368-11.988 11.988 0 6.621 5.368 11.988 11.988 11.988h212.175c6.62 0 11.988-5.367 11.988-11.988.001-6.619-5.368-11.988-11.987-11.988zM256 381.031H149.912c-6.62 0-11.988 5.368-11.988 11.988 0 6.621 5.368 11.988 11.988 11.988H256c6.62 0 11.988-5.367 11.988-11.988 0-6.621-5.368-11.988-11.988-11.988z"/></svg>