<svg xmlns="http://www.w3.org/2000/svg" viewBox="0 0 512 512" fill="#4c5467"><path d="M447.938 129.704a11.974 11.974 0 0 0-3.49-8.128L326.383 3.511c-.005-.005-.01-.007-.014-.012A11.95 11.95 0 0 0 317.907 0H89.278C75.361 0 64.04 11.32 64.04 25.237v461.525c0 13.916 11.32 25.237 25.237 25.237h333.444c13.916 0 25.237-11.32 25.237-25.237v-356.71c.002-.118-.012-.232-.02-.348zM329.895 40.931l77.135 77.135h-72.076a5.064 5.064 0 0 1-5.059-5.059V40.931zm94.089 445.833a1.264 1.264 0 0 1-1.262 1.26H89.278a1.263 1.263 0 0 1-1.261-1.261V25.237c0-.695.566-1.261 1.261-1.261h216.641v89.031c0 16.009 13.025 29.035 29.035 29.035h89.031v344.722z"/></svg>