<svg xmlns="http://www.w3.org/2000/svg" viewBox="0 0 512 512" fill="#4c5467"><path d="M480.159 45.81H31.841C14.284 45.81 0 60.093 0 77.65v37.472c0 17.557 14.284 31.841 31.841 31.841h14.907L211.305 311.52v144.056a10.614 10.614 0 0 0 18.119 7.505l68.559-68.56a10.617 10.617 0 0 0 3.109-7.505v-75.498l164.554-164.555h14.514c17.557 0 31.841-14.284 31.841-31.841V77.65c-.001-17.557-14.285-31.84-31.842-31.84zM282.968 299.621a10.575 10.575 0 0 0-3.104 7.597v75.404l-47.332 47.332V307.156a10.585 10.585 0 0 0-3.107-7.536L76.768 146.963h358.857L282.968 299.621zm207.805-184.499c0 5.852-4.761 10.614-10.614 10.614H31.841c-5.852 0-10.614-4.761-10.614-10.614V77.65c0-5.852 4.761-10.614 10.614-10.614H480.16c5.852 0 10.614 4.761 10.614 10.614v37.472z"/></svg>