<svg xmlns="http://www.w3.org/2000/svg" viewBox="0 0 512 512" fill="#4c5467"><path d="M485.097 80.1H291.945a16.173 16.173 0 0 1-10.544-3.92l-35.432-30.566a37.708 37.708 0 0 0-24.596-9.14H94.423c-14.834 0-26.903 12.069-26.903 26.903v35.957H26.903C12.069 99.334 0 111.403 0 126.237v322.386c0 14.834 12.069 26.903 26.903 26.903h390.673c14.834 0 26.903-12.069 26.903-26.903v-35.949h40.618c14.834 0 26.903-12.069 26.903-26.903V107.003c0-14.835-12.069-26.903-26.903-26.903zm-62.14 368.523a5.387 5.387 0 0 1-5.381 5.381H26.903a5.387 5.387 0 0 1-5.381-5.381V227.428h401.434v221.195zm0-242.717H21.522v-79.668a5.387 5.387 0 0 1 5.381-5.381h126.943a16.14 16.14 0 0 1 10.542 3.919l35.434 30.559a37.678 37.678 0 0 0 24.598 9.141h193.156a5.387 5.387 0 0 1 5.381 5.381v36.049zm67.521 179.865a5.387 5.387 0 0 1-5.381 5.381h-40.618V169.856c0-14.834-12.069-26.903-26.903-26.903H224.42a16.146 16.146 0 0 1-10.543-3.918l-35.433-30.557a37.674 37.674 0 0 0-24.598-9.143H89.042V63.377a5.387 5.387 0 0 1 5.381-5.381h126.95c3.864 0 7.611 1.394 10.544 3.92l35.432 30.566a37.713 37.713 0 0 0 24.596 9.139h193.153a5.387 5.387 0 0 1 5.381 5.381v278.769z"/><path d="M380.144 264.111h-64.445c-5.943 0-10.761 4.818-10.761 10.761 0 5.942 4.818 10.761 10.761 10.761h64.445c5.943 0 10.761-4.819 10.761-10.761 0-5.944-4.817-10.761-10.761-10.761zM380.144 315.764h-64.445c-5.943 0-10.761 4.819-10.761 10.761s4.818 10.761 10.761 10.761h64.445c5.943 0 10.761-4.819 10.761-10.761s-4.817-10.761-10.761-10.761z"/></svg>