<svg xmlns="http://www.w3.org/2000/svg" viewBox="0 0 512 512" fill="#4c5467"><path d="M485.097 80.1H291.945a16.177 16.177 0 0 1-10.544-3.919l-35.433-30.568a37.71 37.71 0 0 0-24.595-9.138H94.423c-14.834 0-26.903 12.069-26.903 26.903v35.957H26.903C12.069 99.334 0 111.403 0 126.237v322.386c0 14.834 12.069 26.903 26.903 26.903h390.673c14.834 0 26.903-12.069 26.903-26.903v-35.949h40.618c14.834 0 26.903-12.069 26.903-26.903V107.003c0-14.835-12.069-26.903-26.903-26.903zm-62.14 368.523a5.387 5.387 0 0 1-5.381 5.381H26.903a5.387 5.387 0 0 1-5.381-5.381V227.428h401.434v221.195zm0-242.717H21.522v-79.668a5.387 5.387 0 0 1 5.381-5.381h126.943c3.869 0 7.612 1.391 10.542 3.918l35.434 30.56a37.679 37.679 0 0 0 24.598 9.142h193.156a5.387 5.387 0 0 1 5.381 5.381v36.048zm67.521 179.865a5.387 5.387 0 0 1-5.381 5.381h-40.618V169.857c0-14.834-12.069-26.903-26.903-26.903H224.42a16.141 16.141 0 0 1-10.542-3.918l-35.434-30.56a37.679 37.679 0 0 0-24.598-9.142H89.042V63.377a5.387 5.387 0 0 1 5.381-5.381h126.95c3.864 0 7.611 1.394 10.544 3.919l35.433 30.568a37.71 37.71 0 0 0 24.595 9.138h193.153a5.387 5.387 0 0 1 5.381 5.381v278.769z"/><path d="M268.417 329.955h-35.416v-35.416c0-5.943-4.818-10.761-10.761-10.761s-10.761 4.818-10.761 10.761v35.416h-35.416c-5.943 0-10.761 4.818-10.761 10.761s4.818 10.761 10.761 10.761h35.416v35.416c0 5.943 4.818 10.761 10.761 10.761s10.761-4.818 10.761-10.761v-35.416h35.416c5.943 0 10.761-4.818 10.761-10.761.001-5.944-4.817-10.761-10.761-10.761z"/></svg>