<svg xmlns="http://www.w3.org/2000/svg" viewBox="0 0 512 512" fill="#4c5467"><path d="M472.08 81.12c-26.96-27.572-63.022-42.757-101.546-42.757-37.93 0-73.593 14.773-100.421 41.602L256.267 93.82l-13.859-13.859c-26.826-26.826-62.482-41.599-100.401-41.599-37.931 0-73.593 14.773-100.417 41.599C14.77 106.78 0 142.439 0 180.37s14.77 73.59 41.59 100.409L219.072 458.26c10.253 10.251 23.717 15.377 37.184 15.377 13.464-.001 26.931-5.126 37.181-15.376l176.339-176.323c55.385-55.387 56.419-145.472 2.304-200.818zm-20.897 182.226L274.845 439.671c-10.251 10.25-26.931 10.25-37.181-.001L60.181 262.186c-21.854-21.853-33.889-50.909-33.889-81.817s12.035-59.964 33.889-81.818c21.858-21.859 50.918-33.897 81.826-33.897 30.896 0 59.95 12.038 81.809 33.897l13.866 13.866-21.233 21.249c-5.132 5.136-5.128 13.459.007 18.591a13.104 13.104 0 0 0 9.292 3.847c3.367 0 6.732-1.286 9.299-3.854l53.658-53.7c21.859-21.859 50.918-33.897 81.826-33.897 31.389 0 60.775 12.376 82.747 34.847 44.096 45.097 43.155 118.597-2.095 163.846z"/><path d="M466.29 174.403a95.846 95.846 0 0 0-27.891-61.909c-11.712-11.712-26.245-20.222-42.026-24.615-6.995-1.946-14.242 2.147-16.188 9.142-1.946 6.994 2.147 14.242 9.142 16.188 11.427 3.179 21.967 9.36 30.482 17.875a69.563 69.563 0 0 1 20.241 44.938c.431 6.971 6.218 12.336 13.109 12.336.272 0 .547-.008.823-.026 7.246-.445 12.756-6.682 12.308-13.929z"/></svg>