<svg xmlns="http://www.w3.org/2000/svg" viewBox="0 0 512 512" fill="#4c5467"><path d="M479.388 89.13H32.612C14.63 89.13 0 103.76 0 121.742v268.516c0 17.982 14.63 32.612 32.612 32.612h446.776c17.982 0 32.612-14.63 32.612-32.612V121.742c0-17.982-14.63-32.612-32.612-32.612zm10.871 301.127c0 5.994-4.877 10.871-10.871 10.871H32.612c-5.994 0-10.871-4.877-10.871-10.871V121.741c0-5.994 4.877-10.871 10.871-10.871h446.776c5.994 0 10.871 4.877 10.871 10.871v268.516z"/><path d="M422.107 184.506H305.442c-6.004 0-10.871 4.868-10.871 10.871 0 6.004 4.867 10.871 10.871 10.871h116.665c6.004 0 10.871-4.867 10.871-10.871 0-6.003-4.867-10.871-10.871-10.871zM422.107 245.129H305.442c-6.004 0-10.871 4.867-10.871 10.871 0 6.003 4.867 10.871 10.871 10.871h116.665c6.004 0 10.871-4.868 10.871-10.871 0-6.004-4.867-10.871-10.871-10.871zM422.107 305.752H305.442c-6.004 0-10.871 4.868-10.871 10.871s4.867 10.871 10.871 10.871h116.665c6.004 0 10.871-4.868 10.871-10.871s-4.867-10.871-10.871-10.871zM200.747 290.243c-.22-.015-20.116.814-25.49-20.71 7.261-5.715 13.354-13.656 17.708-23.14.322.032.644.072.964.072a9.787 9.787 0 0 0 7.72-3.774c9.129-11.725 13.876-26.949 13.368-42.868-1.056-33.004-24.017-59.022-52.312-59.328a26.014 26.014 0 0 0-2.02.009l-.04.001c-6.865-2.975-14.097-4.369-21.55-4.124-15.932.509-30.55 8.401-41.158 22.223-10.165 13.243-15.446 30.475-14.869 48.527.098 3.054.34 5.87.728 8.538 1.053 7.686 3.173 15.054 6.301 21.897a9.78 9.78 0 0 0 8.311 5.698 9.646 9.646 0 0 0 2.876-.261c4.427 10.973 11.116 20.104 19.206 26.479-5.267 21.488-25.28 20.749-25.499 20.763-21.389.7-38.576 18.305-38.576 39.86v39.614a9.783 9.783 0 0 0 9.784 9.784h163.339a9.783 9.783 0 0 0 9.784-9.784v-39.614c.001-21.557-17.187-39.162-38.575-39.862zm-97.444-76.415c-.045-.299-.088-.6-.13-.901a57.157 57.157 0 0 1-.545-6.426c-.434-13.542 3.413-26.321 10.833-35.985 6.972-9.085 16.301-14.262 26.262-14.581.329-.011 8.148-.63 14.725 3.257 1.377.814 3.064 1.057 4.655 1.018.201-.005 3.133-.153 3.281-.152 17.53.115 32.37 18.233 33.078 40.388a52.06 52.06 0 0 1-.296 7.499c-6.475-11.114-16.093-19.72-27.539-24.533a9.784 9.784 0 0 0-12.967 5.625 42.124 42.124 0 0 1-2.726 5.917c-2.569 4.594-7.825 7.303-13.716 7.118a53.69 53.69 0 0 0-3.521-.005 52.362 52.362 0 0 0-16.657 3.264 52.927 52.927 0 0 0-14.737 8.497zm13.635 14.201c2.479-1.832 5.203-3.187 7.976-4.375 5.056-2.168 11.888-2.05 12.627-2.024 12.603.428 24.108-5.469 30.51-15.515 4.992 3.825 9.115 8.977 11.991 15.082-3.03 21.957-16.695 38.661-32.201 38.661-13.834 0-26.25-13.085-30.903-31.829zm21.499 50.294a40.903 40.903 0 0 0 9.404 1.102c3.229 0 6.391-.383 9.463-1.099 3.153 10.068 9.776 18.612 18.454 24.244-4.174 11.486-15.217 19.539-27.888 19.539s-23.714-8.053-27.889-19.54c8.68-5.633 15.303-14.177 18.456-24.246zm-62.453 81.611v-29.83c0-11.209 9.119-20.327 20.328-20.327.224 0 3.793-.205 5.322-.411 6.966 19.002 25.257 32.311 46.235 32.311 20.978 0 39.269-13.309 46.235-32.311 1.531.206 5.097.411 5.321.411 11.21 0 20.328 9.119 20.328 20.327v29.83H75.984z"/></svg>