<svg xmlns="http://www.w3.org/2000/svg" viewBox="0 0 512 512" fill="#4c5467"><path d="M489.396 44.856H22.604C10.14 44.856 0 54.996 0 67.46v377.08c0 12.464 10.14 22.604 22.604 22.604h466.792c12.464 0 22.604-10.14 22.604-22.604V67.46c0-12.464-10.14-22.604-22.604-22.604zm0 399.684l-466.791.015-.001-.015V67.46h466.792v377.08z"/><path d="M446.975 98.58H65.024c-6.241 0-11.302 5.061-11.302 11.302v249.8c0 6.241 5.061 11.301 11.302 11.301h381.95c6.241 0 11.302-5.061 11.302-11.302V109.882c.001-6.241-5.06-11.302-11.301-11.302zM76.326 121.184h359.346v191.334l-71.228-71.22c-4.412-4.412-11.568-4.412-15.983 0l-43.421 43.421-99.56-99.56c-4.413-4.41-11.569-4.412-15.983 0l-113.17 113.16V121.184zm0 227.194v-18.095l121.162-121.15 139.244 139.245H76.326zm359.348.001h-66.973v-.001l-47.676-47.676 35.429-35.43 76.622 76.612c.788.788 1.666 1.43 2.597 1.936v4.559z"/><path d="M304.345 142.629c-23.56 0-42.729 19.168-42.729 42.729s19.168 42.729 42.729 42.729 42.729-19.168 42.729-42.729-19.169-42.729-42.729-42.729zm0 62.854c-11.098 0-20.125-9.027-20.125-20.125 0-11.097 9.028-20.124 20.125-20.124 11.096 0 20.124 9.027 20.124 20.124 0 11.098-9.027 20.125-20.124 20.125zM163.332 396.458H65.024c-6.241 0-11.302 5.061-11.302 11.302 0 6.242 5.061 11.302 11.302 11.302h98.308c6.242 0 11.302-5.061 11.302-11.302s-5.06-11.302-11.302-11.302zM240.689 396.458h-25.785c-6.241 0-11.302 5.061-11.302 11.302s5.061 11.302 11.302 11.302h25.785c6.242 0 11.302-5.061 11.302-11.302s-5.061-11.302-11.302-11.302z"/></svg>