<svg xmlns="http://www.w3.org/2000/svg" viewBox="0 0 512.001 512.001" fill="#4c5467"><path d="M457.637 134.681c-29.976 0-54.363 24.387-54.363 54.363a54.022 54.022 0 0 0 8.831 29.647l-58.733 58.733a54.028 54.028 0 0 0-29.648-8.831 54.049 54.049 0 0 0-30.576 9.441l-59.338-59.347a54.023 54.023 0 0 0 8.828-29.644c0-29.976-24.387-54.363-54.363-54.363s-54.363 24.387-54.363 54.363c0 10.931 3.254 21.108 8.827 29.641L84.004 277.42a54.02 54.02 0 0 0-29.641-8.827C24.387 268.593 0 292.981 0 322.957s24.387 54.363 54.363 54.363 54.363-24.387 54.363-54.363a54.028 54.028 0 0 0-8.831-29.648l58.733-58.733a54.028 54.028 0 0 0 29.648 8.831 54.02 54.02 0 0 0 29.646-8.831l59.666 59.674a54.03 54.03 0 0 0-8.226 28.706c0 29.976 24.387 54.363 54.363 54.363s54.363-24.387 54.363-54.363a54.026 54.026 0 0 0-8.827-29.641l58.736-58.736a54.025 54.025 0 0 0 29.641 8.827c29.976 0 54.363-24.387 54.363-54.363 0-29.977-24.388-54.362-54.364-54.362zM54.363 354.849c-17.586 0-31.893-14.307-31.893-31.892 0-17.586 14.307-31.893 31.893-31.893 17.585 0 31.893 14.307 31.893 31.893 0 17.585-14.307 31.892-31.893 31.892zm133.913-133.913c-17.585 0-31.893-14.307-31.893-31.893 0-17.585 14.307-31.893 31.893-31.893s31.893 14.307 31.893 31.893-14.307 31.893-31.893 31.893zm135.448 133.913c-17.585 0-31.893-14.307-31.893-31.893s14.307-31.893 31.893-31.893c17.585 0 31.893 14.307 31.893 31.893-.001 17.586-14.308 31.893-31.893 31.893zm133.913-133.913c-17.585 0-31.893-14.307-31.893-31.893 0-17.585 14.307-31.893 31.893-31.893 17.585 0 31.893 14.307 31.893 31.893s-14.308 31.893-31.893 31.893z"/><path d="M176.774 272.717c-4.388-4.387-11.501-4.387-15.889 0l-22.854 22.854c-4.387 4.387-4.387 11.501.001 15.889 2.194 2.194 5.069 3.291 7.944 3.291s5.751-1.098 7.944-3.291l22.854-22.854c4.389-4.387 4.389-11.502 0-15.889zM373.962 200.939c-4.388-4.387-11.5-4.387-15.89.001l-22.854 22.854c-4.387 4.387-4.387 11.501 0 15.889a11.206 11.206 0 0 0 7.945 3.29c2.876 0 5.75-1.098 7.944-3.291l22.854-22.854c4.388-4.388 4.388-11.502.001-15.889z"/></svg>