<svg xmlns="http://www.w3.org/2000/svg" viewBox="0 0 512 512" fill="#4c5467"><path d="M511.638 205.056a22.855 22.855 0 0 0-6.762-16.262 22.85 22.85 0 0 0-16.246-6.718h-.033l-465.618.64a22.86 22.86 0 0 0-16.261 6.763 22.856 22.856 0 0 0-6.717 16.279l.362 263.123c.016 12.677 10.335 22.98 23.013 22.98h.029l465.617-.641a22.858 22.858 0 0 0 16.263-6.762 22.858 22.858 0 0 0 6.717-16.28l-.364-263.122zm-48.298.065L256.02 349.249 48.286 205.691l415.054-.57zM342.454 372.339l123.65 95.901-420.548.579 124.386-96.481c5.021-3.894 5.933-11.121 2.04-16.142-3.894-5.021-11.121-5.933-16.142-2.039L23.355 456.919l-.33-240.714 226.473 156.508a11.502 11.502 0 0 0 13.109-.018l226.036-157.139.346 241.315-132.431-102.715c-5.021-3.892-12.247-2.981-16.142 2.04-3.896 5.021-2.983 12.248 2.038 16.143zM310.509 62.36l-41.851-37.387c-7.215-6.444-18.1-6.444-25.316 0L201.491 62.36c-4.739 4.234-5.149 11.507-.916 16.245 4.234 4.74 11.505 5.147 16.245.917l27.674-24.723v88.673c0 6.353 5.151 11.505 11.505 11.505 6.353 0 11.505-5.152 11.505-11.505V54.799l27.674 24.722a11.461 11.461 0 0 0 7.66 2.925c3.163 0 6.312-1.297 8.585-3.84 4.234-4.738 3.825-12.012-.914-16.246z"/></svg>