<svg xmlns="http://www.w3.org/2000/svg" viewBox="0 0 512.002 512.002" fill="#4c5467"><path d="M72.434 97.054c-16.334 0-29.624 13.29-29.624 29.624 0 16.335 13.29 29.625 29.624 29.625s29.624-13.29 29.624-29.625c0-16.334-13.29-29.624-29.624-29.624zm0 37.937c-4.584 0-8.313-3.73-8.313-8.314s3.729-8.313 8.313-8.313c4.584 0 8.313 3.728 8.313 8.313s-3.73 8.314-8.313 8.314z"/><path d="M491.813 187.618v-75.237c0-14.565-11.853-26.43-26.432-26.447l-333.163-.167a73.237 73.237 0 0 0-8.926-10.66C109.384 61.39 90.973 53.966 71.409 54.255 32.267 54.797.234 87.091.001 126.241c-.068 11.602 2.674 23.157 7.93 33.42.104.204 17.329 29.086 17.329 29.086v242.348c0 14.577 11.86 26.437 26.432 26.437l413.663.224c14.589 0 26.458-11.865 26.458-26.448V291.324s12.153-20.381 12.257-20.586c5.188-10.129 7.931-21.534 7.931-32.982-.001-18.869-7.166-36.587-20.188-50.138zm-72.858-80.396l-51.448 51.448-51.5-51.5 102.948.052zm-65.012 65.011l-89.665 89.665-32.784-32.784-.005-.005-.005-.005-24.592-24.592 89.665-89.664 57.386 57.385zM175.387 298.777l49.322-49.322 63.367 63.367-49.322 49.322-63.367-63.367zm12.022 39.146l-55.327 55.326-44.332-44.333 55.326-55.326 44.333 44.333zm-50.477-178.262c5.188-10.129 7.931-21.534 7.931-32.982 0-6.725-.928-13.298-2.686-19.596l134.953.068-83.799 83.799-30.007-30.007a9.593 9.593 0 0 0-13.563 0c-3.745 3.745-3.745 9.818 0 13.564l61.386 61.386-49.322 49.322-39.946-39.946c-3.745-3.744-9.817-3.744-13.563 0a9.592 9.592 0 0 0 0 13.564l21.196 21.196-82.94 82.939V224.465l7.568 12.684c3.881 6.504 10.719 10.387 18.292 10.387s14.411-3.883 18.292-10.386c-.001-.001 46.104-77.285 46.208-77.489zM26.75 149.652c-3.657-7.251-5.487-15.082-5.438-23.284.164-27.63 22.769-50.421 50.39-50.804 13.817-.17 26.808 5.036 36.624 14.717a51.396 51.396 0 0 1 8.518 11.065c.099.191.209.374.32.557 4.165 7.492 6.388 15.956 6.388 24.777 0 8.091-1.83 15.818-5.439 22.974l-45.67 76.576-45.693-76.578zm24.948 286.569a5.13 5.13 0 0 1-5.125-5.125v-41.002l27.614-27.614 73.793 73.794-96.282-.053zm123.422.066l-29.476-29.476 55.327-55.326 84.861 84.862-110.712-.06zm77.197-60.581l49.322-49.322 35.816 35.816-49.322 49.322-35.816-35.816zm60.655 60.656l-11.277-11.277 49.322-49.322 60.653 60.653-98.698-.054zm152.389.082l-26.55-.014-74.23-74.23 22.341-22.341a9.59 9.59 0 1 0-13.563-13.564l-22.342 22.342-42.592-42.592-.005-.005-.005-.005-30.573-30.574 36.354-36.354 18.838 18.838c2.081 2.08 4.808 3.121 7.535 3.121s5.455-1.041 7.535-3.121c4.161-4.161 4.161-10.908 0-15.071l-18.838-18.838 116.8-116.8 19.297.01c2.832.003 5.137 2.307 5.137 5.135v59.841c-9.847-4.663-20.706-7.058-31.956-6.888-39.142.543-71.174 32.835-71.406 71.986-.068 11.602 2.674 23.157 7.93 33.42.104.203 46.209 77.488 46.209 77.488 3.881 6.504 10.719 10.387 18.293 10.387 7.573 0 14.411-3.882 18.291-10.386l12.64-21.185v104.265h.003a5.15 5.15 0 0 1-5.143 5.135zM485.25 260.73l-13.449 22.55c-.004.009-.011.017-.015.026l-32.207 54.001-45.691-76.578c-3.657-7.251-5.487-15.082-5.438-23.284.163-27.63 22.769-50.42 50.391-50.803 13.79-.188 26.807 5.035 36.622 14.716 9.818 9.683 15.226 22.61 15.226 36.399 0 8.091-1.83 15.818-5.439 22.973z"/><path d="M439.571 208.133c-16.335 0-29.624 13.29-29.624 29.625 0 16.334 13.29 29.624 29.624 29.624 16.335 0 29.624-13.29 29.624-29.624 0-16.337-13.289-29.625-29.624-29.625zm0 37.936c-4.584 0-8.313-3.728-8.313-8.313s3.728-8.314 8.313-8.314 8.313 3.73 8.313 8.314-3.729 8.313-8.313 8.313z"/></svg>