<svg xmlns="http://www.w3.org/2000/svg" viewBox="0 0 512 512" fill="#4c5467"><path d="M500.995 110.65H11.005C4.927 110.65 0 115.577 0 121.655v268.69c0 6.078 4.927 11.005 11.005 11.005h489.989c6.078 0 11.005-4.927 11.005-11.005v-268.69c.001-6.078-4.926-11.005-11.004-11.005zM22.011 132.661h55.872c-4.687 28.575-27.297 51.184-55.872 55.872v-55.872zm0 246.678v-55.872c28.575 4.687 51.184 27.297 55.872 55.872H22.011zm467.978 0h-55.872c4.687-28.575 27.297-51.184 55.872-55.872v55.872zm0-78.091c-40.727 5.003-73.088 37.364-78.091 78.092H100.102c-5.003-40.728-37.364-73.089-78.091-78.092v-90.496c40.727-5.003 73.088-37.364 78.091-78.091h311.796c5.003 40.727 37.364 73.089 78.091 78.091v90.496zm0-112.716c-28.575-4.687-51.184-27.297-55.872-55.872h55.872v55.872z"/><path d="M397.209 208.603c-12.137 0-22.011-9.874-22.011-22.011a9.904 9.904 0 0 0-9.905-9.905H146.707a9.904 9.904 0 0 0-9.905 9.905c0 12.137-9.874 22.011-22.011 22.011a9.904 9.904 0 0 0-9.905 9.905v74.985a9.904 9.904 0 0 0 9.905 9.905c12.137 0 22.011 9.874 22.011 22.011a9.904 9.904 0 0 0 9.905 9.905h218.585a9.904 9.904 0 0 0 9.905-9.905c0-12.137 9.874-22.011 22.011-22.011a9.904 9.904 0 0 0 9.905-9.905v-74.985c.001-5.471-4.434-9.905-9.904-9.905zm-9.905 76.169c-15.118 3.686-27.045 15.612-30.731 30.731H155.428c-3.686-15.118-15.612-27.045-30.731-30.731v-57.545c15.118-3.686 27.045-15.612 30.731-30.731h201.146c3.686 15.118 15.614 27.045 30.731 30.731v57.545z"/><path d="M218.49 210.503h-14.866c-5.471 0-9.905 4.434-9.905 9.905s4.434 9.905 9.905 9.905h4.962v61.28a9.904 9.904 0 0 0 9.905 9.905 9.904 9.904 0 0 0 9.905-9.905v-71.185c-.001-5.471-4.435-9.905-9.906-9.905zM307.816 210.503H262.27a9.904 9.904 0 0 0-9.905 9.905v71.185a9.904 9.904 0 0 0 9.905 9.905h45.546a9.904 9.904 0 0 0 9.905-9.905v-71.185c0-5.471-4.435-9.905-9.905-9.905zm-9.905 71.184h-25.736v-51.375h25.736v51.375z"/></svg>