<svg xmlns="http://www.w3.org/2000/svg" viewBox="0 0 511.998 511.998" fill="#4c5467"><path d="M454.837 7.765a43.244 43.244 0 0 0-39.661-5.103L197.309 82.92c-16.915 6.231-28.28 22.53-28.28 40.555v245.242c-12.431-8.824-28.382-12.304-45.873-9.805-19.734 2.819-39.255 13.025-54.966 28.737-15.712 15.712-25.918 35.233-28.737 54.966-2.997 20.982 2.579 39.767 15.703 52.89 10.805 10.805 25.445 16.492 41.993 16.492 3.55 0 7.191-.262 10.896-.791 19.734-2.819 39.255-13.025 54.967-28.737 15.711-15.712 25.918-35.233 28.737-54.967.446-3.128.68-6.2.75-9.221.008-.182.027-212.657.027-212.657l257.317-94.791v154.435c-12.43-8.822-28.381-12.303-45.873-9.805-19.734 2.818-39.255 13.025-54.967 28.737s-25.918 35.233-28.737 54.967c-2.998 20.982 2.579 39.767 15.702 52.89 10.805 10.805 25.445 16.494 41.994 16.494 3.55 0 7.191-.262 10.896-.792 19.734-2.819 39.255-13.025 54.967-28.737 15.711-15.712 25.918-35.233 28.737-54.967.445-3.125.775-280.839.775-280.839a43.25 43.25 0 0 0-18.5-35.451zM169.029 416.976a52.91 52.91 0 0 1-.54 7.205c-2.105 14.735-9.95 29.536-22.092 41.677-12.141 12.141-26.942 19.987-41.676 22.091-13.48 1.925-25.186-1.29-32.953-9.056-7.766-7.766-10.983-19.47-9.056-32.954 2.105-14.734 9.95-29.535 22.091-41.675 12.141-12.141 26.942-19.987 41.676-22.093a52.684 52.684 0 0 1 7.453-.545c10.32 0 19.205 3.307 25.5 9.603 6.27 6.27 9.571 15.107 9.598 25.375v.372zM449.842 85.798L192.524 180.59v-57.113c0-8.227 5.187-15.664 12.907-18.508l217.867-80.26c6.137-2.26 12.734-1.413 18.101 2.33 5.365 3.74 8.443 9.639 8.443 16.179v42.58zm-.001 227.712a53.048 53.048 0 0 1-.54 7.225c-2.105 14.734-9.951 29.533-22.091 41.675-12.141 12.142-26.942 19.987-41.676 22.093-13.485 1.927-25.187-1.291-32.953-9.057-7.766-7.766-10.984-19.469-9.057-32.953 2.105-14.734 9.95-29.535 22.093-41.676 12.141-12.141 26.941-19.986 41.675-22.091a52.695 52.695 0 0 1 7.453-.545c10.32 0 19.205 3.306 25.5 9.602 6.274 6.274 9.575 15.119 9.598 25.396v.331z"/></svg>