<svg xmlns="http://www.w3.org/2000/svg" viewBox="0 0 512 512" fill="#4c5467"><path d="M477.607 128.055C443.432 68.863 388.251 26.52 322.229 8.83 256.208-8.862 187.248.218 128.055 34.393 68.861 68.57 26.52 123.75 8.83 189.771-8.862 255.793.219 324.753 34.394 383.945c34.175 59.192 89.355 101.535 155.377 119.225 22.046 5.908 44.417 8.83 66.646 8.83 44.339-.001 88.101-11.629 127.529-34.395C443.137 443.43 485.48 388.25 503.17 322.228c17.692-66.021 8.611-134.98-25.563-194.173zm-.176 187.278c-15.848 59.146-53.78 108.579-106.81 139.197-53.03 30.616-114.808 38.749-173.954 22.901-59.146-15.849-108.579-53.78-139.197-106.81-30.616-53.028-38.749-114.807-22.901-173.954 15.848-59.146 53.78-108.579 106.81-139.197 53.03-30.616 114.81-38.748 173.952-22.901 59.146 15.848 108.581 53.78 139.197 106.81 30.617 53.028 38.752 114.807 22.903 173.954z"/><path d="M311.843 233.811l-138.971-80.236c-8.024-4.631-17.601-4.631-25.624-.001-8.022 4.631-12.812 12.927-12.812 22.191v160.471c0 9.264 4.79 17.558 12.812 22.191 4.01 2.317 8.41 3.474 12.81 3.474 4.401 0 8.802-1.158 12.812-3.474l138.973-80.236c8.021-4.63 12.811-12.927 12.811-22.19 0-9.263-4.79-17.559-12.811-22.19zm-150.76 100.65V177.539l135.899 78.46-135.899 78.462zM364.241 153.2c-7.358 0-13.324 5.967-13.324 13.324v178.968c0 7.358 5.966 13.324 13.324 13.324s13.324-5.965 13.324-13.324V166.524c0-7.357-5.966-13.324-13.324-13.324z"/></svg>