<svg xmlns="http://www.w3.org/2000/svg" viewBox="0 0 512 512" fill="#4c5467"><path d="M505.025 19.549c-14.688-14.686-44.146-6.307-92.708 26.377-41.254 27.766-90.738 69.819-139.336 118.417-72.047 72.046-126.823 142.784-145.061 186.458a63.494 63.494 0 0 0-9.327-2.593c-18.872-3.733-39.369 1.04-56.238 13.086-24.207 17.286-30.618 41.971-31.549 46.132-5.096 19.032-14.747 37.191-27.921 52.529-4.237 4.933-3.753 12.349 1.09 16.691 16.927 15.17 38.58 22.779 61.102 22.779 21.706 0 44.22-7.069 64.077-21.249 9.311-6.649 16.36-14.001 17.725-15.456 16.872-18.131 24.036-41.904 20.482-63.625 42.85-15.361 117.553-72.181 192.871-147.499 48.598-48.598 90.652-98.083 118.417-139.336 32.683-48.564 41.064-78.022 26.376-92.711zM129.392 446.415c-.642.685-6.495 6.852-14.13 12.302-27.732 19.8-61.684 22.09-86.345 6.845 11.549-15.834 20.132-33.683 25.063-52.254v-.001c.055-.208.105-.418.149-.63.041-.189 4.193-19.127 22.119-31.927 11.53-8.235 25.277-11.547 37.711-9.089 10.255 2.026 18.876 7.88 24.275 16.48 10.595 16.877 6.87 41.391-8.842 58.274zm29.825-69.752c-.245-.41-3.87-7.77-10.624-13.24 5.819-15.557 18.346-36.584 35.806-60.729l37.455 37.455c-26.349 18.967-47.94 31.331-62.637 36.514zm81.981-50.978l-42.301-42.301c7.31-9.41 15.219-19.157 23.648-29.127l47.806 47.806c-10.118 8.545-19.862 16.43-29.153 23.622zm213.961-221.419c-26.926 38.916-66.643 85.235-111.832 130.422-18.973 18.973-37.367 36.232-54.844 51.694l-50.257-50.257c15.94-18.032 33.32-36.538 51.661-54.877 45.188-45.189 91.507-84.905 130.422-111.834 47.916-33.155 64.45-33.208 67.626-32.774.436 3.173.378 19.713-32.776 67.626z"/><path d="M119.256 414.119c-5.783-3.183-13.052-1.076-16.236 4.708a8.62 8.62 0 0 1-1.158 1.626c-.894.93-3.832 3.77-6.884 5.951-4.63 3.305-9.626 5.674-14.85 7.041-6.387 1.671-10.209 8.203-8.538 14.59 1.406 5.372 6.25 8.93 11.555 8.93 1.002 0 2.019-.127 3.034-.391 8.049-2.106 15.684-5.71 22.693-10.714 4.499-3.213 10.471-9.095 10.512-9.14a32.545 32.545 0 0 0 4.583-6.366c3.182-5.784 1.073-13.053-4.711-16.235z"/></svg>