<svg xmlns="http://www.w3.org/2000/svg" viewBox="0 0 512 512" fill="#4c5467"><path d="M477.607 128.055C443.432 68.861 388.25 26.52 322.229 8.83 256.207-8.862 187.249.218 128.055 34.393 68.862 68.57 26.52 123.75 8.83 189.771-8.86 255.793.219 324.752 34.394 383.945c34.175 59.194 89.355 101.535 155.377 119.225 22.046 5.908 44.417 8.83 66.644 8.83 44.339-.001 88.101-11.629 127.529-34.395 59.193-34.175 101.535-89.355 119.225-155.377 17.692-66.021 8.613-134.98-25.562-194.173zm-.176 187.278c-15.849 59.146-53.78 108.579-106.81 139.197-53.028 30.616-114.806 38.748-173.952 22.901-59.147-15.849-108.581-53.78-139.197-106.81-30.616-53.028-38.75-114.807-22.901-173.954C50.42 137.521 88.351 88.088 141.381 57.47c35.325-20.395 74.523-30.812 114.249-30.812 19.91 0 39.958 2.62 59.705 7.91 59.147 15.849 108.581 53.78 139.197 106.81 30.614 53.029 38.747 114.808 22.899 173.955z"/><path d="M210.706 133.118h-33.12c-14.694 0-26.648 11.954-26.648 26.648v192.468c0 14.694 11.954 26.648 26.648 26.648h33.12c14.694 0 26.648-11.954 26.648-26.648V159.766c0-14.694-11.954-26.648-26.648-26.648zm0 219.116h-33.12V159.766h33.12l.017 192.466s-.005.002-.017.002zM334.416 133.118h-33.12c-14.694 0-26.648 11.954-26.648 26.648v192.468c0 14.694 11.954 26.648 26.648 26.648h33.12c14.694 0 26.648-11.954 26.648-26.648V159.766c0-14.694-11.955-26.648-26.648-26.648zm-.002 219.116h-33.12V159.766h33.12l.017 192.466c.001 0-.005.002-.017.002z"/></svg>