<svg xmlns="http://www.w3.org/2000/svg" viewBox="0 0 512 512" fill="#4c5467"><path d="M492.557 400.56L392.234 300.238c-11.976-11.975-31.458-11.975-43.435 0l-26.088 26.088c-8.174 8.174-10.758 19.845-7.773 30.241l-9.843 9.843-.008.008c-6.99 6.998-50.523-3.741-103.145-56.363-52.614-52.613-63.356-96.139-56.366-103.142 0-.002.002-.002.002-.002l9.852-9.851a30.876 30.876 0 0 0 8.523 1.207c7.865 0 15.729-2.993 21.718-8.98l26.088-26.088c11.975-11.975 11.975-31.458 0-43.434L111.436 19.441c-5.8-5.8-13.513-8.994-21.716-8.994-8.205 0-15.915 3.196-21.716 8.994l-26.09 26.09c-8.174 8.174-10.758 19.846-7.773 30.241 0 0-8.344 8.424-8.759 8.956-27.753 30.849-32.96 79.418-14.561 137.487 18.017 56.857 56.857 117.088 109.367 169.595 52.508 52.508 112.739 91.348 169.596 109.367 22.84 7.237 44.207 10.823 63.61 10.823 31.813 0 58.337-9.648 77.35-28.66l5.474-5.474a30.83 30.83 0 0 0 8.532 1.213c8.205 0 15.917-3.196 21.716-8.994l26.09-26.09c11.975-11.975 11.975-31.459.001-43.435zM89.72 41.157l100.324 100.325-26.074 26.102-.014-.014-.375-.375-49.787-49.787-50.163-50.161 26.089-26.09zm319.309 420.466l-.005.005c-22.094 22.091-61.146 25.74-109.961 10.27-52.252-16.558-108.065-52.714-157.156-101.806C92.814 321 56.658 265.189 40.101 212.936c-15.47-48.817-11.821-87.87 10.275-109.967l.002-.002 2.77-2.77 77.857 77.856-7.141 7.141-.015.017c-29.585 29.622 5.963 96.147 56.378 146.562 37.734 37.734 84.493 67.14 118.051 67.14 11.284 0 21.076-3.325 28.528-10.778l.008-.008 7.133-7.133 77.857 77.856-2.775 2.773zm35.723-13.255L344.428 348.044l26.088-26.088L470.84 422.278s-26.079 26.099-26.088 26.09zM388.818 123.184c-29.209-29.209-68.042-45.294-109.344-45.293-8.481 0-15.356 6.875-15.356 15.356s6.876 15.356 15.356 15.356c33.1-.002 64.219 12.89 87.628 36.297 23.406 23.406 36.295 54.525 36.294 87.624 0 8.481 6.875 15.358 15.356 15.358 8.48 0 15.356-6.875 15.356-15.354.001-41.304-16.085-80.135-45.29-109.344z"/><path d="M443.895 68.107C399.972 24.186 341.578-.002 279.468 0c-8.481 0-15.356 6.876-15.356 15.356 0 8.481 6.876 15.356 15.356 15.356 53.907-.002 104.588 20.992 142.709 59.111 38.118 38.118 59.111 88.799 59.11 142.706 0 8.481 6.875 15.356 15.356 15.356 8.48 0 15.356-6.875 15.356-15.354.002-62.112-24.186-120.504-68.104-164.424zM333.737 178.26c-14.706-14.706-33.465-22.477-54.256-22.477h-.006c-8.481.002-15.356 6.876-15.354 15.358.002 8.481 6.878 15.356 15.358 15.354h.005c12.644 0 23.593 4.536 32.539 13.481 8.819 8.82 13.481 20.075 13.479 32.544-.002 8.481 6.875 15.356 15.354 15.358h.002c8.481 0 15.354-6.875 15.356-15.354.001-20.792-7.77-39.556-22.477-54.264z"/></svg>