<svg xmlns="http://www.w3.org/2000/svg" viewBox="0 0 512 512" fill="#4c5467"><path d="M255.999 152.46c-72.513 0-131.508 58.995-131.508 131.509s58.995 131.508 131.508 131.508 131.508-58.994 131.508-131.508S328.514 152.46 255.999 152.46zm0 242.078c-60.968 0-110.57-49.601-110.57-110.57 0-60.969 49.601-110.571 110.57-110.571 60.969 0 110.57 49.602 110.57 110.571s-49.601 110.57-110.57 110.57z"/><path d="M255.999 201.914c-45.245 0-82.055 36.809-82.055 82.055 0 45.245 36.81 82.053 82.055 82.053s82.055-36.809 82.055-82.053-36.81-82.055-82.055-82.055zm0 144.272c-34.307 0-62.218-27.91-62.218-62.217s27.911-62.218 62.218-62.218 62.218 27.911 62.218 62.218c.001 34.307-27.91 62.217-62.218 62.217z"/><path d="M478.939 114.334H344.133l-13.768-37.5c-4.049-11.029-14.662-18.438-26.411-18.438h-95.908c-11.749 0-22.362 7.41-26.411 18.438l-13.769 37.499H122.06V99.637c0-11.849-9.639-21.49-21.49-21.49H68.85c-11.849 0-21.49 9.641-21.49 21.49v14.697H33.061C14.831 114.334 0 129.165 0 147.395v273.148c0 18.23 14.831 33.061 33.061 33.061h445.878c18.23 0 33.061-14.831 33.061-33.061V147.395c0-18.23-14.831-33.061-33.061-33.061zM202.324 84.431a6.116 6.116 0 0 1 5.721-3.994h95.908a6.116 6.116 0 0 1 5.721 3.994l10.979 29.903H191.345l10.979-29.903zM68.3 99.637c0-.303.247-.551.551-.551h31.72c.304 0 .551.248.551.551v14.697H68.3V99.637zm-46.259 98.096h32.643v172.47H22.041v-172.47zm467.917 222.81c.001 6.077-4.943 11.02-11.019 11.02H33.061c-6.077 0-11.02-4.944-11.02-11.02v-28.299h43.663c6.086 0 11.02-4.935 11.02-11.02V186.713c0-6.085-4.934-11.02-11.02-11.02H22.041v-28.299c0-6.077 4.944-11.02 11.02-11.02h303.296c.029 0 .056.003.084.003l.074-.003h142.424c6.077 0 11.02 4.944 11.02 11.02v28.299h-43.663c-6.087 0-11.02 4.935-11.02 11.02v194.511c0 6.085 4.934 11.02 11.02 11.02h43.663v28.299zm.001-50.34h-32.643v-172.47h32.643v172.47z"/><path d="M255.999 243.425c-22.356 0-40.544 18.188-40.544 40.544 0 5.478 4.44 9.918 9.918 9.918s9.918-4.44 9.918-9.918c0-11.418 9.289-20.707 20.707-20.707 5.478 0 9.918-4.44 9.918-9.918s-4.438-9.919-9.917-9.919z"/></svg>