<svg xmlns="http://www.w3.org/2000/svg" viewBox="0 0 512 512" fill="#4c5467"><path d="M482.195 226.196C482.195 101.471 380.725 0 256.001 0S29.805 101.471 29.805 226.196c0 7.409 6.007 13.416 13.416 13.416s13.416-6.008 13.416-13.416c0-109.93 89.434-199.363 199.363-199.363s199.363 89.434 199.363 199.363c0 109.928-89.434 199.362-199.363 199.362h-23.276l33.282-37.255c4.937-5.525 4.458-14.007-1.067-18.944-5.525-4.937-14.008-4.457-18.944 1.068l-47.576 53.255c-7.788 8.718-7.788 21.866 0 30.584l47.576 53.255a13.379 13.379 0 0 0 10.01 4.478c3.181 0 6.375-1.126 8.934-3.41 5.526-4.937 6.004-13.419 1.067-18.944l-33.282-37.255H256c124.725 0 226.195-101.471 226.195-226.194z"/></svg>