<svg xmlns="http://www.w3.org/2000/svg" viewBox="0 0 512 512" fill="#4c5467"><path d="M475.429 0H36.571C16.406 0 0 16.406 0 36.571V475.43C0 495.594 16.406 512 36.571 512h438.857C495.594 512 512 495.594 512 475.429V36.571C512 16.406 495.594 0 475.429 0zM24.381 143.579h57.785v23.573H24.381v-23.573zm0 47.954h34.743v128.934H24.381V191.533zm0 153.315h57.785v23.573H24.381v-23.573zm463.238 130.581c0 6.722-5.469 12.19-12.19 12.19H36.571c-6.722 0-12.19-5.469-12.19-12.19v-82.627h34.743V435.2c0 9.746 7.93 17.676 17.676 17.676h358.4c9.746 0 17.676-7.93 17.676-17.676V76.8c0-9.746-7.93-17.676-17.676-17.676H76.8c-9.746 0-17.676 7.93-17.676 17.676v42.398H24.381V36.571c0-6.722 5.469-12.19 12.19-12.19h438.857c6.722 0 12.19 5.469 12.19 12.19v438.858zM94.357 320.467H82.286V191.533h12.071c6.733 0 12.19-5.459 12.19-12.19v-47.954c0-6.732-5.458-12.19-12.19-12.19H82.286V82.286h347.429v347.429H82.286v-36.913h12.071c6.733 0 12.19-5.459 12.19-12.19v-47.954c0-6.732-5.457-12.191-12.19-12.191z"/><path d="M340.476 171.524c-46.581-46.579-122.372-46.579-168.951 0-46.58 46.581-46.58 122.372 0 168.953 23.29 23.289 53.883 34.934 84.475 34.934 30.593 0 61.185-11.646 84.476-34.934 46.58-46.582 46.58-122.372 0-168.953zm12.364 73.503h-30.597v.001a66.393 66.393 0 0 0-11.643-28.111l21.671-21.671c11.722 14.695 18.573 32.01 20.569 49.781zm-85.869-85.866c17.771 1.996 35.088 8.847 49.782 20.569l-21.671 21.671a66.367 66.367 0 0 0-28.111-11.643v-30.597zm-21.942-.001v30.597a66.382 66.382 0 0 0-28.111 11.644l-21.671-21.671c14.694-11.722 32.01-18.574 49.782-20.57zm-65.299 36.086l21.671 21.671a66.382 66.382 0 0 0-11.644 28.111h-30.596c1.995-17.771 8.847-35.087 20.569-49.782zm-20.569 71.725h30.596a66.382 66.382 0 0 0 11.644 28.111l-21.671 21.671c-11.722-14.694-18.574-32.01-20.569-49.782zm85.868 85.869c-17.771-1.996-35.088-8.848-49.782-20.57l21.671-21.671a66.382 66.382 0 0 0 28.111 11.644v30.597zm-20.994-64.877c-8.538-8.537-13.24-19.888-13.24-31.963 0-12.076 4.702-23.426 13.24-31.963 8.538-8.538 19.89-13.24 31.965-13.24s23.426 4.702 31.963 13.24c8.538 8.537 13.24 19.888 13.24 31.963 0 12.076-4.702 23.426-13.24 31.963-8.537 8.538-19.889 13.24-31.963 13.24s-23.426-4.701-31.965-13.24zm42.936 64.878v-30.598a66.38 66.38 0 0 0 28.111-11.643l21.671 21.671c-14.694 11.722-32.01 18.575-49.782 20.57zm65.299-36.089l-21.671-21.671a66.367 66.367 0 0 0 11.643-28.111h30.597c-1.995 17.773-8.847 35.089-20.569 49.782z"/></svg>