<svg xmlns="http://www.w3.org/2000/svg" viewBox="0 0 512.001 512.001" fill="#4c5467"><path d="M404.99 344.077c-26.743 0-50.588 12.583-65.974 32.124l-154.093-88.964a83.477 83.477 0 0 0 6.049-31.236 83.504 83.504 0 0 0-6.049-31.236l154.093-88.964c15.387 19.54 39.231 32.124 65.974 32.124 46.297 0 83.962-37.666 83.962-83.962C488.952 37.666 451.288 0 404.99 0s-83.962 37.665-83.962 83.961a83.487 83.487 0 0 0 6.052 31.24l-154.091 88.964c-15.387-19.542-39.233-32.127-65.978-32.127-46.297 0-83.962 37.666-83.962 83.962 0 46.296 37.665 83.962 83.962 83.962 26.745 0 50.591-12.585 65.978-32.127L327.08 396.8a83.484 83.484 0 0 0-6.052 31.24c0 46.297 37.665 83.961 83.962 83.961s83.962-37.665 83.962-83.961-37.664-83.963-83.962-83.963zm0-320.269c33.169 0 60.155 26.985 60.155 60.153 0 33.169-26.985 60.155-60.155 60.155-33.169 0-60.155-26.986-60.155-60.155.001-33.169 26.987-60.153 60.155-60.153zM107.011 316.155c-33.169 0-60.155-26.986-60.155-60.155s26.985-60.155 60.155-60.155c33.169 0 60.155 26.986 60.155 60.155s-26.986 60.155-60.155 60.155zM404.99 488.192c-33.169 0-60.155-26.985-60.155-60.153 0-33.169 26.985-60.155 60.155-60.155 33.169 0 60.155 26.986 60.155 60.155s-26.986 60.153-60.155 60.153z"/><path d="M107.011 220.606c-19.516 0-35.394 15.877-35.394 35.394 0 6.573 5.329 11.904 11.904 11.904S95.425 262.573 95.425 256c0-6.389 5.197-11.586 11.586-11.586 6.574 0 11.904-5.331 11.904-11.904 0-6.574-5.33-11.904-11.904-11.904z"/></svg>