<svg xmlns="http://www.w3.org/2000/svg" viewBox="0 0 512 512" fill="#4c5467"><path d="M256.002 418.133c-15.662 0-28.404 12.741-28.404 28.403s12.742 28.403 28.404 28.403 28.403-12.741 28.403-28.403-12.742-28.403-28.403-28.403zm0 37.136c-4.816 0-8.734-3.918-8.734-8.733s3.918-8.733 8.734-8.733c4.815 0 8.733 3.918 8.733 8.733-.002 4.815-3.92 8.733-8.733 8.733zM302.587 40.447h-50.403c-5.734 0-10.382 4.648-10.382 10.382s4.649 10.382 10.382 10.382h50.403c5.734 0 10.382-4.648 10.382-10.382s-4.648-10.382-10.382-10.382z"/><circle cx="220.312" cy="51.085" r="10.899"/><path d="M377.101 0H134.899c-18.077 0-32.784 14.707-32.784 32.784v446.431c0 18.077 14.707 32.784 32.784 32.784H377.1c18.077 0 32.784-14.707 32.784-32.784V32.784C409.885 14.707 395.178 0 377.101 0zm10.928 479.216c0 6.026-4.902 10.928-10.928 10.928H134.899c-6.026 0-10.928-4.902-10.928-10.928V32.784c0-6.026 4.902-10.928 10.928-10.928H377.1c6.026 0 10.928 4.902 10.928 10.928v446.432z"/><path d="M274.418 205.204c-4.269-4.266-11.186-4.266-15.456 0l-52.494 52.495c-4.267 4.267-4.267 11.187.001 15.455 2.134 2.134 4.931 3.202 7.727 3.202s5.594-1.068 7.727-3.201l52.494-52.495c4.268-4.268 4.268-11.188.001-15.456zM305.532 235.626c-4.268-4.266-11.186-4.266-15.456 0l-20.912 20.912c-4.266 4.267-4.266 11.187.001 15.456 2.134 2.133 4.931 3.201 7.727 3.201s5.593-1.068 7.727-3.201l20.912-20.912c4.269-4.268 4.269-11.188.001-15.456z"/><path d="M355.366 80.892h-198.73c-5.432 0-9.835 4.403-9.835 9.835v301.275c0 5.432 4.403 9.835 9.835 9.835h198.73c5.432 0 9.835-4.403 9.835-9.835V90.727c0-5.431-4.403-9.835-9.835-9.835zm-9.836 301.275H166.47V100.563h179.06v281.604z"/></svg>