<svg xmlns="http://www.w3.org/2000/svg" viewBox="0 0 512 512" fill="#4c5467"><path d="M299.476 70.848a31.864 31.864 0 0 0-32.77 1.583l-137.195 91.466H77.498c-13.339 0-24.299 10.298-25.394 23.358H44.76c-24.681 0-44.76 20.079-44.76 44.76v47.972c0 24.681 20.079 44.76 44.76 44.76h7.343c1.096 13.06 12.057 23.358 25.394 23.358h52.012l137.195 91.466a31.885 31.885 0 0 0 17.704 5.369 31.896 31.896 0 0 0 15.066-3.786 31.87 31.87 0 0 0 16.859-28.145V98.993a31.864 31.864 0 0 0-16.857-28.145zM51.994 299.418H44.76c-10.714-.001-19.43-8.717-19.43-19.432v-47.972c0-10.714 8.716-19.43 19.43-19.43h7.234v86.834zm68.686 23.357H77.498a.174.174 0 0 1-.174-.174V189.4c0-.096.078-.174.174-.174h43.182v133.549zm170.326 90.235c0 3.564-2.434 5.252-3.482 5.812-1.047.56-3.802 1.65-6.768-.327l-134.747-89.833V183.34l134.747-89.832c2.967-1.977 5.722-.887 6.768-.327 1.047.56 3.482 2.248 3.482 5.812V413.01zM445.607 95.47c-4.452-4.452-11.668-4.452-16.12 0-4.452 4.452-4.452 11.668 0 16.12 38.509 38.509 59.716 89.795 59.716 144.411 0 54.617-21.209 105.904-59.717 144.412-4.452 4.452-4.452 11.668 0 16.119a11.354 11.354 0 0 0 8.06 3.338c2.917 0 5.835-1.113 8.06-3.338C488.421 373.717 512 316.706 512 255.999c0-60.705-23.579-117.716-66.393-160.529zM383.011 158.067c-4.452-4.453-11.668-4.453-16.12-.001s-4.452 11.668 0 16.12c21.815 21.815 33.829 50.871 33.828 81.816 0 30.944-12.014 60.001-33.829 81.816-4.452 4.452-4.452 11.668 0 16.12a11.354 11.354 0 0 0 8.06 3.338c2.917 0 5.835-1.113 8.06-3.338 26.121-26.121 40.507-60.902 40.507-97.936 0-37.033-14.385-71.815-40.506-97.935z"/></svg>