<svg xmlns="http://www.w3.org/2000/svg" viewBox="0 0 512 512" fill="#4c5467"><path d="M465.423 48.241h-137.61V23.955C327.813 10.746 317.082 0 303.893 0h-95.785c-13.19 0-23.92 10.746-23.92 23.955V48.24H46.577c-6.655 0-12.049 5.394-12.049 12.049 0 6.655 5.394 12.049 12.049 12.049h22.332l15.228 396.396A44.858 44.858 0 0 0 129.099 512h253.804a44.855 44.855 0 0 0 44.96-43.267l15.228-396.396h22.332c6.653 0 12.049-5.394 12.049-12.049 0-6.653-5.394-12.047-12.049-12.047zM208.285 24.097h95.43V48.24h-95.43V24.097zm195.499 443.712a20.833 20.833 0 0 1-20.882 20.094H129.099a20.835 20.835 0 0 1-20.882-20.095L93.025 72.338h325.952l-15.193 395.471z"/><path d="M182.63 181.571c-.127-6.575-5.494-11.817-12.042-11.817-.078 0-.158 0-.236.002-6.652.128-11.943 5.626-11.815 12.278l3.781 196.634c.126 6.575 5.495 11.817 12.042 11.817.078 0 .158 0 .236-.002 6.653-.128 11.943-5.624 11.815-12.278l-3.781-196.634zM255.998 169.753c-6.654 0-12.049 5.394-12.049 12.049v196.634c0 6.654 5.394 12.049 12.049 12.049 6.655 0 12.049-5.394 12.049-12.049V181.802c0-6.654-5.394-12.049-12.049-12.049zM341.645 169.756c-6.628-.147-12.151 5.162-12.278 11.815l-3.781 196.634c-.129 6.653 5.162 12.15 11.815 12.278l.236.002c6.546 0 11.916-5.244 12.042-11.817l3.781-196.634c.128-6.654-5.161-12.151-11.815-12.278z"/></svg>