<svg xmlns="http://www.w3.org/2000/svg" viewBox="0 0 512 512" fill="#4c5467"><path d="M498.966 339.95c-7.197 0-13.034 5.835-13.034 13.034v49.804c0 28.747-23.388 52.135-52.135 52.135H78.203c-28.747 0-52.135-23.388-52.135-52.135v-49.804c0-7.199-5.835-13.034-13.034-13.034C5.835 339.95 0 345.785 0 352.984v49.804c0 43.121 35.082 78.203 78.203 78.203h355.594c43.121 0 78.203-35.082 78.203-78.203v-49.804c0-7.199-5.835-13.034-13.034-13.034z"/><path d="M419.833 391.305H92.167c-7.197 0-13.034 5.835-13.034 13.034s5.835 13.034 13.034 13.034h327.665c7.199 0 13.034-5.835 13.034-13.034s-5.835-13.034-13.033-13.034zM386.882 136.832L277.708 39.301c-12.376-11.055-31.04-11.057-43.417 0l-109.174 97.53c-5.369 4.795-5.833 13.035-1.037 18.404 4.795 5.367 13.034 5.835 18.405 1.037l100.482-89.764v252.61c0 7.199 5.837 13.034 13.034 13.034 7.199 0 13.034-5.835 13.034-13.034V66.508l100.482 89.764a12.985 12.985 0 0 0 8.678 3.315c3.583 0 7.15-1.469 9.726-4.351 4.793-5.369 4.329-13.607-1.039-18.404z"/></svg>