<svg xmlns="http://www.w3.org/2000/svg" viewBox="0 0 512.001 512.001" fill="#4c5467"><path d="M369.464 339.057c-.405-.043-56.194 1.396-64.702-58.184 20.437-14.371 36.793-37.544 46.039-65.952.369 2.755.669 5.525.839 8.325a11.569 11.569 0 0 0 20.675 6.41c19.664-25.256 29.886-58.155 28.785-92.634-1.082-33.83-12.957-65.567-33.441-89.367-20.876-24.254-48.396-37.746-77.521-38.011-1.487-.065-5.782.093-6.623.152C268.343 2.801 252.291-.468 235.773.054c-33.699 1.077-64.723 17.911-87.36 47.399-22.108 28.803-33.589 66.405-32.328 105.878.214 6.686.742 12.843 1.598 18.726 2.305 16.822 6.937 32.932 13.771 47.884a11.568 11.568 0 0 0 20.394 1.223c1.413-2.312 3.298-5.317 5.399-8.125a97.066 97.066 0 0 1 2.345-3.025c6.196 21.189 16.413 40.232 29.691 54.975 5.56 6.173 11.586 11.508 17.955 15.961-9.659 60.085-64.292 58.067-64.697 58.11-40.848 1.399-73.652 35.042-73.652 76.226v85.148c0 6.39 5.179 11.569 11.569 11.569h351.087c6.39 0 11.569-5.179 11.569-11.569v-85.148c.001-41.186-32.804-74.83-73.65-76.229zM159.453 177.75c-.364.27-10.527 9.255-14.129 13.299a152.836 152.836 0 0 1-4.732-22.229c-.744-5.112-1.195-10.42-1.38-16.229-1.091-34.142 8.695-66.478 27.556-91.05 18.336-23.886 43.104-37.51 69.744-38.362.892-.029 19.835-1.163 39.67 8.757 1.705.853 3.708 1.262 5.596 1.2.216-.007 7.796-.357 7.969-.356 22.428.148 43.868 10.792 60.374 29.968 17.047 19.807 26.938 46.447 27.851 75.012.587 18.332-2.571 36.07-9.078 51.937a134.108 134.108 0 0 0-6.984-17.872c-13.59-28.914-36.45-51.305-64.369-63.046a11.564 11.564 0 0 0-9.087.05 11.563 11.563 0 0 0-6.247 6.599 109.354 109.354 0 0 1-7.084 15.374c-8.047 14.393-24.216 22.939-42.15 22.327a113.6 113.6 0 0 0-7.452-.009c-12.132.389-23.962 2.699-35.209 6.888-11.141 4.206-21.498 10.18-30.859 17.742zm19.503 14.257c6.084-4.263 12.609-7.74 19.482-10.336 8.842-3.293 18.201-5.118 27.823-5.426 1.957-.061 7.673.053 8.551.053 25.603-.002 48.619-12.942 60.508-34.206a132.319 132.319 0 0 0 3.581-6.877c14.952 8.562 27.642 21.214 36.915 36.782a11.534 11.534 0 0 0-.349 2.003c-2.253 27.855-11.889 53.452-27.136 72.078-14.608 17.846-33.215 27.674-52.391 27.674-35.659.002-67.264-33.989-76.984-81.745zm50.014 100.207c8.727 3.081 17.793 4.677 26.97 4.677 9.362 0 18.446-1.637 27.091-4.701 5.112 25.764 21.646 47.462 44.092 59.571-7.895 32.318-37.132 55.796-71.118 55.796-33.987 0-63.223-23.478-71.119-55.797 22.436-12.105 38.967-33.793 44.084-59.546zM92.028 488.862v-73.579c0-29.31 23.845-53.155 53.154-53.155.415 0 11.231-.272 17.905-2.191 11.326 41.154 49.136 70.76 92.916 70.76 43.779 0 81.589-29.606 92.915-70.76 6.505 1.775 17.489 2.191 17.904 2.191 29.309 0 53.154 23.845 53.154 53.155v73.579H92.028z"/></svg>