<svg xmlns="http://www.w3.org/2000/svg" viewBox="0 0 512 512" fill="#4c5467"><path d="M512 89.745C512 40.26 471.74 0 422.255 0c-26.09 0-49.607 11.198-66.02 29.031-32.607-14.724-67.42-22.205-103.648-22.205C113.31 6.826 0 120.137 0 259.413S113.31 512 252.587 512s252.587-113.31 252.587-252.587c0-36.229-7.48-71.041-22.205-103.649C500.802 139.351 512 115.835 512 89.745zm-89.745-64.486c35.558 0 64.487 28.929 64.487 64.487 0 35.558-28.929 64.487-64.487 64.487s-64.487-28.929-64.487-64.487c0-35.559 28.929-64.487 64.487-64.487zM252.587 486.741c-125.349 0-227.328-101.979-227.328-227.328S127.238 32.085 252.587 32.085c31.077 0 60.993 6.096 89.123 18.131a89.187 89.187 0 0 0-9.199 39.53c0 49.486 40.26 89.744 89.745 89.744a89.2 89.2 0 0 0 39.53-9.199c12.033 28.129 18.129 58.044 18.129 89.123 0 125.348-101.979 227.327-227.328 227.327z"/><path d="M455.773 77.116h-67.035c-6.974 0-12.629 5.654-12.629 12.629s5.654 12.629 12.629 12.629h67.035c6.974 0 12.629-5.654 12.629-12.629s-5.655-12.629-12.629-12.629zM330.184 304.615c-.284-.021-29.416 1.632-39.988-31.294 5.768-4.406 11.113-9.845 15.875-16.293 10.223-13.841 16.889-31.092 19.418-49.746a11.385 11.385 0 0 0 1.79-2.93c4.38-10.431 6.601-21.565 6.601-33.09 0-44.388-33.609-80.501-74.92-80.501-10.607 0-20.9 2.387-30.631 7.099a55.725 55.725 0 0 0-10.49 1.955c-34.616 10.001-54.211 51.735-43.68 93.032a92.009 92.009 0 0 0 3.997 12.11 11.368 11.368 0 0 0 1.697 2.85c3.937 28.114 17.099 51.604 35.147 65.399-8.731 32.683-39.724 31.388-40.005 31.408-29.837.96-53.817 25.513-53.817 55.579v36.326c0 13.642 11.099 24.741 24.741 24.741h213.324c13.642 0 24.741-11.099 24.741-24.741v-36.326c0-30.059-23.972-54.61-53.8-55.578zm-106.035-182.96a33.493 33.493 0 0 1 7.757-1.257 11.396 11.396 0 0 0 4.774-1.292c7.086-3.723 14.582-5.611 22.279-5.611 27.253 0 49.681 23.249 51.98 52.768a36.591 36.591 0 0 0-19.549-5.639h-51.436c-2.23 0-4.346-.698-6.116-2.021a10.25 10.25 0 0 1-3.388-4.396 13.008 13.008 0 0 0-12.935-8.157 13.074 13.074 0 0 0-11.843 9.775c-2.16 8.3-5.974 16.095-11.105 22.929-3.404-26.487 8.835-51.105 29.582-57.099zm-21.87 82.37c8.012-7.483 14.608-16.383 19.381-26.201 5.422 3.626 11.71 5.533 18.295 5.533h51.436c5.442 0 10.163 3.106 12.511 7.633-.191 29.817-12.848 55.435-30.856 66.673-.572.274-8.891 6.087-20.415 6.087-24.358 0-45.77-25.835-50.352-59.725zm83.907 106.065a57.065 57.065 0 0 1-33.555 10.923 57.064 57.064 0 0 1-33.603-10.956c7.509-7.105 13.279-16.046 16.571-26.121a58.423 58.423 0 0 0 17.029 2.547c5.797 0 11.47-.871 16.954-2.511 3.303 10.076 9.083 19.015 16.604 26.118zm75.068 86.43h-.003a2.01 2.01 0 0 1-2.008 2.008H145.919a2.01 2.01 0 0 1-2.008-2.008v-36.326c0-18.137 14.755-32.892 32.892-32.892.261 0 13.943-.784 22.071-4.389a79.827 79.827 0 0 0 53.758 20.833 79.833 79.833 0 0 0 53.733-20.812c8.914 4.03 21.731 4.369 21.997 4.369 18.136 0 32.892 14.755 32.892 32.892v36.325z"/></svg>