<svg xmlns="http://www.w3.org/2000/svg" viewBox="0 0 512.001 512.001" fill="#4c5467"><path d="M481.086 188.037a11.432 11.432 0 0 0-11.278-.253l-73.901 39.777v-34.087c0-6.312-5.118-11.429-11.428-11.429h-18.586c23.179-18.799 38.024-47.493 38.024-79.594C403.918 45.96 357.958 0 301.465 0c-48.218 0-88.757 33.487-99.598 78.424-14.182-17.112-35.587-28.032-59.497-28.032-42.6 0-77.256 34.657-77.256 77.256 0 21.199 8.586 40.426 22.459 54.4H77.138c-6.312 0-11.429 5.117-11.429 11.429v51.879H36.776c-6.312 0-11.429 5.117-11.429 11.429v44.944c0 6.312 5.117 11.429 11.429 11.429h28.932v51.879c0 6.312 5.117 11.429 11.429 11.429h134.825l-61.946 118.825c-2.918 5.596-.746 12.499 4.851 15.417a11.378 11.378 0 0 0 5.273 1.297c4.123 0 8.105-2.239 10.143-6.147l60.523-116.098 60.524 116.098a11.426 11.426 0 0 0 15.417 4.85c5.597-2.918 7.769-9.821 4.85-15.417l-61.946-118.825h134.827c6.311 0 11.429-5.117 11.429-11.429v-34.088l73.901 39.777a11.424 11.424 0 0 0 11.278-.252 11.426 11.426 0 0 0 5.567-9.811V197.848c0-4.023-2.113-7.748-5.567-9.811zM65.709 290.297H48.205V268.21h17.504v22.087zm235.756-267.44c43.888 0 79.595 35.706 79.595 79.595 0 43.889-35.706 79.594-79.595 79.594-43.888 0-79.594-35.706-79.594-79.594.001-43.888 35.707-79.595 79.594-79.595zm-87.273 133.197a103.219 103.219 0 0 0 22.847 25.992h-39.872a77.502 77.502 0 0 0 17.025-25.992zM142.37 73.248c29.995 0 54.399 24.403 54.399 54.399 0 29.996-24.403 54.4-54.399 54.4-29.995 0-54.399-24.403-54.399-54.4.001-29.996 24.404-54.399 54.399-54.399zm230.68 173.443V353.604H88.566V204.902H373.05v41.789zm90.746 94.838l-67.889-36.542v-51.468l67.889-36.542v124.552z"/><path d="M142.37 92.931c-19.143 0-34.716 15.574-34.716 34.716 0 19.143 15.574 34.716 34.716 34.716 19.143 0 34.716-15.574 34.716-34.716.001-19.142-15.573-34.716-34.716-34.716zm0 48.86c-7.8 0-14.145-6.345-14.145-14.145s6.345-14.145 14.145-14.145 14.145 6.345 14.145 14.145-6.346 14.145-14.145 14.145zM301.465 52.595c-27.491 0-49.856 22.366-49.856 49.857 0 27.49 22.365 49.856 49.856 49.856 27.491 0 49.856-22.366 49.856-49.856 0-27.491-22.364-49.857-49.856-49.857zm0 76.856c-14.887 0-26.999-12.112-26.999-26.999 0-14.887 12.112-27 26.999-27s26.999 12.112 26.999 27-12.112 26.999-26.999 26.999zM264.593 238.137h-124.26c-5.997 0-10.857 4.861-10.857 10.857v60.519c0 5.997 4.861 10.857 10.857 10.857h124.26c5.997 0 10.857-4.861 10.857-10.857v-60.519c0-5.995-4.861-10.857-10.857-10.857zm-10.858 60.519H151.19v-38.804h102.546v38.804z"/><circle cx="324.536" cy="260.422" r="11.429"/><circle cx="324.536" cy="298.079" r="11.429"/></svg>